<?xml version="1.0" encoding="utf-8"?>
<!-- Generator: Adobe Illustrator 16.0.0, SVG Export Plug-In . SVG Version: 6.00 Build 0)  -->
<!DOCTYPE svg PUBLIC "-//W3C//DTD SVG 1.1//EN" "http://www.w3.org/Graphics/SVG/1.1/DTD/svg11.dtd">
<svg version="1.1" id="图层_1" xmlns="http://www.w3.org/2000/svg" xmlns:xlink="http://www.w3.org/1999/xlink" x="0px" y="0px"
	 width="2000px" height="2000px" viewBox="0 0 2000 2000" enable-background="new 0 0 2000 2000" xml:space="preserve">
<g>
	<path fill="#404040" d="M696.598,1262.307l-66.955-334.212l-40.225,123.796c-14.26,43.865-9.381,89.334,10.026,127.408h-0.009
		l0.009,0.008C618.848,1217.373,652.768,1248.063,696.598,1262.307z"/>
	<path fill="#404040" d="M1104.577,1387.463l-338.545-39.598l105.309,76.514c37.313,27.109,82.06,36.523,124.269,29.836l0,0h0.011
		C1037.823,1447.531,1077.485,1424.748,1104.577,1387.463z"/>
	<path fill="#404040" d="M1349.682,1038.127l-142.271,309.738l105.315-76.506c37.313-27.107,60.086-66.763,66.772-108.97
		c0,0,0,0,0.009,0v-0.008C1386.186,1120.176,1376.78,1075.418,1349.682,1038.127z"/>
	<path fill="#404040" d="M1093.189,697.07l250.613,231.021l-40.222-123.803c-14.253-43.864-44.925-77.78-82.999-97.172
		c-0.004-0.004-0.004-0.004,0.006-0.011l-0.01-0.002C1182.505,687.714,1137.021,682.817,1093.189,697.07z"/>
	
		<linearGradient id="SVGID_1_" gradientUnits="userSpaceOnUse" x1="4741.2695" y1="1108.2871" x2="4741.2695" y2="941.3208" gradientTransform="matrix(-0.309 0.951 0.951 0.309 1153.5844 -3730.4121)">
		<stop  offset="0" style="stop-color:#FFFFFF"/>
		<stop  offset="0.1408" style="stop-color:#F8F8F8"/>
		<stop  offset="0.3469" style="stop-color:#E4E4E4"/>
		<stop  offset="0.593" style="stop-color:#C4C4C4"/>
		<stop  offset="0.8677" style="stop-color:#989898"/>
		<stop  offset="1" style="stop-color:#808080"/>
	</linearGradient>
	<path fill="url(#SVGID_1_)" d="M589.419,1051.891l40.226-123.796l66.954,334.212c-43.832-14.243-77.75-44.934-97.153-83.008
		C580.038,1141.225,575.159,1095.756,589.419,1051.891z"/>
	
		<linearGradient id="SVGID_2_" gradientUnits="userSpaceOnUse" x1="4916.748" y1="687.855" x2="4916.748" y2="520.8911" gradientTransform="matrix(0.809 0.5878 0.5878 -0.809 -3397.5959 -1033.4631)">
		<stop  offset="0" style="stop-color:#FFFFFF"/>
		<stop  offset="0.1408" style="stop-color:#F8F8F8"/>
		<stop  offset="0.3469" style="stop-color:#E4E4E4"/>
		<stop  offset="0.593" style="stop-color:#C4C4C4"/>
		<stop  offset="0.8677" style="stop-color:#989898"/>
		<stop  offset="1" style="stop-color:#808080"/>
	</linearGradient>
	<path fill="url(#SVGID_2_)" d="M871.341,1424.379l-105.309-76.514l338.545,39.598c-27.091,37.285-66.754,60.066-108.969,66.752
		C953.398,1460.902,908.653,1451.49,871.341,1424.379z"/>
	
		<linearGradient id="SVGID_3_" gradientUnits="userSpaceOnUse" x1="4571.8945" y1="389.8081" x2="4571.8945" y2="222.8452" gradientTransform="matrix(0.809 -0.5878 -0.5878 -0.809 -2240.052 4128.1802)">
		<stop  offset="0" style="stop-color:#FFFFFF"/>
		<stop  offset="0.1408" style="stop-color:#F8F8F8"/>
		<stop  offset="0.3469" style="stop-color:#E4E4E4"/>
		<stop  offset="0.593" style="stop-color:#C4C4C4"/>
		<stop  offset="0.8677" style="stop-color:#989898"/>
		<stop  offset="1" style="stop-color:#808080"/>
	</linearGradient>
	<path fill="url(#SVGID_3_)" d="M1312.729,1271.359l-105.316,76.506l142.271-309.736c27.101,37.291,36.502,82.049,29.817,124.265
		C1372.813,1204.598,1350.04,1244.252,1312.729,1271.359z"/>
	
		<linearGradient id="SVGID_4_" gradientUnits="userSpaceOnUse" x1="4182.7227" y1="626.8369" x2="4182.7227" y2="459.8647" gradientTransform="matrix(-0.309 -0.951 -0.951 0.309 3027.6868 4622.4556)">
		<stop  offset="0" style="stop-color:#FFFFFF"/>
		<stop  offset="0.1408" style="stop-color:#F8F8F8"/>
		<stop  offset="0.3469" style="stop-color:#E4E4E4"/>
		<stop  offset="0.593" style="stop-color:#C4C4C4"/>
		<stop  offset="0.8677" style="stop-color:#989898"/>
		<stop  offset="1" style="stop-color:#808080"/>
	</linearGradient>
	<path fill="url(#SVGID_4_)" d="M1303.582,804.29l40.222,123.803L1093.189,697.07c43.83-14.253,89.314-9.354,127.395,10.048
		C1258.657,726.509,1289.329,760.425,1303.582,804.29z"/>
	<path fill="#404040" d="M689.563,835.615L986.72,668.659H856.547c-46.118-0.004-87.851,18.688-118.063,48.898l0,0l-0.011,0.012
		C708.266,747.782,689.563,789.524,689.563,835.615z"/>
	
		<linearGradient id="SVGID_5_" gradientUnits="userSpaceOnUse" x1="4286.4336" y1="1069.9824" x2="4286.4336" y2="903.0259" gradientTransform="matrix(-1 0 0 1 5124.5742 -234.3672)">
		<stop  offset="0" style="stop-color:#FFFFFF"/>
		<stop  offset="0.1408" style="stop-color:#F8F8F8"/>
		<stop  offset="0.3469" style="stop-color:#E4E4E4"/>
		<stop  offset="0.593" style="stop-color:#C4C4C4"/>
		<stop  offset="0.8677" style="stop-color:#989898"/>
		<stop  offset="1" style="stop-color:#808080"/>
	</linearGradient>
	<path fill="url(#SVGID_5_)" d="M856.547,668.659H986.72L689.563,835.615c0-46.091,18.702-87.833,48.92-118.058
		C768.696,687.347,810.429,668.655,856.547,668.659z"/>
</g>
<g>
	<polygon fill="#FBFBFB" points="719.956,1411.293 555.083,903.87 986.729,590.253 1418.372,903.867 1253.491,1411.293 	"/>
	<g>
		
			<linearGradient id="SVGID_6_" gradientUnits="userSpaceOnUse" x1="4117.5664" y1="1069.9961" x2="4117.5664" y2="903.0259" gradientTransform="matrix(-1 0 0 1 5124.5742 -234.3672)">
			<stop  offset="0.5" style="stop-color:#FFFFFF;stop-opacity:0"/>
			<stop  offset="1" style="stop-color:#808080"/>
		</linearGradient>
		<path fill="url(#SVGID_6_)" d="M856.547,668.659h238.094l229.808,166.971l-634.882-0.015c0-46.091,18.7-87.833,48.918-118.058
			C768.696,687.347,810.429,668.655,856.547,668.659z"/>
		
			<linearGradient id="SVGID_7_" gradientUnits="userSpaceOnUse" x1="4572.3965" y1="1108.2969" x2="4572.3965" y2="941.3179" gradientTransform="matrix(-0.309 0.951 0.951 0.309 1153.5844 -3730.4121)">
			<stop  offset="0.5" style="stop-color:#FFFFFF;stop-opacity:0"/>
			<stop  offset="1" style="stop-color:#808080"/>
		</linearGradient>
		<path fill="url(#SVGID_7_)" d="M589.419,1051.891l73.569-226.432l229.813-166.966l-196.204,603.812
			c-43.832-14.244-77.75-44.934-97.152-83.008C580.038,1141.225,575.159,1095.756,589.419,1051.891z"/>
		
			<linearGradient id="SVGID_8_" gradientUnits="userSpaceOnUse" x1="4403.0322" y1="389.835" x2="4403.0322" y2="222.8452" gradientTransform="matrix(0.809 -0.5878 -0.5878 -0.809 -2240.052 4128.1802)">
			<stop  offset="0.5" style="stop-color:#FFFFFF;stop-opacity:0"/>
			<stop  offset="1" style="stop-color:#808080"/>
		</linearGradient>
		<path fill="url(#SVGID_8_)" d="M1312.729,1271.359l-192.621,139.932l-284.064,0.004l513.641-373.166
			c27.102,37.291,36.504,82.049,29.818,124.265C1372.813,1204.598,1350.04,1244.252,1312.729,1271.359z"/>
		
			<linearGradient id="SVGID_9_" gradientUnits="userSpaceOnUse" x1="4013.8496" y1="626.8428" x2="4013.8496" y2="459.8618" gradientTransform="matrix(-0.309 -0.951 -0.951 0.309 3027.6868 4622.4556)">
			<stop  offset="0.5" style="stop-color:#FFFFFF;stop-opacity:0"/>
			<stop  offset="1" style="stop-color:#808080"/>
		</linearGradient>
		<path fill="url(#SVGID_9_)" d="M1303.582,804.29l73.576,226.435l-87.783,270.16L1093.189,697.07
			c43.83-14.253,89.314-9.354,127.395,10.048C1258.657,726.509,1289.329,760.425,1303.582,804.29z"/>
		
			<linearGradient id="SVGID_10_" gradientUnits="userSpaceOnUse" x1="4747.8867" y1="687.8535" x2="4747.8867" y2="520.8838" gradientTransform="matrix(0.809 0.5878 0.5878 -0.809 -3397.5959 -1033.4631)">
			<stop  offset="0.5" style="stop-color:#FFFFFF;stop-opacity:0"/>
			<stop  offset="1" style="stop-color:#808080"/>
		</linearGradient>
		<path fill="url(#SVGID_10_)" d="M871.341,1424.379l-192.616-139.94l-87.771-270.16l513.623,373.188
			c-27.091,37.283-66.754,60.066-108.97,66.752C953.398,1460.902,908.653,1451.49,871.341,1424.379z"/>
	</g>
</g>
<g>
	<g>
		<g>
			<g>
				<path fill="#E01000" d="M580.623,458.414l-222.681,35.268c-6.934,1.096-7.699,10.781-1.015,12.958l52.913,17.188l-34.85,107.253
					c-14.252,43.859-9.376,89.345,10.019,127.408l214.438,420.817c-19.404-38.073-24.29-83.553-10.03-127.416l138.037-424.86
					l52.959,17.203c6.681,2.171,11.755-6.109,6.796-11.078l-159.421-159.42C615.457,461.407,597.846,455.684,580.623,458.414z"/>
			</g>
			<g opacity="0.75">
				
					<linearGradient id="SVGID_11_" gradientUnits="userSpaceOnUse" x1="-747.8447" y1="-540.582" x2="-865.906" y2="-658.6433" gradientTransform="matrix(0.309 -0.9511 0.9511 0.309 1329.7961 238.1122)">
					<stop  offset="0" style="stop-color:#590E09;stop-opacity:0"/>
					<stop  offset="1" style="stop-color:#FFFFFF"/>
				</linearGradient>
				<path fill="url(#SVGID_11_)" d="M357.942,493.682c-6.934,1.096-7.699,10.781-1.015,12.958l52.913,17.188l-34.85,107.253
					c-14.252,43.859-9.376,89.345,10.019,127.408l214.438,420.817c-19.404-38.073-24.29-83.553-10.03-127.416l51.584-158.767
					l-209.47-411.098L357.942,493.682z"/>
			</g>
			<g>
				<g>
					<path fill="#EC6161" d="M357.942,493.682c0,0,27.675-4.969,72.471-12.651c22.396-3.839,49.076-8.357,78.714-13.273
						c14.817-2.454,30.383-5.012,46.518-7.634c15.724-1.889,33.244-8.111,51.114-1.898c18.104,5.477,28.62,20.813,40.232,31.574
						c11.516,11.605,22.599,22.825,33.142,33.521c21.094,21.398,40.021,40.731,55.88,57.007
						c31.729,32.545,51.197,52.831,51.197,52.831s-20.286-19.463-52.831-51.188c-16.271-15.864-35.613-34.793-57.01-55.882
						c-10.699-10.544-21.912-21.637-33.521-33.148c-12.017-11.073-22.224-25.602-38.522-30.306
						c-15.961-5.775-32.758-0.021-48.988,1.871c-16.158,2.499-31.742,4.873-46.601,7.118c-29.708,4.482-56.478,8.433-78.968,11.701
						C385.797,489.859,357.942,493.682,357.942,493.682z"/>
				</g>
			</g>
		</g>
	</g>
	<g>
		<g>
			<g>
				<path fill="#273339" d="M1418.262,476.897l-102.347-200.883c-3.188-6.252-12.637-3.985-12.637,3.037v55.637h-112.774
					c-46.119-0.002-87.864,18.69-118.068,48.903L738.474,717.569c30.218-30.223,71.955-48.914,118.073-48.91l446.731-0.009v55.688
					c0,7.021,9.447,9.289,12.637,3.029l102.347-200.881C1426.188,510.951,1426.188,492.433,1418.262,476.897z"/>
			</g>
			<g opacity="0.75">
				
					<linearGradient id="SVGID_12_" gradientUnits="userSpaceOnUse" x1="-293.2803" y1="-578.3325" x2="-411.3394" y2="-696.3918" gradientTransform="matrix(1 0 0 1 1404.6797 1159.0791)">
					<stop  offset="0" style="stop-color:#1E2629;stop-opacity:0"/>
					<stop  offset="1" style="stop-color:#FFFFFF"/>
				</linearGradient>
				<path fill="url(#SVGID_12_)" d="M1315.915,276.014c-3.188-6.252-12.637-3.985-12.637,3.037v55.637h-112.774
					c-46.119-0.002-87.864,18.69-118.068,48.903L738.474,717.569c30.218-30.223,71.955-48.914,118.073-48.91l166.942-0.004
					l326.245-326.25L1315.915,276.014z"/>
			</g>
			<g>
				<path fill="#798184" d="M1315.915,276.014c0,0,13.277,24.786,34.428,65.013c10.569,20.112,23.113,44.089,36.943,70.761
					c6.916,13.336,14.16,27.346,21.636,41.88c6.649,14.37,17.991,29.109,17.604,48.026c0.388,18.914-10.954,33.651-17.604,48.021
					c-7.476,14.537-14.72,28.544-21.636,41.885c-13.83,26.666-26.374,50.646-36.943,70.762
					c-21.147,40.225-34.428,65.008-34.428,65.008s12.24-25.308,32.353-66.063c10.065-20.375,22.088-44.613,35.541-71.483
					c6.722-13.434,13.791-27.526,21.156-42.121c6.823-14.845,17.484-29.049,16.924-46.004c0.563-16.963-10.101-31.158-16.924-46.007
					c-7.365-14.595-14.437-28.687-21.156-42.123c-13.453-26.868-25.476-51.106-35.541-71.487
					C1328.155,301.323,1315.915,276.014,1315.915,276.014z"/>
			</g>
		</g>
	</g>
	<g>
		<g>
			<g>
				<path fill="#C8CCD6" d="M304.194,1249.348l-35.271,222.687c-1.097,6.934,7.88,10.652,12.007,4.969l32.701-45.02l91.231,66.28
					c37.316,27.113,82.08,36.535,124.269,29.851l466.483-73.896c-42.207,6.688-86.965-2.727-124.277-29.836l-361.41-262.576
					l32.734-45.043c4.127-5.686-2.186-13.065-8.44-9.881l-200.878,102.348C317.809,1217.137,306.926,1232.121,304.194,1249.348z"/>
			</g>
			<g opacity="0.75">
				
					<linearGradient id="SVGID_13_" gradientUnits="userSpaceOnUse" x1="-923.5386" y1="-960.8726" x2="-1041.6033" y2="-1078.9373" gradientTransform="matrix(-0.809 -0.5878 0.5878 -0.809 431.1553 25.5024)">
					<stop  offset="0" style="stop-color:#57585C;stop-opacity:0"/>
					<stop  offset="1" style="stop-color:#FFFFFF"/>
				</linearGradient>
				<path fill="url(#SVGID_13_)" d="M268.926,1472.033c-1.097,6.934,7.88,10.651,12.007,4.969l32.701-45.021l91.231,66.281
					c37.316,27.113,82.079,36.535,124.269,29.851l466.483-73.896c-42.207,6.688-86.967-2.727-124.277-29.836l-135.055-98.121
					l-455.701,72.174L268.926,1472.033z"/>
			</g>
			<g>
				<g>
					<path fill="#DDDFE6" d="M268.926,1472.033c0,0,3.827-27.854,10.366-72.834c3.262-22.492,7.211-49.265,11.697-78.968
						c2.246-14.854,4.619-30.44,7.11-46.604c3.07-15.529,2.559-34.117,13.986-49.195c10.809-15.526,28.643-20.791,42.473-28.506
						c14.595-7.363,28.686-14.442,42.114-21.166c26.871-13.442,51.11-25.465,71.494-35.529
						c40.753-20.11,66.057-32.354,66.057-32.354s-24.779,13.27-65.015,34.42c-20.109,10.578-44.086,23.123-70.754,36.951
						c-13.334,6.916-27.35,14.162-41.885,21.637c-14.243,8.008-31.215,13.226-40.729,27.273
						c-10.425,13.391-10.149,31.149-13.356,47.166c-2.621,16.135-5.175,31.699-7.636,46.521
						c-4.913,29.644-9.432,56.32-13.268,78.709C273.899,1444.363,268.926,1472.033,268.926,1472.033z"/>
				</g>
			</g>
		</g>
	</g>
	<g>
		<g>
			<g>
				<path fill="#596670" d="M1659.532,1279.258l159.421-159.42c4.969-4.959-0.109-13.252-6.794-11.076l-52.905,17.191
					l-34.854-107.256c-14.252-43.86-44.933-77.789-82.995-97.179l-420.836-214.416c38.088,19.406,68.76,53.322,83.013,97.188
					l138.051,424.863l-52.959,17.201c-6.677,2.176-5.914,11.858,1.02,12.957l222.677,35.272
					C1629.595,1297.313,1647.2,1291.592,1659.532,1279.258z"/>
			</g>
			<g opacity="0.75">
				
					<linearGradient id="SVGID_14_" gradientUnits="userSpaceOnUse" x1="-188.9658" y1="-1022.353" x2="-307.025" y2="-1140.4122" gradientTransform="matrix(0.309 0.9511 -0.9511 0.309 551.9648 1515.1311)">
					<stop  offset="0" style="stop-color:#282E32;stop-opacity:0"/>
					<stop  offset="1" style="stop-color:#FFFFFF"/>
				</linearGradient>
				<path fill="url(#SVGID_14_)" d="M1818.953,1119.838c4.969-4.959-0.109-13.252-6.794-11.076l-52.905,17.191l-34.854-107.256
					c-14.252-43.86-44.933-77.789-82.995-97.179l-420.836-214.416c38.088,19.406,68.76,53.322,83.013,97.188l51.591,158.77
					l411.097,209.461L1818.953,1119.838z"/>
			</g>
			<g>
				<g>
					<path fill="#98A0A6" d="M1818.953,1119.838c0,0-19.471,20.285-51.188,52.83c-15.867,16.271-34.796,35.604-55.881,57.01
						c-10.551,10.699-21.636,21.91-33.148,33.521c-11.608,10.764-22.123,26.098-40.231,31.569
						c-17.872,6.218-35.394-0.01-51.114-1.891c-16.136-2.627-31.69-5.182-46.514-7.633c-29.643-4.922-56.318-9.439-78.719-13.277
						c-44.797-7.688-72.465-12.656-72.465-12.656s27.854,3.822,72.832,10.359c22.488,3.266,49.264,7.219,78.967,11.709
						c14.85,2.24,30.443,4.619,46.596,7.107c16.227,1.899,33.032,7.649,48.982,1.873c16.301-4.701,26.514-19.229,38.527-30.306
						c11.604-11.516,22.816-22.6,33.516-33.151c21.396-21.084,40.736-40.013,57.01-55.88
						C1798.667,1139.305,1818.953,1119.838,1818.953,1119.838z"/>
				</g>
			</g>
		</g>
	</g>
	<g>
		<g>
			<g>
				<path fill="#9099A4" d="M970.998,1756.656l200.883,102.354c6.249,3.188,12.563-4.194,8.438-9.879l-32.712-45.008l91.235-66.295
					c37.315-27.101,60.109-66.762,66.785-108.957l73.87-466.49c-6.688,42.207-29.46,81.869-66.772,108.977l-361.409,262.576
					l-32.729-45.043c-4.135-5.684-13.104-1.967-12.014,4.969l35.273,222.677C944.58,1733.764,955.458,1748.742,970.998,1756.656z"/>
			</g>
			<g opacity="0.75">
				
					<linearGradient id="SVGID_15_" gradientUnits="userSpaceOnUse" x1="-578.6064" y1="-1258.1089" x2="-696.6699" y2="-1376.1721" gradientTransform="matrix(-0.809 0.5878 -0.5878 -0.809 -49.3961 814.5684)">
					<stop  offset="0" style="stop-color:#313C47;stop-opacity:0"/>
					<stop  offset="1" style="stop-color:#FFFFFF"/>
				</linearGradient>
				<path fill="url(#SVGID_15_)" d="M1171.881,1859.012c6.249,3.188,12.563-4.194,8.438-9.879l-32.712-45.008l91.235-66.295
					c37.315-27.101,60.109-66.763,66.785-108.957l73.87-466.49c-6.688,42.207-29.46,81.869-66.772,108.978l-135.063,98.123
					l-72.17,455.698L1171.881,1859.012z"/>
			</g>
			<g>
				<g>
					<path fill="#BAC0C7" d="M1171.881,1859.012c0,0-25.31-12.25-66.063-32.36c-20.379-10.056-44.621-22.086-71.481-35.527
						c-13.437-6.725-27.532-13.805-42.124-21.168c-13.83-7.715-31.664-12.977-42.473-28.506
						c-11.428-15.068-10.922-33.656-13.986-49.193c-2.486-16.154-4.867-31.746-7.117-46.604
						c-4.479-29.697-8.418-56.468-11.688-78.957c-6.543-44.982-10.373-72.832-10.373-72.832s4.979,27.67,12.656,72.465
						c3.838,22.395,8.358,49.074,13.271,78.721c2.458,14.818,5.017,30.377,7.644,46.512c3.201,16.023,2.927,33.775,13.347,47.164
						c9.515,14.058,26.485,19.275,40.73,27.271c14.536,7.487,28.55,14.725,41.885,21.635c26.669,13.846,50.646,26.389,70.767,36.959
						C1147.096,1845.729,1171.881,1859.012,1171.881,1859.012z"/>
				</g>
			</g>
		</g>
	</g>
</g>
</svg>
