<svg version="1.1" x="0" y="0" width="100%" height="100%" viewBox="0 0 135884.8 32716.8" xmlns="http://www.w3.org/2000/svg">
  <path d="M 25164.8 25072 Q 23844.8 25072 22752.8 24628 Q 21660.8 24184 20874.8 23332 Q 20088.8 22480 19656.8 21220 Q 19224.8 19960 19224.8 18338.8 Q 19224.8 16706.8 19620.8 15422.8 Q 20016.8 14138.8 20736.8 13244.8 Q 21456.8 12350.8 22458.8 11882.8 Q 23460.8 11414.8 24674 11414.8 Q 25860.8 11414.8 26808.8 11840.8 Q 27756.8 12266.8 28416.8 13040.8 Q 29076.8 13814.8 29430.8 14900.8 Q 29784.8 15986.8 29784.8 17306.8 L 29784.8 18664 L 21480.8 18664 Q 21539.6 20978.8 22457.6 22070.8 Q 23375.6 23162.8 25186.4 23162.8 Q 25799.6 23162.8 26321.6 23102.8 Q 26843.6 23042.8 27329.6 22928.8 Q 27815.6 22814.8 28271.6 22640.8 Q 28727.6 22466.8 29194.4 22250.8 L 29194.4 24194.8 Q 28714.4 24424 28252.4 24592 Q 27790.4 24760 27304.4 24868 Q 26818.4 24976 26296.4 25024 Q 25774.4 25072 25161.2 25072 L 25164.8 25072 Z M 24626 13226.8 Q 23258 13226.8 22460 14162.8 Q 21662 15098.8 21531.2 16888 L 27435.2 16888 Q 27435.2 16072 27273.2 15394 Q 27111.2 14716 26769.2 14236 Q 26427.2 13756 25899.2 13492 Q 25371.2 13228 24627.2 13228 L 24626 13226.8 Z M 39874 21218.8 Q 39874 22178.8 39526 22898.8 Q 39178 23618.8 38524 24104.8 Q 37870 24590.8 36946 24830.8 Q 36022 25070.8 34870 25070.8 Q 33563.2 25070.8 32627.2 24860.8 Q 31691.2 24650.8 30982 24242.8 L 30982 22250.8 Q 31355.2 22442.8 31811.2 22628.8 Q 32267.2 22814.8 32771.2 22958.8 Q 33275.2 23102.8 33809.2 23192.8 Q 34343.2 23282.8 34871.2 23282.8 Q 35652.4 23282.8 36198.4 23150.8 Q 36744.4 23018.8 37086.4 22772.8 Q 37428.4 22526.8 37584.4 22172.8 Q 37740.4 21818.8 37740.4 21386.8 Q 37740.4 21016 37620.4 20716 Q 37500.4 20416 37182.4 20122 Q 36864.4 19828 36312.4 19528 Q 35760.4 19228 34896.4 18857.2 Q 34032.4 18484 33342.4 18124 Q 32652.4 17764 32172.4 17320 Q 31692.4 16876 31434.4 16294 Q 31176.4 15712 31176.4 14906.8 Q 31176.4 14066.8 31506.4 13412.8 Q 31836.4 12758.8 32436.4 12314.8 Q 33036.4 11870.8 33876.4 11642.8 Q 34716.4 11414.8 35748.4 11414.8 Q 36911.2 11414.8 37877.2 11666.8 Q 38843.2 11918.8 39707.2 12326.8 L 38950 14089.6 Q 38171.2 13742.8 37349.2 13484.8 Q 36527.2 13226.8 35676.4 13226.8 Q 34452.4 13226.8 33864.4 13628.8 Q 33276.4 14030.8 33276.4 14774.8 Q 33276.4 15193.6 33414.4 15505.6 Q 33552.4 15817.6 33888.4 16093.6 Q 34224.4 16369.6 34788.4 16651.6 Q 35352.4 16933.6 36192.4 17280.4 Q 37056.4 17640.4 37734.4 18000.4 Q 38412.4 18360.4 38892.4 18810.4 Q 39372.4 19260.4 39624.4 19836.4 Q 39876.4 20412.4 39876.4 21215.2 L 39874 21218.8 Z M 46008 23282.8 Q 46224 23282.8 46494 23258.8 Q 46764 23234.8 47016 23198.8 Q 47268 23162.8 47478 23114.8 Q 47688 23066.8 47797.2 23032 L 47797.2 24688 Q 47640 24760 47400 24832 Q 47160 24904 46872 24958 Q 46584 25012 46272 25042 Q 45960 25072 45661.2 25072 Q 44917.2 25072 44281.2 24880 Q 43645.2 24688 43183.2 24220 Q 42721.2 23752 42457.2 22954 Q 42193.2 22156 42193.2 20945.2 L 42193.2 13300 L 40334.4 13300 L 40334.4 12329.2 L 42193.2 11393.2 L 43129.2 8633.2 L 44390.4 8633.2 L 44390.4 11657.2 L 47702.4 11657.2 L 47702.4 13300 L 44390.4 13300 L 44390.4 20945.2 Q 44390.4 22108 44768.4 22696 Q 45146.4 23284 46010.4 23284 L 46008 23282.8 Z M 54995.6 11416 Q 55342.4 11416 55774.4 11446 Q 56206.4 11476 56518.4 11537.2 L 56230.4 13553.2 Q 55894.4 13492 55540.4 13450 Q 55186.4 13408 54874.4 13408 Q 54117.2 13408 53493.2 13714 Q 52869.2 14020 52419.2 14590 Q 51969.2 15160 51723.2 15958 Q 51477.2 16756 51477.2 17729.2 L 51477.2 24833.2 L 49293.2 24833.2 L 49293.2 11657.2 L 51069.2 11657.2 L 51333.2 14068 L 51429.2 14068 Q 51730.4 13553.2 52072.4 13073.2 Q 52414.4 12593.2 52840.4 12227.2 Q 53266.4 11861.2 53794.4 11639.2 Q 54322.4 11417.2 54994.4 11417.2 L 54995.6 11416 Z M 65530 24832 L 65084.8 23008 L 64988.8 23008 Q 64594 23546.8 64198 23936.8 Q 63802 24326.8 63334 24578.8 Q 62866 24830.8 62290 24950.8 Q 61714 25070.8 60956.8 25070.8 Q 60130 25070.8 59434 24836.8 Q 58738 24602.8 58228 24116.8 Q 57718 23630.8 57430 22892.8 Q 57142 22154.8 57142 21146.8 Q 57142 19178.8 58528 18122.8 Q 59914 17066.8 62746 16970.8 L 64954 16888 L 64954 16058.8 Q 64954 15256 64780 14716 Q 64606 14176 64276 13846 Q 63946 13516 63460 13372 Q 62974 13228 62350 13228 Q 61355.2 13228 60497.2 13516 Q 59639.2 13804 58847.2 14212 L 58079.2 12569.2 Q 58967.2 12089.2 60059.2 11753.2 Q 61151.2 11417.2 62351.2 11417.2 Q 63575.2 11417.2 64469.2 11663.2 Q 65363.2 11909.2 65945.2 12443.2 Q 66527.2 12977.2 66815.2 13805.2 Q 67103.2 14633.2 67103.2 15809.2 L 67103.2 24833.2 L 65532.4 24833.2 L 65530 24832 Z M 61522 23306.8 Q 62252.8 23306.8 62876.8 23078.8 Q 63500.8 22850.8 63956.8 22388.8 Q 64412.8 21926.8 64670.8 21224.8 Q 64928.8 20522.8 64928.8 19576 L 64928.8 18386.8 L 63211.6 18472 Q 62131.6 18520 61399.6 18712 Q 60667.6 18904 60229.6 19246 Q 59791.6 19588 59599.6 20074 Q 59407.6 20560 59407.6 21170.8 Q 59407.6 22274.8 59989.6 22790.8 Q 60571.6 23306.8 61520.8 23306.8 L 61522 23306.8 Z M 74014.4 23282.8 Q 74230.4 23282.8 74500.4 23258.8 Q 74770.4 23234.8 75022.4 23198.8 Q 75274.4 23162.8 75484.4 23114.8 Q 75694.4 23066.8 75803.6 23032 L 75803.6 24688 Q 75646.4 24760 75406.4 24832 Q 75166.4 24904 74878.4 24958 Q 74590.4 25012 74278.4 25042 Q 73966.4 25072 73667.6 25072 Q 72923.6 25072 72287.6 24880 Q 71651.6 24688 71189.6 24220 Q 70727.6 23752 70463.6 22954 Q 70199.6 22156 70199.6 20945.2 L 70199.6 13300 L 68340.8 13300 L 68340.8 12329.2 L 70199.6 11393.2 L 71135.6 8633.2 L 72396.8 8633.2 L 72396.8 11657.2 L 75708.8 11657.2 L 75708.8 13300 L 72396.8 13300 L 72396.8 20945.2 Q 72396.8 22108 72774.8 22696 Q 73152.8 23284 74016.8 23284 L 74014.4 23282.8 Z M 82508.8 25072 Q 81188.8 25072 80096.8 24628 Q 79004.8 24184 78218.8 23332 Q 77432.8 22480 77000.8 21220 Q 76568.8 19960 76568.8 18338.8 Q 76568.8 16706.8 76964.8 15422.8 Q 77360.8 14138.8 78080.8 13244.8 Q 78800.8 12350.8 79802.8 11882.8 Q 80804.8 11414.8 82018 11414.8 Q 83204.8 11414.8 84152.8 11840.8 Q 85100.8 12266.8 85760.8 13040.8 Q 86420.8 13814.8 86774.8 14900.8 Q 87128.8 15986.8 87128.8 17306.8 L 87128.8 18664 L 78824.8 18664 Q 78883.6 20978.8 79801.6 22070.8 Q 80719.6 23162.8 82530.4 23162.8 Q 83143.6 23162.8 83665.6 23102.8 Q 84187.6 23042.8 84673.6 22928.8 Q 85159.6 22814.8 85615.6 22640.8 Q 86071.6 22466.8 86538.4 22250.8 L 86538.4 24194.8 Q 86058.4 24424 85596.4 24592 Q 85134.4 24760 84648.4 24868 Q 84162.4 24976 83640.4 25024 Q 83118.4 25072 82505.2 25072 L 82508.8 25072 Z M 81970 13226.8 Q 80602 13226.8 79804 14162.8 Q 79006 15098.8 78875.2 16888 L 84779.2 16888 Q 84779.2 16072 84617.2 15394 Q 84455.2 14716 84113.2 14236 Q 83771.2 13756 83243.2 13492 Q 82715.2 13228 81971.2 13228 L 81970 13226.8 Z M 99484.8 11656 L 99484.8 13010.8 L 97122 13336 Q 97458 13754.8 97686 14408.8 Q 97914 15062.8 97914 15889.6 Q 97914 16801.6 97632 17575.6 Q 97350 18349.6 96780 18913.6 Q 96210 19477.6 95370 19795.6 Q 94530 20113.6 93412.8 20113.6 Q 93148.8 20113.6 92884.8 20107.6 Q 92620.8 20101.6 92452.8 20064.4 Q 92250 20184.4 92052 20334.4 Q 91854 20484.4 91692 20676.4 Q 91530 20868.4 91428 21108.4 Q 91326 21348.4 91326 21636.4 Q 91326 21959.2 91470 22157.2 Q 91614 22355.2 91860 22463.2 Q 92106 22571.2 92442 22607.2 Q 92778 22643.2 93148.8 22643.2 L 95260.8 22643.2 Q 96378 22643.2 97146 22925.2 Q 97914 23207.2 98400 23687.2 Q 98886 24167.2 99102 24821.2 Q 99318 25475.2 99318 26208.4 Q 99318 27264.4 98928 28104.4 Q 98538 28944.4 97734 29526.4 Q 96930 30108.4 95700 30420.4 Q 94470 30732.4 92803.2 30732.4 Q 91518 30732.4 90558 30480.4 Q 89598 30228.4 88962 29748.4 Q 88326 29268.4 88008 28590.4 Q 87690 27912.4 87690 27059.2 Q 87690 26339.2 87924 25793.2 Q 88158 25247.2 88554 24850 Q 88950 24452.8 89472 24200.8 Q 89994 23948.8 90556.8 23818 Q 90052.8 23588.8 89728.8 23096.8 Q 89404.8 22604.8 89404.8 21970 Q 89404.8 21236.8 89788.8 20702.8 Q 90172.8 20168.8 91002 19664.8 Q 90484.8 19448.8 90058.8 19070.8 Q 89632.8 18692.8 89338.8 18206.8 Q 89044.8 17720.8 88882.8 17144.8 Q 88720.8 16568.8 88720.8 15955.6 Q 88720.8 14888.8 89020.8 14048.8 Q 89320.8 13208.8 89908.8 12620.8 Q 90496.8 12032.8 91372.8 11720.8 Q 92248.8 11408.8 93411.6 11408.8 Q 93856.8 11408.8 94330.8 11474.8 Q 94804.8 11540.8 95130 11650 L 99484.8 11650 L 99484.8 11656 Z M 89754 26992 Q 89754 27437.2 89910 27821.2 Q 90066 28205.2 90420 28481.2 Q 90774 28757.2 91356 28919.2 Q 91938 29081.2 92802 29081.2 Q 95034 29081.2 96144 28391.2 Q 97254 27701.2 97254 26405.2 Q 97254 25853.2 97110 25505.2 Q 96966 25157.2 96636 24959.2 Q 96306 24761.2 95766 24689.2 Q 95226 24617.2 94444.8 24617.2 L 92332.8 24617.2 Q 91914 24617.2 91458 24713.2 Q 91002 24809.2 90624 25073.2 Q 90246 25337.2 90000 25799.2 Q 89754 26261.2 89754 26992  Z M 90858 15890.8 Q 90858 17272 91506 17944 Q 92154 18616 93340.8 18616 Q 94540.8 18616 95158.8 17950 Q 95776.8 17284 95776.8 15857.2 Q 95776.8 14380 95146.8 13684 Q 94516.8 12988 93316.8 12988 Q 92130 12988 91494 13708 Q 90858 14428 90858 15892 L 90858 15890.8 Z M 103139.2 24832 L 100955.2 24832 L 100955.2 11656 L 103139.2 11656 L 103139.2 24832 Z M 100787.2 8090.8 Q 100787.2 7370.8 101153.2 7046.8 Q 101519.2 6722.8 102058 6722.8 Q 102322 6722.8 102556 6800.8 Q 102790 6878.8 102964 7046.8 Q 103138 7214.8 103240 7472.8 Q 103342 7730.8 103342 8090.8 Q 103342 8786.8 102964 9128.8 Q 102586 9470.8 102058 9470.8 Q 101519.2 9470.8 101153.2 9134.8 Q 100787.2 8798.8 100787.2 8089.6 L 100787.2 8090.8 Z M 113658 24832 L 113212.8 23008 L 113116.8 23008 Q 112722 23546.8 112326 23936.8 Q 111930 24326.8 111462 24578.8 Q 110994 24830.8 110418 24950.8 Q 109842 25070.8 109084.8 25070.8 Q 108258 25070.8 107562 24836.8 Q 106866 24602.8 106356 24116.8 Q 105846 23630.8 105558 22892.8 Q 105270 22154.8 105270 21146.8 Q 105270 19178.8 106656 18122.8 Q 108042 17066.8 110874 16970.8 L 113082 16888 L 113082 16058.8 Q 113082 15256 112908 14716 Q 112734 14176 112404 13846 Q 112074 13516 111588 13372 Q 111102 13228 110478 13228 Q 109483.2 13228 108625.2 13516 Q 107767.2 13804 106975.2 14212 L 106207.2 12569.2 Q 107095.2 12089.2 108187.2 11753.2 Q 109279.2 11417.2 110479.2 11417.2 Q 111703.2 11417.2 112597.2 11663.2 Q 113491.2 11909.2 114073.2 12443.2 Q 114655.2 12977.2 114943.2 13805.2 Q 115231.2 14633.2 115231.2 15809.2 L 115231.2 24833.2 L 113660.4 24833.2 L 113658 24832 Z M 109650 23306.8 Q 110380.8 23306.8 111004.8 23078.8 Q 111628.8 22850.8 112084.8 22388.8 Q 112540.8 21926.8 112798.8 21224.8 Q 113056.8 20522.8 113056.8 19576 L 113056.8 18386.8 L 111339.6 18472 Q 110259.6 18520 109527.6 18712 Q 108795.6 18904 108357.6 19246 Q 107919.6 19588 107727.6 20074 Q 107535.6 20560 107535.6 21170.8 Q 107535.6 22274.8 108117.6 22790.8 Q 108699.6 23306.8 109648.8 23306.8 L 109650 23306.8 Z M 126043.6 21218.8 Q 126043.6 22178.8 125695.6 22898.8 Q 125347.6 23618.8 124693.6 24104.8 Q 124039.6 24590.8 123115.6 24830.8 Q 122191.6 25070.8 121039.6 25070.8 Q 119732.8 25070.8 118796.8 24860.8 Q 117860.8 24650.8 117151.6 24242.8 L 117151.6 22250.8 Q 117524.8 22442.8 117980.8 22628.8 Q 118436.8 22814.8 118940.8 22958.8 Q 119444.8 23102.8 119978.8 23192.8 Q 120512.8 23282.8 121040.8 23282.8 Q 121822 23282.8 122368 23150.8 Q 122914 23018.8 123256 22772.8 Q 123598 22526.8 123754 22172.8 Q 123910 21818.8 123910 21386.8 Q 123910 21016 123790 20716 Q 123670 20416 123352 20122 Q 123034 19828 122482 19528 Q 121930 19228 121066 18857.2 Q 120202 18484 119512 18124 Q 118822 17764 118342 17320 Q 117862 16876 117604 16294 Q 117346 15712 117346 14906.8 Q 117346 14066.8 117676 13412.8 Q 118006 12758.8 118606 12314.8 Q 119206 11870.8 120046 11642.8 Q 120886 11414.8 121918 11414.8 Q 123080.8 11414.8 124046.8 11666.8 Q 125012.8 11918.8 125876.8 12326.8 L 125119.6 14089.6 Q 124340.8 13742.8 123518.8 13484.8 Q 122696.8 13226.8 121846 13226.8 Q 120622 13226.8 120034 13628.8 Q 119446 14030.8 119446 14774.8 Q 119446 15193.6 119584 15505.6 Q 119722 15817.6 120058 16093.6 Q 120394 16369.6 120958 16651.6 Q 121522 16933.6 122362 17280.4 Q 123226 17640.4 123904 18000.4 Q 124582 18360.4 125062 18810.4 Q 125542 19260.4 125794 19836.4 Q 126046 20412.4 126046 21215.2 L 126043.6 21218.8 Z " fill-rule="nonzero" style="fill:#596670;;fill-opacity:1;"/>
</svg>