<svg version="1.1" x="0" y="0" width="100%" height="100%" viewBox="0 0 584857.6 71577.6" xmlns="http://www.w3.org/2000/svg">
  <path d="M 14709.2 24832 L 12789.2 19394.8 L 6248 19394.8 L 4304 24832 L 2048 24832 L 8493.2 7216 L 10533.2 7216 L 16989.2 24832 L 14709.2 24832 Z M 12080 17416 L 10304 12328 Q 10232 12112 10130 11800 Q 10028 11488 9920 11128 Q 9812 10768 9704 10378 Q 9596 9988 9500 9617.2 Q 9414.8 9988 9306.8 10384 Q 9198.8 10780 9090.8 11146 Q 8982.8 11512 8880.8 11818 Q 8778.8 12124 8706.8 12329.2 L 6965.6 17417.2 L 12077.6 17417.2 L 12080 17416 Z M 22027.2 25072 Q 20816.4 25072 19760.4 24694 Q 18704.4 24316 17924.4 23494 Q 17144.4 22672 16700.4 21394 Q 16256.4 20116 16256.4 18316 Q 16256.4 16433.2 16712.4 15119.2 Q 17168.4 13805.2 17966.4 12983.2 Q 18764.4 12161.2 19832.4 11789.2 Q 20900.4 11417.2 22124.4 11417.2 Q 23060.4 11417.2 23954.4 11621.2 Q 24848.4 11825.2 25448.4 12124 L 24800.4 13972 Q 24523.2 13852 24187.2 13738 Q 23851.2 13624 23491.2 13534 Q 23131.2 13444 22783.2 13390 Q 22435.2 13336 22123.2 13336 Q 20240.4 13336 19376.4 14542 Q 18512.4 15748 18512.4 18292 Q 18512.4 20825.2 19382.4 21995.2 Q 20252.4 23165.2 22028.4 23165.2 Q 23001.6 23165.2 23787.6 22943.2 Q 24573.6 22721.2 25221.6 22420 L 25221.6 24364 Q 24573.6 24713.2 23835.6 24893.2 Q 23097.6 25073.2 22028.4 25073.2 L 22027.2 25072 Z M 30289.6 23282.8 Q 30505.6 23282.8 30775.6 23258.8 Q 31045.6 23234.8 31297.6 23198.8 Q 31549.6 23162.8 31759.6 23114.8 Q 31969.6 23066.8 32078.8 23032 L 32078.8 24688 Q 31921.6 24760 31681.6 24832 Q 31441.6 24904 31153.6 24958 Q 30865.6 25012 30553.6 25042 Q 30241.6 25072 29942.8 25072 Q 29198.8 25072 28562.8 24880 Q 27926.8 24688 27464.8 24220 Q 27002.8 23752 26738.8 22954 Q 26474.8 22156 26474.8 20945.2 L 26474.8 13300 L 24616 13300 L 24616 12329.2 L 26474.8 11393.2 L 27410.8 8633.2 L 28672 8633.2 L 28672 11657.2 L 31984 11657.2 L 31984 13300 L 28672 13300 L 28672 20945.2 Q 28672 22108 29050 22696 Q 29428 23284 30292 23284 L 30289.6 23282.8 Z M 34736 24832 L 32552 24832 L 32552 11656 L 34736 11656 L 34736 24832 Z M 32384 8090.8 Q 32384 7370.8 32750 7046.8 Q 33116 6722.8 33654.8 6722.8 Q 33918.8 6722.8 34152.8 6800.8 Q 34386.8 6878.8 34560.8 7046.8 Q 34734.8 7214.8 34836.8 7472.8 Q 34938.8 7730.8 34938.8 8090.8 Q 34938.8 8786.8 34560.8 9128.8 Q 34182.8 9470.8 33654.8 9470.8 Q 33116 9470.8 32750 9134.8 Q 32384 8798.8 32384 8089.6 L 32384 8090.8 Z M 39214.8 24832 L 34713.6 11656 L 36969.6 11656 L 39358.8 18986.8 Q 39489.6 19384 39669.6 20008 Q 39849.6 20632 40029.6 21280 Q 40209.6 21928 40359.6 22504 Q 40509.6 23080 40557.6 23378.8 L 40640.4 23378.8 Q 40701.6 23080 40845.6 22504 Q 40989.6 21928 41169.6 21280 Q 41349.6 20632 41529.6 20008 Q 41709.6 19384 41840.4 18986.8 L 44229.6 11656 L 46485.6 11656 L 41984.4 24832 L 39213.6 24832 L 39214.8 24832 Z M 48662.4 24832 L 46478.4 24832 L 46478.4 11656 L 48662.4 11656 L 48662.4 24832 Z M 46310.4 8090.8 Q 46310.4 7370.8 46676.4 7046.8 Q 47042.4 6722.8 47581.2 6722.8 Q 47845.2 6722.8 48079.2 6800.8 Q 48313.2 6878.8 48487.2 7046.8 Q 48661.2 7214.8 48763.2 7472.8 Q 48865.2 7730.8 48865.2 8090.8 Q 48865.2 8786.8 48487.2 9128.8 Q 48109.2 9470.8 47581.2 9470.8 Q 47042.4 9470.8 46676.4 9134.8 Q 46310.4 8798.8 46310.4 8089.6 L 46310.4 8090.8 Z M 58864 23066.8 L 58768 23066.8 Q 58504 23474.8 58150 23840.8 Q 57796 24206.8 57334 24482.8 Q 56872 24758.8 56296 24914.8 Q 55720 25070.8 55000 25070.8 Q 53885.2 25070.8 52961.2 24638.8 Q 52037.2 24206.8 51377.2 23348.8 Q 50717.2 22490.8 50357.2 21218.8 Q 49997.2 19946.8 49997.2 18266.8 Q 49997.2 16576 50357.2 15298 Q 50717.2 14020 51377.2 13156 Q 52037.2 12292 52961.2 11854 Q 53885.2 11416 55000 11416 Q 55709.2 11416 56285.2 11572 Q 56861.2 11728 57323.2 11992 Q 57785.2 12256 58145.2 12604 Q 58505.2 12952 58769.2 13336 L 58913.2 13336 Q 58878.4 12928 58841.2 12554.8 Q 58817.2 12242.8 58793.2 11912.8 Q 58769.2 11582.8 58769.2 11390.8 L 58769.2 6158.8 L 60953.2 6158.8 L 60953.2 24830.8 L 59190.4 24830.8 L 58865.2 23065.6 L 58864 23066.8 Z M 55421.2 23258.8 Q 56333.2 23258.8 56963.2 22982.8 Q 57593.2 22706.8 57983.2 22142.8 Q 58373.2 21578.8 58559.2 20732.8 Q 58745.2 19886.8 58769.2 18758.8 L 58769.2 18265.6 Q 58769.2 17054.8 58607.2 16112.8 Q 58445.2 15170.8 58055.2 14528.8 Q 57665.2 13886.8 57017.2 13556.8 Q 56369.2 13226.8 55398.4 13226.8 Q 53777.2 13226.8 53015.2 14534.8 Q 52253.2 15842.8 52253.2 18290.8 Q 52253.2 20800 53015.2 22030 Q 53777.2 23260 55422.4 23260 L 55421.2 23258.8 Z M 70547.6 24832 L 70102.4 23008 L 70006.4 23008 Q 69611.6 23546.8 69215.6 23936.8 Q 68819.6 24326.8 68351.6 24578.8 Q 67883.6 24830.8 67307.6 24950.8 Q 66731.6 25070.8 65974.4 25070.8 Q 65147.6 25070.8 64451.6 24836.8 Q 63755.6 24602.8 63245.6 24116.8 Q 62735.6 23630.8 62447.6 22892.8 Q 62159.6 22154.8 62159.6 21146.8 Q 62159.6 19178.8 63545.6 18122.8 Q 64931.6 17066.8 67763.6 16970.8 L 69971.6 16888 L 69971.6 16058.8 Q 69971.6 15256 69797.6 14716 Q 69623.6 14176 69293.6 13846 Q 68963.6 13516 68477.6 13372 Q 67991.6 13228 67367.6 13228 Q 66372.8 13228 65514.8 13516 Q 64656.8 13804 63864.8 14212 L 63096.8 12569.2 Q 63984.8 12089.2 65076.8 11753.2 Q 66168.8 11417.2 67368.8 11417.2 Q 68592.8 11417.2 69486.8 11663.2 Q 70380.8 11909.2 70962.8 12443.2 Q 71544.8 12977.2 71832.8 13805.2 Q 72120.8 14633.2 72120.8 15809.2 L 72120.8 24833.2 L 70550 24833.2 L 70547.6 24832 Z M 66539.6 23306.8 Q 67270.4 23306.8 67894.4 23078.8 Q 68518.4 22850.8 68974.4 22388.8 Q 69430.4 21926.8 69688.4 21224.8 Q 69946.4 20522.8 69946.4 19576 L 69946.4 18386.8 L 68229.2 18472 Q 67149.2 18520 66417.2 18712 Q 65685.2 18904 65247.2 19246 Q 64809.2 19588 64617.2 20074 Q 64425.2 20560 64425.2 21170.8 Q 64425.2 22274.8 65007.2 22790.8 Q 65589.2 23306.8 66538.4 23306.8 L 66539.6 23306.8 Z M 82160 23066.8 L 82064 23066.8 Q 81800 23474.8 81446 23840.8 Q 81092 24206.8 80630 24482.8 Q 80168 24758.8 79592 24914.8 Q 79016 25070.8 78296 25070.8 Q 77181.2 25070.8 76257.2 24638.8 Q 75333.2 24206.8 74673.2 23348.8 Q 74013.2 22490.8 73653.2 21218.8 Q 73293.2 19946.8 73293.2 18266.8 Q 73293.2 16576 73653.2 15298 Q 74013.2 14020 74673.2 13156 Q 75333.2 12292 76257.2 11854 Q 77181.2 11416 78296 11416 Q 79005.2 11416 79581.2 11572 Q 80157.2 11728 80619.2 11992 Q 81081.2 12256 81441.2 12604 Q 81801.2 12952 82065.2 13336 L 82209.2 13336 Q 82174.4 12928 82137.2 12554.8 Q 82113.2 12242.8 82089.2 11912.8 Q 82065.2 11582.8 82065.2 11390.8 L 82065.2 6158.8 L 84249.2 6158.8 L 84249.2 24830.8 L 82486.4 24830.8 L 82161.2 23065.6 L 82160 23066.8 Z M 78717.2 23258.8 Q 79629.2 23258.8 80259.2 22982.8 Q 80889.2 22706.8 81279.2 22142.8 Q 81669.2 21578.8 81855.2 20732.8 Q 82041.2 19886.8 82065.2 18758.8 L 82065.2 18265.6 Q 82065.2 17054.8 81903.2 16112.8 Q 81741.2 15170.8 81351.2 14528.8 Q 80961.2 13886.8 80313.2 13556.8 Q 79665.2 13226.8 78694.4 13226.8 Q 77073.2 13226.8 76311.2 14534.8 Q 75549.2 15842.8 75549.2 18290.8 Q 75549.2 20800 76311.2 22030 Q 77073.2 23260 78718.4 23260 L 78717.2 23258.8 Z M 91622.4 25072 Q 90302.4 25072 89210.4 24628 Q 88118.4 24184 87332.4 23332 Q 86546.4 22480 86114.4 21220 Q 85682.4 19960 85682.4 18338.8 Q 85682.4 16706.8 86078.4 15422.8 Q 86474.4 14138.8 87194.4 13244.8 Q 87914.4 12350.8 88916.4 11882.8 Q 89918.4 11414.8 91131.6 11414.8 Q 92318.4 11414.8 93266.4 11840.8 Q 94214.4 12266.8 94874.4 13040.8 Q 95534.4 13814.8 95888.4 14900.8 Q 96242.4 15986.8 96242.4 17306.8 L 96242.4 18664 L 87938.4 18664 Q 87997.2 20978.8 88915.2 22070.8 Q 89833.2 23162.8 91644 23162.8 Q 92257.2 23162.8 92779.2 23102.8 Q 93301.2 23042.8 93787.2 22928.8 Q 94273.2 22814.8 94729.2 22640.8 Q 95185.2 22466.8 95652 22250.8 L 95652 24194.8 Q 95172 24424 94710 24592 Q 94248 24760 93762 24868 Q 93276 24976 92754 25024 Q 92232 25072 91618.8 25072 L 91622.4 25072 Z M 91083.6 13226.8 Q 89715.6 13226.8 88917.6 14162.8 Q 88119.6 15098.8 87988.8 16888 L 93892.8 16888 Q 93892.8 16072 93730.8 15394 Q 93568.8 14716 93226.8 14236 Q 92884.8 13756 92356.8 13492 Q 91828.8 13228 91084.8 13228 L 91083.6 13226.8 Z M 105307.6 21218.8 Q 105307.6 22178.8 104959.6 22898.8 Q 104611.6 23618.8 103957.6 24104.8 Q 103303.6 24590.8 102379.6 24830.8 Q 101455.6 25070.8 100303.6 25070.8 Q 98996.8 25070.8 98060.8 24860.8 Q 97124.8 24650.8 96415.6 24242.8 L 96415.6 22250.8 Q 96788.8 22442.8 97244.8 22628.8 Q 97700.8 22814.8 98204.8 22958.8 Q 98708.8 23102.8 99242.8 23192.8 Q 99776.8 23282.8 100304.8 23282.8 Q 101086 23282.8 101632 23150.8 Q 102178 23018.8 102520 22772.8 Q 102862 22526.8 103018 22172.8 Q 103174 21818.8 103174 21386.8 Q 103174 21016 103054 20716 Q 102934 20416 102616 20122 Q 102298 19828 101746 19528 Q 101194 19228 100330 18857.2 Q 99466 18484 98776 18124 Q 98086 17764 97606 17320 Q 97126 16876 96868 16294 Q 96610 15712 96610 14906.8 Q 96610 14066.8 96940 13412.8 Q 97270 12758.8 97870 12314.8 Q 98470 11870.8 99310 11642.8 Q 100150 11414.8 101182 11414.8 Q 102344.8 11414.8 103310.8 11666.8 Q 104276.8 11918.8 105140.8 12326.8 L 104383.6 14089.6 Q 103604.8 13742.8 102782.8 13484.8 Q 101960.8 13226.8 101110 13226.8 Q 99886 13226.8 99298 13628.8 Q 98710 14030.8 98710 14774.8 Q 98710 15193.6 98848 15505.6 Q 98986 15817.6 99322 16093.6 Q 99658 16369.6 100222 16651.6 Q 100786 16933.6 101626 17280.4 Q 102490 17640.4 103168 18000.4 Q 103846 18360.4 104326 18810.4 Q 104806 19260.4 105058 19836.4 Q 105310 20412.4 105310 21215.2 L 105307.6 21218.8 Z M 118568.4 21218.8 Q 118568.4 22178.8 118220.4 22898.8 Q 117872.4 23618.8 117218.4 24104.8 Q 116564.4 24590.8 115640.4 24830.8 Q 114716.4 25070.8 113564.4 25070.8 Q 112257.6 25070.8 111321.6 24860.8 Q 110385.6 24650.8 109676.4 24242.8 L 109676.4 22250.8 Q 110049.6 22442.8 110505.6 22628.8 Q 110961.6 22814.8 111465.6 22958.8 Q 111969.6 23102.8 112503.6 23192.8 Q 113037.6 23282.8 113565.6 23282.8 Q 114346.8 23282.8 114892.8 23150.8 Q 115438.8 23018.8 115780.8 22772.8 Q 116122.8 22526.8 116278.8 22172.8 Q 116434.8 21818.8 116434.8 21386.8 Q 116434.8 21016 116314.8 20716 Q 116194.8 20416 115876.8 20122 Q 115558.8 19828 115006.8 19528 Q 114454.8 19228 113590.8 18857.2 Q 112726.8 18484 112036.8 18124 Q 111346.8 17764 110866.8 17320 Q 110386.8 16876 110128.8 16294 Q 109870.8 15712 109870.8 14906.8 Q 109870.8 14066.8 110200.8 13412.8 Q 110530.8 12758.8 111130.8 12314.8 Q 111730.8 11870.8 112570.8 11642.8 Q 113410.8 11414.8 114442.8 11414.8 Q 115605.6 11414.8 116571.6 11666.8 Q 117537.6 11918.8 118401.6 12326.8 L 117644.4 14089.6 Q 116865.6 13742.8 116043.6 13484.8 Q 115221.6 13226.8 114370.8 13226.8 Q 113146.8 13226.8 112558.8 13628.8 Q 111970.8 14030.8 111970.8 14774.8 Q 111970.8 15193.6 112108.8 15505.6 Q 112246.8 15817.6 112582.8 16093.6 Q 112918.8 16369.6 113482.8 16651.6 Q 114046.8 16933.6 114886.8 17280.4 Q 115750.8 17640.4 116428.8 18000.4 Q 117106.8 18360.4 117586.8 18810.4 Q 118066.8 19260.4 118318.8 19836.4 Q 118570.8 20412.4 118570.8 21215.2 L 118568.4 21218.8 Z M 121878.4 24832 L 119694.4 24832 L 119694.4 11656 L 121878.4 11656 L 121878.4 24832 Z M 119526.4 8090.8 Q 119526.4 7370.8 119892.4 7046.8 Q 120258.4 6722.8 120797.2 6722.8 Q 121061.2 6722.8 121295.2 6800.8 Q 121529.2 6878.8 121703.2 7046.8 Q 121877.2 7214.8 121979.2 7472.8 Q 122081.2 7730.8 122081.2 8090.8 Q 122081.2 8786.8 121703.2 9128.8 Q 121325.2 9470.8 120797.2 9470.8 Q 120258.4 9470.8 119892.4 9134.8 Q 119526.4 8798.8 119526.4 8089.6 L 119526.4 8090.8 Z M 134096 11656 L 134096 13010.8 L 131733.2 13336 Q 132069.2 13754.8 132297.2 14408.8 Q 132525.2 15062.8 132525.2 15889.6 Q 132525.2 16801.6 132243.2 17575.6 Q 131961.2 18349.6 131391.2 18913.6 Q 130821.2 19477.6 129981.2 19795.6 Q 129141.2 20113.6 128024 20113.6 Q 127760 20113.6 127496 20107.6 Q 127232 20101.6 127064 20064.4 Q 126861.2 20184.4 126663.2 20334.4 Q 126465.2 20484.4 126303.2 20676.4 Q 126141.2 20868.4 126039.2 21108.4 Q 125937.2 21348.4 125937.2 21636.4 Q 125937.2 21959.2 126081.2 22157.2 Q 126225.2 22355.2 126471.2 22463.2 Q 126717.2 22571.2 127053.2 22607.2 Q 127389.2 22643.2 127760 22643.2 L 129872 22643.2 Q 130989.2 22643.2 131757.2 22925.2 Q 132525.2 23207.2 133011.2 23687.2 Q 133497.2 24167.2 133713.2 24821.2 Q 133929.2 25475.2 133929.2 26208.4 Q 133929.2 27264.4 133539.2 28104.4 Q 133149.2 28944.4 132345.2 29526.4 Q 131541.2 30108.4 130311.2 30420.4 Q 129081.2 30732.4 127414.4 30732.4 Q 126129.2 30732.4 125169.2 30480.4 Q 124209.2 30228.4 123573.2 29748.4 Q 122937.2 29268.4 122619.2 28590.4 Q 122301.2 27912.4 122301.2 27059.2 Q 122301.2 26339.2 122535.2 25793.2 Q 122769.2 25247.2 123165.2 24850 Q 123561.2 24452.8 124083.2 24200.8 Q 124605.2 23948.8 125168 23818 Q 124664 23588.8 124340 23096.8 Q 124016 22604.8 124016 21970 Q 124016 21236.8 124400 20702.8 Q 124784 20168.8 125613.2 19664.8 Q 125096 19448.8 124670 19070.8 Q 124244 18692.8 123950 18206.8 Q 123656 17720.8 123494 17144.8 Q 123332 16568.8 123332 15955.6 Q 123332 14888.8 123632 14048.8 Q 123932 13208.8 124520 12620.8 Q 125108 12032.8 125984 11720.8 Q 126860 11408.8 128022.8 11408.8 Q 128468 11408.8 128942 11474.8 Q 129416 11540.8 129741.2 11650 L 134096 11650 L 134096 11656 Z M 124365.2 26992 Q 124365.2 27437.2 124521.2 27821.2 Q 124677.2 28205.2 125031.2 28481.2 Q 125385.2 28757.2 125967.2 28919.2 Q 126549.2 29081.2 127413.2 29081.2 Q 129645.2 29081.2 130755.2 28391.2 Q 131865.2 27701.2 131865.2 26405.2 Q 131865.2 25853.2 131721.2 25505.2 Q 131577.2 25157.2 131247.2 24959.2 Q 130917.2 24761.2 130377.2 24689.2 Q 129837.2 24617.2 129056 24617.2 L 126944 24617.2 Q 126525.2 24617.2 126069.2 24713.2 Q 125613.2 24809.2 125235.2 25073.2 Q 124857.2 25337.2 124611.2 25799.2 Q 124365.2 26261.2 124365.2 26992  Z M 125469.2 15890.8 Q 125469.2 17272 126117.2 17944 Q 126765.2 18616 127952 18616 Q 129152 18616 129770 17950 Q 130388 17284 130388 15857.2 Q 130388 14380 129758 13684 Q 129128 12988 127928 12988 Q 126741.2 12988 126105.2 13708 Q 125469.2 14428 125469.2 15892 L 125469.2 15890.8 Z M 142774.4 24832 L 142774.4 16346.8 Q 142774.4 14786.8 142144.4 14006.8 Q 141514.4 13226.8 140170.4 13226.8 Q 139197.2 13226.8 138537.2 13538.8 Q 137877.2 13850.8 137475.2 14462.8 Q 137073.2 15074.8 136899.2 15962.8 Q 136725.2 16850.8 136725.2 18002.8 L 136725.2 24832 L 134541.2 24832 L 134541.2 11656 L 136317.2 11656 L 136629.2 13432 L 136749.2 13432 Q 137050.4 12914.8 137464.4 12536.8 Q 137878.4 12158.8 138370.4 11906.8 Q 138862.4 11654.8 139414.4 11534.8 Q 139966.4 11414.8 140542.4 11414.8 Q 142739.6 11414.8 143849.6 12560.8 Q 144959.6 13706.8 144959.6 16226.8 L 144959.6 24832 L 142775.6 24832 L 142774.4 24832 Z M 149116.8 24832 L 146932.8 24832 L 146932.8 11656 L 149116.8 11656 L 149116.8 24832 Z M 146764.8 8090.8 Q 146764.8 7370.8 147130.8 7046.8 Q 147496.8 6722.8 148035.6 6722.8 Q 148299.6 6722.8 148533.6 6800.8 Q 148767.6 6878.8 148941.6 7046.8 Q 149115.6 7214.8 149217.6 7472.8 Q 149319.6 7730.8 149319.6 8090.8 Q 149319.6 8786.8 148941.6 9128.8 Q 148563.6 9470.8 148035.6 9470.8 Q 147496.8 9470.8 147130.8 9134.8 Q 146764.8 8798.8 146764.8 8089.6 L 146764.8 8090.8 Z M 156907.6 13298.8 L 153966.4 13298.8 L 153966.4 24832 L 151771.6 24832 L 151771.6 13298.8 L 149443.6 13298.8 L 149443.6 12400 L 151771.6 11584 L 151771.6 10432 Q 151771.6 9146.8 152041.6 8300.8 Q 152311.6 7454.8 152821.6 6950.8 Q 153331.6 6446.8 154075.6 6236.8 Q 154819.6 6026.8 155755.6 6026.8 Q 156462.4 6026.8 157056.4 6164.8 Q 157650.4 6302.8 158117.2 6470.8 L 157554.4 8161.6 Q 157181.2 8030.8 156743.2 7928.8 Q 156305.2 7826.8 155825.2 7826.8 Q 155345.2 7826.8 154997.2 7940.8 Q 154649.2 8054.8 154421.2 8342.8 Q 154193.2 8630.8 154079.2 9128.8 Q 153965.2 9626.8 153965.2 10408 L 153965.2 11656 L 156906.4 11656 L 156906.4 13298.8 L 156907.6 13298.8 Z M 159356.8 24832 L 157172.8 24832 L 157172.8 11656 L 159356.8 11656 L 159356.8 24832 Z M 157004.8 8090.8 Q 157004.8 7370.8 157370.8 7046.8 Q 157736.8 6722.8 158275.6 6722.8 Q 158539.6 6722.8 158773.6 6800.8 Q 159007.6 6878.8 159181.6 7046.8 Q 159355.6 7214.8 159457.6 7472.8 Q 159559.6 7730.8 159559.6 8090.8 Q 159559.6 8786.8 159181.6 9128.8 Q 158803.6 9470.8 158275.6 9470.8 Q 157736.8 9470.8 157370.8 9134.8 Q 157004.8 8798.8 157004.8 8089.6 L 157004.8 8090.8 Z M 166462.4 25072 Q 165251.6 25072 164195.6 24694 Q 163139.6 24316 162359.6 23494 Q 161579.6 22672 161135.6 21394 Q 160691.6 20116 160691.6 18316 Q 160691.6 16433.2 161147.6 15119.2 Q 161603.6 13805.2 162401.6 12983.2 Q 163199.6 12161.2 164267.6 11789.2 Q 165335.6 11417.2 166559.6 11417.2 Q 167495.6 11417.2 168389.6 11621.2 Q 169283.6 11825.2 169883.6 12124 L 169235.6 13972 Q 168958.4 13852 168622.4 13738 Q 168286.4 13624 167926.4 13534 Q 167566.4 13444 167218.4 13390 Q 166870.4 13336 166558.4 13336 Q 164675.6 13336 163811.6 14542 Q 162947.6 15748 162947.6 18292 Q 162947.6 20825.2 163817.6 21995.2 Q 164687.6 23165.2 166463.6 23165.2 Q 167436.8 23165.2 168222.8 22943.2 Q 169008.8 22721.2 169656.8 22420 L 169656.8 24364 Q 169008.8 24713.2 168270.8 24893.2 Q 167532.8 25073.2 166463.6 25073.2 L 166462.4 25072 Z M 178170 24832 L 177724.8 23008 L 177628.8 23008 Q 177234 23546.8 176838 23936.8 Q 176442 24326.8 175974 24578.8 Q 175506 24830.8 174930 24950.8 Q 174354 25070.8 173596.8 25070.8 Q 172770 25070.8 172074 24836.8 Q 171378 24602.8 170868 24116.8 Q 170358 23630.8 170070 22892.8 Q 169782 22154.8 169782 21146.8 Q 169782 19178.8 171168 18122.8 Q 172554 17066.8 175386 16970.8 L 177594 16888 L 177594 16058.8 Q 177594 15256 177420 14716 Q 177246 14176 176916 13846 Q 176586 13516 176100 13372 Q 175614 13228 174990 13228 Q 173995.2 13228 173137.2 13516 Q 172279.2 13804 171487.2 14212 L 170719.2 12569.2 Q 171607.2 12089.2 172699.2 11753.2 Q 173791.2 11417.2 174991.2 11417.2 Q 176215.2 11417.2 177109.2 11663.2 Q 178003.2 11909.2 178585.2 12443.2 Q 179167.2 12977.2 179455.2 13805.2 Q 179743.2 14633.2 179743.2 15809.2 L 179743.2 24833.2 L 178172.4 24833.2 L 178170 24832 Z M 174162 23306.8 Q 174892.8 23306.8 175516.8 23078.8 Q 176140.8 22850.8 176596.8 22388.8 Q 177052.8 21926.8 177310.8 21224.8 Q 177568.8 20522.8 177568.8 19576 L 177568.8 18386.8 L 175851.6 18472 Q 174771.6 18520 174039.6 18712 Q 173307.6 18904 172869.6 19246 Q 172431.6 19588 172239.6 20074 Q 172047.6 20560 172047.6 21170.8 Q 172047.6 22274.8 172629.6 22790.8 Q 173211.6 23306.8 174160.8 23306.8 L 174162 23306.8 Z M 185630.4 23282.8 Q 185846.4 23282.8 186116.4 23258.8 Q 186386.4 23234.8 186638.4 23198.8 Q 186890.4 23162.8 187100.4 23114.8 Q 187310.4 23066.8 187419.6 23032 L 187419.6 24688 Q 187262.4 24760 187022.4 24832 Q 186782.4 24904 186494.4 24958 Q 186206.4 25012 185894.4 25042 Q 185582.4 25072 185283.6 25072 Q 184539.6 25072 183903.6 24880 Q 183267.6 24688 182805.6 24220 Q 182343.6 23752 182079.6 22954 Q 181815.6 22156 181815.6 20945.2 L 181815.6 13300 L 179956.8 13300 L 179956.8 12329.2 L 181815.6 11393.2 L 182751.6 8633.2 L 184012.8 8633.2 L 184012.8 11657.2 L 187324.8 11657.2 L 187324.8 13300 L 184012.8 13300 L 184012.8 20945.2 Q 184012.8 22108 184390.8 22696 Q 184768.8 23284 185632.8 23284 L 185630.4 23282.8 Z M 190076.8 24832 L 187892.8 24832 L 187892.8 11656 L 190076.8 11656 L 190076.8 24832 Z M 187724.8 8090.8 Q 187724.8 7370.8 188090.8 7046.8 Q 188456.8 6722.8 188995.6 6722.8 Q 189259.6 6722.8 189493.6 6800.8 Q 189727.6 6878.8 189901.6 7046.8 Q 190075.6 7214.8 190177.6 7472.8 Q 190279.6 7730.8 190279.6 8090.8 Q 190279.6 8786.8 189901.6 9128.8 Q 189523.6 9470.8 188995.6 9470.8 Q 188456.8 9470.8 188090.8 9134.8 Q 187724.8 8798.8 187724.8 8089.6 L 187724.8 8090.8 Z M 194555.6 24832 L 190054.4 11656 L 192310.4 11656 L 194699.6 18986.8 Q 194830.4 19384 195010.4 20008 Q 195190.4 20632 195370.4 21280 Q 195550.4 21928 195700.4 22504 Q 195850.4 23080 195898.4 23378.8 L 195981.2 23378.8 Q 196042.4 23080 196186.4 22504 Q 196330.4 21928 196510.4 21280 Q 196690.4 20632 196870.4 20008 Q 197050.4 19384 197181.2 18986.8 L 199570.4 11656 L 201826.4 11656 L 197325.2 24832 L 194554.4 24832 L 194555.6 24832 Z M 209248.4 24832 L 208803.2 23008 L 208707.2 23008 Q 208312.4 23546.8 207916.4 23936.8 Q 207520.4 24326.8 207052.4 24578.8 Q 206584.4 24830.8 206008.4 24950.8 Q 205432.4 25070.8 204675.2 25070.8 Q 203848.4 25070.8 203152.4 24836.8 Q 202456.4 24602.8 201946.4 24116.8 Q 201436.4 23630.8 201148.4 22892.8 Q 200860.4 22154.8 200860.4 21146.8 Q 200860.4 19178.8 202246.4 18122.8 Q 203632.4 17066.8 206464.4 16970.8 L 208672.4 16888 L 208672.4 16058.8 Q 208672.4 15256 208498.4 14716 Q 208324.4 14176 207994.4 13846 Q 207664.4 13516 207178.4 13372 Q 206692.4 13228 206068.4 13228 Q 205073.6 13228 204215.6 13516 Q 203357.6 13804 202565.6 14212 L 201797.6 12569.2 Q 202685.6 12089.2 203777.6 11753.2 Q 204869.6 11417.2 206069.6 11417.2 Q 207293.6 11417.2 208187.6 11663.2 Q 209081.6 11909.2 209663.6 12443.2 Q 210245.6 12977.2 210533.6 13805.2 Q 210821.6 14633.2 210821.6 15809.2 L 210821.6 24833.2 L 209250.8 24833.2 L 209248.4 24832 Z M 205240.4 23306.8 Q 205971.2 23306.8 206595.2 23078.8 Q 207219.2 22850.8 207675.2 22388.8 Q 208131.2 21926.8 208389.2 21224.8 Q 208647.2 20522.8 208647.2 19576 L 208647.2 18386.8 L 206930 18472 Q 205850 18520 205118 18712 Q 204386 18904 203948 19246 Q 203510 19588 203318 20074 Q 203126 20560 203126 21170.8 Q 203126 22274.8 203708 22790.8 Q 204290 23306.8 205239.2 23306.8 L 205240.4 23306.8 Z M 220610 21218.8 Q 220610 22178.8 220262 22898.8 Q 219914 23618.8 219260 24104.8 Q 218606 24590.8 217682 24830.8 Q 216758 25070.8 215606 25070.8 Q 214299.2 25070.8 213363.2 24860.8 Q 212427.2 24650.8 211718 24242.8 L 211718 22250.8 Q 212091.2 22442.8 212547.2 22628.8 Q 213003.2 22814.8 213507.2 22958.8 Q 214011.2 23102.8 214545.2 23192.8 Q 215079.2 23282.8 215607.2 23282.8 Q 216388.4 23282.8 216934.4 23150.8 Q 217480.4 23018.8 217822.4 22772.8 Q 218164.4 22526.8 218320.4 22172.8 Q 218476.4 21818.8 218476.4 21386.8 Q 218476.4 21016 218356.4 20716 Q 218236.4 20416 217918.4 20122 Q 217600.4 19828 217048.4 19528 Q 216496.4 19228 215632.4 18857.2 Q 214768.4 18484 214078.4 18124 Q 213388.4 17764 212908.4 17320 Q 212428.4 16876 212170.4 16294 Q 211912.4 15712 211912.4 14906.8 Q 211912.4 14066.8 212242.4 13412.8 Q 212572.4 12758.8 213172.4 12314.8 Q 213772.4 11870.8 214612.4 11642.8 Q 215452.4 11414.8 216484.4 11414.8 Q 217647.2 11414.8 218613.2 11666.8 Q 219579.2 11918.8 220443.2 12326.8 L 219686 14089.6 Q 218907.2 13742.8 218085.2 13484.8 Q 217263.2 13226.8 216412.4 13226.8 Q 215188.4 13226.8 214600.4 13628.8 Q 214012.4 14030.8 214012.4 14774.8 Q 214012.4 15193.6 214150.4 15505.6 Q 214288.4 15817.6 214624.4 16093.6 Q 214960.4 16369.6 215524.4 16651.6 Q 216088.4 16933.6 216928.4 17280.4 Q 217792.4 17640.4 218470.4 18000.4 Q 219148.4 18360.4 219628.4 18810.4 Q 220108.4 19260.4 220360.4 19836.4 Q 220612.4 20412.4 220612.4 21215.2 L 220610 21218.8 Z M 224017.6 11656 L 226286.8 11656 L 228865.6 19010.8 Q 229033.6 19490.8 229207.6 20018.8 Q 229381.6 20546.8 229531.6 21074.8 Q 229681.6 21602.8 229789.6 22094.8 Q 229897.6 22586.8 229945.6 23008 L 230017.6 23008 Q 230078.8 22706.8 230210.8 22190.8 Q 230342.8 21674.8 230504.8 21092.8 Q 230666.8 20510.8 230840.8 19946.8 Q 231014.8 19382.8 231145.6 18985.6 L 233534.8 11654.8 L 235790.8 11654.8 L 230582.8 26548 Q 230246.8 27518.8 229856.8 28292.8 Q 229466.8 29066.8 228950.8 29606.8 Q 228434.8 30146.8 227738.8 30440.8 Q 227042.8 30734.8 226082.8 30734.8 Q 225458.8 30734.8 225002.8 30668.8 Q 224546.8 30602.8 224224 30530.8 L 224224 28789.6 Q 224474.8 28850.8 224858.8 28892.8 Q 225242.8 28934.8 225664 28934.8 Q 226240 28934.8 226660 28796.8 Q 227080 28658.8 227392 28394.8 Q 227704 28130.8 227926 27746.8 Q 228148 27362.8 228329.2 26869.6 L 229012 24949.6 L 224020 11653.6 L 224017.6 11656 Z M 247597.2 24832 L 247152 23008 L 247056 23008 Q 246661.2 23546.8 246265.2 23936.8 Q 245869.2 24326.8 245401.2 24578.8 Q 244933.2 24830.8 244357.2 24950.8 Q 243781.2 25070.8 243024 25070.8 Q 242197.2 25070.8 241501.2 24836.8 Q 240805.2 24602.8 240295.2 24116.8 Q 239785.2 23630.8 239497.2 22892.8 Q 239209.2 22154.8 239209.2 21146.8 Q 239209.2 19178.8 240595.2 18122.8 Q 241981.2 17066.8 244813.2 16970.8 L 247021.2 16888 L 247021.2 16058.8 Q 247021.2 15256 246847.2 14716 Q 246673.2 14176 246343.2 13846 Q 246013.2 13516 245527.2 13372 Q 245041.2 13228 244417.2 13228 Q 243422.4 13228 242564.4 13516 Q 241706.4 13804 240914.4 14212 L 240146.4 12569.2 Q 241034.4 12089.2 242126.4 11753.2 Q 243218.4 11417.2 244418.4 11417.2 Q 245642.4 11417.2 246536.4 11663.2 Q 247430.4 11909.2 248012.4 12443.2 Q 248594.4 12977.2 248882.4 13805.2 Q 249170.4 14633.2 249170.4 15809.2 L 249170.4 24833.2 L 247599.6 24833.2 L 247597.2 24832 Z M 243589.2 23306.8 Q 244320 23306.8 244944 23078.8 Q 245568 22850.8 246024 22388.8 Q 246480 21926.8 246738 21224.8 Q 246996 20522.8 246996 19576 L 246996 18386.8 L 245278.8 18472 Q 244198.8 18520 243466.8 18712 Q 242734.8 18904 242296.8 19246 Q 241858.8 19588 241666.8 20074 Q 241474.8 20560 241474.8 21170.8 Q 241474.8 22274.8 242056.8 22790.8 Q 242638.8 23306.8 243588 23306.8 L 243589.2 23306.8 Z M 259606.8 24832 L 259281.6 23066.8 L 259161.6 23066.8 Q 258862.8 23584 258448.8 23962 Q 258034.8 24340 257542.8 24586 Q 257050.8 24832 256498.8 24952 Q 255946.8 25072 255370.8 25072 Q 254280 25072 253452 24796 Q 252624 24520 252072 23932 Q 251520 23344 251238 22432 Q 250956 21520 250956 20258.8 L 250956 11656 L 253140 11656 L 253140 20138.8 Q 253140 21698.8 253776 22478.8 Q 254412 23258.8 255745.2 23258.8 Q 256716 23258.8 257376 22946.8 Q 258036 22634.8 258438 22028.8 Q 258840 21422.8 259014 20534.8 Q 259188 19646.8 259188 18494.8 L 259188 11654.8 L 261372 11654.8 L 261372 24830.8 L 259609.2 24830.8 L 259606.8 24832 Z M 267448 23282.8 Q 267664 23282.8 267934 23258.8 Q 268204 23234.8 268456 23198.8 Q 268708 23162.8 268918 23114.8 Q 269128 23066.8 269237.2 23032 L 269237.2 24688 Q 269080 24760 268840 24832 Q 268600 24904 268312 24958 Q 268024 25012 267712 25042 Q 267400 25072 267101.2 25072 Q 266357.2 25072 265721.2 24880 Q 265085.2 24688 264623.2 24220 Q 264161.2 23752 263897.2 22954 Q 263633.2 22156 263633.2 20945.2 L 263633.2 13300 L 261774.4 13300 L 261774.4 12329.2 L 263633.2 11393.2 L 264569.2 8633.2 L 265830.4 8633.2 L 265830.4 11657.2 L 269142.4 11657.2 L 269142.4 13300 L 265830.4 13300 L 265830.4 20945.2 Q 265830.4 22108 266208.4 22696 Q 266586.4 23284 267450.4 23284 L 267448 23282.8 Z M 274918.4 25072 Q 273598.4 25072 272506.4 24628 Q 271414.4 24184 270628.4 23332 Q 269842.4 22480 269410.4 21220 Q 268978.4 19960 268978.4 18338.8 Q 268978.4 16706.8 269374.4 15422.8 Q 269770.4 14138.8 270490.4 13244.8 Q 271210.4 12350.8 272212.4 11882.8 Q 273214.4 11414.8 274427.6 11414.8 Q 275614.4 11414.8 276562.4 11840.8 Q 277510.4 12266.8 278170.4 13040.8 Q 278830.4 13814.8 279184.4 14900.8 Q 279538.4 15986.8 279538.4 17306.8 L 279538.4 18664 L 271234.4 18664 Q 271293.2 20978.8 272211.2 22070.8 Q 273129.2 23162.8 274940 23162.8 Q 275553.2 23162.8 276075.2 23102.8 Q 276597.2 23042.8 277083.2 22928.8 Q 277569.2 22814.8 278025.2 22640.8 Q 278481.2 22466.8 278948 22250.8 L 278948 24194.8 Q 278468 24424 278006 24592 Q 277544 24760 277058 24868 Q 276572 24976 276050 25024 Q 275528 25072 274914.8 25072 L 274918.4 25072 Z M 274379.6 13226.8 Q 273011.6 13226.8 272213.6 14162.8 Q 271415.6 15098.8 271284.8 16888 L 277188.8 16888 Q 277188.8 16072 277026.8 15394 Q 276864.8 14716 276522.8 14236 Q 276180.8 13756 275652.8 13492 Q 275124.8 13228 274380.8 13228 L 274379.6 13226.8 Z M 273363.2 9616 Q 273627.2 9266.8 273909.2 8810.8 Q 274191.2 8354.8 274473.2 7868.8 Q 274755.2 7382.8 275007.2 6896.8 Q 275259.2 6410.8 275451.2 6002.8 L 278078 6002.8 L 278078 6256 Q 277886 6578.8 277508 7064.8 Q 277130 7550.8 276668 8078.8 Q 276206 8606.8 275720 9104.8 Q 275234 9602.8 274812.8 9938.8 L 273362 9938.8 L 273362 9616 L 273363.2 9616 Z M 288950.4 24832 L 288950.4 16346.8 Q 288950.4 14786.8 288320.4 14006.8 Q 287690.4 13226.8 286346.4 13226.8 Q 285373.2 13226.8 284713.2 13538.8 Q 284053.2 13850.8 283651.2 14462.8 Q 283249.2 15074.8 283075.2 15962.8 Q 282901.2 16850.8 282901.2 18002.8 L 282901.2 24832 L 280717.2 24832 L 280717.2 11656 L 282493.2 11656 L 282805.2 13432 L 282925.2 13432 Q 283226.4 12914.8 283640.4 12536.8 Q 284054.4 12158.8 284546.4 11906.8 Q 285038.4 11654.8 285590.4 11534.8 Q 286142.4 11414.8 286718.4 11414.8 Q 288915.6 11414.8 290025.6 12560.8 Q 291135.6 13706.8 291135.6 16226.8 L 291135.6 24832 L 288951.6 24832 L 288950.4 24832 Z M 297092.8 23282.8 Q 297308.8 23282.8 297578.8 23258.8 Q 297848.8 23234.8 298100.8 23198.8 Q 298352.8 23162.8 298562.8 23114.8 Q 298772.8 23066.8 298882 23032 L 298882 24688 Q 298724.8 24760 298484.8 24832 Q 298244.8 24904 297956.8 24958 Q 297668.8 25012 297356.8 25042 Q 297044.8 25072 296746 25072 Q 296002 25072 295366 24880 Q 294730 24688 294268 24220 Q 293806 23752 293542 22954 Q 293278 22156 293278 20945.2 L 293278 13300 L 291419.2 13300 L 291419.2 12329.2 L 293278 11393.2 L 294214 8633.2 L 295475.2 8633.2 L 295475.2 11657.2 L 298787.2 11657.2 L 298787.2 13300 L 295475.2 13300 L 295475.2 20945.2 Q 295475.2 22108 295853.2 22696 Q 296231.2 23284 297095.2 23284 L 297092.8 23282.8 Z M 301539.2 24832 L 299355.2 24832 L 299355.2 11656 L 301539.2 11656 L 301539.2 24832 Z M 299187.2 8090.8 Q 299187.2 7370.8 299553.2 7046.8 Q 299919.2 6722.8 300458 6722.8 Q 300722 6722.8 300956 6800.8 Q 301190 6878.8 301364 7046.8 Q 301538 7214.8 301640 7472.8 Q 301742 7730.8 301742 8090.8 Q 301742 8786.8 301364 9128.8 Q 300986 9470.8 300458 9470.8 Q 299919.2 9470.8 299553.2 9134.8 Q 299187.2 8798.8 299187.2 8089.6 L 299187.2 8090.8 Z M 308644.8 25072 Q 307434 25072 306378 24694 Q 305322 24316 304542 23494 Q 303762 22672 303318 21394 Q 302874 20116 302874 18316 Q 302874 16433.2 303330 15119.2 Q 303786 13805.2 304584 12983.2 Q 305382 12161.2 306450 11789.2 Q 307518 11417.2 308742 11417.2 Q 309678 11417.2 310572 11621.2 Q 311466 11825.2 312066 12124 L 311418 13972 Q 311140.8 13852 310804.8 13738 Q 310468.8 13624 310108.8 13534 Q 309748.8 13444 309400.8 13390 Q 309052.8 13336 308740.8 13336 Q 306858 13336 305994 14542 Q 305130 15748 305130 18292 Q 305130 20825.2 306000 21995.2 Q 306870 23165.2 308646 23165.2 Q 309619.2 23165.2 310405.2 22943.2 Q 311191.2 22721.2 311839.2 22420 L 311839.2 24364 Q 311191.2 24713.2 310453.2 24893.2 Q 309715.2 25073.2 308646 25073.2 L 308644.8 25072 Z M 320352.4 24832 L 319907.2 23008 L 319811.2 23008 Q 319416.4 23546.8 319020.4 23936.8 Q 318624.4 24326.8 318156.4 24578.8 Q 317688.4 24830.8 317112.4 24950.8 Q 316536.4 25070.8 315779.2 25070.8 Q 314952.4 25070.8 314256.4 24836.8 Q 313560.4 24602.8 313050.4 24116.8 Q 312540.4 23630.8 312252.4 22892.8 Q 311964.4 22154.8 311964.4 21146.8 Q 311964.4 19178.8 313350.4 18122.8 Q 314736.4 17066.8 317568.4 16970.8 L 319776.4 16888 L 319776.4 16058.8 Q 319776.4 15256 319602.4 14716 Q 319428.4 14176 319098.4 13846 Q 318768.4 13516 318282.4 13372 Q 317796.4 13228 317172.4 13228 Q 316177.6 13228 315319.6 13516 Q 314461.6 13804 313669.6 14212 L 312901.6 12569.2 Q 313789.6 12089.2 314881.6 11753.2 Q 315973.6 11417.2 317173.6 11417.2 Q 318397.6 11417.2 319291.6 11663.2 Q 320185.6 11909.2 320767.6 12443.2 Q 321349.6 12977.2 321637.6 13805.2 Q 321925.6 14633.2 321925.6 15809.2 L 321925.6 24833.2 L 320354.8 24833.2 L 320352.4 24832 Z M 316344.4 23306.8 Q 317075.2 23306.8 317699.2 23078.8 Q 318323.2 22850.8 318779.2 22388.8 Q 319235.2 21926.8 319493.2 21224.8 Q 319751.2 20522.8 319751.2 19576 L 319751.2 18386.8 L 318034 18472 Q 316954 18520 316222 18712 Q 315490 18904 315052 19246 Q 314614 19588 314422 20074 Q 314230 20560 314230 21170.8 Q 314230 22274.8 314812 22790.8 Q 315394 23306.8 316343.2 23306.8 L 316344.4 23306.8 Z M 331714 21218.8 Q 331714 22178.8 331366 22898.8 Q 331018 23618.8 330364 24104.8 Q 329710 24590.8 328786 24830.8 Q 327862 25070.8 326710 25070.8 Q 325403.2 25070.8 324467.2 24860.8 Q 323531.2 24650.8 322822 24242.8 L 322822 22250.8 Q 323195.2 22442.8 323651.2 22628.8 Q 324107.2 22814.8 324611.2 22958.8 Q 325115.2 23102.8 325649.2 23192.8 Q 326183.2 23282.8 326711.2 23282.8 Q 327492.4 23282.8 328038.4 23150.8 Q 328584.4 23018.8 328926.4 22772.8 Q 329268.4 22526.8 329424.4 22172.8 Q 329580.4 21818.8 329580.4 21386.8 Q 329580.4 21016 329460.4 20716 Q 329340.4 20416 329022.4 20122 Q 328704.4 19828 328152.4 19528 Q 327600.4 19228 326736.4 18857.2 Q 325872.4 18484 325182.4 18124 Q 324492.4 17764 324012.4 17320 Q 323532.4 16876 323274.4 16294 Q 323016.4 15712 323016.4 14906.8 Q 323016.4 14066.8 323346.4 13412.8 Q 323676.4 12758.8 324276.4 12314.8 Q 324876.4 11870.8 325716.4 11642.8 Q 326556.4 11414.8 327588.4 11414.8 Q 328751.2 11414.8 329717.2 11666.8 Q 330683.2 11918.8 331547.2 12326.8 L 330790 14089.6 Q 330011.2 13742.8 329189.2 13484.8 Q 328367.2 13226.8 327516.4 13226.8 Q 326292.4 13226.8 325704.4 13628.8 Q 325116.4 14030.8 325116.4 14774.8 Q 325116.4 15193.6 325254.4 15505.6 Q 325392.4 15817.6 325728.4 16093.6 Q 326064.4 16369.6 326628.4 16651.6 Q 327192.4 16933.6 328032.4 17280.4 Q 328896.4 17640.4 329574.4 18000.4 Q 330252.4 18360.4 330732.4 18810.4 Q 331212.4 19260.4 331464.4 19836.4 Q 331716.4 20412.4 331716.4 21215.2 L 331714 21218.8 Z M 341782.8 23258.8 Q 342694.8 23258.8 343324.8 22982.8 Q 343954.8 22706.8 344344.8 22142.8 Q 344734.8 21578.8 344920.8 20732.8 Q 345106.8 19886.8 345130.8 18758.8 L 345130.8 18265.6 Q 345130.8 17054.8 344968.8 16112.8 Q 344806.8 15170.8 344416.8 14528.8 Q 344026.8 13886.8 343378.8 13556.8 Q 342730.8 13226.8 341760 13226.8 Q 340138.8 13226.8 339376.8 14534.8 Q 338614.8 15842.8 338614.8 18290.8 Q 338614.8 20800 339376.8 22030 Q 340138.8 23260 341784 23260 L 341782.8 23258.8 Z M 341361.6 25072 Q 340246.8 25072 339322.8 24640 Q 338398.8 24208 337738.8 23350 Q 337078.8 22492 336718.8 21220 Q 336358.8 19948 336358.8 18268 Q 336358.8 16577.2 336718.8 15299.2 Q 337078.8 14021.2 337738.8 13157.2 Q 338398.8 12293.2 339322.8 11855.2 Q 340246.8 11417.2 341361.6 11417.2 Q 342070.8 11417.2 342646.8 11579.2 Q 343222.8 11741.2 343678.8 12011.2 Q 344134.8 12281.2 344494.8 12647.2 Q 344854.8 13013.2 345129.6 13434.4 L 345225.6 13434.4 L 345550.8 11658.4 L 347313.6 11658.4 L 347313.6 30738.4 L 345129.6 30738.4 L 345129.6 25111.6 Q 345129.6 24882.4 345153.6 24534.4 Q 345177.6 24186.4 345201.6 23861.2 Q 345238.8 23477.2 345273.6 23069.2 L 345129.6 23069.2 Q 344865.6 23477.2 344511.6 23843.2 Q 344157.6 24209.2 343695.6 24485.2 Q 343233.6 24761.2 342657.6 24917.2 Q 342081.6 25073.2 341361.6 25073.2 L 341361.6 25072 Z M 358013.2 24832 L 357688 23066.8 L 357568 23066.8 Q 357269.2 23584 356855.2 23962 Q 356441.2 24340 355949.2 24586 Q 355457.2 24832 354905.2 24952 Q 354353.2 25072 353777.2 25072 Q 352686.4 25072 351858.4 24796 Q 351030.4 24520 350478.4 23932 Q 349926.4 23344 349644.4 22432 Q 349362.4 21520 349362.4 20258.8 L 349362.4 11656 L 351546.4 11656 L 351546.4 20138.8 Q 351546.4 21698.8 352182.4 22478.8 Q 352818.4 23258.8 354151.6 23258.8 Q 355122.4 23258.8 355782.4 22946.8 Q 356442.4 22634.8 356844.4 22028.8 Q 357246.4 21422.8 357420.4 20534.8 Q 357594.4 19646.8 357594.4 18494.8 L 357594.4 11654.8 L 359778.4 11654.8 L 359778.4 24830.8 L 358015.6 24830.8 L 358013.2 24832 Z M 367078.4 25072 Q 365758.4 25072 364666.4 24628 Q 363574.4 24184 362788.4 23332 Q 362002.4 22480 361570.4 21220 Q 361138.4 19960 361138.4 18338.8 Q 361138.4 16706.8 361534.4 15422.8 Q 361930.4 14138.8 362650.4 13244.8 Q 363370.4 12350.8 364372.4 11882.8 Q 365374.4 11414.8 366587.6 11414.8 Q 367774.4 11414.8 368722.4 11840.8 Q 369670.4 12266.8 370330.4 13040.8 Q 370990.4 13814.8 371344.4 14900.8 Q 371698.4 15986.8 371698.4 17306.8 L 371698.4 18664 L 363394.4 18664 Q 363453.2 20978.8 364371.2 22070.8 Q 365289.2 23162.8 367100 23162.8 Q 367713.2 23162.8 368235.2 23102.8 Q 368757.2 23042.8 369243.2 22928.8 Q 369729.2 22814.8 370185.2 22640.8 Q 370641.2 22466.8 371108 22250.8 L 371108 24194.8 Q 370628 24424 370166 24592 Q 369704 24760 369218 24868 Q 368732 24976 368210 25024 Q 367688 25072 367074.8 25072 L 367078.4 25072 Z M 366539.6 13226.8 Q 365171.6 13226.8 364373.6 14162.8 Q 363575.6 15098.8 363444.8 16888 L 369348.8 16888 Q 369348.8 16072 369186.8 15394 Q 369024.8 14716 368682.8 14236 Q 368340.8 13756 367812.8 13492 Q 367284.8 13228 366540.8 13228 L 366539.6 13226.8 Z M 385013.2 21218.8 Q 385013.2 22178.8 384665.2 22898.8 Q 384317.2 23618.8 383663.2 24104.8 Q 383009.2 24590.8 382085.2 24830.8 Q 381161.2 25070.8 380009.2 25070.8 Q 378702.4 25070.8 377766.4 24860.8 Q 376830.4 24650.8 376121.2 24242.8 L 376121.2 22250.8 Q 376494.4 22442.8 376950.4 22628.8 Q 377406.4 22814.8 377910.4 22958.8 Q 378414.4 23102.8 378948.4 23192.8 Q 379482.4 23282.8 380010.4 23282.8 Q 380791.6 23282.8 381337.6 23150.8 Q 381883.6 23018.8 382225.6 22772.8 Q 382567.6 22526.8 382723.6 22172.8 Q 382879.6 21818.8 382879.6 21386.8 Q 382879.6 21016 382759.6 20716 Q 382639.6 20416 382321.6 20122 Q 382003.6 19828 381451.6 19528 Q 380899.6 19228 380035.6 18857.2 Q 379171.6 18484 378481.6 18124 Q 377791.6 17764 377311.6 17320 Q 376831.6 16876 376573.6 16294 Q 376315.6 15712 376315.6 14906.8 Q 376315.6 14066.8 376645.6 13412.8 Q 376975.6 12758.8 377575.6 12314.8 Q 378175.6 11870.8 379015.6 11642.8 Q 379855.6 11414.8 380887.6 11414.8 Q 382050.4 11414.8 383016.4 11666.8 Q 383982.4 11918.8 384846.4 12326.8 L 384089.2 14089.6 Q 383310.4 13742.8 382488.4 13484.8 Q 381666.4 13226.8 380815.6 13226.8 Q 379591.6 13226.8 379003.6 13628.8 Q 378415.6 14030.8 378415.6 14774.8 Q 378415.6 15193.6 378553.6 15505.6 Q 378691.6 15817.6 379027.6 16093.6 Q 379363.6 16369.6 379927.6 16651.6 Q 380491.6 16933.6 381331.6 17280.4 Q 382195.6 17640.4 382873.6 18000.4 Q 383551.6 18360.4 384031.6 18810.4 Q 384511.6 19260.4 384763.6 19836.4 Q 385015.6 20412.4 385015.6 21215.2 L 385013.2 21218.8 Z M 388323.2 24832 L 386139.2 24832 L 386139.2 11656 L 388323.2 11656 L 388323.2 24832 Z M 385971.2 8090.8 Q 385971.2 7370.8 386337.2 7046.8 Q 386703.2 6722.8 387242 6722.8 Q 387506 6722.8 387740 6800.8 Q 387974 6878.8 388148 7046.8 Q 388322 7214.8 388424 7472.8 Q 388526 7730.8 388526 8090.8 Q 388526 8786.8 388148 9128.8 Q 387770 9470.8 387242 9470.8 Q 386703.2 9470.8 386337.2 9134.8 Q 385971.2 8798.8 385971.2 8089.6 L 385971.2 8090.8 Z M 406170 24832 L 406170 16346.8 Q 406170 14786.8 405570 14006.8 Q 404970 13226.8 403708.8 13226.8 Q 402834 13226.8 402222 13508.8 Q 401610 13790.8 401220 14336.8 Q 400830 14882.8 400650 15692.8 Q 400470 16502.8 400470 17558.8 L 400470 24830.8 L 398275.2 24830.8 L 398275.2 16345.6 Q 398275.2 14785.6 397681.2 14005.6 Q 397087.2 13225.6 395828.4 13225.6 Q 394903.2 13225.6 394279.2 13537.6 Q 393655.2 13849.6 393277.2 14461.6 Q 392899.2 15073.6 392737.2 15961.6 Q 392575.2 16849.6 392575.2 18001.6 L 392575.2 24830.8 L 390391.2 24830.8 L 390391.2 11654.8 L 392167.2 11654.8 L 392479.2 13430.8 L 392599.2 13430.8 Q 392887.2 12913.6 393283.2 12535.6 Q 393679.2 12157.6 394153.2 11905.6 Q 394627.2 11653.6 395161.2 11533.6 Q 395695.2 11413.6 396247.2 11413.6 Q 397687.2 11413.6 398641.2 11941.6 Q 399595.2 12469.6 400051.2 13597.6 L 400147.2 13597.6 Q 400459.2 13032.4 400897.2 12624.4 Q 401335.2 12216.4 401857.2 11946.4 Q 402379.2 11676.4 402955.2 11544.4 Q 403531.2 11412.4 404131.2 11412.4 Q 406230 11412.4 407292 12558.4 Q 408354 13704.4 408354 16224.4 L 408354 24829.6 L 406170 24829.6 L 406170 24832 Z M 418838.8 24832 L 418513.6 23066.8 L 418393.6 23066.8 Q 418094.8 23584 417680.8 23962 Q 417266.8 24340 416774.8 24586 Q 416282.8 24832 415730.8 24952 Q 415178.8 25072 414602.8 25072 Q 413512 25072 412684 24796 Q 411856 24520 411304 23932 Q 410752 23344 410470 22432 Q 410188 21520 410188 20258.8 L 410188 11656 L 412372 11656 L 412372 20138.8 Q 412372 21698.8 413008 22478.8 Q 413644 23258.8 414977.2 23258.8 Q 415948 23258.8 416608 22946.8 Q 417268 22634.8 417670 22028.8 Q 418072 21422.8 418246 20534.8 Q 418420 19646.8 418420 18494.8 L 418420 11654.8 L 420604 11654.8 L 420604 24830.8 L 418841.2 24830.8 L 418838.8 24832 Z M 424880 24832 L 422696 24832 L 422696 6160 L 424880 6160 L 424880 24832 Z M 432153.6 25072 Q 430833.6 25072 429741.6 24628 Q 428649.6 24184 427863.6 23332 Q 427077.6 22480 426645.6 21220 Q 426213.6 19960 426213.6 18338.8 Q 426213.6 16706.8 426609.6 15422.8 Q 427005.6 14138.8 427725.6 13244.8 Q 428445.6 12350.8 429447.6 11882.8 Q 430449.6 11414.8 431662.8 11414.8 Q 432849.6 11414.8 433797.6 11840.8 Q 434745.6 12266.8 435405.6 13040.8 Q 436065.6 13814.8 436419.6 14900.8 Q 436773.6 15986.8 436773.6 17306.8 L 436773.6 18664 L 428469.6 18664 Q 428528.4 20978.8 429446.4 22070.8 Q 430364.4 23162.8 432175.2 23162.8 Q 432788.4 23162.8 433310.4 23102.8 Q 433832.4 23042.8 434318.4 22928.8 Q 434804.4 22814.8 435260.4 22640.8 Q 435716.4 22466.8 436183.2 22250.8 L 436183.2 24194.8 Q 435703.2 24424 435241.2 24592 Q 434779.2 24760 434293.2 24868 Q 433807.2 24976 433285.2 25024 Q 432763.2 25072 432150 25072 L 432153.6 25072 Z M 431614.8 13226.8 Q 430246.8 13226.8 429448.8 14162.8 Q 428650.8 15098.8 428520 16888 L 434424 16888 Q 434424 16072 434262 15394 Q 434100 14716 433758 14236 Q 433416 13756 432888 13492 Q 432360 13228 431616 13228 L 431614.8 13226.8 Z M 446185.6 24832 L 446185.6 16346.8 Q 446185.6 14786.8 445555.6 14006.8 Q 444925.6 13226.8 443581.6 13226.8 Q 442608.4 13226.8 441948.4 13538.8 Q 441288.4 13850.8 440886.4 14462.8 Q 440484.4 15074.8 440310.4 15962.8 Q 440136.4 16850.8 440136.4 18002.8 L 440136.4 24832 L 437952.4 24832 L 437952.4 11656 L 439728.4 11656 L 440040.4 13432 L 440160.4 13432 Q 440461.6 12914.8 440875.6 12536.8 Q 441289.6 12158.8 441781.6 11906.8 Q 442273.6 11654.8 442825.6 11534.8 Q 443377.6 11414.8 443953.6 11414.8 Q 446150.8 11414.8 447260.8 12560.8 Q 448370.8 13706.8 448370.8 16226.8 L 448370.8 24832 L 446186.8 24832 L 446185.6 24832 Z M 462478.8 21218.8 Q 462478.8 22178.8 462130.8 22898.8 Q 461782.8 23618.8 461128.8 24104.8 Q 460474.8 24590.8 459550.8 24830.8 Q 458626.8 25070.8 457474.8 25070.8 Q 456168 25070.8 455232 24860.8 Q 454296 24650.8 453586.8 24242.8 L 453586.8 22250.8 Q 453960 22442.8 454416 22628.8 Q 454872 22814.8 455376 22958.8 Q 455880 23102.8 456414 23192.8 Q 456948 23282.8 457476 23282.8 Q 458257.2 23282.8 458803.2 23150.8 Q 459349.2 23018.8 459691.2 22772.8 Q 460033.2 22526.8 460189.2 22172.8 Q 460345.2 21818.8 460345.2 21386.8 Q 460345.2 21016 460225.2 20716 Q 460105.2 20416 459787.2 20122 Q 459469.2 19828 458917.2 19528 Q 458365.2 19228 457501.2 18857.2 Q 456637.2 18484 455947.2 18124 Q 455257.2 17764 454777.2 17320 Q 454297.2 16876 454039.2 16294 Q 453781.2 15712 453781.2 14906.8 Q 453781.2 14066.8 454111.2 13412.8 Q 454441.2 12758.8 455041.2 12314.8 Q 455641.2 11870.8 456481.2 11642.8 Q 457321.2 11414.8 458353.2 11414.8 Q 459516 11414.8 460482 11666.8 Q 461448 11918.8 462312 12326.8 L 461554.8 14089.6 Q 460776 13742.8 459954 13484.8 Q 459132 13226.8 458281.2 13226.8 Q 457057.2 13226.8 456469.2 13628.8 Q 455881.2 14030.8 455881.2 14774.8 Q 455881.2 15193.6 456019.2 15505.6 Q 456157.2 15817.6 456493.2 16093.6 Q 456829.2 16369.6 457393.2 16651.6 Q 457957.2 16933.6 458797.2 17280.4 Q 459661.2 17640.4 460339.2 18000.4 Q 461017.2 18360.4 461497.2 18810.4 Q 461977.2 19260.4 462229.2 19836.4 Q 462481.2 20412.4 462481.2 21215.2 L 462478.8 21218.8 Z M 465788.8 24832 L 463604.8 24832 L 463604.8 11656 L 465788.8 11656 L 465788.8 24832 Z M 463436.8 8090.8 Q 463436.8 7370.8 463802.8 7046.8 Q 464168.8 6722.8 464707.6 6722.8 Q 464971.6 6722.8 465205.6 6800.8 Q 465439.6 6878.8 465613.6 7046.8 Q 465787.6 7214.8 465889.6 7472.8 Q 465991.6 7730.8 465991.6 8090.8 Q 465991.6 8786.8 465613.6 9128.8 Q 465235.6 9470.8 464707.6 9470.8 Q 464168.8 9470.8 463802.8 9134.8 Q 463436.8 8798.8 463436.8 8089.6 L 463436.8 8090.8 Z M 471838.4 23282.8 Q 472054.4 23282.8 472324.4 23258.8 Q 472594.4 23234.8 472846.4 23198.8 Q 473098.4 23162.8 473308.4 23114.8 Q 473518.4 23066.8 473627.6 23032 L 473627.6 24688 Q 473470.4 24760 473230.4 24832 Q 472990.4 24904 472702.4 24958 Q 472414.4 25012 472102.4 25042 Q 471790.4 25072 471491.6 25072 Q 470747.6 25072 470111.6 24880 Q 469475.6 24688 469013.6 24220 Q 468551.6 23752 468287.6 22954 Q 468023.6 22156 468023.6 20945.2 L 468023.6 13300 L 466164.8 13300 L 466164.8 12329.2 L 468023.6 11393.2 L 468959.6 8633.2 L 470220.8 8633.2 L 470220.8 11657.2 L 473532.8 11657.2 L 473532.8 13300 L 470220.8 13300 L 470220.8 20945.2 Q 470220.8 22108 470598.8 22696 Q 470976.8 23284 471840.8 23284 L 471838.4 23282.8 Z M 482634 24832 L 482308.8 23066.8 L 482188.8 23066.8 Q 481890 23584 481476 23962 Q 481062 24340 480570 24586 Q 480078 24832 479526 24952 Q 478974 25072 478398 25072 Q 477307.2 25072 476479.2 24796 Q 475651.2 24520 475099.2 23932 Q 474547.2 23344 474265.2 22432 Q 473983.2 21520 473983.2 20258.8 L 473983.2 11656 L 476167.2 11656 L 476167.2 20138.8 Q 476167.2 21698.8 476803.2 22478.8 Q 477439.2 23258.8 478772.4 23258.8 Q 479743.2 23258.8 480403.2 22946.8 Q 481063.2 22634.8 481465.2 22028.8 Q 481867.2 21422.8 482041.2 20534.8 Q 482215.2 19646.8 482215.2 18494.8 L 482215.2 11654.8 L 484399.2 11654.8 L 484399.2 24830.8 L 482636.4 24830.8 L 482634 24832 Z M 493920.4 24832 L 493475.2 23008 L 493379.2 23008 Q 492984.4 23546.8 492588.4 23936.8 Q 492192.4 24326.8 491724.4 24578.8 Q 491256.4 24830.8 490680.4 24950.8 Q 490104.4 25070.8 489347.2 25070.8 Q 488520.4 25070.8 487824.4 24836.8 Q 487128.4 24602.8 486618.4 24116.8 Q 486108.4 23630.8 485820.4 22892.8 Q 485532.4 22154.8 485532.4 21146.8 Q 485532.4 19178.8 486918.4 18122.8 Q 488304.4 17066.8 491136.4 16970.8 L 493344.4 16888 L 493344.4 16058.8 Q 493344.4 15256 493170.4 14716 Q 492996.4 14176 492666.4 13846 Q 492336.4 13516 491850.4 13372 Q 491364.4 13228 490740.4 13228 Q 489745.6 13228 488887.6 13516 Q 488029.6 13804 487237.6 14212 L 486469.6 12569.2 Q 487357.6 12089.2 488449.6 11753.2 Q 489541.6 11417.2 490741.6 11417.2 Q 491965.6 11417.2 492859.6 11663.2 Q 493753.6 11909.2 494335.6 12443.2 Q 494917.6 12977.2 495205.6 13805.2 Q 495493.6 14633.2 495493.6 15809.2 L 495493.6 24833.2 L 493922.8 24833.2 L 493920.4 24832 Z M 489912.4 23306.8 Q 490643.2 23306.8 491267.2 23078.8 Q 491891.2 22850.8 492347.2 22388.8 Q 492803.2 21926.8 493061.2 21224.8 Q 493319.2 20522.8 493319.2 19576 L 493319.2 18386.8 L 491602 18472 Q 490522 18520 489790 18712 Q 489058 18904 488620 19246 Q 488182 19588 487990 20074 Q 487798 20560 487798 21170.8 Q 487798 22274.8 488380 22790.8 Q 488962 23306.8 489911.2 23306.8 L 489912.4 23306.8 Z M 502436.8 25072 Q 501226 25072 500170 24694 Q 499114 24316 498334 23494 Q 497554 22672 497110 21394 Q 496666 20116 496666 18316 Q 496666 16433.2 497122 15119.2 Q 497578 13805.2 498376 12983.2 Q 499174 12161.2 500242 11789.2 Q 501310 11417.2 502534 11417.2 Q 503470 11417.2 504364 11621.2 Q 505258 11825.2 505858 12124 L 505210 13972 Q 504932.8 13852 504596.8 13738 Q 504260.8 13624 503900.8 13534 Q 503540.8 13444 503192.8 13390 Q 502844.8 13336 502532.8 13336 Q 500650 13336 499786 14542 Q 498922 15748 498922 18292 Q 498922 20825.2 499792 21995.2 Q 500662 23165.2 502438 23165.2 Q 503411.2 23165.2 504197.2 22943.2 Q 504983.2 22721.2 505631.2 22420 L 505631.2 24364 Q 504983.2 24713.2 504245.2 24893.2 Q 503507.2 25073.2 502438 25073.2 L 502436.8 25072 Z M 508899.2 24832 L 506715.2 24832 L 506715.2 11656 L 508899.2 11656 L 508899.2 24832 Z M 506547.2 8090.8 Q 506547.2 7370.8 506913.2 7046.8 Q 507279.2 6722.8 507818 6722.8 Q 508082 6722.8 508316 6800.8 Q 508550 6878.8 508724 7046.8 Q 508898 7214.8 509000 7472.8 Q 509102 7730.8 509102 8090.8 Q 509102 8786.8 508724 9128.8 Q 508346 9470.8 507818 9470.8 Q 507279.2 9470.8 506913.2 9134.8 Q 506547.2 8798.8 506547.2 8089.6 L 506547.2 8090.8 Z M 521706 18218.8 Q 521706 19864 521304 21142 Q 520902 22420 520152 23290 Q 519402 24160 518334 24616 Q 517266 25072 515932.8 25072 Q 514698 25072 513654 24616 Q 512610 24160 511848 23290 Q 511086 22420 510660 21142 Q 510234 19864 510234 18218.8 Q 510234 16586.8 510636 15320.8 Q 511038 14054.8 511782 13184.8 Q 512526 12314.8 513600 11864.8 Q 514674 11414.8 516004.8 11414.8 Q 517242 11414.8 518286 11864.8 Q 519330 12314.8 520092 13184.8 Q 520854 14054.8 521280 15320.8 Q 521706 16586.8 521706 18218.8  Z M 512490 18218.8 Q 512490 20728 513312 21994 Q 514134 23260 515982 23260 Q 517830 23260 518640 21994 Q 519450 20728 519450 18218.8 Q 519450 15712 518628 14470 Q 517806 13228 515958 13228 Q 514110 13228 513300 14470 Q 512490 15712 512490 18218.8  Z M 531331.2 24832 L 531331.2 16346.8 Q 531331.2 14786.8 530701.2 14006.8 Q 530071.2 13226.8 528727.2 13226.8 Q 527754 13226.8 527094 13538.8 Q 526434 13850.8 526032 14462.8 Q 525630 15074.8 525456 15962.8 Q 525282 16850.8 525282 18002.8 L 525282 24832 L 523098 24832 L 523098 11656 L 524874 11656 L 525186 13432 L 525306 13432 Q 525607.2 12914.8 526021.2 12536.8 Q 526435.2 12158.8 526927.2 11906.8 Q 527419.2 11654.8 527971.2 11534.8 Q 528523.2 11414.8 529099.2 11414.8 Q 531296.4 11414.8 532406.4 12560.8 Q 533516.4 13706.8 533516.4 16226.8 L 533516.4 24832 L 531332.4 24832 L 531331.2 24832 Z M 540697.6 25072 Q 539377.6 25072 538285.6 24628 Q 537193.6 24184 536407.6 23332 Q 535621.6 22480 535189.6 21220 Q 534757.6 19960 534757.6 18338.8 Q 534757.6 16706.8 535153.6 15422.8 Q 535549.6 14138.8 536269.6 13244.8 Q 536989.6 12350.8 537991.6 11882.8 Q 538993.6 11414.8 540206.8 11414.8 Q 541393.6 11414.8 542341.6 11840.8 Q 543289.6 12266.8 543949.6 13040.8 Q 544609.6 13814.8 544963.6 14900.8 Q 545317.6 15986.8 545317.6 17306.8 L 545317.6 18664 L 537013.6 18664 Q 537072.4 20978.8 537990.4 22070.8 Q 538908.4 23162.8 540719.2 23162.8 Q 541332.4 23162.8 541854.4 23102.8 Q 542376.4 23042.8 542862.4 22928.8 Q 543348.4 22814.8 543804.4 22640.8 Q 544260.4 22466.8 544727.2 22250.8 L 544727.2 24194.8 Q 544247.2 24424 543785.2 24592 Q 543323.2 24760 542837.2 24868 Q 542351.2 24976 541829.2 25024 Q 541307.2 25072 540694 25072 L 540697.6 25072 Z M 540158.8 13226.8 Q 538790.8 13226.8 537992.8 14162.8 Q 537194.8 15098.8 537064 16888 L 542968 16888 Q 542968 16072 542806 15394 Q 542644 14716 542302 14236 Q 541960 13756 541432 13492 Q 540904 13228 540160 13228 L 540158.8 13226.8 Z M 554382.8 21218.8 Q 554382.8 22178.8 554034.8 22898.8 Q 553686.8 23618.8 553032.8 24104.8 Q 552378.8 24590.8 551454.8 24830.8 Q 550530.8 25070.8 549378.8 25070.8 Q 548072 25070.8 547136 24860.8 Q 546200 24650.8 545490.8 24242.8 L 545490.8 22250.8 Q 545864 22442.8 546320 22628.8 Q 546776 22814.8 547280 22958.8 Q 547784 23102.8 548318 23192.8 Q 548852 23282.8 549380 23282.8 Q 550161.2 23282.8 550707.2 23150.8 Q 551253.2 23018.8 551595.2 22772.8 Q 551937.2 22526.8 552093.2 22172.8 Q 552249.2 21818.8 552249.2 21386.8 Q 552249.2 21016 552129.2 20716 Q 552009.2 20416 551691.2 20122 Q 551373.2 19828 550821.2 19528 Q 550269.2 19228 549405.2 18857.2 Q 548541.2 18484 547851.2 18124 Q 547161.2 17764 546681.2 17320 Q 546201.2 16876 545943.2 16294 Q 545685.2 15712 545685.2 14906.8 Q 545685.2 14066.8 546015.2 13412.8 Q 546345.2 12758.8 546945.2 12314.8 Q 547545.2 11870.8 548385.2 11642.8 Q 549225.2 11414.8 550257.2 11414.8 Q 551420 11414.8 552386 11666.8 Q 553352 11918.8 554216 12326.8 L 553458.8 14089.6 Q 552680 13742.8 551858 13484.8 Q 551036 13226.8 550185.2 13226.8 Q 548961.2 13226.8 548373.2 13628.8 Q 547785.2 14030.8 547785.2 14774.8 Q 547785.2 15193.6 547923.2 15505.6 Q 548061.2 15817.6 548397.2 16093.6 Q 548733.2 16369.6 549297.2 16651.6 Q 549861.2 16933.6 550701.2 17280.4 Q 551565.2 17640.4 552243.2 18000.4 Q 552921.2 18360.4 553401.2 18810.4 Q 553881.2 19260.4 554133.2 19836.4 Q 554385.2 20412.4 554385.2 21215.2 L 554382.8 21218.8 Z M 9837.2 50276.8 Q 10184 50276.8 10616 50306.8 Q 11048 50336.8 11360 50398 L 11072 52414 Q 10736 52352.8 10382 52310.8 Q 10028 52268.8 9716 52268.8 Q 8958.8 52268.8 8334.8 52574.8 Q 7710.8 52880.8 7260.8 53450.8 Q 6810.8 54020.8 6564.8 54818.8 Q 6318.8 55616.8 6318.8 56590 L 6318.8 63694 L 4134.8 63694 L 4134.8 50518 L 5910.8 50518 L 6174.8 52928.8 L 6270.8 52928.8 Q 6572 52414 6914 51934 Q 7256 51454 7682 51088 Q 8108 50722 8636 50500 Q 9164 50278 9836 50278 L 9837.2 50276.8 Z M 17126.4 63932.8 Q 15806.4 63932.8 14714.4 63488.8 Q 13622.4 63044.8 12836.4 62192.8 Q 12050.4 61340.8 11618.4 60080.8 Q 11186.4 58820.8 11186.4 57199.6 Q 11186.4 55567.6 11582.4 54283.6 Q 11978.4 52999.6 12698.4 52105.6 Q 13418.4 51211.6 14420.4 50743.6 Q 15422.4 50275.6 16635.6 50275.6 Q 17822.4 50275.6 18770.4 50701.6 Q 19718.4 51127.6 20378.4 51901.6 Q 21038.4 52675.6 21392.4 53761.6 Q 21746.4 54847.6 21746.4 56167.6 L 21746.4 57524.8 L 13442.4 57524.8 Q 13501.2 59839.6 14419.2 60931.6 Q 15337.2 62023.6 17148 62023.6 Q 17761.2 62023.6 18283.2 61963.6 Q 18805.2 61903.6 19291.2 61789.6 Q 19777.2 61675.6 20233.2 61501.6 Q 20689.2 61327.6 21156 61111.6 L 21156 63055.6 Q 20676 63284.8 20214 63452.8 Q 19752 63620.8 19266 63728.8 Q 18780 63836.8 18258 63884.8 Q 17736 63932.8 17122.8 63932.8 L 17126.4 63932.8 Z M 16587.6 52087.6 Q 15219.6 52087.6 14421.6 53023.6 Q 13623.6 53959.6 13492.8 55748.8 L 19396.8 55748.8 Q 19396.8 54932.8 19234.8 54254.8 Q 19072.8 53576.8 18730.8 53096.8 Q 18388.8 52616.8 17860.8 52352.8 Q 17332.8 52088.8 16588.8 52088.8 L 16587.6 52087.6 Z M 30355.6 63692.8 L 29910.4 61868.8 L 29814.4 61868.8 Q 29419.6 62407.6 29023.6 62797.6 Q 28627.6 63187.6 28159.6 63439.6 Q 27691.6 63691.6 27115.6 63811.6 Q 26539.6 63931.6 25782.4 63931.6 Q 24955.6 63931.6 24259.6 63697.6 Q 23563.6 63463.6 23053.6 62977.6 Q 22543.6 62491.6 22255.6 61753.6 Q 21967.6 61015.6 21967.6 60007.6 Q 21967.6 58039.6 23353.6 56983.6 Q 24739.6 55927.6 27571.6 55831.6 L 29779.6 55748.8 L 29779.6 54919.6 Q 29779.6 54116.8 29605.6 53576.8 Q 29431.6 53036.8 29101.6 52706.8 Q 28771.6 52376.8 28285.6 52232.8 Q 27799.6 52088.8 27175.6 52088.8 Q 26180.8 52088.8 25322.8 52376.8 Q 24464.8 52664.8 23672.8 53072.8 L 22904.8 51430 Q 23792.8 50950 24884.8 50614 Q 25976.8 50278 27176.8 50278 Q 28400.8 50278 29294.8 50524 Q 30188.8 50770 30770.8 51304 Q 31352.8 51838 31640.8 52666 Q 31928.8 53494 31928.8 54670 L 31928.8 63694 L 30358 63694 L 30355.6 63692.8 Z M 26347.6 62167.6 Q 27078.4 62167.6 27702.4 61939.6 Q 28326.4 61711.6 28782.4 61249.6 Q 29238.4 60787.6 29496.4 60085.6 Q 29754.4 59383.6 29754.4 58436.8 L 29754.4 57247.6 L 28037.2 57332.8 Q 26957.2 57380.8 26225.2 57572.8 Q 25493.2 57764.8 25055.2 58106.8 Q 24617.2 58448.8 24425.2 58934.8 Q 24233.2 59420.8 24233.2 60031.6 Q 24233.2 61135.6 24815.2 61651.6 Q 25397.2 62167.6 26346.4 62167.6 L 26347.6 62167.6 Z M 36016 63692.8 L 33832 63692.8 L 33832 45020.8 L 36016 45020.8 L 36016 63692.8 Z M 43289.6 63932.8 Q 41969.6 63932.8 40877.6 63488.8 Q 39785.6 63044.8 38999.6 62192.8 Q 38213.6 61340.8 37781.6 60080.8 Q 37349.6 58820.8 37349.6 57199.6 Q 37349.6 55567.6 37745.6 54283.6 Q 38141.6 52999.6 38861.6 52105.6 Q 39581.6 51211.6 40583.6 50743.6 Q 41585.6 50275.6 42798.8 50275.6 Q 43985.6 50275.6 44933.6 50701.6 Q 45881.6 51127.6 46541.6 51901.6 Q 47201.6 52675.6 47555.6 53761.6 Q 47909.6 54847.6 47909.6 56167.6 L 47909.6 57524.8 L 39605.6 57524.8 Q 39664.4 59839.6 40582.4 60931.6 Q 41500.4 62023.6 43311.2 62023.6 Q 43924.4 62023.6 44446.4 61963.6 Q 44968.4 61903.6 45454.4 61789.6 Q 45940.4 61675.6 46396.4 61501.6 Q 46852.4 61327.6 47319.2 61111.6 L 47319.2 63055.6 Q 46839.2 63284.8 46377.2 63452.8 Q 45915.2 63620.8 45429.2 63728.8 Q 44943.2 63836.8 44421.2 63884.8 Q 43899.2 63932.8 43286 63932.8 L 43289.6 63932.8 Z M 42750.8 52087.6 Q 41382.8 52087.6 40584.8 53023.6 Q 39786.8 53959.6 39656 55748.8 L 45560 55748.8 Q 45560 54932.8 45398 54254.8 Q 45236 53576.8 44894 53096.8 Q 44552 52616.8 44024 52352.8 Q 43496 52088.8 42752 52088.8 L 42750.8 52087.6 Z M 56974.8 60079.6 Q 56974.8 61039.6 56626.8 61759.6 Q 56278.8 62479.6 55624.8 62965.6 Q 54970.8 63451.6 54046.8 63691.6 Q 53122.8 63931.6 51970.8 63931.6 Q 50664 63931.6 49728 63721.6 Q 48792 63511.6 48082.8 63103.6 L 48082.8 61111.6 Q 48456 61303.6 48912 61489.6 Q 49368 61675.6 49872 61819.6 Q 50376 61963.6 50910 62053.6 Q 51444 62143.6 51972 62143.6 Q 52753.2 62143.6 53299.2 62011.6 Q 53845.2 61879.6 54187.2 61633.6 Q 54529.2 61387.6 54685.2 61033.6 Q 54841.2 60679.6 54841.2 60247.6 Q 54841.2 59876.8 54721.2 59576.8 Q 54601.2 59276.8 54283.2 58982.8 Q 53965.2 58688.8 53413.2 58388.8 Q 52861.2 58088.8 51997.2 57718 Q 51133.2 57344.8 50443.2 56984.8 Q 49753.2 56624.8 49273.2 56180.8 Q 48793.2 55736.8 48535.2 55154.8 Q 48277.2 54572.8 48277.2 53767.6 Q 48277.2 52927.6 48607.2 52273.6 Q 48937.2 51619.6 49537.2 51175.6 Q 50137.2 50731.6 50977.2 50503.6 Q 51817.2 50275.6 52849.2 50275.6 Q 54012 50275.6 54978 50527.6 Q 55944 50779.6 56808 51187.6 L 56050.8 52950.4 Q 55272 52603.6 54450 52345.6 Q 53628 52087.6 52777.2 52087.6 Q 51553.2 52087.6 50965.2 52489.6 Q 50377.2 52891.6 50377.2 53635.6 Q 50377.2 54054.4 50515.2 54366.4 Q 50653.2 54678.4 50989.2 54954.4 Q 51325.2 55230.4 51889.2 55512.4 Q 52453.2 55794.4 53293.2 56141.2 Q 54157.2 56501.2 54835.2 56861.2 Q 55513.2 57221.2 55993.2 57671.2 Q 56473.2 58121.2 56725.2 58697.2 Q 56977.2 59273.2 56977.2 60076 L 56974.8 60079.6 Z M 70486.4 61927.6 L 70390.4 61927.6 Q 70126.4 62335.6 69772.4 62701.6 Q 69418.4 63067.6 68956.4 63343.6 Q 68494.4 63619.6 67918.4 63775.6 Q 67342.4 63931.6 66622.4 63931.6 Q 65507.6 63931.6 64583.6 63499.6 Q 63659.6 63067.6 62999.6 62209.6 Q 62339.6 61351.6 61979.6 60079.6 Q 61619.6 58807.6 61619.6 57127.6 Q 61619.6 55436.8 61979.6 54158.8 Q 62339.6 52880.8 62999.6 52016.8 Q 63659.6 51152.8 64583.6 50714.8 Q 65507.6 50276.8 66622.4 50276.8 Q 67331.6 50276.8 67907.6 50432.8 Q 68483.6 50588.8 68945.6 50852.8 Q 69407.6 51116.8 69767.6 51464.8 Q 70127.6 51812.8 70391.6 52196.8 L 70535.6 52196.8 Q 70500.8 51788.8 70463.6 51415.6 Q 70439.6 51103.6 70415.6 50773.6 Q 70391.6 50443.6 70391.6 50251.6 L 70391.6 45019.6 L 72575.6 45019.6 L 72575.6 63691.6 L 70812.8 63691.6 L 70487.6 61926.4 L 70486.4 61927.6 Z M 67043.6 62119.6 Q 67955.6 62119.6 68585.6 61843.6 Q 69215.6 61567.6 69605.6 61003.6 Q 69995.6 60439.6 70181.6 59593.6 Q 70367.6 58747.6 70391.6 57619.6 L 70391.6 57126.4 Q 70391.6 55915.6 70229.6 54973.6 Q 70067.6 54031.6 69677.6 53389.6 Q 69287.6 52747.6 68639.6 52417.6 Q 67991.6 52087.6 67020.8 52087.6 Q 65399.6 52087.6 64637.6 53395.6 Q 63875.6 54703.6 63875.6 57151.6 Q 63875.6 59660.8 64637.6 60890.8 Q 65399.6 62120.8 67044.8 62120.8 L 67043.6 62119.6 Z M 79948.8 63932.8 Q 78628.8 63932.8 77536.8 63488.8 Q 76444.8 63044.8 75658.8 62192.8 Q 74872.8 61340.8 74440.8 60080.8 Q 74008.8 58820.8 74008.8 57199.6 Q 74008.8 55567.6 74404.8 54283.6 Q 74800.8 52999.6 75520.8 52105.6 Q 76240.8 51211.6 77242.8 50743.6 Q 78244.8 50275.6 79458 50275.6 Q 80644.8 50275.6 81592.8 50701.6 Q 82540.8 51127.6 83200.8 51901.6 Q 83860.8 52675.6 84214.8 53761.6 Q 84568.8 54847.6 84568.8 56167.6 L 84568.8 57524.8 L 76264.8 57524.8 Q 76323.6 59839.6 77241.6 60931.6 Q 78159.6 62023.6 79970.4 62023.6 Q 80583.6 62023.6 81105.6 61963.6 Q 81627.6 61903.6 82113.6 61789.6 Q 82599.6 61675.6 83055.6 61501.6 Q 83511.6 61327.6 83978.4 61111.6 L 83978.4 63055.6 Q 83498.4 63284.8 83036.4 63452.8 Q 82574.4 63620.8 82088.4 63728.8 Q 81602.4 63836.8 81080.4 63884.8 Q 80558.4 63932.8 79945.2 63932.8 L 79948.8 63932.8 Z M 79410 52087.6 Q 78042 52087.6 77244 53023.6 Q 76446 53959.6 76315.2 55748.8 L 82219.2 55748.8 Q 82219.2 54932.8 82057.2 54254.8 Q 81895.2 53576.8 81553.2 53096.8 Q 81211.2 52616.8 80683.2 52352.8 Q 80155.2 52088.8 79411.2 52088.8 L 79410 52087.6 Z M 95038.4 63932.8 Q 93827.6 63932.8 92771.6 63554.8 Q 91715.6 63176.8 90935.6 62354.8 Q 90155.6 61532.8 89711.6 60254.8 Q 89267.6 58976.8 89267.6 57176.8 Q 89267.6 55294 89723.6 53980 Q 90179.6 52666 90977.6 51844 Q 91775.6 51022 92843.6 50650 Q 93911.6 50278 95135.6 50278 Q 96071.6 50278 96965.6 50482 Q 97859.6 50686 98459.6 50984.8 L 97811.6 52832.8 Q 97534.4 52712.8 97198.4 52598.8 Q 96862.4 52484.8 96502.4 52394.8 Q 96142.4 52304.8 95794.4 52250.8 Q 95446.4 52196.8 95134.4 52196.8 Q 93251.6 52196.8 92387.6 53402.8 Q 91523.6 54608.8 91523.6 57152.8 Q 91523.6 59686 92393.6 60856 Q 93263.6 62026 95039.6 62026 Q 96012.8 62026 96798.8 61804 Q 97584.8 61582 98232.8 61280.8 L 98232.8 63224.8 Q 97584.8 63574 96846.8 63754 Q 96108.8 63934 95039.6 63934 L 95038.4 63932.8 Z M 110058 57079.6 Q 110058 58724.8 109656 60002.8 Q 109254 61280.8 108504 62150.8 Q 107754 63020.8 106686 63476.8 Q 105618 63932.8 104284.8 63932.8 Q 103050 63932.8 102006 63476.8 Q 100962 63020.8 100200 62150.8 Q 99438 61280.8 99012 60002.8 Q 98586 58724.8 98586 57079.6 Q 98586 55447.6 98988 54181.6 Q 99390 52915.6 100134 52045.6 Q 100878 51175.6 101952 50725.6 Q 103026 50275.6 104356.8 50275.6 Q 105594 50275.6 106638 50725.6 Q 107682 51175.6 108444 52045.6 Q 109206 52915.6 109632 54181.6 Q 110058 55447.6 110058 57079.6  Z M 100842 57079.6 Q 100842 59588.8 101664 60854.8 Q 102486 62120.8 104334 62120.8 Q 106182 62120.8 106992 60854.8 Q 107802 59588.8 107802 57079.6 Q 107802 54572.8 106980 53330.8 Q 106158 52088.8 104310 52088.8 Q 102462 52088.8 101652 53330.8 Q 100842 54572.8 100842 57079.6  Z M 127232.4 63692.8 L 127232.4 55207.6 Q 127232.4 53647.6 126632.4 52867.6 Q 126032.4 52087.6 124771.2 52087.6 Q 123896.4 52087.6 123284.4 52369.6 Q 122672.4 52651.6 122282.4 53197.6 Q 121892.4 53743.6 121712.4 54553.6 Q 121532.4 55363.6 121532.4 56419.6 L 121532.4 63691.6 L 119337.6 63691.6 L 119337.6 55206.4 Q 119337.6 53646.4 118743.6 52866.4 Q 118149.6 52086.4 116890.8 52086.4 Q 115965.6 52086.4 115341.6 52398.4 Q 114717.6 52710.4 114339.6 53322.4 Q 113961.6 53934.4 113799.6 54822.4 Q 113637.6 55710.4 113637.6 56862.4 L 113637.6 63691.6 L 111453.6 63691.6 L 111453.6 50515.6 L 113229.6 50515.6 L 113541.6 52291.6 L 113661.6 52291.6 Q 113949.6 51774.4 114345.6 51396.4 Q 114741.6 51018.4 115215.6 50766.4 Q 115689.6 50514.4 116223.6 50394.4 Q 116757.6 50274.4 117309.6 50274.4 Q 118749.6 50274.4 119703.6 50802.4 Q 120657.6 51330.4 121113.6 52458.4 L 121209.6 52458.4 Q 121521.6 51893.2 121959.6 51485.2 Q 122397.6 51077.2 122919.6 50807.2 Q 123441.6 50537.2 124017.6 50405.2 Q 124593.6 50273.2 125193.6 50273.2 Q 127292.4 50273.2 128354.4 51419.2 Q 129416.4 52565.2 129416.4 55085.2 L 129416.4 63690.4 L 127232.4 63690.4 L 127232.4 63692.8 Z M 139901.2 63692.8 L 139576 61927.6 L 139456 61927.6 Q 139157.2 62444.8 138743.2 62822.8 Q 138329.2 63200.8 137837.2 63446.8 Q 137345.2 63692.8 136793.2 63812.8 Q 136241.2 63932.8 135665.2 63932.8 Q 134574.4 63932.8 133746.4 63656.8 Q 132918.4 63380.8 132366.4 62792.8 Q 131814.4 62204.8 131532.4 61292.8 Q 131250.4 60380.8 131250.4 59119.6 L 131250.4 50516.8 L 133434.4 50516.8 L 133434.4 58999.6 Q 133434.4 60559.6 134070.4 61339.6 Q 134706.4 62119.6 136039.6 62119.6 Q 137010.4 62119.6 137670.4 61807.6 Q 138330.4 61495.6 138732.4 60889.6 Q 139134.4 60283.6 139308.4 59395.6 Q 139482.4 58507.6 139482.4 57355.6 L 139482.4 50515.6 L 141666.4 50515.6 L 141666.4 63691.6 L 139903.6 63691.6 L 139901.2 63692.8 Z M 151990.4 63692.8 L 151990.4 55207.6 Q 151990.4 53647.6 151360.4 52867.6 Q 150730.4 52087.6 149386.4 52087.6 Q 148413.2 52087.6 147753.2 52399.6 Q 147093.2 52711.6 146691.2 53323.6 Q 146289.2 53935.6 146115.2 54823.6 Q 145941.2 55711.6 145941.2 56863.6 L 145941.2 63692.8 L 143757.2 63692.8 L 143757.2 50516.8 L 145533.2 50516.8 L 145845.2 52292.8 L 145965.2 52292.8 Q 146266.4 51775.6 146680.4 51397.6 Q 147094.4 51019.6 147586.4 50767.6 Q 148078.4 50515.6 148630.4 50395.6 Q 149182.4 50275.6 149758.4 50275.6 Q 151955.6 50275.6 153065.6 51421.6 Q 154175.6 52567.6 154175.6 55087.6 L 154175.6 63692.8 L 151991.6 63692.8 L 151990.4 63692.8 Z M 158332.8 63692.8 L 156148.8 63692.8 L 156148.8 50516.8 L 158332.8 50516.8 L 158332.8 63692.8 Z M 155980.8 46951.6 Q 155980.8 46231.6 156346.8 45907.6 Q 156712.8 45583.6 157251.6 45583.6 Q 157515.6 45583.6 157749.6 45661.6 Q 157983.6 45739.6 158157.6 45907.6 Q 158331.6 46075.6 158433.6 46333.6 Q 158535.6 46591.6 158535.6 46951.6 Q 158535.6 47647.6 158157.6 47989.6 Q 157779.6 48331.6 157251.6 48331.6 Q 156712.8 48331.6 156346.8 47995.6 Q 155980.8 47659.6 155980.8 46950.4 L 155980.8 46951.6 Z M 165438.4 63932.8 Q 164227.6 63932.8 163171.6 63554.8 Q 162115.6 63176.8 161335.6 62354.8 Q 160555.6 61532.8 160111.6 60254.8 Q 159667.6 58976.8 159667.6 57176.8 Q 159667.6 55294 160123.6 53980 Q 160579.6 52666 161377.6 51844 Q 162175.6 51022 163243.6 50650 Q 164311.6 50278 165535.6 50278 Q 166471.6 50278 167365.6 50482 Q 168259.6 50686 168859.6 50984.8 L 168211.6 52832.8 Q 167934.4 52712.8 167598.4 52598.8 Q 167262.4 52484.8 166902.4 52394.8 Q 166542.4 52304.8 166194.4 52250.8 Q 165846.4 52196.8 165534.4 52196.8 Q 163651.6 52196.8 162787.6 53402.8 Q 161923.6 54608.8 161923.6 57152.8 Q 161923.6 59686 162793.6 60856 Q 163663.6 62026 165439.6 62026 Q 166412.8 62026 167198.8 61804 Q 167984.8 61582 168632.8 61280.8 L 168632.8 63224.8 Q 167984.8 63574 167246.8 63754 Q 166508.8 63934 165439.6 63934 L 165438.4 63932.8 Z M 177146 63692.8 L 176700.8 61868.8 L 176604.8 61868.8 Q 176210 62407.6 175814 62797.6 Q 175418 63187.6 174950 63439.6 Q 174482 63691.6 173906 63811.6 Q 173330 63931.6 172572.8 63931.6 Q 171746 63931.6 171050 63697.6 Q 170354 63463.6 169844 62977.6 Q 169334 62491.6 169046 61753.6 Q 168758 61015.6 168758 60007.6 Q 168758 58039.6 170144 56983.6 Q 171530 55927.6 174362 55831.6 L 176570 55748.8 L 176570 54919.6 Q 176570 54116.8 176396 53576.8 Q 176222 53036.8 175892 52706.8 Q 175562 52376.8 175076 52232.8 Q 174590 52088.8 173966 52088.8 Q 172971.2 52088.8 172113.2 52376.8 Q 171255.2 52664.8 170463.2 53072.8 L 169695.2 51430 Q 170583.2 50950 171675.2 50614 Q 172767.2 50278 173967.2 50278 Q 175191.2 50278 176085.2 50524 Q 176979.2 50770 177561.2 51304 Q 178143.2 51838 178431.2 52666 Q 178719.2 53494 178719.2 54670 L 178719.2 63694 L 177148.4 63694 L 177146 63692.8 Z M 173138 62167.6 Q 173868.8 62167.6 174492.8 61939.6 Q 175116.8 61711.6 175572.8 61249.6 Q 176028.8 60787.6 176286.8 60085.6 Q 176544.8 59383.6 176544.8 58436.8 L 176544.8 57247.6 L 174827.6 57332.8 Q 173747.6 57380.8 173015.6 57572.8 Q 172283.6 57764.8 171845.6 58106.8 Q 171407.6 58448.8 171215.6 58934.8 Q 171023.6 59420.8 171023.6 60031.6 Q 171023.6 61135.6 171605.6 61651.6 Q 172187.6 62167.6 173136.8 62167.6 L 173138 62167.6 Z M 185662.4 63932.8 Q 184451.6 63932.8 183395.6 63554.8 Q 182339.6 63176.8 181559.6 62354.8 Q 180779.6 61532.8 180335.6 60254.8 Q 179891.6 58976.8 179891.6 57176.8 Q 179891.6 55294 180347.6 53980 Q 180803.6 52666 181601.6 51844 Q 182399.6 51022 183467.6 50650 Q 184535.6 50278 185759.6 50278 Q 186695.6 50278 187589.6 50482 Q 188483.6 50686 189083.6 50984.8 L 188435.6 52832.8 Q 188158.4 52712.8 187822.4 52598.8 Q 187486.4 52484.8 187126.4 52394.8 Q 186766.4 52304.8 186418.4 52250.8 Q 186070.4 52196.8 185758.4 52196.8 Q 183875.6 52196.8 183011.6 53402.8 Q 182147.6 54608.8 182147.6 57152.8 Q 182147.6 59686 183017.6 60856 Q 183887.6 62026 185663.6 62026 Q 186636.8 62026 187422.8 61804 Q 188208.8 61582 188856.8 61280.8 L 188856.8 63224.8 Q 188208.8 63574 187470.8 63754 Q 186732.8 63934 185663.6 63934 L 185662.4 63932.8 Z M 192124.8 63692.8 L 189940.8 63692.8 L 189940.8 50516.8 L 192124.8 50516.8 L 192124.8 63692.8 Z M 189772.8 46951.6 Q 189772.8 46231.6 190138.8 45907.6 Q 190504.8 45583.6 191043.6 45583.6 Q 191307.6 45583.6 191541.6 45661.6 Q 191775.6 45739.6 191949.6 45907.6 Q 192123.6 46075.6 192225.6 46333.6 Q 192327.6 46591.6 192327.6 46951.6 Q 192327.6 47647.6 191949.6 47989.6 Q 191571.6 48331.6 191043.6 48331.6 Q 190504.8 48331.6 190138.8 47995.6 Q 189772.8 47659.6 189772.8 46950.4 L 189772.8 46951.6 Z M 204931.6 57079.6 Q 204931.6 58724.8 204529.6 60002.8 Q 204127.6 61280.8 203377.6 62150.8 Q 202627.6 63020.8 201559.6 63476.8 Q 200491.6 63932.8 199158.4 63932.8 Q 197923.6 63932.8 196879.6 63476.8 Q 195835.6 63020.8 195073.6 62150.8 Q 194311.6 61280.8 193885.6 60002.8 Q 193459.6 58724.8 193459.6 57079.6 Q 193459.6 55447.6 193861.6 54181.6 Q 194263.6 52915.6 195007.6 52045.6 Q 195751.6 51175.6 196825.6 50725.6 Q 197899.6 50275.6 199230.4 50275.6 Q 200467.6 50275.6 201511.6 50725.6 Q 202555.6 51175.6 203317.6 52045.6 Q 204079.6 52915.6 204505.6 54181.6 Q 204931.6 55447.6 204931.6 57079.6  Z M 195715.6 57079.6 Q 195715.6 59588.8 196537.6 60854.8 Q 197359.6 62120.8 199207.6 62120.8 Q 201055.6 62120.8 201865.6 60854.8 Q 202675.6 59588.8 202675.6 57079.6 Q 202675.6 54572.8 201853.6 53330.8 Q 201031.6 52088.8 199183.6 52088.8 Q 197335.6 52088.8 196525.6 53330.8 Q 195715.6 54572.8 195715.6 57079.6  Z M 197843.2 48476.8 Q 198107.2 48127.6 198389.2 47671.6 Q 198671.2 47215.6 198953.2 46729.6 Q 199235.2 46243.6 199487.2 45757.6 Q 199739.2 45271.6 199931.2 44863.6 L 202558 44863.6 L 202558 45116.8 Q 202366 45439.6 201988 45925.6 Q 201610 46411.6 201148 46939.6 Q 200686 47467.6 200200 47965.6 Q 199714 48463.6 199292.8 48799.6 L 197842 48799.6 L 197842 48476.8 L 197843.2 48476.8 Z M 214556.8 63692.8 L 214556.8 55207.6 Q 214556.8 53647.6 213926.8 52867.6 Q 213296.8 52087.6 211952.8 52087.6 Q 210979.6 52087.6 210319.6 52399.6 Q 209659.6 52711.6 209257.6 53323.6 Q 208855.6 53935.6 208681.6 54823.6 Q 208507.6 55711.6 208507.6 56863.6 L 208507.6 63692.8 L 206323.6 63692.8 L 206323.6 50516.8 L 208099.6 50516.8 L 208411.6 52292.8 L 208531.6 52292.8 Q 208832.8 51775.6 209246.8 51397.6 Q 209660.8 51019.6 210152.8 50767.6 Q 210644.8 50515.6 211196.8 50395.6 Q 211748.8 50275.6 212324.8 50275.6 Q 214522 50275.6 215632 51421.6 Q 216742 52567.6 216742 55087.6 L 216742 63692.8 L 214558 63692.8 L 214556.8 63692.8 Z M 218392.4 62359.6 Q 218392.4 61903.6 218512.4 61585.6 Q 218632.4 61267.6 218836.4 61069.6 Q 219040.4 60871.6 219316.4 60781.6 Q 219592.4 60691.6 219915.2 60691.6 Q 220227.2 60691.6 220509.2 60781.6 Q 220791.2 60871.6 220995.2 61069.6 Q 221199.2 61267.6 221319.2 61585.6 Q 221439.2 61903.6 221439.2 62359.6 Q 221439.2 62804.8 221319.2 63122.8 Q 221199.2 63440.8 220995.2 63646 Q 220791.2 63851.2 220509.2 63947.2 Q 220227.2 64043.2 219915.2 64043.2 Q 219592.4 64043.2 219316.4 63947.2 Q 219040.4 63851.2 218836.4 63646 Q 218632.4 63440.8 218512.4 63122.8 Q 218392.4 62804.8 218392.4 62359.6  Z " fill-rule="nonzero" style="fill:#535353;;fill-opacity:1;"/>
</svg>