<svg version="1.1" x="0" y="0" width="100%" height="100%" viewBox="0 0 38758.4 32716.8" xmlns="http://www.w3.org/2000/svg">
  <path d="M 19244.8 16034.8 Q 19244.8 18160 18938.8 19840 Q 18632.8 21520 17954.8 22684 Q 17276.8 23848 16208.8 24460 Q 15140.8 25072 13618 25072 Q 12202 25072 11152 24460 Q 10102 23848 9412 22684 Q 8722 21520 8380 19840 Q 8038 18160 8038 16034.8 Q 8038 13912 8344 12232 Q 8650 10552 9316 9394 Q 9982 8236 11044 7624 Q 12106 7012 13618 7012 Q 15044.8 7012 16100.8 7618 Q 17156.8 8224 17852.8 9382 Q 18548.8 10540 18896.8 12220 Q 19244.8 13900 19244.8 16036 L 19244.8 16034.8 Z M 10258 16034.8 Q 10258 17834.8 10438 19178.8 Q 10618 20522.8 11014 21416.8 Q 11410 22310.8 12052 22760.8 Q 12694 23210.8 13619.2 23210.8 Q 14542 23210.8 15190 22766.8 Q 15838 22322.8 16252 21434.8 Q 16666 20546.8 16852 19196.8 Q 17038 17846.8 17038 16033.6 Q 17038 14233.6 16852 12889.6 Q 16666 11545.6 16252 10657.6 Q 15838 9769.6 15190 9325.6 Q 14542 8881.6 13619.2 8881.6 Q 12694 8881.6 12052 9325.6 Q 11410 9769.6 11014 10657.6 Q 10618 11545.6 10438 12889.6 Q 10258 14233.6 10258 16033.6 L 10258 16034.8 Z M 25894.8 14066.8 Q 27081.6 14066.8 28107.6 14396.8 Q 29133.6 14726.8 29895.6 15374.8 Q 30657.6 16022.8 31089.6 16982.8 Q 31521.6 17942.8 31521.6 19201.6 Q 31521.6 20569.6 31113.6 21661.6 Q 30705.6 22753.6 29901.6 23509.6 Q 29097.6 24265.6 27915.6 24667.6 Q 26733.6 25069.6 25197.6 25069.6 Q 24584.4 25069.6 23990.4 25009.6 Q 23396.4 24949.6 22850.4 24835.6 Q 22304.4 24721.6 21812.4 24541.6 Q 21320.4 24361.6 20925.6 24121.6 L 20925.6 22057.6 Q 21320.4 22334.8 21854.4 22550.8 Q 22388.4 22766.8 22976.4 22910.8 Q 23564.4 23054.8 24158.4 23132.8 Q 24752.4 23210.8 25256.4 23210.8 Q 26205.6 23210.8 26949.6 22988.8 Q 27693.6 22766.8 28209.6 22298.8 Q 28725.6 21830.8 29001.6 21122.8 Q 29277.6 20414.8 29277.6 19441.6 Q 29277.6 17726.8 28221.6 16820.8 Q 27165.6 15914.8 25149.6 15914.8 Q 24824.4 15914.8 24446.4 15944.8 Q 24068.4 15974.8 23690.4 16022.8 Q 23312.4 16070.8 22970.4 16124.8 Q 22628.4 16178.8 22375.2 16226.8 L 21295.2 15544 L 21956.4 7288 L 30236.4 7288 L 30236.4 9280 L 23852.4 9280 L 23383.2 14306.8 Q 23767.2 14234.8 24397.2 14150.8 Q 25027.2 14066.8 25891.2 14066.8 L 25894.8 14066.8 Z " fill-rule="nonzero" style="fill:#ffffff;;fill-opacity:1;"/>
</svg>