<svg version="1.1" x="0" y="0" width="100%" height="100%" viewBox="0 0 218521.6 29644.8" xmlns="http://www.w3.org/2000/svg">
  <path d="M 40454.8 20138.8 Q 40454.8 21304 40040.8 22222 Q 39626.8 23140 38858.8 23776 Q 38090.8 24412 36986.8 24742 Q 35882.8 25072 34504 25072 Q 33170.8 25072 32012.8 24862 Q 30854.8 24652 30073.6 24244 L 30073.6 22108 Q 30481.6 22300 31003.6 22486 Q 31525.6 22672 32101.6 22816 Q 32677.6 22960 33289.6 23050 Q 33901.6 23140 34501.6 23140 Q 36421.6 23140 37339.6 22420 Q 38257.6 21700 38257.6 20356 Q 38257.6 19708 38083.6 19228 Q 37909.6 18748 37471.6 18346 Q 37033.6 17944 36301.6 17566 Q 35569.6 17188 34454.8 16745.2 Q 33385.6 16324 32599.6 15826 Q 31813.6 15328 31303.6 14704 Q 30793.6 14080 30547.6 13288 Q 30301.6 12496 30301.6 11488 Q 30301.6 10432 30685.6 9604 Q 31069.6 8776 31765.6 8206 Q 32461.6 7636 33427.6 7336 Q 34393.6 7036 35558.8 7036 Q 36985.6 7036 38125.6 7306 Q 39265.6 7576 40153.6 7994.8 L 39350.8 9866.8 Q 38569.6 9520 37579.6 9262 Q 36589.6 9004 35533.6 9004 Q 34069.6 9004 33265.6 9682 Q 32461.6 10360 32461.6 11512 Q 32461.6 12194.8 32641.6 12692.8 Q 32821.6 13190.8 33241.6 13592.8 Q 33661.6 13994.8 34351.6 14348.8 Q 35041.6 14702.8 36049.6 15097.6 Q 37142.8 15529.6 37964.8 15985.6 Q 38786.8 16441.6 39338.8 17017.6 Q 39890.8 17593.6 40172.8 18349.6 Q 40454.8 19105.6 40454.8 20137.6 L 40454.8 20138.8 Z M 43798.4 24832 L 41614.4 24832 L 41614.4 11656 L 43798.4 11656 L 43798.4 24832 Z M 41446.4 8090.8 Q 41446.4 7370.8 41812.4 7046.8 Q 42178.4 6722.8 42717.2 6722.8 Q 42981.2 6722.8 43215.2 6800.8 Q 43449.2 6878.8 43623.2 7046.8 Q 43797.2 7214.8 43899.2 7472.8 Q 44001.2 7730.8 44001.2 8090.8 Q 44001.2 8786.8 43623.2 9128.8 Q 43245.2 9470.8 42717.2 9470.8 Q 42178.4 9470.8 41812.4 9134.8 Q 41446.4 8798.8 41446.4 8089.6 L 41446.4 8090.8 Z M 49848 23282.8 Q 50064 23282.8 50334 23258.8 Q 50604 23234.8 50856 23198.8 Q 51108 23162.8 51318 23114.8 Q 51528 23066.8 51637.2 23032 L 51637.2 24688 Q 51480 24760 51240 24832 Q 51000 24904 50712 24958 Q 50424 25012 50112 25042 Q 49800 25072 49501.2 25072 Q 48757.2 25072 48121.2 24880 Q 47485.2 24688 47023.2 24220 Q 46561.2 23752 46297.2 22954 Q 46033.2 22156 46033.2 20945.2 L 46033.2 13300 L 44174.4 13300 L 44174.4 12329.2 L 46033.2 11393.2 L 46969.2 8633.2 L 48230.4 8633.2 L 48230.4 11657.2 L 51542.4 11657.2 L 51542.4 13300 L 48230.4 13300 L 48230.4 20945.2 Q 48230.4 22108 48608.4 22696 Q 48986.4 23284 49850.4 23284 L 49848 23282.8 Z M 60643.6 24832 L 60318.4 23066.8 L 60198.4 23066.8 Q 59899.6 23584 59485.6 23962 Q 59071.6 24340 58579.6 24586 Q 58087.6 24832 57535.6 24952 Q 56983.6 25072 56407.6 25072 Q 55316.8 25072 54488.8 24796 Q 53660.8 24520 53108.8 23932 Q 52556.8 23344 52274.8 22432 Q 51992.8 21520 51992.8 20258.8 L 51992.8 11656 L 54176.8 11656 L 54176.8 20138.8 Q 54176.8 21698.8 54812.8 22478.8 Q 55448.8 23258.8 56782 23258.8 Q 57752.8 23258.8 58412.8 22946.8 Q 59072.8 22634.8 59474.8 22028.8 Q 59876.8 21422.8 60050.8 20534.8 Q 60224.8 19646.8 60224.8 18494.8 L 60224.8 11654.8 L 62408.8 11654.8 L 62408.8 24830.8 L 60646 24830.8 L 60643.6 24832 Z M 71930 24832 L 71484.8 23008 L 71388.8 23008 Q 70994 23546.8 70598 23936.8 Q 70202 24326.8 69734 24578.8 Q 69266 24830.8 68690 24950.8 Q 68114 25070.8 67356.8 25070.8 Q 66530 25070.8 65834 24836.8 Q 65138 24602.8 64628 24116.8 Q 64118 23630.8 63830 22892.8 Q 63542 22154.8 63542 21146.8 Q 63542 19178.8 64928 18122.8 Q 66314 17066.8 69146 16970.8 L 71354 16888 L 71354 16058.8 Q 71354 15256 71180 14716 Q 71006 14176 70676 13846 Q 70346 13516 69860 13372 Q 69374 13228 68750 13228 Q 67755.2 13228 66897.2 13516 Q 66039.2 13804 65247.2 14212 L 64479.2 12569.2 Q 65367.2 12089.2 66459.2 11753.2 Q 67551.2 11417.2 68751.2 11417.2 Q 69975.2 11417.2 70869.2 11663.2 Q 71763.2 11909.2 72345.2 12443.2 Q 72927.2 12977.2 73215.2 13805.2 Q 73503.2 14633.2 73503.2 15809.2 L 73503.2 24833.2 L 71932.4 24833.2 L 71930 24832 Z M 67922 23306.8 Q 68652.8 23306.8 69276.8 23078.8 Q 69900.8 22850.8 70356.8 22388.8 Q 70812.8 21926.8 71070.8 21224.8 Q 71328.8 20522.8 71328.8 19576 L 71328.8 18386.8 L 69611.6 18472 Q 68531.6 18520 67799.6 18712 Q 67067.6 18904 66629.6 19246 Q 66191.6 19588 65999.6 20074 Q 65807.6 20560 65807.6 21170.8 Q 65807.6 22274.8 66389.6 22790.8 Q 66971.6 23306.8 67920.8 23306.8 L 67922 23306.8 Z M 80446.4 25072 Q 79235.6 25072 78179.6 24694 Q 77123.6 24316 76343.6 23494 Q 75563.6 22672 75119.6 21394 Q 74675.6 20116 74675.6 18316 Q 74675.6 16433.2 75131.6 15119.2 Q 75587.6 13805.2 76385.6 12983.2 Q 77183.6 12161.2 78251.6 11789.2 Q 79319.6 11417.2 80543.6 11417.2 Q 81479.6 11417.2 82373.6 11621.2 Q 83267.6 11825.2 83867.6 12124 L 83219.6 13972 Q 82942.4 13852 82606.4 13738 Q 82270.4 13624 81910.4 13534 Q 81550.4 13444 81202.4 13390 Q 80854.4 13336 80542.4 13336 Q 78659.6 13336 77795.6 14542 Q 76931.6 15748 76931.6 18292 Q 76931.6 20825.2 77801.6 21995.2 Q 78671.6 23165.2 80447.6 23165.2 Q 81420.8 23165.2 82206.8 22943.2 Q 82992.8 22721.2 83640.8 22420 L 83640.8 24364 Q 82992.8 24713.2 82254.8 24893.2 Q 81516.8 25073.2 80447.6 25073.2 L 80446.4 25072 Z M 86908.8 24832 L 84724.8 24832 L 84724.8 11656 L 86908.8 11656 L 86908.8 24832 Z M 84556.8 8090.8 Q 84556.8 7370.8 84922.8 7046.8 Q 85288.8 6722.8 85827.6 6722.8 Q 86091.6 6722.8 86325.6 6800.8 Q 86559.6 6878.8 86733.6 7046.8 Q 86907.6 7214.8 87009.6 7472.8 Q 87111.6 7730.8 87111.6 8090.8 Q 87111.6 8786.8 86733.6 9128.8 Q 86355.6 9470.8 85827.6 9470.8 Q 85288.8 9470.8 84922.8 9134.8 Q 84556.8 8798.8 84556.8 8089.6 L 84556.8 8090.8 Z M 99715.6 18218.8 Q 99715.6 19864 99313.6 21142 Q 98911.6 22420 98161.6 23290 Q 97411.6 24160 96343.6 24616 Q 95275.6 25072 93942.4 25072 Q 92707.6 25072 91663.6 24616 Q 90619.6 24160 89857.6 23290 Q 89095.6 22420 88669.6 21142 Q 88243.6 19864 88243.6 18218.8 Q 88243.6 16586.8 88645.6 15320.8 Q 89047.6 14054.8 89791.6 13184.8 Q 90535.6 12314.8 91609.6 11864.8 Q 92683.6 11414.8 94014.4 11414.8 Q 95251.6 11414.8 96295.6 11864.8 Q 97339.6 12314.8 98101.6 13184.8 Q 98863.6 14054.8 99289.6 15320.8 Q 99715.6 16586.8 99715.6 18218.8  Z M 90499.6 18218.8 Q 90499.6 20728 91321.6 21994 Q 92143.6 23260 93991.6 23260 Q 95839.6 23260 96649.6 21994 Q 97459.6 20728 97459.6 18218.8 Q 97459.6 15712 96637.6 14470 Q 95815.6 13228 93967.6 13228 Q 92119.6 13228 91309.6 14470 Q 90499.6 15712 90499.6 18218.8  Z M 109340.8 24832 L 109340.8 16346.8 Q 109340.8 14786.8 108710.8 14006.8 Q 108080.8 13226.8 106736.8 13226.8 Q 105763.6 13226.8 105103.6 13538.8 Q 104443.6 13850.8 104041.6 14462.8 Q 103639.6 15074.8 103465.6 15962.8 Q 103291.6 16850.8 103291.6 18002.8 L 103291.6 24832 L 101107.6 24832 L 101107.6 11656 L 102883.6 11656 L 103195.6 13432 L 103315.6 13432 Q 103616.8 12914.8 104030.8 12536.8 Q 104444.8 12158.8 104936.8 11906.8 Q 105428.8 11654.8 105980.8 11534.8 Q 106532.8 11414.8 107108.8 11414.8 Q 109306 11414.8 110416 12560.8 Q 111526 13706.8 111526 16226.8 L 111526 24832 L 109342 24832 L 109340.8 24832 Z M 118707.2 25072 Q 117387.2 25072 116295.2 24628 Q 115203.2 24184 114417.2 23332 Q 113631.2 22480 113199.2 21220 Q 112767.2 19960 112767.2 18338.8 Q 112767.2 16706.8 113163.2 15422.8 Q 113559.2 14138.8 114279.2 13244.8 Q 114999.2 12350.8 116001.2 11882.8 Q 117003.2 11414.8 118216.4 11414.8 Q 119403.2 11414.8 120351.2 11840.8 Q 121299.2 12266.8 121959.2 13040.8 Q 122619.2 13814.8 122973.2 14900.8 Q 123327.2 15986.8 123327.2 17306.8 L 123327.2 18664 L 115023.2 18664 Q 115082 20978.8 116000 22070.8 Q 116918 23162.8 118728.8 23162.8 Q 119342 23162.8 119864 23102.8 Q 120386 23042.8 120872 22928.8 Q 121358 22814.8 121814 22640.8 Q 122270 22466.8 122736.8 22250.8 L 122736.8 24194.8 Q 122256.8 24424 121794.8 24592 Q 121332.8 24760 120846.8 24868 Q 120360.8 24976 119838.8 25024 Q 119316.8 25072 118703.6 25072 L 118707.2 25072 Z M 118168.4 13226.8 Q 116800.4 13226.8 116002.4 14162.8 Q 115204.4 15098.8 115073.6 16888 L 120977.6 16888 Q 120977.6 16072 120815.6 15394 Q 120653.6 14716 120311.6 14236 Q 119969.6 13756 119441.6 13492 Q 118913.6 13228 118169.6 13228 L 118168.4 13226.8 Z M 132392.4 21218.8 Q 132392.4 22178.8 132044.4 22898.8 Q 131696.4 23618.8 131042.4 24104.8 Q 130388.4 24590.8 129464.4 24830.8 Q 128540.4 25070.8 127388.4 25070.8 Q 126081.6 25070.8 125145.6 24860.8 Q 124209.6 24650.8 123500.4 24242.8 L 123500.4 22250.8 Q 123873.6 22442.8 124329.6 22628.8 Q 124785.6 22814.8 125289.6 22958.8 Q 125793.6 23102.8 126327.6 23192.8 Q 126861.6 23282.8 127389.6 23282.8 Q 128170.8 23282.8 128716.8 23150.8 Q 129262.8 23018.8 129604.8 22772.8 Q 129946.8 22526.8 130102.8 22172.8 Q 130258.8 21818.8 130258.8 21386.8 Q 130258.8 21016 130138.8 20716 Q 130018.8 20416 129700.8 20122 Q 129382.8 19828 128830.8 19528 Q 128278.8 19228 127414.8 18857.2 Q 126550.8 18484 125860.8 18124 Q 125170.8 17764 124690.8 17320 Q 124210.8 16876 123952.8 16294 Q 123694.8 15712 123694.8 14906.8 Q 123694.8 14066.8 124024.8 13412.8 Q 124354.8 12758.8 124954.8 12314.8 Q 125554.8 11870.8 126394.8 11642.8 Q 127234.8 11414.8 128266.8 11414.8 Q 129429.6 11414.8 130395.6 11666.8 Q 131361.6 11918.8 132225.6 12326.8 L 131468.4 14089.6 Q 130689.6 13742.8 129867.6 13484.8 Q 129045.6 13226.8 128194.8 13226.8 Q 126970.8 13226.8 126382.8 13628.8 Q 125794.8 14030.8 125794.8 14774.8 Q 125794.8 15193.6 125932.8 15505.6 Q 126070.8 15817.6 126406.8 16093.6 Q 126742.8 16369.6 127306.8 16651.6 Q 127870.8 16933.6 128710.8 17280.4 Q 129574.8 17640.4 130252.8 18000.4 Q 130930.8 18360.4 131410.8 18810.4 Q 131890.8 19260.4 132142.8 19836.4 Q 132394.8 20412.4 132394.8 21215.2 L 132392.4 21218.8 Z M 143469.2 11416 Q 143816 11416 144248 11446 Q 144680 11476 144992 11537.2 L 144704 13553.2 Q 144368 13492 144014 13450 Q 143660 13408 143348 13408 Q 142590.8 13408 141966.8 13714 Q 141342.8 14020 140892.8 14590 Q 140442.8 15160 140196.8 15958 Q 139950.8 16756 139950.8 17729.2 L 139950.8 24833.2 L 137766.8 24833.2 L 137766.8 11657.2 L 139542.8 11657.2 L 139806.8 14068 L 139902.8 14068 Q 140204 13553.2 140546 13073.2 Q 140888 12593.2 141314 12227.2 Q 141740 11861.2 142268 11639.2 Q 142796 11417.2 143468 11417.2 L 143469.2 11416 Z M 150758.4 25072 Q 149438.4 25072 148346.4 24628 Q 147254.4 24184 146468.4 23332 Q 145682.4 22480 145250.4 21220 Q 144818.4 19960 144818.4 18338.8 Q 144818.4 16706.8 145214.4 15422.8 Q 145610.4 14138.8 146330.4 13244.8 Q 147050.4 12350.8 148052.4 11882.8 Q 149054.4 11414.8 150267.6 11414.8 Q 151454.4 11414.8 152402.4 11840.8 Q 153350.4 12266.8 154010.4 13040.8 Q 154670.4 13814.8 155024.4 14900.8 Q 155378.4 15986.8 155378.4 17306.8 L 155378.4 18664 L 147074.4 18664 Q 147133.2 20978.8 148051.2 22070.8 Q 148969.2 23162.8 150780 23162.8 Q 151393.2 23162.8 151915.2 23102.8 Q 152437.2 23042.8 152923.2 22928.8 Q 153409.2 22814.8 153865.2 22640.8 Q 154321.2 22466.8 154788 22250.8 L 154788 24194.8 Q 154308 24424 153846 24592 Q 153384 24760 152898 24868 Q 152412 24976 151890 25024 Q 151368 25072 150754.8 25072 L 150758.4 25072 Z M 150219.6 13226.8 Q 148851.6 13226.8 148053.6 14162.8 Q 147255.6 15098.8 147124.8 16888 L 153028.8 16888 Q 153028.8 16072 152866.8 15394 Q 152704.8 14716 152362.8 14236 Q 152020.8 13756 151492.8 13492 Q 150964.8 13228 150220.8 13228 L 150219.6 13226.8 Z M 163987.6 24832 L 163542.4 23008 L 163446.4 23008 Q 163051.6 23546.8 162655.6 23936.8 Q 162259.6 24326.8 161791.6 24578.8 Q 161323.6 24830.8 160747.6 24950.8 Q 160171.6 25070.8 159414.4 25070.8 Q 158587.6 25070.8 157891.6 24836.8 Q 157195.6 24602.8 156685.6 24116.8 Q 156175.6 23630.8 155887.6 22892.8 Q 155599.6 22154.8 155599.6 21146.8 Q 155599.6 19178.8 156985.6 18122.8 Q 158371.6 17066.8 161203.6 16970.8 L 163411.6 16888 L 163411.6 16058.8 Q 163411.6 15256 163237.6 14716 Q 163063.6 14176 162733.6 13846 Q 162403.6 13516 161917.6 13372 Q 161431.6 13228 160807.6 13228 Q 159812.8 13228 158954.8 13516 Q 158096.8 13804 157304.8 14212 L 156536.8 12569.2 Q 157424.8 12089.2 158516.8 11753.2 Q 159608.8 11417.2 160808.8 11417.2 Q 162032.8 11417.2 162926.8 11663.2 Q 163820.8 11909.2 164402.8 12443.2 Q 164984.8 12977.2 165272.8 13805.2 Q 165560.8 14633.2 165560.8 15809.2 L 165560.8 24833.2 L 163990 24833.2 L 163987.6 24832 Z M 159979.6 23306.8 Q 160710.4 23306.8 161334.4 23078.8 Q 161958.4 22850.8 162414.4 22388.8 Q 162870.4 21926.8 163128.4 21224.8 Q 163386.4 20522.8 163386.4 19576 L 163386.4 18386.8 L 161669.2 18472 Q 160589.2 18520 159857.2 18712 Q 159125.2 18904 158687.2 19246 Q 158249.2 19588 158057.2 20074 Q 157865.2 20560 157865.2 21170.8 Q 157865.2 22274.8 158447.2 22790.8 Q 159029.2 23306.8 159978.4 23306.8 L 159979.6 23306.8 Z M 169648 24832 L 167464 24832 L 167464 6160 L 169648 6160 L 169648 24832 Z M 176921.6 25072 Q 175601.6 25072 174509.6 24628 Q 173417.6 24184 172631.6 23332 Q 171845.6 22480 171413.6 21220 Q 170981.6 19960 170981.6 18338.8 Q 170981.6 16706.8 171377.6 15422.8 Q 171773.6 14138.8 172493.6 13244.8 Q 173213.6 12350.8 174215.6 11882.8 Q 175217.6 11414.8 176430.8 11414.8 Q 177617.6 11414.8 178565.6 11840.8 Q 179513.6 12266.8 180173.6 13040.8 Q 180833.6 13814.8 181187.6 14900.8 Q 181541.6 15986.8 181541.6 17306.8 L 181541.6 18664 L 173237.6 18664 Q 173296.4 20978.8 174214.4 22070.8 Q 175132.4 23162.8 176943.2 23162.8 Q 177556.4 23162.8 178078.4 23102.8 Q 178600.4 23042.8 179086.4 22928.8 Q 179572.4 22814.8 180028.4 22640.8 Q 180484.4 22466.8 180951.2 22250.8 L 180951.2 24194.8 Q 180471.2 24424 180009.2 24592 Q 179547.2 24760 179061.2 24868 Q 178575.2 24976 178053.2 25024 Q 177531.2 25072 176918 25072 L 176921.6 25072 Z M 176382.8 13226.8 Q 175014.8 13226.8 174216.8 14162.8 Q 173418.8 15098.8 173288 16888 L 179192 16888 Q 179192 16072 179030 15394 Q 178868 14716 178526 14236 Q 178184 13756 177656 13492 Q 177128 13228 176384 13228 L 176382.8 13226.8 Z M 190606.8 21218.8 Q 190606.8 22178.8 190258.8 22898.8 Q 189910.8 23618.8 189256.8 24104.8 Q 188602.8 24590.8 187678.8 24830.8 Q 186754.8 25070.8 185602.8 25070.8 Q 184296 25070.8 183360 24860.8 Q 182424 24650.8 181714.8 24242.8 L 181714.8 22250.8 Q 182088 22442.8 182544 22628.8 Q 183000 22814.8 183504 22958.8 Q 184008 23102.8 184542 23192.8 Q 185076 23282.8 185604 23282.8 Q 186385.2 23282.8 186931.2 23150.8 Q 187477.2 23018.8 187819.2 22772.8 Q 188161.2 22526.8 188317.2 22172.8 Q 188473.2 21818.8 188473.2 21386.8 Q 188473.2 21016 188353.2 20716 Q 188233.2 20416 187915.2 20122 Q 187597.2 19828 187045.2 19528 Q 186493.2 19228 185629.2 18857.2 Q 184765.2 18484 184075.2 18124 Q 183385.2 17764 182905.2 17320 Q 182425.2 16876 182167.2 16294 Q 181909.2 15712 181909.2 14906.8 Q 181909.2 14066.8 182239.2 13412.8 Q 182569.2 12758.8 183169.2 12314.8 Q 183769.2 11870.8 184609.2 11642.8 Q 185449.2 11414.8 186481.2 11414.8 Q 187644 11414.8 188610 11666.8 Q 189576 11918.8 190440 12326.8 L 189682.8 14089.6 Q 188904 13742.8 188082 13484.8 Q 187260 13226.8 186409.2 13226.8 Q 185185.2 13226.8 184597.2 13628.8 Q 184009.2 14030.8 184009.2 14774.8 Q 184009.2 15193.6 184147.2 15505.6 Q 184285.2 15817.6 184621.2 16093.6 Q 184957.2 16369.6 185521.2 16651.6 Q 186085.2 16933.6 186925.2 17280.4 Q 187789.2 17640.4 188467.2 18000.4 Q 189145.2 18360.4 189625.2 18810.4 Q 190105.2 19260.4 190357.2 19836.4 Q 190609.2 20412.4 190609.2 21215.2 L 190606.8 21218.8 Z " fill-rule="nonzero" style="fill:#f2f2f2;;fill-opacity:1;"/>
</svg>