<svg version="1.1" x="0" y="0" width="100%" height="100%" viewBox="0 0 254003.2 92006.4" xmlns="http://www.w3.org/2000/svg">
  <path d="M 12318.4 23282.8 Q 12534.4 23282.8 12804.4 23258.8 Q 13074.4 23234.8 13326.4 23198.8 Q 13578.4 23162.8 13788.4 23114.8 Q 13998.4 23066.8 14107.6 23032 L 14107.6 24688 Q 13950.4 24760 13710.4 24832 Q 13470.4 24904 13182.4 24958 Q 12894.4 25012 12582.4 25042 Q 12270.4 25072 11971.6 25072 Q 11227.6 25072 10591.6 24880 Q 9955.6 24688 9493.6 24220 Q 9031.6 23752 8767.6 22954 Q 8503.6 22156 8503.6 20945.2 L 8503.6 13300 L 6644.8 13300 L 6644.8 12329.2 L 8503.6 11393.2 L 9439.6 8633.2 L 10700.8 8633.2 L 10700.8 11657.2 L 14012.8 11657.2 L 14012.8 13300 L 10700.8 13300 L 10700.8 20945.2 Q 10700.8 22108 11078.8 22696 Q 11456.8 23284 12320.8 23284 L 12318.4 23282.8 Z M 23114 24832 L 22788.8 23066.8 L 22668.8 23066.8 Q 22370 23584 21956 23962 Q 21542 24340 21050 24586 Q 20558 24832 20006 24952 Q 19454 25072 18878 25072 Q 17787.2 25072 16959.2 24796 Q 16131.2 24520 15579.2 23932 Q 15027.2 23344 14745.2 22432 Q 14463.2 21520 14463.2 20258.8 L 14463.2 11656 L 16647.2 11656 L 16647.2 20138.8 Q 16647.2 21698.8 17283.2 22478.8 Q 17919.2 23258.8 19252.4 23258.8 Q 20223.2 23258.8 20883.2 22946.8 Q 21543.2 22634.8 21945.2 22028.8 Q 22347.2 21422.8 22521.2 20534.8 Q 22695.2 19646.8 22695.2 18494.8 L 22695.2 11654.8 L 24879.2 11654.8 L 24879.2 24830.8 L 23116.4 24830.8 L 23114 24832 Z M 34856.4 21218.8 Q 34856.4 22178.8 34508.4 22898.8 Q 34160.4 23618.8 33506.4 24104.8 Q 32852.4 24590.8 31928.4 24830.8 Q 31004.4 25070.8 29852.4 25070.8 Q 28545.6 25070.8 27609.6 24860.8 Q 26673.6 24650.8 25964.4 24242.8 L 25964.4 22250.8 Q 26337.6 22442.8 26793.6 22628.8 Q 27249.6 22814.8 27753.6 22958.8 Q 28257.6 23102.8 28791.6 23192.8 Q 29325.6 23282.8 29853.6 23282.8 Q 30634.8 23282.8 31180.8 23150.8 Q 31726.8 23018.8 32068.8 22772.8 Q 32410.8 22526.8 32566.8 22172.8 Q 32722.8 21818.8 32722.8 21386.8 Q 32722.8 21016 32602.8 20716 Q 32482.8 20416 32164.8 20122 Q 31846.8 19828 31294.8 19528 Q 30742.8 19228 29878.8 18857.2 Q 29014.8 18484 28324.8 18124 Q 27634.8 17764 27154.8 17320 Q 26674.8 16876 26416.8 16294 Q 26158.8 15712 26158.8 14906.8 Q 26158.8 14066.8 26488.8 13412.8 Q 26818.8 12758.8 27418.8 12314.8 Q 28018.8 11870.8 28858.8 11642.8 Q 29698.8 11414.8 30730.8 11414.8 Q 31893.6 11414.8 32859.6 11666.8 Q 33825.6 11918.8 34689.6 12326.8 L 33932.4 14089.6 Q 33153.6 13742.8 32331.6 13484.8 Q 31509.6 13226.8 30658.8 13226.8 Q 29434.8 13226.8 28846.8 13628.8 Q 28258.8 14030.8 28258.8 14774.8 Q 28258.8 15193.6 28396.8 15505.6 Q 28534.8 15817.6 28870.8 16093.6 Q 29206.8 16369.6 29770.8 16651.6 Q 30334.8 16933.6 31174.8 17280.4 Q 32038.8 17640.4 32716.8 18000.4 Q 33394.8 18360.4 33874.8 18810.4 Q 34354.8 19260.4 34606.8 19836.4 Q 34858.8 20412.4 34858.8 21215.2 L 34856.4 21218.8 Z M 45957.2 13298.8 L 43016 13298.8 L 43016 24832 L 40821.2 24832 L 40821.2 13298.8 L 38493.2 13298.8 L 38493.2 12400 L 40821.2 11584 L 40821.2 10432 Q 40821.2 9146.8 41091.2 8300.8 Q 41361.2 7454.8 41871.2 6950.8 Q 42381.2 6446.8 43125.2 6236.8 Q 43869.2 6026.8 44805.2 6026.8 Q 45512 6026.8 46106 6164.8 Q 46700 6302.8 47166.8 6470.8 L 46604 8161.6 Q 46230.8 8030.8 45792.8 7928.8 Q 45354.8 7826.8 44874.8 7826.8 Q 44394.8 7826.8 44046.8 7940.8 Q 43698.8 8054.8 43470.8 8342.8 Q 43242.8 8630.8 43128.8 9128.8 Q 43014.8 9626.8 43014.8 10408 L 43014.8 11656 L 45956 11656 L 45956 13298.8 L 45957.2 13298.8 Z M 56963.6 18218.8 Q 56963.6 19864 56561.6 21142 Q 56159.6 22420 55409.6 23290 Q 54659.6 24160 53591.6 24616 Q 52523.6 25072 51190.4 25072 Q 49955.6 25072 48911.6 24616 Q 47867.6 24160 47105.6 23290 Q 46343.6 22420 45917.6 21142 Q 45491.6 19864 45491.6 18218.8 Q 45491.6 16586.8 45893.6 15320.8 Q 46295.6 14054.8 47039.6 13184.8 Q 47783.6 12314.8 48857.6 11864.8 Q 49931.6 11414.8 51262.4 11414.8 Q 52499.6 11414.8 53543.6 11864.8 Q 54587.6 12314.8 55349.6 13184.8 Q 56111.6 14054.8 56537.6 15320.8 Q 56963.6 16586.8 56963.6 18218.8  Z M 47747.6 18218.8 Q 47747.6 20728 48569.6 21994 Q 49391.6 23260 51239.6 23260 Q 53087.6 23260 53897.6 21994 Q 54707.6 20728 54707.6 18218.8 Q 54707.6 15712 53885.6 14470 Q 53063.6 13228 51215.6 13228 Q 49367.6 13228 48557.6 14470 Q 47747.6 15712 47747.6 18218.8  Z M 64058 11416 Q 64404.8 11416 64836.8 11446 Q 65268.8 11476 65580.8 11537.2 L 65292.8 13553.2 Q 64956.8 13492 64602.8 13450 Q 64248.8 13408 63936.8 13408 Q 63179.6 13408 62555.6 13714 Q 61931.6 14020 61481.6 14590 Q 61031.6 15160 60785.6 15958 Q 60539.6 16756 60539.6 17729.2 L 60539.6 24833.2 L 58355.6 24833.2 L 58355.6 11657.2 L 60131.6 11657.2 L 60395.6 14068 L 60491.6 14068 Q 60792.8 13553.2 61134.8 13073.2 Q 61476.8 12593.2 61902.8 12227.2 Q 62328.8 11861.2 62856.8 11639.2 Q 63384.8 11417.2 64056.8 11417.2 L 64058 11416 Z M 70123.2 23282.8 Q 70339.2 23282.8 70609.2 23258.8 Q 70879.2 23234.8 71131.2 23198.8 Q 71383.2 23162.8 71593.2 23114.8 Q 71803.2 23066.8 71912.4 23032 L 71912.4 24688 Q 71755.2 24760 71515.2 24832 Q 71275.2 24904 70987.2 24958 Q 70699.2 25012 70387.2 25042 Q 70075.2 25072 69776.4 25072 Q 69032.4 25072 68396.4 24880 Q 67760.4 24688 67298.4 24220 Q 66836.4 23752 66572.4 22954 Q 66308.4 22156 66308.4 20945.2 L 66308.4 13300 L 64449.6 13300 L 64449.6 12329.2 L 66308.4 11393.2 L 67244.4 8633.2 L 68505.6 8633.2 L 68505.6 11657.2 L 71817.6 11657.2 L 71817.6 13300 L 68505.6 13300 L 68505.6 20945.2 Q 68505.6 22108 68883.6 22696 Q 69261.6 23284 70125.6 23284 L 70123.2 23282.8 Z M 79814.8 24832 L 79369.6 23008 L 79273.6 23008 Q 78878.8 23546.8 78482.8 23936.8 Q 78086.8 24326.8 77618.8 24578.8 Q 77150.8 24830.8 76574.8 24950.8 Q 75998.8 25070.8 75241.6 25070.8 Q 74414.8 25070.8 73718.8 24836.8 Q 73022.8 24602.8 72512.8 24116.8 Q 72002.8 23630.8 71714.8 22892.8 Q 71426.8 22154.8 71426.8 21146.8 Q 71426.8 19178.8 72812.8 18122.8 Q 74198.8 17066.8 77030.8 16970.8 L 79238.8 16888 L 79238.8 16058.8 Q 79238.8 15256 79064.8 14716 Q 78890.8 14176 78560.8 13846 Q 78230.8 13516 77744.8 13372 Q 77258.8 13228 76634.8 13228 Q 75640 13228 74782 13516 Q 73924 13804 73132 14212 L 72364 12569.2 Q 73252 12089.2 74344 11753.2 Q 75436 11417.2 76636 11417.2 Q 77860 11417.2 78754 11663.2 Q 79648 11909.2 80230 12443.2 Q 80812 12977.2 81100 13805.2 Q 81388 14633.2 81388 15809.2 L 81388 24833.2 L 79817.2 24833.2 L 79814.8 24832 Z M 75806.8 23306.8 Q 76537.6 23306.8 77161.6 23078.8 Q 77785.6 22850.8 78241.6 22388.8 Q 78697.6 21926.8 78955.6 21224.8 Q 79213.6 20522.8 79213.6 19576 L 79213.6 18386.8 L 77496.4 18472 Q 76416.4 18520 75684.4 18712 Q 74952.4 18904 74514.4 19246 Q 74076.4 19588 73884.4 20074 Q 73692.4 20560 73692.4 21170.8 Q 73692.4 22274.8 74274.4 22790.8 Q 74856.4 23306.8 75805.6 23306.8 L 75806.8 23306.8 Z M 85475.2 24832 L 83291.2 24832 L 83291.2 6160 L 85475.2 6160 L 85475.2 24832 Z M 92748.8 25072 Q 91428.8 25072 90336.8 24628 Q 89244.8 24184 88458.8 23332 Q 87672.8 22480 87240.8 21220 Q 86808.8 19960 86808.8 18338.8 Q 86808.8 16706.8 87204.8 15422.8 Q 87600.8 14138.8 88320.8 13244.8 Q 89040.8 12350.8 90042.8 11882.8 Q 91044.8 11414.8 92258 11414.8 Q 93444.8 11414.8 94392.8 11840.8 Q 95340.8 12266.8 96000.8 13040.8 Q 96660.8 13814.8 97014.8 14900.8 Q 97368.8 15986.8 97368.8 17306.8 L 97368.8 18664 L 89064.8 18664 Q 89123.6 20978.8 90041.6 22070.8 Q 90959.6 23162.8 92770.4 23162.8 Q 93383.6 23162.8 93905.6 23102.8 Q 94427.6 23042.8 94913.6 22928.8 Q 95399.6 22814.8 95855.6 22640.8 Q 96311.6 22466.8 96778.4 22250.8 L 96778.4 24194.8 Q 96298.4 24424 95836.4 24592 Q 95374.4 24760 94888.4 24868 Q 94402.4 24976 93880.4 25024 Q 93358.4 25072 92745.2 25072 L 92748.8 25072 Z M 92210 13226.8 Q 90842 13226.8 90044 14162.8 Q 89246 15098.8 89115.2 16888 L 95019.2 16888 Q 95019.2 16072 94857.2 15394 Q 94695.2 14716 94353.2 14236 Q 94011.2 13756 93483.2 13492 Q 92955.2 13228 92211.2 13228 L 92210 13226.8 Z M 106314 24832 L 97444.8 24832 L 97444.8 23330.8 L 103876.8 13298.8 L 97842 13298.8 L 97842 11656 L 106098 11656 L 106098 13408 L 99810 23186.8 L 106314 23186.8 L 106314 24832 Z M 114733.2 24832 L 114288 23008 L 114192 23008 Q 113797.2 23546.8 113401.2 23936.8 Q 113005.2 24326.8 112537.2 24578.8 Q 112069.2 24830.8 111493.2 24950.8 Q 110917.2 25070.8 110160 25070.8 Q 109333.2 25070.8 108637.2 24836.8 Q 107941.2 24602.8 107431.2 24116.8 Q 106921.2 23630.8 106633.2 22892.8 Q 106345.2 22154.8 106345.2 21146.8 Q 106345.2 19178.8 107731.2 18122.8 Q 109117.2 17066.8 111949.2 16970.8 L 114157.2 16888 L 114157.2 16058.8 Q 114157.2 15256 113983.2 14716 Q 113809.2 14176 113479.2 13846 Q 113149.2 13516 112663.2 13372 Q 112177.2 13228 111553.2 13228 Q 110558.4 13228 109700.4 13516 Q 108842.4 13804 108050.4 14212 L 107282.4 12569.2 Q 108170.4 12089.2 109262.4 11753.2 Q 110354.4 11417.2 111554.4 11417.2 Q 112778.4 11417.2 113672.4 11663.2 Q 114566.4 11909.2 115148.4 12443.2 Q 115730.4 12977.2 116018.4 13805.2 Q 116306.4 14633.2 116306.4 15809.2 L 116306.4 24833.2 L 114735.6 24833.2 L 114733.2 24832 Z M 110725.2 23306.8 Q 111456 23306.8 112080 23078.8 Q 112704 22850.8 113160 22388.8 Q 113616 21926.8 113874 21224.8 Q 114132 20522.8 114132 19576 L 114132 18386.8 L 112414.8 18472 Q 111334.8 18520 110602.8 18712 Q 109870.8 18904 109432.8 19246 Q 108994.8 19588 108802.8 20074 Q 108610.8 20560 108610.8 21170.8 Q 108610.8 22274.8 109192.8 22790.8 Q 109774.8 23306.8 110724 23306.8 L 110725.2 23306.8 Z M 126094.8 21218.8 Q 126094.8 22178.8 125746.8 22898.8 Q 125398.8 23618.8 124744.8 24104.8 Q 124090.8 24590.8 123166.8 24830.8 Q 122242.8 25070.8 121090.8 25070.8 Q 119784 25070.8 118848 24860.8 Q 117912 24650.8 117202.8 24242.8 L 117202.8 22250.8 Q 117576 22442.8 118032 22628.8 Q 118488 22814.8 118992 22958.8 Q 119496 23102.8 120030 23192.8 Q 120564 23282.8 121092 23282.8 Q 121873.2 23282.8 122419.2 23150.8 Q 122965.2 23018.8 123307.2 22772.8 Q 123649.2 22526.8 123805.2 22172.8 Q 123961.2 21818.8 123961.2 21386.8 Q 123961.2 21016 123841.2 20716 Q 123721.2 20416 123403.2 20122 Q 123085.2 19828 122533.2 19528 Q 121981.2 19228 121117.2 18857.2 Q 120253.2 18484 119563.2 18124 Q 118873.2 17764 118393.2 17320 Q 117913.2 16876 117655.2 16294 Q 117397.2 15712 117397.2 14906.8 Q 117397.2 14066.8 117727.2 13412.8 Q 118057.2 12758.8 118657.2 12314.8 Q 119257.2 11870.8 120097.2 11642.8 Q 120937.2 11414.8 121969.2 11414.8 Q 123132 11414.8 124098 11666.8 Q 125064 11918.8 125928 12326.8 L 125170.8 14089.6 Q 124392 13742.8 123570 13484.8 Q 122748 13226.8 121897.2 13226.8 Q 120673.2 13226.8 120085.2 13628.8 Q 119497.2 14030.8 119497.2 14774.8 Q 119497.2 15193.6 119635.2 15505.6 Q 119773.2 15817.6 120109.2 16093.6 Q 120445.2 16369.6 121009.2 16651.6 Q 121573.2 16933.6 122413.2 17280.4 Q 123277.2 17640.4 123955.2 18000.4 Q 124633.2 18360.4 125113.2 18810.4 Q 125593.2 19260.4 125845.2 19836.4 Q 126097.2 20412.4 126097.2 21215.2 L 126094.8 21218.8 Z M 129502.4 11656 L 131771.6 11656 L 134350.4 19010.8 Q 134518.4 19490.8 134692.4 20018.8 Q 134866.4 20546.8 135016.4 21074.8 Q 135166.4 21602.8 135274.4 22094.8 Q 135382.4 22586.8 135430.4 23008 L 135502.4 23008 Q 135563.6 22706.8 135695.6 22190.8 Q 135827.6 21674.8 135989.6 21092.8 Q 136151.6 20510.8 136325.6 19946.8 Q 136499.6 19382.8 136630.4 18985.6 L 139019.6 11654.8 L 141275.6 11654.8 L 136067.6 26548 Q 135731.6 27518.8 135341.6 28292.8 Q 134951.6 29066.8 134435.6 29606.8 Q 133919.6 30146.8 133223.6 30440.8 Q 132527.6 30734.8 131567.6 30734.8 Q 130943.6 30734.8 130487.6 30668.8 Q 130031.6 30602.8 129708.8 30530.8 L 129708.8 28789.6 Q 129959.6 28850.8 130343.6 28892.8 Q 130727.6 28934.8 131148.8 28934.8 Q 131724.8 28934.8 132144.8 28796.8 Q 132564.8 28658.8 132876.8 28394.8 Q 133188.8 28130.8 133410.8 27746.8 Q 133632.8 27362.8 133814 26869.6 L 134496.8 24949.6 L 129504.8 11653.6 L 129502.4 11656 Z M 153788.8 23066.8 L 153692.8 23066.8 Q 153428.8 23474.8 153074.8 23840.8 Q 152720.8 24206.8 152258.8 24482.8 Q 151796.8 24758.8 151220.8 24914.8 Q 150644.8 25070.8 149924.8 25070.8 Q 148810 25070.8 147886 24638.8 Q 146962 24206.8 146302 23348.8 Q 145642 22490.8 145282 21218.8 Q 144922 19946.8 144922 18266.8 Q 144922 16576 145282 15298 Q 145642 14020 146302 13156 Q 146962 12292 147886 11854 Q 148810 11416 149924.8 11416 Q 150634 11416 151210 11572 Q 151786 11728 152248 11992 Q 152710 12256 153070 12604 Q 153430 12952 153694 13336 L 153838 13336 Q 153803.2 12928 153766 12554.8 Q 153742 12242.8 153718 11912.8 Q 153694 11582.8 153694 11390.8 L 153694 6158.8 L 155878 6158.8 L 155878 24830.8 L 154115.2 24830.8 L 153790 23065.6 L 153788.8 23066.8 Z M 150346 23258.8 Q 151258 23258.8 151888 22982.8 Q 152518 22706.8 152908 22142.8 Q 153298 21578.8 153484 20732.8 Q 153670 19886.8 153694 18758.8 L 153694 18265.6 Q 153694 17054.8 153532 16112.8 Q 153370 15170.8 152980 14528.8 Q 152590 13886.8 151942 13556.8 Q 151294 13226.8 150323.2 13226.8 Q 148702 13226.8 147940 14534.8 Q 147178 15842.8 147178 18290.8 Q 147178 20800 147940 22030 Q 148702 23260 150347.2 23260 L 150346 23258.8 Z M 163251.2 25072 Q 161931.2 25072 160839.2 24628 Q 159747.2 24184 158961.2 23332 Q 158175.2 22480 157743.2 21220 Q 157311.2 19960 157311.2 18338.8 Q 157311.2 16706.8 157707.2 15422.8 Q 158103.2 14138.8 158823.2 13244.8 Q 159543.2 12350.8 160545.2 11882.8 Q 161547.2 11414.8 162760.4 11414.8 Q 163947.2 11414.8 164895.2 11840.8 Q 165843.2 12266.8 166503.2 13040.8 Q 167163.2 13814.8 167517.2 14900.8 Q 167871.2 15986.8 167871.2 17306.8 L 167871.2 18664 L 159567.2 18664 Q 159626 20978.8 160544 22070.8 Q 161462 23162.8 163272.8 23162.8 Q 163886 23162.8 164408 23102.8 Q 164930 23042.8 165416 22928.8 Q 165902 22814.8 166358 22640.8 Q 166814 22466.8 167280.8 22250.8 L 167280.8 24194.8 Q 166800.8 24424 166338.8 24592 Q 165876.8 24760 165390.8 24868 Q 164904.8 24976 164382.8 25024 Q 163860.8 25072 163247.6 25072 L 163251.2 25072 Z M 162712.4 13226.8 Q 161344.4 13226.8 160546.4 14162.8 Q 159748.4 15098.8 159617.6 16888 L 165521.6 16888 Q 165521.6 16072 165359.6 15394 Q 165197.6 14716 164855.6 14236 Q 164513.6 13756 163985.6 13492 Q 163457.6 13228 162713.6 13228 L 162712.4 13226.8 Z M 175003.2 11416 Q 176131.2 11416 177055.2 11848 Q 177979.2 12280 178633.2 13138 Q 179287.2 13996 179647.2 15268 Q 180007.2 16540 180007.2 18220 Q 180007.2 19913.2 179647.2 21191.2 Q 179287.2 22469.2 178633.2 23333.2 Q 177979.2 24197.2 177055.2 24635.2 Q 176131.2 25073.2 175003.2 25073.2 Q 174296.4 25073.2 173720.4 24917.2 Q 173144.4 24761.2 172682.4 24503.2 Q 172220.4 24245.2 171866.4 23897.2 Q 171512.4 23549.2 171235.2 23165.2 L 171091.2 23165.2 L 170648.4 24834.4 L 169051.2 24834.4 L 169051.2 6162.4 L 171235.2 6162.4 L 171235.2 10674.4 Q 171235.2 11093.2 171223.2 11567.2 Q 171211.2 12041.2 171187.2 12449.2 Q 171163.2 12929.2 171139.2 13385.2 L 171235.2 13385.2 Q 171512.4 12964 171860.4 12604 Q 172208.4 12244 172670.4 11980 Q 173132.4 11716 173708.4 11566 Q 174284.4 11416 175004.4 11416 L 175003.2 11416 Z M 174584.4 13226.8 Q 173624.4 13226.8 172982.4 13532.8 Q 172340.4 13838.8 171950.4 14462.8 Q 171560.4 15086.8 171398.4 16022.8 Q 171236.4 16958.8 171236.4 18217.6 Q 171236.4 19430.8 171398.4 20372.8 Q 171560.4 21314.8 171950.4 21956.8 Q 172340.4 22598.8 172988.4 22928.8 Q 173636.4 23258.8 174609.6 23258.8 Q 176228.4 23258.8 176990.4 21950.8 Q 177752.4 20642.8 177752.4 18194.8 Q 177752.4 15698.8 176990.4 14462.8 Q 176228.4 13226.8 174585.6 13226.8 L 174584.4 13226.8 Z M 183625.6 24832 L 181441.6 24832 L 181441.6 11656 L 183625.6 11656 L 183625.6 24832 Z M 181273.6 8090.8 Q 181273.6 7370.8 181639.6 7046.8 Q 182005.6 6722.8 182544.4 6722.8 Q 182808.4 6722.8 183042.4 6800.8 Q 183276.4 6878.8 183450.4 7046.8 Q 183624.4 7214.8 183726.4 7472.8 Q 183828.4 7730.8 183828.4 8090.8 Q 183828.4 8786.8 183450.4 9128.8 Q 183072.4 9470.8 182544.4 9470.8 Q 182005.6 9470.8 181639.6 9134.8 Q 181273.6 8798.8 181273.6 8089.6 L 181273.6 8090.8 Z M 187875.2 24832 L 185691.2 24832 L 185691.2 6160 L 187875.2 6160 L 187875.2 24832 Z M 192124.8 24832 L 189940.8 24832 L 189940.8 11656 L 192124.8 11656 L 192124.8 24832 Z M 189772.8 8090.8 Q 189772.8 7370.8 190138.8 7046.8 Q 190504.8 6722.8 191043.6 6722.8 Q 191307.6 6722.8 191541.6 6800.8 Q 191775.6 6878.8 191949.6 7046.8 Q 192123.6 7214.8 192225.6 7472.8 Q 192327.6 7730.8 192327.6 8090.8 Q 192327.6 8786.8 191949.6 9128.8 Q 191571.6 9470.8 191043.6 9470.8 Q 190504.8 9470.8 190138.8 9134.8 Q 189772.8 8798.8 189772.8 8089.6 L 189772.8 8090.8 Z M 202326.4 23066.8 L 202230.4 23066.8 Q 201966.4 23474.8 201612.4 23840.8 Q 201258.4 24206.8 200796.4 24482.8 Q 200334.4 24758.8 199758.4 24914.8 Q 199182.4 25070.8 198462.4 25070.8 Q 197347.6 25070.8 196423.6 24638.8 Q 195499.6 24206.8 194839.6 23348.8 Q 194179.6 22490.8 193819.6 21218.8 Q 193459.6 19946.8 193459.6 18266.8 Q 193459.6 16576 193819.6 15298 Q 194179.6 14020 194839.6 13156 Q 195499.6 12292 196423.6 11854 Q 197347.6 11416 198462.4 11416 Q 199171.6 11416 199747.6 11572 Q 200323.6 11728 200785.6 11992 Q 201247.6 12256 201607.6 12604 Q 201967.6 12952 202231.6 13336 L 202375.6 13336 Q 202340.8 12928 202303.6 12554.8 Q 202279.6 12242.8 202255.6 11912.8 Q 202231.6 11582.8 202231.6 11390.8 L 202231.6 6158.8 L 204415.6 6158.8 L 204415.6 24830.8 L 202652.8 24830.8 L 202327.6 23065.6 L 202326.4 23066.8 Z M 198883.6 23258.8 Q 199795.6 23258.8 200425.6 22982.8 Q 201055.6 22706.8 201445.6 22142.8 Q 201835.6 21578.8 202021.6 20732.8 Q 202207.6 19886.8 202231.6 18758.8 L 202231.6 18265.6 Q 202231.6 17054.8 202069.6 16112.8 Q 201907.6 15170.8 201517.6 14528.8 Q 201127.6 13886.8 200479.6 13556.8 Q 199831.6 13226.8 198860.8 13226.8 Q 197239.6 13226.8 196477.6 14534.8 Q 195715.6 15842.8 195715.6 18290.8 Q 195715.6 20800 196477.6 22030 Q 197239.6 23260 198884.8 23260 L 198883.6 23258.8 Z M 214010 24832 L 213564.8 23008 L 213468.8 23008 Q 213074 23546.8 212678 23936.8 Q 212282 24326.8 211814 24578.8 Q 211346 24830.8 210770 24950.8 Q 210194 25070.8 209436.8 25070.8 Q 208610 25070.8 207914 24836.8 Q 207218 24602.8 206708 24116.8 Q 206198 23630.8 205910 22892.8 Q 205622 22154.8 205622 21146.8 Q 205622 19178.8 207008 18122.8 Q 208394 17066.8 211226 16970.8 L 213434 16888 L 213434 16058.8 Q 213434 15256 213260 14716 Q 213086 14176 212756 13846 Q 212426 13516 211940 13372 Q 211454 13228 210830 13228 Q 209835.2 13228 208977.2 13516 Q 208119.2 13804 207327.2 14212 L 206559.2 12569.2 Q 207447.2 12089.2 208539.2 11753.2 Q 209631.2 11417.2 210831.2 11417.2 Q 212055.2 11417.2 212949.2 11663.2 Q 213843.2 11909.2 214425.2 12443.2 Q 215007.2 12977.2 215295.2 13805.2 Q 215583.2 14633.2 215583.2 15809.2 L 215583.2 24833.2 L 214012.4 24833.2 L 214010 24832 Z M 210002 23306.8 Q 210732.8 23306.8 211356.8 23078.8 Q 211980.8 22850.8 212436.8 22388.8 Q 212892.8 21926.8 213150.8 21224.8 Q 213408.8 20522.8 213408.8 19576 L 213408.8 18386.8 L 211691.6 18472 Q 210611.6 18520 209879.6 18712 Q 209147.6 18904 208709.6 19246 Q 208271.6 19588 208079.6 20074 Q 207887.6 20560 207887.6 21170.8 Q 207887.6 22274.8 208469.6 22790.8 Q 209051.6 23306.8 210000.8 23306.8 L 210002 23306.8 Z M 225622.4 23066.8 L 225526.4 23066.8 Q 225262.4 23474.8 224908.4 23840.8 Q 224554.4 24206.8 224092.4 24482.8 Q 223630.4 24758.8 223054.4 24914.8 Q 222478.4 25070.8 221758.4 25070.8 Q 220643.6 25070.8 219719.6 24638.8 Q 218795.6 24206.8 218135.6 23348.8 Q 217475.6 22490.8 217115.6 21218.8 Q 216755.6 19946.8 216755.6 18266.8 Q 216755.6 16576 217115.6 15298 Q 217475.6 14020 218135.6 13156 Q 218795.6 12292 219719.6 11854 Q 220643.6 11416 221758.4 11416 Q 222467.6 11416 223043.6 11572 Q 223619.6 11728 224081.6 11992 Q 224543.6 12256 224903.6 12604 Q 225263.6 12952 225527.6 13336 L 225671.6 13336 Q 225636.8 12928 225599.6 12554.8 Q 225575.6 12242.8 225551.6 11912.8 Q 225527.6 11582.8 225527.6 11390.8 L 225527.6 6158.8 L 227711.6 6158.8 L 227711.6 24830.8 L 225948.8 24830.8 L 225623.6 23065.6 L 225622.4 23066.8 Z M 222179.6 23258.8 Q 223091.6 23258.8 223721.6 22982.8 Q 224351.6 22706.8 224741.6 22142.8 Q 225131.6 21578.8 225317.6 20732.8 Q 225503.6 19886.8 225527.6 18758.8 L 225527.6 18265.6 Q 225527.6 17054.8 225365.6 16112.8 Q 225203.6 15170.8 224813.6 14528.8 Q 224423.6 13886.8 223775.6 13556.8 Q 223127.6 13226.8 222156.8 13226.8 Q 220535.6 13226.8 219773.6 14534.8 Q 219011.6 15842.8 219011.6 18290.8 Q 219011.6 20800 219773.6 22030 Q 220535.6 23260 222180.8 23260 L 222179.6 23258.8 Z M 235084.8 25072 Q 233764.8 25072 232672.8 24628 Q 231580.8 24184 230794.8 23332 Q 230008.8 22480 229576.8 21220 Q 229144.8 19960 229144.8 18338.8 Q 229144.8 16706.8 229540.8 15422.8 Q 229936.8 14138.8 230656.8 13244.8 Q 231376.8 12350.8 232378.8 11882.8 Q 233380.8 11414.8 234594 11414.8 Q 235780.8 11414.8 236728.8 11840.8 Q 237676.8 12266.8 238336.8 13040.8 Q 238996.8 13814.8 239350.8 14900.8 Q 239704.8 15986.8 239704.8 17306.8 L 239704.8 18664 L 231400.8 18664 Q 231459.6 20978.8 232377.6 22070.8 Q 233295.6 23162.8 235106.4 23162.8 Q 235719.6 23162.8 236241.6 23102.8 Q 236763.6 23042.8 237249.6 22928.8 Q 237735.6 22814.8 238191.6 22640.8 Q 238647.6 22466.8 239114.4 22250.8 L 239114.4 24194.8 Q 238634.4 24424 238172.4 24592 Q 237710.4 24760 237224.4 24868 Q 236738.4 24976 236216.4 25024 Q 235694.4 25072 235081.2 25072 L 235084.8 25072 Z M 234546 13226.8 Q 233178 13226.8 232380 14162.8 Q 231582 15098.8 231451.2 16888 L 237355.2 16888 Q 237355.2 16072 237193.2 15394 Q 237031.2 14716 236689.2 14236 Q 236347.2 13756 235819.2 13492 Q 235291.2 13228 234547.2 13228 L 234546 13226.8 Z M 248770 21218.8 Q 248770 22178.8 248422 22898.8 Q 248074 23618.8 247420 24104.8 Q 246766 24590.8 245842 24830.8 Q 244918 25070.8 243766 25070.8 Q 242459.2 25070.8 241523.2 24860.8 Q 240587.2 24650.8 239878 24242.8 L 239878 22250.8 Q 240251.2 22442.8 240707.2 22628.8 Q 241163.2 22814.8 241667.2 22958.8 Q 242171.2 23102.8 242705.2 23192.8 Q 243239.2 23282.8 243767.2 23282.8 Q 244548.4 23282.8 245094.4 23150.8 Q 245640.4 23018.8 245982.4 22772.8 Q 246324.4 22526.8 246480.4 22172.8 Q 246636.4 21818.8 246636.4 21386.8 Q 246636.4 21016 246516.4 20716 Q 246396.4 20416 246078.4 20122 Q 245760.4 19828 245208.4 19528 Q 244656.4 19228 243792.4 18857.2 Q 242928.4 18484 242238.4 18124 Q 241548.4 17764 241068.4 17320 Q 240588.4 16876 240330.4 16294 Q 240072.4 15712 240072.4 14906.8 Q 240072.4 14066.8 240402.4 13412.8 Q 240732.4 12758.8 241332.4 12314.8 Q 241932.4 11870.8 242772.4 11642.8 Q 243612.4 11414.8 244644.4 11414.8 Q 245807.2 11414.8 246773.2 11666.8 Q 247739.2 11918.8 248603.2 12326.8 L 247846 14089.6 Q 247067.2 13742.8 246245.2 13484.8 Q 245423.2 13226.8 244572.4 13226.8 Q 243348.4 13226.8 242760.4 13628.8 Q 242172.4 14030.8 242172.4 14774.8 Q 242172.4 15193.6 242310.4 15505.6 Q 242448.4 15817.6 242784.4 16093.6 Q 243120.4 16369.6 243684.4 16651.6 Q 244248.4 16933.6 245088.4 17280.4 Q 245952.4 17640.4 246630.4 18000.4 Q 247308.4 18360.4 247788.4 18810.4 Q 248268.4 19260.4 248520.4 19836.4 Q 248772.4 20412.4 248772.4 21215.2 L 248770 21218.8 Z M 252152 21976 L 252333.2 22250.8 Q 252165.2 22898.8 251931.2 23630.8 Q 251697.2 24362.8 251415.2 25108 Q 251133.2 25853.2 250827.2 26591.2 Q 250521.2 27329.2 250222.4 28001.2 L 248566.4 28001.2 Q 248745.2 27270.4 248919.2 26478.4 Q 249093.2 25686.4 249255.2 24900.4 Q 249417.2 24114.4 249549.2 23364.4 Q 249681.2 22614.4 249777.2 21979.6 L 252153.2 21979.6 L 252152 21976 Z M 130180.8 52927.6 Q 130396.8 52927.6 130666.8 52903.6 Q 130936.8 52879.6 131188.8 52843.6 Q 131440.8 52807.6 131650.8 52759.6 Q 131860.8 52711.6 131970 52676.8 L 131970 54332.8 Q 131812.8 54404.8 131572.8 54476.8 Q 131332.8 54548.8 131044.8 54602.8 Q 130756.8 54656.8 130444.8 54686.8 Q 130132.8 54716.8 129834 54716.8 Q 129090 54716.8 128454 54524.8 Q 127818 54332.8 127356 53864.8 Q 126894 53396.8 126630 52598.8 Q 126366 51800.8 126366 50590 L 126366 42944.8 L 124507.2 42944.8 L 124507.2 41974 L 126366 41038 L 127302 38278 L 128563.2 38278 L 128563.2 41302 L 131875.2 41302 L 131875.2 42944.8 L 128563.2 42944.8 L 128563.2 50590 Q 128563.2 51752.8 128941.2 52340.8 Q 129319.2 52928.8 130183.2 52928.8 L 130180.8 52927.6 Z M 140976.4 54476.8 L 140651.2 52711.6 L 140531.2 52711.6 Q 140232.4 53228.8 139818.4 53606.8 Q 139404.4 53984.8 138912.4 54230.8 Q 138420.4 54476.8 137868.4 54596.8 Q 137316.4 54716.8 136740.4 54716.8 Q 135649.6 54716.8 134821.6 54440.8 Q 133993.6 54164.8 133441.6 53576.8 Q 132889.6 52988.8 132607.6 52076.8 Q 132325.6 51164.8 132325.6 49903.6 L 132325.6 41300.8 L 134509.6 41300.8 L 134509.6 49783.6 Q 134509.6 51343.6 135145.6 52123.6 Q 135781.6 52903.6 137114.8 52903.6 Q 138085.6 52903.6 138745.6 52591.6 Q 139405.6 52279.6 139807.6 51673.6 Q 140209.6 51067.6 140383.6 50179.6 Q 140557.6 49291.6 140557.6 48139.6 L 140557.6 41299.6 L 142741.6 41299.6 L 142741.6 54475.6 L 140978.8 54475.6 L 140976.4 54476.8 Z M 152718.8 50863.6 Q 152718.8 51823.6 152370.8 52543.6 Q 152022.8 53263.6 151368.8 53749.6 Q 150714.8 54235.6 149790.8 54475.6 Q 148866.8 54715.6 147714.8 54715.6 Q 146408 54715.6 145472 54505.6 Q 144536 54295.6 143826.8 53887.6 L 143826.8 51895.6 Q 144200 52087.6 144656 52273.6 Q 145112 52459.6 145616 52603.6 Q 146120 52747.6 146654 52837.6 Q 147188 52927.6 147716 52927.6 Q 148497.2 52927.6 149043.2 52795.6 Q 149589.2 52663.6 149931.2 52417.6 Q 150273.2 52171.6 150429.2 51817.6 Q 150585.2 51463.6 150585.2 51031.6 Q 150585.2 50660.8 150465.2 50360.8 Q 150345.2 50060.8 150027.2 49766.8 Q 149709.2 49472.8 149157.2 49172.8 Q 148605.2 48872.8 147741.2 48502 Q 146877.2 48128.8 146187.2 47768.8 Q 145497.2 47408.8 145017.2 46964.8 Q 144537.2 46520.8 144279.2 45938.8 Q 144021.2 45356.8 144021.2 44551.6 Q 144021.2 43711.6 144351.2 43057.6 Q 144681.2 42403.6 145281.2 41959.6 Q 145881.2 41515.6 146721.2 41287.6 Q 147561.2 41059.6 148593.2 41059.6 Q 149756 41059.6 150722 41311.6 Q 151688 41563.6 152552 41971.6 L 151794.8 43734.4 Q 151016 43387.6 150194 43129.6 Q 149372 42871.6 148521.2 42871.6 Q 147297.2 42871.6 146709.2 43273.6 Q 146121.2 43675.6 146121.2 44419.6 Q 146121.2 44838.4 146259.2 45150.4 Q 146397.2 45462.4 146733.2 45738.4 Q 147069.2 46014.4 147633.2 46296.4 Q 148197.2 46578.4 149037.2 46925.2 Q 149901.2 47285.2 150579.2 47645.2 Q 151257.2 48005.2 151737.2 48455.2 Q 152217.2 48905.2 152469.2 49481.2 Q 152721.2 50057.2 152721.2 50860 L 152718.8 50863.6 Z M 160278.4 54476.8 L 158094.4 54476.8 L 158094.4 41300.8 L 160278.4 41300.8 L 160278.4 54476.8 Z M 157926.4 37735.6 Q 157926.4 37015.6 158292.4 36691.6 Q 158658.4 36367.6 159197.2 36367.6 Q 159461.2 36367.6 159695.2 36445.6 Q 159929.2 36523.6 160103.2 36691.6 Q 160277.2 36859.6 160379.2 37117.6 Q 160481.2 37375.6 160481.2 37735.6 Q 160481.2 38431.6 160103.2 38773.6 Q 159725.2 39115.6 159197.2 39115.6 Q 158658.4 39115.6 158292.4 38779.6 Q 157926.4 38443.6 157926.4 37734.4 L 157926.4 37735.6 Z M 170576 54476.8 L 170576 45991.6 Q 170576 44431.6 169946 43651.6 Q 169316 42871.6 167972 42871.6 Q 166998.8 42871.6 166338.8 43183.6 Q 165678.8 43495.6 165276.8 44107.6 Q 164874.8 44719.6 164700.8 45607.6 Q 164526.8 46495.6 164526.8 47647.6 L 164526.8 54476.8 L 162342.8 54476.8 L 162342.8 41300.8 L 164118.8 41300.8 L 164430.8 43076.8 L 164550.8 43076.8 Q 164852 42559.6 165266 42181.6 Q 165680 41803.6 166172 41551.6 Q 166664 41299.6 167216 41179.6 Q 167768 41059.6 168344 41059.6 Q 170541.2 41059.6 171651.2 42205.6 Q 172761.2 43351.6 172761.2 45871.6 L 172761.2 54476.8 L 170577.2 54476.8 L 170576 54476.8 Z M 178718.4 52927.6 Q 178934.4 52927.6 179204.4 52903.6 Q 179474.4 52879.6 179726.4 52843.6 Q 179978.4 52807.6 180188.4 52759.6 Q 180398.4 52711.6 180507.6 52676.8 L 180507.6 54332.8 Q 180350.4 54404.8 180110.4 54476.8 Q 179870.4 54548.8 179582.4 54602.8 Q 179294.4 54656.8 178982.4 54686.8 Q 178670.4 54716.8 178371.6 54716.8 Q 177627.6 54716.8 176991.6 54524.8 Q 176355.6 54332.8 175893.6 53864.8 Q 175431.6 53396.8 175167.6 52598.8 Q 174903.6 51800.8 174903.6 50590 L 174903.6 42944.8 L 173044.8 42944.8 L 173044.8 41974 L 174903.6 41038 L 175839.6 38278 L 177100.8 38278 L 177100.8 41302 L 180412.8 41302 L 180412.8 42944.8 L 177100.8 42944.8 L 177100.8 50590 Q 177100.8 51752.8 177478.8 52340.8 Q 177856.8 52928.8 178720.8 52928.8 L 178718.4 52927.6 Z M 186188.8 54716.8 Q 184868.8 54716.8 183776.8 54272.8 Q 182684.8 53828.8 181898.8 52976.8 Q 181112.8 52124.8 180680.8 50864.8 Q 180248.8 49604.8 180248.8 47983.6 Q 180248.8 46351.6 180644.8 45067.6 Q 181040.8 43783.6 181760.8 42889.6 Q 182480.8 41995.6 183482.8 41527.6 Q 184484.8 41059.6 185698 41059.6 Q 186884.8 41059.6 187832.8 41485.6 Q 188780.8 41911.6 189440.8 42685.6 Q 190100.8 43459.6 190454.8 44545.6 Q 190808.8 45631.6 190808.8 46951.6 L 190808.8 48308.8 L 182504.8 48308.8 Q 182563.6 50623.6 183481.6 51715.6 Q 184399.6 52807.6 186210.4 52807.6 Q 186823.6 52807.6 187345.6 52747.6 Q 187867.6 52687.6 188353.6 52573.6 Q 188839.6 52459.6 189295.6 52285.6 Q 189751.6 52111.6 190218.4 51895.6 L 190218.4 53839.6 Q 189738.4 54068.8 189276.4 54236.8 Q 188814.4 54404.8 188328.4 54512.8 Q 187842.4 54620.8 187320.4 54668.8 Q 186798.4 54716.8 186185.2 54716.8 L 186188.8 54716.8 Z M 185650 42871.6 Q 184282 42871.6 183484 43807.6 Q 182686 44743.6 182555.2 46532.8 L 188459.2 46532.8 Q 188459.2 45716.8 188297.2 45038.8 Q 188135.2 44360.8 187793.2 43880.8 Q 187451.2 43400.8 186923.2 43136.8 Q 186395.2 42872.8 185651.2 42872.8 L 185650 42871.6 Z M 197690 41060.8 Q 198036.8 41060.8 198468.8 41090.8 Q 198900.8 41120.8 199212.8 41182 L 198924.8 43198 Q 198588.8 43136.8 198234.8 43094.8 Q 197880.8 43052.8 197568.8 43052.8 Q 196811.6 43052.8 196187.6 43358.8 Q 195563.6 43664.8 195113.6 44234.8 Q 194663.6 44804.8 194417.6 45602.8 Q 194171.6 46400.8 194171.6 47374 L 194171.6 54478 L 191987.6 54478 L 191987.6 41302 L 193763.6 41302 L 194027.6 43712.8 L 194123.6 43712.8 Q 194424.8 43198 194766.8 42718 Q 195108.8 42238 195534.8 41872 Q 195960.8 41506 196488.8 41284 Q 197016.8 41062 197688.8 41062 L 197690 41060.8 Z M 204979.2 54716.8 Q 203659.2 54716.8 202567.2 54272.8 Q 201475.2 53828.8 200689.2 52976.8 Q 199903.2 52124.8 199471.2 50864.8 Q 199039.2 49604.8 199039.2 47983.6 Q 199039.2 46351.6 199435.2 45067.6 Q 199831.2 43783.6 200551.2 42889.6 Q 201271.2 41995.6 202273.2 41527.6 Q 203275.2 41059.6 204488.4 41059.6 Q 205675.2 41059.6 206623.2 41485.6 Q 207571.2 41911.6 208231.2 42685.6 Q 208891.2 43459.6 209245.2 44545.6 Q 209599.2 45631.6 209599.2 46951.6 L 209599.2 48308.8 L 201295.2 48308.8 Q 201354 50623.6 202272 51715.6 Q 203190 52807.6 205000.8 52807.6 Q 205614 52807.6 206136 52747.6 Q 206658 52687.6 207144 52573.6 Q 207630 52459.6 208086 52285.6 Q 208542 52111.6 209008.8 51895.6 L 209008.8 53839.6 Q 208528.8 54068.8 208066.8 54236.8 Q 207604.8 54404.8 207118.8 54512.8 Q 206632.8 54620.8 206110.8 54668.8 Q 205588.8 54716.8 204975.6 54716.8 L 204979.2 54716.8 Z M 204440.4 42871.6 Q 203072.4 42871.6 202274.4 43807.6 Q 201476.4 44743.6 201345.6 46532.8 L 207249.6 46532.8 Q 207249.6 45716.8 207087.6 45038.8 Q 206925.6 44360.8 206583.6 43880.8 Q 206241.6 43400.8 205713.6 43136.8 Q 205185.6 42872.8 204441.6 42872.8 L 204440.4 42871.6 Z M 218664.4 50863.6 Q 218664.4 51823.6 218316.4 52543.6 Q 217968.4 53263.6 217314.4 53749.6 Q 216660.4 54235.6 215736.4 54475.6 Q 214812.4 54715.6 213660.4 54715.6 Q 212353.6 54715.6 211417.6 54505.6 Q 210481.6 54295.6 209772.4 53887.6 L 209772.4 51895.6 Q 210145.6 52087.6 210601.6 52273.6 Q 211057.6 52459.6 211561.6 52603.6 Q 212065.6 52747.6 212599.6 52837.6 Q 213133.6 52927.6 213661.6 52927.6 Q 214442.8 52927.6 214988.8 52795.6 Q 215534.8 52663.6 215876.8 52417.6 Q 216218.8 52171.6 216374.8 51817.6 Q 216530.8 51463.6 216530.8 51031.6 Q 216530.8 50660.8 216410.8 50360.8 Q 216290.8 50060.8 215972.8 49766.8 Q 215654.8 49472.8 215102.8 49172.8 Q 214550.8 48872.8 213686.8 48502 Q 212822.8 48128.8 212132.8 47768.8 Q 211442.8 47408.8 210962.8 46964.8 Q 210482.8 46520.8 210224.8 45938.8 Q 209966.8 45356.8 209966.8 44551.6 Q 209966.8 43711.6 210296.8 43057.6 Q 210626.8 42403.6 211226.8 41959.6 Q 211826.8 41515.6 212666.8 41287.6 Q 213506.8 41059.6 214538.8 41059.6 Q 215701.6 41059.6 216667.6 41311.6 Q 217633.6 41563.6 218497.6 41971.6 L 217740.4 43734.4 Q 216961.6 43387.6 216139.6 43129.6 Q 215317.6 42871.6 214466.8 42871.6 Q 213242.8 42871.6 212654.8 43273.6 Q 212066.8 43675.6 212066.8 44419.6 Q 212066.8 44838.4 212204.8 45150.4 Q 212342.8 45462.4 212678.8 45738.4 Q 213014.8 46014.4 213578.8 46296.4 Q 214142.8 46578.4 214982.8 46925.2 Q 215846.8 47285.2 216524.8 47645.2 Q 217202.8 48005.2 217682.8 48455.2 Q 218162.8 48905.2 218414.8 49481.2 Q 218666.8 50057.2 218666.8 50860 L 218664.4 50863.6 Z M 224998.4 54716.8 Q 223678.4 54716.8 222586.4 54272.8 Q 221494.4 53828.8 220708.4 52976.8 Q 219922.4 52124.8 219490.4 50864.8 Q 219058.4 49604.8 219058.4 47983.6 Q 219058.4 46351.6 219454.4 45067.6 Q 219850.4 43783.6 220570.4 42889.6 Q 221290.4 41995.6 222292.4 41527.6 Q 223294.4 41059.6 224507.6 41059.6 Q 225694.4 41059.6 226642.4 41485.6 Q 227590.4 41911.6 228250.4 42685.6 Q 228910.4 43459.6 229264.4 44545.6 Q 229618.4 45631.6 229618.4 46951.6 L 229618.4 48308.8 L 221314.4 48308.8 Q 221373.2 50623.6 222291.2 51715.6 Q 223209.2 52807.6 225020 52807.6 Q 225633.2 52807.6 226155.2 52747.6 Q 226677.2 52687.6 227163.2 52573.6 Q 227649.2 52459.6 228105.2 52285.6 Q 228561.2 52111.6 229028 51895.6 L 229028 53839.6 Q 228548 54068.8 228086 54236.8 Q 227624 54404.8 227138 54512.8 Q 226652 54620.8 226130 54668.8 Q 225608 54716.8 224994.8 54716.8 L 224998.4 54716.8 Z M 224459.6 42871.6 Q 223091.6 42871.6 222293.6 43807.6 Q 221495.6 44743.6 221364.8 46532.8 L 227268.8 46532.8 Q 227268.8 45716.8 227106.8 45038.8 Q 226944.8 44360.8 226602.8 43880.8 Q 226260.8 43400.8 225732.8 43136.8 Q 225204.8 42872.8 224460.8 42872.8 L 224459.6 42871.6 Z M 238683.6 50863.6 Q 238683.6 51823.6 238335.6 52543.6 Q 237987.6 53263.6 237333.6 53749.6 Q 236679.6 54235.6 235755.6 54475.6 Q 234831.6 54715.6 233679.6 54715.6 Q 232372.8 54715.6 231436.8 54505.6 Q 230500.8 54295.6 229791.6 53887.6 L 229791.6 51895.6 Q 230164.8 52087.6 230620.8 52273.6 Q 231076.8 52459.6 231580.8 52603.6 Q 232084.8 52747.6 232618.8 52837.6 Q 233152.8 52927.6 233680.8 52927.6 Q 234462 52927.6 235008 52795.6 Q 235554 52663.6 235896 52417.6 Q 236238 52171.6 236394 51817.6 Q 236550 51463.6 236550 51031.6 Q 236550 50660.8 236430 50360.8 Q 236310 50060.8 235992 49766.8 Q 235674 49472.8 235122 49172.8 Q 234570 48872.8 233706 48502 Q 232842 48128.8 232152 47768.8 Q 231462 47408.8 230982 46964.8 Q 230502 46520.8 230244 45938.8 Q 229986 45356.8 229986 44551.6 Q 229986 43711.6 230316 43057.6 Q 230646 42403.6 231246 41959.6 Q 231846 41515.6 232686 41287.6 Q 233526 41059.6 234558 41059.6 Q 235720.8 41059.6 236686.8 41311.6 Q 237652.8 41563.6 238516.8 41971.6 L 237759.6 43734.4 Q 236980.8 43387.6 236158.8 43129.6 Q 235336.8 42871.6 234486 42871.6 Q 233262 42871.6 232674 43273.6 Q 232086 43675.6 232086 44419.6 Q 232086 44838.4 232224 45150.4 Q 232362 45462.4 232698 45738.4 Q 233034 46014.4 233598 46296.4 Q 234162 46578.4 235002 46925.2 Q 235866 47285.2 236544 47645.2 Q 237222 48005.2 237702 48455.2 Q 238182 48905.2 238434 49481.2 Q 238686 50057.2 238686 50860 L 238683.6 50863.6 Z M 242091.2 41300.8 L 244360.4 41300.8 L 246939.2 48655.6 Q 247107.2 49135.6 247281.2 49663.6 Q 247455.2 50191.6 247605.2 50719.6 Q 247755.2 51247.6 247863.2 51739.6 Q 247971.2 52231.6 248019.2 52652.8 L 248091.2 52652.8 Q 248152.4 52351.6 248284.4 51835.6 Q 248416.4 51319.6 248578.4 50737.6 Q 248740.4 50155.6 248914.4 49591.6 Q 249088.4 49027.6 249219.2 48630.4 L 251608.4 41299.6 L 253864.4 41299.6 L 248656.4 56192.8 Q 248320.4 57163.6 247930.4 57937.6 Q 247540.4 58711.6 247024.4 59251.6 Q 246508.4 59791.6 245812.4 60085.6 Q 245116.4 60379.6 244156.4 60379.6 Q 243532.4 60379.6 243076.4 60313.6 Q 242620.4 60247.6 242297.6 60175.6 L 242297.6 58434.4 Q 242548.4 58495.6 242932.4 58537.6 Q 243316.4 58579.6 243737.6 58579.6 Q 244313.6 58579.6 244733.6 58441.6 Q 245153.6 58303.6 245465.6 58039.6 Q 245777.6 57775.6 245999.6 57391.6 Q 246221.6 57007.6 246402.8 56514.4 L 247085.6 54594.4 L 242093.6 41298.4 L 242091.2 41300.8 Z M 144077.2 84121.6 L 144077.2 75636.4 Q 144077.2 74076.4 143477.2 73296.4 Q 142877.2 72516.4 141616 72516.4 Q 140741.2 72516.4 140129.2 72798.4 Q 139517.2 73080.4 139127.2 73626.4 Q 138737.2 74172.4 138557.2 74982.4 Q 138377.2 75792.4 138377.2 76848.4 L 138377.2 84120.4 L 136182.4 84120.4 L 136182.4 75635.2 Q 136182.4 74075.2 135588.4 73295.2 Q 134994.4 72515.2 133735.6 72515.2 Q 132810.4 72515.2 132186.4 72827.2 Q 131562.4 73139.2 131184.4 73751.2 Q 130806.4 74363.2 130644.4 75251.2 Q 130482.4 76139.2 130482.4 77291.2 L 130482.4 84120.4 L 128298.4 84120.4 L 128298.4 70944.4 L 130074.4 70944.4 L 130386.4 72720.4 L 130506.4 72720.4 Q 130794.4 72203.2 131190.4 71825.2 Q 131586.4 71447.2 132060.4 71195.2 Q 132534.4 70943.2 133068.4 70823.2 Q 133602.4 70703.2 134154.4 70703.2 Q 135594.4 70703.2 136548.4 71231.2 Q 137502.4 71759.2 137958.4 72887.2 L 138054.4 72887.2 Q 138366.4 72322 138804.4 71914 Q 139242.4 71506 139764.4 71236 Q 140286.4 70966 140862.4 70834 Q 141438.4 70702 142038.4 70702 Q 144137.2 70702 145199.2 71848 Q 146261.2 72994 146261.2 75514 L 146261.2 84119.2 L 144077.2 84119.2 L 144077.2 84121.6 Z M 158954 77508.4 Q 158954 79153.6 158552 80431.6 Q 158150 81709.6 157400 82579.6 Q 156650 83449.6 155582 83905.6 Q 154514 84361.6 153180.8 84361.6 Q 151946 84361.6 150902 83905.6 Q 149858 83449.6 149096 82579.6 Q 148334 81709.6 147908 80431.6 Q 147482 79153.6 147482 77508.4 Q 147482 75876.4 147884 74610.4 Q 148286 73344.4 149030 72474.4 Q 149774 71604.4 150848 71154.4 Q 151922 70704.4 153252.8 70704.4 Q 154490 70704.4 155534 71154.4 Q 156578 71604.4 157340 72474.4 Q 158102 73344.4 158528 74610.4 Q 158954 75876.4 158954 77508.4  Z M 149738 77508.4 Q 149738 80017.6 150560 81283.6 Q 151382 82549.6 153230 82549.6 Q 155078 82549.6 155888 81283.6 Q 156698 80017.6 156698 77508.4 Q 156698 75001.6 155876 73759.6 Q 155054 72517.6 153206 72517.6 Q 151358 72517.6 150548 73759.6 Q 149738 75001.6 149738 77508.4  Z M 164331.2 82572.4 Q 164547.2 82572.4 164817.2 82548.4 Q 165087.2 82524.4 165339.2 82488.4 Q 165591.2 82452.4 165801.2 82404.4 Q 166011.2 82356.4 166120.4 82321.6 L 166120.4 83977.6 Q 165963.2 84049.6 165723.2 84121.6 Q 165483.2 84193.6 165195.2 84247.6 Q 164907.2 84301.6 164595.2 84331.6 Q 164283.2 84361.6 163984.4 84361.6 Q 163240.4 84361.6 162604.4 84169.6 Q 161968.4 83977.6 161506.4 83509.6 Q 161044.4 83041.6 160780.4 82243.6 Q 160516.4 81445.6 160516.4 80234.8 L 160516.4 72589.6 L 158657.6 72589.6 L 158657.6 71618.8 L 160516.4 70682.8 L 161452.4 67922.8 L 162713.6 67922.8 L 162713.6 70946.8 L 166025.6 70946.8 L 166025.6 72589.6 L 162713.6 72589.6 L 162713.6 80234.8 Q 162713.6 81397.6 163091.6 81985.6 Q 163469.6 82573.6 164333.6 82573.6 L 164331.2 82572.4 Z M 168777.6 84121.6 L 166593.6 84121.6 L 166593.6 70945.6 L 168777.6 70945.6 L 168777.6 84121.6 Z M 166425.6 67380.4 Q 166425.6 66660.4 166791.6 66336.4 Q 167157.6 66012.4 167696.4 66012.4 Q 167960.4 66012.4 168194.4 66090.4 Q 168428.4 66168.4 168602.4 66336.4 Q 168776.4 66504.4 168878.4 66762.4 Q 168980.4 67020.4 168980.4 67380.4 Q 168980.4 68076.4 168602.4 68418.4 Q 168224.4 68760.4 167696.4 68760.4 Q 167157.6 68760.4 166791.6 68424.4 Q 166425.6 68088.4 166425.6 67379.2 L 166425.6 67380.4 Z M 173256.4 84121.6 L 168755.2 70945.6 L 171011.2 70945.6 L 173400.4 78276.4 Q 173531.2 78673.6 173711.2 79297.6 Q 173891.2 79921.6 174071.2 80569.6 Q 174251.2 81217.6 174401.2 81793.6 Q 174551.2 82369.6 174599.2 82668.4 L 174682 82668.4 Q 174743.2 82369.6 174887.2 81793.6 Q 175031.2 81217.6 175211.2 80569.6 Q 175391.2 79921.6 175571.2 79297.6 Q 175751.2 78673.6 175882 78276.4 L 178271.2 70945.6 L 180527.2 70945.6 L 176026 84121.6 L 173255.2 84121.6 L 173256.4 84121.6 Z M 187949.2 84121.6 L 187504 82297.6 L 187408 82297.6 Q 187013.2 82836.4 186617.2 83226.4 Q 186221.2 83616.4 185753.2 83868.4 Q 185285.2 84120.4 184709.2 84240.4 Q 184133.2 84360.4 183376 84360.4 Q 182549.2 84360.4 181853.2 84126.4 Q 181157.2 83892.4 180647.2 83406.4 Q 180137.2 82920.4 179849.2 82182.4 Q 179561.2 81444.4 179561.2 80436.4 Q 179561.2 78468.4 180947.2 77412.4 Q 182333.2 76356.4 185165.2 76260.4 L 187373.2 76177.6 L 187373.2 75348.4 Q 187373.2 74545.6 187199.2 74005.6 Q 187025.2 73465.6 186695.2 73135.6 Q 186365.2 72805.6 185879.2 72661.6 Q 185393.2 72517.6 184769.2 72517.6 Q 183774.4 72517.6 182916.4 72805.6 Q 182058.4 73093.6 181266.4 73501.6 L 180498.4 71858.8 Q 181386.4 71378.8 182478.4 71042.8 Q 183570.4 70706.8 184770.4 70706.8 Q 185994.4 70706.8 186888.4 70952.8 Q 187782.4 71198.8 188364.4 71732.8 Q 188946.4 72266.8 189234.4 73094.8 Q 189522.4 73922.8 189522.4 75098.8 L 189522.4 84122.8 L 187951.6 84122.8 L 187949.2 84121.6 Z M 183941.2 82596.4 Q 184672 82596.4 185296 82368.4 Q 185920 82140.4 186376 81678.4 Q 186832 81216.4 187090 80514.4 Q 187348 79812.4 187348 78865.6 L 187348 77676.4 L 185630.8 77761.6 Q 184550.8 77809.6 183818.8 78001.6 Q 183086.8 78193.6 182648.8 78535.6 Q 182210.8 78877.6 182018.8 79363.6 Q 181826.8 79849.6 181826.8 80460.4 Q 181826.8 81564.4 182408.8 82080.4 Q 182990.8 82596.4 183940 82596.4 L 183941.2 82596.4 Z M 196465.6 84361.6 Q 195254.8 84361.6 194198.8 83983.6 Q 193142.8 83605.6 192362.8 82783.6 Q 191582.8 81961.6 191138.8 80683.6 Q 190694.8 79405.6 190694.8 77605.6 Q 190694.8 75722.8 191150.8 74408.8 Q 191606.8 73094.8 192404.8 72272.8 Q 193202.8 71450.8 194270.8 71078.8 Q 195338.8 70706.8 196562.8 70706.8 Q 197498.8 70706.8 198392.8 70910.8 Q 199286.8 71114.8 199886.8 71413.6 L 199238.8 73261.6 Q 198961.6 73141.6 198625.6 73027.6 Q 198289.6 72913.6 197929.6 72823.6 Q 197569.6 72733.6 197221.6 72679.6 Q 196873.6 72625.6 196561.6 72625.6 Q 194678.8 72625.6 193814.8 73831.6 Q 192950.8 75037.6 192950.8 77581.6 Q 192950.8 80114.8 193820.8 81284.8 Q 194690.8 82454.8 196466.8 82454.8 Q 197440 82454.8 198226 82232.8 Q 199012 82010.8 199660 81709.6 L 199660 83653.6 Q 199012 84002.8 198274 84182.8 Q 197536 84362.8 196466.8 84362.8 L 196465.6 84361.6 Z M 202928 84121.6 L 200744 84121.6 L 200744 70945.6 L 202928 70945.6 L 202928 84121.6 Z M 200576 67380.4 Q 200576 66660.4 200942 66336.4 Q 201308 66012.4 201846.8 66012.4 Q 202110.8 66012.4 202344.8 66090.4 Q 202578.8 66168.4 202752.8 66336.4 Q 202926.8 66504.4 203028.8 66762.4 Q 203130.8 67020.4 203130.8 67380.4 Q 203130.8 68076.4 202752.8 68418.4 Q 202374.8 68760.4 201846.8 68760.4 Q 201308 68760.4 200942 68424.4 Q 200576 68088.4 200576 67379.2 L 200576 67380.4 Z M 215734.8 77508.4 Q 215734.8 79153.6 215332.8 80431.6 Q 214930.8 81709.6 214180.8 82579.6 Q 213430.8 83449.6 212362.8 83905.6 Q 211294.8 84361.6 209961.6 84361.6 Q 208726.8 84361.6 207682.8 83905.6 Q 206638.8 83449.6 205876.8 82579.6 Q 205114.8 81709.6 204688.8 80431.6 Q 204262.8 79153.6 204262.8 77508.4 Q 204262.8 75876.4 204664.8 74610.4 Q 205066.8 73344.4 205810.8 72474.4 Q 206554.8 71604.4 207628.8 71154.4 Q 208702.8 70704.4 210033.6 70704.4 Q 211270.8 70704.4 212314.8 71154.4 Q 213358.8 71604.4 214120.8 72474.4 Q 214882.8 73344.4 215308.8 74610.4 Q 215734.8 75876.4 215734.8 77508.4  Z M 206518.8 77508.4 Q 206518.8 80017.6 207340.8 81283.6 Q 208162.8 82549.6 210010.8 82549.6 Q 211858.8 82549.6 212668.8 81283.6 Q 213478.8 80017.6 213478.8 77508.4 Q 213478.8 75001.6 212656.8 73759.6 Q 211834.8 72517.6 209986.8 72517.6 Q 208138.8 72517.6 207328.8 73759.6 Q 206518.8 75001.6 206518.8 77508.4  Z M 225360 84121.6 L 225360 75636.4 Q 225360 74076.4 224730 73296.4 Q 224100 72516.4 222756 72516.4 Q 221782.8 72516.4 221122.8 72828.4 Q 220462.8 73140.4 220060.8 73752.4 Q 219658.8 74364.4 219484.8 75252.4 Q 219310.8 76140.4 219310.8 77292.4 L 219310.8 84121.6 L 217126.8 84121.6 L 217126.8 70945.6 L 218902.8 70945.6 L 219214.8 72721.6 L 219334.8 72721.6 Q 219636 72204.4 220050 71826.4 Q 220464 71448.4 220956 71196.4 Q 221448 70944.4 222000 70824.4 Q 222552 70704.4 223128 70704.4 Q 225325.2 70704.4 226435.2 71850.4 Q 227545.2 72996.4 227545.2 75516.4 L 227545.2 84121.6 L 225361.2 84121.6 L 225360 84121.6 Z M 234726.4 84361.6 Q 233406.4 84361.6 232314.4 83917.6 Q 231222.4 83473.6 230436.4 82621.6 Q 229650.4 81769.6 229218.4 80509.6 Q 228786.4 79249.6 228786.4 77628.4 Q 228786.4 75996.4 229182.4 74712.4 Q 229578.4 73428.4 230298.4 72534.4 Q 231018.4 71640.4 232020.4 71172.4 Q 233022.4 70704.4 234235.6 70704.4 Q 235422.4 70704.4 236370.4 71130.4 Q 237318.4 71556.4 237978.4 72330.4 Q 238638.4 73104.4 238992.4 74190.4 Q 239346.4 75276.4 239346.4 76596.4 L 239346.4 77953.6 L 231042.4 77953.6 Q 231101.2 80268.4 232019.2 81360.4 Q 232937.2 82452.4 234748 82452.4 Q 235361.2 82452.4 235883.2 82392.4 Q 236405.2 82332.4 236891.2 82218.4 Q 237377.2 82104.4 237833.2 81930.4 Q 238289.2 81756.4 238756 81540.4 L 238756 83484.4 Q 238276 83713.6 237814 83881.6 Q 237352 84049.6 236866 84157.6 Q 236380 84265.6 235858 84313.6 Q 235336 84361.6 234722.8 84361.6 L 234726.4 84361.6 Z M 234187.6 72516.4 Q 232819.6 72516.4 232021.6 73452.4 Q 231223.6 74388.4 231092.8 76177.6 L 236996.8 76177.6 Q 236996.8 75361.6 236834.8 74683.6 Q 236672.8 74005.6 236330.8 73525.6 Q 235988.8 73045.6 235460.8 72781.6 Q 234932.8 72517.6 234188.8 72517.6 L 234187.6 72516.4 Z M 248411.6 80508.4 Q 248411.6 81468.4 248063.6 82188.4 Q 247715.6 82908.4 247061.6 83394.4 Q 246407.6 83880.4 245483.6 84120.4 Q 244559.6 84360.4 243407.6 84360.4 Q 242100.8 84360.4 241164.8 84150.4 Q 240228.8 83940.4 239519.6 83532.4 L 239519.6 81540.4 Q 239892.8 81732.4 240348.8 81918.4 Q 240804.8 82104.4 241308.8 82248.4 Q 241812.8 82392.4 242346.8 82482.4 Q 242880.8 82572.4 243408.8 82572.4 Q 244190 82572.4 244736 82440.4 Q 245282 82308.4 245624 82062.4 Q 245966 81816.4 246122 81462.4 Q 246278 81108.4 246278 80676.4 Q 246278 80305.6 246158 80005.6 Q 246038 79705.6 245720 79411.6 Q 245402 79117.6 244850 78817.6 Q 244298 78517.6 243434 78146.8 Q 242570 77773.6 241880 77413.6 Q 241190 77053.6 240710 76609.6 Q 240230 76165.6 239972 75583.6 Q 239714 75001.6 239714 74196.4 Q 239714 73356.4 240044 72702.4 Q 240374 72048.4 240974 71604.4 Q 241574 71160.4 242414 70932.4 Q 243254 70704.4 244286 70704.4 Q 245448.8 70704.4 246414.8 70956.4 Q 247380.8 71208.4 248244.8 71616.4 L 247487.6 73379.2 Q 246708.8 73032.4 245886.8 72774.4 Q 245064.8 72516.4 244214 72516.4 Q 242990 72516.4 242402 72918.4 Q 241814 73320.4 241814 74064.4 Q 241814 74483.2 241952 74795.2 Q 242090 75107.2 242426 75383.2 Q 242762 75659.2 243326 75941.2 Q 243890 76223.2 244730 76570 Q 245594 76930 246272 77290 Q 246950 77650 247430 78100 Q 247910 78550 248162 79126 Q 248414 79702 248414 80504.8 L 248411.6 80508.4 Z M 249214.8 82788.4 Q 249214.8 82332.4 249334.8 82014.4 Q 249454.8 81696.4 249658.8 81498.4 Q 249862.8 81300.4 250138.8 81210.4 Q 250414.8 81120.4 250737.6 81120.4 Q 251049.6 81120.4 251331.6 81210.4 Q 251613.6 81300.4 251817.6 81498.4 Q 252021.6 81696.4 252141.6 82014.4 Q 252261.6 82332.4 252261.6 82788.4 Q 252261.6 83233.6 252141.6 83551.6 Q 252021.6 83869.6 251817.6 84074.8 Q 251613.6 84280 251331.6 84376 Q 251049.6 84472 250737.6 84472 Q 250414.8 84472 250138.8 84376 Q 249862.8 84280 249658.8 84074.8 Q 249454.8 83869.6 249334.8 83551.6 Q 249214.8 83233.6 249214.8 82788.4  Z " fill-rule="nonzero" style="fill:#535353;;fill-opacity:1;"/>
</svg>