<svg version="1.1" x="0" y="0" width="100%" height="100%" viewBox="0 0 218521.6 29644.8" xmlns="http://www.w3.org/2000/svg">
  <path d="M 65856.4 24832 L 63624.4 24832 L 63624.4 7288 L 72731.2 7288 L 72731.2 9256 L 65856.4 9256 L 65856.4 15448 L 72275.2 15448 L 72275.2 17416 L 65856.4 17416 L 65856.4 24832 Z M 84048.4 18218.8 Q 84048.4 19864 83646.4 21142 Q 83244.4 22420 82494.4 23290 Q 81744.4 24160 80676.4 24616 Q 79608.4 25072 78275.2 25072 Q 77040.4 25072 75996.4 24616 Q 74952.4 24160 74190.4 23290 Q 73428.4 22420 73002.4 21142 Q 72576.4 19864 72576.4 18218.8 Q 72576.4 16586.8 72978.4 15320.8 Q 73380.4 14054.8 74124.4 13184.8 Q 74868.4 12314.8 75942.4 11864.8 Q 77016.4 11414.8 78347.2 11414.8 Q 79584.4 11414.8 80628.4 11864.8 Q 81672.4 12314.8 82434.4 13184.8 Q 83196.4 14054.8 83622.4 15320.8 Q 84048.4 16586.8 84048.4 18218.8  Z M 74832.4 18218.8 Q 74832.4 20728 75654.4 21994 Q 76476.4 23260 78324.4 23260 Q 80172.4 23260 80982.4 21994 Q 81792.4 20728 81792.4 18218.8 Q 81792.4 15712 80970.4 14470 Q 80148.4 13228 78300.4 13228 Q 76452.4 13228 75642.4 14470 Q 74832.4 15712 74832.4 18218.8  Z M 91142.8 11416 Q 91489.6 11416 91921.6 11446 Q 92353.6 11476 92665.6 11537.2 L 92377.6 13553.2 Q 92041.6 13492 91687.6 13450 Q 91333.6 13408 91021.6 13408 Q 90264.4 13408 89640.4 13714 Q 89016.4 14020 88566.4 14590 Q 88116.4 15160 87870.4 15958 Q 87624.4 16756 87624.4 17729.2 L 87624.4 24833.2 L 85440.4 24833.2 L 85440.4 11657.2 L 87216.4 11657.2 L 87480.4 14068 L 87576.4 14068 Q 87877.6 13553.2 88219.6 13073.2 Q 88561.6 12593.2 88987.6 12227.2 Q 89413.6 11861.2 89941.6 11639.2 Q 90469.6 11417.2 91141.6 11417.2 L 91142.8 11416 Z M 97208 23282.8 Q 97424 23282.8 97694 23258.8 Q 97964 23234.8 98216 23198.8 Q 98468 23162.8 98678 23114.8 Q 98888 23066.8 98997.2 23032 L 98997.2 24688 Q 98840 24760 98600 24832 Q 98360 24904 98072 24958 Q 97784 25012 97472 25042 Q 97160 25072 96861.2 25072 Q 96117.2 25072 95481.2 24880 Q 94845.2 24688 94383.2 24220 Q 93921.2 23752 93657.2 22954 Q 93393.2 22156 93393.2 20945.2 L 93393.2 13300 L 91534.4 13300 L 91534.4 12329.2 L 93393.2 11393.2 L 94329.2 8633.2 L 95590.4 8633.2 L 95590.4 11657.2 L 98902.4 11657.2 L 98902.4 13300 L 95590.4 13300 L 95590.4 20945.2 Q 95590.4 22108 95968.4 22696 Q 96346.4 23284 97210.4 23284 L 97208 23282.8 Z M 106899.6 24832 L 106454.4 23008 L 106358.4 23008 Q 105963.6 23546.8 105567.6 23936.8 Q 105171.6 24326.8 104703.6 24578.8 Q 104235.6 24830.8 103659.6 24950.8 Q 103083.6 25070.8 102326.4 25070.8 Q 101499.6 25070.8 100803.6 24836.8 Q 100107.6 24602.8 99597.6 24116.8 Q 99087.6 23630.8 98799.6 22892.8 Q 98511.6 22154.8 98511.6 21146.8 Q 98511.6 19178.8 99897.6 18122.8 Q 101283.6 17066.8 104115.6 16970.8 L 106323.6 16888 L 106323.6 16058.8 Q 106323.6 15256 106149.6 14716 Q 105975.6 14176 105645.6 13846 Q 105315.6 13516 104829.6 13372 Q 104343.6 13228 103719.6 13228 Q 102724.8 13228 101866.8 13516 Q 101008.8 13804 100216.8 14212 L 99448.8 12569.2 Q 100336.8 12089.2 101428.8 11753.2 Q 102520.8 11417.2 103720.8 11417.2 Q 104944.8 11417.2 105838.8 11663.2 Q 106732.8 11909.2 107314.8 12443.2 Q 107896.8 12977.2 108184.8 13805.2 Q 108472.8 14633.2 108472.8 15809.2 L 108472.8 24833.2 L 106902 24833.2 L 106899.6 24832 Z M 102891.6 23306.8 Q 103622.4 23306.8 104246.4 23078.8 Q 104870.4 22850.8 105326.4 22388.8 Q 105782.4 21926.8 106040.4 21224.8 Q 106298.4 20522.8 106298.4 19576 L 106298.4 18386.8 L 104581.2 18472 Q 103501.2 18520 102769.2 18712 Q 102037.2 18904 101599.2 19246 Q 101161.2 19588 100969.2 20074 Q 100777.2 20560 100777.2 21170.8 Q 100777.2 22274.8 101359.2 22790.8 Q 101941.2 23306.8 102890.4 23306.8 L 102891.6 23306.8 Z M 112560 24832 L 110376 24832 L 110376 6160 L 112560 6160 L 112560 24832 Z M 119833.6 25072 Q 118513.6 25072 117421.6 24628 Q 116329.6 24184 115543.6 23332 Q 114757.6 22480 114325.6 21220 Q 113893.6 19960 113893.6 18338.8 Q 113893.6 16706.8 114289.6 15422.8 Q 114685.6 14138.8 115405.6 13244.8 Q 116125.6 12350.8 117127.6 11882.8 Q 118129.6 11414.8 119342.8 11414.8 Q 120529.6 11414.8 121477.6 11840.8 Q 122425.6 12266.8 123085.6 13040.8 Q 123745.6 13814.8 124099.6 14900.8 Q 124453.6 15986.8 124453.6 17306.8 L 124453.6 18664 L 116149.6 18664 Q 116208.4 20978.8 117126.4 22070.8 Q 118044.4 23162.8 119855.2 23162.8 Q 120468.4 23162.8 120990.4 23102.8 Q 121512.4 23042.8 121998.4 22928.8 Q 122484.4 22814.8 122940.4 22640.8 Q 123396.4 22466.8 123863.2 22250.8 L 123863.2 24194.8 Q 123383.2 24424 122921.2 24592 Q 122459.2 24760 121973.2 24868 Q 121487.2 24976 120965.2 25024 Q 120443.2 25072 119830 25072 L 119833.6 25072 Z M 119294.8 13226.8 Q 117926.8 13226.8 117128.8 14162.8 Q 116330.8 15098.8 116200 16888 L 122104 16888 Q 122104 16072 121942 15394 Q 121780 14716 121438 14236 Q 121096 13756 120568 13492 Q 120040 13228 119296 13228 L 119294.8 13226.8 Z M 130673.6 25072 Q 129462.8 25072 128406.8 24694 Q 127350.8 24316 126570.8 23494 Q 125790.8 22672 125346.8 21394 Q 124902.8 20116 124902.8 18316 Q 124902.8 16433.2 125358.8 15119.2 Q 125814.8 13805.2 126612.8 12983.2 Q 127410.8 12161.2 128478.8 11789.2 Q 129546.8 11417.2 130770.8 11417.2 Q 131706.8 11417.2 132600.8 11621.2 Q 133494.8 11825.2 134094.8 12124 L 133446.8 13972 Q 133169.6 13852 132833.6 13738 Q 132497.6 13624 132137.6 13534 Q 131777.6 13444 131429.6 13390 Q 131081.6 13336 130769.6 13336 Q 128886.8 13336 128022.8 14542 Q 127158.8 15748 127158.8 18292 Q 127158.8 20825.2 128028.8 21995.2 Q 128898.8 23165.2 130674.8 23165.2 Q 131648 23165.2 132434 22943.2 Q 133220 22721.2 133868 22420 L 133868 24364 Q 133220 24713.2 132482 24893.2 Q 131744 25073.2 130674.8 25073.2 L 130673.6 25072 Z M 140160 25072 Q 138840 25072 137748 24628 Q 136656 24184 135870 23332 Q 135084 22480 134652 21220 Q 134220 19960 134220 18338.8 Q 134220 16706.8 134616 15422.8 Q 135012 14138.8 135732 13244.8 Q 136452 12350.8 137454 11882.8 Q 138456 11414.8 139669.2 11414.8 Q 140856 11414.8 141804 11840.8 Q 142752 12266.8 143412 13040.8 Q 144072 13814.8 144426 14900.8 Q 144780 15986.8 144780 17306.8 L 144780 18664 L 136476 18664 Q 136534.8 20978.8 137452.8 22070.8 Q 138370.8 23162.8 140181.6 23162.8 Q 140794.8 23162.8 141316.8 23102.8 Q 141838.8 23042.8 142324.8 22928.8 Q 142810.8 22814.8 143266.8 22640.8 Q 143722.8 22466.8 144189.6 22250.8 L 144189.6 24194.8 Q 143709.6 24424 143247.6 24592 Q 142785.6 24760 142299.6 24868 Q 141813.6 24976 141291.6 25024 Q 140769.6 25072 140156.4 25072 L 140160 25072 Z M 139621.2 13226.8 Q 138253.2 13226.8 137455.2 14162.8 Q 136657.2 15098.8 136526.4 16888 L 142430.4 16888 Q 142430.4 16072 142268.4 15394 Q 142106.4 14716 141764.4 14236 Q 141422.4 13756 140894.4 13492 Q 140366.4 13228 139622.4 13228 L 139621.2 13226.8 Z M 145637.2 23498.8 Q 145637.2 23042.8 145757.2 22724.8 Q 145877.2 22406.8 146081.2 22208.8 Q 146285.2 22010.8 146561.2 21920.8 Q 146837.2 21830.8 147160 21830.8 Q 147472 21830.8 147754 21920.8 Q 148036 22010.8 148240 22208.8 Q 148444 22406.8 148564 22724.8 Q 148684 23042.8 148684 23498.8 Q 148684 23944 148564 24262 Q 148444 24580 148240 24785.2 Q 148036 24990.4 147754 25086.4 Q 147472 25182.4 147160 25182.4 Q 146837.2 25182.4 146561.2 25086.4 Q 146285.2 24990.4 146081.2 24785.2 Q 145877.2 24580 145757.2 24262 Q 145637.2 23944 145637.2 23498.8  Z M 150091.6 23498.8 Q 150091.6 23042.8 150211.6 22724.8 Q 150331.6 22406.8 150535.6 22208.8 Q 150739.6 22010.8 151015.6 21920.8 Q 151291.6 21830.8 151614.4 21830.8 Q 151926.4 21830.8 152208.4 21920.8 Q 152490.4 22010.8 152694.4 22208.8 Q 152898.4 22406.8 153018.4 22724.8 Q 153138.4 23042.8 153138.4 23498.8 Q 153138.4 23944 153018.4 24262 Q 152898.4 24580 152694.4 24785.2 Q 152490.4 24990.4 152208.4 25086.4 Q 151926.4 25182.4 151614.4 25182.4 Q 151291.6 25182.4 151015.6 25086.4 Q 150739.6 24990.4 150535.6 24785.2 Q 150331.6 24580 150211.6 24262 Q 150091.6 23944 150091.6 23498.8  Z M 154546 23498.8 Q 154546 23042.8 154666 22724.8 Q 154786 22406.8 154990 22208.8 Q 155194 22010.8 155470 21920.8 Q 155746 21830.8 156068.8 21830.8 Q 156380.8 21830.8 156662.8 21920.8 Q 156944.8 22010.8 157148.8 22208.8 Q 157352.8 22406.8 157472.8 22724.8 Q 157592.8 23042.8 157592.8 23498.8 Q 157592.8 23944 157472.8 24262 Q 157352.8 24580 157148.8 24785.2 Q 156944.8 24990.4 156662.8 25086.4 Q 156380.8 25182.4 156068.8 25182.4 Q 155746 25182.4 155470 25086.4 Q 155194 24990.4 154990 24785.2 Q 154786 24580 154666 24262 Q 154546 23944 154546 23498.8  Z " fill-rule="nonzero" style="fill:#f2f2f2;;fill-opacity:1;"/>
</svg>