<svg version="1.1" x="0" y="0" width="100%" height="100%" viewBox="0 0 38758.4 31692.8" xmlns="http://www.w3.org/2000/svg">
  <path d="M 20268.8 16034.8 Q 20268.8 18160 19962.8 19840 Q 19656.8 21520 18978.8 22684 Q 18300.8 23848 17232.8 24460 Q 16164.8 25072 14642 25072 Q 13226 25072 12176 24460 Q 11126 23848 10436 22684 Q 9746 21520 9404 19840 Q 9062 18160 9062 16034.8 Q 9062 13912 9368 12232 Q 9674 10552 10340 9394 Q 11006 8236 12068 7624 Q 13130 7012 14642 7012 Q 16068.8 7012 17124.8 7618 Q 18180.8 8224 18876.8 9382 Q 19572.8 10540 19920.8 12220 Q 20268.8 13900 20268.8 16036 L 20268.8 16034.8 Z M 11282 16034.8 Q 11282 17834.8 11462 19178.8 Q 11642 20522.8 12038 21416.8 Q 12434 22310.8 13076 22760.8 Q 13718 23210.8 14643.2 23210.8 Q 15566 23210.8 16214 22766.8 Q 16862 22322.8 17276 21434.8 Q 17690 20546.8 17876 19196.8 Q 18062 17846.8 18062 16033.6 Q 18062 14233.6 17876 12889.6 Q 17690 11545.6 17276 10657.6 Q 16862 9769.6 16214 9325.6 Q 15566 8881.6 14643.2 8881.6 Q 13718 8881.6 13076 9325.6 Q 12434 9769.6 12038 10657.6 Q 11642 11545.6 11462 12889.6 Q 11282 14233.6 11282 16033.6 L 11282 16034.8 Z M 31449.6 24832 L 20505.6 24832 L 20505.6 22960 L 24705.6 18386.8 Q 25606.8 17416 26314.8 16612 Q 27022.8 15808 27520.8 15040 Q 28018.8 14272 28282.8 13498 Q 28546.8 12724 28546.8 11812 Q 28546.8 11105.2 28342.8 10565.2 Q 28138.8 10025.2 27760.8 9647.2 Q 27382.8 9269.2 26866.8 9077.2 Q 26350.8 8885.2 25713.6 8885.2 Q 24574.8 8885.2 23656.8 9347.2 Q 22738.8 9809.2 21912 10529.2 L 20688 9100 Q 21168 8668 21720 8290 Q 22272 7912 22908 7636 Q 23544 7360 24252 7198 Q 24960 7036 25738.8 7036 Q 26890.8 7036 27820.8 7360 Q 28750.8 7684 29398.8 8290 Q 30046.8 8896 30400.8 9766 Q 30754.8 10636 30754.8 11729.2 Q 30754.8 12748 30436.8 13672 Q 30118.8 14596 29560.8 15490 Q 29002.8 16384 28228.8 17284 Q 27454.8 18184 26553.6 19154.8 L 23182.8 22744 L 23182.8 22840 L 31449.6 22840 L 31449.6 24832 Z " fill-rule="nonzero" style="fill:#535353;;fill-opacity:1;"/>
</svg>