<svg version="1.1" x="0" y="0" width="100%" height="100%" viewBox="0 0 257075.2 32563.2" xmlns="http://www.w3.org/2000/svg">
  <path d="M 140779.6 15341.75 Q 140779.6 17470.4 140227.6 19074.65 Q 139675.6 20678.9 138629.1 21754.15 Q 137582.6 22829.4 136058.85 23369.9 Q 134535.1 23910.4 132603.1 23910.4 L 128394.1 23910.4 L 128394.1 7097.4 L 133073.45 7097.4 Q 134834.1 7097.4 136260.1 7626.4 Q 137686.1 8155.4 138686.6 9196.15 Q 139687.1 10236.9 140233.35 11777.9 Q 140779.6 13318.9 140779.6 15342.9 L 140779.6 15341.75 Z M 138515.25 15410.75 Q 138515.25 13731.75 138135.75 12507 Q 137756.25 11282.25 137031.75 10488.75 Q 136307.25 9695.25 135249.25 9310 Q 134191.25 8924.75 132844.6 8924.75 L 130534.25 8924.75 L 130534.25 22070.4 L 132397.25 22070.4 Q 135433.25 22070.4 136974.25 20391.4 Q 138515.25 18712.4 138515.25 15410.75  Z M 144228.4 23910.4 L 142135.4 23910.4 L 142135.4 11283.4 L 144228.4 11283.4 L 144228.4 23910.4 Z M 141974.4 7866.75 Q 141974.4 7176.75 142325.15 6866.25 Q 142675.9 6555.75 143192.25 6555.75 Q 143445.25 6555.75 143669.5 6630.5 Q 143893.75 6705.25 144060.5 6866.25 Q 144227.25 7027.25 144325 7274.5 Q 144422.75 7521.75 144422.75 7866.75 Q 144422.75 8533.75 144060.5 8861.5 Q 143698.25 9189.25 143192.25 9189.25 Q 142675.9 9189.25 142325.15 8867.25 Q 141974.4 8545.25 141974.4 7865.6 L 141974.4 7866.75 Z M 153685.65 20447.75 Q 153685.65 21367.75 153352.15 22057.75 Q 153018.65 22747.75 152391.9 23213.5 Q 151765.15 23679.25 150879.65 23909.25 Q 149994.15 24139.25 148890.15 24139.25 Q 147637.8 24139.25 146740.8 23938 Q 145843.8 23736.75 145164.15 23345.75 L 145164.15 21436.75 Q 145521.8 21620.75 145958.8 21799 Q 146395.8 21977.25 146878.8 22115.25 Q 147361.8 22253.25 147873.55 22339.5 Q 148385.3 22425.75 148891.3 22425.75 Q 149639.95 22425.75 150163.2 22299.25 Q 150686.45 22172.75 151014.2 21937 Q 151341.95 21701.25 151491.45 21362 Q 151640.95 21022.75 151640.95 20608.75 Q 151640.95 20253.4 151525.95 19965.9 Q 151410.95 19678.4 151106.2 19396.65 Q 150801.45 19114.9 150272.45 18827.4 Q 149743.45 18539.9 148915.45 18184.55 Q 148087.45 17826.9 147426.2 17481.9 Q 146764.95 17136.9 146304.95 16711.4 Q 145844.95 16285.9 145597.7 15728.15 Q 145350.45 15170.4 145350.45 14398.75 Q 145350.45 13593.75 145666.7 12967 Q 145982.95 12340.25 146557.95 11914.75 Q 147132.95 11489.25 147937.95 11270.75 Q 148742.95 11052.25 149731.95 11052.25 Q 150846.3 11052.25 151772.05 11293.75 Q 152697.8 11535.25 153525.8 11926.25 L 152800.15 13615.6 Q 152053.8 13283.25 151266.05 13036 Q 150478.3 12788.75 149662.95 12788.75 Q 148489.95 12788.75 147926.45 13174 Q 147362.95 13559.25 147362.95 14272.25 Q 147362.95 14673.6 147495.2 14972.6 Q 147627.45 15271.6 147949.45 15536.1 Q 148271.45 15800.6 148811.95 16070.85 Q 149352.45 16341.1 150157.45 16673.45 Q 150985.45 17018.45 151635.2 17363.45 Q 152284.95 17708.45 152744.95 18139.7 Q 153204.95 18570.95 153446.45 19122.95 Q 153687.95 19674.95 153687.95 20444.3 L 153685.65 20447.75 Z M 159670.4 24140.4 Q 158405.4 24140.4 157358.9 23714.9 Q 156312.4 23289.4 155559.15 22472.9 Q 154805.9 21656.4 154391.9 20448.9 Q 153977.9 19241.4 153977.9 17687.75 Q 153977.9 16123.75 154357.4 14893.25 Q 154736.9 13662.75 155426.9 12806 Q 156116.9 11949.25 157077.15 11500.75 Q 158037.4 11052.25 159200.05 11052.25 Q 160337.4 11052.25 161245.9 11460.5 Q 162154.4 11868.75 162786.9 12610.5 Q 163419.4 13352.25 163758.65 14393 Q 164097.9 15433.75 164097.9 16698.75 L 164097.9 17999.4 L 156139.9 17999.4 Q 156196.25 20217.75 157076 21264.25 Q 157955.75 22310.75 159691.1 22310.75 Q 160278.75 22310.75 160779 22253.25 Q 161279.25 22195.75 161745 22086.5 Q 162210.75 21977.25 162647.75 21810.5 Q 163084.75 21643.75 163532.1 21436.75 L 163532.1 23299.75 Q 163072.1 23519.4 162629.35 23680.4 Q 162186.6 23841.4 161720.85 23944.9 Q 161255.1 24048.4 160754.85 24094.4 Q 160254.6 24140.4 159666.95 24140.4 L 159670.4 24140.4 Z M 159154.05 12788.75 Q 157843.05 12788.75 157078.3 13685.75 Q 156313.55 14582.75 156188.2 16297.4 L 161846.2 16297.4 Q 161846.2 15515.4 161690.95 14865.65 Q 161535.7 14215.9 161207.95 13755.9 Q 160880.2 13295.9 160374.2 13042.9 Q 159868.2 12789.9 159155.2 12789.9 L 159154.05 12788.75 Z M 173064.4 23910.4 L 173064.4 15778.75 Q 173064.4 14283.75 172460.65 13536.25 Q 171856.9 12788.75 170568.9 12788.75 Q 169636.25 12788.75 169003.75 13087.75 Q 168371.25 13386.75 167986 13973.25 Q 167600.75 14559.75 167434 15410.75 Q 167267.25 16261.75 167267.25 17365.75 L 167267.25 23910.4 L 165174.25 23910.4 L 165174.25 11283.4 L 166876.25 11283.4 L 167175.25 12985.4 L 167290.25 12985.4 Q 167578.9 12489.75 167975.65 12127.5 Q 168372.4 11765.25 168843.9 11523.75 Q 169315.4 11282.25 169844.4 11167.25 Q 170373.4 11052.25 170925.4 11052.25 Q 173031.05 11052.25 174094.8 12150.5 Q 175158.55 13248.75 175158.55 15663.75 L 175158.55 23910.4 L 173065.55 23910.4 L 173064.4 23910.4 Z M 171885.65 9614.75 Q 171425.65 9614.75 170971.4 9413.5 Q 170517.15 9212.25 170080.15 8965 Q 169643.15 8717.75 169240.65 8516.5 Q 168838.15 8315.25 168470.15 8315.25 Q 167951.5 8315.25 167675.5 8620 Q 167399.5 8924.75 167238.5 9637.75 L 166042.5 9637.75 Q 166101.15 8947.75 166290.9 8384.25 Q 166480.65 7820.75 166785.4 7424 Q 167090.15 7027.25 167515.65 6814.5 Q 167941.15 6601.75 168470.15 6601.75 Q 168953.15 6601.75 169418.9 6803 Q 169884.65 7004.25 170321.65 7245.75 Q 170758.65 7487.25 171155.4 7688.5 Q 171552.15 7889.75 171884.5 7889.75 Q 172403.15 7889.75 172667.65 7590.75 Q 172932.15 7291.75 173103.5 6578.75 L 174312.15 6578.75 Q 174253.5 7268.75 174063.75 7826.5 Q 173874 8384.25 173569.25 8781 Q 173264.5 9177.75 172839 9396.25 Q 172413.5 9614.75 171884.5 9614.75 L 171885.65 9614.75 Z M 184071.05 23910.4 L 183644.4 22162.4 L 183552.4 22162.4 Q 183174.05 22678.75 182794.55 23052.5 Q 182415.05 23426.25 181966.55 23667.75 Q 181518.05 23909.25 180966.05 24024.25 Q 180414.05 24139.25 179688.4 24139.25 Q 178896.05 24139.25 178229.05 23915 Q 177562.05 23690.75 177073.3 23225 Q 176584.55 22759.25 176308.55 22052 Q 176032.55 21344.75 176032.55 20378.75 Q 176032.55 18492.75 177360.8 17480.75 Q 178689.05 16468.75 181403.05 16376.75 L 183519.05 16297.4 L 183519.05 15502.75 Q 183519.05 14733.4 183352.3 14215.9 Q 183185.55 13698.4 182869.3 13382.15 Q 182553.05 13065.9 182087.3 12927.9 Q 181621.55 12789.9 181023.55 12789.9 Q 180070.2 12789.9 179247.95 13065.9 Q 178425.7 13341.9 177666.7 13732.9 L 176930.7 12158.55 Q 177781.7 11698.55 178828.2 11376.55 Q 179874.7 11054.55 181024.7 11054.55 Q 182197.7 11054.55 183054.45 11290.3 Q 183911.2 11526.05 184468.95 12037.8 Q 185026.7 12549.55 185302.7 13343.05 Q 185578.7 14136.55 185578.7 15263.55 L 185578.7 23911.55 L 184073.35 23911.55 L 184071.05 23910.4 Z M 180230.05 22448.75 Q 180930.4 22448.75 181528.4 22230.25 Q 182126.4 22011.75 182563.4 21569 Q 183000.4 21126.25 183247.65 20453.5 Q 183494.9 19780.75 183494.9 18873.4 L 183494.9 17733.75 L 181849.25 17815.4 Q 180814.25 17861.4 180112.75 18045.4 Q 179411.25 18229.4 178991.5 18557.15 Q 178571.75 18884.9 178387.75 19350.65 Q 178203.75 19816.4 178203.75 20401.75 Q 178203.75 21459.75 178761.5 21954.25 Q 179319.25 22448.75 180228.9 22448.75 L 180230.05 22448.75 Z M 192808.65 11053.4 Q 193141 11053.4 193555 11082.15 Q 193969 11110.9 194268 11169.55 L 193992 13101.55 Q 193670 13042.9 193330.75 13002.65 Q 192991.5 12962.4 192692.5 12962.4 Q 191966.85 12962.4 191368.85 13255.65 Q 190770.85 13548.9 190339.6 14095.15 Q 189908.35 14641.4 189672.6 15406.15 Q 189436.85 16170.9 189436.85 17103.55 L 189436.85 23911.55 L 187343.85 23911.55 L 187343.85 11284.55 L 189045.85 11284.55 L 189298.85 13594.9 L 189390.85 13594.9 Q 189679.5 13101.55 190007.25 12641.55 Q 190335 12181.55 190743.25 11830.8 Q 191151.5 11480.05 191657.5 11267.3 Q 192163.5 11054.55 192807.5 11054.55 L 192808.65 11053.4 Z M 199708.8 24140.4 Q 198443.8 24140.4 197397.3 23714.9 Q 196350.8 23289.4 195597.55 22472.9 Q 194844.3 21656.4 194430.3 20448.9 Q 194016.3 19241.4 194016.3 17687.75 Q 194016.3 16123.75 194395.8 14893.25 Q 194775.3 13662.75 195465.3 12806 Q 196155.3 11949.25 197115.55 11500.75 Q 198075.8 11052.25 199238.45 11052.25 Q 200375.8 11052.25 201284.3 11460.5 Q 202192.8 11868.75 202825.3 12610.5 Q 203457.8 13352.25 203797.05 14393 Q 204136.3 15433.75 204136.3 16698.75 L 204136.3 17999.4 L 196178.3 17999.4 Q 196234.65 20217.75 197114.4 21264.25 Q 197994.15 22310.75 199729.5 22310.75 Q 200317.15 22310.75 200817.4 22253.25 Q 201317.65 22195.75 201783.4 22086.5 Q 202249.15 21977.25 202686.15 21810.5 Q 203123.15 21643.75 203570.5 21436.75 L 203570.5 23299.75 Q 203110.5 23519.4 202667.75 23680.4 Q 202225 23841.4 201759.25 23944.9 Q 201293.5 24048.4 200793.25 24094.4 Q 200293 24140.4 199705.35 24140.4 L 199708.8 24140.4 Z M 199192.45 12788.75 Q 197881.45 12788.75 197116.7 13685.75 Q 196351.95 14582.75 196226.6 16297.4 L 201884.6 16297.4 Q 201884.6 15515.4 201729.35 14865.65 Q 201574.1 14215.9 201246.35 13755.9 Q 200918.6 13295.9 200412.6 13042.9 Q 199906.6 12789.9 199193.6 12789.9 L 199192.45 12788.75 Z M 220337.45 23910.4 L 220337.45 15778.75 Q 220337.45 14283.75 219762.45 13536.25 Q 219187.45 12788.75 217978.8 12788.75 Q 217140.45 12788.75 216553.95 13059 Q 215967.45 13329.25 215593.7 13852.5 Q 215219.95 14375.75 215047.45 15152 Q 214874.95 15928.25 214874.95 16940.25 L 214874.95 23909.25 L 212771.6 23909.25 L 212771.6 15777.6 Q 212771.6 14282.6 212202.35 13535.1 Q 211633.1 12787.6 210426.75 12787.6 Q 209540.1 12787.6 208942.1 13086.6 Q 208344.1 13385.6 207981.85 13972.1 Q 207619.6 14558.6 207464.35 15409.6 Q 207309.1 16260.6 207309.1 17364.6 L 207309.1 23909.25 L 205216.1 23909.25 L 205216.1 11282.25 L 206918.1 11282.25 L 207217.1 12984.25 L 207332.1 12984.25 Q 207608.1 12488.6 207987.6 12126.35 Q 208367.1 11764.1 208821.35 11522.6 Q 209275.6 11281.1 209787.35 11166.1 Q 210299.1 11051.1 210828.1 11051.1 Q 212208.1 11051.1 213122.35 11557.1 Q 214036.6 12063.1 214473.6 13144.1 L 214565.6 13144.1 Q 214864.6 12602.45 215284.35 12211.45 Q 215704.1 11820.45 216204.35 11561.7 Q 216704.6 11302.95 217256.6 11176.45 Q 217808.6 11049.95 218383.6 11049.95 Q 220394.95 11049.95 221412.7 12148.2 Q 222430.45 13246.45 222430.45 15661.45 L 222430.45 23908.1 L 220337.45 23908.1 L 220337.45 23910.4 Z M 234553.85 17572.75 Q 234553.85 19149.4 234168.6 20374.15 Q 233783.35 21598.9 233064.6 22432.65 Q 232345.85 23266.4 231322.35 23703.4 Q 230298.85 24140.4 229021.2 24140.4 Q 227837.85 24140.4 226837.35 23703.4 Q 225836.85 23266.4 225106.6 22432.65 Q 224376.35 21598.9 223968.1 20374.15 Q 223559.85 19149.4 223559.85 17572.75 Q 223559.85 16008.75 223945.1 14795.5 Q 224330.35 13582.25 225043.35 12748.5 Q 225756.35 11914.75 226785.6 11483.5 Q 227814.85 11052.25 229090.2 11052.25 Q 230275.85 11052.25 231276.35 11483.5 Q 232276.85 11914.75 233007.1 12748.5 Q 233737.35 13582.25 234145.6 14795.5 Q 234553.85 16008.75 234553.85 17572.75  Z M 225721.85 17572.75 Q 225721.85 19977.4 226509.6 21190.65 Q 227297.35 22403.9 229068.35 22403.9 Q 230839.35 22403.9 231615.6 21190.65 Q 232391.85 19977.4 232391.85 17572.75 Q 232391.85 15170.4 231604.1 13980.15 Q 230816.35 12789.9 229045.35 12789.9 Q 227274.35 12789.9 226498.1 13980.15 Q 225721.85 15170.4 225721.85 17572.75  Z M 243388.05 20447.75 Q 243388.05 21367.75 243054.55 22057.75 Q 242721.05 22747.75 242094.3 23213.5 Q 241467.55 23679.25 240582.05 23909.25 Q 239696.55 24139.25 238592.55 24139.25 Q 237340.2 24139.25 236443.2 23938 Q 235546.2 23736.75 234866.55 23345.75 L 234866.55 21436.75 Q 235224.2 21620.75 235661.2 21799 Q 236098.2 21977.25 236581.2 22115.25 Q 237064.2 22253.25 237575.95 22339.5 Q 238087.7 22425.75 238593.7 22425.75 Q 239342.35 22425.75 239865.6 22299.25 Q 240388.85 22172.75 240716.6 21937 Q 241044.35 21701.25 241193.85 21362 Q 241343.35 21022.75 241343.35 20608.75 Q 241343.35 20253.4 241228.35 19965.9 Q 241113.35 19678.4 240808.6 19396.65 Q 240503.85 19114.9 239974.85 18827.4 Q 239445.85 18539.9 238617.85 18184.55 Q 237789.85 17826.9 237128.6 17481.9 Q 236467.35 17136.9 236007.35 16711.4 Q 235547.35 16285.9 235300.1 15728.15 Q 235052.85 15170.4 235052.85 14398.75 Q 235052.85 13593.75 235369.1 12967 Q 235685.35 12340.25 236260.35 11914.75 Q 236835.35 11489.25 237640.35 11270.75 Q 238445.35 11052.25 239434.35 11052.25 Q 240548.7 11052.25 241474.45 11293.75 Q 242400.2 11535.25 243228.2 11926.25 L 242502.55 13615.6 Q 241756.2 13283.25 240968.45 13036 Q 240180.7 12788.75 239365.35 12788.75 Q 238192.35 12788.75 237628.85 13174 Q 237065.35 13559.25 237065.35 14272.25 Q 237065.35 14673.6 237197.6 14972.6 Q 237329.85 15271.6 237651.85 15536.1 Q 237973.85 15800.6 238514.35 16070.85 Q 239054.85 16341.1 239859.85 16673.45 Q 240687.85 17018.45 241337.6 17363.45 Q 241987.35 17708.45 242447.35 18139.7 Q 242907.35 18570.95 243148.85 19122.95 Q 243390.35 19674.95 243390.35 20444.3 L 243388.05 20447.75 Z M 244072.45 22632.75 Q 244072.45 22195.75 244187.45 21891 Q 244302.45 21586.25 244497.95 21396.5 Q 244693.45 21206.75 244957.95 21120.5 Q 245222.45 21034.25 245531.8 21034.25 Q 245830.8 21034.25 246101.05 21120.5 Q 246371.3 21206.75 246566.8 21396.5 Q 246762.3 21586.25 246877.3 21891 Q 246992.3 22195.75 246992.3 22632.75 Q 246992.3 23059.4 246877.3 23364.15 Q 246762.3 23668.9 246566.8 23865.55 Q 246371.3 24062.2 246101.05 24154.2 Q 245830.8 24246.2 245531.8 24246.2 Q 245222.45 24246.2 244957.95 24154.2 Q 244693.45 24062.2 244497.95 23865.55 Q 244302.45 23668.9 244187.45 23364.15 Q 244072.45 23059.4 244072.45 22632.75  Z M 248270.85 22632.75 Q 248270.85 22195.75 248385.85 21891 Q 248500.85 21586.25 248696.35 21396.5 Q 248891.85 21206.75 249156.35 21120.5 Q 249420.85 21034.25 249730.2 21034.25 Q 250029.2 21034.25 250299.45 21120.5 Q 250569.7 21206.75 250765.2 21396.5 Q 250960.7 21586.25 251075.7 21891 Q 251190.7 22195.75 251190.7 22632.75 Q 251190.7 23059.4 251075.7 23364.15 Q 250960.7 23668.9 250765.2 23865.55 Q 250569.7 24062.2 250299.45 24154.2 Q 250029.2 24246.2 249730.2 24246.2 Q 249420.85 24246.2 249156.35 24154.2 Q 248891.85 24062.2 248696.35 23865.55 Q 248500.85 23668.9 248385.85 23364.15 Q 248270.85 23059.4 248270.85 22632.75  Z M 252469.25 22632.75 Q 252469.25 22195.75 252584.25 21891 Q 252699.25 21586.25 252894.75 21396.5 Q 253090.25 21206.75 253354.75 21120.5 Q 253619.25 21034.25 253928.6 21034.25 Q 254227.6 21034.25 254497.85 21120.5 Q 254768.1 21206.75 254963.6 21396.5 Q 255159.1 21586.25 255274.1 21891 Q 255389.1 22195.75 255389.1 22632.75 Q 255389.1 23059.4 255274.1 23364.15 Q 255159.1 23668.9 254963.6 23865.55 Q 254768.1 24062.2 254497.85 24154.2 Q 254227.6 24246.2 253928.6 24246.2 Q 253619.25 24246.2 253354.75 24154.2 Q 253090.25 24062.2 252894.75 23865.55 Q 252699.25 23668.9 252584.25 23364.15 Q 252469.25 23059.4 252469.25 22632.75  Z " fill-rule="nonzero" style="fill:#e01000;;fill-opacity:1;"/>
</svg>