<svg version="1.1" x="0" y="0" width="100%" height="100%" viewBox="0 0 250521.6 47052.8" xmlns="http://www.w3.org/2000/svg">
  <path d="M 44403.6 24832 L 42171.6 24832 L 42171.6 7288 L 51278.4 7288 L 51278.4 9256 L 44403.6 9256 L 44403.6 15448 L 50822.4 15448 L 50822.4 17416 L 44403.6 17416 L 44403.6 24832 Z M 54038.4 24832 L 51854.4 24832 L 51854.4 6160 L 54038.4 6160 L 54038.4 24832 Z M 61312 25072 Q 59992 25072 58900 24628 Q 57808 24184 57022 23332 Q 56236 22480 55804 21220 Q 55372 19960 55372 18338.8 Q 55372 16706.8 55768 15422.8 Q 56164 14138.8 56884 13244.8 Q 57604 12350.8 58606 11882.8 Q 59608 11414.8 60821.2 11414.8 Q 62008 11414.8 62956 11840.8 Q 63904 12266.8 64564 13040.8 Q 65224 13814.8 65578 14900.8 Q 65932 15986.8 65932 17306.8 L 65932 18664 L 57628 18664 Q 57686.8 20978.8 58604.8 22070.8 Q 59522.8 23162.8 61333.6 23162.8 Q 61946.8 23162.8 62468.8 23102.8 Q 62990.8 23042.8 63476.8 22928.8 Q 63962.8 22814.8 64418.8 22640.8 Q 64874.8 22466.8 65341.6 22250.8 L 65341.6 24194.8 Q 64861.6 24424 64399.6 24592 Q 63937.6 24760 63451.6 24868 Q 62965.6 24976 62443.6 25024 Q 61921.6 25072 61308.4 25072 L 61312 25072 Z M 60773.2 13226.8 Q 59405.2 13226.8 58607.2 14162.8 Q 57809.2 15098.8 57678.4 16888 L 63582.4 16888 Q 63582.4 16072 63420.4 15394 Q 63258.4 14716 62916.4 14236 Q 62574.4 13756 62046.4 13492 Q 61518.4 13228 60774.4 13228 L 60773.2 13226.8 Z M 69920 18074.8 L 65685.2 11656 L 68168 11656 L 71168 16576 L 74168 11656 L 76653.2 11656 L 72392 18074.8 L 76869.2 24832 L 74384 24832 L 71168 19600 L 67928 24832 L 65445.2 24832 L 69920 18074.8 Z M 79536 24832 L 77352 24832 L 77352 11656 L 79536 11656 L 79536 24832 Z M 77184 8090.8 Q 77184 7370.8 77550 7046.8 Q 77916 6722.8 78454.8 6722.8 Q 78718.8 6722.8 78952.8 6800.8 Q 79186.8 6878.8 79360.8 7046.8 Q 79534.8 7214.8 79636.8 7472.8 Q 79738.8 7730.8 79738.8 8090.8 Q 79738.8 8786.8 79360.8 9128.8 Q 78982.8 9470.8 78454.8 9470.8 Q 77916 9470.8 77550 9134.8 Q 77184 8798.8 77184 8089.6 L 77184 8090.8 Z M 87553.6 11416 Q 88681.6 11416 89605.6 11848 Q 90529.6 12280 91183.6 13138 Q 91837.6 13996 92197.6 15268 Q 92557.6 16540 92557.6 18220 Q 92557.6 19913.2 92197.6 21191.2 Q 91837.6 22469.2 91183.6 23333.2 Q 90529.6 24197.2 89605.6 24635.2 Q 88681.6 25073.2 87553.6 25073.2 Q 86846.8 25073.2 86270.8 24917.2 Q 85694.8 24761.2 85232.8 24503.2 Q 84770.8 24245.2 84416.8 23897.2 Q 84062.8 23549.2 83785.6 23165.2 L 83641.6 23165.2 L 83198.8 24834.4 L 81601.6 24834.4 L 81601.6 6162.4 L 83785.6 6162.4 L 83785.6 10674.4 Q 83785.6 11093.2 83773.6 11567.2 Q 83761.6 12041.2 83737.6 12449.2 Q 83713.6 12929.2 83689.6 13385.2 L 83785.6 13385.2 Q 84062.8 12964 84410.8 12604 Q 84758.8 12244 85220.8 11980 Q 85682.8 11716 86258.8 11566 Q 86834.8 11416 87554.8 11416 L 87553.6 11416 Z M 87134.8 13226.8 Q 86174.8 13226.8 85532.8 13532.8 Q 84890.8 13838.8 84500.8 14462.8 Q 84110.8 15086.8 83948.8 16022.8 Q 83786.8 16958.8 83786.8 18217.6 Q 83786.8 19430.8 83948.8 20372.8 Q 84110.8 21314.8 84500.8 21956.8 Q 84890.8 22598.8 85538.8 22928.8 Q 86186.8 23258.8 87160 23258.8 Q 88778.8 23258.8 89540.8 21950.8 Q 90302.8 20642.8 90302.8 18194.8 Q 90302.8 15698.8 89540.8 14462.8 Q 88778.8 13226.8 87136 13226.8 L 87134.8 13226.8 Z M 96176 24832 L 93992 24832 L 93992 11656 L 96176 11656 L 96176 24832 Z M 93824 8090.8 Q 93824 7370.8 94190 7046.8 Q 94556 6722.8 95094.8 6722.8 Q 95358.8 6722.8 95592.8 6800.8 Q 95826.8 6878.8 96000.8 7046.8 Q 96174.8 7214.8 96276.8 7472.8 Q 96378.8 7730.8 96378.8 8090.8 Q 96378.8 8786.8 96000.8 9128.8 Q 95622.8 9470.8 95094.8 9470.8 Q 94556 9470.8 94190 9134.8 Q 93824 8798.8 93824 8089.6 L 93824 8090.8 Z M 100425.6 24832 L 98241.6 24832 L 98241.6 6160 L 100425.6 6160 L 100425.6 24832 Z M 104675.2 24832 L 102491.2 24832 L 102491.2 11656 L 104675.2 11656 L 104675.2 24832 Z M 102323.2 8090.8 Q 102323.2 7370.8 102689.2 7046.8 Q 103055.2 6722.8 103594 6722.8 Q 103858 6722.8 104092 6800.8 Q 104326 6878.8 104500 7046.8 Q 104674 7214.8 104776 7472.8 Q 104878 7730.8 104878 8090.8 Q 104878 8786.8 104500 9128.8 Q 104122 9470.8 103594 9470.8 Q 103055.2 9470.8 102689.2 9134.8 Q 102323.2 8798.8 102323.2 8089.6 L 102323.2 8090.8 Z M 114876.8 23066.8 L 114780.8 23066.8 Q 114516.8 23474.8 114162.8 23840.8 Q 113808.8 24206.8 113346.8 24482.8 Q 112884.8 24758.8 112308.8 24914.8 Q 111732.8 25070.8 111012.8 25070.8 Q 109898 25070.8 108974 24638.8 Q 108050 24206.8 107390 23348.8 Q 106730 22490.8 106370 21218.8 Q 106010 19946.8 106010 18266.8 Q 106010 16576 106370 15298 Q 106730 14020 107390 13156 Q 108050 12292 108974 11854 Q 109898 11416 111012.8 11416 Q 111722 11416 112298 11572 Q 112874 11728 113336 11992 Q 113798 12256 114158 12604 Q 114518 12952 114782 13336 L 114926 13336 Q 114891.2 12928 114854 12554.8 Q 114830 12242.8 114806 11912.8 Q 114782 11582.8 114782 11390.8 L 114782 6158.8 L 116966 6158.8 L 116966 24830.8 L 115203.2 24830.8 L 114878 23065.6 L 114876.8 23066.8 Z M 111434 23258.8 Q 112346 23258.8 112976 22982.8 Q 113606 22706.8 113996 22142.8 Q 114386 21578.8 114572 20732.8 Q 114758 19886.8 114782 18758.8 L 114782 18265.6 Q 114782 17054.8 114620 16112.8 Q 114458 15170.8 114068 14528.8 Q 113678 13886.8 113030 13556.8 Q 112382 13226.8 111411.2 13226.8 Q 109790 13226.8 109028 14534.8 Q 108266 15842.8 108266 18290.8 Q 108266 20800 109028 22030 Q 109790 23260 111435.2 23260 L 111434 23258.8 Z M 126560.4 24832 L 126115.2 23008 L 126019.2 23008 Q 125624.4 23546.8 125228.4 23936.8 Q 124832.4 24326.8 124364.4 24578.8 Q 123896.4 24830.8 123320.4 24950.8 Q 122744.4 25070.8 121987.2 25070.8 Q 121160.4 25070.8 120464.4 24836.8 Q 119768.4 24602.8 119258.4 24116.8 Q 118748.4 23630.8 118460.4 22892.8 Q 118172.4 22154.8 118172.4 21146.8 Q 118172.4 19178.8 119558.4 18122.8 Q 120944.4 17066.8 123776.4 16970.8 L 125984.4 16888 L 125984.4 16058.8 Q 125984.4 15256 125810.4 14716 Q 125636.4 14176 125306.4 13846 Q 124976.4 13516 124490.4 13372 Q 124004.4 13228 123380.4 13228 Q 122385.6 13228 121527.6 13516 Q 120669.6 13804 119877.6 14212 L 119109.6 12569.2 Q 119997.6 12089.2 121089.6 11753.2 Q 122181.6 11417.2 123381.6 11417.2 Q 124605.6 11417.2 125499.6 11663.2 Q 126393.6 11909.2 126975.6 12443.2 Q 127557.6 12977.2 127845.6 13805.2 Q 128133.6 14633.2 128133.6 15809.2 L 128133.6 24833.2 L 126562.8 24833.2 L 126560.4 24832 Z M 122552.4 23306.8 Q 123283.2 23306.8 123907.2 23078.8 Q 124531.2 22850.8 124987.2 22388.8 Q 125443.2 21926.8 125701.2 21224.8 Q 125959.2 20522.8 125959.2 19576 L 125959.2 18386.8 L 124242 18472 Q 123162 18520 122430 18712 Q 121698 18904 121260 19246 Q 120822 19588 120630 20074 Q 120438 20560 120438 21170.8 Q 120438 22274.8 121020 22790.8 Q 121602 23306.8 122551.2 23306.8 L 122552.4 23306.8 Z M 138172.8 23066.8 L 138076.8 23066.8 Q 137812.8 23474.8 137458.8 23840.8 Q 137104.8 24206.8 136642.8 24482.8 Q 136180.8 24758.8 135604.8 24914.8 Q 135028.8 25070.8 134308.8 25070.8 Q 133194 25070.8 132270 24638.8 Q 131346 24206.8 130686 23348.8 Q 130026 22490.8 129666 21218.8 Q 129306 19946.8 129306 18266.8 Q 129306 16576 129666 15298 Q 130026 14020 130686 13156 Q 131346 12292 132270 11854 Q 133194 11416 134308.8 11416 Q 135018 11416 135594 11572 Q 136170 11728 136632 11992 Q 137094 12256 137454 12604 Q 137814 12952 138078 13336 L 138222 13336 Q 138187.2 12928 138150 12554.8 Q 138126 12242.8 138102 11912.8 Q 138078 11582.8 138078 11390.8 L 138078 6158.8 L 140262 6158.8 L 140262 24830.8 L 138499.2 24830.8 L 138174 23065.6 L 138172.8 23066.8 Z M 134730 23258.8 Q 135642 23258.8 136272 22982.8 Q 136902 22706.8 137292 22142.8 Q 137682 21578.8 137868 20732.8 Q 138054 19886.8 138078 18758.8 L 138078 18265.6 Q 138078 17054.8 137916 16112.8 Q 137754 15170.8 137364 14528.8 Q 136974 13886.8 136326 13556.8 Q 135678 13226.8 134707.2 13226.8 Q 133086 13226.8 132324 14534.8 Q 131562 15842.8 131562 18290.8 Q 131562 20800 132324 22030 Q 133086 23260 134731.2 23260 L 134730 23258.8 Z M 154908.8 24832 L 154908.8 16346.8 Q 154908.8 14786.8 154278.8 14006.8 Q 153648.8 13226.8 152304.8 13226.8 Q 151331.6 13226.8 150671.6 13538.8 Q 150011.6 13850.8 149609.6 14462.8 Q 149207.6 15074.8 149033.6 15962.8 Q 148859.6 16850.8 148859.6 18002.8 L 148859.6 24832 L 146675.6 24832 L 146675.6 6160 L 148859.6 6160 L 148859.6 11704 L 148763.6 13432 L 148883.6 13432 Q 149184.8 12914.8 149598.8 12536.8 Q 150012.8 12158.8 150504.8 11906.8 Q 150996.8 11654.8 151548.8 11534.8 Q 152100.8 11414.8 152676.8 11414.8 Q 154874 11414.8 155984 12560.8 Q 157094 13706.8 157094 16226.8 L 157094 24832 L 154910 24832 L 154908.8 24832 Z M 169808.4 18218.8 Q 169808.4 19864 169406.4 21142 Q 169004.4 22420 168254.4 23290 Q 167504.4 24160 166436.4 24616 Q 165368.4 25072 164035.2 25072 Q 162800.4 25072 161756.4 24616 Q 160712.4 24160 159950.4 23290 Q 159188.4 22420 158762.4 21142 Q 158336.4 19864 158336.4 18218.8 Q 158336.4 16586.8 158738.4 15320.8 Q 159140.4 14054.8 159884.4 13184.8 Q 160628.4 12314.8 161702.4 11864.8 Q 162776.4 11414.8 164107.2 11414.8 Q 165344.4 11414.8 166388.4 11864.8 Q 167432.4 12314.8 168194.4 13184.8 Q 168956.4 14054.8 169382.4 15320.8 Q 169808.4 16586.8 169808.4 18218.8  Z M 160592.4 18218.8 Q 160592.4 20728 161414.4 21994 Q 162236.4 23260 164084.4 23260 Q 165932.4 23260 166742.4 21994 Q 167552.4 20728 167552.4 18218.8 Q 167552.4 15712 166730.4 14470 Q 165908.4 13228 164060.4 13228 Q 162212.4 13228 161402.4 14470 Q 160592.4 15712 160592.4 18218.8  Z M 176902.8 11416 Q 177249.6 11416 177681.6 11446 Q 178113.6 11476 178425.6 11537.2 L 178137.6 13553.2 Q 177801.6 13492 177447.6 13450 Q 177093.6 13408 176781.6 13408 Q 176024.4 13408 175400.4 13714 Q 174776.4 14020 174326.4 14590 Q 173876.4 15160 173630.4 15958 Q 173384.4 16756 173384.4 17729.2 L 173384.4 24833.2 L 171200.4 24833.2 L 171200.4 11657.2 L 172976.4 11657.2 L 173240.4 14068 L 173336.4 14068 Q 173637.6 13553.2 173979.6 13073.2 Q 174321.6 12593.2 174747.6 12227.2 Q 175173.6 11861.2 175701.6 11639.2 Q 176229.6 11417.2 176901.6 11417.2 L 176902.8 11416 Z M 186413.2 24832 L 185968 23008 L 185872 23008 Q 185477.2 23546.8 185081.2 23936.8 Q 184685.2 24326.8 184217.2 24578.8 Q 183749.2 24830.8 183173.2 24950.8 Q 182597.2 25070.8 181840 25070.8 Q 181013.2 25070.8 180317.2 24836.8 Q 179621.2 24602.8 179111.2 24116.8 Q 178601.2 23630.8 178313.2 22892.8 Q 178025.2 22154.8 178025.2 21146.8 Q 178025.2 19178.8 179411.2 18122.8 Q 180797.2 17066.8 183629.2 16970.8 L 185837.2 16888 L 185837.2 16058.8 Q 185837.2 15256 185663.2 14716 Q 185489.2 14176 185159.2 13846 Q 184829.2 13516 184343.2 13372 Q 183857.2 13228 183233.2 13228 Q 182238.4 13228 181380.4 13516 Q 180522.4 13804 179730.4 14212 L 178962.4 12569.2 Q 179850.4 12089.2 180942.4 11753.2 Q 182034.4 11417.2 183234.4 11417.2 Q 184458.4 11417.2 185352.4 11663.2 Q 186246.4 11909.2 186828.4 12443.2 Q 187410.4 12977.2 187698.4 13805.2 Q 187986.4 14633.2 187986.4 15809.2 L 187986.4 24833.2 L 186415.6 24833.2 L 186413.2 24832 Z M 182405.2 23306.8 Q 183136 23306.8 183760 23078.8 Q 184384 22850.8 184840 22388.8 Q 185296 21926.8 185554 21224.8 Q 185812 20522.8 185812 19576 L 185812 18386.8 L 184094.8 18472 Q 183014.8 18520 182282.8 18712 Q 181550.8 18904 181112.8 19246 Q 180674.8 19588 180482.8 20074 Q 180290.8 20560 180290.8 21170.8 Q 180290.8 22274.8 180872.8 22790.8 Q 181454.8 23306.8 182404 23306.8 L 182405.2 23306.8 Z M 195590.8 11416 Q 195937.6 11416 196369.6 11446 Q 196801.6 11476 197113.6 11537.2 L 196825.6 13553.2 Q 196489.6 13492 196135.6 13450 Q 195781.6 13408 195469.6 13408 Q 194712.4 13408 194088.4 13714 Q 193464.4 14020 193014.4 14590 Q 192564.4 15160 192318.4 15958 Q 192072.4 16756 192072.4 17729.2 L 192072.4 24833.2 L 189888.4 24833.2 L 189888.4 11657.2 L 191664.4 11657.2 L 191928.4 14068 L 192024.4 14068 Q 192325.6 13553.2 192667.6 13073.2 Q 193009.6 12593.2 193435.6 12227.2 Q 193861.6 11861.2 194389.6 11639.2 Q 194917.6 11417.2 195589.6 11417.2 L 195590.8 11416 Z M 199856 24832 L 197672 24832 L 197672 11656 L 199856 11656 L 199856 24832 Z M 197504 8090.8 Q 197504 7370.8 197870 7046.8 Q 198236 6722.8 198774.8 6722.8 Q 199038.8 6722.8 199272.8 6800.8 Q 199506.8 6878.8 199680.8 7046.8 Q 199854.8 7214.8 199956.8 7472.8 Q 200058.8 7730.8 200058.8 8090.8 Q 200058.8 8786.8 199680.8 9128.8 Q 199302.8 9470.8 198774.8 9470.8 Q 198236 9470.8 197870 9134.8 Q 197504 8798.8 197504 8089.6 L 197504 8090.8 Z M 209350.8 24832 L 208905.6 23008 L 208809.6 23008 Q 208414.8 23546.8 208018.8 23936.8 Q 207622.8 24326.8 207154.8 24578.8 Q 206686.8 24830.8 206110.8 24950.8 Q 205534.8 25070.8 204777.6 25070.8 Q 203950.8 25070.8 203254.8 24836.8 Q 202558.8 24602.8 202048.8 24116.8 Q 201538.8 23630.8 201250.8 22892.8 Q 200962.8 22154.8 200962.8 21146.8 Q 200962.8 19178.8 202348.8 18122.8 Q 203734.8 17066.8 206566.8 16970.8 L 208774.8 16888 L 208774.8 16058.8 Q 208774.8 15256 208600.8 14716 Q 208426.8 14176 208096.8 13846 Q 207766.8 13516 207280.8 13372 Q 206794.8 13228 206170.8 13228 Q 205176 13228 204318 13516 Q 203460 13804 202668 14212 L 201900 12569.2 Q 202788 12089.2 203880 11753.2 Q 204972 11417.2 206172 11417.2 Q 207396 11417.2 208290 11663.2 Q 209184 11909.2 209766 12443.2 Q 210348 12977.2 210636 13805.2 Q 210924 14633.2 210924 15809.2 L 210924 24833.2 L 209353.2 24833.2 L 209350.8 24832 Z M 205342.8 23306.8 Q 206073.6 23306.8 206697.6 23078.8 Q 207321.6 22850.8 207777.6 22388.8 Q 208233.6 21926.8 208491.6 21224.8 Q 208749.6 20522.8 208749.6 19576 L 208749.6 18386.8 L 207032.4 18472 Q 205952.4 18520 205220.4 18712 Q 204488.4 18904 204050.4 19246 Q 203612.4 19588 203420.4 20074 Q 203228.4 20560 203228.4 21170.8 Q 203228.4 22274.8 203810.4 22790.8 Q 204392.4 23306.8 205341.6 23306.8 L 205342.8 23306.8 Z " fill-rule="nonzero" style="fill:#535353;;fill-opacity:1;"/>
</svg>