<svg version="1.1" x="0" y="0" width="100%" height="100%" viewBox="0 0 298547.2 63795.2" xmlns="http://www.w3.org/2000/svg">
  <path d="M 35696.3 39835.3 Q 35696.3 42262.8 34833.8 44175.3 Q 33971.3 46087.8 32371.3 47412.8 Q 30771.3 48737.8 28471.3 49425.3 Q 26171.3 50112.8 23298.8 50112.8 Q 20521.3 50112.8 18108.8 49675.3 Q 15696.3 49237.8 14068.8 48387.8 L 14068.8 43937.8 Q 14918.8 44337.8 16006.3 44725.3 Q 17093.8 45112.8 18293.8 45412.8 Q 19493.8 45712.8 20768.8 45900.3 Q 22043.8 46087.8 23293.8 46087.8 Q 27293.8 46087.8 29206.3 44587.8 Q 31118.8 43087.8 31118.8 40287.8 Q 31118.8 38937.8 30756.3 37937.8 Q 30393.8 36937.8 29481.3 36100.3 Q 28568.8 35262.8 27043.8 34475.3 Q 25518.8 33687.8 23196.3 32765.3 Q 20968.8 31887.8 19331.3 30850.3 Q 17693.8 29812.8 16631.3 28512.8 Q 15568.8 27212.8 15056.3 25562.8 Q 14543.8 23912.8 14543.8 21812.8 Q 14543.8 19612.8 15343.8 17887.8 Q 16143.8 16162.8 17593.8 14975.3 Q 19043.8 13787.8 21056.3 13162.8 Q 23068.8 12537.8 25496.3 12537.8 Q 28468.8 12537.8 30843.8 13100.3 Q 33218.8 13662.8 35068.8 14535.3 L 33396.3 18435.3 Q 31768.8 17712.8 29706.3 17175.3 Q 27643.8 16637.8 25443.8 16637.8 Q 22393.8 16637.8 20718.8 18050.3 Q 19043.8 19462.8 19043.8 21862.8 Q 19043.8 23285.3 19418.8 24322.8 Q 19793.8 25360.3 20668.8 26197.8 Q 21543.8 27035.3 22981.3 27772.8 Q 24418.8 28510.3 26518.8 29332.8 Q 28796.3 30232.8 30508.8 31182.8 Q 32221.3 32132.8 33371.3 33332.8 Q 34521.3 34532.8 35108.8 36107.8 Q 35696.3 37682.8 35696.3 39832.8 L 35696.3 39835.3 Z M 52268.8 50112.8 Q 49518.8 50112.8 47243.8 49187.8 Q 44968.8 48262.8 43331.3 46487.8 Q 41693.8 44712.8 40793.8 42087.8 Q 39893.8 39462.8 39893.8 36085.3 Q 39893.8 32685.3 40718.8 30010.3 Q 41543.8 27335.3 43043.8 25472.8 Q 44543.8 23610.3 46631.3 22635.3 Q 48718.8 21660.3 51246.3 21660.3 Q 53718.8 21660.3 55693.8 22547.8 Q 57668.8 23435.3 59043.8 25047.8 Q 60418.8 26660.3 61156.3 28922.8 Q 61893.8 31185.3 61893.8 33935.3 L 61893.8 36762.8 L 44593.8 36762.8 Q 44716.3 41585.3 46628.8 43860.3 Q 48541.3 46135.3 52313.8 46135.3 Q 53591.3 46135.3 54678.8 46010.3 Q 55766.3 45885.3 56778.8 45647.8 Q 57791.3 45410.3 58741.3 45047.8 Q 59691.3 44685.3 60663.8 44235.3 L 60663.8 48285.3 Q 59663.8 48762.8 58701.3 49112.8 Q 57738.8 49462.8 56726.3 49687.8 Q 55713.8 49912.8 54626.3 50012.8 Q 53538.8 50112.8 52261.3 50112.8 L 52268.8 50112.8 Z M 51146.3 25435.3 Q 48296.3 25435.3 46633.8 27385.3 Q 44971.3 29335.3 44698.8 33062.8 L 56998.8 33062.8 Q 56998.8 31362.8 56661.3 29950.3 Q 56323.8 28537.8 55611.3 27537.8 Q 54898.8 26537.8 53798.8 25987.8 Q 52698.8 25437.8 51148.8 25437.8 L 51146.3 25435.3 Z M 88834.4 22162.8 L 88834.4 24985.3 L 83911.9 25662.8 Q 84611.9 26535.3 85086.9 27897.8 Q 85561.9 29260.3 85561.9 30982.8 Q 85561.9 32882.8 84974.4 34495.3 Q 84386.9 36107.8 83199.4 37282.8 Q 82011.9 38457.8 80261.9 39120.3 Q 78511.9 39782.8 76184.4 39782.8 Q 75634.4 39782.8 75084.4 39770.3 Q 74534.4 39757.8 74184.4 39680.3 Q 73761.9 39930.3 73349.4 40242.8 Q 72936.9 40555.3 72599.4 40955.3 Q 72261.9 41355.3 72049.4 41855.3 Q 71836.9 42355.3 71836.9 42955.3 Q 71836.9 43627.8 72136.9 44040.3 Q 72436.9 44452.8 72949.4 44677.8 Q 73461.9 44902.8 74161.9 44977.8 Q 74861.9 45052.8 75634.4 45052.8 L 80034.4 45052.8 Q 82361.9 45052.8 83961.9 45640.3 Q 85561.9 46227.8 86574.4 47227.8 Q 87586.9 48227.8 88036.9 49590.3 Q 88486.9 50952.8 88486.9 52480.3 Q 88486.9 54680.3 87674.4 56430.3 Q 86861.9 58180.3 85186.9 59392.8 Q 83511.9 60605.3 80949.4 61255.3 Q 78386.9 61905.3 74914.4 61905.3 Q 72236.9 61905.3 70236.9 61380.3 Q 68236.9 60855.3 66911.9 59855.3 Q 65586.9 58855.3 64924.4 57442.8 Q 64261.9 56030.3 64261.9 54252.8 Q 64261.9 52752.8 64749.4 51615.3 Q 65236.9 50477.8 66061.9 49650.3 Q 66886.9 48822.8 67974.4 48297.8 Q 69061.9 47772.8 70234.4 47500.3 Q 69184.4 47022.8 68509.4 45997.8 Q 67834.4 44972.8 67834.4 43650.3 Q 67834.4 42122.8 68634.4 41010.3 Q 69434.4 39897.8 71161.9 38847.8 Q 70084.4 38397.8 69196.9 37610.3 Q 68309.4 36822.8 67696.9 35810.3 Q 67084.4 34797.8 66746.9 33597.8 Q 66409.4 32397.8 66409.4 31120.3 Q 66409.4 28897.8 67034.4 27147.8 Q 67659.4 25397.8 68884.4 24172.8 Q 70109.4 22947.8 71934.4 22297.8 Q 73759.4 21647.8 76181.9 21647.8 Q 77109.4 21647.8 78096.9 21785.3 Q 79084.4 21922.8 79761.9 22150.3 L 88834.4 22150.3 L 88834.4 22162.8 Z M 68561.9 54112.8 Q 68561.9 55040.3 68886.9 55840.3 Q 69211.9 56640.3 69949.4 57215.3 Q 70686.9 57790.3 71899.4 58127.8 Q 73111.9 58465.3 74911.9 58465.3 Q 79561.9 58465.3 81874.4 57027.8 Q 84186.9 55590.3 84186.9 52890.3 Q 84186.9 51740.3 83886.9 51015.3 Q 83586.9 50290.3 82899.4 49877.8 Q 82211.9 49465.3 81086.9 49315.3 Q 79961.9 49165.3 78334.4 49165.3 L 73934.4 49165.3 Q 73061.9 49165.3 72111.9 49365.3 Q 71161.9 49565.3 70374.4 50115.3 Q 69586.9 50665.3 69074.4 51627.8 Q 68561.9 52590.3 68561.9 54112.8  Z M 70861.9 30985.3 Q 70861.9 33862.8 72211.9 35262.8 Q 73561.9 36662.8 76034.4 36662.8 Q 78534.4 36662.8 79821.9 35275.3 Q 81109.4 33887.8 81109.4 30915.3 Q 81109.4 27837.8 79796.9 26387.8 Q 78484.4 24937.8 75984.4 24937.8 Q 73511.9 24937.8 72186.9 26437.8 Q 70861.9 27937.8 70861.9 30987.8 L 70861.9 30985.3 Z M 110857.1 49612.8 L 110179.6 45935.3 L 109929.6 45935.3 Q 109307.1 47012.8 108444.6 47800.3 Q 107582.1 48587.8 106557.1 49100.3 Q 105532.1 49612.8 104382.1 49862.8 Q 103232.1 50112.8 102032.1 50112.8 Q 99759.6 50112.8 98034.6 49537.8 Q 96309.6 48962.8 95159.6 47737.8 Q 94009.6 46512.8 93422.1 44612.8 Q 92834.6 42712.8 92834.6 40085.3 L 92834.6 22162.8 L 97384.6 22162.8 L 97384.6 39835.3 Q 97384.6 43085.3 98709.6 44710.3 Q 100034.6 46335.3 102812.1 46335.3 Q 104834.6 46335.3 106209.6 45685.3 Q 107584.6 45035.3 108422.1 43772.8 Q 109259.6 42510.3 109622.1 40660.3 Q 109984.6 38810.3 109984.6 36410.3 L 109984.6 22160.3 L 114534.6 22160.3 L 114534.6 49610.3 L 110862.1 49610.3 L 110857.1 49612.8 Z M 126660 49612.8 L 122110 49612.8 L 122110 22162.8 L 126660 22162.8 L 126660 49612.8 Z M 121760 14735.3 Q 121760 13235.3 122522.5 12560.3 Q 123285 11885.3 124407.5 11885.3 Q 124957.5 11885.3 125445 12047.8 Q 125932.5 12210.3 126295 12560.3 Q 126657.5 12910.3 126870 13447.8 Q 127082.5 13985.3 127082.5 14735.3 Q 127082.5 16185.3 126295 16897.8 Q 125507.5 17610.3 124407.5 17610.3 Q 123285 17610.3 122522.5 16910.3 Q 121760 16210.3 121760 14732.8 L 121760 14735.3 Z M 167173.1 49612.8 L 167173.1 31935.3 Q 167173.1 28685.3 165923.1 27060.3 Q 164673.1 25435.3 162045.6 25435.3 Q 160223.1 25435.3 158948.1 26022.8 Q 157673.1 26610.3 156860.6 27747.8 Q 156048.1 28885.3 155673.1 30572.8 Q 155298.1 32260.3 155298.1 34460.3 L 155298.1 49610.3 L 150725.6 49610.3 L 150725.6 31932.8 Q 150725.6 28682.8 149488.1 27057.8 Q 148250.6 25432.8 145628.1 25432.8 Q 143700.6 25432.8 142400.6 26082.8 Q 141100.6 26732.8 140313.1 28007.8 Q 139525.6 29282.8 139188.1 31132.8 Q 138850.6 32982.8 138850.6 35382.8 L 138850.6 49610.3 L 134300.6 49610.3 L 134300.6 22160.3 L 138000.6 22160.3 L 138650.6 25860.3 L 138900.6 25860.3 Q 139500.6 24782.8 140325.6 23995.3 Q 141150.6 23207.8 142138.1 22682.8 Q 143125.6 22157.8 144238.1 21907.8 Q 145350.6 21657.8 146500.6 21657.8 Q 149500.6 21657.8 151488.1 22757.8 Q 153475.6 23857.8 154425.6 26207.8 L 154625.6 26207.8 Q 155275.6 25030.3 156188.1 24180.3 Q 157100.6 23330.3 158188.1 22767.8 Q 159275.6 22205.3 160475.6 21930.3 Q 161675.6 21655.3 162925.6 21655.3 Q 167298.1 21655.3 169510.6 24042.8 Q 171723.1 26430.3 171723.1 31680.3 L 171723.1 49607.8 L 167173.1 49607.8 L 167173.1 49612.8 Z M 183645.6 49612.8 L 179095.6 49612.8 L 179095.6 22162.8 L 183645.6 22162.8 L 183645.6 49612.8 Z M 178745.6 14735.3 Q 178745.6 13235.3 179508.1 12560.3 Q 180270.6 11885.3 181393.1 11885.3 Q 181943.1 11885.3 182430.6 12047.8 Q 182918.1 12210.3 183280.6 12560.3 Q 183643.1 12910.3 183855.6 13447.8 Q 184068.1 13985.3 184068.1 14735.3 Q 184068.1 16185.3 183280.6 16897.8 Q 182493.1 17610.3 181393.1 17610.3 Q 180270.6 17610.3 179508.1 16910.3 Q 178745.6 16210.3 178745.6 14732.8 L 178745.6 14735.3 Z M 202131.2 50112.8 Q 199381.2 50112.8 197106.2 49187.8 Q 194831.2 48262.8 193193.7 46487.8 Q 191556.2 44712.8 190656.2 42087.8 Q 189756.2 39462.8 189756.2 36085.3 Q 189756.2 32685.3 190581.2 30010.3 Q 191406.2 27335.3 192906.2 25472.8 Q 194406.2 23610.3 196493.7 22635.3 Q 198581.2 21660.3 201108.7 21660.3 Q 203581.2 21660.3 205556.2 22547.8 Q 207531.2 23435.3 208906.2 25047.8 Q 210281.2 26660.3 211018.7 28922.8 Q 211756.2 31185.3 211756.2 33935.3 L 211756.2 36762.8 L 194456.2 36762.8 Q 194578.7 41585.3 196491.2 43860.3 Q 198403.7 46135.3 202176.2 46135.3 Q 203453.7 46135.3 204541.2 46010.3 Q 205628.7 45885.3 206641.2 45647.8 Q 207653.7 45410.3 208603.7 45047.8 Q 209553.7 44685.3 210526.2 44235.3 L 210526.2 48285.3 Q 209526.2 48762.8 208563.7 49112.8 Q 207601.2 49462.8 206588.7 49687.8 Q 205576.2 49912.8 204488.7 50012.8 Q 203401.2 50112.8 202123.7 50112.8 L 202131.2 50112.8 Z M 201008.7 25435.3 Q 198158.7 25435.3 196496.2 27385.3 Q 194833.7 29335.3 194561.2 33062.8 L 206861.2 33062.8 Q 206861.2 31362.8 206523.7 29950.3 Q 206186.2 28537.8 205473.7 27537.8 Q 204761.2 26537.8 203661.2 25987.8 Q 202561.2 25437.8 201011.2 25437.8 L 201008.7 25435.3 Z M 234696.8 49612.8 L 234696.8 31935.3 Q 234696.8 28685.3 233384.3 27060.3 Q 232071.8 25435.3 229271.8 25435.3 Q 227244.3 25435.3 225869.3 26085.3 Q 224494.3 26735.3 223656.8 28010.3 Q 222819.3 29285.3 222456.8 31135.3 Q 222094.3 32985.3 222094.3 35385.3 L 222094.3 49612.8 L 217544.3 49612.8 L 217544.3 22162.8 L 221244.3 22162.8 L 221894.3 25862.8 L 222144.3 25862.8 Q 222771.8 24785.3 223634.3 23997.8 Q 224496.8 23210.3 225521.8 22685.3 Q 226546.8 22160.3 227696.8 21910.3 Q 228846.8 21660.3 230046.8 21660.3 Q 234624.3 21660.3 236936.8 24047.8 Q 239249.3 26435.3 239249.3 31685.3 L 239249.3 49612.8 L 234699.3 49612.8 L 234696.8 49612.8 Z M 254877.2 46385.3 Q 255327.2 46385.3 255889.7 46335.3 Q 256452.2 46285.3 256977.2 46210.3 Q 257502.2 46135.3 257939.7 46035.3 Q 258377.2 45935.3 258604.7 45862.8 L 258604.7 49312.8 Q 258277.2 49462.8 257777.2 49612.8 Q 257277.2 49762.8 256677.2 49875.3 Q 256077.2 49987.8 255427.2 50050.3 Q 254777.2 50112.8 254154.7 50112.8 Q 252604.7 50112.8 251279.7 49712.8 Q 249954.7 49312.8 248992.2 48337.8 Q 248029.7 47362.8 247479.7 45700.3 Q 246929.7 44037.8 246929.7 41515.3 L 246929.7 25587.8 L 243057.2 25587.8 L 243057.2 23565.3 L 246929.7 21615.3 L 248879.7 15865.3 L 251507.2 15865.3 L 251507.2 22165.3 L 258407.2 22165.3 L 258407.2 25587.8 L 251507.2 25587.8 L 251507.2 41515.3 Q 251507.2 43937.8 252294.7 45162.8 Q 253082.2 46387.8 254882.2 46387.8 L 254877.2 46385.3 Z M 285185.1 35835.3 Q 285185.1 39262.8 284347.6 41925.3 Q 283510.1 44587.8 281947.6 46400.3 Q 280385.1 48212.8 278160.1 49162.8 Q 275935.1 50112.8 273157.6 50112.8 Q 270585.1 50112.8 268410.1 49162.8 Q 266235.1 48212.8 264647.6 46400.3 Q 263060.1 44587.8 262172.6 41925.3 Q 261285.1 39262.8 261285.1 35835.3 Q 261285.1 32435.3 262122.6 29797.8 Q 262960.1 27160.3 264510.1 25347.8 Q 266060.1 23535.3 268297.6 22597.8 Q 270535.1 21660.3 273307.6 21660.3 Q 275885.1 21660.3 278060.1 22597.8 Q 280235.1 23535.3 281822.6 25347.8 Q 283410.1 27160.3 284297.6 29797.8 Q 285185.1 32435.3 285185.1 35835.3  Z M 265985.1 35835.3 Q 265985.1 41062.8 267697.6 43700.3 Q 269410.1 46337.8 273260.1 46337.8 Q 277110.1 46337.8 278797.6 43700.3 Q 280485.1 41062.8 280485.1 35835.3 Q 280485.1 30612.8 278772.6 28025.3 Q 277060.1 25437.8 273210.1 25437.8 Q 269360.1 25437.8 267672.6 28025.3 Q 265985.1 30612.8 265985.1 35835.3  Z " fill-rule="nonzero" style="fill:#56626c;;fill-opacity:1;"/>
</svg>