<svg version="1.1" x="0" y="0" width="100%" height="100%" viewBox="0 0 161228.8 32716.8" xmlns="http://www.w3.org/2000/svg">
  <path d="M 13677.2 20138.8 Q 13677.2 21304 13263.2 22222 Q 12849.2 23140 12081.2 23776 Q 11313.2 24412 10209.2 24742 Q 9105.2 25072 7726.4 25072 Q 6393.2 25072 5235.2 24862 Q 4077.2 24652 3296 24244 L 3296 22108 Q 3704 22300 4226 22486 Q 4748 22672 5324 22816 Q 5900 22960 6512 23050 Q 7124 23140 7724 23140 Q 9644 23140 10562 22420 Q 11480 21700 11480 20356 Q 11480 19708 11306 19228 Q 11132 18748 10694 18346 Q 10256 17944 9524 17566 Q 8792 17188 7677.2 16745.2 Q 6608 16324 5822 15826 Q 5036 15328 4526 14704 Q 4016 14080 3770 13288 Q 3524 12496 3524 11488 Q 3524 10432 3908 9604 Q 4292 8776 4988 8206 Q 5684 7636 6650 7336 Q 7616 7036 8781.2 7036 Q 10208 7036 11348 7306 Q 12488 7576 13376 7994.8 L 12573.2 9866.8 Q 11792 9520 10802 9262 Q 9812 9004 8756 9004 Q 7292 9004 6488 9682 Q 5684 10360 5684 11512 Q 5684 12194.8 5864 12692.8 Q 6044 13190.8 6464 13592.8 Q 6884 13994.8 7574 14348.8 Q 8264 14702.8 9272 15097.6 Q 10365.2 15529.6 11187.2 15985.6 Q 12009.2 16441.6 12561.2 17017.6 Q 13113.2 17593.6 13395.2 18349.6 Q 13677.2 19105.6 13677.2 20137.6 L 13677.2 20138.8 Z M 21068.8 25072 Q 19748.8 25072 18656.8 24628 Q 17564.8 24184 16778.8 23332 Q 15992.8 22480 15560.8 21220 Q 15128.8 19960 15128.8 18338.8 Q 15128.8 16706.8 15524.8 15422.8 Q 15920.8 14138.8 16640.8 13244.8 Q 17360.8 12350.8 18362.8 11882.8 Q 19364.8 11414.8 20578 11414.8 Q 21764.8 11414.8 22712.8 11840.8 Q 23660.8 12266.8 24320.8 13040.8 Q 24980.8 13814.8 25334.8 14900.8 Q 25688.8 15986.8 25688.8 17306.8 L 25688.8 18664 L 17384.8 18664 Q 17443.6 20978.8 18361.6 22070.8 Q 19279.6 23162.8 21090.4 23162.8 Q 21703.6 23162.8 22225.6 23102.8 Q 22747.6 23042.8 23233.6 22928.8 Q 23719.6 22814.8 24175.6 22640.8 Q 24631.6 22466.8 25098.4 22250.8 L 25098.4 24194.8 Q 24618.4 24424 24156.4 24592 Q 23694.4 24760 23208.4 24868 Q 22722.4 24976 22200.4 25024 Q 21678.4 25072 21065.2 25072 L 21068.8 25072 Z M 20530 13226.8 Q 19162 13226.8 18364 14162.8 Q 17566 15098.8 17435.2 16888 L 23339.2 16888 Q 23339.2 16072 23177.2 15394 Q 23015.2 14716 22673.2 14236 Q 22331.2 13756 21803.2 13492 Q 21275.2 13228 20531.2 13228 L 20530 13226.8 Z M 38044.8 11656 L 38044.8 13010.8 L 35682 13336 Q 36018 13754.8 36246 14408.8 Q 36474 15062.8 36474 15889.6 Q 36474 16801.6 36192 17575.6 Q 35910 18349.6 35340 18913.6 Q 34770 19477.6 33930 19795.6 Q 33090 20113.6 31972.8 20113.6 Q 31708.8 20113.6 31444.8 20107.6 Q 31180.8 20101.6 31012.8 20064.4 Q 30810 20184.4 30612 20334.4 Q 30414 20484.4 30252 20676.4 Q 30090 20868.4 29988 21108.4 Q 29886 21348.4 29886 21636.4 Q 29886 21959.2 30030 22157.2 Q 30174 22355.2 30420 22463.2 Q 30666 22571.2 31002 22607.2 Q 31338 22643.2 31708.8 22643.2 L 33820.8 22643.2 Q 34938 22643.2 35706 22925.2 Q 36474 23207.2 36960 23687.2 Q 37446 24167.2 37662 24821.2 Q 37878 25475.2 37878 26208.4 Q 37878 27264.4 37488 28104.4 Q 37098 28944.4 36294 29526.4 Q 35490 30108.4 34260 30420.4 Q 33030 30732.4 31363.2 30732.4 Q 30078 30732.4 29118 30480.4 Q 28158 30228.4 27522 29748.4 Q 26886 29268.4 26568 28590.4 Q 26250 27912.4 26250 27059.2 Q 26250 26339.2 26484 25793.2 Q 26718 25247.2 27114 24850 Q 27510 24452.8 28032 24200.8 Q 28554 23948.8 29116.8 23818 Q 28612.8 23588.8 28288.8 23096.8 Q 27964.8 22604.8 27964.8 21970 Q 27964.8 21236.8 28348.8 20702.8 Q 28732.8 20168.8 29562 19664.8 Q 29044.8 19448.8 28618.8 19070.8 Q 28192.8 18692.8 27898.8 18206.8 Q 27604.8 17720.8 27442.8 17144.8 Q 27280.8 16568.8 27280.8 15955.6 Q 27280.8 14888.8 27580.8 14048.8 Q 27880.8 13208.8 28468.8 12620.8 Q 29056.8 12032.8 29932.8 11720.8 Q 30808.8 11408.8 31971.6 11408.8 Q 32416.8 11408.8 32890.8 11474.8 Q 33364.8 11540.8 33690 11650 L 38044.8 11650 L 38044.8 11656 Z M 28314 26992 Q 28314 27437.2 28470 27821.2 Q 28626 28205.2 28980 28481.2 Q 29334 28757.2 29916 28919.2 Q 30498 29081.2 31362 29081.2 Q 33594 29081.2 34704 28391.2 Q 35814 27701.2 35814 26405.2 Q 35814 25853.2 35670 25505.2 Q 35526 25157.2 35196 24959.2 Q 34866 24761.2 34326 24689.2 Q 33786 24617.2 33004.8 24617.2 L 30892.8 24617.2 Q 30474 24617.2 30018 24713.2 Q 29562 24809.2 29184 25073.2 Q 28806 25337.2 28560 25799.2 Q 28314 26261.2 28314 26992  Z M 29418 15890.8 Q 29418 17272 30066 17944 Q 30714 18616 31900.8 18616 Q 33100.8 18616 33718.8 17950 Q 34336.8 17284 34336.8 15857.2 Q 34336.8 14380 33706.8 13684 Q 33076.8 12988 31876.8 12988 Q 30690 12988 30054 13708 Q 29418 14428 29418 15892 L 29418 15890.8 Z M 48048.4 24832 L 47723.2 23066.8 L 47603.2 23066.8 Q 47304.4 23584 46890.4 23962 Q 46476.4 24340 45984.4 24586 Q 45492.4 24832 44940.4 24952 Q 44388.4 25072 43812.4 25072 Q 42721.6 25072 41893.6 24796 Q 41065.6 24520 40513.6 23932 Q 39961.6 23344 39679.6 22432 Q 39397.6 21520 39397.6 20258.8 L 39397.6 11656 L 41581.6 11656 L 41581.6 20138.8 Q 41581.6 21698.8 42217.6 22478.8 Q 42853.6 23258.8 44186.8 23258.8 Q 45157.6 23258.8 45817.6 22946.8 Q 46477.6 22634.8 46879.6 22028.8 Q 47281.6 21422.8 47455.6 20534.8 Q 47629.6 19646.8 47629.6 18494.8 L 47629.6 11654.8 L 49813.6 11654.8 L 49813.6 24830.8 L 48050.8 24830.8 L 48048.4 24832 Z M 55113.6 24832 L 52929.6 24832 L 52929.6 11656 L 55113.6 11656 L 55113.6 24832 Z M 52761.6 8090.8 Q 52761.6 7370.8 53127.6 7046.8 Q 53493.6 6722.8 54032.4 6722.8 Q 54296.4 6722.8 54530.4 6800.8 Q 54764.4 6878.8 54938.4 7046.8 Q 55112.4 7214.8 55214.4 7472.8 Q 55316.4 7730.8 55316.4 8090.8 Q 55316.4 8786.8 54938.4 9128.8 Q 54560.4 9470.8 54032.4 9470.8 Q 53493.6 9470.8 53127.6 9134.8 Q 52761.6 8798.8 52761.6 8089.6 L 52761.6 8090.8 Z M 73984.4 24832 L 73984.4 16346.8 Q 73984.4 14786.8 73384.4 14006.8 Q 72784.4 13226.8 71523.2 13226.8 Q 70648.4 13226.8 70036.4 13508.8 Q 69424.4 13790.8 69034.4 14336.8 Q 68644.4 14882.8 68464.4 15692.8 Q 68284.4 16502.8 68284.4 17558.8 L 68284.4 24830.8 L 66089.6 24830.8 L 66089.6 16345.6 Q 66089.6 14785.6 65495.6 14005.6 Q 64901.6 13225.6 63642.8 13225.6 Q 62717.6 13225.6 62093.6 13537.6 Q 61469.6 13849.6 61091.6 14461.6 Q 60713.6 15073.6 60551.6 15961.6 Q 60389.6 16849.6 60389.6 18001.6 L 60389.6 24830.8 L 58205.6 24830.8 L 58205.6 11654.8 L 59981.6 11654.8 L 60293.6 13430.8 L 60413.6 13430.8 Q 60701.6 12913.6 61097.6 12535.6 Q 61493.6 12157.6 61967.6 11905.6 Q 62441.6 11653.6 62975.6 11533.6 Q 63509.6 11413.6 64061.6 11413.6 Q 65501.6 11413.6 66455.6 11941.6 Q 67409.6 12469.6 67865.6 13597.6 L 67961.6 13597.6 Q 68273.6 13032.4 68711.6 12624.4 Q 69149.6 12216.4 69671.6 11946.4 Q 70193.6 11676.4 70769.6 11544.4 Q 71345.6 11412.4 71945.6 11412.4 Q 74044.4 11412.4 75106.4 12558.4 Q 76168.4 13704.4 76168.4 16224.4 L 76168.4 24829.6 L 73984.4 24829.6 L 73984.4 24832 Z M 81328 24832 L 79144 24832 L 79144 11656 L 81328 11656 L 81328 24832 Z M 78976 8090.8 Q 78976 7370.8 79342 7046.8 Q 79708 6722.8 80246.8 6722.8 Q 80510.8 6722.8 80744.8 6800.8 Q 80978.8 6878.8 81152.8 7046.8 Q 81326.8 7214.8 81428.8 7472.8 Q 81530.8 7730.8 81530.8 8090.8 Q 81530.8 8786.8 81152.8 9128.8 Q 80774.8 9470.8 80246.8 9470.8 Q 79708 9470.8 79342 9134.8 Q 78976 8798.8 78976 8089.6 L 78976 8090.8 Z M 89625.6 25072 Q 88305.6 25072 87213.6 24628 Q 86121.6 24184 85335.6 23332 Q 84549.6 22480 84117.6 21220 Q 83685.6 19960 83685.6 18338.8 Q 83685.6 16706.8 84081.6 15422.8 Q 84477.6 14138.8 85197.6 13244.8 Q 85917.6 12350.8 86919.6 11882.8 Q 87921.6 11414.8 89134.8 11414.8 Q 90321.6 11414.8 91269.6 11840.8 Q 92217.6 12266.8 92877.6 13040.8 Q 93537.6 13814.8 93891.6 14900.8 Q 94245.6 15986.8 94245.6 17306.8 L 94245.6 18664 L 85941.6 18664 Q 86000.4 20978.8 86918.4 22070.8 Q 87836.4 23162.8 89647.2 23162.8 Q 90260.4 23162.8 90782.4 23102.8 Q 91304.4 23042.8 91790.4 22928.8 Q 92276.4 22814.8 92732.4 22640.8 Q 93188.4 22466.8 93655.2 22250.8 L 93655.2 24194.8 Q 93175.2 24424 92713.2 24592 Q 92251.2 24760 91765.2 24868 Q 91279.2 24976 90757.2 25024 Q 90235.2 25072 89622 25072 L 89625.6 25072 Z M 89086.8 13226.8 Q 87718.8 13226.8 86920.8 14162.8 Q 86122.8 15098.8 85992 16888 L 91896 16888 Q 91896 16072 91734 15394 Q 91572 14716 91230 14236 Q 90888 13756 90360 13492 Q 89832 13228 89088 13228 L 89086.8 13226.8 Z M 104681.6 24832 L 104681.6 16346.8 Q 104681.6 14786.8 104051.6 14006.8 Q 103421.6 13226.8 102077.6 13226.8 Q 101104.4 13226.8 100444.4 13538.8 Q 99784.4 13850.8 99382.4 14462.8 Q 98980.4 15074.8 98806.4 15962.8 Q 98632.4 16850.8 98632.4 18002.8 L 98632.4 24832 L 96448.4 24832 L 96448.4 11656 L 98224.4 11656 L 98536.4 13432 L 98656.4 13432 Q 98957.6 12914.8 99371.6 12536.8 Q 99785.6 12158.8 100277.6 11906.8 Q 100769.6 11654.8 101321.6 11534.8 Q 101873.6 11414.8 102449.6 11414.8 Q 104646.8 11414.8 105756.8 12560.8 Q 106866.8 13706.8 106866.8 16226.8 L 106866.8 24832 L 104682.8 24832 L 104681.6 24832 Z M 113848 23282.8 Q 114064 23282.8 114334 23258.8 Q 114604 23234.8 114856 23198.8 Q 115108 23162.8 115318 23114.8 Q 115528 23066.8 115637.2 23032 L 115637.2 24688 Q 115480 24760 115240 24832 Q 115000 24904 114712 24958 Q 114424 25012 114112 25042 Q 113800 25072 113501.2 25072 Q 112757.2 25072 112121.2 24880 Q 111485.2 24688 111023.2 24220 Q 110561.2 23752 110297.2 22954 Q 110033.2 22156 110033.2 20945.2 L 110033.2 13300 L 108174.4 13300 L 108174.4 12329.2 L 110033.2 11393.2 L 110969.2 8633.2 L 112230.4 8633.2 L 112230.4 11657.2 L 115542.4 11657.2 L 115542.4 13300 L 112230.4 13300 L 112230.4 20945.2 Q 112230.4 22108 112608.4 22696 Q 112986.4 23284 113850.4 23284 L 113848 23282.8 Z M 127875.6 18218.8 Q 127875.6 19864 127473.6 21142 Q 127071.6 22420 126321.6 23290 Q 125571.6 24160 124503.6 24616 Q 123435.6 25072 122102.4 25072 Q 120867.6 25072 119823.6 24616 Q 118779.6 24160 118017.6 23290 Q 117255.6 22420 116829.6 21142 Q 116403.6 19864 116403.6 18218.8 Q 116403.6 16586.8 116805.6 15320.8 Q 117207.6 14054.8 117951.6 13184.8 Q 118695.6 12314.8 119769.6 11864.8 Q 120843.6 11414.8 122174.4 11414.8 Q 123411.6 11414.8 124455.6 11864.8 Q 125499.6 12314.8 126261.6 13184.8 Q 127023.6 14054.8 127449.6 15320.8 Q 127875.6 16586.8 127875.6 18218.8  Z M 118659.6 18218.8 Q 118659.6 20728 119481.6 21994 Q 120303.6 23260 122151.6 23260 Q 123999.6 23260 124809.6 21994 Q 125619.6 20728 125619.6 18218.8 Q 125619.6 15712 124797.6 14470 Q 123975.6 13228 122127.6 13228 Q 120279.6 13228 119469.6 14470 Q 118659.6 15712 118659.6 18218.8  Z " fill-rule="nonzero" style="fill:#9099a4;;fill-opacity:1;"/>
</svg>