<svg version="1.1" x="0" y="0" width="100%" height="100%" viewBox="0 0 278528 62361.6" xmlns="http://www.w3.org/2000/svg">
  <path d="M 12368 24832 L 12368 16346.8 Q 12368 14786.8 11738 14006.8 Q 11108 13226.8 9764 13226.8 Q 8790.8 13226.8 8130.8 13538.8 Q 7470.8 13850.8 7068.8 14462.8 Q 6666.8 15074.8 6492.8 15962.8 Q 6318.8 16850.8 6318.8 18002.8 L 6318.8 24832 L 4134.8 24832 L 4134.8 6160 L 6318.8 6160 L 6318.8 11704 L 6222.8 13432 L 6342.8 13432 Q 6644 12914.8 7058 12536.8 Q 7472 12158.8 7964 11906.8 Q 8456 11654.8 9008 11534.8 Q 9560 11414.8 10136 11414.8 Q 12333.2 11414.8 13443.2 12560.8 Q 14553.2 13706.8 14553.2 16226.8 L 14553.2 24832 L 12369.2 24832 L 12368 24832 Z M 23955.6 24832 L 23510.4 23008 L 23414.4 23008 Q 23019.6 23546.8 22623.6 23936.8 Q 22227.6 24326.8 21759.6 24578.8 Q 21291.6 24830.8 20715.6 24950.8 Q 20139.6 25070.8 19382.4 25070.8 Q 18555.6 25070.8 17859.6 24836.8 Q 17163.6 24602.8 16653.6 24116.8 Q 16143.6 23630.8 15855.6 22892.8 Q 15567.6 22154.8 15567.6 21146.8 Q 15567.6 19178.8 16953.6 18122.8 Q 18339.6 17066.8 21171.6 16970.8 L 23379.6 16888 L 23379.6 16058.8 Q 23379.6 15256 23205.6 14716 Q 23031.6 14176 22701.6 13846 Q 22371.6 13516 21885.6 13372 Q 21399.6 13228 20775.6 13228 Q 19780.8 13228 18922.8 13516 Q 18064.8 13804 17272.8 14212 L 16504.8 12569.2 Q 17392.8 12089.2 18484.8 11753.2 Q 19576.8 11417.2 20776.8 11417.2 Q 22000.8 11417.2 22894.8 11663.2 Q 23788.8 11909.2 24370.8 12443.2 Q 24952.8 12977.2 25240.8 13805.2 Q 25528.8 14633.2 25528.8 15809.2 L 25528.8 24833.2 L 23958 24833.2 L 23955.6 24832 Z M 19947.6 23306.8 Q 20678.4 23306.8 21302.4 23078.8 Q 21926.4 22850.8 22382.4 22388.8 Q 22838.4 21926.8 23096.4 21224.8 Q 23354.4 20522.8 23354.4 19576 L 23354.4 18386.8 L 21637.2 18472 Q 20557.2 18520 19825.2 18712 Q 19093.2 18904 18655.2 19246 Q 18217.2 19588 18025.2 20074 Q 17833.2 20560 17833.2 21170.8 Q 17833.2 22274.8 18415.2 22790.8 Q 18997.2 23306.8 19946.4 23306.8 L 19947.6 23306.8 Z M 33133.2 11416 Q 33480 11416 33912 11446 Q 34344 11476 34656 11537.2 L 34368 13553.2 Q 34032 13492 33678 13450 Q 33324 13408 33012 13408 Q 32254.8 13408 31630.8 13714 Q 31006.8 14020 30556.8 14590 Q 30106.8 15160 29860.8 15958 Q 29614.8 16756 29614.8 17729.2 L 29614.8 24833.2 L 27430.8 24833.2 L 27430.8 11657.2 L 29206.8 11657.2 L 29470.8 14068 L 29566.8 14068 Q 29868 13553.2 30210 13073.2 Q 30552 12593.2 30978 12227.2 Q 31404 11861.2 31932 11639.2 Q 32460 11417.2 33132 11417.2 L 33133.2 11416 Z M 40422.4 25072 Q 39102.4 25072 38010.4 24628 Q 36918.4 24184 36132.4 23332 Q 35346.4 22480 34914.4 21220 Q 34482.4 19960 34482.4 18338.8 Q 34482.4 16706.8 34878.4 15422.8 Q 35274.4 14138.8 35994.4 13244.8 Q 36714.4 12350.8 37716.4 11882.8 Q 38718.4 11414.8 39931.6 11414.8 Q 41118.4 11414.8 42066.4 11840.8 Q 43014.4 12266.8 43674.4 13040.8 Q 44334.4 13814.8 44688.4 14900.8 Q 45042.4 15986.8 45042.4 17306.8 L 45042.4 18664 L 36738.4 18664 Q 36797.2 20978.8 37715.2 22070.8 Q 38633.2 23162.8 40444 23162.8 Q 41057.2 23162.8 41579.2 23102.8 Q 42101.2 23042.8 42587.2 22928.8 Q 43073.2 22814.8 43529.2 22640.8 Q 43985.2 22466.8 44452 22250.8 L 44452 24194.8 Q 43972 24424 43510 24592 Q 43048 24760 42562 24868 Q 42076 24976 41554 25024 Q 41032 25072 40418.8 25072 L 40422.4 25072 Z M 39883.6 13226.8 Q 38515.6 13226.8 37717.6 14162.8 Q 36919.6 15098.8 36788.8 16888 L 42692.8 16888 Q 42692.8 16072 42530.8 15394 Q 42368.8 14716 42026.8 14236 Q 41684.8 13756 41156.8 13492 Q 40628.8 13228 39884.8 13228 L 39883.6 13226.8 Z M 62003.6 24832 L 62003.6 16346.8 Q 62003.6 14786.8 61403.6 14006.8 Q 60803.6 13226.8 59542.4 13226.8 Q 58667.6 13226.8 58055.6 13508.8 Q 57443.6 13790.8 57053.6 14336.8 Q 56663.6 14882.8 56483.6 15692.8 Q 56303.6 16502.8 56303.6 17558.8 L 56303.6 24830.8 L 54108.8 24830.8 L 54108.8 16345.6 Q 54108.8 14785.6 53514.8 14005.6 Q 52920.8 13225.6 51662 13225.6 Q 50736.8 13225.6 50112.8 13537.6 Q 49488.8 13849.6 49110.8 14461.6 Q 48732.8 15073.6 48570.8 15961.6 Q 48408.8 16849.6 48408.8 18001.6 L 48408.8 24830.8 L 46224.8 24830.8 L 46224.8 11654.8 L 48000.8 11654.8 L 48312.8 13430.8 L 48432.8 13430.8 Q 48720.8 12913.6 49116.8 12535.6 Q 49512.8 12157.6 49986.8 11905.6 Q 50460.8 11653.6 50994.8 11533.6 Q 51528.8 11413.6 52080.8 11413.6 Q 53520.8 11413.6 54474.8 11941.6 Q 55428.8 12469.6 55884.8 13597.6 L 55980.8 13597.6 Q 56292.8 13032.4 56730.8 12624.4 Q 57168.8 12216.4 57690.8 11946.4 Q 58212.8 11676.4 58788.8 11544.4 Q 59364.8 11412.4 59964.8 11412.4 Q 62063.6 11412.4 63125.6 12558.4 Q 64187.6 13704.4 64187.6 16224.4 L 64187.6 24829.6 L 62003.6 24829.6 L 62003.6 24832 Z M 76880.4 18218.8 Q 76880.4 19864 76478.4 21142 Q 76076.4 22420 75326.4 23290 Q 74576.4 24160 73508.4 24616 Q 72440.4 25072 71107.2 25072 Q 69872.4 25072 68828.4 24616 Q 67784.4 24160 67022.4 23290 Q 66260.4 22420 65834.4 21142 Q 65408.4 19864 65408.4 18218.8 Q 65408.4 16586.8 65810.4 15320.8 Q 66212.4 14054.8 66956.4 13184.8 Q 67700.4 12314.8 68774.4 11864.8 Q 69848.4 11414.8 71179.2 11414.8 Q 72416.4 11414.8 73460.4 11864.8 Q 74504.4 12314.8 75266.4 13184.8 Q 76028.4 14054.8 76454.4 15320.8 Q 76880.4 16586.8 76880.4 18218.8  Z M 67664.4 18218.8 Q 67664.4 20728 68486.4 21994 Q 69308.4 23260 71156.4 23260 Q 73004.4 23260 73814.4 21994 Q 74624.4 20728 74624.4 18218.8 Q 74624.4 15712 73802.4 14470 Q 72980.4 13228 71132.4 13228 Q 69284.4 13228 68474.4 14470 Q 67664.4 15712 67664.4 18218.8  Z M 86158.8 21218.8 Q 86158.8 22178.8 85810.8 22898.8 Q 85462.8 23618.8 84808.8 24104.8 Q 84154.8 24590.8 83230.8 24830.8 Q 82306.8 25070.8 81154.8 25070.8 Q 79848 25070.8 78912 24860.8 Q 77976 24650.8 77266.8 24242.8 L 77266.8 22250.8 Q 77640 22442.8 78096 22628.8 Q 78552 22814.8 79056 22958.8 Q 79560 23102.8 80094 23192.8 Q 80628 23282.8 81156 23282.8 Q 81937.2 23282.8 82483.2 23150.8 Q 83029.2 23018.8 83371.2 22772.8 Q 83713.2 22526.8 83869.2 22172.8 Q 84025.2 21818.8 84025.2 21386.8 Q 84025.2 21016 83905.2 20716 Q 83785.2 20416 83467.2 20122 Q 83149.2 19828 82597.2 19528 Q 82045.2 19228 81181.2 18857.2 Q 80317.2 18484 79627.2 18124 Q 78937.2 17764 78457.2 17320 Q 77977.2 16876 77719.2 16294 Q 77461.2 15712 77461.2 14906.8 Q 77461.2 14066.8 77791.2 13412.8 Q 78121.2 12758.8 78721.2 12314.8 Q 79321.2 11870.8 80161.2 11642.8 Q 81001.2 11414.8 82033.2 11414.8 Q 83196 11414.8 84162 11666.8 Q 85128 11918.8 85992 12326.8 L 85234.8 14089.6 Q 84456 13742.8 83634 13484.8 Q 82812 13226.8 81961.2 13226.8 Q 80737.2 13226.8 80149.2 13628.8 Q 79561.2 14030.8 79561.2 14774.8 Q 79561.2 15193.6 79699.2 15505.6 Q 79837.2 15817.6 80173.2 16093.6 Q 80509.2 16369.6 81073.2 16651.6 Q 81637.2 16933.6 82477.2 17280.4 Q 83341.2 17640.4 84019.2 18000.4 Q 84697.2 18360.4 85177.2 18810.4 Q 85657.2 19260.4 85909.2 19836.4 Q 86161.2 20412.4 86161.2 21215.2 L 86158.8 21218.8 Z M 100067.6 24832 L 99742.4 23066.8 L 99622.4 23066.8 Q 99323.6 23584 98909.6 23962 Q 98495.6 24340 98003.6 24586 Q 97511.6 24832 96959.6 24952 Q 96407.6 25072 95831.6 25072 Q 94740.8 25072 93912.8 24796 Q 93084.8 24520 92532.8 23932 Q 91980.8 23344 91698.8 22432 Q 91416.8 21520 91416.8 20258.8 L 91416.8 11656 L 93600.8 11656 L 93600.8 20138.8 Q 93600.8 21698.8 94236.8 22478.8 Q 94872.8 23258.8 96206 23258.8 Q 97176.8 23258.8 97836.8 22946.8 Q 98496.8 22634.8 98898.8 22028.8 Q 99300.8 21422.8 99474.8 20534.8 Q 99648.8 19646.8 99648.8 18494.8 L 99648.8 11654.8 L 101832.8 11654.8 L 101832.8 24830.8 L 100070 24830.8 L 100067.6 24832 Z M 112156.8 24832 L 112156.8 16346.8 Q 112156.8 14786.8 111526.8 14006.8 Q 110896.8 13226.8 109552.8 13226.8 Q 108579.6 13226.8 107919.6 13538.8 Q 107259.6 13850.8 106857.6 14462.8 Q 106455.6 15074.8 106281.6 15962.8 Q 106107.6 16850.8 106107.6 18002.8 L 106107.6 24832 L 103923.6 24832 L 103923.6 11656 L 105699.6 11656 L 106011.6 13432 L 106131.6 13432 Q 106432.8 12914.8 106846.8 12536.8 Q 107260.8 12158.8 107752.8 11906.8 Q 108244.8 11654.8 108796.8 11534.8 Q 109348.8 11414.8 109924.8 11414.8 Q 112122 11414.8 113232 12560.8 Q 114342 13706.8 114342 16226.8 L 114342 24832 L 112158 24832 L 112156.8 24832 Z M 128700.8 23066.8 L 128604.8 23066.8 Q 128340.8 23474.8 127986.8 23840.8 Q 127632.8 24206.8 127170.8 24482.8 Q 126708.8 24758.8 126132.8 24914.8 Q 125556.8 25070.8 124836.8 25070.8 Q 123722 25070.8 122798 24638.8 Q 121874 24206.8 121214 23348.8 Q 120554 22490.8 120194 21218.8 Q 119834 19946.8 119834 18266.8 Q 119834 16576 120194 15298 Q 120554 14020 121214 13156 Q 121874 12292 122798 11854 Q 123722 11416 124836.8 11416 Q 125546 11416 126122 11572 Q 126698 11728 127160 11992 Q 127622 12256 127982 12604 Q 128342 12952 128606 13336 L 128750 13336 Q 128715.2 12928 128678 12554.8 Q 128654 12242.8 128630 11912.8 Q 128606 11582.8 128606 11390.8 L 128606 6158.8 L 130790 6158.8 L 130790 24830.8 L 129027.2 24830.8 L 128702 23065.6 L 128700.8 23066.8 Z M 125258 23258.8 Q 126170 23258.8 126800 22982.8 Q 127430 22706.8 127820 22142.8 Q 128210 21578.8 128396 20732.8 Q 128582 19886.8 128606 18758.8 L 128606 18265.6 Q 128606 17054.8 128444 16112.8 Q 128282 15170.8 127892 14528.8 Q 127502 13886.8 126854 13556.8 Q 126206 13226.8 125235.2 13226.8 Q 123614 13226.8 122852 14534.8 Q 122090 15842.8 122090 18290.8 Q 122090 20800 122852 22030 Q 123614 23260 125259.2 23260 L 125258 23258.8 Z M 135139.2 24832 L 132955.2 24832 L 132955.2 11656 L 135139.2 11656 L 135139.2 24832 Z M 132787.2 8090.8 Q 132787.2 7370.8 133153.2 7046.8 Q 133519.2 6722.8 134058 6722.8 Q 134322 6722.8 134556 6800.8 Q 134790 6878.8 134964 7046.8 Q 135138 7214.8 135240 7472.8 Q 135342 7730.8 135342 8090.8 Q 135342 8786.8 134964 9128.8 Q 134586 9470.8 134058 9470.8 Q 133519.2 9470.8 133153.2 9134.8 Q 132787.2 8798.8 132787.2 8089.6 L 132787.2 8090.8 Z M 144634 24832 L 144188.8 23008 L 144092.8 23008 Q 143698 23546.8 143302 23936.8 Q 142906 24326.8 142438 24578.8 Q 141970 24830.8 141394 24950.8 Q 140818 25070.8 140060.8 25070.8 Q 139234 25070.8 138538 24836.8 Q 137842 24602.8 137332 24116.8 Q 136822 23630.8 136534 22892.8 Q 136246 22154.8 136246 21146.8 Q 136246 19178.8 137632 18122.8 Q 139018 17066.8 141850 16970.8 L 144058 16888 L 144058 16058.8 Q 144058 15256 143884 14716 Q 143710 14176 143380 13846 Q 143050 13516 142564 13372 Q 142078 13228 141454 13228 Q 140459.2 13228 139601.2 13516 Q 138743.2 13804 137951.2 14212 L 137183.2 12569.2 Q 138071.2 12089.2 139163.2 11753.2 Q 140255.2 11417.2 141455.2 11417.2 Q 142679.2 11417.2 143573.2 11663.2 Q 144467.2 11909.2 145049.2 12443.2 Q 145631.2 12977.2 145919.2 13805.2 Q 146207.2 14633.2 146207.2 15809.2 L 146207.2 24833.2 L 144636.4 24833.2 L 144634 24832 Z M 140626 23306.8 Q 141356.8 23306.8 141980.8 23078.8 Q 142604.8 22850.8 143060.8 22388.8 Q 143516.8 21926.8 143774.8 21224.8 Q 144032.8 20522.8 144032.8 19576 L 144032.8 18386.8 L 142315.6 18472 Q 141235.6 18520 140503.6 18712 Q 139771.6 18904 139333.6 19246 Q 138895.6 19588 138703.6 20074 Q 138511.6 20560 138511.6 21170.8 Q 138511.6 22274.8 139093.6 22790.8 Q 139675.6 23306.8 140624.8 23306.8 L 140626 23306.8 Z M 158262.4 11656 L 158262.4 13010.8 L 155899.6 13336 Q 156235.6 13754.8 156463.6 14408.8 Q 156691.6 15062.8 156691.6 15889.6 Q 156691.6 16801.6 156409.6 17575.6 Q 156127.6 18349.6 155557.6 18913.6 Q 154987.6 19477.6 154147.6 19795.6 Q 153307.6 20113.6 152190.4 20113.6 Q 151926.4 20113.6 151662.4 20107.6 Q 151398.4 20101.6 151230.4 20064.4 Q 151027.6 20184.4 150829.6 20334.4 Q 150631.6 20484.4 150469.6 20676.4 Q 150307.6 20868.4 150205.6 21108.4 Q 150103.6 21348.4 150103.6 21636.4 Q 150103.6 21959.2 150247.6 22157.2 Q 150391.6 22355.2 150637.6 22463.2 Q 150883.6 22571.2 151219.6 22607.2 Q 151555.6 22643.2 151926.4 22643.2 L 154038.4 22643.2 Q 155155.6 22643.2 155923.6 22925.2 Q 156691.6 23207.2 157177.6 23687.2 Q 157663.6 24167.2 157879.6 24821.2 Q 158095.6 25475.2 158095.6 26208.4 Q 158095.6 27264.4 157705.6 28104.4 Q 157315.6 28944.4 156511.6 29526.4 Q 155707.6 30108.4 154477.6 30420.4 Q 153247.6 30732.4 151580.8 30732.4 Q 150295.6 30732.4 149335.6 30480.4 Q 148375.6 30228.4 147739.6 29748.4 Q 147103.6 29268.4 146785.6 28590.4 Q 146467.6 27912.4 146467.6 27059.2 Q 146467.6 26339.2 146701.6 25793.2 Q 146935.6 25247.2 147331.6 24850 Q 147727.6 24452.8 148249.6 24200.8 Q 148771.6 23948.8 149334.4 23818 Q 148830.4 23588.8 148506.4 23096.8 Q 148182.4 22604.8 148182.4 21970 Q 148182.4 21236.8 148566.4 20702.8 Q 148950.4 20168.8 149779.6 19664.8 Q 149262.4 19448.8 148836.4 19070.8 Q 148410.4 18692.8 148116.4 18206.8 Q 147822.4 17720.8 147660.4 17144.8 Q 147498.4 16568.8 147498.4 15955.6 Q 147498.4 14888.8 147798.4 14048.8 Q 148098.4 13208.8 148686.4 12620.8 Q 149274.4 12032.8 150150.4 11720.8 Q 151026.4 11408.8 152189.2 11408.8 Q 152634.4 11408.8 153108.4 11474.8 Q 153582.4 11540.8 153907.6 11650 L 158262.4 11650 L 158262.4 11656 Z M 148531.6 26992 Q 148531.6 27437.2 148687.6 27821.2 Q 148843.6 28205.2 149197.6 28481.2 Q 149551.6 28757.2 150133.6 28919.2 Q 150715.6 29081.2 151579.6 29081.2 Q 153811.6 29081.2 154921.6 28391.2 Q 156031.6 27701.2 156031.6 26405.2 Q 156031.6 25853.2 155887.6 25505.2 Q 155743.6 25157.2 155413.6 24959.2 Q 155083.6 24761.2 154543.6 24689.2 Q 154003.6 24617.2 153222.4 24617.2 L 151110.4 24617.2 Q 150691.6 24617.2 150235.6 24713.2 Q 149779.6 24809.2 149401.6 25073.2 Q 149023.6 25337.2 148777.6 25799.2 Q 148531.6 26261.2 148531.6 26992  Z M 149635.6 15890.8 Q 149635.6 17272 150283.6 17944 Q 150931.6 18616 152118.4 18616 Q 153318.4 18616 153936.4 17950 Q 154554.4 17284 154554.4 15857.2 Q 154554.4 14380 153924.4 13684 Q 153294.4 12988 152094.4 12988 Q 150907.6 12988 150271.6 13708 Q 149635.6 14428 149635.6 15892 L 149635.6 15890.8 Z M 166940.8 24832 L 166940.8 16346.8 Q 166940.8 14786.8 166310.8 14006.8 Q 165680.8 13226.8 164336.8 13226.8 Q 163363.6 13226.8 162703.6 13538.8 Q 162043.6 13850.8 161641.6 14462.8 Q 161239.6 15074.8 161065.6 15962.8 Q 160891.6 16850.8 160891.6 18002.8 L 160891.6 24832 L 158707.6 24832 L 158707.6 11656 L 160483.6 11656 L 160795.6 13432 L 160915.6 13432 Q 161216.8 12914.8 161630.8 12536.8 Q 162044.8 12158.8 162536.8 11906.8 Q 163028.8 11654.8 163580.8 11534.8 Q 164132.8 11414.8 164708.8 11414.8 Q 166906 11414.8 168016 12560.8 Q 169126 13706.8 169126 16226.8 L 169126 24832 L 166942 24832 L 166940.8 24832 Z M 181840.4 18218.8 Q 181840.4 19864 181438.4 21142 Q 181036.4 22420 180286.4 23290 Q 179536.4 24160 178468.4 24616 Q 177400.4 25072 176067.2 25072 Q 174832.4 25072 173788.4 24616 Q 172744.4 24160 171982.4 23290 Q 171220.4 22420 170794.4 21142 Q 170368.4 19864 170368.4 18218.8 Q 170368.4 16586.8 170770.4 15320.8 Q 171172.4 14054.8 171916.4 13184.8 Q 172660.4 12314.8 173734.4 11864.8 Q 174808.4 11414.8 176139.2 11414.8 Q 177376.4 11414.8 178420.4 11864.8 Q 179464.4 12314.8 180226.4 13184.8 Q 180988.4 14054.8 181414.4 15320.8 Q 181840.4 16586.8 181840.4 18218.8  Z M 172624.4 18218.8 Q 172624.4 20728 173446.4 21994 Q 174268.4 23260 176116.4 23260 Q 177964.4 23260 178774.4 21994 Q 179584.4 20728 179584.4 18218.8 Q 179584.4 15712 178762.4 14470 Q 177940.4 13228 176092.4 13228 Q 174244.4 13228 173434.4 14470 Q 172624.4 15712 172624.4 18218.8  Z M 174752 9616 Q 175016 9266.8 175298 8810.8 Q 175580 8354.8 175862 7868.8 Q 176144 7382.8 176396 6896.8 Q 176648 6410.8 176840 6002.8 L 179466.8 6002.8 L 179466.8 6256 Q 179274.8 6578.8 178896.8 7064.8 Q 178518.8 7550.8 178056.8 8078.8 Q 177594.8 8606.8 177108.8 9104.8 Q 176622.8 9602.8 176201.6 9938.8 L 174750.8 9938.8 L 174750.8 9616 L 174752 9616 Z M 191118.8 21218.8 Q 191118.8 22178.8 190770.8 22898.8 Q 190422.8 23618.8 189768.8 24104.8 Q 189114.8 24590.8 188190.8 24830.8 Q 187266.8 25070.8 186114.8 25070.8 Q 184808 25070.8 183872 24860.8 Q 182936 24650.8 182226.8 24242.8 L 182226.8 22250.8 Q 182600 22442.8 183056 22628.8 Q 183512 22814.8 184016 22958.8 Q 184520 23102.8 185054 23192.8 Q 185588 23282.8 186116 23282.8 Q 186897.2 23282.8 187443.2 23150.8 Q 187989.2 23018.8 188331.2 22772.8 Q 188673.2 22526.8 188829.2 22172.8 Q 188985.2 21818.8 188985.2 21386.8 Q 188985.2 21016 188865.2 20716 Q 188745.2 20416 188427.2 20122 Q 188109.2 19828 187557.2 19528 Q 187005.2 19228 186141.2 18857.2 Q 185277.2 18484 184587.2 18124 Q 183897.2 17764 183417.2 17320 Q 182937.2 16876 182679.2 16294 Q 182421.2 15712 182421.2 14906.8 Q 182421.2 14066.8 182751.2 13412.8 Q 183081.2 12758.8 183681.2 12314.8 Q 184281.2 11870.8 185121.2 11642.8 Q 185961.2 11414.8 186993.2 11414.8 Q 188156 11414.8 189122 11666.8 Q 190088 11918.8 190952 12326.8 L 190194.8 14089.6 Q 189416 13742.8 188594 13484.8 Q 187772 13226.8 186921.2 13226.8 Q 185697.2 13226.8 185109.2 13628.8 Q 184521.2 14030.8 184521.2 14774.8 Q 184521.2 15193.6 184659.2 15505.6 Q 184797.2 15817.6 185133.2 16093.6 Q 185469.2 16369.6 186033.2 16651.6 Q 186597.2 16933.6 187437.2 17280.4 Q 188301.2 17640.4 188979.2 18000.4 Q 189657.2 18360.4 190137.2 18810.4 Q 190617.2 19260.4 190869.2 19836.4 Q 191121.2 20412.4 191121.2 21215.2 L 191118.8 21218.8 Z M 196228.8 23282.8 Q 196444.8 23282.8 196714.8 23258.8 Q 196984.8 23234.8 197236.8 23198.8 Q 197488.8 23162.8 197698.8 23114.8 Q 197908.8 23066.8 198018 23032 L 198018 24688 Q 197860.8 24760 197620.8 24832 Q 197380.8 24904 197092.8 24958 Q 196804.8 25012 196492.8 25042 Q 196180.8 25072 195882 25072 Q 195138 25072 194502 24880 Q 193866 24688 193404 24220 Q 192942 23752 192678 22954 Q 192414 22156 192414 20945.2 L 192414 13300 L 190555.2 13300 L 190555.2 12329.2 L 192414 11393.2 L 193350 8633.2 L 194611.2 8633.2 L 194611.2 11657.2 L 197923.2 11657.2 L 197923.2 13300 L 194611.2 13300 L 194611.2 20945.2 Q 194611.2 22108 194989.2 22696 Q 195367.2 23284 196231.2 23284 L 196228.8 23282.8 Z M 200675.2 24832 L 198491.2 24832 L 198491.2 11656 L 200675.2 11656 L 200675.2 24832 Z M 198323.2 8090.8 Q 198323.2 7370.8 198689.2 7046.8 Q 199055.2 6722.8 199594 6722.8 Q 199858 6722.8 200092 6800.8 Q 200326 6878.8 200500 7046.8 Q 200674 7214.8 200776 7472.8 Q 200878 7730.8 200878 8090.8 Q 200878 8786.8 200500 9128.8 Q 200122 9470.8 199594 9470.8 Q 199055.2 9470.8 198689.2 9134.8 Q 198323.2 8798.8 198323.2 8089.6 L 198323.2 8090.8 Z M 207780.8 25072 Q 206570 25072 205514 24694 Q 204458 24316 203678 23494 Q 202898 22672 202454 21394 Q 202010 20116 202010 18316 Q 202010 16433.2 202466 15119.2 Q 202922 13805.2 203720 12983.2 Q 204518 12161.2 205586 11789.2 Q 206654 11417.2 207878 11417.2 Q 208814 11417.2 209708 11621.2 Q 210602 11825.2 211202 12124 L 210554 13972 Q 210276.8 13852 209940.8 13738 Q 209604.8 13624 209244.8 13534 Q 208884.8 13444 208536.8 13390 Q 208188.8 13336 207876.8 13336 Q 205994 13336 205130 14542 Q 204266 15748 204266 18292 Q 204266 20825.2 205136 21995.2 Q 206006 23165.2 207782 23165.2 Q 208755.2 23165.2 209541.2 22943.2 Q 210327.2 22721.2 210975.2 22420 L 210975.2 24364 Q 210327.2 24713.2 209589.2 24893.2 Q 208851.2 25073.2 207782 25073.2 L 207780.8 25072 Z M 222800.4 18218.8 Q 222800.4 19864 222398.4 21142 Q 221996.4 22420 221246.4 23290 Q 220496.4 24160 219428.4 24616 Q 218360.4 25072 217027.2 25072 Q 215792.4 25072 214748.4 24616 Q 213704.4 24160 212942.4 23290 Q 212180.4 22420 211754.4 21142 Q 211328.4 19864 211328.4 18218.8 Q 211328.4 16586.8 211730.4 15320.8 Q 212132.4 14054.8 212876.4 13184.8 Q 213620.4 12314.8 214694.4 11864.8 Q 215768.4 11414.8 217099.2 11414.8 Q 218336.4 11414.8 219380.4 11864.8 Q 220424.4 12314.8 221186.4 13184.8 Q 221948.4 14054.8 222374.4 15320.8 Q 222800.4 16586.8 222800.4 18218.8  Z M 213584.4 18218.8 Q 213584.4 20728 214406.4 21994 Q 215228.4 23260 217076.4 23260 Q 218924.4 23260 219734.4 21994 Q 220544.4 20728 220544.4 18218.8 Q 220544.4 15712 219722.4 14470 Q 218900.4 13228 217052.4 13228 Q 215204.4 13228 214394.4 14470 Q 213584.4 15712 213584.4 18218.8  Z M 236579.2 23066.8 L 236483.2 23066.8 Q 236219.2 23474.8 235865.2 23840.8 Q 235511.2 24206.8 235049.2 24482.8 Q 234587.2 24758.8 234011.2 24914.8 Q 233435.2 25070.8 232715.2 25070.8 Q 231600.4 25070.8 230676.4 24638.8 Q 229752.4 24206.8 229092.4 23348.8 Q 228432.4 22490.8 228072.4 21218.8 Q 227712.4 19946.8 227712.4 18266.8 Q 227712.4 16576 228072.4 15298 Q 228432.4 14020 229092.4 13156 Q 229752.4 12292 230676.4 11854 Q 231600.4 11416 232715.2 11416 Q 233424.4 11416 234000.4 11572 Q 234576.4 11728 235038.4 11992 Q 235500.4 12256 235860.4 12604 Q 236220.4 12952 236484.4 13336 L 236628.4 13336 Q 236593.6 12928 236556.4 12554.8 Q 236532.4 12242.8 236508.4 11912.8 Q 236484.4 11582.8 236484.4 11390.8 L 236484.4 6158.8 L 238668.4 6158.8 L 238668.4 24830.8 L 236905.6 24830.8 L 236580.4 23065.6 L 236579.2 23066.8 Z M 233136.4 23258.8 Q 234048.4 23258.8 234678.4 22982.8 Q 235308.4 22706.8 235698.4 22142.8 Q 236088.4 21578.8 236274.4 20732.8 Q 236460.4 19886.8 236484.4 18758.8 L 236484.4 18265.6 Q 236484.4 17054.8 236322.4 16112.8 Q 236160.4 15170.8 235770.4 14528.8 Q 235380.4 13886.8 234732.4 13556.8 Q 234084.4 13226.8 233113.6 13226.8 Q 231492.4 13226.8 230730.4 14534.8 Q 229968.4 15842.8 229968.4 18290.8 Q 229968.4 20800 230730.4 22030 Q 231492.4 23260 233137.6 23260 L 233136.4 23258.8 Z M 246041.6 25072 Q 244721.6 25072 243629.6 24628 Q 242537.6 24184 241751.6 23332 Q 240965.6 22480 240533.6 21220 Q 240101.6 19960 240101.6 18338.8 Q 240101.6 16706.8 240497.6 15422.8 Q 240893.6 14138.8 241613.6 13244.8 Q 242333.6 12350.8 243335.6 11882.8 Q 244337.6 11414.8 245550.8 11414.8 Q 246737.6 11414.8 247685.6 11840.8 Q 248633.6 12266.8 249293.6 13040.8 Q 249953.6 13814.8 250307.6 14900.8 Q 250661.6 15986.8 250661.6 17306.8 L 250661.6 18664 L 242357.6 18664 Q 242416.4 20978.8 243334.4 22070.8 Q 244252.4 23162.8 246063.2 23162.8 Q 246676.4 23162.8 247198.4 23102.8 Q 247720.4 23042.8 248206.4 22928.8 Q 248692.4 22814.8 249148.4 22640.8 Q 249604.4 22466.8 250071.2 22250.8 L 250071.2 24194.8 Q 249591.2 24424 249129.2 24592 Q 248667.2 24760 248181.2 24868 Q 247695.2 24976 247173.2 25024 Q 246651.2 25072 246038 25072 L 246041.6 25072 Z M 245502.8 13226.8 Q 244134.8 13226.8 243336.8 14162.8 Q 242538.8 15098.8 242408 16888 L 248312 16888 Q 248312 16072 248150 15394 Q 247988 14716 247646 14236 Q 247304 13756 246776 13492 Q 246248 13228 245504 13228 L 245502.8 13226.8 Z M 260075.2 23282.8 Q 260291.2 23282.8 260561.2 23258.8 Q 260831.2 23234.8 261083.2 23198.8 Q 261335.2 23162.8 261545.2 23114.8 Q 261755.2 23066.8 261864.4 23032 L 261864.4 24688 Q 261707.2 24760 261467.2 24832 Q 261227.2 24904 260939.2 24958 Q 260651.2 25012 260339.2 25042 Q 260027.2 25072 259728.4 25072 Q 258984.4 25072 258348.4 24880 Q 257712.4 24688 257250.4 24220 Q 256788.4 23752 256524.4 22954 Q 256260.4 22156 256260.4 20945.2 L 256260.4 13300 L 254401.6 13300 L 254401.6 12329.2 L 256260.4 11393.2 L 257196.4 8633.2 L 258457.6 8633.2 L 258457.6 11657.2 L 261769.6 11657.2 L 261769.6 13300 L 258457.6 13300 L 258457.6 20945.2 Q 258457.6 22108 258835.6 22696 Q 259213.6 23284 260077.6 23284 L 260075.2 23282.8 Z M 270870.8 24832 L 270545.6 23066.8 L 270425.6 23066.8 Q 270126.8 23584 269712.8 23962 Q 269298.8 24340 268806.8 24586 Q 268314.8 24832 267762.8 24952 Q 267210.8 25072 266634.8 25072 Q 265544 25072 264716 24796 Q 263888 24520 263336 23932 Q 262784 23344 262502 22432 Q 262220 21520 262220 20258.8 L 262220 11656 L 264404 11656 L 264404 20138.8 Q 264404 21698.8 265040 22478.8 Q 265676 23258.8 267009.2 23258.8 Q 267980 23258.8 268640 22946.8 Q 269300 22634.8 269702 22028.8 Q 270104 21422.8 270278 20534.8 Q 270452 19646.8 270452 18494.8 L 270452 11654.8 L 272636 11654.8 L 272636 24830.8 L 270873.2 24830.8 L 270870.8 24832 Z M 12368 54476.8 L 12368 45991.6 Q 12368 44431.6 11738 43651.6 Q 11108 42871.6 9764 42871.6 Q 8790.8 42871.6 8130.8 43183.6 Q 7470.8 43495.6 7068.8 44107.6 Q 6666.8 44719.6 6492.8 45607.6 Q 6318.8 46495.6 6318.8 47647.6 L 6318.8 54476.8 L 4134.8 54476.8 L 4134.8 41300.8 L 5910.8 41300.8 L 6222.8 43076.8 L 6342.8 43076.8 Q 6644 42559.6 7058 42181.6 Q 7472 41803.6 7964 41551.6 Q 8456 41299.6 9008 41179.6 Q 9560 41059.6 10136 41059.6 Q 12333.2 41059.6 13443.2 42205.6 Q 14553.2 43351.6 14553.2 45871.6 L 14553.2 54476.8 L 12369.2 54476.8 L 12368 54476.8 Z M 18710.4 54476.8 L 16526.4 54476.8 L 16526.4 41300.8 L 18710.4 41300.8 L 18710.4 54476.8 Z M 16358.4 37735.6 Q 16358.4 37015.6 16724.4 36691.6 Q 17090.4 36367.6 17629.2 36367.6 Q 17893.2 36367.6 18127.2 36445.6 Q 18361.2 36523.6 18535.2 36691.6 Q 18709.2 36859.6 18811.2 37117.6 Q 18913.2 37375.6 18913.2 37735.6 Q 18913.2 38431.6 18535.2 38773.6 Q 18157.2 39115.6 17629.2 39115.6 Q 17090.4 39115.6 16724.4 38779.6 Q 16358.4 38443.6 16358.4 37734.4 L 16358.4 37735.6 Z M 23189.2 54476.8 L 18688 41300.8 L 20944 41300.8 L 23333.2 48631.6 Q 23464 49028.8 23644 49652.8 Q 23824 50276.8 24004 50924.8 Q 24184 51572.8 24334 52148.8 Q 24484 52724.8 24532 53023.6 L 24614.8 53023.6 Q 24676 52724.8 24820 52148.8 Q 24964 51572.8 25144 50924.8 Q 25324 50276.8 25504 49652.8 Q 25684 49028.8 25814.8 48631.6 L 28204 41300.8 L 30460 41300.8 L 25958.8 54476.8 L 23188 54476.8 L 23189.2 54476.8 Z M 35660.8 54716.8 Q 34340.8 54716.8 33248.8 54272.8 Q 32156.8 53828.8 31370.8 52976.8 Q 30584.8 52124.8 30152.8 50864.8 Q 29720.8 49604.8 29720.8 47983.6 Q 29720.8 46351.6 30116.8 45067.6 Q 30512.8 43783.6 31232.8 42889.6 Q 31952.8 41995.6 32954.8 41527.6 Q 33956.8 41059.6 35170 41059.6 Q 36356.8 41059.6 37304.8 41485.6 Q 38252.8 41911.6 38912.8 42685.6 Q 39572.8 43459.6 39926.8 44545.6 Q 40280.8 45631.6 40280.8 46951.6 L 40280.8 48308.8 L 31976.8 48308.8 Q 32035.6 50623.6 32953.6 51715.6 Q 33871.6 52807.6 35682.4 52807.6 Q 36295.6 52807.6 36817.6 52747.6 Q 37339.6 52687.6 37825.6 52573.6 Q 38311.6 52459.6 38767.6 52285.6 Q 39223.6 52111.6 39690.4 51895.6 L 39690.4 53839.6 Q 39210.4 54068.8 38748.4 54236.8 Q 38286.4 54404.8 37800.4 54512.8 Q 37314.4 54620.8 36792.4 54668.8 Q 36270.4 54716.8 35657.2 54716.8 L 35660.8 54716.8 Z M 35122 42871.6 Q 33754 42871.6 32956 43807.6 Q 32158 44743.6 32027.2 46532.8 L 37931.2 46532.8 Q 37931.2 45716.8 37769.2 45038.8 Q 37607.2 44360.8 37265.2 43880.8 Q 36923.2 43400.8 36395.2 43136.8 Q 35867.2 42872.8 35123.2 42872.8 L 35122 42871.6 Z M 43644.8 54476.8 L 41460.8 54476.8 L 41460.8 35804.8 L 43644.8 35804.8 L 43644.8 54476.8 Z M 57389.2 54476.8 L 56944 52652.8 L 56848 52652.8 Q 56453.2 53191.6 56057.2 53581.6 Q 55661.2 53971.6 55193.2 54223.6 Q 54725.2 54475.6 54149.2 54595.6 Q 53573.2 54715.6 52816 54715.6 Q 51989.2 54715.6 51293.2 54481.6 Q 50597.2 54247.6 50087.2 53761.6 Q 49577.2 53275.6 49289.2 52537.6 Q 49001.2 51799.6 49001.2 50791.6 Q 49001.2 48823.6 50387.2 47767.6 Q 51773.2 46711.6 54605.2 46615.6 L 56813.2 46532.8 L 56813.2 45703.6 Q 56813.2 44900.8 56639.2 44360.8 Q 56465.2 43820.8 56135.2 43490.8 Q 55805.2 43160.8 55319.2 43016.8 Q 54833.2 42872.8 54209.2 42872.8 Q 53214.4 42872.8 52356.4 43160.8 Q 51498.4 43448.8 50706.4 43856.8 L 49938.4 42214 Q 50826.4 41734 51918.4 41398 Q 53010.4 41062 54210.4 41062 Q 55434.4 41062 56328.4 41308 Q 57222.4 41554 57804.4 42088 Q 58386.4 42622 58674.4 43450 Q 58962.4 44278 58962.4 45454 L 58962.4 54478 L 57391.6 54478 L 57389.2 54476.8 Z M 53381.2 52951.6 Q 54112 52951.6 54736 52723.6 Q 55360 52495.6 55816 52033.6 Q 56272 51571.6 56530 50869.6 Q 56788 50167.6 56788 49220.8 L 56788 48031.6 L 55070.8 48116.8 Q 53990.8 48164.8 53258.8 48356.8 Q 52526.8 48548.8 52088.8 48890.8 Q 51650.8 49232.8 51458.8 49718.8 Q 51266.8 50204.8 51266.8 50815.6 Q 51266.8 51919.6 51848.8 52435.6 Q 52430.8 52951.6 53380 52951.6 L 53381.2 52951.6 Z M 65905.6 54716.8 Q 64694.8 54716.8 63638.8 54338.8 Q 62582.8 53960.8 61802.8 53138.8 Q 61022.8 52316.8 60578.8 51038.8 Q 60134.8 49760.8 60134.8 47960.8 Q 60134.8 46078 60590.8 44764 Q 61046.8 43450 61844.8 42628 Q 62642.8 41806 63710.8 41434 Q 64778.8 41062 66002.8 41062 Q 66938.8 41062 67832.8 41266 Q 68726.8 41470 69326.8 41768.8 L 68678.8 43616.8 Q 68401.6 43496.8 68065.6 43382.8 Q 67729.6 43268.8 67369.6 43178.8 Q 67009.6 43088.8 66661.6 43034.8 Q 66313.6 42980.8 66001.6 42980.8 Q 64118.8 42980.8 63254.8 44186.8 Q 62390.8 45392.8 62390.8 47936.8 Q 62390.8 50470 63260.8 51640 Q 64130.8 52810 65906.8 52810 Q 66880 52810 67666 52588 Q 68452 52366 69100 52064.8 L 69100 54008.8 Q 68452 54358 67714 54538 Q 66976 54718 65906.8 54718 L 65905.6 54716.8 Z M 74168 52927.6 Q 74384 52927.6 74654 52903.6 Q 74924 52879.6 75176 52843.6 Q 75428 52807.6 75638 52759.6 Q 75848 52711.6 75957.2 52676.8 L 75957.2 54332.8 Q 75800 54404.8 75560 54476.8 Q 75320 54548.8 75032 54602.8 Q 74744 54656.8 74432 54686.8 Q 74120 54716.8 73821.2 54716.8 Q 73077.2 54716.8 72441.2 54524.8 Q 71805.2 54332.8 71343.2 53864.8 Q 70881.2 53396.8 70617.2 52598.8 Q 70353.2 51800.8 70353.2 50590 L 70353.2 42944.8 L 68494.4 42944.8 L 68494.4 41974 L 70353.2 41038 L 71289.2 38278 L 72550.4 38278 L 72550.4 41302 L 75862.4 41302 L 75862.4 42944.8 L 72550.4 42944.8 L 72550.4 50590 Q 72550.4 51752.8 72928.4 52340.8 Q 73306.4 52928.8 74170.4 52928.8 L 74168 52927.6 Z M 84963.6 54476.8 L 84638.4 52711.6 L 84518.4 52711.6 Q 84219.6 53228.8 83805.6 53606.8 Q 83391.6 53984.8 82899.6 54230.8 Q 82407.6 54476.8 81855.6 54596.8 Q 81303.6 54716.8 80727.6 54716.8 Q 79636.8 54716.8 78808.8 54440.8 Q 77980.8 54164.8 77428.8 53576.8 Q 76876.8 52988.8 76594.8 52076.8 Q 76312.8 51164.8 76312.8 49903.6 L 76312.8 41300.8 L 78496.8 41300.8 L 78496.8 49783.6 Q 78496.8 51343.6 79132.8 52123.6 Q 79768.8 52903.6 81102 52903.6 Q 82072.8 52903.6 82732.8 52591.6 Q 83392.8 52279.6 83794.8 51673.6 Q 84196.8 51067.6 84370.8 50179.6 Q 84544.8 49291.6 84544.8 48139.6 L 84544.8 41299.6 L 86728.8 41299.6 L 86728.8 54475.6 L 84966 54475.6 L 84963.6 54476.8 Z M 96250 54476.8 L 95804.8 52652.8 L 95708.8 52652.8 Q 95314 53191.6 94918 53581.6 Q 94522 53971.6 94054 54223.6 Q 93586 54475.6 93010 54595.6 Q 92434 54715.6 91676.8 54715.6 Q 90850 54715.6 90154 54481.6 Q 89458 54247.6 88948 53761.6 Q 88438 53275.6 88150 52537.6 Q 87862 51799.6 87862 50791.6 Q 87862 48823.6 89248 47767.6 Q 90634 46711.6 93466 46615.6 L 95674 46532.8 L 95674 45703.6 Q 95674 44900.8 95500 44360.8 Q 95326 43820.8 94996 43490.8 Q 94666 43160.8 94180 43016.8 Q 93694 42872.8 93070 42872.8 Q 92075.2 42872.8 91217.2 43160.8 Q 90359.2 43448.8 89567.2 43856.8 L 88799.2 42214 Q 89687.2 41734 90779.2 41398 Q 91871.2 41062 93071.2 41062 Q 94295.2 41062 95189.2 41308 Q 96083.2 41554 96665.2 42088 Q 97247.2 42622 97535.2 43450 Q 97823.2 44278 97823.2 45454 L 97823.2 54478 L 96252.4 54478 L 96250 54476.8 Z M 92242 52951.6 Q 92972.8 52951.6 93596.8 52723.6 Q 94220.8 52495.6 94676.8 52033.6 Q 95132.8 51571.6 95390.8 50869.6 Q 95648.8 50167.6 95648.8 49220.8 L 95648.8 48031.6 L 93931.6 48116.8 Q 92851.6 48164.8 92119.6 48356.8 Q 91387.6 48548.8 90949.6 48890.8 Q 90511.6 49232.8 90319.6 49718.8 Q 90127.6 50204.8 90127.6 50815.6 Q 90127.6 51919.6 90709.6 52435.6 Q 91291.6 52951.6 92240.8 52951.6 L 92242 52951.6 Z M 101910.4 54476.8 L 99726.4 54476.8 L 99726.4 35804.8 L 101910.4 35804.8 L 101910.4 54476.8 Z M 116361.6 52711.6 L 116265.6 52711.6 Q 116001.6 53119.6 115647.6 53485.6 Q 115293.6 53851.6 114831.6 54127.6 Q 114369.6 54403.6 113793.6 54559.6 Q 113217.6 54715.6 112497.6 54715.6 Q 111382.8 54715.6 110458.8 54283.6 Q 109534.8 53851.6 108874.8 52993.6 Q 108214.8 52135.6 107854.8 50863.6 Q 107494.8 49591.6 107494.8 47911.6 Q 107494.8 46220.8 107854.8 44942.8 Q 108214.8 43664.8 108874.8 42800.8 Q 109534.8 41936.8 110458.8 41498.8 Q 111382.8 41060.8 112497.6 41060.8 Q 113206.8 41060.8 113782.8 41216.8 Q 114358.8 41372.8 114820.8 41636.8 Q 115282.8 41900.8 115642.8 42248.8 Q 116002.8 42596.8 116266.8 42980.8 L 116410.8 42980.8 Q 116376 42572.8 116338.8 42199.6 Q 116314.8 41887.6 116290.8 41557.6 Q 116266.8 41227.6 116266.8 41035.6 L 116266.8 35803.6 L 118450.8 35803.6 L 118450.8 54475.6 L 116688 54475.6 L 116362.8 52710.4 L 116361.6 52711.6 Z M 112918.8 52903.6 Q 113830.8 52903.6 114460.8 52627.6 Q 115090.8 52351.6 115480.8 51787.6 Q 115870.8 51223.6 116056.8 50377.6 Q 116242.8 49531.6 116266.8 48403.6 L 116266.8 47910.4 Q 116266.8 46699.6 116104.8 45757.6 Q 115942.8 44815.6 115552.8 44173.6 Q 115162.8 43531.6 114514.8 43201.6 Q 113866.8 42871.6 112896 42871.6 Q 111274.8 42871.6 110512.8 44179.6 Q 109750.8 45487.6 109750.8 47935.6 Q 109750.8 50444.8 110512.8 51674.8 Q 111274.8 52904.8 112920 52904.8 L 112918.8 52903.6 Z M 125824 54716.8 Q 124504 54716.8 123412 54272.8 Q 122320 53828.8 121534 52976.8 Q 120748 52124.8 120316 50864.8 Q 119884 49604.8 119884 47983.6 Q 119884 46351.6 120280 45067.6 Q 120676 43783.6 121396 42889.6 Q 122116 41995.6 123118 41527.6 Q 124120 41059.6 125333.2 41059.6 Q 126520 41059.6 127468 41485.6 Q 128416 41911.6 129076 42685.6 Q 129736 43459.6 130090 44545.6 Q 130444 45631.6 130444 46951.6 L 130444 48308.8 L 122140 48308.8 Q 122198.8 50623.6 123116.8 51715.6 Q 124034.8 52807.6 125845.6 52807.6 Q 126458.8 52807.6 126980.8 52747.6 Q 127502.8 52687.6 127988.8 52573.6 Q 128474.8 52459.6 128930.8 52285.6 Q 129386.8 52111.6 129853.6 51895.6 L 129853.6 53839.6 Q 129373.6 54068.8 128911.6 54236.8 Q 128449.6 54404.8 127963.6 54512.8 Q 127477.6 54620.8 126955.6 54668.8 Q 126433.6 54716.8 125820.4 54716.8 L 125824 54716.8 Z M 125285.2 42871.6 Q 123917.2 42871.6 123119.2 43807.6 Q 122321.2 44743.6 122190.4 46532.8 L 128094.4 46532.8 Q 128094.4 45716.8 127932.4 45038.8 Q 127770.4 44360.8 127428.4 43880.8 Q 127086.4 43400.8 126558.4 43136.8 Q 126030.4 42872.8 125286.4 42872.8 L 125285.2 42871.6 Z M 138057.6 54476.8 L 135873.6 54476.8 L 135873.6 41300.8 L 138057.6 41300.8 L 138057.6 54476.8 Z M 135705.6 37735.6 Q 135705.6 37015.6 136071.6 36691.6 Q 136437.6 36367.6 136976.4 36367.6 Q 137240.4 36367.6 137474.4 36445.6 Q 137708.4 36523.6 137882.4 36691.6 Q 138056.4 36859.6 138158.4 37117.6 Q 138260.4 37375.6 138260.4 37735.6 Q 138260.4 38431.6 137882.4 38773.6 Q 137504.4 39115.6 136976.4 39115.6 Q 136437.6 39115.6 136071.6 38779.6 Q 135705.6 38443.6 135705.6 37734.4 L 135705.6 37735.6 Z M 148355.2 54476.8 L 148355.2 45991.6 Q 148355.2 44431.6 147725.2 43651.6 Q 147095.2 42871.6 145751.2 42871.6 Q 144778 42871.6 144118 43183.6 Q 143458 43495.6 143056 44107.6 Q 142654 44719.6 142480 45607.6 Q 142306 46495.6 142306 47647.6 L 142306 54476.8 L 140122 54476.8 L 140122 41300.8 L 141898 41300.8 L 142210 43076.8 L 142330 43076.8 Q 142631.2 42559.6 143045.2 42181.6 Q 143459.2 41803.6 143951.2 41551.6 Q 144443.2 41299.6 144995.2 41179.6 Q 145547.2 41059.6 146123.2 41059.6 Q 148320.4 41059.6 149430.4 42205.6 Q 150540.4 43351.6 150540.4 45871.6 L 150540.4 54476.8 L 148356.4 54476.8 L 148355.2 54476.8 Z M 162665.6 41300.8 L 162665.6 42655.6 L 160302.8 42980.8 Q 160638.8 43399.6 160866.8 44053.6 Q 161094.8 44707.6 161094.8 45534.4 Q 161094.8 46446.4 160812.8 47220.4 Q 160530.8 47994.4 159960.8 48558.4 Q 159390.8 49122.4 158550.8 49440.4 Q 157710.8 49758.4 156593.6 49758.4 Q 156329.6 49758.4 156065.6 49752.4 Q 155801.6 49746.4 155633.6 49709.2 Q 155430.8 49829.2 155232.8 49979.2 Q 155034.8 50129.2 154872.8 50321.2 Q 154710.8 50513.2 154608.8 50753.2 Q 154506.8 50993.2 154506.8 51281.2 Q 154506.8 51604 154650.8 51802 Q 154794.8 52000 155040.8 52108 Q 155286.8 52216 155622.8 52252 Q 155958.8 52288 156329.6 52288 L 158441.6 52288 Q 159558.8 52288 160326.8 52570 Q 161094.8 52852 161580.8 53332 Q 162066.8 53812 162282.8 54466 Q 162498.8 55120 162498.8 55853.2 Q 162498.8 56909.2 162108.8 57749.2 Q 161718.8 58589.2 160914.8 59171.2 Q 160110.8 59753.2 158880.8 60065.2 Q 157650.8 60377.2 155984 60377.2 Q 154698.8 60377.2 153738.8 60125.2 Q 152778.8 59873.2 152142.8 59393.2 Q 151506.8 58913.2 151188.8 58235.2 Q 150870.8 57557.2 150870.8 56704 Q 150870.8 55984 151104.8 55438 Q 151338.8 54892 151734.8 54494.8 Q 152130.8 54097.6 152652.8 53845.6 Q 153174.8 53593.6 153737.6 53462.8 Q 153233.6 53233.6 152909.6 52741.6 Q 152585.6 52249.6 152585.6 51614.8 Q 152585.6 50881.6 152969.6 50347.6 Q 153353.6 49813.6 154182.8 49309.6 Q 153665.6 49093.6 153239.6 48715.6 Q 152813.6 48337.6 152519.6 47851.6 Q 152225.6 47365.6 152063.6 46789.6 Q 151901.6 46213.6 151901.6 45600.4 Q 151901.6 44533.6 152201.6 43693.6 Q 152501.6 42853.6 153089.6 42265.6 Q 153677.6 41677.6 154553.6 41365.6 Q 155429.6 41053.6 156592.4 41053.6 Q 157037.6 41053.6 157511.6 41119.6 Q 157985.6 41185.6 158310.8 41294.8 L 162665.6 41294.8 L 162665.6 41300.8 Z M 152934.8 56636.8 Q 152934.8 57082 153090.8 57466 Q 153246.8 57850 153600.8 58126 Q 153954.8 58402 154536.8 58564 Q 155118.8 58726 155982.8 58726 Q 158214.8 58726 159324.8 58036 Q 160434.8 57346 160434.8 56050 Q 160434.8 55498 160290.8 55150 Q 160146.8 54802 159816.8 54604 Q 159486.8 54406 158946.8 54334 Q 158406.8 54262 157625.6 54262 L 155513.6 54262 Q 155094.8 54262 154638.8 54358 Q 154182.8 54454 153804.8 54718 Q 153426.8 54982 153180.8 55444 Q 152934.8 55906 152934.8 56636.8  Z M 154038.8 45535.6 Q 154038.8 46916.8 154686.8 47588.8 Q 155334.8 48260.8 156521.6 48260.8 Q 157721.6 48260.8 158339.6 47594.8 Q 158957.6 46928.8 158957.6 45502 Q 158957.6 44024.8 158327.6 43328.8 Q 157697.6 42632.8 156497.6 42632.8 Q 155310.8 42632.8 154674.8 43352.8 Q 154038.8 44072.8 154038.8 45536.8 L 154038.8 45535.6 Z M 165296 54476.8 L 163112 54476.8 L 163112 35804.8 L 165296 35804.8 L 165296 54476.8 Z M 172569.6 54716.8 Q 171249.6 54716.8 170157.6 54272.8 Q 169065.6 53828.8 168279.6 52976.8 Q 167493.6 52124.8 167061.6 50864.8 Q 166629.6 49604.8 166629.6 47983.6 Q 166629.6 46351.6 167025.6 45067.6 Q 167421.6 43783.6 168141.6 42889.6 Q 168861.6 41995.6 169863.6 41527.6 Q 170865.6 41059.6 172078.8 41059.6 Q 173265.6 41059.6 174213.6 41485.6 Q 175161.6 41911.6 175821.6 42685.6 Q 176481.6 43459.6 176835.6 44545.6 Q 177189.6 45631.6 177189.6 46951.6 L 177189.6 48308.8 L 168885.6 48308.8 Q 168944.4 50623.6 169862.4 51715.6 Q 170780.4 52807.6 172591.2 52807.6 Q 173204.4 52807.6 173726.4 52747.6 Q 174248.4 52687.6 174734.4 52573.6 Q 175220.4 52459.6 175676.4 52285.6 Q 176132.4 52111.6 176599.2 51895.6 L 176599.2 53839.6 Q 176119.2 54068.8 175657.2 54236.8 Q 175195.2 54404.8 174709.2 54512.8 Q 174223.2 54620.8 173701.2 54668.8 Q 173179.2 54716.8 172566 54716.8 L 172569.6 54716.8 Z M 172030.8 42871.6 Q 170662.8 42871.6 169864.8 43807.6 Q 169066.8 44743.6 168936 46532.8 L 174840 46532.8 Q 174840 45716.8 174678 45038.8 Q 174516 44360.8 174174 43880.8 Q 173832 43400.8 173304 43136.8 Q 172776 42872.8 172032 42872.8 L 172030.8 42871.6 Z M 171014.4 39260.8 Q 171278.4 38911.6 171560.4 38455.6 Q 171842.4 37999.6 172124.4 37513.6 Q 172406.4 37027.6 172658.4 36541.6 Q 172910.4 36055.6 173102.4 35647.6 L 175729.2 35647.6 L 175729.2 35900.8 Q 175537.2 36223.6 175159.2 36709.6 Q 174781.2 37195.6 174319.2 37723.6 Q 173857.2 38251.6 173371.2 38749.6 Q 172885.2 39247.6 172464 39583.6 L 171013.2 39583.6 L 171013.2 39260.8 L 171014.4 39260.8 Z M 186254.8 50863.6 Q 186254.8 51823.6 185906.8 52543.6 Q 185558.8 53263.6 184904.8 53749.6 Q 184250.8 54235.6 183326.8 54475.6 Q 182402.8 54715.6 181250.8 54715.6 Q 179944 54715.6 179008 54505.6 Q 178072 54295.6 177362.8 53887.6 L 177362.8 51895.6 Q 177736 52087.6 178192 52273.6 Q 178648 52459.6 179152 52603.6 Q 179656 52747.6 180190 52837.6 Q 180724 52927.6 181252 52927.6 Q 182033.2 52927.6 182579.2 52795.6 Q 183125.2 52663.6 183467.2 52417.6 Q 183809.2 52171.6 183965.2 51817.6 Q 184121.2 51463.6 184121.2 51031.6 Q 184121.2 50660.8 184001.2 50360.8 Q 183881.2 50060.8 183563.2 49766.8 Q 183245.2 49472.8 182693.2 49172.8 Q 182141.2 48872.8 181277.2 48502 Q 180413.2 48128.8 179723.2 47768.8 Q 179033.2 47408.8 178553.2 46964.8 Q 178073.2 46520.8 177815.2 45938.8 Q 177557.2 45356.8 177557.2 44551.6 Q 177557.2 43711.6 177887.2 43057.6 Q 178217.2 42403.6 178817.2 41959.6 Q 179417.2 41515.6 180257.2 41287.6 Q 181097.2 41059.6 182129.2 41059.6 Q 183292 41059.6 184258 41311.6 Q 185224 41563.6 186088 41971.6 L 185330.8 43734.4 Q 184552 43387.6 183730 43129.6 Q 182908 42871.6 182057.2 42871.6 Q 180833.2 42871.6 180245.2 43273.6 Q 179657.2 43675.6 179657.2 44419.6 Q 179657.2 44838.4 179795.2 45150.4 Q 179933.2 45462.4 180269.2 45738.4 Q 180605.2 46014.4 181169.2 46296.4 Q 181733.2 46578.4 182573.2 46925.2 Q 183437.2 47285.2 184115.2 47645.2 Q 184793.2 48005.2 185273.2 48455.2 Q 185753.2 48905.2 186005.2 49481.2 Q 186257.2 50057.2 186257.2 50860 L 186254.8 50863.6 Z M 187058 53143.6 Q 187058 52687.6 187178 52369.6 Q 187298 52051.6 187502 51853.6 Q 187706 51655.6 187982 51565.6 Q 188258 51475.6 188580.8 51475.6 Q 188892.8 51475.6 189174.8 51565.6 Q 189456.8 51655.6 189660.8 51853.6 Q 189864.8 52051.6 189984.8 52369.6 Q 190104.8 52687.6 190104.8 53143.6 Q 190104.8 53588.8 189984.8 53906.8 Q 189864.8 54224.8 189660.8 54430 Q 189456.8 54635.2 189174.8 54731.2 Q 188892.8 54827.2 188580.8 54827.2 Q 188258 54827.2 187982 54731.2 Q 187706 54635.2 187502 54430 Q 187298 54224.8 187178 53906.8 Q 187058 53588.8 187058 53143.6  Z " fill-rule="nonzero" style="fill:#535353;;fill-opacity:1;"/>
</svg>