<svg version="1.1" x="0" y="0" width="100%" height="100%" viewBox="0 0 39833.6 63795.2" xmlns="http://www.w3.org/2000/svg">
  <path d="M 29864.3 21612.8 Q 29864.3 23435.3 29289.3 24935.3 Q 28714.3 26435.3 27676.8 27535.3 Q 26639.3 28635.3 25189.3 29347.8 Q 23739.3 30060.3 21966.8 30360.3 L 21966.8 30510.3 Q 26389.3 31060.3 28689.3 33322.8 Q 30989.3 35585.3 30989.3 39212.8 Q 30989.3 41612.8 30176.8 43612.8 Q 29364.3 45612.8 27714.3 47062.8 Q 26064.3 48512.8 23539.3 49312.8 Q 21014.3 50112.8 17564.3 50112.8 Q 14836.8 50112.8 12424.3 49687.8 Q 10011.8 49262.8 7884.3 48135.3 L 7884.3 43885.3 Q 10061.8 45035.3 12599.3 45660.3 Q 15136.8 46285.3 17464.3 46285.3 Q 19764.3 46285.3 21439.3 45785.3 Q 23114.3 45285.3 24201.8 44360.3 Q 25289.3 43435.3 25801.8 42085.3 Q 26314.3 40735.3 26314.3 39062.8 Q 26314.3 37362.8 25651.8 36150.3 Q 24989.3 34937.8 23764.3 34150.3 Q 22539.3 33362.8 20776.8 32987.8 Q 19014.3 32612.8 16786.8 32612.8 L 13464.3 32612.8 L 13464.3 28835.3 L 16786.8 28835.3 Q 18814.3 28835.3 20389.3 28335.3 Q 21964.3 27835.3 23026.8 26910.3 Q 24089.3 25985.3 24639.3 24710.3 Q 25189.3 23435.3 25189.3 21912.8 Q 25189.3 20612.8 24739.3 19587.8 Q 24289.3 18562.8 23464.3 17850.3 Q 22639.3 17137.8 21489.3 16762.8 Q 20339.3 16387.8 18939.3 16387.8 Q 16266.8 16387.8 14229.3 17225.3 Q 12191.8 18062.8 10341.8 19412.8 L 8041.8 16285.3 Q 8991.8 15512.8 10154.3 14837.8 Q 11316.8 14162.8 12691.8 13650.3 Q 14066.8 13137.8 15629.3 12837.8 Q 17191.8 12537.8 18941.8 12537.8 Q 21641.8 12537.8 23679.3 13212.8 Q 25716.8 13887.8 27091.8 15100.3 Q 28466.8 16312.8 29166.8 17975.3 Q 29866.8 19637.8 29866.8 21615.3 L 29864.3 21612.8 Z " fill-rule="nonzero" style="fill:#ffffff;;fill-opacity:1;"/>
</svg>