<svg version="1.1" x="0" y="0" width="100%" height="100%" viewBox="0 0 234035.2 32563.2" xmlns="http://www.w3.org/2000/svg">
  <path d="M 100178 15341.75 Q 100178 17470.4 99626 19074.65 Q 99074 20678.9 98027.5 21754.15 Q 96981 22829.4 95457.25 23369.9 Q 93933.5 23910.4 92001.5 23910.4 L 87792.5 23910.4 L 87792.5 7097.4 L 92471.85 7097.4 Q 94232.5 7097.4 95658.5 7626.4 Q 97084.5 8155.4 98085 9196.15 Q 99085.5 10236.9 99631.75 11777.9 Q 100178 13318.9 100178 15342.9 L 100178 15341.75 Z M 97913.65 15410.75 Q 97913.65 13731.75 97534.15 12507 Q 97154.65 11282.25 96430.15 10488.75 Q 95705.65 9695.25 94647.65 9310 Q 93589.65 8924.75 92243 8924.75 L 89932.65 8924.75 L 89932.65 22070.4 L 91795.65 22070.4 Q 94831.65 22070.4 96372.65 20391.4 Q 97913.65 18712.4 97913.65 15410.75  Z M 106524.8 24140.4 Q 105259.8 24140.4 104213.3 23714.9 Q 103166.8 23289.4 102413.55 22472.9 Q 101660.3 21656.4 101246.3 20448.9 Q 100832.3 19241.4 100832.3 17687.75 Q 100832.3 16123.75 101211.8 14893.25 Q 101591.3 13662.75 102281.3 12806 Q 102971.3 11949.25 103931.55 11500.75 Q 104891.8 11052.25 106054.45 11052.25 Q 107191.8 11052.25 108100.3 11460.5 Q 109008.8 11868.75 109641.3 12610.5 Q 110273.8 13352.25 110613.05 14393 Q 110952.3 15433.75 110952.3 16698.75 L 110952.3 17999.4 L 102994.3 17999.4 Q 103050.65 20217.75 103930.4 21264.25 Q 104810.15 22310.75 106545.5 22310.75 Q 107133.15 22310.75 107633.4 22253.25 Q 108133.65 22195.75 108599.4 22086.5 Q 109065.15 21977.25 109502.15 21810.5 Q 109939.15 21643.75 110386.5 21436.75 L 110386.5 23299.75 Q 109926.5 23519.4 109483.75 23680.4 Q 109041 23841.4 108575.25 23944.9 Q 108109.5 24048.4 107609.25 24094.4 Q 107109 24140.4 106521.35 24140.4 L 106524.8 24140.4 Z M 106008.45 12788.75 Q 104697.45 12788.75 103932.7 13685.75 Q 103167.95 14582.75 103042.6 16297.4 L 108700.6 16297.4 Q 108700.6 15515.4 108545.35 14865.65 Q 108390.1 14215.9 108062.35 13755.9 Q 107734.6 13295.9 107228.6 13042.9 Q 106722.6 12789.9 106009.6 12789.9 L 106008.45 12788.75 Z M 119586.45 20447.75 Q 119586.45 21367.75 119252.95 22057.75 Q 118919.45 22747.75 118292.7 23213.5 Q 117665.95 23679.25 116780.45 23909.25 Q 115894.95 24139.25 114790.95 24139.25 Q 113538.6 24139.25 112641.6 23938 Q 111744.6 23736.75 111064.95 23345.75 L 111064.95 21436.75 Q 111422.6 21620.75 111859.6 21799 Q 112296.6 21977.25 112779.6 22115.25 Q 113262.6 22253.25 113774.35 22339.5 Q 114286.1 22425.75 114792.1 22425.75 Q 115540.75 22425.75 116064 22299.25 Q 116587.25 22172.75 116915 21937 Q 117242.75 21701.25 117392.25 21362 Q 117541.75 21022.75 117541.75 20608.75 Q 117541.75 20253.4 117426.75 19965.9 Q 117311.75 19678.4 117007 19396.65 Q 116702.25 19114.9 116173.25 18827.4 Q 115644.25 18539.9 114816.25 18184.55 Q 113988.25 17826.9 113327 17481.9 Q 112665.75 17136.9 112205.75 16711.4 Q 111745.75 16285.9 111498.5 15728.15 Q 111251.25 15170.4 111251.25 14398.75 Q 111251.25 13593.75 111567.5 12967 Q 111883.75 12340.25 112458.75 11914.75 Q 113033.75 11489.25 113838.75 11270.75 Q 114643.75 11052.25 115632.75 11052.25 Q 116747.1 11052.25 117672.85 11293.75 Q 118598.6 11535.25 119426.6 11926.25 L 118700.95 13615.6 Q 117954.6 13283.25 117166.85 13036 Q 116379.1 12788.75 115563.75 12788.75 Q 114390.75 12788.75 113827.25 13174 Q 113263.75 13559.25 113263.75 14272.25 Q 113263.75 14673.6 113396 14972.6 Q 113528.25 15271.6 113850.25 15536.1 Q 114172.25 15800.6 114712.75 16070.85 Q 115253.25 16341.1 116058.25 16673.45 Q 116886.25 17018.45 117536 17363.45 Q 118185.75 17708.45 118645.75 18139.7 Q 119105.75 18570.95 119347.25 19122.95 Q 119588.75 19674.95 119588.75 20444.3 L 119586.45 20447.75 Z M 125410.2 24140.4 Q 124249.85 24140.4 123237.85 23778.15 Q 122225.85 23415.9 121478.35 22628.15 Q 120730.85 21840.4 120305.35 20615.65 Q 119879.85 19390.9 119879.85 17665.9 Q 119879.85 15861.55 120316.85 14602.3 Q 120753.85 13343.05 121518.6 12555.3 Q 122283.35 11767.55 123306.85 11411.05 Q 124330.35 11054.55 125503.35 11054.55 Q 126400.35 11054.55 127257.1 11250.05 Q 128113.85 11445.55 128688.85 11731.9 L 128067.85 13502.9 Q 127802.2 13387.9 127480.2 13278.65 Q 127158.2 13169.4 126813.2 13083.15 Q 126468.2 12996.9 126134.7 12945.15 Q 125801.2 12893.4 125502.2 12893.4 Q 123697.85 12893.4 122869.85 14049.15 Q 122041.85 15204.9 122041.85 17642.9 Q 122041.85 20070.55 122875.6 21191.8 Q 123709.35 22313.05 125411.35 22313.05 Q 126344 22313.05 127097.25 22100.3 Q 127850.5 21887.55 128471.5 21598.9 L 128471.5 23461.9 Q 127850.5 23796.55 127143.25 23969.05 Q 126436 24141.55 125411.35 24141.55 L 125410.2 24140.4 Z M 137564.25 23910.4 L 137252.6 22218.75 L 137137.6 22218.75 Q 136851.25 22714.4 136454.5 23076.65 Q 136057.75 23438.9 135586.25 23674.65 Q 135114.75 23910.4 134585.75 24025.4 Q 134056.75 24140.4 133504.75 24140.4 Q 132459.4 24140.4 131665.9 23875.9 Q 130872.4 23611.4 130343.4 23047.9 Q 129814.4 22484.4 129544.15 21610.4 Q 129273.9 20736.4 129273.9 19527.75 L 129273.9 11283.4 L 131366.9 11283.4 L 131366.9 19412.75 Q 131366.9 20907.75 131976.4 21655.25 Q 132585.9 22402.75 133863.55 22402.75 Q 134793.9 22402.75 135426.4 22103.75 Q 136058.9 21804.75 136444.15 21224 Q 136829.4 20643.25 136996.15 19792.25 Q 137162.9 18941.25 137162.9 17837.25 L 137162.9 11282.25 L 139255.9 11282.25 L 139255.9 23909.25 L 137566.55 23909.25 L 137564.25 23910.4 Z M 146866.6 11053.4 Q 147947.6 11053.4 148833.1 11467.4 Q 149718.6 11881.4 150345.35 12703.65 Q 150972.1 13525.9 151317.1 14744.9 Q 151662.1 15963.9 151662.1 17573.9 Q 151662.1 19196.55 151317.1 20421.3 Q 150972.1 21646.05 150345.35 22474.05 Q 149718.6 23302.05 148833.1 23721.8 Q 147947.6 24141.55 146866.6 24141.55 Q 146189.25 24141.55 145637.25 23992.05 Q 145085.25 23842.55 144642.5 23595.3 Q 144199.75 23348.05 143860.5 23014.55 Q 143521.25 22681.05 143255.6 22313.05 L 143117.6 22313.05 L 142693.25 23912.7 L 141162.6 23912.7 L 141162.6 6018.7 L 143255.6 6018.7 L 143255.6 10342.7 Q 143255.6 10744.05 143244.1 11198.3 Q 143232.6 11652.55 143209.6 12043.55 Q 143186.6 12503.55 143163.6 12940.55 L 143255.6 12940.55 Q 143521.25 12536.9 143854.75 12191.9 Q 144188.25 11846.9 144631 11593.9 Q 145073.75 11340.9 145625.75 11197.15 Q 146177.75 11053.4 146867.75 11053.4 L 146866.6 11053.4 Z M 146465.25 12788.75 Q 145545.25 12788.75 144930 13082 Q 144314.75 13375.25 143941 13973.25 Q 143567.25 14571.25 143412 15468.25 Q 143256.75 16365.25 143256.75 17571.6 Q 143256.75 18734.25 143412 19637 Q 143567.25 20539.75 143941 21155 Q 144314.75 21770.25 144935.75 22086.5 Q 145556.75 22402.75 146489.4 22402.75 Q 148040.75 22402.75 148771 21149.25 Q 149501.25 19895.75 149501.25 17549.75 Q 149501.25 15157.75 148771 13973.25 Q 148040.75 12788.75 146466.4 12788.75 L 146465.25 12788.75 Z M 158402.25 11053.4 Q 158734.6 11053.4 159148.6 11082.15 Q 159562.6 11110.9 159861.6 11169.55 L 159585.6 13101.55 Q 159263.6 13042.9 158924.35 13002.65 Q 158585.1 12962.4 158286.1 12962.4 Q 157560.45 12962.4 156962.45 13255.65 Q 156364.45 13548.9 155933.2 14095.15 Q 155501.95 14641.4 155266.2 15406.15 Q 155030.45 16170.9 155030.45 17103.55 L 155030.45 23911.55 L 152937.45 23911.55 L 152937.45 11284.55 L 154639.45 11284.55 L 154892.45 13594.9 L 154984.45 13594.9 Q 155273.1 13101.55 155600.85 12641.55 Q 155928.6 12181.55 156336.85 11830.8 Q 156745.1 11480.05 157251.1 11267.3 Q 157757.1 11054.55 158401.1 11054.55 L 158402.25 11053.4 Z M 162404.4 23910.4 L 160311.4 23910.4 L 160311.4 11283.4 L 162404.4 11283.4 L 162404.4 23910.4 Z M 160150.4 7866.75 Q 160150.4 7176.75 160501.15 6866.25 Q 160851.9 6555.75 161368.25 6555.75 Q 161621.25 6555.75 161845.5 6630.5 Q 162069.75 6705.25 162236.5 6866.25 Q 162403.25 7027.25 162501 7274.5 Q 162598.75 7521.75 162598.75 7866.75 Q 162598.75 8533.75 162236.5 8861.5 Q 161874.25 9189.25 161368.25 9189.25 Q 160851.9 9189.25 160501.15 8867.25 Q 160150.4 8545.25 160150.4 7865.6 L 160150.4 7866.75 Z M 169768.65 11053.4 Q 170101 11053.4 170515 11082.15 Q 170929 11110.9 171228 11169.55 L 170952 13101.55 Q 170630 13042.9 170290.75 13002.65 Q 169951.5 12962.4 169652.5 12962.4 Q 168926.85 12962.4 168328.85 13255.65 Q 167730.85 13548.9 167299.6 14095.15 Q 166868.35 14641.4 166632.6 15406.15 Q 166396.85 16170.9 166396.85 17103.55 L 166396.85 23911.55 L 164303.85 23911.55 L 164303.85 11284.55 L 166005.85 11284.55 L 166258.85 13594.9 L 166350.85 13594.9 Q 166639.5 13101.55 166967.25 12641.55 Q 167295 12181.55 167703.25 11830.8 Q 168111.5 11480.05 168617.5 11267.3 Q 169123.5 11054.55 169767.5 11054.55 L 169768.65 11053.4 Z M 176668.8 24140.4 Q 175403.8 24140.4 174357.3 23714.9 Q 173310.8 23289.4 172557.55 22472.9 Q 171804.3 21656.4 171390.3 20448.9 Q 170976.3 19241.4 170976.3 17687.75 Q 170976.3 16123.75 171355.8 14893.25 Q 171735.3 13662.75 172425.3 12806 Q 173115.3 11949.25 174075.55 11500.75 Q 175035.8 11052.25 176198.45 11052.25 Q 177335.8 11052.25 178244.3 11460.5 Q 179152.8 11868.75 179785.3 12610.5 Q 180417.8 13352.25 180757.05 14393 Q 181096.3 15433.75 181096.3 16698.75 L 181096.3 17999.4 L 173138.3 17999.4 Q 173194.65 20217.75 174074.4 21264.25 Q 174954.15 22310.75 176689.5 22310.75 Q 177277.15 22310.75 177777.4 22253.25 Q 178277.65 22195.75 178743.4 22086.5 Q 179209.15 21977.25 179646.15 21810.5 Q 180083.15 21643.75 180530.5 21436.75 L 180530.5 23299.75 Q 180070.5 23519.4 179627.75 23680.4 Q 179185 23841.4 178719.25 23944.9 Q 178253.5 24048.4 177753.25 24094.4 Q 177253 24140.4 176665.35 24140.4 L 176668.8 24140.4 Z M 176152.45 12788.75 Q 174841.45 12788.75 174076.7 13685.75 Q 173311.95 14582.75 173186.6 16297.4 L 178844.6 16297.4 Q 178844.6 15515.4 178689.35 14865.65 Q 178534.1 14215.9 178206.35 13755.9 Q 177878.6 13295.9 177372.6 13042.9 Q 176866.6 12789.9 176153.6 12789.9 L 176152.45 12788.75 Z M 197297.45 23910.4 L 197297.45 15778.75 Q 197297.45 14283.75 196722.45 13536.25 Q 196147.45 12788.75 194938.8 12788.75 Q 194100.45 12788.75 193513.95 13059 Q 192927.45 13329.25 192553.7 13852.5 Q 192179.95 14375.75 192007.45 15152 Q 191834.95 15928.25 191834.95 16940.25 L 191834.95 23909.25 L 189731.6 23909.25 L 189731.6 15777.6 Q 189731.6 14282.6 189162.35 13535.1 Q 188593.1 12787.6 187386.75 12787.6 Q 186500.1 12787.6 185902.1 13086.6 Q 185304.1 13385.6 184941.85 13972.1 Q 184579.6 14558.6 184424.35 15409.6 Q 184269.1 16260.6 184269.1 17364.6 L 184269.1 23909.25 L 182176.1 23909.25 L 182176.1 11282.25 L 183878.1 11282.25 L 184177.1 12984.25 L 184292.1 12984.25 Q 184568.1 12488.6 184947.6 12126.35 Q 185327.1 11764.1 185781.35 11522.6 Q 186235.6 11281.1 186747.35 11166.1 Q 187259.1 11051.1 187788.1 11051.1 Q 189168.1 11051.1 190082.35 11557.1 Q 190996.6 12063.1 191433.6 13144.1 L 191525.6 13144.1 Q 191824.6 12602.45 192244.35 12211.45 Q 192664.1 11820.45 193164.35 11561.7 Q 193664.6 11302.95 194216.6 11176.45 Q 194768.6 11049.95 195343.6 11049.95 Q 197354.95 11049.95 198372.7 12148.2 Q 199390.45 13246.45 199390.45 15661.45 L 199390.45 23908.1 L 197297.45 23908.1 L 197297.45 23910.4 Z M 211513.85 17572.75 Q 211513.85 19149.4 211128.6 20374.15 Q 210743.35 21598.9 210024.6 22432.65 Q 209305.85 23266.4 208282.35 23703.4 Q 207258.85 24140.4 205981.2 24140.4 Q 204797.85 24140.4 203797.35 23703.4 Q 202796.85 23266.4 202066.6 22432.65 Q 201336.35 21598.9 200928.1 20374.15 Q 200519.85 19149.4 200519.85 17572.75 Q 200519.85 16008.75 200905.1 14795.5 Q 201290.35 13582.25 202003.35 12748.5 Q 202716.35 11914.75 203745.6 11483.5 Q 204774.85 11052.25 206050.2 11052.25 Q 207235.85 11052.25 208236.35 11483.5 Q 209236.85 11914.75 209967.1 12748.5 Q 210697.35 13582.25 211105.6 14795.5 Q 211513.85 16008.75 211513.85 17572.75  Z M 202681.85 17572.75 Q 202681.85 19977.4 203469.6 21190.65 Q 204257.35 22403.9 206028.35 22403.9 Q 207799.35 22403.9 208575.6 21190.65 Q 209351.85 19977.4 209351.85 17572.75 Q 209351.85 15170.4 208564.1 13980.15 Q 207776.35 12789.9 206005.35 12789.9 Q 204234.35 12789.9 203458.1 13980.15 Q 202681.85 15170.4 202681.85 17572.75  Z M 220348.05 20447.75 Q 220348.05 21367.75 220014.55 22057.75 Q 219681.05 22747.75 219054.3 23213.5 Q 218427.55 23679.25 217542.05 23909.25 Q 216656.55 24139.25 215552.55 24139.25 Q 214300.2 24139.25 213403.2 23938 Q 212506.2 23736.75 211826.55 23345.75 L 211826.55 21436.75 Q 212184.2 21620.75 212621.2 21799 Q 213058.2 21977.25 213541.2 22115.25 Q 214024.2 22253.25 214535.95 22339.5 Q 215047.7 22425.75 215553.7 22425.75 Q 216302.35 22425.75 216825.6 22299.25 Q 217348.85 22172.75 217676.6 21937 Q 218004.35 21701.25 218153.85 21362 Q 218303.35 21022.75 218303.35 20608.75 Q 218303.35 20253.4 218188.35 19965.9 Q 218073.35 19678.4 217768.6 19396.65 Q 217463.85 19114.9 216934.85 18827.4 Q 216405.85 18539.9 215577.85 18184.55 Q 214749.85 17826.9 214088.6 17481.9 Q 213427.35 17136.9 212967.35 16711.4 Q 212507.35 16285.9 212260.1 15728.15 Q 212012.85 15170.4 212012.85 14398.75 Q 212012.85 13593.75 212329.1 12967 Q 212645.35 12340.25 213220.35 11914.75 Q 213795.35 11489.25 214600.35 11270.75 Q 215405.35 11052.25 216394.35 11052.25 Q 217508.7 11052.25 218434.45 11293.75 Q 219360.2 11535.25 220188.2 11926.25 L 219462.55 13615.6 Q 218716.2 13283.25 217928.45 13036 Q 217140.7 12788.75 216325.35 12788.75 Q 215152.35 12788.75 214588.85 13174 Q 214025.35 13559.25 214025.35 14272.25 Q 214025.35 14673.6 214157.6 14972.6 Q 214289.85 15271.6 214611.85 15536.1 Q 214933.85 15800.6 215474.35 16070.85 Q 216014.85 16341.1 216819.85 16673.45 Q 217647.85 17018.45 218297.6 17363.45 Q 218947.35 17708.45 219407.35 18139.7 Q 219867.35 18570.95 220108.85 19122.95 Q 220350.35 19674.95 220350.35 20444.3 L 220348.05 20447.75 Z M 221032.45 22632.75 Q 221032.45 22195.75 221147.45 21891 Q 221262.45 21586.25 221457.95 21396.5 Q 221653.45 21206.75 221917.95 21120.5 Q 222182.45 21034.25 222491.8 21034.25 Q 222790.8 21034.25 223061.05 21120.5 Q 223331.3 21206.75 223526.8 21396.5 Q 223722.3 21586.25 223837.3 21891 Q 223952.3 22195.75 223952.3 22632.75 Q 223952.3 23059.4 223837.3 23364.15 Q 223722.3 23668.9 223526.8 23865.55 Q 223331.3 24062.2 223061.05 24154.2 Q 222790.8 24246.2 222491.8 24246.2 Q 222182.45 24246.2 221917.95 24154.2 Q 221653.45 24062.2 221457.95 23865.55 Q 221262.45 23668.9 221147.45 23364.15 Q 221032.45 23059.4 221032.45 22632.75  Z M 225230.85 22632.75 Q 225230.85 22195.75 225345.85 21891 Q 225460.85 21586.25 225656.35 21396.5 Q 225851.85 21206.75 226116.35 21120.5 Q 226380.85 21034.25 226690.2 21034.25 Q 226989.2 21034.25 227259.45 21120.5 Q 227529.7 21206.75 227725.2 21396.5 Q 227920.7 21586.25 228035.7 21891 Q 228150.7 22195.75 228150.7 22632.75 Q 228150.7 23059.4 228035.7 23364.15 Q 227920.7 23668.9 227725.2 23865.55 Q 227529.7 24062.2 227259.45 24154.2 Q 226989.2 24246.2 226690.2 24246.2 Q 226380.85 24246.2 226116.35 24154.2 Q 225851.85 24062.2 225656.35 23865.55 Q 225460.85 23668.9 225345.85 23364.15 Q 225230.85 23059.4 225230.85 22632.75  Z M 229429.25 22632.75 Q 229429.25 22195.75 229544.25 21891 Q 229659.25 21586.25 229854.75 21396.5 Q 230050.25 21206.75 230314.75 21120.5 Q 230579.25 21034.25 230888.6 21034.25 Q 231187.6 21034.25 231457.85 21120.5 Q 231728.1 21206.75 231923.6 21396.5 Q 232119.1 21586.25 232234.1 21891 Q 232349.1 22195.75 232349.1 22632.75 Q 232349.1 23059.4 232234.1 23364.15 Q 232119.1 23668.9 231923.6 23865.55 Q 231728.1 24062.2 231457.85 24154.2 Q 231187.6 24246.2 230888.6 24246.2 Q 230579.25 24246.2 230314.75 24154.2 Q 230050.25 24062.2 229854.75 23865.55 Q 229659.25 23668.9 229544.25 23364.15 Q 229429.25 23059.4 229429.25 22632.75  Z " fill-rule="nonzero" style="fill:#e01000;;fill-opacity:1;"/>
</svg>