<svg version="1.1" x="0" y="0" width="100%" height="100%" viewBox="0 0 121446.4 61337.6" xmlns="http://www.w3.org/2000/svg">
  <path d="M 17360 15890.8 Q 17360 18112 16784 19786 Q 16208 21460 15116 22582 Q 14024 23704 12434 24268 Q 10844 24832 8828 24832 L 4436 24832 L 4436 7288 L 9318.8 7288 Q 11156 7288 12644 7840 Q 14132 8392 15176 9478 Q 16220 10564 16790 12172 Q 17360 13780 17360 15892 L 17360 15890.8 Z M 14997.2 15962.8 Q 14997.2 14210.8 14601.2 12932.8 Q 14205.2 11654.8 13449.2 10826.8 Q 12693.2 9998.8 11589.2 9596.8 Q 10485.2 9194.8 9080 9194.8 L 6669.2 9194.8 L 6669.2 22912 L 8613.2 22912 Q 11781.2 22912 13389.2 21160 Q 14997.2 19408 14997.2 15962.8  Z M 25062.4 25072 Q 23742.4 25072 22650.4 24628 Q 21558.4 24184 20772.4 23332 Q 19986.4 22480 19554.4 21220 Q 19122.4 19960 19122.4 18338.8 Q 19122.4 16706.8 19518.4 15422.8 Q 19914.4 14138.8 20634.4 13244.8 Q 21354.4 12350.8 22356.4 11882.8 Q 23358.4 11414.8 24571.6 11414.8 Q 25758.4 11414.8 26706.4 11840.8 Q 27654.4 12266.8 28314.4 13040.8 Q 28974.4 13814.8 29328.4 14900.8 Q 29682.4 15986.8 29682.4 17306.8 L 29682.4 18664 L 21378.4 18664 Q 21437.2 20978.8 22355.2 22070.8 Q 23273.2 23162.8 25084 23162.8 Q 25697.2 23162.8 26219.2 23102.8 Q 26741.2 23042.8 27227.2 22928.8 Q 27713.2 22814.8 28169.2 22640.8 Q 28625.2 22466.8 29092 22250.8 L 29092 24194.8 Q 28612 24424 28150 24592 Q 27688 24760 27202 24868 Q 26716 24976 26194 25024 Q 25672 25072 25058.8 25072 L 25062.4 25072 Z M 24523.6 13226.8 Q 23155.6 13226.8 22357.6 14162.8 Q 21559.6 15098.8 21428.8 16888 L 27332.8 16888 Q 27332.8 16072 27170.8 15394 Q 27008.8 14716 26666.8 14236 Q 26324.8 13756 25796.8 13492 Q 25268.8 13228 24524.8 13228 L 24523.6 13226.8 Z M 37611.6 13298.8 L 34670.4 13298.8 L 34670.4 24832 L 32475.6 24832 L 32475.6 13298.8 L 30147.6 13298.8 L 30147.6 12400 L 32475.6 11584 L 32475.6 10432 Q 32475.6 9146.8 32745.6 8300.8 Q 33015.6 7454.8 33525.6 6950.8 Q 34035.6 6446.8 34779.6 6236.8 Q 35523.6 6026.8 36459.6 6026.8 Q 37166.4 6026.8 37760.4 6164.8 Q 38354.4 6302.8 38821.2 6470.8 L 38258.4 8161.6 Q 37885.2 8030.8 37447.2 7928.8 Q 37009.2 7826.8 36529.2 7826.8 Q 36049.2 7826.8 35701.2 7940.8 Q 35353.2 8054.8 35125.2 8342.8 Q 34897.2 8630.8 34783.2 9128.8 Q 34669.2 9626.8 34669.2 10408 L 34669.2 11656 L 37610.4 11656 L 37610.4 13298.8 L 37611.6 13298.8 Z M 41084.8 24832 L 38900.8 24832 L 38900.8 11656 L 41084.8 11656 L 41084.8 24832 Z M 38732.8 8090.8 Q 38732.8 7370.8 39098.8 7046.8 Q 39464.8 6722.8 40003.6 6722.8 Q 40267.6 6722.8 40501.6 6800.8 Q 40735.6 6878.8 40909.6 7046.8 Q 41083.6 7214.8 41185.6 7472.8 Q 41287.6 7730.8 41287.6 8090.8 Q 41287.6 8786.8 40909.6 9128.8 Q 40531.6 9470.8 40003.6 9470.8 Q 39464.8 9470.8 39098.8 9134.8 Q 38732.8 8798.8 38732.8 8089.6 L 38732.8 8090.8 Z M 52406.4 24832 L 52406.4 16346.8 Q 52406.4 14786.8 51776.4 14006.8 Q 51146.4 13226.8 49802.4 13226.8 Q 48829.2 13226.8 48169.2 13538.8 Q 47509.2 13850.8 47107.2 14462.8 Q 46705.2 15074.8 46531.2 15962.8 Q 46357.2 16850.8 46357.2 18002.8 L 46357.2 24832 L 44173.2 24832 L 44173.2 11656 L 45949.2 11656 L 46261.2 13432 L 46381.2 13432 Q 46682.4 12914.8 47096.4 12536.8 Q 47510.4 12158.8 48002.4 11906.8 Q 48494.4 11654.8 49046.4 11534.8 Q 49598.4 11414.8 50174.4 11414.8 Q 52371.6 11414.8 53481.6 12560.8 Q 54591.6 13706.8 54591.6 16226.8 L 54591.6 24832 L 52407.6 24832 L 52406.4 24832 Z M 62796.8 25072 Q 61476.8 25072 60384.8 24628 Q 59292.8 24184 58506.8 23332 Q 57720.8 22480 57288.8 21220 Q 56856.8 19960 56856.8 18338.8 Q 56856.8 16706.8 57252.8 15422.8 Q 57648.8 14138.8 58368.8 13244.8 Q 59088.8 12350.8 60090.8 11882.8 Q 61092.8 11414.8 62306 11414.8 Q 63492.8 11414.8 64440.8 11840.8 Q 65388.8 12266.8 66048.8 13040.8 Q 66708.8 13814.8 67062.8 14900.8 Q 67416.8 15986.8 67416.8 17306.8 L 67416.8 18664 L 59112.8 18664 Q 59171.6 20978.8 60089.6 22070.8 Q 61007.6 23162.8 62818.4 23162.8 Q 63431.6 23162.8 63953.6 23102.8 Q 64475.6 23042.8 64961.6 22928.8 Q 65447.6 22814.8 65903.6 22640.8 Q 66359.6 22466.8 66826.4 22250.8 L 66826.4 24194.8 Q 66346.4 24424 65884.4 24592 Q 65422.4 24760 64936.4 24868 Q 64450.4 24976 63928.4 25024 Q 63406.4 25072 62793.2 25072 L 62796.8 25072 Z M 62258 13226.8 Q 60890 13226.8 60092 14162.8 Q 59294 15098.8 59163.2 16888 L 65067.2 16888 Q 65067.2 16072 64905.2 15394 Q 64743.2 14716 64401.2 14236 Q 64059.2 13756 63531.2 13492 Q 63003.2 13228 62259.2 13228 L 62258 13226.8 Z M 78878.4 23282.8 Q 79094.4 23282.8 79364.4 23258.8 Q 79634.4 23234.8 79886.4 23198.8 Q 80138.4 23162.8 80348.4 23114.8 Q 80558.4 23066.8 80667.6 23032 L 80667.6 24688 Q 80510.4 24760 80270.4 24832 Q 80030.4 24904 79742.4 24958 Q 79454.4 25012 79142.4 25042 Q 78830.4 25072 78531.6 25072 Q 77787.6 25072 77151.6 24880 Q 76515.6 24688 76053.6 24220 Q 75591.6 23752 75327.6 22954 Q 75063.6 22156 75063.6 20945.2 L 75063.6 13300 L 73204.8 13300 L 73204.8 12329.2 L 75063.6 11393.2 L 75999.6 8633.2 L 77260.8 8633.2 L 77260.8 11657.2 L 80572.8 11657.2 L 80572.8 13300 L 77260.8 13300 L 77260.8 20945.2 Q 77260.8 22108 77638.8 22696 Q 78016.8 23284 78880.8 23284 L 78878.4 23282.8 Z M 90698 24832 L 90372.8 23066.8 L 90252.8 23066.8 Q 89954 23584 89540 23962 Q 89126 24340 88634 24586 Q 88142 24832 87590 24952 Q 87038 25072 86462 25072 Q 85371.2 25072 84543.2 24796 Q 83715.2 24520 83163.2 23932 Q 82611.2 23344 82329.2 22432 Q 82047.2 21520 82047.2 20258.8 L 82047.2 11656 L 84231.2 11656 L 84231.2 20138.8 Q 84231.2 21698.8 84867.2 22478.8 Q 85503.2 23258.8 86836.4 23258.8 Q 87807.2 23258.8 88467.2 22946.8 Q 89127.2 22634.8 89529.2 22028.8 Q 89931.2 21422.8 90105.2 20534.8 Q 90279.2 19646.8 90279.2 18494.8 L 90279.2 11654.8 L 92463.2 11654.8 L 92463.2 24830.8 L 90700.4 24830.8 L 90698 24832 Z M 9837.2 40036.8 Q 10184 40036.8 10616 40066.8 Q 11048 40096.8 11360 40158 L 11072 42174 Q 10736 42112.8 10382 42070.8 Q 10028 42028.8 9716 42028.8 Q 8958.8 42028.8 8334.8 42334.8 Q 7710.8 42640.8 7260.8 43210.8 Q 6810.8 43780.8 6564.8 44578.8 Q 6318.8 45376.8 6318.8 46350 L 6318.8 53454 L 4134.8 53454 L 4134.8 40278 L 5910.8 40278 L 6174.8 42688.8 L 6270.8 42688.8 Q 6572 42174 6914 41694 Q 7256 41214 7682 40848 Q 8108 40482 8636 40260 Q 9164 40038 9836 40038 L 9837.2 40036.8 Z M 21475.6 53452.8 L 21150.4 51687.6 L 21030.4 51687.6 Q 20731.6 52204.8 20317.6 52582.8 Q 19903.6 52960.8 19411.6 53206.8 Q 18919.6 53452.8 18367.6 53572.8 Q 17815.6 53692.8 17239.6 53692.8 Q 16148.8 53692.8 15320.8 53416.8 Q 14492.8 53140.8 13940.8 52552.8 Q 13388.8 51964.8 13106.8 51052.8 Q 12824.8 50140.8 12824.8 48879.6 L 12824.8 40276.8 L 15008.8 40276.8 L 15008.8 48759.6 Q 15008.8 50319.6 15644.8 51099.6 Q 16280.8 51879.6 17614 51879.6 Q 18584.8 51879.6 19244.8 51567.6 Q 19904.8 51255.6 20306.8 50649.6 Q 20708.8 50043.6 20882.8 49155.6 Q 21056.8 48267.6 21056.8 47115.6 L 21056.8 40275.6 L 23240.8 40275.6 L 23240.8 53451.6 L 21478 53451.6 L 21475.6 53452.8 Z M 30340.8 51903.6 Q 30556.8 51903.6 30826.8 51879.6 Q 31096.8 51855.6 31348.8 51819.6 Q 31600.8 51783.6 31810.8 51735.6 Q 32020.8 51687.6 32130 51652.8 L 32130 53308.8 Q 31972.8 53380.8 31732.8 53452.8 Q 31492.8 53524.8 31204.8 53578.8 Q 30916.8 53632.8 30604.8 53662.8 Q 30292.8 53692.8 29994 53692.8 Q 29250 53692.8 28614 53500.8 Q 27978 53308.8 27516 52840.8 Q 27054 52372.8 26790 51574.8 Q 26526 50776.8 26526 49566 L 26526 41920.8 L 24667.2 41920.8 L 24667.2 40950 L 26526 40014 L 27462 37254 L 28723.2 37254 L 28723.2 40278 L 32035.2 40278 L 32035.2 41920.8 L 28723.2 41920.8 L 28723.2 49566 Q 28723.2 50728.8 29101.2 51316.8 Q 29479.2 51904.8 30343.2 51904.8 L 30340.8 51903.6 Z M 41056.4 53452.8 L 40611.2 51628.8 L 40515.2 51628.8 Q 40120.4 52167.6 39724.4 52557.6 Q 39328.4 52947.6 38860.4 53199.6 Q 38392.4 53451.6 37816.4 53571.6 Q 37240.4 53691.6 36483.2 53691.6 Q 35656.4 53691.6 34960.4 53457.6 Q 34264.4 53223.6 33754.4 52737.6 Q 33244.4 52251.6 32956.4 51513.6 Q 32668.4 50775.6 32668.4 49767.6 Q 32668.4 47799.6 34054.4 46743.6 Q 35440.4 45687.6 38272.4 45591.6 L 40480.4 45508.8 L 40480.4 44679.6 Q 40480.4 43876.8 40306.4 43336.8 Q 40132.4 42796.8 39802.4 42466.8 Q 39472.4 42136.8 38986.4 41992.8 Q 38500.4 41848.8 37876.4 41848.8 Q 36881.6 41848.8 36023.6 42136.8 Q 35165.6 42424.8 34373.6 42832.8 L 33605.6 41190 Q 34493.6 40710 35585.6 40374 Q 36677.6 40038 37877.6 40038 Q 39101.6 40038 39995.6 40284 Q 40889.6 40530 41471.6 41064 Q 42053.6 41598 42341.6 42426 Q 42629.6 43254 42629.6 44430 L 42629.6 53454 L 41058.8 53454 L 41056.4 53452.8 Z M 37048.4 51927.6 Q 37779.2 51927.6 38403.2 51699.6 Q 39027.2 51471.6 39483.2 51009.6 Q 39939.2 50547.6 40197.2 49845.6 Q 40455.2 49143.6 40455.2 48196.8 L 40455.2 47007.6 L 38738 47092.8 Q 37658 47140.8 36926 47332.8 Q 36194 47524.8 35756 47866.8 Q 35318 48208.8 35126 48694.8 Q 34934 49180.8 34934 49791.6 Q 34934 50895.6 35516 51411.6 Q 36098 51927.6 37047.2 51927.6 L 37048.4 51927.6 Z " fill-rule="nonzero" style="fill:#df1100;;fill-opacity:1;"/>
</svg>