<svg version="1.1" x="0" y="0" width="100%" height="100%" viewBox="0 0 39833.6 63795.2" xmlns="http://www.w3.org/2000/svg">
  <path d="M 31036.8 49612.8 L 8236.8 49612.8 L 8236.8 45712.8 L 16986.8 36185.3 Q 18864.3 34162.8 20339.3 32487.8 Q 21814.3 30812.8 22851.8 29212.8 Q 23889.3 27612.8 24439.3 26000.3 Q 24989.3 24387.8 24989.3 22487.8 Q 24989.3 21015.3 24564.3 19890.3 Q 24139.3 18765.3 23351.8 17977.8 Q 22564.3 17190.3 21489.3 16790.3 Q 20414.3 16390.3 19086.8 16390.3 Q 16714.3 16390.3 14801.8 17352.8 Q 12889.3 18315.3 11166.8 19815.3 L 8616.8 16837.8 Q 9616.8 15937.8 10766.8 15150.3 Q 11916.8 14362.8 13241.8 13787.8 Q 14566.8 13212.8 16041.8 12875.3 Q 17516.8 12537.8 19139.3 12537.8 Q 21539.3 12537.8 23476.8 13212.8 Q 25414.3 13887.8 26764.3 15150.3 Q 28114.3 16412.8 28851.8 18225.3 Q 29589.3 20037.8 29589.3 22315.3 Q 29589.3 24437.8 28926.8 26362.8 Q 28264.3 28287.8 27101.8 30150.3 Q 25939.3 32012.8 24326.8 33887.8 Q 22714.3 35762.8 20836.8 37785.3 L 13814.3 45262.8 L 13814.3 45462.8 L 31036.8 45462.8 L 31036.8 49612.8 Z " fill-rule="nonzero" style="fill:#ffffff;;fill-opacity:1;"/>
</svg>