<svg version="1.1" x="0" y="0" width="100%" height="100%" viewBox="0 0 256512 62361.6" xmlns="http://www.w3.org/2000/svg">
  <path d="M 19829.2 24832 L 17909.2 19394.8 L 11368 19394.8 L 9424 24832 L 7168 24832 L 13613.2 7216 L 15653.2 7216 L 22109.2 24832 L 19829.2 24832 Z M 17200 17416 L 15424 12328 Q 15352 12112 15250 11800 Q 15148 11488 15040 11128 Q 14932 10768 14824 10378 Q 14716 9988 14620 9617.2 Q 14534.8 9988 14426.8 10384 Q 14318.8 10780 14210.8 11146 Q 14102.8 11512 14000.8 11818 Q 13898.8 12124 13826.8 12329.2 L 12085.6 17417.2 L 17197.6 17417.2 L 17200 17416 Z M 28059.2 25072 Q 27352.4 25072 26776.4 24916 Q 26200.4 24760 25738.4 24502 Q 25276.4 24244 24922.4 23896 Q 24568.4 23548 24291.2 23164 L 24147.2 23164 Q 24184.4 23572 24219.2 23945.2 Q 24243.2 24257.2 24267.2 24587.2 Q 24291.2 24917.2 24291.2 25109.2 L 24291.2 30736 L 22107.2 30736 L 22107.2 11656 L 23883.2 11656 L 24195.2 13432 L 24291.2 13432 Q 24568.4 13010.8 24916.4 12644.8 Q 25264.4 12278.8 25726.4 12008.8 Q 26188.4 11738.8 26764.4 11576.8 Q 27340.4 11414.8 28060.4 11414.8 Q 29188.4 11414.8 30112.4 11846.8 Q 31036.4 12278.8 31690.4 13136.8 Q 32344.4 13994.8 32704.4 15266.8 Q 33064.4 16538.8 33064.4 18218.8 Q 33064.4 19912 32704.4 21190 Q 32344.4 22468 31690.4 23332 Q 31036.4 24196 30112.4 24634 Q 29188.4 25072 28060.4 25072 L 28059.2 25072 Z M 27640.4 13226.8 Q 26728.4 13226.8 26098.4 13502.8 Q 25468.4 13778.8 25078.4 14342.8 Q 24688.4 14906.8 24502.4 15746.8 Q 24316.4 16586.8 24292.4 17728 L 24292.4 18218.8 Q 24292.4 19432 24454.4 20374 Q 24616.4 21316 25006.4 21958 Q 25396.4 22600 26044.4 22930 Q 26692.4 23260 27665.6 23260 Q 29284.4 23260 30046.4 21952 Q 30808.4 20644 30808.4 18196 Q 30808.4 15700 30046.4 14464 Q 29284.4 13228 27641.6 13228 L 27640.4 13226.8 Z M 40198.8 11416 Q 40545.6 11416 40977.6 11446 Q 41409.6 11476 41721.6 11537.2 L 41433.6 13553.2 Q 41097.6 13492 40743.6 13450 Q 40389.6 13408 40077.6 13408 Q 39320.4 13408 38696.4 13714 Q 38072.4 14020 37622.4 14590 Q 37172.4 15160 36926.4 15958 Q 36680.4 16756 36680.4 17729.2 L 36680.4 24833.2 L 34496.4 24833.2 L 34496.4 11657.2 L 36272.4 11657.2 L 36536.4 14068 L 36632.4 14068 Q 36933.6 13553.2 37275.6 13073.2 Q 37617.6 12593.2 38043.6 12227.2 Q 38469.6 11861.2 38997.6 11639.2 Q 39525.6 11417.2 40197.6 11417.2 L 40198.8 11416 Z M 47488 25072 Q 46168 25072 45076 24628 Q 43984 24184 43198 23332 Q 42412 22480 41980 21220 Q 41548 19960 41548 18338.8 Q 41548 16706.8 41944 15422.8 Q 42340 14138.8 43060 13244.8 Q 43780 12350.8 44782 11882.8 Q 45784 11414.8 46997.2 11414.8 Q 48184 11414.8 49132 11840.8 Q 50080 12266.8 50740 13040.8 Q 51400 13814.8 51754 14900.8 Q 52108 15986.8 52108 17306.8 L 52108 18664 L 43804 18664 Q 43862.8 20978.8 44780.8 22070.8 Q 45698.8 23162.8 47509.6 23162.8 Q 48122.8 23162.8 48644.8 23102.8 Q 49166.8 23042.8 49652.8 22928.8 Q 50138.8 22814.8 50594.8 22640.8 Q 51050.8 22466.8 51517.6 22250.8 L 51517.6 24194.8 Q 51037.6 24424 50575.6 24592 Q 50113.6 24760 49627.6 24868 Q 49141.6 24976 48619.6 25024 Q 48097.6 25072 47484.4 25072 L 47488 25072 Z M 46949.2 13226.8 Q 45581.2 13226.8 44783.2 14162.8 Q 43985.2 15098.8 43854.4 16888 L 49758.4 16888 Q 49758.4 16072 49596.4 15394 Q 49434.4 14716 49092.4 14236 Q 48750.4 13756 48222.4 13492 Q 47694.4 13228 46950.4 13228 L 46949.2 13226.8 Z M 61520 24832 L 61520 16346.8 Q 61520 14786.8 60890 14006.8 Q 60260 13226.8 58916 13226.8 Q 57942.8 13226.8 57282.8 13538.8 Q 56622.8 13850.8 56220.8 14462.8 Q 55818.8 15074.8 55644.8 15962.8 Q 55470.8 16850.8 55470.8 18002.8 L 55470.8 24832 L 53286.8 24832 L 53286.8 11656 L 55062.8 11656 L 55374.8 13432 L 55494.8 13432 Q 55796 12914.8 56210 12536.8 Q 56624 12158.8 57116 11906.8 Q 57608 11654.8 58160 11534.8 Q 58712 11414.8 59288 11414.8 Q 61485.2 11414.8 62595.2 12560.8 Q 63705.2 13706.8 63705.2 16226.8 L 63705.2 24832 L 61521.2 24832 L 61520 24832 Z M 73814.4 23066.8 L 73718.4 23066.8 Q 73454.4 23474.8 73100.4 23840.8 Q 72746.4 24206.8 72284.4 24482.8 Q 71822.4 24758.8 71246.4 24914.8 Q 70670.4 25070.8 69950.4 25070.8 Q 68835.6 25070.8 67911.6 24638.8 Q 66987.6 24206.8 66327.6 23348.8 Q 65667.6 22490.8 65307.6 21218.8 Q 64947.6 19946.8 64947.6 18266.8 Q 64947.6 16576 65307.6 15298 Q 65667.6 14020 66327.6 13156 Q 66987.6 12292 67911.6 11854 Q 68835.6 11416 69950.4 11416 Q 70659.6 11416 71235.6 11572 Q 71811.6 11728 72273.6 11992 Q 72735.6 12256 73095.6 12604 Q 73455.6 12952 73719.6 13336 L 73863.6 13336 Q 73828.8 12928 73791.6 12554.8 Q 73767.6 12242.8 73743.6 11912.8 Q 73719.6 11582.8 73719.6 11390.8 L 73719.6 6158.8 L 75903.6 6158.8 L 75903.6 24830.8 L 74140.8 24830.8 L 73815.6 23065.6 L 73814.4 23066.8 Z M 70371.6 23258.8 Q 71283.6 23258.8 71913.6 22982.8 Q 72543.6 22706.8 72933.6 22142.8 Q 73323.6 21578.8 73509.6 20732.8 Q 73695.6 19886.8 73719.6 18758.8 L 73719.6 18265.6 Q 73719.6 17054.8 73557.6 16112.8 Q 73395.6 15170.8 73005.6 14528.8 Q 72615.6 13886.8 71967.6 13556.8 Q 71319.6 13226.8 70348.8 13226.8 Q 68727.6 13226.8 67965.6 14534.8 Q 67203.6 15842.8 67203.6 18290.8 Q 67203.6 20800 67965.6 22030 Q 68727.6 23260 70372.8 23260 L 70371.6 23258.8 Z M 83276.8 25072 Q 81956.8 25072 80864.8 24628 Q 79772.8 24184 78986.8 23332 Q 78200.8 22480 77768.8 21220 Q 77336.8 19960 77336.8 18338.8 Q 77336.8 16706.8 77732.8 15422.8 Q 78128.8 14138.8 78848.8 13244.8 Q 79568.8 12350.8 80570.8 11882.8 Q 81572.8 11414.8 82786 11414.8 Q 83972.8 11414.8 84920.8 11840.8 Q 85868.8 12266.8 86528.8 13040.8 Q 87188.8 13814.8 87542.8 14900.8 Q 87896.8 15986.8 87896.8 17306.8 L 87896.8 18664 L 79592.8 18664 Q 79651.6 20978.8 80569.6 22070.8 Q 81487.6 23162.8 83298.4 23162.8 Q 83911.6 23162.8 84433.6 23102.8 Q 84955.6 23042.8 85441.6 22928.8 Q 85927.6 22814.8 86383.6 22640.8 Q 86839.6 22466.8 87306.4 22250.8 L 87306.4 24194.8 Q 86826.4 24424 86364.4 24592 Q 85902.4 24760 85416.4 24868 Q 84930.4 24976 84408.4 25024 Q 83886.4 25072 83273.2 25072 L 83276.8 25072 Z M 82738 13226.8 Q 81370 13226.8 80572 14162.8 Q 79774 15098.8 79643.2 16888 L 85547.2 16888 Q 85547.2 16072 85385.2 15394 Q 85223.2 14716 84881.2 14236 Q 84539.2 13756 84011.2 13492 Q 83483.2 13228 82739.2 13228 L 82738 13226.8 Z M 98366.4 25072 Q 97155.6 25072 96099.6 24694 Q 95043.6 24316 94263.6 23494 Q 93483.6 22672 93039.6 21394 Q 92595.6 20116 92595.6 18316 Q 92595.6 16433.2 93051.6 15119.2 Q 93507.6 13805.2 94305.6 12983.2 Q 95103.6 12161.2 96171.6 11789.2 Q 97239.6 11417.2 98463.6 11417.2 Q 99399.6 11417.2 100293.6 11621.2 Q 101187.6 11825.2 101787.6 12124 L 101139.6 13972 Q 100862.4 13852 100526.4 13738 Q 100190.4 13624 99830.4 13534 Q 99470.4 13444 99122.4 13390 Q 98774.4 13336 98462.4 13336 Q 96579.6 13336 95715.6 14542 Q 94851.6 15748 94851.6 18292 Q 94851.6 20825.2 95721.6 21995.2 Q 96591.6 23165.2 98367.6 23165.2 Q 99340.8 23165.2 100126.8 22943.2 Q 100912.8 22721.2 101560.8 22420 L 101560.8 24364 Q 100912.8 24713.2 100174.8 24893.2 Q 99436.8 25073.2 98367.6 25073.2 L 98366.4 25072 Z M 113386 18218.8 Q 113386 19864 112984 21142 Q 112582 22420 111832 23290 Q 111082 24160 110014 24616 Q 108946 25072 107612.8 25072 Q 106378 25072 105334 24616 Q 104290 24160 103528 23290 Q 102766 22420 102340 21142 Q 101914 19864 101914 18218.8 Q 101914 16586.8 102316 15320.8 Q 102718 14054.8 103462 13184.8 Q 104206 12314.8 105280 11864.8 Q 106354 11414.8 107684.8 11414.8 Q 108922 11414.8 109966 11864.8 Q 111010 12314.8 111772 13184.8 Q 112534 14054.8 112960 15320.8 Q 113386 16586.8 113386 18218.8  Z M 104170 18218.8 Q 104170 20728 104992 21994 Q 105814 23260 107662 23260 Q 109510 23260 110320 21994 Q 111130 20728 111130 18218.8 Q 111130 15712 110308 14470 Q 109486 13228 107638 13228 Q 105790 13228 104980 14470 Q 104170 15712 104170 18218.8  Z M 123011.2 24832 L 123011.2 16346.8 Q 123011.2 14786.8 122381.2 14006.8 Q 121751.2 13226.8 120407.2 13226.8 Q 119434 13226.8 118774 13538.8 Q 118114 13850.8 117712 14462.8 Q 117310 15074.8 117136 15962.8 Q 116962 16850.8 116962 18002.8 L 116962 24832 L 114778 24832 L 114778 11656 L 116554 11656 L 116866 13432 L 116986 13432 Q 117287.2 12914.8 117701.2 12536.8 Q 118115.2 12158.8 118607.2 11906.8 Q 119099.2 11654.8 119651.2 11534.8 Q 120203.2 11414.8 120779.2 11414.8 Q 122976.4 11414.8 124086.4 12560.8 Q 125196.4 13706.8 125196.4 16226.8 L 125196.4 24832 L 123012.4 24832 L 123011.2 24832 Z M 133603.2 24832 L 131419.2 24832 L 131419.2 11656 L 133603.2 11656 L 133603.2 24832 Z M 131251.2 8090.8 Q 131251.2 7370.8 131617.2 7046.8 Q 131983.2 6722.8 132522 6722.8 Q 132786 6722.8 133020 6800.8 Q 133254 6878.8 133428 7046.8 Q 133602 7214.8 133704 7472.8 Q 133806 7730.8 133806 8090.8 Q 133806 8786.8 133428 9128.8 Q 133050 9470.8 132522 9470.8 Q 131983.2 9470.8 131617.2 9134.8 Q 131251.2 8798.8 131251.2 8089.6 L 131251.2 8090.8 Z M 143900.8 24832 L 143900.8 16346.8 Q 143900.8 14786.8 143270.8 14006.8 Q 142640.8 13226.8 141296.8 13226.8 Q 140323.6 13226.8 139663.6 13538.8 Q 139003.6 13850.8 138601.6 14462.8 Q 138199.6 15074.8 138025.6 15962.8 Q 137851.6 16850.8 137851.6 18002.8 L 137851.6 24832 L 135667.6 24832 L 135667.6 11656 L 137443.6 11656 L 137755.6 13432 L 137875.6 13432 Q 138176.8 12914.8 138590.8 12536.8 Q 139004.8 12158.8 139496.8 11906.8 Q 139988.8 11654.8 140540.8 11534.8 Q 141092.8 11414.8 141668.8 11414.8 Q 143866 11414.8 144976 12560.8 Q 146086 13706.8 146086 16226.8 L 146086 24832 L 143902 24832 L 143900.8 24832 Z M 152043.2 23282.8 Q 152259.2 23282.8 152529.2 23258.8 Q 152799.2 23234.8 153051.2 23198.8 Q 153303.2 23162.8 153513.2 23114.8 Q 153723.2 23066.8 153832.4 23032 L 153832.4 24688 Q 153675.2 24760 153435.2 24832 Q 153195.2 24904 152907.2 24958 Q 152619.2 25012 152307.2 25042 Q 151995.2 25072 151696.4 25072 Q 150952.4 25072 150316.4 24880 Q 149680.4 24688 149218.4 24220 Q 148756.4 23752 148492.4 22954 Q 148228.4 22156 148228.4 20945.2 L 148228.4 13300 L 146369.6 13300 L 146369.6 12329.2 L 148228.4 11393.2 L 149164.4 8633.2 L 150425.6 8633.2 L 150425.6 11657.2 L 153737.6 11657.2 L 153737.6 13300 L 150425.6 13300 L 150425.6 20945.2 Q 150425.6 22108 150803.6 22696 Q 151181.6 23284 152045.6 23284 L 152043.2 23282.8 Z M 159513.6 25072 Q 158193.6 25072 157101.6 24628 Q 156009.6 24184 155223.6 23332 Q 154437.6 22480 154005.6 21220 Q 153573.6 19960 153573.6 18338.8 Q 153573.6 16706.8 153969.6 15422.8 Q 154365.6 14138.8 155085.6 13244.8 Q 155805.6 12350.8 156807.6 11882.8 Q 157809.6 11414.8 159022.8 11414.8 Q 160209.6 11414.8 161157.6 11840.8 Q 162105.6 12266.8 162765.6 13040.8 Q 163425.6 13814.8 163779.6 14900.8 Q 164133.6 15986.8 164133.6 17306.8 L 164133.6 18664 L 155829.6 18664 Q 155888.4 20978.8 156806.4 22070.8 Q 157724.4 23162.8 159535.2 23162.8 Q 160148.4 23162.8 160670.4 23102.8 Q 161192.4 23042.8 161678.4 22928.8 Q 162164.4 22814.8 162620.4 22640.8 Q 163076.4 22466.8 163543.2 22250.8 L 163543.2 24194.8 Q 163063.2 24424 162601.2 24592 Q 162139.2 24760 161653.2 24868 Q 161167.2 24976 160645.2 25024 Q 160123.2 25072 159510 25072 L 159513.6 25072 Z M 158974.8 13226.8 Q 157606.8 13226.8 156808.8 14162.8 Q 156010.8 15098.8 155880 16888 L 161784 16888 Q 161784 16072 161622 15394 Q 161460 14716 161118 14236 Q 160776 13756 160248 13492 Q 159720 13228 158976 13228 L 158974.8 13226.8 Z M 171014.8 11416 Q 171361.6 11416 171793.6 11446 Q 172225.6 11476 172537.6 11537.2 L 172249.6 13553.2 Q 171913.6 13492 171559.6 13450 Q 171205.6 13408 170893.6 13408 Q 170136.4 13408 169512.4 13714 Q 168888.4 14020 168438.4 14590 Q 167988.4 15160 167742.4 15958 Q 167496.4 16756 167496.4 17729.2 L 167496.4 24833.2 L 165312.4 24833.2 L 165312.4 11657.2 L 167088.4 11657.2 L 167352.4 14068 L 167448.4 14068 Q 167749.6 13553.2 168091.6 13073.2 Q 168433.6 12593.2 168859.6 12227.2 Q 169285.6 11861.2 169813.6 11639.2 Q 170341.6 11417.2 171013.6 11417.2 L 171014.8 11416 Z M 180525.2 24832 L 180080 23008 L 179984 23008 Q 179589.2 23546.8 179193.2 23936.8 Q 178797.2 24326.8 178329.2 24578.8 Q 177861.2 24830.8 177285.2 24950.8 Q 176709.2 25070.8 175952 25070.8 Q 175125.2 25070.8 174429.2 24836.8 Q 173733.2 24602.8 173223.2 24116.8 Q 172713.2 23630.8 172425.2 22892.8 Q 172137.2 22154.8 172137.2 21146.8 Q 172137.2 19178.8 173523.2 18122.8 Q 174909.2 17066.8 177741.2 16970.8 L 179949.2 16888 L 179949.2 16058.8 Q 179949.2 15256 179775.2 14716 Q 179601.2 14176 179271.2 13846 Q 178941.2 13516 178455.2 13372 Q 177969.2 13228 177345.2 13228 Q 176350.4 13228 175492.4 13516 Q 174634.4 13804 173842.4 14212 L 173074.4 12569.2 Q 173962.4 12089.2 175054.4 11753.2 Q 176146.4 11417.2 177346.4 11417.2 Q 178570.4 11417.2 179464.4 11663.2 Q 180358.4 11909.2 180940.4 12443.2 Q 181522.4 12977.2 181810.4 13805.2 Q 182098.4 14633.2 182098.4 15809.2 L 182098.4 24833.2 L 180527.6 24833.2 L 180525.2 24832 Z M 176517.2 23306.8 Q 177248 23306.8 177872 23078.8 Q 178496 22850.8 178952 22388.8 Q 179408 21926.8 179666 21224.8 Q 179924 20522.8 179924 19576 L 179924 18386.8 L 178206.8 18472 Q 177126.8 18520 176394.8 18712 Q 175662.8 18904 175224.8 19246 Q 174786.8 19588 174594.8 20074 Q 174402.8 20560 174402.8 21170.8 Q 174402.8 22274.8 174984.8 22790.8 Q 175566.8 23306.8 176516 23306.8 L 176517.2 23306.8 Z M 189041.6 25072 Q 187830.8 25072 186774.8 24694 Q 185718.8 24316 184938.8 23494 Q 184158.8 22672 183714.8 21394 Q 183270.8 20116 183270.8 18316 Q 183270.8 16433.2 183726.8 15119.2 Q 184182.8 13805.2 184980.8 12983.2 Q 185778.8 12161.2 186846.8 11789.2 Q 187914.8 11417.2 189138.8 11417.2 Q 190074.8 11417.2 190968.8 11621.2 Q 191862.8 11825.2 192462.8 12124 L 191814.8 13972 Q 191537.6 13852 191201.6 13738 Q 190865.6 13624 190505.6 13534 Q 190145.6 13444 189797.6 13390 Q 189449.6 13336 189137.6 13336 Q 187254.8 13336 186390.8 14542 Q 185526.8 15748 185526.8 18292 Q 185526.8 20825.2 186396.8 21995.2 Q 187266.8 23165.2 189042.8 23165.2 Q 190016 23165.2 190802 22943.2 Q 191588 22721.2 192236 22420 L 192236 24364 Q 191588 24713.2 190850 24893.2 Q 190112 25073.2 189042.8 25073.2 L 189041.6 25072 Z M 198360 25072 Q 197149.2 25072 196093.2 24694 Q 195037.2 24316 194257.2 23494 Q 193477.2 22672 193033.2 21394 Q 192589.2 20116 192589.2 18316 Q 192589.2 16433.2 193045.2 15119.2 Q 193501.2 13805.2 194299.2 12983.2 Q 195097.2 12161.2 196165.2 11789.2 Q 197233.2 11417.2 198457.2 11417.2 Q 199393.2 11417.2 200287.2 11621.2 Q 201181.2 11825.2 201781.2 12124 L 201133.2 13972 Q 200856 13852 200520 13738 Q 200184 13624 199824 13534 Q 199464 13444 199116 13390 Q 198768 13336 198456 13336 Q 196573.2 13336 195709.2 14542 Q 194845.2 15748 194845.2 18292 Q 194845.2 20825.2 195715.2 21995.2 Q 196585.2 23165.2 198361.2 23165.2 Q 199334.4 23165.2 200120.4 22943.2 Q 200906.4 22721.2 201554.4 22420 L 201554.4 24364 Q 200906.4 24713.2 200168.4 24893.2 Q 199430.4 25073.2 198361.2 25073.2 L 198360 25072 Z M 204822.4 24832 L 202638.4 24832 L 202638.4 11656 L 204822.4 11656 L 204822.4 24832 Z M 202470.4 8090.8 Q 202470.4 7370.8 202836.4 7046.8 Q 203202.4 6722.8 203741.2 6722.8 Q 204005.2 6722.8 204239.2 6800.8 Q 204473.2 6878.8 204647.2 7046.8 Q 204821.2 7214.8 204923.2 7472.8 Q 205025.2 7730.8 205025.2 8090.8 Q 205025.2 8786.8 204647.2 9128.8 Q 204269.2 9470.8 203741.2 9470.8 Q 203202.4 9470.8 202836.4 9134.8 Q 202470.4 8798.8 202470.4 8089.6 L 202470.4 8090.8 Z M 217629.2 18218.8 Q 217629.2 19864 217227.2 21142 Q 216825.2 22420 216075.2 23290 Q 215325.2 24160 214257.2 24616 Q 213189.2 25072 211856 25072 Q 210621.2 25072 209577.2 24616 Q 208533.2 24160 207771.2 23290 Q 207009.2 22420 206583.2 21142 Q 206157.2 19864 206157.2 18218.8 Q 206157.2 16586.8 206559.2 15320.8 Q 206961.2 14054.8 207705.2 13184.8 Q 208449.2 12314.8 209523.2 11864.8 Q 210597.2 11414.8 211928 11414.8 Q 213165.2 11414.8 214209.2 11864.8 Q 215253.2 12314.8 216015.2 13184.8 Q 216777.2 14054.8 217203.2 15320.8 Q 217629.2 16586.8 217629.2 18218.8  Z M 208413.2 18218.8 Q 208413.2 20728 209235.2 21994 Q 210057.2 23260 211905.2 23260 Q 213753.2 23260 214563.2 21994 Q 215373.2 20728 215373.2 18218.8 Q 215373.2 15712 214551.2 14470 Q 213729.2 13228 211881.2 13228 Q 210033.2 13228 209223.2 14470 Q 208413.2 15712 208413.2 18218.8  Z M 227254.4 24832 L 227254.4 16346.8 Q 227254.4 14786.8 226624.4 14006.8 Q 225994.4 13226.8 224650.4 13226.8 Q 223677.2 13226.8 223017.2 13538.8 Q 222357.2 13850.8 221955.2 14462.8 Q 221553.2 15074.8 221379.2 15962.8 Q 221205.2 16850.8 221205.2 18002.8 L 221205.2 24832 L 219021.2 24832 L 219021.2 11656 L 220797.2 11656 L 221109.2 13432 L 221229.2 13432 Q 221530.4 12914.8 221944.4 12536.8 Q 222358.4 12158.8 222850.4 11906.8 Q 223342.4 11654.8 223894.4 11534.8 Q 224446.4 11414.8 225022.4 11414.8 Q 227219.6 11414.8 228329.6 12560.8 Q 229439.6 13706.8 229439.6 16226.8 L 229439.6 24832 L 227255.6 24832 L 227254.4 24832 Z M 236620.8 25072 Q 235300.8 25072 234208.8 24628 Q 233116.8 24184 232330.8 23332 Q 231544.8 22480 231112.8 21220 Q 230680.8 19960 230680.8 18338.8 Q 230680.8 16706.8 231076.8 15422.8 Q 231472.8 14138.8 232192.8 13244.8 Q 232912.8 12350.8 233914.8 11882.8 Q 234916.8 11414.8 236130 11414.8 Q 237316.8 11414.8 238264.8 11840.8 Q 239212.8 12266.8 239872.8 13040.8 Q 240532.8 13814.8 240886.8 14900.8 Q 241240.8 15986.8 241240.8 17306.8 L 241240.8 18664 L 232936.8 18664 Q 232995.6 20978.8 233913.6 22070.8 Q 234831.6 23162.8 236642.4 23162.8 Q 237255.6 23162.8 237777.6 23102.8 Q 238299.6 23042.8 238785.6 22928.8 Q 239271.6 22814.8 239727.6 22640.8 Q 240183.6 22466.8 240650.4 22250.8 L 240650.4 24194.8 Q 240170.4 24424 239708.4 24592 Q 239246.4 24760 238760.4 24868 Q 238274.4 24976 237752.4 25024 Q 237230.4 25072 236617.2 25072 L 236620.8 25072 Z M 236082 13226.8 Q 234714 13226.8 233916 14162.8 Q 233118 15098.8 232987.2 16888 L 238891.2 16888 Q 238891.2 16072 238729.2 15394 Q 238567.2 14716 238225.2 14236 Q 237883.2 13756 237355.2 13492 Q 236827.2 13228 236083.2 13228 L 236082 13226.8 Z M 250306 21218.8 Q 250306 22178.8 249958 22898.8 Q 249610 23618.8 248956 24104.8 Q 248302 24590.8 247378 24830.8 Q 246454 25070.8 245302 25070.8 Q 243995.2 25070.8 243059.2 24860.8 Q 242123.2 24650.8 241414 24242.8 L 241414 22250.8 Q 241787.2 22442.8 242243.2 22628.8 Q 242699.2 22814.8 243203.2 22958.8 Q 243707.2 23102.8 244241.2 23192.8 Q 244775.2 23282.8 245303.2 23282.8 Q 246084.4 23282.8 246630.4 23150.8 Q 247176.4 23018.8 247518.4 22772.8 Q 247860.4 22526.8 248016.4 22172.8 Q 248172.4 21818.8 248172.4 21386.8 Q 248172.4 21016 248052.4 20716 Q 247932.4 20416 247614.4 20122 Q 247296.4 19828 246744.4 19528 Q 246192.4 19228 245328.4 18857.2 Q 244464.4 18484 243774.4 18124 Q 243084.4 17764 242604.4 17320 Q 242124.4 16876 241866.4 16294 Q 241608.4 15712 241608.4 14906.8 Q 241608.4 14066.8 241938.4 13412.8 Q 242268.4 12758.8 242868.4 12314.8 Q 243468.4 11870.8 244308.4 11642.8 Q 245148.4 11414.8 246180.4 11414.8 Q 247343.2 11414.8 248309.2 11666.8 Q 249275.2 11918.8 250139.2 12326.8 L 249382 14089.6 Q 248603.2 13742.8 247781.2 13484.8 Q 246959.2 13226.8 246108.4 13226.8 Q 244884.4 13226.8 244296.4 13628.8 Q 243708.4 14030.8 243708.4 14774.8 Q 243708.4 15193.6 243846.4 15505.6 Q 243984.4 15817.6 244320.4 16093.6 Q 244656.4 16369.6 245220.4 16651.6 Q 245784.4 16933.6 246624.4 17280.4 Q 247488.4 17640.4 248166.4 18000.4 Q 248844.4 18360.4 249324.4 18810.4 Q 249804.4 19260.4 250056.4 19836.4 Q 250308.4 20412.4 250308.4 21215.2 L 250306 21218.8 Z M 87921.6 54716.8 Q 86710.8 54716.8 85654.8 54338.8 Q 84598.8 53960.8 83818.8 53138.8 Q 83038.8 52316.8 82594.8 51038.8 Q 82150.8 49760.8 82150.8 47960.8 Q 82150.8 46078 82606.8 44764 Q 83062.8 43450 83860.8 42628 Q 84658.8 41806 85726.8 41434 Q 86794.8 41062 88018.8 41062 Q 88954.8 41062 89848.8 41266 Q 90742.8 41470 91342.8 41768.8 L 90694.8 43616.8 Q 90417.6 43496.8 90081.6 43382.8 Q 89745.6 43268.8 89385.6 43178.8 Q 89025.6 43088.8 88677.6 43034.8 Q 88329.6 42980.8 88017.6 42980.8 Q 86134.8 42980.8 85270.8 44186.8 Q 84406.8 45392.8 84406.8 47936.8 Q 84406.8 50470 85276.8 51640 Q 86146.8 52810 87922.8 52810 Q 88896 52810 89682 52588 Q 90468 52366 91116 52064.8 L 91116 54008.8 Q 90468 54358 89730 54538 Q 88992 54718 87922.8 54718 L 87921.6 54716.8 Z M 102941.2 47863.6 Q 102941.2 49508.8 102539.2 50786.8 Q 102137.2 52064.8 101387.2 52934.8 Q 100637.2 53804.8 99569.2 54260.8 Q 98501.2 54716.8 97168 54716.8 Q 95933.2 54716.8 94889.2 54260.8 Q 93845.2 53804.8 93083.2 52934.8 Q 92321.2 52064.8 91895.2 50786.8 Q 91469.2 49508.8 91469.2 47863.6 Q 91469.2 46231.6 91871.2 44965.6 Q 92273.2 43699.6 93017.2 42829.6 Q 93761.2 41959.6 94835.2 41509.6 Q 95909.2 41059.6 97240 41059.6 Q 98477.2 41059.6 99521.2 41509.6 Q 100565.2 41959.6 101327.2 42829.6 Q 102089.2 43699.6 102515.2 44965.6 Q 102941.2 46231.6 102941.2 47863.6  Z M 93725.2 47863.6 Q 93725.2 50372.8 94547.2 51638.8 Q 95369.2 52904.8 97217.2 52904.8 Q 99065.2 52904.8 99875.2 51638.8 Q 100685.2 50372.8 100685.2 47863.6 Q 100685.2 45356.8 99863.2 44114.8 Q 99041.2 42872.8 97193.2 42872.8 Q 95345.2 42872.8 94535.2 44114.8 Q 93725.2 45356.8 93725.2 47863.6  Z M 120115.6 54476.8 L 120115.6 45991.6 Q 120115.6 44431.6 119515.6 43651.6 Q 118915.6 42871.6 117654.4 42871.6 Q 116779.6 42871.6 116167.6 43153.6 Q 115555.6 43435.6 115165.6 43981.6 Q 114775.6 44527.6 114595.6 45337.6 Q 114415.6 46147.6 114415.6 47203.6 L 114415.6 54475.6 L 112220.8 54475.6 L 112220.8 45990.4 Q 112220.8 44430.4 111626.8 43650.4 Q 111032.8 42870.4 109774 42870.4 Q 108848.8 42870.4 108224.8 43182.4 Q 107600.8 43494.4 107222.8 44106.4 Q 106844.8 44718.4 106682.8 45606.4 Q 106520.8 46494.4 106520.8 47646.4 L 106520.8 54475.6 L 104336.8 54475.6 L 104336.8 41299.6 L 106112.8 41299.6 L 106424.8 43075.6 L 106544.8 43075.6 Q 106832.8 42558.4 107228.8 42180.4 Q 107624.8 41802.4 108098.8 41550.4 Q 108572.8 41298.4 109106.8 41178.4 Q 109640.8 41058.4 110192.8 41058.4 Q 111632.8 41058.4 112586.8 41586.4 Q 113540.8 42114.4 113996.8 43242.4 L 114092.8 43242.4 Q 114404.8 42677.2 114842.8 42269.2 Q 115280.8 41861.2 115802.8 41591.2 Q 116324.8 41321.2 116900.8 41189.2 Q 117476.8 41057.2 118076.8 41057.2 Q 120175.6 41057.2 121237.6 42203.2 Q 122299.6 43349.2 122299.6 45869.2 L 122299.6 54474.4 L 120115.6 54474.4 L 120115.6 54476.8 Z M 134992.4 47863.6 Q 134992.4 49508.8 134590.4 50786.8 Q 134188.4 52064.8 133438.4 52934.8 Q 132688.4 53804.8 131620.4 54260.8 Q 130552.4 54716.8 129219.2 54716.8 Q 127984.4 54716.8 126940.4 54260.8 Q 125896.4 53804.8 125134.4 52934.8 Q 124372.4 52064.8 123946.4 50786.8 Q 123520.4 49508.8 123520.4 47863.6 Q 123520.4 46231.6 123922.4 44965.6 Q 124324.4 43699.6 125068.4 42829.6 Q 125812.4 41959.6 126886.4 41509.6 Q 127960.4 41059.6 129291.2 41059.6 Q 130528.4 41059.6 131572.4 41509.6 Q 132616.4 41959.6 133378.4 42829.6 Q 134140.4 43699.6 134566.4 44965.6 Q 134992.4 46231.6 134992.4 47863.6  Z M 125776.4 47863.6 Q 125776.4 50372.8 126598.4 51638.8 Q 127420.4 52904.8 129268.4 52904.8 Q 131116.4 52904.8 131926.4 51638.8 Q 132736.4 50372.8 132736.4 47863.6 Q 132736.4 45356.8 131914.4 44114.8 Q 131092.4 42872.8 129244.4 42872.8 Q 127396.4 42872.8 126586.4 44114.8 Q 125776.4 45356.8 125776.4 47863.6  Z M 145843.2 54716.8 Q 144523.2 54716.8 143431.2 54272.8 Q 142339.2 53828.8 141553.2 52976.8 Q 140767.2 52124.8 140335.2 50864.8 Q 139903.2 49604.8 139903.2 47983.6 Q 139903.2 46351.6 140299.2 45067.6 Q 140695.2 43783.6 141415.2 42889.6 Q 142135.2 41995.6 143137.2 41527.6 Q 144139.2 41059.6 145352.4 41059.6 Q 146539.2 41059.6 147487.2 41485.6 Q 148435.2 41911.6 149095.2 42685.6 Q 149755.2 43459.6 150109.2 44545.6 Q 150463.2 45631.6 150463.2 46951.6 L 150463.2 48308.8 L 142159.2 48308.8 Q 142218 50623.6 143136 51715.6 Q 144054 52807.6 145864.8 52807.6 Q 146478 52807.6 147000 52747.6 Q 147522 52687.6 148008 52573.6 Q 148494 52459.6 148950 52285.6 Q 149406 52111.6 149872.8 51895.6 L 149872.8 53839.6 Q 149392.8 54068.8 148930.8 54236.8 Q 148468.8 54404.8 147982.8 54512.8 Q 147496.8 54620.8 146974.8 54668.8 Q 146452.8 54716.8 145839.6 54716.8 L 145843.2 54716.8 Z M 145304.4 42871.6 Q 143936.4 42871.6 143138.4 43807.6 Q 142340.4 44743.6 142209.6 46532.8 L 148113.6 46532.8 Q 148113.6 45716.8 147951.6 45038.8 Q 147789.6 44360.8 147447.6 43880.8 Q 147105.6 43400.8 146577.6 43136.8 Q 146049.6 42872.8 145305.6 42872.8 L 145304.4 42871.6 Z M 159528.4 50863.6 Q 159528.4 51823.6 159180.4 52543.6 Q 158832.4 53263.6 158178.4 53749.6 Q 157524.4 54235.6 156600.4 54475.6 Q 155676.4 54715.6 154524.4 54715.6 Q 153217.6 54715.6 152281.6 54505.6 Q 151345.6 54295.6 150636.4 53887.6 L 150636.4 51895.6 Q 151009.6 52087.6 151465.6 52273.6 Q 151921.6 52459.6 152425.6 52603.6 Q 152929.6 52747.6 153463.6 52837.6 Q 153997.6 52927.6 154525.6 52927.6 Q 155306.8 52927.6 155852.8 52795.6 Q 156398.8 52663.6 156740.8 52417.6 Q 157082.8 52171.6 157238.8 51817.6 Q 157394.8 51463.6 157394.8 51031.6 Q 157394.8 50660.8 157274.8 50360.8 Q 157154.8 50060.8 156836.8 49766.8 Q 156518.8 49472.8 155966.8 49172.8 Q 155414.8 48872.8 154550.8 48502 Q 153686.8 48128.8 152996.8 47768.8 Q 152306.8 47408.8 151826.8 46964.8 Q 151346.8 46520.8 151088.8 45938.8 Q 150830.8 45356.8 150830.8 44551.6 Q 150830.8 43711.6 151160.8 43057.6 Q 151490.8 42403.6 152090.8 41959.6 Q 152690.8 41515.6 153530.8 41287.6 Q 154370.8 41059.6 155402.8 41059.6 Q 156565.6 41059.6 157531.6 41311.6 Q 158497.6 41563.6 159361.6 41971.6 L 158604.4 43734.4 Q 157825.6 43387.6 157003.6 43129.6 Q 156181.6 42871.6 155330.8 42871.6 Q 154106.8 42871.6 153518.8 43273.6 Q 152930.8 43675.6 152930.8 44419.6 Q 152930.8 44838.4 153068.8 45150.4 Q 153206.8 45462.4 153542.8 45738.4 Q 153878.8 46014.4 154442.8 46296.4 Q 155006.8 46578.4 155846.8 46925.2 Q 156710.8 47285.2 157388.8 47645.2 Q 158066.8 48005.2 158546.8 48455.2 Q 159026.8 48905.2 159278.8 49481.2 Q 159530.8 50057.2 159530.8 50860 L 159528.4 50863.6 Z M 164638.4 52927.6 Q 164854.4 52927.6 165124.4 52903.6 Q 165394.4 52879.6 165646.4 52843.6 Q 165898.4 52807.6 166108.4 52759.6 Q 166318.4 52711.6 166427.6 52676.8 L 166427.6 54332.8 Q 166270.4 54404.8 166030.4 54476.8 Q 165790.4 54548.8 165502.4 54602.8 Q 165214.4 54656.8 164902.4 54686.8 Q 164590.4 54716.8 164291.6 54716.8 Q 163547.6 54716.8 162911.6 54524.8 Q 162275.6 54332.8 161813.6 53864.8 Q 161351.6 53396.8 161087.6 52598.8 Q 160823.6 51800.8 160823.6 50590 L 160823.6 42944.8 L 158964.8 42944.8 L 158964.8 41974 L 160823.6 41038 L 161759.6 38278 L 163020.8 38278 L 163020.8 41302 L 166332.8 41302 L 166332.8 42944.8 L 163020.8 42944.8 L 163020.8 50590 Q 163020.8 51752.8 163398.8 52340.8 Q 163776.8 52928.8 164640.8 52928.8 L 164638.4 52927.6 Z M 174330 54476.8 L 173884.8 52652.8 L 173788.8 52652.8 Q 173394 53191.6 172998 53581.6 Q 172602 53971.6 172134 54223.6 Q 171666 54475.6 171090 54595.6 Q 170514 54715.6 169756.8 54715.6 Q 168930 54715.6 168234 54481.6 Q 167538 54247.6 167028 53761.6 Q 166518 53275.6 166230 52537.6 Q 165942 51799.6 165942 50791.6 Q 165942 48823.6 167328 47767.6 Q 168714 46711.6 171546 46615.6 L 173754 46532.8 L 173754 45703.6 Q 173754 44900.8 173580 44360.8 Q 173406 43820.8 173076 43490.8 Q 172746 43160.8 172260 43016.8 Q 171774 42872.8 171150 42872.8 Q 170155.2 42872.8 169297.2 43160.8 Q 168439.2 43448.8 167647.2 43856.8 L 166879.2 42214 Q 167767.2 41734 168859.2 41398 Q 169951.2 41062 171151.2 41062 Q 172375.2 41062 173269.2 41308 Q 174163.2 41554 174745.2 42088 Q 175327.2 42622 175615.2 43450 Q 175903.2 44278 175903.2 45454 L 175903.2 54478 L 174332.4 54478 L 174330 54476.8 Z M 170322 52951.6 Q 171052.8 52951.6 171676.8 52723.6 Q 172300.8 52495.6 172756.8 52033.6 Q 173212.8 51571.6 173470.8 50869.6 Q 173728.8 50167.6 173728.8 49220.8 L 173728.8 48031.6 L 172011.6 48116.8 Q 170931.6 48164.8 170199.6 48356.8 Q 169467.6 48548.8 169029.6 48890.8 Q 168591.6 49232.8 168399.6 49718.8 Q 168207.6 50204.8 168207.6 50815.6 Q 168207.6 51919.6 168789.6 52435.6 Q 169371.6 52951.6 170320.8 52951.6 L 170322 52951.6 Z " fill-rule="nonzero" style="fill:#535353;;fill-opacity:1;"/>
</svg>