<svg version="1.1" x="0" y="0" width="100%" height="100%" viewBox="0 0 514560 37836.8" xmlns="http://www.w3.org/2000/svg">
  <path d="M 14949.2 12424 Q 14949.2 13514.8 14619.2 14522.8 Q 14289.2 15530.8 13533.2 16304.8 Q 12777.2 17078.8 11535.2 17540.8 Q 10293.2 18002.8 8469.2 18002.8 L 6669.2 18002.8 L 6669.2 24832 L 4437.2 24832 L 4437.2 7288 L 8781.2 7288 Q 10389.2 7288 11553.2 7630 Q 12717.2 7972 13473.2 8626 Q 14229.2 9280 14589.2 10240 Q 14949.2 11200 14949.2 12424  Z M 6669.2 16106.8 L 8216 16106.8 Q 9333.2 16106.8 10167.2 15914.8 Q 11001.2 15722.8 11547.2 15296.8 Q 12093.2 14870.8 12369.2 14192.8 Q 12645.2 13514.8 12645.2 12544 Q 12645.2 10840 11661.2 10018 Q 10677.2 9196 8589.2 9196 L 6669.2 9196 L 6669.2 16108 L 6669.2 16106.8 Z M 26960.4 18218.8 Q 26960.4 19864 26558.4 21142 Q 26156.4 22420 25406.4 23290 Q 24656.4 24160 23588.4 24616 Q 22520.4 25072 21187.2 25072 Q 19952.4 25072 18908.4 24616 Q 17864.4 24160 17102.4 23290 Q 16340.4 22420 15914.4 21142 Q 15488.4 19864 15488.4 18218.8 Q 15488.4 16586.8 15890.4 15320.8 Q 16292.4 14054.8 17036.4 13184.8 Q 17780.4 12314.8 18854.4 11864.8 Q 19928.4 11414.8 21259.2 11414.8 Q 22496.4 11414.8 23540.4 11864.8 Q 24584.4 12314.8 25346.4 13184.8 Q 26108.4 14054.8 26534.4 15320.8 Q 26960.4 16586.8 26960.4 18218.8  Z M 17744.4 18218.8 Q 17744.4 20728 18566.4 21994 Q 19388.4 23260 21236.4 23260 Q 23084.4 23260 23894.4 21994 Q 24704.4 20728 24704.4 18218.8 Q 24704.4 15712 23882.4 14470 Q 23060.4 13228 21212.4 13228 Q 19364.4 13228 18554.4 14470 Q 17744.4 15712 17744.4 18218.8  Z M 36489.6 23066.8 L 36393.6 23066.8 Q 36129.6 23474.8 35775.6 23840.8 Q 35421.6 24206.8 34959.6 24482.8 Q 34497.6 24758.8 33921.6 24914.8 Q 33345.6 25070.8 32625.6 25070.8 Q 31510.8 25070.8 30586.8 24638.8 Q 29662.8 24206.8 29002.8 23348.8 Q 28342.8 22490.8 27982.8 21218.8 Q 27622.8 19946.8 27622.8 18266.8 Q 27622.8 16576 27982.8 15298 Q 28342.8 14020 29002.8 13156 Q 29662.8 12292 30586.8 11854 Q 31510.8 11416 32625.6 11416 Q 33334.8 11416 33910.8 11572 Q 34486.8 11728 34948.8 11992 Q 35410.8 12256 35770.8 12604 Q 36130.8 12952 36394.8 13336 L 36538.8 13336 Q 36504 12928 36466.8 12554.8 Q 36442.8 12242.8 36418.8 11912.8 Q 36394.8 11582.8 36394.8 11390.8 L 36394.8 6158.8 L 38578.8 6158.8 L 38578.8 24830.8 L 36816 24830.8 L 36490.8 23065.6 L 36489.6 23066.8 Z M 33046.8 23258.8 Q 33958.8 23258.8 34588.8 22982.8 Q 35218.8 22706.8 35608.8 22142.8 Q 35998.8 21578.8 36184.8 20732.8 Q 36370.8 19886.8 36394.8 18758.8 L 36394.8 18265.6 Q 36394.8 17054.8 36232.8 16112.8 Q 36070.8 15170.8 35680.8 14528.8 Q 35290.8 13886.8 34642.8 13556.8 Q 33994.8 13226.8 33024 13226.8 Q 31402.8 13226.8 30640.8 14534.8 Q 29878.8 15842.8 29878.8 18290.8 Q 29878.8 20800 30640.8 22030 Q 31402.8 23260 33048 23260 L 33046.8 23258.8 Z M 46445.2 11416 Q 46792 11416 47224 11446 Q 47656 11476 47968 11537.2 L 47680 13553.2 Q 47344 13492 46990 13450 Q 46636 13408 46324 13408 Q 45566.8 13408 44942.8 13714 Q 44318.8 14020 43868.8 14590 Q 43418.8 15160 43172.8 15958 Q 42926.8 16756 42926.8 17729.2 L 42926.8 24833.2 L 40742.8 24833.2 L 40742.8 11657.2 L 42518.8 11657.2 L 42782.8 14068 L 42878.8 14068 Q 43180 13553.2 43522 13073.2 Q 43864 12593.2 44290 12227.2 Q 44716 11861.2 45244 11639.2 Q 45772 11417.2 46444 11417.2 L 46445.2 11416 Z M 55955.6 24832 L 55510.4 23008 L 55414.4 23008 Q 55019.6 23546.8 54623.6 23936.8 Q 54227.6 24326.8 53759.6 24578.8 Q 53291.6 24830.8 52715.6 24950.8 Q 52139.6 25070.8 51382.4 25070.8 Q 50555.6 25070.8 49859.6 24836.8 Q 49163.6 24602.8 48653.6 24116.8 Q 48143.6 23630.8 47855.6 22892.8 Q 47567.6 22154.8 47567.6 21146.8 Q 47567.6 19178.8 48953.6 18122.8 Q 50339.6 17066.8 53171.6 16970.8 L 55379.6 16888 L 55379.6 16058.8 Q 55379.6 15256 55205.6 14716 Q 55031.6 14176 54701.6 13846 Q 54371.6 13516 53885.6 13372 Q 53399.6 13228 52775.6 13228 Q 51780.8 13228 50922.8 13516 Q 50064.8 13804 49272.8 14212 L 48504.8 12569.2 Q 49392.8 12089.2 50484.8 11753.2 Q 51576.8 11417.2 52776.8 11417.2 Q 54000.8 11417.2 54894.8 11663.2 Q 55788.8 11909.2 56370.8 12443.2 Q 56952.8 12977.2 57240.8 13805.2 Q 57528.8 14633.2 57528.8 15809.2 L 57528.8 24833.2 L 55958 24833.2 L 55955.6 24832 Z M 51947.6 23306.8 Q 52678.4 23306.8 53302.4 23078.8 Q 53926.4 22850.8 54382.4 22388.8 Q 54838.4 21926.8 55096.4 21224.8 Q 55354.4 20522.8 55354.4 19576 L 55354.4 18386.8 L 53637.2 18472 Q 52557.2 18520 51825.2 18712 Q 51093.2 18904 50655.2 19246 Q 50217.2 19588 50025.2 20074 Q 49833.2 20560 49833.2 21170.8 Q 49833.2 22274.8 50415.2 22790.8 Q 50997.2 23306.8 51946.4 23306.8 L 51947.6 23306.8 Z M 51770 9616 Q 52034 9266.8 52316 8810.8 Q 52598 8354.8 52880 7868.8 Q 53162 7382.8 53414 6896.8 Q 53666 6410.8 53858 6002.8 L 56484.8 6002.8 L 56484.8 6256 Q 56292.8 6578.8 55914.8 7064.8 Q 55536.8 7550.8 55074.8 8078.8 Q 54612.8 8606.8 54126.8 9104.8 Q 53640.8 9602.8 53219.6 9938.8 L 51768.8 9938.8 L 51768.8 9616 L 51770 9616 Z M 67317.2 21218.8 Q 67317.2 22178.8 66969.2 22898.8 Q 66621.2 23618.8 65967.2 24104.8 Q 65313.2 24590.8 64389.2 24830.8 Q 63465.2 25070.8 62313.2 25070.8 Q 61006.4 25070.8 60070.4 24860.8 Q 59134.4 24650.8 58425.2 24242.8 L 58425.2 22250.8 Q 58798.4 22442.8 59254.4 22628.8 Q 59710.4 22814.8 60214.4 22958.8 Q 60718.4 23102.8 61252.4 23192.8 Q 61786.4 23282.8 62314.4 23282.8 Q 63095.6 23282.8 63641.6 23150.8 Q 64187.6 23018.8 64529.6 22772.8 Q 64871.6 22526.8 65027.6 22172.8 Q 65183.6 21818.8 65183.6 21386.8 Q 65183.6 21016 65063.6 20716 Q 64943.6 20416 64625.6 20122 Q 64307.6 19828 63755.6 19528 Q 63203.6 19228 62339.6 18857.2 Q 61475.6 18484 60785.6 18124 Q 60095.6 17764 59615.6 17320 Q 59135.6 16876 58877.6 16294 Q 58619.6 15712 58619.6 14906.8 Q 58619.6 14066.8 58949.6 13412.8 Q 59279.6 12758.8 59879.6 12314.8 Q 60479.6 11870.8 61319.6 11642.8 Q 62159.6 11414.8 63191.6 11414.8 Q 64354.4 11414.8 65320.4 11666.8 Q 66286.4 11918.8 67150.4 12326.8 L 66393.2 14089.6 Q 65614.4 13742.8 64792.4 13484.8 Q 63970.4 13226.8 63119.6 13226.8 Q 61895.6 13226.8 61307.6 13628.8 Q 60719.6 14030.8 60719.6 14774.8 Q 60719.6 15193.6 60857.6 15505.6 Q 60995.6 15817.6 61331.6 16093.6 Q 61667.6 16369.6 62231.6 16651.6 Q 62795.6 16933.6 63635.6 17280.4 Q 64499.6 17640.4 65177.6 18000.4 Q 65855.6 18360.4 66335.6 18810.4 Q 66815.6 19260.4 67067.6 19836.4 Q 67319.6 20412.4 67319.6 21215.2 L 67317.2 21218.8 Z M 80924.8 24832 L 80924.8 16346.8 Q 80924.8 14786.8 80294.8 14006.8 Q 79664.8 13226.8 78320.8 13226.8 Q 77347.6 13226.8 76687.6 13538.8 Q 76027.6 13850.8 75625.6 14462.8 Q 75223.6 15074.8 75049.6 15962.8 Q 74875.6 16850.8 74875.6 18002.8 L 74875.6 24832 L 72691.6 24832 L 72691.6 6160 L 74875.6 6160 L 74875.6 11704 L 74779.6 13432 L 74899.6 13432 Q 75200.8 12914.8 75614.8 12536.8 Q 76028.8 12158.8 76520.8 11906.8 Q 77012.8 11654.8 77564.8 11534.8 Q 78116.8 11414.8 78692.8 11414.8 Q 80890 11414.8 82000 12560.8 Q 83110 13706.8 83110 16226.8 L 83110 24832 L 80926 24832 L 80924.8 24832 Z M 92512.4 24832 L 92067.2 23008 L 91971.2 23008 Q 91576.4 23546.8 91180.4 23936.8 Q 90784.4 24326.8 90316.4 24578.8 Q 89848.4 24830.8 89272.4 24950.8 Q 88696.4 25070.8 87939.2 25070.8 Q 87112.4 25070.8 86416.4 24836.8 Q 85720.4 24602.8 85210.4 24116.8 Q 84700.4 23630.8 84412.4 22892.8 Q 84124.4 22154.8 84124.4 21146.8 Q 84124.4 19178.8 85510.4 18122.8 Q 86896.4 17066.8 89728.4 16970.8 L 91936.4 16888 L 91936.4 16058.8 Q 91936.4 15256 91762.4 14716 Q 91588.4 14176 91258.4 13846 Q 90928.4 13516 90442.4 13372 Q 89956.4 13228 89332.4 13228 Q 88337.6 13228 87479.6 13516 Q 86621.6 13804 85829.6 14212 L 85061.6 12569.2 Q 85949.6 12089.2 87041.6 11753.2 Q 88133.6 11417.2 89333.6 11417.2 Q 90557.6 11417.2 91451.6 11663.2 Q 92345.6 11909.2 92927.6 12443.2 Q 93509.6 12977.2 93797.6 13805.2 Q 94085.6 14633.2 94085.6 15809.2 L 94085.6 24833.2 L 92514.8 24833.2 L 92512.4 24832 Z M 88504.4 23306.8 Q 89235.2 23306.8 89859.2 23078.8 Q 90483.2 22850.8 90939.2 22388.8 Q 91395.2 21926.8 91653.2 21224.8 Q 91911.2 20522.8 91911.2 19576 L 91911.2 18386.8 L 90194 18472 Q 89114 18520 88382 18712 Q 87650 18904 87212 19246 Q 86774 19588 86582 20074 Q 86390 20560 86390 21170.8 Q 86390 22274.8 86972 22790.8 Q 87554 23306.8 88503.2 23306.8 L 88504.4 23306.8 Z M 101028.8 25072 Q 99818 25072 98762 24694 Q 97706 24316 96926 23494 Q 96146 22672 95702 21394 Q 95258 20116 95258 18316 Q 95258 16433.2 95714 15119.2 Q 96170 13805.2 96968 12983.2 Q 97766 12161.2 98834 11789.2 Q 99902 11417.2 101126 11417.2 Q 102062 11417.2 102956 11621.2 Q 103850 11825.2 104450 12124 L 103802 13972 Q 103524.8 13852 103188.8 13738 Q 102852.8 13624 102492.8 13534 Q 102132.8 13444 101784.8 13390 Q 101436.8 13336 101124.8 13336 Q 99242 13336 98378 14542 Q 97514 15748 97514 18292 Q 97514 20825.2 98384 21995.2 Q 99254 23165.2 101030 23165.2 Q 102003.2 23165.2 102789.2 22943.2 Q 103575.2 22721.2 104223.2 22420 L 104223.2 24364 Q 103575.2 24713.2 102837.2 24893.2 Q 102099.2 25073.2 101030 25073.2 L 101028.8 25072 Z M 110515.2 25072 Q 109195.2 25072 108103.2 24628 Q 107011.2 24184 106225.2 23332 Q 105439.2 22480 105007.2 21220 Q 104575.2 19960 104575.2 18338.8 Q 104575.2 16706.8 104971.2 15422.8 Q 105367.2 14138.8 106087.2 13244.8 Q 106807.2 12350.8 107809.2 11882.8 Q 108811.2 11414.8 110024.4 11414.8 Q 111211.2 11414.8 112159.2 11840.8 Q 113107.2 12266.8 113767.2 13040.8 Q 114427.2 13814.8 114781.2 14900.8 Q 115135.2 15986.8 115135.2 17306.8 L 115135.2 18664 L 106831.2 18664 Q 106890 20978.8 107808 22070.8 Q 108726 23162.8 110536.8 23162.8 Q 111150 23162.8 111672 23102.8 Q 112194 23042.8 112680 22928.8 Q 113166 22814.8 113622 22640.8 Q 114078 22466.8 114544.8 22250.8 L 114544.8 24194.8 Q 114064.8 24424 113602.8 24592 Q 113140.8 24760 112654.8 24868 Q 112168.8 24976 111646.8 25024 Q 111124.8 25072 110511.6 25072 L 110515.2 25072 Z M 109976.4 13226.8 Q 108608.4 13226.8 107810.4 14162.8 Q 107012.4 15098.8 106881.6 16888 L 112785.6 16888 Q 112785.6 16072 112623.6 15394 Q 112461.6 14716 112119.6 14236 Q 111777.6 13756 111249.6 13492 Q 110721.6 13228 109977.6 13228 L 109976.4 13226.8 Z M 122016.4 11416 Q 122363.2 11416 122795.2 11446 Q 123227.2 11476 123539.2 11537.2 L 123251.2 13553.2 Q 122915.2 13492 122561.2 13450 Q 122207.2 13408 121895.2 13408 Q 121138 13408 120514 13714 Q 119890 14020 119440 14590 Q 118990 15160 118744 15958 Q 118498 16756 118498 17729.2 L 118498 24833.2 L 116314 24833.2 L 116314 11657.2 L 118090 11657.2 L 118354 14068 L 118450 14068 Q 118751.2 13553.2 119093.2 13073.2 Q 119435.2 12593.2 119861.2 12227.2 Q 120287.2 11861.2 120815.2 11639.2 Q 121343.2 11417.2 122015.2 11417.2 L 122016.4 11416 Z M 136232.4 21218.8 Q 136232.4 22178.8 135884.4 22898.8 Q 135536.4 23618.8 134882.4 24104.8 Q 134228.4 24590.8 133304.4 24830.8 Q 132380.4 25070.8 131228.4 25070.8 Q 129921.6 25070.8 128985.6 24860.8 Q 128049.6 24650.8 127340.4 24242.8 L 127340.4 22250.8 Q 127713.6 22442.8 128169.6 22628.8 Q 128625.6 22814.8 129129.6 22958.8 Q 129633.6 23102.8 130167.6 23192.8 Q 130701.6 23282.8 131229.6 23282.8 Q 132010.8 23282.8 132556.8 23150.8 Q 133102.8 23018.8 133444.8 22772.8 Q 133786.8 22526.8 133942.8 22172.8 Q 134098.8 21818.8 134098.8 21386.8 Q 134098.8 21016 133978.8 20716 Q 133858.8 20416 133540.8 20122 Q 133222.8 19828 132670.8 19528 Q 132118.8 19228 131254.8 18857.2 Q 130390.8 18484 129700.8 18124 Q 129010.8 17764 128530.8 17320 Q 128050.8 16876 127792.8 16294 Q 127534.8 15712 127534.8 14906.8 Q 127534.8 14066.8 127864.8 13412.8 Q 128194.8 12758.8 128794.8 12314.8 Q 129394.8 11870.8 130234.8 11642.8 Q 131074.8 11414.8 132106.8 11414.8 Q 133269.6 11414.8 134235.6 11666.8 Q 135201.6 11918.8 136065.6 12326.8 L 135308.4 14089.6 Q 134529.6 13742.8 133707.6 13484.8 Q 132885.6 13226.8 132034.8 13226.8 Q 130810.8 13226.8 130222.8 13628.8 Q 129634.8 14030.8 129634.8 14774.8 Q 129634.8 15193.6 129772.8 15505.6 Q 129910.8 15817.6 130246.8 16093.6 Q 130582.8 16369.6 131146.8 16651.6 Q 131710.8 16933.6 132550.8 17280.4 Q 133414.8 17640.4 134092.8 18000.4 Q 134770.8 18360.4 135250.8 18810.4 Q 135730.8 19260.4 135982.8 19836.4 Q 136234.8 20412.4 136234.8 21215.2 L 136232.4 21218.8 Z M 142566.4 25072 Q 141246.4 25072 140154.4 24628 Q 139062.4 24184 138276.4 23332 Q 137490.4 22480 137058.4 21220 Q 136626.4 19960 136626.4 18338.8 Q 136626.4 16706.8 137022.4 15422.8 Q 137418.4 14138.8 138138.4 13244.8 Q 138858.4 12350.8 139860.4 11882.8 Q 140862.4 11414.8 142075.6 11414.8 Q 143262.4 11414.8 144210.4 11840.8 Q 145158.4 12266.8 145818.4 13040.8 Q 146478.4 13814.8 146832.4 14900.8 Q 147186.4 15986.8 147186.4 17306.8 L 147186.4 18664 L 138882.4 18664 Q 138941.2 20978.8 139859.2 22070.8 Q 140777.2 23162.8 142588 23162.8 Q 143201.2 23162.8 143723.2 23102.8 Q 144245.2 23042.8 144731.2 22928.8 Q 145217.2 22814.8 145673.2 22640.8 Q 146129.2 22466.8 146596 22250.8 L 146596 24194.8 Q 146116 24424 145654 24592 Q 145192 24760 144706 24868 Q 144220 24976 143698 25024 Q 143176 25072 142562.8 25072 L 142566.4 25072 Z M 142027.6 13226.8 Q 140659.6 13226.8 139861.6 14162.8 Q 139063.6 15098.8 138932.8 16888 L 144836.8 16888 Q 144836.8 16072 144674.8 15394 Q 144512.8 14716 144170.8 14236 Q 143828.8 13756 143300.8 13492 Q 142772.8 13228 142028.8 13228 L 142027.6 13226.8 Z M 158518.4 11656 L 158518.4 13010.8 L 156155.6 13336 Q 156491.6 13754.8 156719.6 14408.8 Q 156947.6 15062.8 156947.6 15889.6 Q 156947.6 16801.6 156665.6 17575.6 Q 156383.6 18349.6 155813.6 18913.6 Q 155243.6 19477.6 154403.6 19795.6 Q 153563.6 20113.6 152446.4 20113.6 Q 152182.4 20113.6 151918.4 20107.6 Q 151654.4 20101.6 151486.4 20064.4 Q 151283.6 20184.4 151085.6 20334.4 Q 150887.6 20484.4 150725.6 20676.4 Q 150563.6 20868.4 150461.6 21108.4 Q 150359.6 21348.4 150359.6 21636.4 Q 150359.6 21959.2 150503.6 22157.2 Q 150647.6 22355.2 150893.6 22463.2 Q 151139.6 22571.2 151475.6 22607.2 Q 151811.6 22643.2 152182.4 22643.2 L 154294.4 22643.2 Q 155411.6 22643.2 156179.6 22925.2 Q 156947.6 23207.2 157433.6 23687.2 Q 157919.6 24167.2 158135.6 24821.2 Q 158351.6 25475.2 158351.6 26208.4 Q 158351.6 27264.4 157961.6 28104.4 Q 157571.6 28944.4 156767.6 29526.4 Q 155963.6 30108.4 154733.6 30420.4 Q 153503.6 30732.4 151836.8 30732.4 Q 150551.6 30732.4 149591.6 30480.4 Q 148631.6 30228.4 147995.6 29748.4 Q 147359.6 29268.4 147041.6 28590.4 Q 146723.6 27912.4 146723.6 27059.2 Q 146723.6 26339.2 146957.6 25793.2 Q 147191.6 25247.2 147587.6 24850 Q 147983.6 24452.8 148505.6 24200.8 Q 149027.6 23948.8 149590.4 23818 Q 149086.4 23588.8 148762.4 23096.8 Q 148438.4 22604.8 148438.4 21970 Q 148438.4 21236.8 148822.4 20702.8 Q 149206.4 20168.8 150035.6 19664.8 Q 149518.4 19448.8 149092.4 19070.8 Q 148666.4 18692.8 148372.4 18206.8 Q 148078.4 17720.8 147916.4 17144.8 Q 147754.4 16568.8 147754.4 15955.6 Q 147754.4 14888.8 148054.4 14048.8 Q 148354.4 13208.8 148942.4 12620.8 Q 149530.4 12032.8 150406.4 11720.8 Q 151282.4 11408.8 152445.2 11408.8 Q 152890.4 11408.8 153364.4 11474.8 Q 153838.4 11540.8 154163.6 11650 L 158518.4 11650 L 158518.4 11656 Z M 148787.6 26992 Q 148787.6 27437.2 148943.6 27821.2 Q 149099.6 28205.2 149453.6 28481.2 Q 149807.6 28757.2 150389.6 28919.2 Q 150971.6 29081.2 151835.6 29081.2 Q 154067.6 29081.2 155177.6 28391.2 Q 156287.6 27701.2 156287.6 26405.2 Q 156287.6 25853.2 156143.6 25505.2 Q 155999.6 25157.2 155669.6 24959.2 Q 155339.6 24761.2 154799.6 24689.2 Q 154259.6 24617.2 153478.4 24617.2 L 151366.4 24617.2 Q 150947.6 24617.2 150491.6 24713.2 Q 150035.6 24809.2 149657.6 25073.2 Q 149279.6 25337.2 149033.6 25799.2 Q 148787.6 26261.2 148787.6 26992  Z M 149891.6 15890.8 Q 149891.6 17272 150539.6 17944 Q 151187.6 18616 152374.4 18616 Q 153574.4 18616 154192.4 17950 Q 154810.4 17284 154810.4 15857.2 Q 154810.4 14380 154180.4 13684 Q 153550.4 12988 152350.4 12988 Q 151163.6 12988 150527.6 13708 Q 149891.6 14428 149891.6 15892 L 149891.6 15890.8 Z M 167498 24832 L 167172.8 23066.8 L 167052.8 23066.8 Q 166754 23584 166340 23962 Q 165926 24340 165434 24586 Q 164942 24832 164390 24952 Q 163838 25072 163262 25072 Q 162171.2 25072 161343.2 24796 Q 160515.2 24520 159963.2 23932 Q 159411.2 23344 159129.2 22432 Q 158847.2 21520 158847.2 20258.8 L 158847.2 11656 L 161031.2 11656 L 161031.2 20138.8 Q 161031.2 21698.8 161667.2 22478.8 Q 162303.2 23258.8 163636.4 23258.8 Q 164607.2 23258.8 165267.2 22946.8 Q 165927.2 22634.8 166329.2 22028.8 Q 166731.2 21422.8 166905.2 20534.8 Q 167079.2 19646.8 167079.2 18494.8 L 167079.2 11654.8 L 169263.2 11654.8 L 169263.2 24830.8 L 167500.4 24830.8 L 167498 24832 Z M 173539.2 24832 L 171355.2 24832 L 171355.2 11656 L 173539.2 11656 L 173539.2 24832 Z M 171187.2 8090.8 Q 171187.2 7370.8 171553.2 7046.8 Q 171919.2 6722.8 172458 6722.8 Q 172722 6722.8 172956 6800.8 Q 173190 6878.8 173364 7046.8 Q 173538 7214.8 173640 7472.8 Q 173742 7730.8 173742 8090.8 Q 173742 8786.8 173364 9128.8 Q 172986 9470.8 172458 9470.8 Q 171919.2 9470.8 171553.2 9134.8 Q 171187.2 8798.8 171187.2 8089.6 L 171187.2 8090.8 Z M 191386 24832 L 191386 16346.8 Q 191386 14786.8 190786 14006.8 Q 190186 13226.8 188924.8 13226.8 Q 188050 13226.8 187438 13508.8 Q 186826 13790.8 186436 14336.8 Q 186046 14882.8 185866 15692.8 Q 185686 16502.8 185686 17558.8 L 185686 24830.8 L 183491.2 24830.8 L 183491.2 16345.6 Q 183491.2 14785.6 182897.2 14005.6 Q 182303.2 13225.6 181044.4 13225.6 Q 180119.2 13225.6 179495.2 13537.6 Q 178871.2 13849.6 178493.2 14461.6 Q 178115.2 15073.6 177953.2 15961.6 Q 177791.2 16849.6 177791.2 18001.6 L 177791.2 24830.8 L 175607.2 24830.8 L 175607.2 11654.8 L 177383.2 11654.8 L 177695.2 13430.8 L 177815.2 13430.8 Q 178103.2 12913.6 178499.2 12535.6 Q 178895.2 12157.6 179369.2 11905.6 Q 179843.2 11653.6 180377.2 11533.6 Q 180911.2 11413.6 181463.2 11413.6 Q 182903.2 11413.6 183857.2 11941.6 Q 184811.2 12469.6 185267.2 13597.6 L 185363.2 13597.6 Q 185675.2 13032.4 186113.2 12624.4 Q 186551.2 12216.4 187073.2 11946.4 Q 187595.2 11676.4 188171.2 11544.4 Q 188747.2 11412.4 189347.2 11412.4 Q 191446 11412.4 192508 12558.4 Q 193570 13704.4 193570 16224.4 L 193570 24829.6 L 191386 24829.6 L 191386 24832 Z M 197705.6 24832 L 195521.6 24832 L 195521.6 11656 L 197705.6 11656 L 197705.6 24832 Z M 195353.6 8090.8 Q 195353.6 7370.8 195719.6 7046.8 Q 196085.6 6722.8 196624.4 6722.8 Q 196888.4 6722.8 197122.4 6800.8 Q 197356.4 6878.8 197530.4 7046.8 Q 197704.4 7214.8 197806.4 7472.8 Q 197908.4 7730.8 197908.4 8090.8 Q 197908.4 8786.8 197530.4 9128.8 Q 197152.4 9470.8 196624.4 9470.8 Q 196085.6 9470.8 195719.6 9134.8 Q 195353.6 8798.8 195353.6 8089.6 L 195353.6 8090.8 Z M 204979.2 25072 Q 203659.2 25072 202567.2 24628 Q 201475.2 24184 200689.2 23332 Q 199903.2 22480 199471.2 21220 Q 199039.2 19960 199039.2 18338.8 Q 199039.2 16706.8 199435.2 15422.8 Q 199831.2 14138.8 200551.2 13244.8 Q 201271.2 12350.8 202273.2 11882.8 Q 203275.2 11414.8 204488.4 11414.8 Q 205675.2 11414.8 206623.2 11840.8 Q 207571.2 12266.8 208231.2 13040.8 Q 208891.2 13814.8 209245.2 14900.8 Q 209599.2 15986.8 209599.2 17306.8 L 209599.2 18664 L 201295.2 18664 Q 201354 20978.8 202272 22070.8 Q 203190 23162.8 205000.8 23162.8 Q 205614 23162.8 206136 23102.8 Q 206658 23042.8 207144 22928.8 Q 207630 22814.8 208086 22640.8 Q 208542 22466.8 209008.8 22250.8 L 209008.8 24194.8 Q 208528.8 24424 208066.8 24592 Q 207604.8 24760 207118.8 24868 Q 206632.8 24976 206110.8 25024 Q 205588.8 25072 204975.6 25072 L 204979.2 25072 Z M 204440.4 13226.8 Q 203072.4 13226.8 202274.4 14162.8 Q 201476.4 15098.8 201345.6 16888 L 207249.6 16888 Q 207249.6 16072 207087.6 15394 Q 206925.6 14716 206583.6 14236 Q 206241.6 13756 205713.6 13492 Q 205185.6 13228 204441.6 13228 L 204440.4 13226.8 Z M 219011.2 24832 L 219011.2 16346.8 Q 219011.2 14786.8 218381.2 14006.8 Q 217751.2 13226.8 216407.2 13226.8 Q 215434 13226.8 214774 13538.8 Q 214114 13850.8 213712 14462.8 Q 213310 15074.8 213136 15962.8 Q 212962 16850.8 212962 18002.8 L 212962 24832 L 210778 24832 L 210778 11656 L 212554 11656 L 212866 13432 L 212986 13432 Q 213287.2 12914.8 213701.2 12536.8 Q 214115.2 12158.8 214607.2 11906.8 Q 215099.2 11654.8 215651.2 11534.8 Q 216203.2 11414.8 216779.2 11414.8 Q 218976.4 11414.8 220086.4 12560.8 Q 221196.4 13706.8 221196.4 16226.8 L 221196.4 24832 L 219012.4 24832 L 219011.2 24832 Z M 227153.6 23282.8 Q 227369.6 23282.8 227639.6 23258.8 Q 227909.6 23234.8 228161.6 23198.8 Q 228413.6 23162.8 228623.6 23114.8 Q 228833.6 23066.8 228942.8 23032 L 228942.8 24688 Q 228785.6 24760 228545.6 24832 Q 228305.6 24904 228017.6 24958 Q 227729.6 25012 227417.6 25042 Q 227105.6 25072 226806.8 25072 Q 226062.8 25072 225426.8 24880 Q 224790.8 24688 224328.8 24220 Q 223866.8 23752 223602.8 22954 Q 223338.8 22156 223338.8 20945.2 L 223338.8 13300 L 221480 13300 L 221480 12329.2 L 223338.8 11393.2 L 224274.8 8633.2 L 225536 8633.2 L 225536 11657.2 L 228848 11657.2 L 228848 13300 L 225536 13300 L 225536 20945.2 Q 225536 22108 225914 22696 Q 226292 23284 227156 23284 L 227153.6 23282.8 Z M 240157.2 18218.8 Q 240157.2 19864 239755.2 21142 Q 239353.2 22420 238603.2 23290 Q 237853.2 24160 236785.2 24616 Q 235717.2 25072 234384 25072 Q 233149.2 25072 232105.2 24616 Q 231061.2 24160 230299.2 23290 Q 229537.2 22420 229111.2 21142 Q 228685.2 19864 228685.2 18218.8 Q 228685.2 16586.8 229087.2 15320.8 Q 229489.2 14054.8 230233.2 13184.8 Q 230977.2 12314.8 232051.2 11864.8 Q 233125.2 11414.8 234456 11414.8 Q 235693.2 11414.8 236737.2 11864.8 Q 237781.2 12314.8 238543.2 13184.8 Q 239305.2 14054.8 239731.2 15320.8 Q 240157.2 16586.8 240157.2 18218.8  Z M 230941.2 18218.8 Q 230941.2 20728 231763.2 21994 Q 232585.2 23260 234433.2 23260 Q 236281.2 23260 237091.2 21994 Q 237901.2 20728 237901.2 18218.8 Q 237901.2 15712 237079.2 14470 Q 236257.2 13228 234409.2 13228 Q 232561.2 13228 231751.2 14470 Q 230941.2 15712 230941.2 18218.8  Z M 253229.2 24832 L 252784 23008 L 252688 23008 Q 252293.2 23546.8 251897.2 23936.8 Q 251501.2 24326.8 251033.2 24578.8 Q 250565.2 24830.8 249989.2 24950.8 Q 249413.2 25070.8 248656 25070.8 Q 247829.2 25070.8 247133.2 24836.8 Q 246437.2 24602.8 245927.2 24116.8 Q 245417.2 23630.8 245129.2 22892.8 Q 244841.2 22154.8 244841.2 21146.8 Q 244841.2 19178.8 246227.2 18122.8 Q 247613.2 17066.8 250445.2 16970.8 L 252653.2 16888 L 252653.2 16058.8 Q 252653.2 15256 252479.2 14716 Q 252305.2 14176 251975.2 13846 Q 251645.2 13516 251159.2 13372 Q 250673.2 13228 250049.2 13228 Q 249054.4 13228 248196.4 13516 Q 247338.4 13804 246546.4 14212 L 245778.4 12569.2 Q 246666.4 12089.2 247758.4 11753.2 Q 248850.4 11417.2 250050.4 11417.2 Q 251274.4 11417.2 252168.4 11663.2 Q 253062.4 11909.2 253644.4 12443.2 Q 254226.4 12977.2 254514.4 13805.2 Q 254802.4 14633.2 254802.4 15809.2 L 254802.4 24833.2 L 253231.6 24833.2 L 253229.2 24832 Z M 249221.2 23306.8 Q 249952 23306.8 250576 23078.8 Q 251200 22850.8 251656 22388.8 Q 252112 21926.8 252370 21224.8 Q 252628 20522.8 252628 19576 L 252628 18386.8 L 250910.8 18472 Q 249830.8 18520 249098.8 18712 Q 248366.8 18904 247928.8 19246 Q 247490.8 19588 247298.8 20074 Q 247106.8 20560 247106.8 21170.8 Q 247106.8 22274.8 247688.8 22790.8 Q 248270.8 23306.8 249220 23306.8 L 249221.2 23306.8 Z M 264939.2 23282.8 Q 265155.2 23282.8 265425.2 23258.8 Q 265695.2 23234.8 265947.2 23198.8 Q 266199.2 23162.8 266409.2 23114.8 Q 266619.2 23066.8 266728.4 23032 L 266728.4 24688 Q 266571.2 24760 266331.2 24832 Q 266091.2 24904 265803.2 24958 Q 265515.2 25012 265203.2 25042 Q 264891.2 25072 264592.4 25072 Q 263848.4 25072 263212.4 24880 Q 262576.4 24688 262114.4 24220 Q 261652.4 23752 261388.4 22954 Q 261124.4 22156 261124.4 20945.2 L 261124.4 13300 L 259265.6 13300 L 259265.6 12329.2 L 261124.4 11393.2 L 262060.4 8633.2 L 263321.6 8633.2 L 263321.6 11657.2 L 266633.6 11657.2 L 266633.6 13300 L 263321.6 13300 L 263321.6 20945.2 Q 263321.6 22108 263699.6 22696 Q 264077.6 23284 264941.6 23284 L 264939.2 23282.8 Z M 275734.8 24832 L 275409.6 23066.8 L 275289.6 23066.8 Q 274990.8 23584 274576.8 23962 Q 274162.8 24340 273670.8 24586 Q 273178.8 24832 272626.8 24952 Q 272074.8 25072 271498.8 25072 Q 270408 25072 269580 24796 Q 268752 24520 268200 23932 Q 267648 23344 267366 22432 Q 267084 21520 267084 20258.8 L 267084 11656 L 269268 11656 L 269268 20138.8 Q 269268 21698.8 269904 22478.8 Q 270540 23258.8 271873.2 23258.8 Q 272844 23258.8 273504 22946.8 Q 274164 22634.8 274566 22028.8 Q 274968 21422.8 275142 20534.8 Q 275316 19646.8 275316 18494.8 L 275316 11654.8 L 277500 11654.8 L 277500 24830.8 L 275737.2 24830.8 L 275734.8 24832 Z M 289793.6 25072 Q 289086.8 25072 288510.8 24916 Q 287934.8 24760 287472.8 24502 Q 287010.8 24244 286656.8 23896 Q 286302.8 23548 286025.6 23164 L 285881.6 23164 Q 285918.8 23572 285953.6 23945.2 Q 285977.6 24257.2 286001.6 24587.2 Q 286025.6 24917.2 286025.6 25109.2 L 286025.6 30736 L 283841.6 30736 L 283841.6 11656 L 285617.6 11656 L 285929.6 13432 L 286025.6 13432 Q 286302.8 13010.8 286650.8 12644.8 Q 286998.8 12278.8 287460.8 12008.8 Q 287922.8 11738.8 288498.8 11576.8 Q 289074.8 11414.8 289794.8 11414.8 Q 290922.8 11414.8 291846.8 11846.8 Q 292770.8 12278.8 293424.8 13136.8 Q 294078.8 13994.8 294438.8 15266.8 Q 294798.8 16538.8 294798.8 18218.8 Q 294798.8 19912 294438.8 21190 Q 294078.8 22468 293424.8 23332 Q 292770.8 24196 291846.8 24634 Q 290922.8 25072 289794.8 25072 L 289793.6 25072 Z M 289374.8 13226.8 Q 288462.8 13226.8 287832.8 13502.8 Q 287202.8 13778.8 286812.8 14342.8 Q 286422.8 14906.8 286236.8 15746.8 Q 286050.8 16586.8 286026.8 17728 L 286026.8 18218.8 Q 286026.8 19432 286188.8 20374 Q 286350.8 21316 286740.8 21958 Q 287130.8 22600 287778.8 22930 Q 288426.8 23260 289400 23260 Q 291018.8 23260 291780.8 21952 Q 292542.8 20644 292542.8 18196 Q 292542.8 15700 291780.8 14464 Q 291018.8 13228 289376 13228 L 289374.8 13226.8 Z M 301933.2 11416 Q 302280 11416 302712 11446 Q 303144 11476 303456 11537.2 L 303168 13553.2 Q 302832 13492 302478 13450 Q 302124 13408 301812 13408 Q 301054.8 13408 300430.8 13714 Q 299806.8 14020 299356.8 14590 Q 298906.8 15160 298660.8 15958 Q 298414.8 16756 298414.8 17729.2 L 298414.8 24833.2 L 296230.8 24833.2 L 296230.8 11657.2 L 298006.8 11657.2 L 298270.8 14068 L 298366.8 14068 Q 298668 13553.2 299010 13073.2 Q 299352 12593.2 299778 12227.2 Q 300204 11861.2 300732 11639.2 Q 301260 11417.2 301932 11417.2 L 301933.2 11416 Z M 314755.6 18218.8 Q 314755.6 19864 314353.6 21142 Q 313951.6 22420 313201.6 23290 Q 312451.6 24160 311383.6 24616 Q 310315.6 25072 308982.4 25072 Q 307747.6 25072 306703.6 24616 Q 305659.6 24160 304897.6 23290 Q 304135.6 22420 303709.6 21142 Q 303283.6 19864 303283.6 18218.8 Q 303283.6 16586.8 303685.6 15320.8 Q 304087.6 14054.8 304831.6 13184.8 Q 305575.6 12314.8 306649.6 11864.8 Q 307723.6 11414.8 309054.4 11414.8 Q 310291.6 11414.8 311335.6 11864.8 Q 312379.6 12314.8 313141.6 13184.8 Q 313903.6 14054.8 314329.6 15320.8 Q 314755.6 16586.8 314755.6 18218.8  Z M 305539.6 18218.8 Q 305539.6 20728 306361.6 21994 Q 307183.6 23260 309031.6 23260 Q 310879.6 23260 311689.6 21994 Q 312499.6 20728 312499.6 18218.8 Q 312499.6 15712 311677.6 14470 Q 310855.6 13228 309007.6 13228 Q 307159.6 13228 306349.6 14470 Q 305539.6 15712 305539.6 18218.8  Z M 326300.8 11656 L 326300.8 13010.8 L 323938 13336 Q 324274 13754.8 324502 14408.8 Q 324730 15062.8 324730 15889.6 Q 324730 16801.6 324448 17575.6 Q 324166 18349.6 323596 18913.6 Q 323026 19477.6 322186 19795.6 Q 321346 20113.6 320228.8 20113.6 Q 319964.8 20113.6 319700.8 20107.6 Q 319436.8 20101.6 319268.8 20064.4 Q 319066 20184.4 318868 20334.4 Q 318670 20484.4 318508 20676.4 Q 318346 20868.4 318244 21108.4 Q 318142 21348.4 318142 21636.4 Q 318142 21959.2 318286 22157.2 Q 318430 22355.2 318676 22463.2 Q 318922 22571.2 319258 22607.2 Q 319594 22643.2 319964.8 22643.2 L 322076.8 22643.2 Q 323194 22643.2 323962 22925.2 Q 324730 23207.2 325216 23687.2 Q 325702 24167.2 325918 24821.2 Q 326134 25475.2 326134 26208.4 Q 326134 27264.4 325744 28104.4 Q 325354 28944.4 324550 29526.4 Q 323746 30108.4 322516 30420.4 Q 321286 30732.4 319619.2 30732.4 Q 318334 30732.4 317374 30480.4 Q 316414 30228.4 315778 29748.4 Q 315142 29268.4 314824 28590.4 Q 314506 27912.4 314506 27059.2 Q 314506 26339.2 314740 25793.2 Q 314974 25247.2 315370 24850 Q 315766 24452.8 316288 24200.8 Q 316810 23948.8 317372.8 23818 Q 316868.8 23588.8 316544.8 23096.8 Q 316220.8 22604.8 316220.8 21970 Q 316220.8 21236.8 316604.8 20702.8 Q 316988.8 20168.8 317818 19664.8 Q 317300.8 19448.8 316874.8 19070.8 Q 316448.8 18692.8 316154.8 18206.8 Q 315860.8 17720.8 315698.8 17144.8 Q 315536.8 16568.8 315536.8 15955.6 Q 315536.8 14888.8 315836.8 14048.8 Q 316136.8 13208.8 316724.8 12620.8 Q 317312.8 12032.8 318188.8 11720.8 Q 319064.8 11408.8 320227.6 11408.8 Q 320672.8 11408.8 321146.8 11474.8 Q 321620.8 11540.8 321946 11650 L 326300.8 11650 L 326300.8 11656 Z M 316570 26992 Q 316570 27437.2 316726 27821.2 Q 316882 28205.2 317236 28481.2 Q 317590 28757.2 318172 28919.2 Q 318754 29081.2 319618 29081.2 Q 321850 29081.2 322960 28391.2 Q 324070 27701.2 324070 26405.2 Q 324070 25853.2 323926 25505.2 Q 323782 25157.2 323452 24959.2 Q 323122 24761.2 322582 24689.2 Q 322042 24617.2 321260.8 24617.2 L 319148.8 24617.2 Q 318730 24617.2 318274 24713.2 Q 317818 24809.2 317440 25073.2 Q 317062 25337.2 316816 25799.2 Q 316570 26261.2 316570 26992  Z M 317674 15890.8 Q 317674 17272 318322 17944 Q 318970 18616 320156.8 18616 Q 321356.8 18616 321974.8 17950 Q 322592.8 17284 322592.8 15857.2 Q 322592.8 14380 321962.8 13684 Q 321332.8 12988 320132.8 12988 Q 318946 12988 318310 13708 Q 317674 14428 317674 15892 L 317674 15890.8 Z M 332448.4 11416 Q 332795.2 11416 333227.2 11446 Q 333659.2 11476 333971.2 11537.2 L 333683.2 13553.2 Q 333347.2 13492 332993.2 13450 Q 332639.2 13408 332327.2 13408 Q 331570 13408 330946 13714 Q 330322 14020 329872 14590 Q 329422 15160 329176 15958 Q 328930 16756 328930 17729.2 L 328930 24833.2 L 326746 24833.2 L 326746 11657.2 L 328522 11657.2 L 328786 14068 L 328882 14068 Q 329183.2 13553.2 329525.2 13073.2 Q 329867.2 12593.2 330293.2 12227.2 Q 330719.2 11861.2 331247.2 11639.2 Q 331775.2 11417.2 332447.2 11417.2 L 332448.4 11416 Z M 339737.6 25072 Q 338417.6 25072 337325.6 24628 Q 336233.6 24184 335447.6 23332 Q 334661.6 22480 334229.6 21220 Q 333797.6 19960 333797.6 18338.8 Q 333797.6 16706.8 334193.6 15422.8 Q 334589.6 14138.8 335309.6 13244.8 Q 336029.6 12350.8 337031.6 11882.8 Q 338033.6 11414.8 339246.8 11414.8 Q 340433.6 11414.8 341381.6 11840.8 Q 342329.6 12266.8 342989.6 13040.8 Q 343649.6 13814.8 344003.6 14900.8 Q 344357.6 15986.8 344357.6 17306.8 L 344357.6 18664 L 336053.6 18664 Q 336112.4 20978.8 337030.4 22070.8 Q 337948.4 23162.8 339759.2 23162.8 Q 340372.4 23162.8 340894.4 23102.8 Q 341416.4 23042.8 341902.4 22928.8 Q 342388.4 22814.8 342844.4 22640.8 Q 343300.4 22466.8 343767.2 22250.8 L 343767.2 24194.8 Q 343287.2 24424 342825.2 24592 Q 342363.2 24760 341877.2 24868 Q 341391.2 24976 340869.2 25024 Q 340347.2 25072 339734 25072 L 339737.6 25072 Z M 339198.8 13226.8 Q 337830.8 13226.8 337032.8 14162.8 Q 336234.8 15098.8 336104 16888 L 342008 16888 Q 342008 16072 341846 15394 Q 341684 14716 341342 14236 Q 341000 13756 340472 13492 Q 339944 13228 339200 13228 L 339198.8 13226.8 Z M 353422.8 21218.8 Q 353422.8 22178.8 353074.8 22898.8 Q 352726.8 23618.8 352072.8 24104.8 Q 351418.8 24590.8 350494.8 24830.8 Q 349570.8 25070.8 348418.8 25070.8 Q 347112 25070.8 346176 24860.8 Q 345240 24650.8 344530.8 24242.8 L 344530.8 22250.8 Q 344904 22442.8 345360 22628.8 Q 345816 22814.8 346320 22958.8 Q 346824 23102.8 347358 23192.8 Q 347892 23282.8 348420 23282.8 Q 349201.2 23282.8 349747.2 23150.8 Q 350293.2 23018.8 350635.2 22772.8 Q 350977.2 22526.8 351133.2 22172.8 Q 351289.2 21818.8 351289.2 21386.8 Q 351289.2 21016 351169.2 20716 Q 351049.2 20416 350731.2 20122 Q 350413.2 19828 349861.2 19528 Q 349309.2 19228 348445.2 18857.2 Q 347581.2 18484 346891.2 18124 Q 346201.2 17764 345721.2 17320 Q 345241.2 16876 344983.2 16294 Q 344725.2 15712 344725.2 14906.8 Q 344725.2 14066.8 345055.2 13412.8 Q 345385.2 12758.8 345985.2 12314.8 Q 346585.2 11870.8 347425.2 11642.8 Q 348265.2 11414.8 349297.2 11414.8 Q 350460 11414.8 351426 11666.8 Q 352392 11918.8 353256 12326.8 L 352498.8 14089.6 Q 351720 13742.8 350898 13484.8 Q 350076 13226.8 349225.2 13226.8 Q 348001.2 13226.8 347413.2 13628.8 Q 346825.2 14030.8 346825.2 14774.8 Q 346825.2 15193.6 346963.2 15505.6 Q 347101.2 15817.6 347437.2 16093.6 Q 347773.2 16369.6 348337.2 16651.6 Q 348901.2 16933.6 349741.2 17280.4 Q 350605.2 17640.4 351283.2 18000.4 Q 351961.2 18360.4 352441.2 18810.4 Q 352921.2 19260.4 353173.2 19836.4 Q 353425.2 20412.4 353425.2 21215.2 L 353422.8 21218.8 Z M 365290 18218.8 Q 365290 19864 364888 21142 Q 364486 22420 363736 23290 Q 362986 24160 361918 24616 Q 360850 25072 359516.8 25072 Q 358282 25072 357238 24616 Q 356194 24160 355432 23290 Q 354670 22420 354244 21142 Q 353818 19864 353818 18218.8 Q 353818 16586.8 354220 15320.8 Q 354622 14054.8 355366 13184.8 Q 356110 12314.8 357184 11864.8 Q 358258 11414.8 359588.8 11414.8 Q 360826 11414.8 361870 11864.8 Q 362914 12314.8 363676 13184.8 Q 364438 14054.8 364864 15320.8 Q 365290 16586.8 365290 18218.8  Z M 356074 18218.8 Q 356074 20728 356896 21994 Q 357718 23260 359566 23260 Q 361414 23260 362224 21994 Q 363034 20728 363034 18218.8 Q 363034 15712 362212 14470 Q 361390 13228 359542 13228 Q 357694 13228 356884 14470 Q 356074 15712 356074 18218.8  Z M 376140.8 25072 Q 374820.8 25072 373728.8 24628 Q 372636.8 24184 371850.8 23332 Q 371064.8 22480 370632.8 21220 Q 370200.8 19960 370200.8 18338.8 Q 370200.8 16706.8 370596.8 15422.8 Q 370992.8 14138.8 371712.8 13244.8 Q 372432.8 12350.8 373434.8 11882.8 Q 374436.8 11414.8 375650 11414.8 Q 376836.8 11414.8 377784.8 11840.8 Q 378732.8 12266.8 379392.8 13040.8 Q 380052.8 13814.8 380406.8 14900.8 Q 380760.8 15986.8 380760.8 17306.8 L 380760.8 18664 L 372456.8 18664 Q 372515.6 20978.8 373433.6 22070.8 Q 374351.6 23162.8 376162.4 23162.8 Q 376775.6 23162.8 377297.6 23102.8 Q 377819.6 23042.8 378305.6 22928.8 Q 378791.6 22814.8 379247.6 22640.8 Q 379703.6 22466.8 380170.4 22250.8 L 380170.4 24194.8 Q 379690.4 24424 379228.4 24592 Q 378766.4 24760 378280.4 24868 Q 377794.4 24976 377272.4 25024 Q 376750.4 25072 376137.2 25072 L 376140.8 25072 Z M 375602 13226.8 Q 374234 13226.8 373436 14162.8 Q 372638 15098.8 372507.2 16888 L 378411.2 16888 Q 378411.2 16072 378249.2 15394 Q 378087.2 14716 377745.2 14236 Q 377403.2 13756 376875.2 13492 Q 376347.2 13228 375603.2 13228 L 375602 13226.8 Z M 390172.8 24832 L 390172.8 16346.8 Q 390172.8 14786.8 389542.8 14006.8 Q 388912.8 13226.8 387568.8 13226.8 Q 386595.6 13226.8 385935.6 13538.8 Q 385275.6 13850.8 384873.6 14462.8 Q 384471.6 15074.8 384297.6 15962.8 Q 384123.6 16850.8 384123.6 18002.8 L 384123.6 24832 L 381939.6 24832 L 381939.6 11656 L 383715.6 11656 L 384027.6 13432 L 384147.6 13432 Q 384448.8 12914.8 384862.8 12536.8 Q 385276.8 12158.8 385768.8 11906.8 Q 386260.8 11654.8 386812.8 11534.8 Q 387364.8 11414.8 387940.8 11414.8 Q 390138 11414.8 391248 12560.8 Q 392358 13706.8 392358 16226.8 L 392358 24832 L 390174 24832 L 390172.8 24832 Z M 403620.8 25072 Q 402410 25072 401354 24694 Q 400298 24316 399518 23494 Q 398738 22672 398294 21394 Q 397850 20116 397850 18316 Q 397850 16433.2 398306 15119.2 Q 398762 13805.2 399560 12983.2 Q 400358 12161.2 401426 11789.2 Q 402494 11417.2 403718 11417.2 Q 404654 11417.2 405548 11621.2 Q 406442 11825.2 407042 12124 L 406394 13972 Q 406116.8 13852 405780.8 13738 Q 405444.8 13624 405084.8 13534 Q 404724.8 13444 404376.8 13390 Q 404028.8 13336 403716.8 13336 Q 401834 13336 400970 14542 Q 400106 15748 400106 18292 Q 400106 20825.2 400976 21995.2 Q 401846 23165.2 403622 23165.2 Q 404595.2 23165.2 405381.2 22943.2 Q 406167.2 22721.2 406815.2 22420 L 406815.2 24364 Q 406167.2 24713.2 405429.2 24893.2 Q 404691.2 25073.2 403622 25073.2 L 403620.8 25072 Z M 415328.4 24832 L 414883.2 23008 L 414787.2 23008 Q 414392.4 23546.8 413996.4 23936.8 Q 413600.4 24326.8 413132.4 24578.8 Q 412664.4 24830.8 412088.4 24950.8 Q 411512.4 25070.8 410755.2 25070.8 Q 409928.4 25070.8 409232.4 24836.8 Q 408536.4 24602.8 408026.4 24116.8 Q 407516.4 23630.8 407228.4 22892.8 Q 406940.4 22154.8 406940.4 21146.8 Q 406940.4 19178.8 408326.4 18122.8 Q 409712.4 17066.8 412544.4 16970.8 L 414752.4 16888 L 414752.4 16058.8 Q 414752.4 15256 414578.4 14716 Q 414404.4 14176 414074.4 13846 Q 413744.4 13516 413258.4 13372 Q 412772.4 13228 412148.4 13228 Q 411153.6 13228 410295.6 13516 Q 409437.6 13804 408645.6 14212 L 407877.6 12569.2 Q 408765.6 12089.2 409857.6 11753.2 Q 410949.6 11417.2 412149.6 11417.2 Q 413373.6 11417.2 414267.6 11663.2 Q 415161.6 11909.2 415743.6 12443.2 Q 416325.6 12977.2 416613.6 13805.2 Q 416901.6 14633.2 416901.6 15809.2 L 416901.6 24833.2 L 415330.8 24833.2 L 415328.4 24832 Z M 411320.4 23306.8 Q 412051.2 23306.8 412675.2 23078.8 Q 413299.2 22850.8 413755.2 22388.8 Q 414211.2 21926.8 414469.2 21224.8 Q 414727.2 20522.8 414727.2 19576 L 414727.2 18386.8 L 413010 18472 Q 411930 18520 411198 18712 Q 410466 18904 410028 19246 Q 409590 19588 409398 20074 Q 409206 20560 409206 21170.8 Q 409206 22274.8 409788 22790.8 Q 410370 23306.8 411319.2 23306.8 L 411320.4 23306.8 Z M 426940.8 23066.8 L 426844.8 23066.8 Q 426580.8 23474.8 426226.8 23840.8 Q 425872.8 24206.8 425410.8 24482.8 Q 424948.8 24758.8 424372.8 24914.8 Q 423796.8 25070.8 423076.8 25070.8 Q 421962 25070.8 421038 24638.8 Q 420114 24206.8 419454 23348.8 Q 418794 22490.8 418434 21218.8 Q 418074 19946.8 418074 18266.8 Q 418074 16576 418434 15298 Q 418794 14020 419454 13156 Q 420114 12292 421038 11854 Q 421962 11416 423076.8 11416 Q 423786 11416 424362 11572 Q 424938 11728 425400 11992 Q 425862 12256 426222 12604 Q 426582 12952 426846 13336 L 426990 13336 Q 426955.2 12928 426918 12554.8 Q 426894 12242.8 426870 11912.8 Q 426846 11582.8 426846 11390.8 L 426846 6158.8 L 429030 6158.8 L 429030 24830.8 L 427267.2 24830.8 L 426942 23065.6 L 426940.8 23066.8 Z M 423498 23258.8 Q 424410 23258.8 425040 22982.8 Q 425670 22706.8 426060 22142.8 Q 426450 21578.8 426636 20732.8 Q 426822 19886.8 426846 18758.8 L 426846 18265.6 Q 426846 17054.8 426684 16112.8 Q 426522 15170.8 426132 14528.8 Q 425742 13886.8 425094 13556.8 Q 424446 13226.8 423475.2 13226.8 Q 421854 13226.8 421092 14534.8 Q 420330 15842.8 420330 18290.8 Q 420330 20800 421092 22030 Q 421854 23260 423499.2 23260 L 423498 23258.8 Z M 438624.4 24832 L 438179.2 23008 L 438083.2 23008 Q 437688.4 23546.8 437292.4 23936.8 Q 436896.4 24326.8 436428.4 24578.8 Q 435960.4 24830.8 435384.4 24950.8 Q 434808.4 25070.8 434051.2 25070.8 Q 433224.4 25070.8 432528.4 24836.8 Q 431832.4 24602.8 431322.4 24116.8 Q 430812.4 23630.8 430524.4 22892.8 Q 430236.4 22154.8 430236.4 21146.8 Q 430236.4 19178.8 431622.4 18122.8 Q 433008.4 17066.8 435840.4 16970.8 L 438048.4 16888 L 438048.4 16058.8 Q 438048.4 15256 437874.4 14716 Q 437700.4 14176 437370.4 13846 Q 437040.4 13516 436554.4 13372 Q 436068.4 13228 435444.4 13228 Q 434449.6 13228 433591.6 13516 Q 432733.6 13804 431941.6 14212 L 431173.6 12569.2 Q 432061.6 12089.2 433153.6 11753.2 Q 434245.6 11417.2 435445.6 11417.2 Q 436669.6 11417.2 437563.6 11663.2 Q 438457.6 11909.2 439039.6 12443.2 Q 439621.6 12977.2 439909.6 13805.2 Q 440197.6 14633.2 440197.6 15809.2 L 440197.6 24833.2 L 438626.8 24833.2 L 438624.4 24832 Z M 434616.4 23306.8 Q 435347.2 23306.8 435971.2 23078.8 Q 436595.2 22850.8 437051.2 22388.8 Q 437507.2 21926.8 437765.2 21224.8 Q 438023.2 20522.8 438023.2 19576 L 438023.2 18386.8 L 436306 18472 Q 435226 18520 434494 18712 Q 433762 18904 433324 19246 Q 432886 19588 432694 20074 Q 432502 20560 432502 21170.8 Q 432502 22274.8 433084 22790.8 Q 433666 23306.8 434615.2 23306.8 L 434616.4 23306.8 Z M 454235.6 21218.8 Q 454235.6 22178.8 453887.6 22898.8 Q 453539.6 23618.8 452885.6 24104.8 Q 452231.6 24590.8 451307.6 24830.8 Q 450383.6 25070.8 449231.6 25070.8 Q 447924.8 25070.8 446988.8 24860.8 Q 446052.8 24650.8 445343.6 24242.8 L 445343.6 22250.8 Q 445716.8 22442.8 446172.8 22628.8 Q 446628.8 22814.8 447132.8 22958.8 Q 447636.8 23102.8 448170.8 23192.8 Q 448704.8 23282.8 449232.8 23282.8 Q 450014 23282.8 450560 23150.8 Q 451106 23018.8 451448 22772.8 Q 451790 22526.8 451946 22172.8 Q 452102 21818.8 452102 21386.8 Q 452102 21016 451982 20716 Q 451862 20416 451544 20122 Q 451226 19828 450674 19528 Q 450122 19228 449258 18857.2 Q 448394 18484 447704 18124 Q 447014 17764 446534 17320 Q 446054 16876 445796 16294 Q 445538 15712 445538 14906.8 Q 445538 14066.8 445868 13412.8 Q 446198 12758.8 446798 12314.8 Q 447398 11870.8 448238 11642.8 Q 449078 11414.8 450110 11414.8 Q 451272.8 11414.8 452238.8 11666.8 Q 453204.8 11918.8 454068.8 12326.8 L 453311.6 14089.6 Q 452532.8 13742.8 451710.8 13484.8 Q 450888.8 13226.8 450038 13226.8 Q 448814 13226.8 448226 13628.8 Q 447638 14030.8 447638 14774.8 Q 447638 15193.6 447776 15505.6 Q 447914 15817.6 448250 16093.6 Q 448586 16369.6 449150 16651.6 Q 449714 16933.6 450554 17280.4 Q 451418 17640.4 452096 18000.4 Q 452774 18360.4 453254 18810.4 Q 453734 19260.4 453986 19836.4 Q 454238 20412.4 454238 21215.2 L 454235.6 21218.8 Z M 460569.6 25072 Q 459249.6 25072 458157.6 24628 Q 457065.6 24184 456279.6 23332 Q 455493.6 22480 455061.6 21220 Q 454629.6 19960 454629.6 18338.8 Q 454629.6 16706.8 455025.6 15422.8 Q 455421.6 14138.8 456141.6 13244.8 Q 456861.6 12350.8 457863.6 11882.8 Q 458865.6 11414.8 460078.8 11414.8 Q 461265.6 11414.8 462213.6 11840.8 Q 463161.6 12266.8 463821.6 13040.8 Q 464481.6 13814.8 464835.6 14900.8 Q 465189.6 15986.8 465189.6 17306.8 L 465189.6 18664 L 456885.6 18664 Q 456944.4 20978.8 457862.4 22070.8 Q 458780.4 23162.8 460591.2 23162.8 Q 461204.4 23162.8 461726.4 23102.8 Q 462248.4 23042.8 462734.4 22928.8 Q 463220.4 22814.8 463676.4 22640.8 Q 464132.4 22466.8 464599.2 22250.8 L 464599.2 24194.8 Q 464119.2 24424 463657.2 24592 Q 463195.2 24760 462709.2 24868 Q 462223.2 24976 461701.2 25024 Q 461179.2 25072 460566 25072 L 460569.6 25072 Z M 460030.8 13226.8 Q 458662.8 13226.8 457864.8 14162.8 Q 457066.8 15098.8 456936 16888 L 462840 16888 Q 462840 16072 462678 15394 Q 462516 14716 462174 14236 Q 461832 13756 461304 13492 Q 460776 13228 460032 13228 L 460030.8 13226.8 Z M 474254.8 21218.8 Q 474254.8 22178.8 473906.8 22898.8 Q 473558.8 23618.8 472904.8 24104.8 Q 472250.8 24590.8 471326.8 24830.8 Q 470402.8 25070.8 469250.8 25070.8 Q 467944 25070.8 467008 24860.8 Q 466072 24650.8 465362.8 24242.8 L 465362.8 22250.8 Q 465736 22442.8 466192 22628.8 Q 466648 22814.8 467152 22958.8 Q 467656 23102.8 468190 23192.8 Q 468724 23282.8 469252 23282.8 Q 470033.2 23282.8 470579.2 23150.8 Q 471125.2 23018.8 471467.2 22772.8 Q 471809.2 22526.8 471965.2 22172.8 Q 472121.2 21818.8 472121.2 21386.8 Q 472121.2 21016 472001.2 20716 Q 471881.2 20416 471563.2 20122 Q 471245.2 19828 470693.2 19528 Q 470141.2 19228 469277.2 18857.2 Q 468413.2 18484 467723.2 18124 Q 467033.2 17764 466553.2 17320 Q 466073.2 16876 465815.2 16294 Q 465557.2 15712 465557.2 14906.8 Q 465557.2 14066.8 465887.2 13412.8 Q 466217.2 12758.8 466817.2 12314.8 Q 467417.2 11870.8 468257.2 11642.8 Q 469097.2 11414.8 470129.2 11414.8 Q 471292 11414.8 472258 11666.8 Q 473224 11918.8 474088 12326.8 L 473330.8 14089.6 Q 472552 13742.8 471730 13484.8 Q 470908 13226.8 470057.2 13226.8 Q 468833.2 13226.8 468245.2 13628.8 Q 467657.2 14030.8 467657.2 14774.8 Q 467657.2 15193.6 467795.2 15505.6 Q 467933.2 15817.6 468269.2 16093.6 Q 468605.2 16369.6 469169.2 16651.6 Q 469733.2 16933.6 470573.2 17280.4 Q 471437.2 17640.4 472115.2 18000.4 Q 472793.2 18360.4 473273.2 18810.4 Q 473753.2 19260.4 474005.2 19836.4 Q 474257.2 20412.4 474257.2 21215.2 L 474254.8 21218.8 Z M 477564.8 24832 L 475380.8 24832 L 475380.8 11656 L 477564.8 11656 L 477564.8 24832 Z M 475212.8 8090.8 Q 475212.8 7370.8 475578.8 7046.8 Q 475944.8 6722.8 476483.6 6722.8 Q 476747.6 6722.8 476981.6 6800.8 Q 477215.6 6878.8 477389.6 7046.8 Q 477563.6 7214.8 477665.6 7472.8 Q 477767.6 7730.8 477767.6 8090.8 Q 477767.6 8786.8 477389.6 9128.8 Q 477011.6 9470.8 476483.6 9470.8 Q 475944.8 9470.8 475578.8 9134.8 Q 475212.8 8798.8 475212.8 8089.6 L 475212.8 8090.8 Z M 490371.6 18218.8 Q 490371.6 19864 489969.6 21142 Q 489567.6 22420 488817.6 23290 Q 488067.6 24160 486999.6 24616 Q 485931.6 25072 484598.4 25072 Q 483363.6 25072 482319.6 24616 Q 481275.6 24160 480513.6 23290 Q 479751.6 22420 479325.6 21142 Q 478899.6 19864 478899.6 18218.8 Q 478899.6 16586.8 479301.6 15320.8 Q 479703.6 14054.8 480447.6 13184.8 Q 481191.6 12314.8 482265.6 11864.8 Q 483339.6 11414.8 484670.4 11414.8 Q 485907.6 11414.8 486951.6 11864.8 Q 487995.6 12314.8 488757.6 13184.8 Q 489519.6 14054.8 489945.6 15320.8 Q 490371.6 16586.8 490371.6 18218.8  Z M 481155.6 18218.8 Q 481155.6 20728 481977.6 21994 Q 482799.6 23260 484647.6 23260 Q 486495.6 23260 487305.6 21994 Q 488115.6 20728 488115.6 18218.8 Q 488115.6 15712 487293.6 14470 Q 486471.6 13228 484623.6 13228 Q 482775.6 13228 481965.6 14470 Q 481155.6 15712 481155.6 18218.8  Z M 483283.2 9616 Q 483547.2 9266.8 483829.2 8810.8 Q 484111.2 8354.8 484393.2 7868.8 Q 484675.2 7382.8 484927.2 6896.8 Q 485179.2 6410.8 485371.2 6002.8 L 487998 6002.8 L 487998 6256 Q 487806 6578.8 487428 7064.8 Q 487050 7550.8 486588 8078.8 Q 486126 8606.8 485640 9104.8 Q 485154 9602.8 484732.8 9938.8 L 483282 9938.8 L 483282 9616 L 483283.2 9616 Z M 499996.8 24832 L 499996.8 16346.8 Q 499996.8 14786.8 499366.8 14006.8 Q 498736.8 13226.8 497392.8 13226.8 Q 496419.6 13226.8 495759.6 13538.8 Q 495099.6 13850.8 494697.6 14462.8 Q 494295.6 15074.8 494121.6 15962.8 Q 493947.6 16850.8 493947.6 18002.8 L 493947.6 24832 L 491763.6 24832 L 491763.6 11656 L 493539.6 11656 L 493851.6 13432 L 493971.6 13432 Q 494272.8 12914.8 494686.8 12536.8 Q 495100.8 12158.8 495592.8 11906.8 Q 496084.8 11654.8 496636.8 11534.8 Q 497188.8 11414.8 497764.8 11414.8 Q 499962 11414.8 501072 12560.8 Q 502182 13706.8 502182 16226.8 L 502182 24832 L 499998 24832 L 499996.8 24832 Z M 503832.4 23498.8 Q 503832.4 23042.8 503952.4 22724.8 Q 504072.4 22406.8 504276.4 22208.8 Q 504480.4 22010.8 504756.4 21920.8 Q 505032.4 21830.8 505355.2 21830.8 Q 505667.2 21830.8 505949.2 21920.8 Q 506231.2 22010.8 506435.2 22208.8 Q 506639.2 22406.8 506759.2 22724.8 Q 506879.2 23042.8 506879.2 23498.8 Q 506879.2 23944 506759.2 24262 Q 506639.2 24580 506435.2 24785.2 Q 506231.2 24990.4 505949.2 25086.4 Q 505667.2 25182.4 505355.2 25182.4 Q 505032.4 25182.4 504756.4 25086.4 Q 504480.4 24990.4 504276.4 24785.2 Q 504072.4 24580 503952.4 24262 Q 503832.4 23944 503832.4 23498.8  Z " fill-rule="nonzero" style="fill:#535353;;fill-opacity:1;"/>
</svg>