<svg version="1.1" x="0" y="0" width="100%" height="100%" viewBox="0 0 219596.8 32563.2" xmlns="http://www.w3.org/2000/svg">
  <path d="M 13065 23910.4 L 4337.65 23910.4 L 4337.65 7097.4 L 13065 7097.4 L 13065 8983.4 L 6476.65 8983.4 L 6476.65 14181.4 L 12628 14181.4 L 12628 16044.4 L 6476.65 16044.4 L 6476.65 22024.4 L 13065 22024.4 L 13065 23910.4 Z M 22331.6 23910.4 L 22331.6 15778.75 Q 22331.6 14283.75 21727.85 13536.25 Q 21124.1 12788.75 19836.1 12788.75 Q 18903.45 12788.75 18270.95 13087.75 Q 17638.45 13386.75 17253.2 13973.25 Q 16867.95 14559.75 16701.2 15410.75 Q 16534.45 16261.75 16534.45 17365.75 L 16534.45 23910.4 L 14441.45 23910.4 L 14441.45 11283.4 L 16143.45 11283.4 L 16442.45 12985.4 L 16557.45 12985.4 Q 16846.1 12489.75 17242.85 12127.5 Q 17639.6 11765.25 18111.1 11523.75 Q 18582.6 11282.25 19111.6 11167.25 Q 19640.6 11052.25 20192.6 11052.25 Q 22298.25 11052.25 23362 12150.5 Q 24425.75 13248.75 24425.75 15663.75 L 24425.75 23910.4 L 22332.75 23910.4 L 22331.6 23910.4 Z M 34030.2 22425.75 Q 34237.2 22425.75 34495.95 22402.75 Q 34754.7 22379.75 34996.2 22345.25 Q 35237.7 22310.75 35438.95 22264.75 Q 35640.2 22218.75 35744.85 22185.4 L 35744.85 23772.4 Q 35594.2 23841.4 35364.2 23910.4 Q 35134.2 23979.4 34858.2 24031.15 Q 34582.2 24082.9 34283.2 24111.65 Q 33984.2 24140.4 33697.85 24140.4 Q 32984.85 24140.4 32375.35 23956.4 Q 31765.85 23772.4 31323.1 23323.9 Q 30880.35 22875.4 30627.35 22110.65 Q 30374.35 21345.9 30374.35 20185.55 L 30374.35 12858.9 L 28593 12858.9 L 28593 11928.55 L 30374.35 11031.55 L 31271.35 8386.55 L 32480 8386.55 L 32480 11284.55 L 35654 11284.55 L 35654 12858.9 L 32480 12858.9 L 32480 20185.55 Q 32480 21299.9 32842.25 21863.4 Q 33204.5 22426.9 34032.5 22426.9 L 34030.2 22425.75 Z M 44277.85 23910.4 L 43966.2 22218.75 L 43851.2 22218.75 Q 43564.85 22714.4 43168.1 23076.65 Q 42771.35 23438.9 42299.85 23674.65 Q 41828.35 23910.4 41299.35 24025.4 Q 40770.35 24140.4 40218.35 24140.4 Q 39173 24140.4 38379.5 23875.9 Q 37586 23611.4 37057 23047.9 Q 36528 22484.4 36257.75 21610.4 Q 35987.5 20736.4 35987.5 19527.75 L 35987.5 11283.4 L 38080.5 11283.4 L 38080.5 19412.75 Q 38080.5 20907.75 38690 21655.25 Q 39299.5 22402.75 40577.15 22402.75 Q 41507.5 22402.75 42140 22103.75 Q 42772.5 21804.75 43157.75 21224 Q 43543 20643.25 43709.75 19792.25 Q 43876.5 18941.25 43876.5 17837.25 L 43876.5 11282.25 L 45969.5 11282.25 L 45969.5 23909.25 L 44280.15 23909.25 L 44277.85 23910.4 Z M 57573.8 24140.4 Q 56896.45 24140.4 56344.45 23990.9 Q 55792.45 23841.4 55349.7 23594.15 Q 54906.95 23346.9 54567.7 23013.4 Q 54228.45 22679.9 53962.8 22311.9 L 53824.8 22311.9 Q 53860.45 22702.9 53893.8 23060.55 Q 53916.8 23359.55 53939.8 23675.8 Q 53962.8 23992.05 53962.8 24176.05 L 53962.8 29568.4 L 51869.8 29568.4 L 51869.8 11283.4 L 53571.8 11283.4 L 53870.8 12985.4 L 53962.8 12985.4 Q 54228.45 12581.75 54561.95 12231 Q 54895.45 11880.25 55338.2 11621.5 Q 55780.95 11362.75 56332.95 11207.5 Q 56884.95 11052.25 57574.95 11052.25 Q 58655.95 11052.25 59541.45 11466.25 Q 60426.95 11880.25 61053.7 12702.5 Q 61680.45 13524.75 62025.45 14743.75 Q 62370.45 15962.75 62370.45 17572.75 Q 62370.45 19195.4 62025.45 20420.15 Q 61680.45 21644.9 61053.7 22472.9 Q 60426.95 23300.9 59541.45 23720.65 Q 58655.95 24140.4 57574.95 24140.4 L 57573.8 24140.4 Z M 57172.45 12788.75 Q 56298.45 12788.75 55694.7 13053.25 Q 55090.95 13317.75 54717.2 13858.25 Q 54343.45 14398.75 54165.2 15203.75 Q 53986.95 16008.75 53963.95 17102.4 L 53963.95 17572.75 Q 53963.95 18735.4 54119.2 19638.15 Q 54274.45 20540.9 54648.2 21156.15 Q 55021.95 21771.4 55642.95 22087.65 Q 56263.95 22403.9 57196.6 22403.9 Q 58747.95 22403.9 59478.2 21150.4 Q 60208.45 19896.9 60208.45 17550.9 Q 60208.45 15158.9 59478.2 13974.4 Q 58747.95 12789.9 57173.6 12789.9 L 57172.45 12788.75 Z M 69109.45 11053.4 Q 69441.8 11053.4 69855.8 11082.15 Q 70269.8 11110.9 70568.8 11169.55 L 70292.8 13101.55 Q 69970.8 13042.9 69631.55 13002.65 Q 69292.3 12962.4 68993.3 12962.4 Q 68267.65 12962.4 67669.65 13255.65 Q 67071.65 13548.9 66640.4 14095.15 Q 66209.15 14641.4 65973.4 15406.15 Q 65737.65 16170.9 65737.65 17103.55 L 65737.65 23911.55 L 63644.65 23911.55 L 63644.65 11284.55 L 65346.65 11284.55 L 65599.65 13594.9 L 65691.65 13594.9 Q 65980.3 13101.55 66308.05 12641.55 Q 66635.8 12181.55 67044.05 11830.8 Q 67452.3 11480.05 67958.3 11267.3 Q 68464.3 11054.55 69108.3 11054.55 L 69109.45 11053.4 Z M 73111.6 23910.4 L 71018.6 23910.4 L 71018.6 11283.4 L 73111.6 11283.4 L 73111.6 23910.4 Z M 70857.6 7866.75 Q 70857.6 7176.75 71208.35 6866.25 Q 71559.1 6555.75 72075.45 6555.75 Q 72328.45 6555.75 72552.7 6630.5 Q 72776.95 6705.25 72943.7 6866.25 Q 73110.45 7027.25 73208.2 7274.5 Q 73305.95 7521.75 73305.95 7866.75 Q 73305.95 8533.75 72943.7 8861.5 Q 72581.45 9189.25 72075.45 9189.25 Q 71559.1 9189.25 71208.35 8867.25 Q 70857.6 8545.25 70857.6 7865.6 L 70857.6 7866.75 Z M 90135.85 23910.4 L 90135.85 15778.75 Q 90135.85 14283.75 89560.85 13536.25 Q 88985.85 12788.75 87777.2 12788.75 Q 86938.85 12788.75 86352.35 13059 Q 85765.85 13329.25 85392.1 13852.5 Q 85018.35 14375.75 84845.85 15152 Q 84673.35 15928.25 84673.35 16940.25 L 84673.35 23909.25 L 82570 23909.25 L 82570 15777.6 Q 82570 14282.6 82000.75 13535.1 Q 81431.5 12787.6 80225.15 12787.6 Q 79338.5 12787.6 78740.5 13086.6 Q 78142.5 13385.6 77780.25 13972.1 Q 77418 14558.6 77262.75 15409.6 Q 77107.5 16260.6 77107.5 17364.6 L 77107.5 23909.25 L 75014.5 23909.25 L 75014.5 11282.25 L 76716.5 11282.25 L 77015.5 12984.25 L 77130.5 12984.25 Q 77406.5 12488.6 77786 12126.35 Q 78165.5 11764.1 78619.75 11522.6 Q 79074 11281.1 79585.75 11166.1 Q 80097.5 11051.1 80626.5 11051.1 Q 82006.5 11051.1 82920.75 11557.1 Q 83835 12063.1 84272 13144.1 L 84364 13144.1 Q 84663 12602.45 85082.75 12211.45 Q 85502.5 11820.45 86002.75 11561.7 Q 86503 11302.95 87055 11176.45 Q 87607 11049.95 88182 11049.95 Q 90193.35 11049.95 91211.1 12148.2 Q 92228.85 13246.45 92228.85 15661.45 L 92228.85 23908.1 L 90135.85 23908.1 L 90135.85 23910.4 Z M 99049.6 24140.4 Q 97784.6 24140.4 96738.1 23714.9 Q 95691.6 23289.4 94938.35 22472.9 Q 94185.1 21656.4 93771.1 20448.9 Q 93357.1 19241.4 93357.1 17687.75 Q 93357.1 16123.75 93736.6 14893.25 Q 94116.1 13662.75 94806.1 12806 Q 95496.1 11949.25 96456.35 11500.75 Q 97416.6 11052.25 98579.25 11052.25 Q 99716.6 11052.25 100625.1 11460.5 Q 101533.6 11868.75 102166.1 12610.5 Q 102798.6 13352.25 103137.85 14393 Q 103477.1 15433.75 103477.1 16698.75 L 103477.1 17999.4 L 95519.1 17999.4 Q 95575.45 20217.75 96455.2 21264.25 Q 97334.95 22310.75 99070.3 22310.75 Q 99657.95 22310.75 100158.2 22253.25 Q 100658.45 22195.75 101124.2 22086.5 Q 101589.95 21977.25 102026.95 21810.5 Q 102463.95 21643.75 102911.3 21436.75 L 102911.3 23299.75 Q 102451.3 23519.4 102008.55 23680.4 Q 101565.8 23841.4 101100.05 23944.9 Q 100634.3 24048.4 100134.05 24094.4 Q 99633.8 24140.4 99046.15 24140.4 L 99049.6 24140.4 Z M 98533.25 12788.75 Q 97222.25 12788.75 96457.5 13685.75 Q 95692.75 14582.75 95567.4 16297.4 L 101225.4 16297.4 Q 101225.4 15515.4 101070.15 14865.65 Q 100914.9 14215.9 100587.15 13755.9 Q 100259.4 13295.9 99753.4 13042.9 Q 99247.4 12789.9 98534.4 12789.9 L 98533.25 12788.75 Z M 110018.25 11053.4 Q 110350.6 11053.4 110764.6 11082.15 Q 111178.6 11110.9 111477.6 11169.55 L 111201.6 13101.55 Q 110879.6 13042.9 110540.35 13002.65 Q 110201.1 12962.4 109902.1 12962.4 Q 109176.45 12962.4 108578.45 13255.65 Q 107980.45 13548.9 107549.2 14095.15 Q 107117.95 14641.4 106882.2 15406.15 Q 106646.45 16170.9 106646.45 17103.55 L 106646.45 23911.55 L 104553.45 23911.55 L 104553.45 11284.55 L 106255.45 11284.55 L 106508.45 13594.9 L 106600.45 13594.9 Q 106889.1 13101.55 107216.85 12641.55 Q 107544.6 12181.55 107952.85 11830.8 Q 108361.1 11480.05 108867.1 11267.3 Q 109373.1 11054.55 110017.1 11054.55 L 110018.25 11053.4 Z M 120912 24140.4 Q 119647 24140.4 118600.5 23714.9 Q 117554 23289.4 116800.75 22472.9 Q 116047.5 21656.4 115633.5 20448.9 Q 115219.5 19241.4 115219.5 17687.75 Q 115219.5 16123.75 115599 14893.25 Q 115978.5 13662.75 116668.5 12806 Q 117358.5 11949.25 118318.75 11500.75 Q 119279 11052.25 120441.65 11052.25 Q 121579 11052.25 122487.5 11460.5 Q 123396 11868.75 124028.5 12610.5 Q 124661 13352.25 125000.25 14393 Q 125339.5 15433.75 125339.5 16698.75 L 125339.5 17999.4 L 117381.5 17999.4 Q 117437.85 20217.75 118317.6 21264.25 Q 119197.35 22310.75 120932.7 22310.75 Q 121520.35 22310.75 122020.6 22253.25 Q 122520.85 22195.75 122986.6 22086.5 Q 123452.35 21977.25 123889.35 21810.5 Q 124326.35 21643.75 124773.7 21436.75 L 124773.7 23299.75 Q 124313.7 23519.4 123870.95 23680.4 Q 123428.2 23841.4 122962.45 23944.9 Q 122496.7 24048.4 121996.45 24094.4 Q 121496.2 24140.4 120908.55 24140.4 L 120912 24140.4 Z M 120395.65 12788.75 Q 119084.65 12788.75 118319.9 13685.75 Q 117555.15 14582.75 117429.8 16297.4 L 123087.8 16297.4 Q 123087.8 15515.4 122932.55 14865.65 Q 122777.3 14215.9 122449.55 13755.9 Q 122121.8 13295.9 121615.8 13042.9 Q 121109.8 12789.9 120396.8 12789.9 L 120395.65 12788.75 Z M 134306 23910.4 L 134306 15778.75 Q 134306 14283.75 133702.25 13536.25 Q 133098.5 12788.75 131810.5 12788.75 Q 130877.85 12788.75 130245.35 13087.75 Q 129612.85 13386.75 129227.6 13973.25 Q 128842.35 14559.75 128675.6 15410.75 Q 128508.85 16261.75 128508.85 17365.75 L 128508.85 23910.4 L 126415.85 23910.4 L 126415.85 11283.4 L 128117.85 11283.4 L 128416.85 12985.4 L 128531.85 12985.4 Q 128820.5 12489.75 129217.25 12127.5 Q 129614 11765.25 130085.5 11523.75 Q 130557 11282.25 131086 11167.25 Q 131615 11052.25 132167 11052.25 Q 134272.65 11052.25 135336.4 12150.5 Q 136400.15 13248.75 136400.15 15663.75 L 136400.15 23910.4 L 134307.15 23910.4 L 134306 23910.4 Z M 143023 24140.4 Q 141862.65 24140.4 140850.65 23778.15 Q 139838.65 23415.9 139091.15 22628.15 Q 138343.65 21840.4 137918.15 20615.65 Q 137492.65 19390.9 137492.65 17665.9 Q 137492.65 15861.55 137929.65 14602.3 Q 138366.65 13343.05 139131.4 12555.3 Q 139896.15 11767.55 140919.65 11411.05 Q 141943.15 11054.55 143116.15 11054.55 Q 144013.15 11054.55 144869.9 11250.05 Q 145726.65 11445.55 146301.65 11731.9 L 145680.65 13502.9 Q 145415 13387.9 145093 13278.65 Q 144771 13169.4 144426 13083.15 Q 144081 12996.9 143747.5 12945.15 Q 143414 12893.4 143115 12893.4 Q 141310.65 12893.4 140482.65 14049.15 Q 139654.65 15204.9 139654.65 17642.9 Q 139654.65 20070.55 140488.4 21191.8 Q 141322.15 22313.05 143024.15 22313.05 Q 143956.8 22313.05 144710.05 22100.3 Q 145463.3 21887.55 146084.3 21598.9 L 146084.3 23461.9 Q 145463.3 23796.55 144756.05 23969.05 Q 144048.8 24141.55 143024.15 24141.55 L 143023 24140.4 Z M 155177.05 23910.4 L 154865.4 22218.75 L 154750.4 22218.75 Q 154464.05 22714.4 154067.3 23076.65 Q 153670.55 23438.9 153199.05 23674.65 Q 152727.55 23910.4 152198.55 24025.4 Q 151669.55 24140.4 151117.55 24140.4 Q 150072.2 24140.4 149278.7 23875.9 Q 148485.2 23611.4 147956.2 23047.9 Q 147427.2 22484.4 147156.95 21610.4 Q 146886.7 20736.4 146886.7 19527.75 L 146886.7 11283.4 L 148979.7 11283.4 L 148979.7 19412.75 Q 148979.7 20907.75 149589.2 21655.25 Q 150198.7 22402.75 151476.35 22402.75 Q 152406.7 22402.75 153039.2 22103.75 Q 153671.7 21804.75 154056.95 21224 Q 154442.2 20643.25 154608.95 19792.25 Q 154775.7 18941.25 154775.7 17837.25 L 154775.7 11282.25 L 156868.7 11282.25 L 156868.7 23909.25 L 155179.35 23909.25 L 155177.05 23910.4 Z M 163766.4 24140.4 Q 162501.4 24140.4 161454.9 23714.9 Q 160408.4 23289.4 159655.15 22472.9 Q 158901.9 21656.4 158487.9 20448.9 Q 158073.9 19241.4 158073.9 17687.75 Q 158073.9 16123.75 158453.4 14893.25 Q 158832.9 13662.75 159522.9 12806 Q 160212.9 11949.25 161173.15 11500.75 Q 162133.4 11052.25 163296.05 11052.25 Q 164433.4 11052.25 165341.9 11460.5 Q 166250.4 11868.75 166882.9 12610.5 Q 167515.4 13352.25 167854.65 14393 Q 168193.9 15433.75 168193.9 16698.75 L 168193.9 17999.4 L 160235.9 17999.4 Q 160292.25 20217.75 161172 21264.25 Q 162051.75 22310.75 163787.1 22310.75 Q 164374.75 22310.75 164875 22253.25 Q 165375.25 22195.75 165841 22086.5 Q 166306.75 21977.25 166743.75 21810.5 Q 167180.75 21643.75 167628.1 21436.75 L 167628.1 23299.75 Q 167168.1 23519.4 166725.35 23680.4 Q 166282.6 23841.4 165816.85 23944.9 Q 165351.1 24048.4 164850.85 24094.4 Q 164350.6 24140.4 163762.95 24140.4 L 163766.4 24140.4 Z M 163250.05 12788.75 Q 161939.05 12788.75 161174.3 13685.75 Q 160409.55 14582.75 160284.2 16297.4 L 165942.2 16297.4 Q 165942.2 15515.4 165786.95 14865.65 Q 165631.7 14215.9 165303.95 13755.9 Q 164976.2 13295.9 164470.2 13042.9 Q 163964.2 12789.9 163251.2 12789.9 L 163250.05 12788.75 Z M 177160.4 23910.4 L 177160.4 15778.75 Q 177160.4 14283.75 176556.65 13536.25 Q 175952.9 12788.75 174664.9 12788.75 Q 173732.25 12788.75 173099.75 13087.75 Q 172467.25 13386.75 172082 13973.25 Q 171696.75 14559.75 171530 15410.75 Q 171363.25 16261.75 171363.25 17365.75 L 171363.25 23910.4 L 169270.25 23910.4 L 169270.25 11283.4 L 170972.25 11283.4 L 171271.25 12985.4 L 171386.25 12985.4 Q 171674.9 12489.75 172071.65 12127.5 Q 172468.4 11765.25 172939.9 11523.75 Q 173411.4 11282.25 173940.4 11167.25 Q 174469.4 11052.25 175021.4 11052.25 Q 177127.05 11052.25 178190.8 12150.5 Q 179254.55 13248.75 179254.55 15663.75 L 179254.55 23910.4 L 177161.55 23910.4 L 177160.4 23910.4 Z M 184865.4 22425.75 Q 185072.4 22425.75 185331.15 22402.75 Q 185589.9 22379.75 185831.4 22345.25 Q 186072.9 22310.75 186274.15 22264.75 Q 186475.4 22218.75 186580.05 22185.4 L 186580.05 23772.4 Q 186429.4 23841.4 186199.4 23910.4 Q 185969.4 23979.4 185693.4 24031.15 Q 185417.4 24082.9 185118.4 24111.65 Q 184819.4 24140.4 184533.05 24140.4 Q 183820.05 24140.4 183210.55 23956.4 Q 182601.05 23772.4 182158.3 23323.9 Q 181715.55 22875.4 181462.55 22110.65 Q 181209.55 21345.9 181209.55 20185.55 L 181209.55 12858.9 L 179428.2 12858.9 L 179428.2 11928.55 L 181209.55 11031.55 L 182106.55 8386.55 L 183315.2 8386.55 L 183315.2 11284.55 L 186489.2 11284.55 L 186489.2 12858.9 L 183315.2 12858.9 L 183315.2 20185.55 Q 183315.2 21299.9 183677.45 21863.4 Q 184039.7 22426.9 184867.7 22426.9 L 184865.4 22425.75 Z M 192399.05 11053.4 Q 192731.4 11053.4 193145.4 11082.15 Q 193559.4 11110.9 193858.4 11169.55 L 193582.4 13101.55 Q 193260.4 13042.9 192921.15 13002.65 Q 192581.9 12962.4 192282.9 12962.4 Q 191557.25 12962.4 190959.25 13255.65 Q 190361.25 13548.9 189930 14095.15 Q 189498.75 14641.4 189263 15406.15 Q 189027.25 16170.9 189027.25 17103.55 L 189027.25 23911.55 L 186934.25 23911.55 L 186934.25 11284.55 L 188636.25 11284.55 L 188889.25 13594.9 L 188981.25 13594.9 Q 189269.9 13101.55 189597.65 12641.55 Q 189925.4 12181.55 190333.65 11830.8 Q 190741.9 11480.05 191247.9 11267.3 Q 191753.9 11054.55 192397.9 11054.55 L 192399.05 11053.4 Z M 204601.85 17572.75 Q 204601.85 19149.4 204216.6 20374.15 Q 203831.35 21598.9 203112.6 22432.65 Q 202393.85 23266.4 201370.35 23703.4 Q 200346.85 24140.4 199069.2 24140.4 Q 197885.85 24140.4 196885.35 23703.4 Q 195884.85 23266.4 195154.6 22432.65 Q 194424.35 21598.9 194016.1 20374.15 Q 193607.85 19149.4 193607.85 17572.75 Q 193607.85 16008.75 193993.1 14795.5 Q 194378.35 13582.25 195091.35 12748.5 Q 195804.35 11914.75 196833.6 11483.5 Q 197862.85 11052.25 199138.2 11052.25 Q 200323.85 11052.25 201324.35 11483.5 Q 202324.85 11914.75 203055.1 12748.5 Q 203785.35 13582.25 204193.6 14795.5 Q 204601.85 16008.75 204601.85 17572.75  Z M 195769.85 17572.75 Q 195769.85 19977.4 196557.6 21190.65 Q 197345.35 22403.9 199116.35 22403.9 Q 200887.35 22403.9 201663.6 21190.65 Q 202439.85 19977.4 202439.85 17572.75 Q 202439.85 15170.4 201652.1 13980.15 Q 200864.35 12789.9 199093.35 12789.9 Q 197322.35 12789.9 196546.1 13980.15 Q 195769.85 15170.4 195769.85 17572.75  Z M 205570.05 22632.75 Q 205570.05 22195.75 205685.05 21891 Q 205800.05 21586.25 205995.55 21396.5 Q 206191.05 21206.75 206455.55 21120.5 Q 206720.05 21034.25 207029.4 21034.25 Q 207328.4 21034.25 207598.65 21120.5 Q 207868.9 21206.75 208064.4 21396.5 Q 208259.9 21586.25 208374.9 21891 Q 208489.9 22195.75 208489.9 22632.75 Q 208489.9 23059.4 208374.9 23364.15 Q 208259.9 23668.9 208064.4 23865.55 Q 207868.9 24062.2 207598.65 24154.2 Q 207328.4 24246.2 207029.4 24246.2 Q 206720.05 24246.2 206455.55 24154.2 Q 206191.05 24062.2 205995.55 23865.55 Q 205800.05 23668.9 205685.05 23364.15 Q 205570.05 23059.4 205570.05 22632.75  Z M 209768.45 22632.75 Q 209768.45 22195.75 209883.45 21891 Q 209998.45 21586.25 210193.95 21396.5 Q 210389.45 21206.75 210653.95 21120.5 Q 210918.45 21034.25 211227.8 21034.25 Q 211526.8 21034.25 211797.05 21120.5 Q 212067.3 21206.75 212262.8 21396.5 Q 212458.3 21586.25 212573.3 21891 Q 212688.3 22195.75 212688.3 22632.75 Q 212688.3 23059.4 212573.3 23364.15 Q 212458.3 23668.9 212262.8 23865.55 Q 212067.3 24062.2 211797.05 24154.2 Q 211526.8 24246.2 211227.8 24246.2 Q 210918.45 24246.2 210653.95 24154.2 Q 210389.45 24062.2 210193.95 23865.55 Q 209998.45 23668.9 209883.45 23364.15 Q 209768.45 23059.4 209768.45 22632.75  Z M 213966.85 22632.75 Q 213966.85 22195.75 214081.85 21891 Q 214196.85 21586.25 214392.35 21396.5 Q 214587.85 21206.75 214852.35 21120.5 Q 215116.85 21034.25 215426.2 21034.25 Q 215725.2 21034.25 215995.45 21120.5 Q 216265.7 21206.75 216461.2 21396.5 Q 216656.7 21586.25 216771.7 21891 Q 216886.7 22195.75 216886.7 22632.75 Q 216886.7 23059.4 216771.7 23364.15 Q 216656.7 23668.9 216461.2 23865.55 Q 216265.7 24062.2 215995.45 24154.2 Q 215725.2 24246.2 215426.2 24246.2 Q 215116.85 24246.2 214852.35 24154.2 Q 214587.85 24062.2 214392.35 23865.55 Q 214196.85 23668.9 214081.85 23364.15 Q 213966.85 23059.4 213966.85 22632.75  Z " fill-rule="nonzero" style="fill:#e01000;;fill-opacity:1;"/>
</svg>