<svg version="1.1" x="0" y="0" width="100%" height="100%" viewBox="0 0 127385.6 32716.8" xmlns="http://www.w3.org/2000/svg">
  <path d="M 13544 24832 L 4437.2 24832 L 4437.2 7288 L 13544 7288 L 13544 9256 L 6669.2 9256 L 6669.2 14680 L 13088 14680 L 13088 16624 L 6669.2 16624 L 6669.2 22864 L 13544 22864 L 13544 24832 Z M 24297.6 24832 L 24297.6 16346.8 Q 24297.6 14786.8 23667.6 14006.8 Q 23037.6 13226.8 21693.6 13226.8 Q 20720.4 13226.8 20060.4 13538.8 Q 19400.4 13850.8 18998.4 14462.8 Q 18596.4 15074.8 18422.4 15962.8 Q 18248.4 16850.8 18248.4 18002.8 L 18248.4 24832 L 16064.4 24832 L 16064.4 11656 L 17840.4 11656 L 18152.4 13432 L 18272.4 13432 Q 18573.6 12914.8 18987.6 12536.8 Q 19401.6 12158.8 19893.6 11906.8 Q 20385.6 11654.8 20937.6 11534.8 Q 21489.6 11414.8 22065.6 11414.8 Q 24262.8 11414.8 25372.8 12560.8 Q 26482.8 13706.8 26482.8 16226.8 L 26482.8 24832 L 24298.8 24832 L 24297.6 24832 Z M 35205.2 13298.8 L 32264 13298.8 L 32264 24832 L 30069.2 24832 L 30069.2 13298.8 L 27741.2 13298.8 L 27741.2 12400 L 30069.2 11584 L 30069.2 10432 Q 30069.2 9146.8 30339.2 8300.8 Q 30609.2 7454.8 31119.2 6950.8 Q 31629.2 6446.8 32373.2 6236.8 Q 33117.2 6026.8 34053.2 6026.8 Q 34760 6026.8 35354 6164.8 Q 35948 6302.8 36414.8 6470.8 L 35852 8161.6 Q 35478.8 8030.8 35040.8 7928.8 Q 34602.8 7826.8 34122.8 7826.8 Q 33642.8 7826.8 33294.8 7940.8 Q 32946.8 8054.8 32718.8 8342.8 Q 32490.8 8630.8 32376.8 9128.8 Q 32262.8 9626.8 32262.8 10408 L 32262.8 11656 L 35204 11656 L 35204 13298.8 L 35205.2 13298.8 Z M 47235.6 18218.8 Q 47235.6 19864 46833.6 21142 Q 46431.6 22420 45681.6 23290 Q 44931.6 24160 43863.6 24616 Q 42795.6 25072 41462.4 25072 Q 40227.6 25072 39183.6 24616 Q 38139.6 24160 37377.6 23290 Q 36615.6 22420 36189.6 21142 Q 35763.6 19864 35763.6 18218.8 Q 35763.6 16586.8 36165.6 15320.8 Q 36567.6 14054.8 37311.6 13184.8 Q 38055.6 12314.8 39129.6 11864.8 Q 40203.6 11414.8 41534.4 11414.8 Q 42771.6 11414.8 43815.6 11864.8 Q 44859.6 12314.8 45621.6 13184.8 Q 46383.6 14054.8 46809.6 15320.8 Q 47235.6 16586.8 47235.6 18218.8  Z M 38019.6 18218.8 Q 38019.6 20728 38841.6 21994 Q 39663.6 23260 41511.6 23260 Q 43359.6 23260 44169.6 21994 Q 44979.6 20728 44979.6 18218.8 Q 44979.6 15712 44157.6 14470 Q 43335.6 13228 41487.6 13228 Q 39639.6 13228 38829.6 14470 Q 38019.6 15712 38019.6 18218.8  Z M 54346 23258.8 Q 55258 23258.8 55888 22982.8 Q 56518 22706.8 56908 22142.8 Q 57298 21578.8 57484 20732.8 Q 57670 19886.8 57694 18758.8 L 57694 18265.6 Q 57694 17054.8 57532 16112.8 Q 57370 15170.8 56980 14528.8 Q 56590 13886.8 55942 13556.8 Q 55294 13226.8 54323.2 13226.8 Q 52702 13226.8 51940 14534.8 Q 51178 15842.8 51178 18290.8 Q 51178 20800 51940 22030 Q 52702 23260 54347.2 23260 L 54346 23258.8 Z M 53924.8 25072 Q 52810 25072 51886 24640 Q 50962 24208 50302 23350 Q 49642 22492 49282 21220 Q 48922 19948 48922 18268 Q 48922 16577.2 49282 15299.2 Q 49642 14021.2 50302 13157.2 Q 50962 12293.2 51886 11855.2 Q 52810 11417.2 53924.8 11417.2 Q 54634 11417.2 55210 11579.2 Q 55786 11741.2 56242 12011.2 Q 56698 12281.2 57058 12647.2 Q 57418 13013.2 57692.8 13434.4 L 57788.8 13434.4 L 58114 11658.4 L 59876.8 11658.4 L 59876.8 30738.4 L 57692.8 30738.4 L 57692.8 25111.6 Q 57692.8 24882.4 57716.8 24534.4 Q 57740.8 24186.4 57764.8 23861.2 Q 57802 23477.2 57836.8 23069.2 L 57692.8 23069.2 Q 57428.8 23477.2 57074.8 23843.2 Q 56720.8 24209.2 56258.8 24485.2 Q 55796.8 24761.2 55220.8 24917.2 Q 54644.8 25073.2 53924.8 25073.2 L 53924.8 25072 Z M 71600.4 24832 L 71275.2 23066.8 L 71155.2 23066.8 Q 70856.4 23584 70442.4 23962 Q 70028.4 24340 69536.4 24586 Q 69044.4 24832 68492.4 24952 Q 67940.4 25072 67364.4 25072 Q 66273.6 25072 65445.6 24796 Q 64617.6 24520 64065.6 23932 Q 63513.6 23344 63231.6 22432 Q 62949.6 21520 62949.6 20258.8 L 62949.6 11656 L 65133.6 11656 L 65133.6 20138.8 Q 65133.6 21698.8 65769.6 22478.8 Q 66405.6 23258.8 67738.8 23258.8 Q 68709.6 23258.8 69369.6 22946.8 Q 70029.6 22634.8 70431.6 22028.8 Q 70833.6 21422.8 71007.6 20534.8 Q 71181.6 19646.8 71181.6 18494.8 L 71181.6 11654.8 L 73365.6 11654.8 L 73365.6 24830.8 L 71602.8 24830.8 L 71600.4 24832 Z M 81689.6 25072 Q 80369.6 25072 79277.6 24628 Q 78185.6 24184 77399.6 23332 Q 76613.6 22480 76181.6 21220 Q 75749.6 19960 75749.6 18338.8 Q 75749.6 16706.8 76145.6 15422.8 Q 76541.6 14138.8 77261.6 13244.8 Q 77981.6 12350.8 78983.6 11882.8 Q 79985.6 11414.8 81198.8 11414.8 Q 82385.6 11414.8 83333.6 11840.8 Q 84281.6 12266.8 84941.6 13040.8 Q 85601.6 13814.8 85955.6 14900.8 Q 86309.6 15986.8 86309.6 17306.8 L 86309.6 18664 L 78005.6 18664 Q 78064.4 20978.8 78982.4 22070.8 Q 79900.4 23162.8 81711.2 23162.8 Q 82324.4 23162.8 82846.4 23102.8 Q 83368.4 23042.8 83854.4 22928.8 Q 84340.4 22814.8 84796.4 22640.8 Q 85252.4 22466.8 85719.2 22250.8 L 85719.2 24194.8 Q 85239.2 24424 84777.2 24592 Q 84315.2 24760 83829.2 24868 Q 83343.2 24976 82821.2 25024 Q 82299.2 25072 81686 25072 L 81689.6 25072 Z M 81150.8 13226.8 Q 79782.8 13226.8 78984.8 14162.8 Q 78186.8 15098.8 78056 16888 L 83960 16888 Q 83960 16072 83798 15394 Q 83636 14716 83294 14236 Q 82952 13756 82424 13492 Q 81896 13228 81152 13228 L 81150.8 13226.8 Z " fill-rule="nonzero" style="fill:#273339;;fill-opacity:1;"/>
</svg>