<svg version="1.1" x="0" y="0" width="100%" height="100%" viewBox="0 0 256512 62361.6" xmlns="http://www.w3.org/2000/svg">
  <path d="M 53058 24832 L 51138 19394.8 L 44596.8 19394.8 L 42652.8 24832 L 40396.8 24832 L 46842 7216 L 48882 7216 L 55338 24832 L 53058 24832 Z M 50428.8 17416 L 48652.8 12328 Q 48580.8 12112 48478.8 11800 Q 48376.8 11488 48268.8 11128 Q 48160.8 10768 48052.8 10378 Q 47944.8 9988 47848.8 9617.2 Q 47763.6 9988 47655.6 10384 Q 47547.6 10780 47439.6 11146 Q 47331.6 11512 47229.6 11818 Q 47127.6 12124 47055.6 12329.2 L 45314.4 17417.2 L 50426.4 17417.2 L 50428.8 17416 Z M 60376 25072 Q 59165.2 25072 58109.2 24694 Q 57053.2 24316 56273.2 23494 Q 55493.2 22672 55049.2 21394 Q 54605.2 20116 54605.2 18316 Q 54605.2 16433.2 55061.2 15119.2 Q 55517.2 13805.2 56315.2 12983.2 Q 57113.2 12161.2 58181.2 11789.2 Q 59249.2 11417.2 60473.2 11417.2 Q 61409.2 11417.2 62303.2 11621.2 Q 63197.2 11825.2 63797.2 12124 L 63149.2 13972 Q 62872 13852 62536 13738 Q 62200 13624 61840 13534 Q 61480 13444 61132 13390 Q 60784 13336 60472 13336 Q 58589.2 13336 57725.2 14542 Q 56861.2 15748 56861.2 18292 Q 56861.2 20825.2 57731.2 21995.2 Q 58601.2 23165.2 60377.2 23165.2 Q 61350.4 23165.2 62136.4 22943.2 Q 62922.4 22721.2 63570.4 22420 L 63570.4 24364 Q 62922.4 24713.2 62184.4 24893.2 Q 61446.4 25073.2 60377.2 25073.2 L 60376 25072 Z M 69694.4 25072 Q 68483.6 25072 67427.6 24694 Q 66371.6 24316 65591.6 23494 Q 64811.6 22672 64367.6 21394 Q 63923.6 20116 63923.6 18316 Q 63923.6 16433.2 64379.6 15119.2 Q 64835.6 13805.2 65633.6 12983.2 Q 66431.6 12161.2 67499.6 11789.2 Q 68567.6 11417.2 69791.6 11417.2 Q 70727.6 11417.2 71621.6 11621.2 Q 72515.6 11825.2 73115.6 12124 L 72467.6 13972 Q 72190.4 13852 71854.4 13738 Q 71518.4 13624 71158.4 13534 Q 70798.4 13444 70450.4 13390 Q 70102.4 13336 69790.4 13336 Q 67907.6 13336 67043.6 14542 Q 66179.6 15748 66179.6 18292 Q 66179.6 20825.2 67049.6 21995.2 Q 67919.6 23165.2 69695.6 23165.2 Q 70668.8 23165.2 71454.8 22943.2 Q 72240.8 22721.2 72888.8 22420 L 72888.8 24364 Q 72240.8 24713.2 71502.8 24893.2 Q 70764.8 25073.2 69695.6 25073.2 L 69694.4 25072 Z M 79180.8 25072 Q 77860.8 25072 76768.8 24628 Q 75676.8 24184 74890.8 23332 Q 74104.8 22480 73672.8 21220 Q 73240.8 19960 73240.8 18338.8 Q 73240.8 16706.8 73636.8 15422.8 Q 74032.8 14138.8 74752.8 13244.8 Q 75472.8 12350.8 76474.8 11882.8 Q 77476.8 11414.8 78690 11414.8 Q 79876.8 11414.8 80824.8 11840.8 Q 81772.8 12266.8 82432.8 13040.8 Q 83092.8 13814.8 83446.8 14900.8 Q 83800.8 15986.8 83800.8 17306.8 L 83800.8 18664 L 75496.8 18664 Q 75555.6 20978.8 76473.6 22070.8 Q 77391.6 23162.8 79202.4 23162.8 Q 79815.6 23162.8 80337.6 23102.8 Q 80859.6 23042.8 81345.6 22928.8 Q 81831.6 22814.8 82287.6 22640.8 Q 82743.6 22466.8 83210.4 22250.8 L 83210.4 24194.8 Q 82730.4 24424 82268.4 24592 Q 81806.4 24760 81320.4 24868 Q 80834.4 24976 80312.4 25024 Q 79790.4 25072 79177.2 25072 L 79180.8 25072 Z M 78642 13226.8 Q 77274 13226.8 76476 14162.8 Q 75678 15098.8 75547.2 16888 L 81451.2 16888 Q 81451.2 16072 81289.2 15394 Q 81127.2 14716 80785.2 14236 Q 80443.2 13756 79915.2 13492 Q 79387.2 13228 78643.2 13228 L 78642 13226.8 Z M 92866 21218.8 Q 92866 22178.8 92518 22898.8 Q 92170 23618.8 91516 24104.8 Q 90862 24590.8 89938 24830.8 Q 89014 25070.8 87862 25070.8 Q 86555.2 25070.8 85619.2 24860.8 Q 84683.2 24650.8 83974 24242.8 L 83974 22250.8 Q 84347.2 22442.8 84803.2 22628.8 Q 85259.2 22814.8 85763.2 22958.8 Q 86267.2 23102.8 86801.2 23192.8 Q 87335.2 23282.8 87863.2 23282.8 Q 88644.4 23282.8 89190.4 23150.8 Q 89736.4 23018.8 90078.4 22772.8 Q 90420.4 22526.8 90576.4 22172.8 Q 90732.4 21818.8 90732.4 21386.8 Q 90732.4 21016 90612.4 20716 Q 90492.4 20416 90174.4 20122 Q 89856.4 19828 89304.4 19528 Q 88752.4 19228 87888.4 18857.2 Q 87024.4 18484 86334.4 18124 Q 85644.4 17764 85164.4 17320 Q 84684.4 16876 84426.4 16294 Q 84168.4 15712 84168.4 14906.8 Q 84168.4 14066.8 84498.4 13412.8 Q 84828.4 12758.8 85428.4 12314.8 Q 86028.4 11870.8 86868.4 11642.8 Q 87708.4 11414.8 88740.4 11414.8 Q 89903.2 11414.8 90869.2 11666.8 Q 91835.2 11918.8 92699.2 12326.8 L 91942 14089.6 Q 91163.2 13742.8 90341.2 13484.8 Q 89519.2 13226.8 88668.4 13226.8 Q 87444.4 13226.8 86856.4 13628.8 Q 86268.4 14030.8 86268.4 14774.8 Q 86268.4 15193.6 86406.4 15505.6 Q 86544.4 15817.6 86880.4 16093.6 Q 87216.4 16369.6 87780.4 16651.6 Q 88344.4 16933.6 89184.4 17280.4 Q 90048.4 17640.4 90726.4 18000.4 Q 91404.4 18360.4 91884.4 18810.4 Q 92364.4 19260.4 92616.4 19836.4 Q 92868.4 20412.4 92868.4 21215.2 L 92866 21218.8 Z M 104733.2 18218.8 Q 104733.2 19864 104331.2 21142 Q 103929.2 22420 103179.2 23290 Q 102429.2 24160 101361.2 24616 Q 100293.2 25072 98960 25072 Q 97725.2 25072 96681.2 24616 Q 95637.2 24160 94875.2 23290 Q 94113.2 22420 93687.2 21142 Q 93261.2 19864 93261.2 18218.8 Q 93261.2 16586.8 93663.2 15320.8 Q 94065.2 14054.8 94809.2 13184.8 Q 95553.2 12314.8 96627.2 11864.8 Q 97701.2 11414.8 99032 11414.8 Q 100269.2 11414.8 101313.2 11864.8 Q 102357.2 12314.8 103119.2 13184.8 Q 103881.2 14054.8 104307.2 15320.8 Q 104733.2 16586.8 104733.2 18218.8  Z M 95517.2 18218.8 Q 95517.2 20728 96339.2 21994 Q 97161.2 23260 99009.2 23260 Q 100857.2 23260 101667.2 21994 Q 102477.2 20728 102477.2 18218.8 Q 102477.2 15712 101655.2 14470 Q 100833.2 13228 98985.2 13228 Q 97137.2 13228 96327.2 14470 Q 95517.2 15712 95517.2 18218.8  Z M 117805.2 24832 L 117360 23008 L 117264 23008 Q 116869.2 23546.8 116473.2 23936.8 Q 116077.2 24326.8 115609.2 24578.8 Q 115141.2 24830.8 114565.2 24950.8 Q 113989.2 25070.8 113232 25070.8 Q 112405.2 25070.8 111709.2 24836.8 Q 111013.2 24602.8 110503.2 24116.8 Q 109993.2 23630.8 109705.2 22892.8 Q 109417.2 22154.8 109417.2 21146.8 Q 109417.2 19178.8 110803.2 18122.8 Q 112189.2 17066.8 115021.2 16970.8 L 117229.2 16888 L 117229.2 16058.8 Q 117229.2 15256 117055.2 14716 Q 116881.2 14176 116551.2 13846 Q 116221.2 13516 115735.2 13372 Q 115249.2 13228 114625.2 13228 Q 113630.4 13228 112772.4 13516 Q 111914.4 13804 111122.4 14212 L 110354.4 12569.2 Q 111242.4 12089.2 112334.4 11753.2 Q 113426.4 11417.2 114626.4 11417.2 Q 115850.4 11417.2 116744.4 11663.2 Q 117638.4 11909.2 118220.4 12443.2 Q 118802.4 12977.2 119090.4 13805.2 Q 119378.4 14633.2 119378.4 15809.2 L 119378.4 24833.2 L 117807.6 24833.2 L 117805.2 24832 Z M 113797.2 23306.8 Q 114528 23306.8 115152 23078.8 Q 115776 22850.8 116232 22388.8 Q 116688 21926.8 116946 21224.8 Q 117204 20522.8 117204 19576 L 117204 18386.8 L 115486.8 18472 Q 114406.8 18520 113674.8 18712 Q 112942.8 18904 112504.8 19246 Q 112066.8 19588 111874.8 20074 Q 111682.8 20560 111682.8 21170.8 Q 111682.8 22274.8 112264.8 22790.8 Q 112846.8 23306.8 113796 23306.8 L 113797.2 23306.8 Z M 131232.4 11416 Q 131579.2 11416 132011.2 11446 Q 132443.2 11476 132755.2 11537.2 L 132467.2 13553.2 Q 132131.2 13492 131777.2 13450 Q 131423.2 13408 131111.2 13408 Q 130354 13408 129730 13714 Q 129106 14020 128656 14590 Q 128206 15160 127960 15958 Q 127714 16756 127714 17729.2 L 127714 24833.2 L 125530 24833.2 L 125530 11657.2 L 127306 11657.2 L 127570 14068 L 127666 14068 Q 127967.2 13553.2 128309.2 13073.2 Q 128651.2 12593.2 129077.2 12227.2 Q 129503.2 11861.2 130031.2 11639.2 Q 130559.2 11417.2 131231.2 11417.2 L 131232.4 11416 Z M 138521.6 25072 Q 137201.6 25072 136109.6 24628 Q 135017.6 24184 134231.6 23332 Q 133445.6 22480 133013.6 21220 Q 132581.6 19960 132581.6 18338.8 Q 132581.6 16706.8 132977.6 15422.8 Q 133373.6 14138.8 134093.6 13244.8 Q 134813.6 12350.8 135815.6 11882.8 Q 136817.6 11414.8 138030.8 11414.8 Q 139217.6 11414.8 140165.6 11840.8 Q 141113.6 12266.8 141773.6 13040.8 Q 142433.6 13814.8 142787.6 14900.8 Q 143141.6 15986.8 143141.6 17306.8 L 143141.6 18664 L 134837.6 18664 Q 134896.4 20978.8 135814.4 22070.8 Q 136732.4 23162.8 138543.2 23162.8 Q 139156.4 23162.8 139678.4 23102.8 Q 140200.4 23042.8 140686.4 22928.8 Q 141172.4 22814.8 141628.4 22640.8 Q 142084.4 22466.8 142551.2 22250.8 L 142551.2 24194.8 Q 142071.2 24424 141609.2 24592 Q 141147.2 24760 140661.2 24868 Q 140175.2 24976 139653.2 25024 Q 139131.2 25072 138518 25072 L 138521.6 25072 Z M 137982.8 13226.8 Q 136614.8 13226.8 135816.8 14162.8 Q 135018.8 15098.8 134888 16888 L 140792 16888 Q 140792 16072 140630 15394 Q 140468 14716 140126 14236 Q 139784 13756 139256 13492 Q 138728 13228 137984 13228 L 137982.8 13226.8 Z M 149361.6 25072 Q 148150.8 25072 147094.8 24694 Q 146038.8 24316 145258.8 23494 Q 144478.8 22672 144034.8 21394 Q 143590.8 20116 143590.8 18316 Q 143590.8 16433.2 144046.8 15119.2 Q 144502.8 13805.2 145300.8 12983.2 Q 146098.8 12161.2 147166.8 11789.2 Q 148234.8 11417.2 149458.8 11417.2 Q 150394.8 11417.2 151288.8 11621.2 Q 152182.8 11825.2 152782.8 12124 L 152134.8 13972 Q 151857.6 13852 151521.6 13738 Q 151185.6 13624 150825.6 13534 Q 150465.6 13444 150117.6 13390 Q 149769.6 13336 149457.6 13336 Q 147574.8 13336 146710.8 14542 Q 145846.8 15748 145846.8 18292 Q 145846.8 20825.2 146716.8 21995.2 Q 147586.8 23165.2 149362.8 23165.2 Q 150336 23165.2 151122 22943.2 Q 151908 22721.2 152556 22420 L 152556 24364 Q 151908 24713.2 151170 24893.2 Q 150432 25073.2 149362.8 25073.2 L 149361.6 25072 Z M 162173.2 24832 L 161848 23066.8 L 161728 23066.8 Q 161429.2 23584 161015.2 23962 Q 160601.2 24340 160109.2 24586 Q 159617.2 24832 159065.2 24952 Q 158513.2 25072 157937.2 25072 Q 156846.4 25072 156018.4 24796 Q 155190.4 24520 154638.4 23932 Q 154086.4 23344 153804.4 22432 Q 153522.4 21520 153522.4 20258.8 L 153522.4 11656 L 155706.4 11656 L 155706.4 20138.8 Q 155706.4 21698.8 156342.4 22478.8 Q 156978.4 23258.8 158311.6 23258.8 Q 159282.4 23258.8 159942.4 22946.8 Q 160602.4 22634.8 161004.4 22028.8 Q 161406.4 21422.8 161580.4 20534.8 Q 161754.4 19646.8 161754.4 18494.8 L 161754.4 11654.8 L 163938.4 11654.8 L 163938.4 24830.8 L 162175.6 24830.8 L 162173.2 24832 Z M 171731.6 11416 Q 172078.4 11416 172510.4 11446 Q 172942.4 11476 173254.4 11537.2 L 172966.4 13553.2 Q 172630.4 13492 172276.4 13450 Q 171922.4 13408 171610.4 13408 Q 170853.2 13408 170229.2 13714 Q 169605.2 14020 169155.2 14590 Q 168705.2 15160 168459.2 15958 Q 168213.2 16756 168213.2 17729.2 L 168213.2 24833.2 L 166029.2 24833.2 L 166029.2 11657.2 L 167805.2 11657.2 L 168069.2 14068 L 168165.2 14068 Q 168466.4 13553.2 168808.4 13073.2 Q 169150.4 12593.2 169576.4 12227.2 Q 170002.4 11861.2 170530.4 11639.2 Q 171058.4 11417.2 171730.4 11417.2 L 171731.6 11416 Z M 181698 21218.8 Q 181698 22178.8 181350 22898.8 Q 181002 23618.8 180348 24104.8 Q 179694 24590.8 178770 24830.8 Q 177846 25070.8 176694 25070.8 Q 175387.2 25070.8 174451.2 24860.8 Q 173515.2 24650.8 172806 24242.8 L 172806 22250.8 Q 173179.2 22442.8 173635.2 22628.8 Q 174091.2 22814.8 174595.2 22958.8 Q 175099.2 23102.8 175633.2 23192.8 Q 176167.2 23282.8 176695.2 23282.8 Q 177476.4 23282.8 178022.4 23150.8 Q 178568.4 23018.8 178910.4 22772.8 Q 179252.4 22526.8 179408.4 22172.8 Q 179564.4 21818.8 179564.4 21386.8 Q 179564.4 21016 179444.4 20716 Q 179324.4 20416 179006.4 20122 Q 178688.4 19828 178136.4 19528 Q 177584.4 19228 176720.4 18857.2 Q 175856.4 18484 175166.4 18124 Q 174476.4 17764 173996.4 17320 Q 173516.4 16876 173258.4 16294 Q 173000.4 15712 173000.4 14906.8 Q 173000.4 14066.8 173330.4 13412.8 Q 173660.4 12758.8 174260.4 12314.8 Q 174860.4 11870.8 175700.4 11642.8 Q 176540.4 11414.8 177572.4 11414.8 Q 178735.2 11414.8 179701.2 11666.8 Q 180667.2 11918.8 181531.2 12326.8 L 180774 14089.6 Q 179995.2 13742.8 179173.2 13484.8 Q 178351.2 13226.8 177500.4 13226.8 Q 176276.4 13226.8 175688.4 13628.8 Q 175100.4 14030.8 175100.4 14774.8 Q 175100.4 15193.6 175238.4 15505.6 Q 175376.4 15817.6 175712.4 16093.6 Q 176048.4 16369.6 176612.4 16651.6 Q 177176.4 16933.6 178016.4 17280.4 Q 178880.4 17640.4 179558.4 18000.4 Q 180236.4 18360.4 180716.4 18810.4 Q 181196.4 19260.4 181448.4 19836.4 Q 181700.4 20412.4 181700.4 21215.2 L 181698 21218.8 Z M 193565.2 18218.8 Q 193565.2 19864 193163.2 21142 Q 192761.2 22420 192011.2 23290 Q 191261.2 24160 190193.2 24616 Q 189125.2 25072 187792 25072 Q 186557.2 25072 185513.2 24616 Q 184469.2 24160 183707.2 23290 Q 182945.2 22420 182519.2 21142 Q 182093.2 19864 182093.2 18218.8 Q 182093.2 16586.8 182495.2 15320.8 Q 182897.2 14054.8 183641.2 13184.8 Q 184385.2 12314.8 185459.2 11864.8 Q 186533.2 11414.8 187864 11414.8 Q 189101.2 11414.8 190145.2 11864.8 Q 191189.2 12314.8 191951.2 13184.8 Q 192713.2 14054.8 193139.2 15320.8 Q 193565.2 16586.8 193565.2 18218.8  Z M 184349.2 18218.8 Q 184349.2 20728 185171.2 21994 Q 185993.2 23260 187841.2 23260 Q 189689.2 23260 190499.2 21994 Q 191309.2 20728 191309.2 18218.8 Q 191309.2 15712 190487.2 14470 Q 189665.2 13228 187817.2 13228 Q 185969.2 13228 185159.2 14470 Q 184349.2 15712 184349.2 18218.8  Z M 202843.6 21218.8 Q 202843.6 22178.8 202495.6 22898.8 Q 202147.6 23618.8 201493.6 24104.8 Q 200839.6 24590.8 199915.6 24830.8 Q 198991.6 25070.8 197839.6 25070.8 Q 196532.8 25070.8 195596.8 24860.8 Q 194660.8 24650.8 193951.6 24242.8 L 193951.6 22250.8 Q 194324.8 22442.8 194780.8 22628.8 Q 195236.8 22814.8 195740.8 22958.8 Q 196244.8 23102.8 196778.8 23192.8 Q 197312.8 23282.8 197840.8 23282.8 Q 198622 23282.8 199168 23150.8 Q 199714 23018.8 200056 22772.8 Q 200398 22526.8 200554 22172.8 Q 200710 21818.8 200710 21386.8 Q 200710 21016 200590 20716 Q 200470 20416 200152 20122 Q 199834 19828 199282 19528 Q 198730 19228 197866 18857.2 Q 197002 18484 196312 18124 Q 195622 17764 195142 17320 Q 194662 16876 194404 16294 Q 194146 15712 194146 14906.8 Q 194146 14066.8 194476 13412.8 Q 194806 12758.8 195406 12314.8 Q 196006 11870.8 196846 11642.8 Q 197686 11414.8 198718 11414.8 Q 199880.8 11414.8 200846.8 11666.8 Q 201812.8 11918.8 202676.8 12326.8 L 201919.6 14089.6 Q 201140.8 13742.8 200318.8 13484.8 Q 199496.8 13226.8 198646 13226.8 Q 197422 13226.8 196834 13628.8 Q 196246 14030.8 196246 14774.8 Q 196246 15193.6 196384 15505.6 Q 196522 15817.6 196858 16093.6 Q 197194 16369.6 197758 16651.6 Q 198322 16933.6 199162 17280.4 Q 200026 17640.4 200704 18000.4 Q 201382 18360.4 201862 18810.4 Q 202342 19260.4 202594 19836.4 Q 202846 20412.4 202846 21215.2 L 202843.6 21218.8 Z M 206251.2 11656 L 208520.4 11656 L 211099.2 19010.8 Q 211267.2 19490.8 211441.2 20018.8 Q 211615.2 20546.8 211765.2 21074.8 Q 211915.2 21602.8 212023.2 22094.8 Q 212131.2 22586.8 212179.2 23008 L 212251.2 23008 Q 212312.4 22706.8 212444.4 22190.8 Q 212576.4 21674.8 212738.4 21092.8 Q 212900.4 20510.8 213074.4 19946.8 Q 213248.4 19382.8 213379.2 18985.6 L 215768.4 11654.8 L 218024.4 11654.8 L 212816.4 26548 Q 212480.4 27518.8 212090.4 28292.8 Q 211700.4 29066.8 211184.4 29606.8 Q 210668.4 30146.8 209972.4 30440.8 Q 209276.4 30734.8 208316.4 30734.8 Q 207692.4 30734.8 207236.4 30668.8 Q 206780.4 30602.8 206457.6 30530.8 L 206457.6 28789.6 Q 206708.4 28850.8 207092.4 28892.8 Q 207476.4 28934.8 207897.6 28934.8 Q 208473.6 28934.8 208893.6 28796.8 Q 209313.6 28658.8 209625.6 28394.8 Q 209937.6 28130.8 210159.6 27746.8 Q 210381.6 27362.8 210562.8 26869.6 L 211245.6 24949.6 L 206253.6 11653.6 L 206251.2 11656 Z M 46208 54716.8 Q 44888 54716.8 43796 54272.8 Q 42704 53828.8 41918 52976.8 Q 41132 52124.8 40700 50864.8 Q 40268 49604.8 40268 47983.6 Q 40268 46351.6 40664 45067.6 Q 41060 43783.6 41780 42889.6 Q 42500 41995.6 43502 41527.6 Q 44504 41059.6 45717.2 41059.6 Q 46904 41059.6 47852 41485.6 Q 48800 41911.6 49460 42685.6 Q 50120 43459.6 50474 44545.6 Q 50828 45631.6 50828 46951.6 L 50828 48308.8 L 42524 48308.8 Q 42582.8 50623.6 43500.8 51715.6 Q 44418.8 52807.6 46229.6 52807.6 Q 46842.8 52807.6 47364.8 52747.6 Q 47886.8 52687.6 48372.8 52573.6 Q 48858.8 52459.6 49314.8 52285.6 Q 49770.8 52111.6 50237.6 51895.6 L 50237.6 53839.6 Q 49757.6 54068.8 49295.6 54236.8 Q 48833.6 54404.8 48347.6 54512.8 Q 47861.6 54620.8 47339.6 54668.8 Q 46817.6 54716.8 46204.4 54716.8 L 46208 54716.8 Z M 45669.2 42871.6 Q 44301.2 42871.6 43503.2 43807.6 Q 42705.2 44743.6 42574.4 46532.8 L 48478.4 46532.8 Q 48478.4 45716.8 48316.4 45038.8 Q 48154.4 44360.8 47812.4 43880.8 Q 47470.4 43400.8 46942.4 43136.8 Q 46414.4 42872.8 45670.4 42872.8 L 45669.2 42871.6 Z M 59893.2 50863.6 Q 59893.2 51823.6 59545.2 52543.6 Q 59197.2 53263.6 58543.2 53749.6 Q 57889.2 54235.6 56965.2 54475.6 Q 56041.2 54715.6 54889.2 54715.6 Q 53582.4 54715.6 52646.4 54505.6 Q 51710.4 54295.6 51001.2 53887.6 L 51001.2 51895.6 Q 51374.4 52087.6 51830.4 52273.6 Q 52286.4 52459.6 52790.4 52603.6 Q 53294.4 52747.6 53828.4 52837.6 Q 54362.4 52927.6 54890.4 52927.6 Q 55671.6 52927.6 56217.6 52795.6 Q 56763.6 52663.6 57105.6 52417.6 Q 57447.6 52171.6 57603.6 51817.6 Q 57759.6 51463.6 57759.6 51031.6 Q 57759.6 50660.8 57639.6 50360.8 Q 57519.6 50060.8 57201.6 49766.8 Q 56883.6 49472.8 56331.6 49172.8 Q 55779.6 48872.8 54915.6 48502 Q 54051.6 48128.8 53361.6 47768.8 Q 52671.6 47408.8 52191.6 46964.8 Q 51711.6 46520.8 51453.6 45938.8 Q 51195.6 45356.8 51195.6 44551.6 Q 51195.6 43711.6 51525.6 43057.6 Q 51855.6 42403.6 52455.6 41959.6 Q 53055.6 41515.6 53895.6 41287.6 Q 54735.6 41059.6 55767.6 41059.6 Q 56930.4 41059.6 57896.4 41311.6 Q 58862.4 41563.6 59726.4 41971.6 L 58969.2 43734.4 Q 58190.4 43387.6 57368.4 43129.6 Q 56546.4 42871.6 55695.6 42871.6 Q 54471.6 42871.6 53883.6 43273.6 Q 53295.6 43675.6 53295.6 44419.6 Q 53295.6 44838.4 53433.6 45150.4 Q 53571.6 45462.4 53907.6 45738.4 Q 54243.6 46014.4 54807.6 46296.4 Q 55371.6 46578.4 56211.6 46925.2 Q 57075.6 47285.2 57753.6 47645.2 Q 58431.6 48005.2 58911.6 48455.2 Q 59391.6 48905.2 59643.6 49481.2 Q 59895.6 50057.2 59895.6 50860 L 59893.2 50863.6 Z M 65003.2 52927.6 Q 65219.2 52927.6 65489.2 52903.6 Q 65759.2 52879.6 66011.2 52843.6 Q 66263.2 52807.6 66473.2 52759.6 Q 66683.2 52711.6 66792.4 52676.8 L 66792.4 54332.8 Q 66635.2 54404.8 66395.2 54476.8 Q 66155.2 54548.8 65867.2 54602.8 Q 65579.2 54656.8 65267.2 54686.8 Q 64955.2 54716.8 64656.4 54716.8 Q 63912.4 54716.8 63276.4 54524.8 Q 62640.4 54332.8 62178.4 53864.8 Q 61716.4 53396.8 61452.4 52598.8 Q 61188.4 51800.8 61188.4 50590 L 61188.4 42944.8 L 59329.6 42944.8 L 59329.6 41974 L 61188.4 41038 L 62124.4 38278 L 63385.6 38278 L 63385.6 41302 L 66697.6 41302 L 66697.6 42944.8 L 63385.6 42944.8 L 63385.6 50590 Q 63385.6 51752.8 63763.6 52340.8 Q 64141.6 52928.8 65005.6 52928.8 L 65003.2 52927.6 Z M 72966.8 41060.8 Q 73313.6 41060.8 73745.6 41090.8 Q 74177.6 41120.8 74489.6 41182 L 74201.6 43198 Q 73865.6 43136.8 73511.6 43094.8 Q 73157.6 43052.8 72845.6 43052.8 Q 72088.4 43052.8 71464.4 43358.8 Q 70840.4 43664.8 70390.4 44234.8 Q 69940.4 44804.8 69694.4 45602.8 Q 69448.4 46400.8 69448.4 47374 L 69448.4 54478 L 67264.4 54478 L 67264.4 41302 L 69040.4 41302 L 69304.4 43712.8 L 69400.4 43712.8 Q 69701.6 43198 70043.6 42718 Q 70385.6 42238 70811.6 41872 Q 71237.6 41506 71765.6 41284 Q 72293.6 41062 72965.6 41062 L 72966.8 41060.8 Z M 82477.2 54476.8 L 82032 52652.8 L 81936 52652.8 Q 81541.2 53191.6 81145.2 53581.6 Q 80749.2 53971.6 80281.2 54223.6 Q 79813.2 54475.6 79237.2 54595.6 Q 78661.2 54715.6 77904 54715.6 Q 77077.2 54715.6 76381.2 54481.6 Q 75685.2 54247.6 75175.2 53761.6 Q 74665.2 53275.6 74377.2 52537.6 Q 74089.2 51799.6 74089.2 50791.6 Q 74089.2 48823.6 75475.2 47767.6 Q 76861.2 46711.6 79693.2 46615.6 L 81901.2 46532.8 L 81901.2 45703.6 Q 81901.2 44900.8 81727.2 44360.8 Q 81553.2 43820.8 81223.2 43490.8 Q 80893.2 43160.8 80407.2 43016.8 Q 79921.2 42872.8 79297.2 42872.8 Q 78302.4 42872.8 77444.4 43160.8 Q 76586.4 43448.8 75794.4 43856.8 L 75026.4 42214 Q 75914.4 41734 77006.4 41398 Q 78098.4 41062 79298.4 41062 Q 80522.4 41062 81416.4 41308 Q 82310.4 41554 82892.4 42088 Q 83474.4 42622 83762.4 43450 Q 84050.4 44278 84050.4 45454 L 84050.4 54478 L 82479.6 54478 L 82477.2 54476.8 Z M 78469.2 52951.6 Q 79200 52951.6 79824 52723.6 Q 80448 52495.6 80904 52033.6 Q 81360 51571.6 81618 50869.6 Q 81876 50167.6 81876 49220.8 L 81876 48031.6 L 80158.8 48116.8 Q 79078.8 48164.8 78346.8 48356.8 Q 77614.8 48548.8 77176.8 48890.8 Q 76738.8 49232.8 76546.8 49718.8 Q 76354.8 50204.8 76354.8 50815.6 Q 76354.8 51919.6 76936.8 52435.6 Q 77518.8 52951.6 78468 52951.6 L 78469.2 52951.6 Z M 89937.6 52927.6 Q 90153.6 52927.6 90423.6 52903.6 Q 90693.6 52879.6 90945.6 52843.6 Q 91197.6 52807.6 91407.6 52759.6 Q 91617.6 52711.6 91726.8 52676.8 L 91726.8 54332.8 Q 91569.6 54404.8 91329.6 54476.8 Q 91089.6 54548.8 90801.6 54602.8 Q 90513.6 54656.8 90201.6 54686.8 Q 89889.6 54716.8 89590.8 54716.8 Q 88846.8 54716.8 88210.8 54524.8 Q 87574.8 54332.8 87112.8 53864.8 Q 86650.8 53396.8 86386.8 52598.8 Q 86122.8 51800.8 86122.8 50590 L 86122.8 42944.8 L 84264 42944.8 L 84264 41974 L 86122.8 41038 L 87058.8 38278 L 88320 38278 L 88320 41302 L 91632 41302 L 91632 42944.8 L 88320 42944.8 L 88320 50590 Q 88320 51752.8 88698 52340.8 Q 89076 52928.8 89940 52928.8 L 89937.6 52927.6 Z M 97408 54716.8 Q 96088 54716.8 94996 54272.8 Q 93904 53828.8 93118 52976.8 Q 92332 52124.8 91900 50864.8 Q 91468 49604.8 91468 47983.6 Q 91468 46351.6 91864 45067.6 Q 92260 43783.6 92980 42889.6 Q 93700 41995.6 94702 41527.6 Q 95704 41059.6 96917.2 41059.6 Q 98104 41059.6 99052 41485.6 Q 100000 41911.6 100660 42685.6 Q 101320 43459.6 101674 44545.6 Q 102028 45631.6 102028 46951.6 L 102028 48308.8 L 93724 48308.8 Q 93782.8 50623.6 94700.8 51715.6 Q 95618.8 52807.6 97429.6 52807.6 Q 98042.8 52807.6 98564.8 52747.6 Q 99086.8 52687.6 99572.8 52573.6 Q 100058.8 52459.6 100514.8 52285.6 Q 100970.8 52111.6 101437.6 51895.6 L 101437.6 53839.6 Q 100957.6 54068.8 100495.6 54236.8 Q 100033.6 54404.8 99547.6 54512.8 Q 99061.6 54620.8 98539.6 54668.8 Q 98017.6 54716.8 97404.4 54716.8 L 97408 54716.8 Z M 96869.2 42871.6 Q 95501.2 42871.6 94703.2 43807.6 Q 93905.2 44743.6 93774.4 46532.8 L 99678.4 46532.8 Q 99678.4 45716.8 99516.4 45038.8 Q 99354.4 44360.8 99012.4 43880.8 Q 98670.4 43400.8 98142.4 43136.8 Q 97614.4 42872.8 96870.4 42872.8 L 96869.2 42871.6 Z M 113360 41300.8 L 113360 42655.6 L 110997.2 42980.8 Q 111333.2 43399.6 111561.2 44053.6 Q 111789.2 44707.6 111789.2 45534.4 Q 111789.2 46446.4 111507.2 47220.4 Q 111225.2 47994.4 110655.2 48558.4 Q 110085.2 49122.4 109245.2 49440.4 Q 108405.2 49758.4 107288 49758.4 Q 107024 49758.4 106760 49752.4 Q 106496 49746.4 106328 49709.2 Q 106125.2 49829.2 105927.2 49979.2 Q 105729.2 50129.2 105567.2 50321.2 Q 105405.2 50513.2 105303.2 50753.2 Q 105201.2 50993.2 105201.2 51281.2 Q 105201.2 51604 105345.2 51802 Q 105489.2 52000 105735.2 52108 Q 105981.2 52216 106317.2 52252 Q 106653.2 52288 107024 52288 L 109136 52288 Q 110253.2 52288 111021.2 52570 Q 111789.2 52852 112275.2 53332 Q 112761.2 53812 112977.2 54466 Q 113193.2 55120 113193.2 55853.2 Q 113193.2 56909.2 112803.2 57749.2 Q 112413.2 58589.2 111609.2 59171.2 Q 110805.2 59753.2 109575.2 60065.2 Q 108345.2 60377.2 106678.4 60377.2 Q 105393.2 60377.2 104433.2 60125.2 Q 103473.2 59873.2 102837.2 59393.2 Q 102201.2 58913.2 101883.2 58235.2 Q 101565.2 57557.2 101565.2 56704 Q 101565.2 55984 101799.2 55438 Q 102033.2 54892 102429.2 54494.8 Q 102825.2 54097.6 103347.2 53845.6 Q 103869.2 53593.6 104432 53462.8 Q 103928 53233.6 103604 52741.6 Q 103280 52249.6 103280 51614.8 Q 103280 50881.6 103664 50347.6 Q 104048 49813.6 104877.2 49309.6 Q 104360 49093.6 103934 48715.6 Q 103508 48337.6 103214 47851.6 Q 102920 47365.6 102758 46789.6 Q 102596 46213.6 102596 45600.4 Q 102596 44533.6 102896 43693.6 Q 103196 42853.6 103784 42265.6 Q 104372 41677.6 105248 41365.6 Q 106124 41053.6 107286.8 41053.6 Q 107732 41053.6 108206 41119.6 Q 108680 41185.6 109005.2 41294.8 L 113360 41294.8 L 113360 41300.8 Z M 103629.2 56636.8 Q 103629.2 57082 103785.2 57466 Q 103941.2 57850 104295.2 58126 Q 104649.2 58402 105231.2 58564 Q 105813.2 58726 106677.2 58726 Q 108909.2 58726 110019.2 58036 Q 111129.2 57346 111129.2 56050 Q 111129.2 55498 110985.2 55150 Q 110841.2 54802 110511.2 54604 Q 110181.2 54406 109641.2 54334 Q 109101.2 54262 108320 54262 L 106208 54262 Q 105789.2 54262 105333.2 54358 Q 104877.2 54454 104499.2 54718 Q 104121.2 54982 103875.2 55444 Q 103629.2 55906 103629.2 56636.8  Z M 104733.2 45535.6 Q 104733.2 46916.8 105381.2 47588.8 Q 106029.2 48260.8 107216 48260.8 Q 108416 48260.8 109034 47594.8 Q 109652 46928.8 109652 45502 Q 109652 44024.8 109022 43328.8 Q 108392 42632.8 107192 42632.8 Q 106005.2 42632.8 105369.2 43352.8 Q 104733.2 44072.8 104733.2 45536.8 L 104733.2 45535.6 Z M 115990.4 54476.8 L 113806.4 54476.8 L 113806.4 41300.8 L 115990.4 41300.8 L 115990.4 54476.8 Z M 113638.4 37735.6 Q 113638.4 37015.6 114004.4 36691.6 Q 114370.4 36367.6 114909.2 36367.6 Q 115173.2 36367.6 115407.2 36445.6 Q 115641.2 36523.6 115815.2 36691.6 Q 115989.2 36859.6 116091.2 37117.6 Q 116193.2 37375.6 116193.2 37735.6 Q 116193.2 38431.6 115815.2 38773.6 Q 115437.2 39115.6 114909.2 39115.6 Q 114370.4 39115.6 114004.4 38779.6 Q 113638.4 38443.6 113638.4 37734.4 L 113638.4 37735.6 Z M 125485.2 54476.8 L 125040 52652.8 L 124944 52652.8 Q 124549.2 53191.6 124153.2 53581.6 Q 123757.2 53971.6 123289.2 54223.6 Q 122821.2 54475.6 122245.2 54595.6 Q 121669.2 54715.6 120912 54715.6 Q 120085.2 54715.6 119389.2 54481.6 Q 118693.2 54247.6 118183.2 53761.6 Q 117673.2 53275.6 117385.2 52537.6 Q 117097.2 51799.6 117097.2 50791.6 Q 117097.2 48823.6 118483.2 47767.6 Q 119869.2 46711.6 122701.2 46615.6 L 124909.2 46532.8 L 124909.2 45703.6 Q 124909.2 44900.8 124735.2 44360.8 Q 124561.2 43820.8 124231.2 43490.8 Q 123901.2 43160.8 123415.2 43016.8 Q 122929.2 42872.8 122305.2 42872.8 Q 121310.4 42872.8 120452.4 43160.8 Q 119594.4 43448.8 118802.4 43856.8 L 118034.4 42214 Q 118922.4 41734 120014.4 41398 Q 121106.4 41062 122306.4 41062 Q 123530.4 41062 124424.4 41308 Q 125318.4 41554 125900.4 42088 Q 126482.4 42622 126770.4 43450 Q 127058.4 44278 127058.4 45454 L 127058.4 54478 L 125487.6 54478 L 125485.2 54476.8 Z M 121477.2 52951.6 Q 122208 52951.6 122832 52723.6 Q 123456 52495.6 123912 52033.6 Q 124368 51571.6 124626 50869.6 Q 124884 50167.6 124884 49220.8 L 124884 48031.6 L 123166.8 48116.8 Q 122086.8 48164.8 121354.8 48356.8 Q 120622.8 48548.8 120184.8 48890.8 Q 119746.8 49232.8 119554.8 49718.8 Q 119362.8 50204.8 119362.8 50815.6 Q 119362.8 51919.6 119944.8 52435.6 Q 120526.8 52951.6 121476 52951.6 L 121477.2 52951.6 Z M 136846.8 50863.6 Q 136846.8 51823.6 136498.8 52543.6 Q 136150.8 53263.6 135496.8 53749.6 Q 134842.8 54235.6 133918.8 54475.6 Q 132994.8 54715.6 131842.8 54715.6 Q 130536 54715.6 129600 54505.6 Q 128664 54295.6 127954.8 53887.6 L 127954.8 51895.6 Q 128328 52087.6 128784 52273.6 Q 129240 52459.6 129744 52603.6 Q 130248 52747.6 130782 52837.6 Q 131316 52927.6 131844 52927.6 Q 132625.2 52927.6 133171.2 52795.6 Q 133717.2 52663.6 134059.2 52417.6 Q 134401.2 52171.6 134557.2 51817.6 Q 134713.2 51463.6 134713.2 51031.6 Q 134713.2 50660.8 134593.2 50360.8 Q 134473.2 50060.8 134155.2 49766.8 Q 133837.2 49472.8 133285.2 49172.8 Q 132733.2 48872.8 131869.2 48502 Q 131005.2 48128.8 130315.2 47768.8 Q 129625.2 47408.8 129145.2 46964.8 Q 128665.2 46520.8 128407.2 45938.8 Q 128149.2 45356.8 128149.2 44551.6 Q 128149.2 43711.6 128479.2 43057.6 Q 128809.2 42403.6 129409.2 41959.6 Q 130009.2 41515.6 130849.2 41287.6 Q 131689.2 41059.6 132721.2 41059.6 Q 133884 41059.6 134850 41311.6 Q 135816 41563.6 136680 41971.6 L 135922.8 43734.4 Q 135144 43387.6 134322 43129.6 Q 133500 42871.6 132649.2 42871.6 Q 131425.2 42871.6 130837.2 43273.6 Q 130249.2 43675.6 130249.2 44419.6 Q 130249.2 44838.4 130387.2 45150.4 Q 130525.2 45462.4 130861.2 45738.4 Q 131197.2 46014.4 131761.2 46296.4 Q 132325.2 46578.4 133165.2 46925.2 Q 134029.2 47285.2 134707.2 47645.2 Q 135385.2 48005.2 135865.2 48455.2 Q 136345.2 48905.2 136597.2 49481.2 Q 136849.2 50057.2 136849.2 50860 L 136846.8 50863.6 Z M 147430.4 54716.8 Q 146110.4 54716.8 145018.4 54272.8 Q 143926.4 53828.8 143140.4 52976.8 Q 142354.4 52124.8 141922.4 50864.8 Q 141490.4 49604.8 141490.4 47983.6 Q 141490.4 46351.6 141886.4 45067.6 Q 142282.4 43783.6 143002.4 42889.6 Q 143722.4 41995.6 144724.4 41527.6 Q 145726.4 41059.6 146939.6 41059.6 Q 148126.4 41059.6 149074.4 41485.6 Q 150022.4 41911.6 150682.4 42685.6 Q 151342.4 43459.6 151696.4 44545.6 Q 152050.4 45631.6 152050.4 46951.6 L 152050.4 48308.8 L 143746.4 48308.8 Q 143805.2 50623.6 144723.2 51715.6 Q 145641.2 52807.6 147452 52807.6 Q 148065.2 52807.6 148587.2 52747.6 Q 149109.2 52687.6 149595.2 52573.6 Q 150081.2 52459.6 150537.2 52285.6 Q 150993.2 52111.6 151460 51895.6 L 151460 53839.6 Q 150980 54068.8 150518 54236.8 Q 150056 54404.8 149570 54512.8 Q 149084 54620.8 148562 54668.8 Q 148040 54716.8 147426.8 54716.8 L 147430.4 54716.8 Z M 146891.6 42871.6 Q 145523.6 42871.6 144725.6 43807.6 Q 143927.6 44743.6 143796.8 46532.8 L 149700.8 46532.8 Q 149700.8 45716.8 149538.8 45038.8 Q 149376.8 44360.8 149034.8 43880.8 Q 148692.8 43400.8 148164.8 43136.8 Q 147636.8 42872.8 146892.8 42872.8 L 146891.6 42871.6 Z M 158955.6 42943.6 L 156014.4 42943.6 L 156014.4 54476.8 L 153819.6 54476.8 L 153819.6 42943.6 L 151491.6 42943.6 L 151491.6 42044.8 L 153819.6 41228.8 L 153819.6 40076.8 Q 153819.6 38791.6 154089.6 37945.6 Q 154359.6 37099.6 154869.6 36595.6 Q 155379.6 36091.6 156123.6 35881.6 Q 156867.6 35671.6 157803.6 35671.6 Q 158510.4 35671.6 159104.4 35809.6 Q 159698.4 35947.6 160165.2 36115.6 L 159602.4 37806.4 Q 159229.2 37675.6 158791.2 37573.6 Q 158353.2 37471.6 157873.2 37471.6 Q 157393.2 37471.6 157045.2 37585.6 Q 156697.2 37699.6 156469.2 37987.6 Q 156241.2 38275.6 156127.2 38773.6 Q 156013.2 39271.6 156013.2 40052.8 L 156013.2 41300.8 L 158954.4 41300.8 L 158954.4 42943.6 L 158955.6 42943.6 Z M 164428.8 54716.8 Q 163108.8 54716.8 162016.8 54272.8 Q 160924.8 53828.8 160138.8 52976.8 Q 159352.8 52124.8 158920.8 50864.8 Q 158488.8 49604.8 158488.8 47983.6 Q 158488.8 46351.6 158884.8 45067.6 Q 159280.8 43783.6 160000.8 42889.6 Q 160720.8 41995.6 161722.8 41527.6 Q 162724.8 41059.6 163938 41059.6 Q 165124.8 41059.6 166072.8 41485.6 Q 167020.8 41911.6 167680.8 42685.6 Q 168340.8 43459.6 168694.8 44545.6 Q 169048.8 45631.6 169048.8 46951.6 L 169048.8 48308.8 L 160744.8 48308.8 Q 160803.6 50623.6 161721.6 51715.6 Q 162639.6 52807.6 164450.4 52807.6 Q 165063.6 52807.6 165585.6 52747.6 Q 166107.6 52687.6 166593.6 52573.6 Q 167079.6 52459.6 167535.6 52285.6 Q 167991.6 52111.6 168458.4 51895.6 L 168458.4 53839.6 Q 167978.4 54068.8 167516.4 54236.8 Q 167054.4 54404.8 166568.4 54512.8 Q 166082.4 54620.8 165560.4 54668.8 Q 165038.4 54716.8 164425.2 54716.8 L 164428.8 54716.8 Z M 163890 42871.6 Q 162522 42871.6 161724 43807.6 Q 160926 44743.6 160795.2 46532.8 L 166699.2 46532.8 Q 166699.2 45716.8 166537.2 45038.8 Q 166375.2 44360.8 166033.2 43880.8 Q 165691.2 43400.8 165163.2 43136.8 Q 164635.2 42872.8 163891.2 42872.8 L 163890 42871.6 Z M 175268.8 54716.8 Q 174058 54716.8 173002 54338.8 Q 171946 53960.8 171166 53138.8 Q 170386 52316.8 169942 51038.8 Q 169498 49760.8 169498 47960.8 Q 169498 46078 169954 44764 Q 170410 43450 171208 42628 Q 172006 41806 173074 41434 Q 174142 41062 175366 41062 Q 176302 41062 177196 41266 Q 178090 41470 178690 41768.8 L 178042 43616.8 Q 177764.8 43496.8 177428.8 43382.8 Q 177092.8 43268.8 176732.8 43178.8 Q 176372.8 43088.8 176024.8 43034.8 Q 175676.8 42980.8 175364.8 42980.8 Q 173482 42980.8 172618 44186.8 Q 171754 45392.8 171754 47936.8 Q 171754 50470 172624 51640 Q 173494 52810 175270 52810 Q 176243.2 52810 177029.2 52588 Q 177815.2 52366 178463.2 52064.8 L 178463.2 54008.8 Q 177815.2 54358 177077.2 54538 Q 176339.2 54718 175270 54718 L 175268.8 54716.8 Z M 183531.2 52927.6 Q 183747.2 52927.6 184017.2 52903.6 Q 184287.2 52879.6 184539.2 52843.6 Q 184791.2 52807.6 185001.2 52759.6 Q 185211.2 52711.6 185320.4 52676.8 L 185320.4 54332.8 Q 185163.2 54404.8 184923.2 54476.8 Q 184683.2 54548.8 184395.2 54602.8 Q 184107.2 54656.8 183795.2 54686.8 Q 183483.2 54716.8 183184.4 54716.8 Q 182440.4 54716.8 181804.4 54524.8 Q 181168.4 54332.8 180706.4 53864.8 Q 180244.4 53396.8 179980.4 52598.8 Q 179716.4 51800.8 179716.4 50590 L 179716.4 42944.8 L 177857.6 42944.8 L 177857.6 41974 L 179716.4 41038 L 180652.4 38278 L 181913.6 38278 L 181913.6 41302 L 185225.6 41302 L 185225.6 42944.8 L 181913.6 42944.8 L 181913.6 50590 Q 181913.6 51752.8 182291.6 52340.8 Q 182669.6 52928.8 183533.6 52928.8 L 183531.2 52927.6 Z M 187977.6 54476.8 L 185793.6 54476.8 L 185793.6 41300.8 L 187977.6 41300.8 L 187977.6 54476.8 Z M 185625.6 37735.6 Q 185625.6 37015.6 185991.6 36691.6 Q 186357.6 36367.6 186896.4 36367.6 Q 187160.4 36367.6 187394.4 36445.6 Q 187628.4 36523.6 187802.4 36691.6 Q 187976.4 36859.6 188078.4 37117.6 Q 188180.4 37375.6 188180.4 37735.6 Q 188180.4 38431.6 187802.4 38773.6 Q 187424.4 39115.6 186896.4 39115.6 Q 186357.6 39115.6 185991.6 38779.6 Q 185625.6 38443.6 185625.6 37734.4 L 185625.6 37735.6 Z M 192456.4 54476.8 L 187955.2 41300.8 L 190211.2 41300.8 L 192600.4 48631.6 Q 192731.2 49028.8 192911.2 49652.8 Q 193091.2 50276.8 193271.2 50924.8 Q 193451.2 51572.8 193601.2 52148.8 Q 193751.2 52724.8 193799.2 53023.6 L 193882 53023.6 Q 193943.2 52724.8 194087.2 52148.8 Q 194231.2 51572.8 194411.2 50924.8 Q 194591.2 50276.8 194771.2 49652.8 Q 194951.2 49028.8 195082 48631.6 L 197471.2 41300.8 L 199727.2 41300.8 L 195226 54476.8 L 192455.2 54476.8 L 192456.4 54476.8 Z M 207149.2 54476.8 L 206704 52652.8 L 206608 52652.8 Q 206213.2 53191.6 205817.2 53581.6 Q 205421.2 53971.6 204953.2 54223.6 Q 204485.2 54475.6 203909.2 54595.6 Q 203333.2 54715.6 202576 54715.6 Q 201749.2 54715.6 201053.2 54481.6 Q 200357.2 54247.6 199847.2 53761.6 Q 199337.2 53275.6 199049.2 52537.6 Q 198761.2 51799.6 198761.2 50791.6 Q 198761.2 48823.6 200147.2 47767.6 Q 201533.2 46711.6 204365.2 46615.6 L 206573.2 46532.8 L 206573.2 45703.6 Q 206573.2 44900.8 206399.2 44360.8 Q 206225.2 43820.8 205895.2 43490.8 Q 205565.2 43160.8 205079.2 43016.8 Q 204593.2 42872.8 203969.2 42872.8 Q 202974.4 42872.8 202116.4 43160.8 Q 201258.4 43448.8 200466.4 43856.8 L 199698.4 42214 Q 200586.4 41734 201678.4 41398 Q 202770.4 41062 203970.4 41062 Q 205194.4 41062 206088.4 41308 Q 206982.4 41554 207564.4 42088 Q 208146.4 42622 208434.4 43450 Q 208722.4 44278 208722.4 45454 L 208722.4 54478 L 207151.6 54478 L 207149.2 54476.8 Z M 203141.2 52951.6 Q 203872 52951.6 204496 52723.6 Q 205120 52495.6 205576 52033.6 Q 206032 51571.6 206290 50869.6 Q 206548 50167.6 206548 49220.8 L 206548 48031.6 L 204830.8 48116.8 Q 203750.8 48164.8 203018.8 48356.8 Q 202286.8 48548.8 201848.8 48890.8 Q 201410.8 49232.8 201218.8 49718.8 Q 201026.8 50204.8 201026.8 50815.6 Q 201026.8 51919.6 201608.8 52435.6 Q 202190.8 52951.6 203140 52951.6 L 203141.2 52951.6 Z M 218510.8 50863.6 Q 218510.8 51823.6 218162.8 52543.6 Q 217814.8 53263.6 217160.8 53749.6 Q 216506.8 54235.6 215582.8 54475.6 Q 214658.8 54715.6 213506.8 54715.6 Q 212200 54715.6 211264 54505.6 Q 210328 54295.6 209618.8 53887.6 L 209618.8 51895.6 Q 209992 52087.6 210448 52273.6 Q 210904 52459.6 211408 52603.6 Q 211912 52747.6 212446 52837.6 Q 212980 52927.6 213508 52927.6 Q 214289.2 52927.6 214835.2 52795.6 Q 215381.2 52663.6 215723.2 52417.6 Q 216065.2 52171.6 216221.2 51817.6 Q 216377.2 51463.6 216377.2 51031.6 Q 216377.2 50660.8 216257.2 50360.8 Q 216137.2 50060.8 215819.2 49766.8 Q 215501.2 49472.8 214949.2 49172.8 Q 214397.2 48872.8 213533.2 48502 Q 212669.2 48128.8 211979.2 47768.8 Q 211289.2 47408.8 210809.2 46964.8 Q 210329.2 46520.8 210071.2 45938.8 Q 209813.2 45356.8 209813.2 44551.6 Q 209813.2 43711.6 210143.2 43057.6 Q 210473.2 42403.6 211073.2 41959.6 Q 211673.2 41515.6 212513.2 41287.6 Q 213353.2 41059.6 214385.2 41059.6 Q 215548 41059.6 216514 41311.6 Q 217480 41563.6 218344 41971.6 L 217586.8 43734.4 Q 216808 43387.6 215986 43129.6 Q 215164 42871.6 214313.2 42871.6 Q 213089.2 42871.6 212501.2 43273.6 Q 211913.2 43675.6 211913.2 44419.6 Q 211913.2 44838.4 212051.2 45150.4 Q 212189.2 45462.4 212525.2 45738.4 Q 212861.2 46014.4 213425.2 46296.4 Q 213989.2 46578.4 214829.2 46925.2 Q 215693.2 47285.2 216371.2 47645.2 Q 217049.2 48005.2 217529.2 48455.2 Q 218009.2 48905.2 218261.2 49481.2 Q 218513.2 50057.2 218513.2 50860 L 218510.8 50863.6 Z " fill-rule="nonzero" style="fill:#535353;;fill-opacity:1;"/>
</svg>