<svg version="1.1" x="0" y="0" width="100%" height="100%" viewBox="0 0 218521.6 29644.8" xmlns="http://www.w3.org/2000/svg">
  <path d="M 72749.2 9002.8 Q 71464 9002.8 70420 9488.8 Q 69376 9974.8 68638 10886.8 Q 67900 11798.8 67498 13106.8 Q 67096 14414.8 67096 16057.6 Q 67096 17750.8 67450 19064.8 Q 67804 20378.8 68512 21278.8 Q 69220 22178.8 70276 22646.8 Q 71332 23114.8 72748 23114.8 Q 73814.8 23114.8 74774.8 22904.8 Q 75734.8 22694.8 76670.8 22417.6 L 76670.8 24361.6 Q 76204 24542.8 75736 24680.8 Q 75268 24818.8 74758 24904 Q 74248 24989.2 73666 25031.2 Q 73084 25073.2 72374.8 25073.2 Q 70406.8 25073.2 68966.8 24425.2 Q 67526.8 23777.2 66584.8 22589.2 Q 65642.8 21401.2 65186.8 19733.2 Q 64730.8 18065.2 64730.8 16036 Q 64730.8 14044 65252.8 12388 Q 65774.8 10732 66788.8 9544 Q 67802.8 8356 69302.8 7696 Q 70802.8 7036 72746.8 7036 Q 74042.8 7036 75218.8 7300 Q 76394.8 7564 77341.6 8068 L 76405.6 9940 Q 75650.8 9556 74762.8 9280 Q 73874.8 9004 72746.8 9004 L 72749.2 9002.8 Z M 88810 18218.8 Q 88810 19864 88408 21142 Q 88006 22420 87256 23290 Q 86506 24160 85438 24616 Q 84370 25072 83036.8 25072 Q 81802 25072 80758 24616 Q 79714 24160 78952 23290 Q 78190 22420 77764 21142 Q 77338 19864 77338 18218.8 Q 77338 16586.8 77740 15320.8 Q 78142 14054.8 78886 13184.8 Q 79630 12314.8 80704 11864.8 Q 81778 11414.8 83108.8 11414.8 Q 84346 11414.8 85390 11864.8 Q 86434 12314.8 87196 13184.8 Q 87958 14054.8 88384 15320.8 Q 88810 16586.8 88810 18218.8  Z M 79594 18218.8 Q 79594 20728 80416 21994 Q 81238 23260 83086 23260 Q 84934 23260 85744 21994 Q 86554 20728 86554 18218.8 Q 86554 15712 85732 14470 Q 84910 13228 83062 13228 Q 81214 13228 80404 14470 Q 79594 15712 79594 18218.8  Z M 98435.2 24832 L 98435.2 16346.8 Q 98435.2 14786.8 97805.2 14006.8 Q 97175.2 13226.8 95831.2 13226.8 Q 94858 13226.8 94198 13538.8 Q 93538 13850.8 93136 14462.8 Q 92734 15074.8 92560 15962.8 Q 92386 16850.8 92386 18002.8 L 92386 24832 L 90202 24832 L 90202 11656 L 91978 11656 L 92290 13432 L 92410 13432 Q 92711.2 12914.8 93125.2 12536.8 Q 93539.2 12158.8 94031.2 11906.8 Q 94523.2 11654.8 95075.2 11534.8 Q 95627.2 11414.8 96203.2 11414.8 Q 98400.4 11414.8 99510.4 12560.8 Q 100620.4 13706.8 100620.4 16226.8 L 100620.4 24832 L 98436.4 24832 L 98435.2 24832 Z M 107801.6 25072 Q 106481.6 25072 105389.6 24628 Q 104297.6 24184 103511.6 23332 Q 102725.6 22480 102293.6 21220 Q 101861.6 19960 101861.6 18338.8 Q 101861.6 16706.8 102257.6 15422.8 Q 102653.6 14138.8 103373.6 13244.8 Q 104093.6 12350.8 105095.6 11882.8 Q 106097.6 11414.8 107310.8 11414.8 Q 108497.6 11414.8 109445.6 11840.8 Q 110393.6 12266.8 111053.6 13040.8 Q 111713.6 13814.8 112067.6 14900.8 Q 112421.6 15986.8 112421.6 17306.8 L 112421.6 18664 L 104117.6 18664 Q 104176.4 20978.8 105094.4 22070.8 Q 106012.4 23162.8 107823.2 23162.8 Q 108436.4 23162.8 108958.4 23102.8 Q 109480.4 23042.8 109966.4 22928.8 Q 110452.4 22814.8 110908.4 22640.8 Q 111364.4 22466.8 111831.2 22250.8 L 111831.2 24194.8 Q 111351.2 24424 110889.2 24592 Q 110427.2 24760 109941.2 24868 Q 109455.2 24976 108933.2 25024 Q 108411.2 25072 107798 25072 L 107801.6 25072 Z M 107262.8 13226.8 Q 105894.8 13226.8 105096.8 14162.8 Q 104298.8 15098.8 104168 16888 L 110072 16888 Q 110072 16072 109910 15394 Q 109748 14716 109406 14236 Q 109064 13756 108536 13492 Q 108008 13228 107264 13228 L 107262.8 13226.8 Z M 106246.4 9616 Q 106510.4 9266.8 106792.4 8810.8 Q 107074.4 8354.8 107356.4 7868.8 Q 107638.4 7382.8 107890.4 6896.8 Q 108142.4 6410.8 108334.4 6002.8 L 110961.2 6002.8 L 110961.2 6256 Q 110769.2 6578.8 110391.2 7064.8 Q 110013.2 7550.8 109551.2 8078.8 Q 109089.2 8606.8 108603.2 9104.8 Q 108117.2 9602.8 107696 9938.8 L 106245.2 9938.8 L 106245.2 9616 L 106246.4 9616 Z M 118641.6 25072 Q 117430.8 25072 116374.8 24694 Q 115318.8 24316 114538.8 23494 Q 113758.8 22672 113314.8 21394 Q 112870.8 20116 112870.8 18316 Q 112870.8 16433.2 113326.8 15119.2 Q 113782.8 13805.2 114580.8 12983.2 Q 115378.8 12161.2 116446.8 11789.2 Q 117514.8 11417.2 118738.8 11417.2 Q 119674.8 11417.2 120568.8 11621.2 Q 121462.8 11825.2 122062.8 12124 L 121414.8 13972 Q 121137.6 13852 120801.6 13738 Q 120465.6 13624 120105.6 13534 Q 119745.6 13444 119397.6 13390 Q 119049.6 13336 118737.6 13336 Q 116854.8 13336 115990.8 14542 Q 115126.8 15748 115126.8 18292 Q 115126.8 20825.2 115996.8 21995.2 Q 116866.8 23165.2 118642.8 23165.2 Q 119616 23165.2 120402 22943.2 Q 121188 22721.2 121836 22420 L 121836 24364 Q 121188 24713.2 120450 24893.2 Q 119712 25073.2 118642.8 25073.2 L 118641.6 25072 Z M 126904 23282.8 Q 127120 23282.8 127390 23258.8 Q 127660 23234.8 127912 23198.8 Q 128164 23162.8 128374 23114.8 Q 128584 23066.8 128693.2 23032 L 128693.2 24688 Q 128536 24760 128296 24832 Q 128056 24904 127768 24958 Q 127480 25012 127168 25042 Q 126856 25072 126557.2 25072 Q 125813.2 25072 125177.2 24880 Q 124541.2 24688 124079.2 24220 Q 123617.2 23752 123353.2 22954 Q 123089.2 22156 123089.2 20945.2 L 123089.2 13300 L 121230.4 13300 L 121230.4 12329.2 L 123089.2 11393.2 L 124025.2 8633.2 L 125286.4 8633.2 L 125286.4 11657.2 L 128598.4 11657.2 L 128598.4 13300 L 125286.4 13300 L 125286.4 20945.2 Q 125286.4 22108 125664.4 22696 Q 126042.4 23284 126906.4 23284 L 126904 23282.8 Z M 136595.6 24832 L 136150.4 23008 L 136054.4 23008 Q 135659.6 23546.8 135263.6 23936.8 Q 134867.6 24326.8 134399.6 24578.8 Q 133931.6 24830.8 133355.6 24950.8 Q 132779.6 25070.8 132022.4 25070.8 Q 131195.6 25070.8 130499.6 24836.8 Q 129803.6 24602.8 129293.6 24116.8 Q 128783.6 23630.8 128495.6 22892.8 Q 128207.6 22154.8 128207.6 21146.8 Q 128207.6 19178.8 129593.6 18122.8 Q 130979.6 17066.8 133811.6 16970.8 L 136019.6 16888 L 136019.6 16058.8 Q 136019.6 15256 135845.6 14716 Q 135671.6 14176 135341.6 13846 Q 135011.6 13516 134525.6 13372 Q 134039.6 13228 133415.6 13228 Q 132420.8 13228 131562.8 13516 Q 130704.8 13804 129912.8 14212 L 129144.8 12569.2 Q 130032.8 12089.2 131124.8 11753.2 Q 132216.8 11417.2 133416.8 11417.2 Q 134640.8 11417.2 135534.8 11663.2 Q 136428.8 11909.2 137010.8 12443.2 Q 137592.8 12977.2 137880.8 13805.2 Q 138168.8 14633.2 138168.8 15809.2 L 138168.8 24833.2 L 136598 24833.2 L 136595.6 24832 Z M 132587.6 23306.8 Q 133318.4 23306.8 133942.4 23078.8 Q 134566.4 22850.8 135022.4 22388.8 Q 135478.4 21926.8 135736.4 21224.8 Q 135994.4 20522.8 135994.4 19576 L 135994.4 18386.8 L 134277.2 18472 Q 133197.2 18520 132465.2 18712 Q 131733.2 18904 131295.2 19246 Q 130857.2 19588 130665.2 20074 Q 130473.2 20560 130473.2 21170.8 Q 130473.2 22274.8 131055.2 22790.8 Q 131637.2 23306.8 132586.4 23306.8 L 132587.6 23306.8 Z M 144056 23282.8 Q 144272 23282.8 144542 23258.8 Q 144812 23234.8 145064 23198.8 Q 145316 23162.8 145526 23114.8 Q 145736 23066.8 145845.2 23032 L 145845.2 24688 Q 145688 24760 145448 24832 Q 145208 24904 144920 24958 Q 144632 25012 144320 25042 Q 144008 25072 143709.2 25072 Q 142965.2 25072 142329.2 24880 Q 141693.2 24688 141231.2 24220 Q 140769.2 23752 140505.2 22954 Q 140241.2 22156 140241.2 20945.2 L 140241.2 13300 L 138382.4 13300 L 138382.4 12329.2 L 140241.2 11393.2 L 141177.2 8633.2 L 142438.4 8633.2 L 142438.4 11657.2 L 145750.4 11657.2 L 145750.4 13300 L 142438.4 13300 L 142438.4 20945.2 Q 142438.4 22108 142816.4 22696 Q 143194.4 23284 144058.4 23284 L 144056 23282.8 Z M 151526.4 25072 Q 150206.4 25072 149114.4 24628 Q 148022.4 24184 147236.4 23332 Q 146450.4 22480 146018.4 21220 Q 145586.4 19960 145586.4 18338.8 Q 145586.4 16706.8 145982.4 15422.8 Q 146378.4 14138.8 147098.4 13244.8 Q 147818.4 12350.8 148820.4 11882.8 Q 149822.4 11414.8 151035.6 11414.8 Q 152222.4 11414.8 153170.4 11840.8 Q 154118.4 12266.8 154778.4 13040.8 Q 155438.4 13814.8 155792.4 14900.8 Q 156146.4 15986.8 156146.4 17306.8 L 156146.4 18664 L 147842.4 18664 Q 147901.2 20978.8 148819.2 22070.8 Q 149737.2 23162.8 151548 23162.8 Q 152161.2 23162.8 152683.2 23102.8 Q 153205.2 23042.8 153691.2 22928.8 Q 154177.2 22814.8 154633.2 22640.8 Q 155089.2 22466.8 155556 22250.8 L 155556 24194.8 Q 155076 24424 154614 24592 Q 154152 24760 153666 24868 Q 153180 24976 152658 25024 Q 152136 25072 151522.8 25072 L 151526.4 25072 Z M 150987.6 13226.8 Q 149619.6 13226.8 148821.6 14162.8 Q 148023.6 15098.8 147892.8 16888 L 153796.8 16888 Q 153796.8 16072 153634.8 15394 Q 153472.8 14716 153130.8 14236 Q 152788.8 13756 152260.8 13492 Q 151732.8 13228 150988.8 13228 L 150987.6 13226.8 Z " fill-rule="nonzero" style="fill:#f2f2f2;;fill-opacity:1;"/>
</svg>