<svg version="1.1" x="0" y="0" width="100%" height="100%" viewBox="0 0 271001.6 33740.8" xmlns="http://www.w3.org/2000/svg">
  <path d="M 47851.2 23282.8 Q 48067.2 23282.8 48337.2 23258.8 Q 48607.2 23234.8 48859.2 23198.8 Q 49111.2 23162.8 49321.2 23114.8 Q 49531.2 23066.8 49640.4 23032 L 49640.4 24688 Q 49483.2 24760 49243.2 24832 Q 49003.2 24904 48715.2 24958 Q 48427.2 25012 48115.2 25042 Q 47803.2 25072 47504.4 25072 Q 46760.4 25072 46124.4 24880 Q 45488.4 24688 45026.4 24220 Q 44564.4 23752 44300.4 22954 Q 44036.4 22156 44036.4 20945.2 L 44036.4 13300 L 42177.6 13300 L 42177.6 12329.2 L 44036.4 11393.2 L 44972.4 8633.2 L 46233.6 8633.2 L 46233.6 11657.2 L 49545.6 11657.2 L 49545.6 13300 L 46233.6 13300 L 46233.6 20945.2 Q 46233.6 22108 46611.6 22696 Q 46989.6 23284 47853.6 23284 L 47851.2 23282.8 Z M 58646.8 24832 L 58321.6 23066.8 L 58201.6 23066.8 Q 57902.8 23584 57488.8 23962 Q 57074.8 24340 56582.8 24586 Q 56090.8 24832 55538.8 24952 Q 54986.8 25072 54410.8 25072 Q 53320 25072 52492 24796 Q 51664 24520 51112 23932 Q 50560 23344 50278 22432 Q 49996 21520 49996 20258.8 L 49996 11656 L 52180 11656 L 52180 20138.8 Q 52180 21698.8 52816 22478.8 Q 53452 23258.8 54785.2 23258.8 Q 55756 23258.8 56416 22946.8 Q 57076 22634.8 57478 22028.8 Q 57880 21422.8 58054 20534.8 Q 58228 19646.8 58228 18494.8 L 58228 11654.8 L 60412 11654.8 L 60412 24830.8 L 58649.2 24830.8 L 58646.8 24832 Z M 72478.8 13298.8 L 69537.6 13298.8 L 69537.6 24832 L 67342.8 24832 L 67342.8 13298.8 L 65014.8 13298.8 L 65014.8 12400 L 67342.8 11584 L 67342.8 10432 Q 67342.8 9146.8 67612.8 8300.8 Q 67882.8 7454.8 68392.8 6950.8 Q 68902.8 6446.8 69646.8 6236.8 Q 70390.8 6026.8 71326.8 6026.8 Q 72033.6 6026.8 72627.6 6164.8 Q 73221.6 6302.8 73688.4 6470.8 L 73125.6 8161.6 Q 72752.4 8030.8 72314.4 7928.8 Q 71876.4 7826.8 71396.4 7826.8 Q 70916.4 7826.8 70568.4 7940.8 Q 70220.4 8054.8 69992.4 8342.8 Q 69764.4 8630.8 69650.4 9128.8 Q 69536.4 9626.8 69536.4 10408 L 69536.4 11656 L 72477.6 11656 L 72477.6 13298.8 L 72478.8 13298.8 Z M 74928 24832 L 72744 24832 L 72744 6160 L 74928 6160 L 74928 24832 Z M 85526.8 24832 L 85201.6 23066.8 L 85081.6 23066.8 Q 84782.8 23584 84368.8 23962 Q 83954.8 24340 83462.8 24586 Q 82970.8 24832 82418.8 24952 Q 81866.8 25072 81290.8 25072 Q 80200 25072 79372 24796 Q 78544 24520 77992 23932 Q 77440 23344 77158 22432 Q 76876 21520 76876 20258.8 L 76876 11656 L 79060 11656 L 79060 20138.8 Q 79060 21698.8 79696 22478.8 Q 80332 23258.8 81665.2 23258.8 Q 82636 23258.8 83296 22946.8 Q 83956 22634.8 84358 22028.8 Q 84760 21422.8 84934 20534.8 Q 85108 19646.8 85108 18494.8 L 85108 11654.8 L 87292 11654.8 L 87292 24830.8 L 85529.2 24830.8 L 85526.8 24832 Z M 91568 24832 L 89384 24832 L 89384 11656 L 91568 11656 L 91568 24832 Z M 89216 8090.8 Q 89216 7370.8 89582 7046.8 Q 89948 6722.8 90486.8 6722.8 Q 90750.8 6722.8 90984.8 6800.8 Q 91218.8 6878.8 91392.8 7046.8 Q 91566.8 7214.8 91668.8 7472.8 Q 91770.8 7730.8 91770.8 8090.8 Q 91770.8 8786.8 91392.8 9128.8 Q 91014.8 9470.8 90486.8 9470.8 Q 89948 9470.8 89582 9134.8 Q 89216 8798.8 89216 8089.6 L 89216 8090.8 Z M 101769.6 23066.8 L 101673.6 23066.8 Q 101409.6 23474.8 101055.6 23840.8 Q 100701.6 24206.8 100239.6 24482.8 Q 99777.6 24758.8 99201.6 24914.8 Q 98625.6 25070.8 97905.6 25070.8 Q 96790.8 25070.8 95866.8 24638.8 Q 94942.8 24206.8 94282.8 23348.8 Q 93622.8 22490.8 93262.8 21218.8 Q 92902.8 19946.8 92902.8 18266.8 Q 92902.8 16576 93262.8 15298 Q 93622.8 14020 94282.8 13156 Q 94942.8 12292 95866.8 11854 Q 96790.8 11416 97905.6 11416 Q 98614.8 11416 99190.8 11572 Q 99766.8 11728 100228.8 11992 Q 100690.8 12256 101050.8 12604 Q 101410.8 12952 101674.8 13336 L 101818.8 13336 Q 101784 12928 101746.8 12554.8 Q 101722.8 12242.8 101698.8 11912.8 Q 101674.8 11582.8 101674.8 11390.8 L 101674.8 6158.8 L 103858.8 6158.8 L 103858.8 24830.8 L 102096 24830.8 L 101770.8 23065.6 L 101769.6 23066.8 Z M 98326.8 23258.8 Q 99238.8 23258.8 99868.8 22982.8 Q 100498.8 22706.8 100888.8 22142.8 Q 101278.8 21578.8 101464.8 20732.8 Q 101650.8 19886.8 101674.8 18758.8 L 101674.8 18265.6 Q 101674.8 17054.8 101512.8 16112.8 Q 101350.8 15170.8 100960.8 14528.8 Q 100570.8 13886.8 99922.8 13556.8 Q 99274.8 13226.8 98304 13226.8 Q 96682.8 13226.8 95920.8 14534.8 Q 95158.8 15842.8 95158.8 18290.8 Q 95158.8 20800 95920.8 22030 Q 96682.8 23260 98328 23260 L 98326.8 23258.8 Z M 111232 25072 Q 109912 25072 108820 24628 Q 107728 24184 106942 23332 Q 106156 22480 105724 21220 Q 105292 19960 105292 18338.8 Q 105292 16706.8 105688 15422.8 Q 106084 14138.8 106804 13244.8 Q 107524 12350.8 108526 11882.8 Q 109528 11414.8 110741.2 11414.8 Q 111928 11414.8 112876 11840.8 Q 113824 12266.8 114484 13040.8 Q 115144 13814.8 115498 14900.8 Q 115852 15986.8 115852 17306.8 L 115852 18664 L 107548 18664 Q 107606.8 20978.8 108524.8 22070.8 Q 109442.8 23162.8 111253.6 23162.8 Q 111866.8 23162.8 112388.8 23102.8 Q 112910.8 23042.8 113396.8 22928.8 Q 113882.8 22814.8 114338.8 22640.8 Q 114794.8 22466.8 115261.6 22250.8 L 115261.6 24194.8 Q 114781.6 24424 114319.6 24592 Q 113857.6 24760 113371.6 24868 Q 112885.6 24976 112363.6 25024 Q 111841.6 25072 111228.4 25072 L 111232 25072 Z M 110693.2 13226.8 Q 109325.2 13226.8 108527.2 14162.8 Q 107729.2 15098.8 107598.4 16888 L 113502.4 16888 Q 113502.4 16072 113340.4 15394 Q 113178.4 14716 112836.4 14236 Q 112494.4 13756 111966.4 13492 Q 111438.4 13228 110694.4 13228 L 110693.2 13226.8 Z M 124797.2 24832 L 115928 24832 L 115928 23330.8 L 122360 13298.8 L 116325.2 13298.8 L 116325.2 11656 L 124581.2 11656 L 124581.2 13408 L 118293.2 23186.8 L 124797.2 23186.8 L 124797.2 24832 Z M 128068.8 11656 L 130338 11656 L 132916.8 19010.8 Q 133084.8 19490.8 133258.8 20018.8 Q 133432.8 20546.8 133582.8 21074.8 Q 133732.8 21602.8 133840.8 22094.8 Q 133948.8 22586.8 133996.8 23008 L 134068.8 23008 Q 134130 22706.8 134262 22190.8 Q 134394 21674.8 134556 21092.8 Q 134718 20510.8 134892 19946.8 Q 135066 19382.8 135196.8 18985.6 L 137586 11654.8 L 139842 11654.8 L 134634 26548 Q 134298 27518.8 133908 28292.8 Q 133518 29066.8 133002 29606.8 Q 132486 30146.8 131790 30440.8 Q 131094 30734.8 130134 30734.8 Q 129510 30734.8 129054 30668.8 Q 128598 30602.8 128275.2 30530.8 L 128275.2 28789.6 Q 128526 28850.8 128910 28892.8 Q 129294 28934.8 129715.2 28934.8 Q 130291.2 28934.8 130711.2 28796.8 Q 131131.2 28658.8 131443.2 28394.8 Q 131755.2 28130.8 131977.2 27746.8 Q 132199.2 27362.8 132380.4 26869.6 L 133063.2 24949.6 L 128071.2 11653.6 L 128068.8 11656 Z M 149259.2 25072 Q 148048.4 25072 146992.4 24694 Q 145936.4 24316 145156.4 23494 Q 144376.4 22672 143932.4 21394 Q 143488.4 20116 143488.4 18316 Q 143488.4 16433.2 143944.4 15119.2 Q 144400.4 13805.2 145198.4 12983.2 Q 145996.4 12161.2 147064.4 11789.2 Q 148132.4 11417.2 149356.4 11417.2 Q 150292.4 11417.2 151186.4 11621.2 Q 152080.4 11825.2 152680.4 12124 L 152032.4 13972 Q 151755.2 13852 151419.2 13738 Q 151083.2 13624 150723.2 13534 Q 150363.2 13444 150015.2 13390 Q 149667.2 13336 149355.2 13336 Q 147472.4 13336 146608.4 14542 Q 145744.4 15748 145744.4 18292 Q 145744.4 20825.2 146614.4 21995.2 Q 147484.4 23165.2 149260.4 23165.2 Q 150233.6 23165.2 151019.6 22943.2 Q 151805.6 22721.2 152453.6 22420 L 152453.6 24364 Q 151805.6 24713.2 151067.6 24893.2 Q 150329.6 25073.2 149260.4 25073.2 L 149259.2 25072 Z M 164278.8 18218.8 Q 164278.8 19864 163876.8 21142 Q 163474.8 22420 162724.8 23290 Q 161974.8 24160 160906.8 24616 Q 159838.8 25072 158505.6 25072 Q 157270.8 25072 156226.8 24616 Q 155182.8 24160 154420.8 23290 Q 153658.8 22420 153232.8 21142 Q 152806.8 19864 152806.8 18218.8 Q 152806.8 16586.8 153208.8 15320.8 Q 153610.8 14054.8 154354.8 13184.8 Q 155098.8 12314.8 156172.8 11864.8 Q 157246.8 11414.8 158577.6 11414.8 Q 159814.8 11414.8 160858.8 11864.8 Q 161902.8 12314.8 162664.8 13184.8 Q 163426.8 14054.8 163852.8 15320.8 Q 164278.8 16586.8 164278.8 18218.8  Z M 155062.8 18218.8 Q 155062.8 20728 155884.8 21994 Q 156706.8 23260 158554.8 23260 Q 160402.8 23260 161212.8 21994 Q 162022.8 20728 162022.8 18218.8 Q 162022.8 15712 161200.8 14470 Q 160378.8 13228 158530.8 13228 Q 156682.8 13228 155872.8 14470 Q 155062.8 15712 155062.8 18218.8  Z M 173904 24832 L 173904 16346.8 Q 173904 14786.8 173274 14006.8 Q 172644 13226.8 171300 13226.8 Q 170326.8 13226.8 169666.8 13538.8 Q 169006.8 13850.8 168604.8 14462.8 Q 168202.8 15074.8 168028.8 15962.8 Q 167854.8 16850.8 167854.8 18002.8 L 167854.8 24832 L 165670.8 24832 L 165670.8 11656 L 167446.8 11656 L 167758.8 13432 L 167878.8 13432 Q 168180 12914.8 168594 12536.8 Q 169008 12158.8 169500 11906.8 Q 169992 11654.8 170544 11534.8 Q 171096 11414.8 171672 11414.8 Q 173869.2 11414.8 174979.2 12560.8 Q 176089.2 13706.8 176089.2 16226.8 L 176089.2 24832 L 173905.2 24832 L 173904 24832 Z M 183787.6 13298.8 L 180846.4 13298.8 L 180846.4 24832 L 178651.6 24832 L 178651.6 13298.8 L 176323.6 13298.8 L 176323.6 12400 L 178651.6 11584 L 178651.6 10432 Q 178651.6 9146.8 178921.6 8300.8 Q 179191.6 7454.8 179701.6 6950.8 Q 180211.6 6446.8 180955.6 6236.8 Q 181699.6 6026.8 182635.6 6026.8 Q 183342.4 6026.8 183936.4 6164.8 Q 184530.4 6302.8 184997.2 6470.8 L 184434.4 8161.6 Q 184061.2 8030.8 183623.2 7928.8 Q 183185.2 7826.8 182705.2 7826.8 Q 182225.2 7826.8 181877.2 7940.8 Q 181529.2 8054.8 181301.2 8342.8 Q 181073.2 8630.8 180959.2 9128.8 Q 180845.2 9626.8 180845.2 10408 L 180845.2 11656 L 183786.4 11656 L 183786.4 13298.8 L 183787.6 13298.8 Z M 186236.8 24832 L 184052.8 24832 L 184052.8 11656 L 186236.8 11656 L 186236.8 24832 Z M 183884.8 8090.8 Q 183884.8 7370.8 184250.8 7046.8 Q 184616.8 6722.8 185155.6 6722.8 Q 185419.6 6722.8 185653.6 6800.8 Q 185887.6 6878.8 186061.6 7046.8 Q 186235.6 7214.8 186337.6 7472.8 Q 186439.6 7730.8 186439.6 8090.8 Q 186439.6 8786.8 186061.6 9128.8 Q 185683.6 9470.8 185155.6 9470.8 Q 184616.8 9470.8 184250.8 9134.8 Q 183884.8 8798.8 183884.8 8089.6 L 183884.8 8090.8 Z M 195731.6 24832 L 195286.4 23008 L 195190.4 23008 Q 194795.6 23546.8 194399.6 23936.8 Q 194003.6 24326.8 193535.6 24578.8 Q 193067.6 24830.8 192491.6 24950.8 Q 191915.6 25070.8 191158.4 25070.8 Q 190331.6 25070.8 189635.6 24836.8 Q 188939.6 24602.8 188429.6 24116.8 Q 187919.6 23630.8 187631.6 22892.8 Q 187343.6 22154.8 187343.6 21146.8 Q 187343.6 19178.8 188729.6 18122.8 Q 190115.6 17066.8 192947.6 16970.8 L 195155.6 16888 L 195155.6 16058.8 Q 195155.6 15256 194981.6 14716 Q 194807.6 14176 194477.6 13846 Q 194147.6 13516 193661.6 13372 Q 193175.6 13228 192551.6 13228 Q 191556.8 13228 190698.8 13516 Q 189840.8 13804 189048.8 14212 L 188280.8 12569.2 Q 189168.8 12089.2 190260.8 11753.2 Q 191352.8 11417.2 192552.8 11417.2 Q 193776.8 11417.2 194670.8 11663.2 Q 195564.8 11909.2 196146.8 12443.2 Q 196728.8 12977.2 197016.8 13805.2 Q 197304.8 14633.2 197304.8 15809.2 L 197304.8 24833.2 L 195734 24833.2 L 195731.6 24832 Z M 191723.6 23306.8 Q 192454.4 23306.8 193078.4 23078.8 Q 193702.4 22850.8 194158.4 22388.8 Q 194614.4 21926.8 194872.4 21224.8 Q 195130.4 20522.8 195130.4 19576 L 195130.4 18386.8 L 193413.2 18472 Q 192333.2 18520 191601.2 18712 Q 190869.2 18904 190431.2 19246 Q 189993.2 19588 189801.2 20074 Q 189609.2 20560 189609.2 21170.8 Q 189609.2 22274.8 190191.2 22790.8 Q 190773.2 23306.8 191722.4 23306.8 L 191723.6 23306.8 Z M 207440 24832 L 207440 16346.8 Q 207440 14786.8 206810 14006.8 Q 206180 13226.8 204836 13226.8 Q 203862.8 13226.8 203202.8 13538.8 Q 202542.8 13850.8 202140.8 14462.8 Q 201738.8 15074.8 201564.8 15962.8 Q 201390.8 16850.8 201390.8 18002.8 L 201390.8 24832 L 199206.8 24832 L 199206.8 11656 L 200982.8 11656 L 201294.8 13432 L 201414.8 13432 Q 201716 12914.8 202130 12536.8 Q 202544 12158.8 203036 11906.8 Q 203528 11654.8 204080 11534.8 Q 204632 11414.8 205208 11414.8 Q 207405.2 11414.8 208515.2 12560.8 Q 209625.2 13706.8 209625.2 16226.8 L 209625.2 24832 L 207441.2 24832 L 207440 24832 Z M 219363.6 24832 L 210494.4 24832 L 210494.4 23330.8 L 216926.4 13298.8 L 210891.6 13298.8 L 210891.6 11656 L 219147.6 11656 L 219147.6 13408 L 212859.6 23186.8 L 219363.6 23186.8 L 219363.6 24832 Z M 227782.8 24832 L 227337.6 23008 L 227241.6 23008 Q 226846.8 23546.8 226450.8 23936.8 Q 226054.8 24326.8 225586.8 24578.8 Q 225118.8 24830.8 224542.8 24950.8 Q 223966.8 25070.8 223209.6 25070.8 Q 222382.8 25070.8 221686.8 24836.8 Q 220990.8 24602.8 220480.8 24116.8 Q 219970.8 23630.8 219682.8 22892.8 Q 219394.8 22154.8 219394.8 21146.8 Q 219394.8 19178.8 220780.8 18122.8 Q 222166.8 17066.8 224998.8 16970.8 L 227206.8 16888 L 227206.8 16058.8 Q 227206.8 15256 227032.8 14716 Q 226858.8 14176 226528.8 13846 Q 226198.8 13516 225712.8 13372 Q 225226.8 13228 224602.8 13228 Q 223608 13228 222750 13516 Q 221892 13804 221100 14212 L 220332 12569.2 Q 221220 12089.2 222312 11753.2 Q 223404 11417.2 224604 11417.2 Q 225828 11417.2 226722 11663.2 Q 227616 11909.2 228198 12443.2 Q 228780 12977.2 229068 13805.2 Q 229356 14633.2 229356 15809.2 L 229356 24833.2 L 227785.2 24833.2 L 227782.8 24832 Z M 223774.8 23306.8 Q 224505.6 23306.8 225129.6 23078.8 Q 225753.6 22850.8 226209.6 22388.8 Q 226665.6 21926.8 226923.6 21224.8 Q 227181.6 20522.8 227181.6 19576 L 227181.6 18386.8 L 225464.4 18472 Q 224384.4 18520 223652.4 18712 Q 222920.4 18904 222482.4 19246 Q 222044.4 19588 221852.4 20074 Q 221660.4 20560 221660.4 21170.8 Q 221660.4 22274.8 222242.4 22790.8 Q 222824.4 23306.8 223773.6 23306.8 L 223774.8 23306.8 Z " fill-rule="nonzero" style="fill:#d8d8d8;;fill-opacity:1;"/>
</svg>