<svg version="1.1" x="0" y="0" width="100%" height="100%" viewBox="0 0 250521.6 75673.6" xmlns="http://www.w3.org/2000/svg">
  <path d="M 38147.2 15890.8 Q 38147.2 18112 37571.2 19786 Q 36995.2 21460 35903.2 22582 Q 34811.2 23704 33221.2 24268 Q 31631.2 24832 29615.2 24832 L 25223.2 24832 L 25223.2 7288 L 30106 7288 Q 31943.2 7288 33431.2 7840 Q 34919.2 8392 35963.2 9478 Q 37007.2 10564 37577.2 12172 Q 38147.2 13780 38147.2 15892 L 38147.2 15890.8 Z M 35784.4 15962.8 Q 35784.4 14210.8 35388.4 12932.8 Q 34992.4 11654.8 34236.4 10826.8 Q 33480.4 9998.8 32376.4 9596.8 Q 31272.4 9194.8 29867.2 9194.8 L 27456.4 9194.8 L 27456.4 22912 L 29400.4 22912 Q 32568.4 22912 34176.4 21160 Q 35784.4 19408 35784.4 15962.8  Z M 48150.8 24832 L 47825.6 23066.8 L 47705.6 23066.8 Q 47406.8 23584 46992.8 23962 Q 46578.8 24340 46086.8 24586 Q 45594.8 24832 45042.8 24952 Q 44490.8 25072 43914.8 25072 Q 42824 25072 41996 24796 Q 41168 24520 40616 23932 Q 40064 23344 39782 22432 Q 39500 21520 39500 20258.8 L 39500 11656 L 41684 11656 L 41684 20138.8 Q 41684 21698.8 42320 22478.8 Q 42956 23258.8 44289.2 23258.8 Q 45260 23258.8 45920 22946.8 Q 46580 22634.8 46982 22028.8 Q 47384 21422.8 47558 20534.8 Q 47732 19646.8 47732 18494.8 L 47732 11654.8 L 49916 11654.8 L 49916 24830.8 L 48153.2 24830.8 L 48150.8 24832 Z M 57709.2 11416 Q 58056 11416 58488 11446 Q 58920 11476 59232 11537.2 L 58944 13553.2 Q 58608 13492 58254 13450 Q 57900 13408 57588 13408 Q 56830.8 13408 56206.8 13714 Q 55582.8 14020 55132.8 14590 Q 54682.8 15160 54436.8 15958 Q 54190.8 16756 54190.8 17729.2 L 54190.8 24833.2 L 52006.8 24833.2 L 52006.8 11657.2 L 53782.8 11657.2 L 54046.8 14068 L 54142.8 14068 Q 54444 13553.2 54786 13073.2 Q 55128 12593.2 55554 12227.2 Q 55980 11861.2 56508 11639.2 Q 57036 11417.2 57708 11417.2 L 57709.2 11416 Z M 67219.6 24832 L 66774.4 23008 L 66678.4 23008 Q 66283.6 23546.8 65887.6 23936.8 Q 65491.6 24326.8 65023.6 24578.8 Q 64555.6 24830.8 63979.6 24950.8 Q 63403.6 25070.8 62646.4 25070.8 Q 61819.6 25070.8 61123.6 24836.8 Q 60427.6 24602.8 59917.6 24116.8 Q 59407.6 23630.8 59119.6 22892.8 Q 58831.6 22154.8 58831.6 21146.8 Q 58831.6 19178.8 60217.6 18122.8 Q 61603.6 17066.8 64435.6 16970.8 L 66643.6 16888 L 66643.6 16058.8 Q 66643.6 15256 66469.6 14716 Q 66295.6 14176 65965.6 13846 Q 65635.6 13516 65149.6 13372 Q 64663.6 13228 64039.6 13228 Q 63044.8 13228 62186.8 13516 Q 61328.8 13804 60536.8 14212 L 59768.8 12569.2 Q 60656.8 12089.2 61748.8 11753.2 Q 62840.8 11417.2 64040.8 11417.2 Q 65264.8 11417.2 66158.8 11663.2 Q 67052.8 11909.2 67634.8 12443.2 Q 68216.8 12977.2 68504.8 13805.2 Q 68792.8 14633.2 68792.8 15809.2 L 68792.8 24833.2 L 67222 24833.2 L 67219.6 24832 Z M 63211.6 23306.8 Q 63942.4 23306.8 64566.4 23078.8 Q 65190.4 22850.8 65646.4 22388.8 Q 66102.4 21926.8 66360.4 21224.8 Q 66618.4 20522.8 66618.4 19576 L 66618.4 18386.8 L 64901.2 18472 Q 63821.2 18520 63089.2 18712 Q 62357.2 18904 61919.2 19246 Q 61481.2 19588 61289.2 20074 Q 61097.2 20560 61097.2 21170.8 Q 61097.2 22274.8 61679.2 22790.8 Q 62261.2 23306.8 63210.4 23306.8 L 63211.6 23306.8 Z M 75736 25072 Q 74525.2 25072 73469.2 24694 Q 72413.2 24316 71633.2 23494 Q 70853.2 22672 70409.2 21394 Q 69965.2 20116 69965.2 18316 Q 69965.2 16433.2 70421.2 15119.2 Q 70877.2 13805.2 71675.2 12983.2 Q 72473.2 12161.2 73541.2 11789.2 Q 74609.2 11417.2 75833.2 11417.2 Q 76769.2 11417.2 77663.2 11621.2 Q 78557.2 11825.2 79157.2 12124 L 78509.2 13972 Q 78232 13852 77896 13738 Q 77560 13624 77200 13534 Q 76840 13444 76492 13390 Q 76144 13336 75832 13336 Q 73949.2 13336 73085.2 14542 Q 72221.2 15748 72221.2 18292 Q 72221.2 20825.2 73091.2 21995.2 Q 73961.2 23165.2 75737.2 23165.2 Q 76710.4 23165.2 77496.4 22943.2 Q 78282.4 22721.2 78930.4 22420 L 78930.4 24364 Q 78282.4 24713.2 77544.4 24893.2 Q 76806.4 25073.2 75737.2 25073.2 L 75736 25072 Z M 82198.4 24832 L 80014.4 24832 L 80014.4 11656 L 82198.4 11656 L 82198.4 24832 Z M 79846.4 8090.8 Q 79846.4 7370.8 80212.4 7046.8 Q 80578.4 6722.8 81117.2 6722.8 Q 81381.2 6722.8 81615.2 6800.8 Q 81849.2 6878.8 82023.2 7046.8 Q 82197.2 7214.8 82299.2 7472.8 Q 82401.2 7730.8 82401.2 8090.8 Q 82401.2 8786.8 82023.2 9128.8 Q 81645.2 9470.8 81117.2 9470.8 Q 80578.4 9470.8 80212.4 9134.8 Q 79846.4 8798.8 79846.4 8089.6 L 79846.4 8090.8 Z M 95005.2 18218.8 Q 95005.2 19864 94603.2 21142 Q 94201.2 22420 93451.2 23290 Q 92701.2 24160 91633.2 24616 Q 90565.2 25072 89232 25072 Q 87997.2 25072 86953.2 24616 Q 85909.2 24160 85147.2 23290 Q 84385.2 22420 83959.2 21142 Q 83533.2 19864 83533.2 18218.8 Q 83533.2 16586.8 83935.2 15320.8 Q 84337.2 14054.8 85081.2 13184.8 Q 85825.2 12314.8 86899.2 11864.8 Q 87973.2 11414.8 89304 11414.8 Q 90541.2 11414.8 91585.2 11864.8 Q 92629.2 12314.8 93391.2 13184.8 Q 94153.2 14054.8 94579.2 15320.8 Q 95005.2 16586.8 95005.2 18218.8  Z M 85789.2 18218.8 Q 85789.2 20728 86611.2 21994 Q 87433.2 23260 89281.2 23260 Q 91129.2 23260 91939.2 21994 Q 92749.2 20728 92749.2 18218.8 Q 92749.2 15712 91927.2 14470 Q 91105.2 13228 89257.2 13228 Q 87409.2 13228 86599.2 14470 Q 85789.2 15712 85789.2 18218.8  Z M 87916.8 9616 Q 88180.8 9266.8 88462.8 8810.8 Q 88744.8 8354.8 89026.8 7868.8 Q 89308.8 7382.8 89560.8 6896.8 Q 89812.8 6410.8 90004.8 6002.8 L 92631.6 6002.8 L 92631.6 6256 Q 92439.6 6578.8 92061.6 7064.8 Q 91683.6 7550.8 91221.6 8078.8 Q 90759.6 8606.8 90273.6 9104.8 Q 89787.6 9602.8 89366.4 9938.8 L 87915.6 9938.8 L 87915.6 9616 L 87916.8 9616 Z M 104630.4 24832 L 104630.4 16346.8 Q 104630.4 14786.8 104000.4 14006.8 Q 103370.4 13226.8 102026.4 13226.8 Q 101053.2 13226.8 100393.2 13538.8 Q 99733.2 13850.8 99331.2 14462.8 Q 98929.2 15074.8 98755.2 15962.8 Q 98581.2 16850.8 98581.2 18002.8 L 98581.2 24832 L 96397.2 24832 L 96397.2 11656 L 98173.2 11656 L 98485.2 13432 L 98605.2 13432 Q 98906.4 12914.8 99320.4 12536.8 Q 99734.4 12158.8 100226.4 11906.8 Q 100718.4 11654.8 101270.4 11534.8 Q 101822.4 11414.8 102398.4 11414.8 Q 104595.6 11414.8 105705.6 12560.8 Q 106815.6 13706.8 106815.6 16226.8 L 106815.6 24832 L 104631.6 24832 L 104630.4 24832 Z M 108466 23498.8 Q 108466 23042.8 108586 22724.8 Q 108706 22406.8 108910 22208.8 Q 109114 22010.8 109390 21920.8 Q 109666 21830.8 109988.8 21830.8 Q 110300.8 21830.8 110582.8 21920.8 Q 110864.8 22010.8 111068.8 22208.8 Q 111272.8 22406.8 111392.8 22724.8 Q 111512.8 23042.8 111512.8 23498.8 Q 111512.8 23944 111392.8 24262 Q 111272.8 24580 111068.8 24785.2 Q 110864.8 24990.4 110582.8 25086.4 Q 110300.8 25182.4 109988.8 25182.4 Q 109666 25182.4 109390 25086.4 Q 109114 24990.4 108910 24785.2 Q 108706 24580 108586 24262 Q 108466 23944 108466 23498.8  Z M 108466 12986.8 Q 108466 12520 108586 12202 Q 108706 11884 108910 11686 Q 109114 11488 109390 11404 Q 109666 11320 109988.8 11320 Q 110300.8 11320 110582.8 11404 Q 110864.8 11488 111068.8 11686 Q 111272.8 11884 111392.8 12202 Q 111512.8 12520 111512.8 12986.8 Q 111512.8 13432 111392.8 13744 Q 111272.8 14056 111068.8 14260 Q 110864.8 14464 110582.8 14560 Q 110300.8 14656 109988.8 14656 Q 109666 14656 109390 14560 Q 109114 14464 108910 14260 Q 108706 14056 108586 13744 Q 108466 13432 108466 12986.8  Z M 127500.8 24832 L 116556.8 24832 L 116556.8 22960 L 120756.8 18386.8 Q 121658 17416 122366 16612 Q 123074 15808 123572 15040 Q 124070 14272 124334 13498 Q 124598 12724 124598 11812 Q 124598 11105.2 124394 10565.2 Q 124190 10025.2 123812 9647.2 Q 123434 9269.2 122918 9077.2 Q 122402 8885.2 121764.8 8885.2 Q 120626 8885.2 119708 9347.2 Q 118790 9809.2 117963.2 10529.2 L 116739.2 9100 Q 117219.2 8668 117771.2 8290 Q 118323.2 7912 118959.2 7636 Q 119595.2 7360 120303.2 7198 Q 121011.2 7036 121790 7036 Q 122942 7036 123872 7360 Q 124802 7684 125450 8290 Q 126098 8896 126452 9766 Q 126806 10636 126806 11729.2 Q 126806 12748 126488 13672 Q 126170 14596 125612 15490 Q 125054 16384 124280 17284 Q 123506 18184 122604.8 19154.8 L 119234 22744 L 119234 22840 L 127500.8 22840 L 127500.8 24832 Z M 148992.4 24832 L 148992.4 16346.8 Q 148992.4 14786.8 148392.4 14006.8 Q 147792.4 13226.8 146531.2 13226.8 Q 145656.4 13226.8 145044.4 13508.8 Q 144432.4 13790.8 144042.4 14336.8 Q 143652.4 14882.8 143472.4 15692.8 Q 143292.4 16502.8 143292.4 17558.8 L 143292.4 24830.8 L 141097.6 24830.8 L 141097.6 16345.6 Q 141097.6 14785.6 140503.6 14005.6 Q 139909.6 13225.6 138650.8 13225.6 Q 137725.6 13225.6 137101.6 13537.6 Q 136477.6 13849.6 136099.6 14461.6 Q 135721.6 15073.6 135559.6 15961.6 Q 135397.6 16849.6 135397.6 18001.6 L 135397.6 24830.8 L 133213.6 24830.8 L 133213.6 11654.8 L 134989.6 11654.8 L 135301.6 13430.8 L 135421.6 13430.8 Q 135709.6 12913.6 136105.6 12535.6 Q 136501.6 12157.6 136975.6 11905.6 Q 137449.6 11653.6 137983.6 11533.6 Q 138517.6 11413.6 139069.6 11413.6 Q 140509.6 11413.6 141463.6 11941.6 Q 142417.6 12469.6 142873.6 13597.6 L 142969.6 13597.6 Q 143281.6 13032.4 143719.6 12624.4 Q 144157.6 12216.4 144679.6 11946.4 Q 145201.6 11676.4 145777.6 11544.4 Q 146353.6 11412.4 146953.6 11412.4 Q 149052.4 11412.4 150114.4 12558.4 Q 151176.4 13704.4 151176.4 16224.4 L 151176.4 24829.6 L 148992.4 24829.6 L 148992.4 24832 Z M 158336 25072 Q 157016 25072 155924 24628 Q 154832 24184 154046 23332 Q 153260 22480 152828 21220 Q 152396 19960 152396 18338.8 Q 152396 16706.8 152792 15422.8 Q 153188 14138.8 153908 13244.8 Q 154628 12350.8 155630 11882.8 Q 156632 11414.8 157845.2 11414.8 Q 159032 11414.8 159980 11840.8 Q 160928 12266.8 161588 13040.8 Q 162248 13814.8 162602 14900.8 Q 162956 15986.8 162956 17306.8 L 162956 18664 L 154652 18664 Q 154710.8 20978.8 155628.8 22070.8 Q 156546.8 23162.8 158357.6 23162.8 Q 158970.8 23162.8 159492.8 23102.8 Q 160014.8 23042.8 160500.8 22928.8 Q 160986.8 22814.8 161442.8 22640.8 Q 161898.8 22466.8 162365.6 22250.8 L 162365.6 24194.8 Q 161885.6 24424 161423.6 24592 Q 160961.6 24760 160475.6 24868 Q 159989.6 24976 159467.6 25024 Q 158945.6 25072 158332.4 25072 L 158336 25072 Z M 157797.2 13226.8 Q 156429.2 13226.8 155631.2 14162.8 Q 154833.2 15098.8 154702.4 16888 L 160606.4 16888 Q 160606.4 16072 160444.4 15394 Q 160282.4 14716 159940.4 14236 Q 159598.4 13756 159070.4 13492 Q 158542.4 13228 157798.4 13228 L 157797.2 13226.8 Z M 172021.2 21218.8 Q 172021.2 22178.8 171673.2 22898.8 Q 171325.2 23618.8 170671.2 24104.8 Q 170017.2 24590.8 169093.2 24830.8 Q 168169.2 25070.8 167017.2 25070.8 Q 165710.4 25070.8 164774.4 24860.8 Q 163838.4 24650.8 163129.2 24242.8 L 163129.2 22250.8 Q 163502.4 22442.8 163958.4 22628.8 Q 164414.4 22814.8 164918.4 22958.8 Q 165422.4 23102.8 165956.4 23192.8 Q 166490.4 23282.8 167018.4 23282.8 Q 167799.6 23282.8 168345.6 23150.8 Q 168891.6 23018.8 169233.6 22772.8 Q 169575.6 22526.8 169731.6 22172.8 Q 169887.6 21818.8 169887.6 21386.8 Q 169887.6 21016 169767.6 20716 Q 169647.6 20416 169329.6 20122 Q 169011.6 19828 168459.6 19528 Q 167907.6 19228 167043.6 18857.2 Q 166179.6 18484 165489.6 18124 Q 164799.6 17764 164319.6 17320 Q 163839.6 16876 163581.6 16294 Q 163323.6 15712 163323.6 14906.8 Q 163323.6 14066.8 163653.6 13412.8 Q 163983.6 12758.8 164583.6 12314.8 Q 165183.6 11870.8 166023.6 11642.8 Q 166863.6 11414.8 167895.6 11414.8 Q 169058.4 11414.8 170024.4 11666.8 Q 170990.4 11918.8 171854.4 12326.8 L 171097.2 14089.6 Q 170318.4 13742.8 169496.4 13484.8 Q 168674.4 13226.8 167823.6 13226.8 Q 166599.6 13226.8 166011.6 13628.8 Q 165423.6 14030.8 165423.6 14774.8 Q 165423.6 15193.6 165561.6 15505.6 Q 165699.6 15817.6 166035.6 16093.6 Q 166371.6 16369.6 166935.6 16651.6 Q 167499.6 16933.6 168339.6 17280.4 Q 169203.6 17640.4 169881.6 18000.4 Q 170559.6 18360.4 171039.6 18810.4 Q 171519.6 19260.4 171771.6 19836.4 Q 172023.6 20412.4 172023.6 21215.2 L 172021.2 21218.8 Z M 178355.2 25072 Q 177035.2 25072 175943.2 24628 Q 174851.2 24184 174065.2 23332 Q 173279.2 22480 172847.2 21220 Q 172415.2 19960 172415.2 18338.8 Q 172415.2 16706.8 172811.2 15422.8 Q 173207.2 14138.8 173927.2 13244.8 Q 174647.2 12350.8 175649.2 11882.8 Q 176651.2 11414.8 177864.4 11414.8 Q 179051.2 11414.8 179999.2 11840.8 Q 180947.2 12266.8 181607.2 13040.8 Q 182267.2 13814.8 182621.2 14900.8 Q 182975.2 15986.8 182975.2 17306.8 L 182975.2 18664 L 174671.2 18664 Q 174730 20978.8 175648 22070.8 Q 176566 23162.8 178376.8 23162.8 Q 178990 23162.8 179512 23102.8 Q 180034 23042.8 180520 22928.8 Q 181006 22814.8 181462 22640.8 Q 181918 22466.8 182384.8 22250.8 L 182384.8 24194.8 Q 181904.8 24424 181442.8 24592 Q 180980.8 24760 180494.8 24868 Q 180008.8 24976 179486.8 25024 Q 178964.8 25072 178351.6 25072 L 178355.2 25072 Z M 177816.4 13226.8 Q 176448.4 13226.8 175650.4 14162.8 Q 174852.4 15098.8 174721.6 16888 L 180625.6 16888 Q 180625.6 16072 180463.6 15394 Q 180301.6 14716 179959.6 14236 Q 179617.6 13756 179089.6 13492 Q 178561.6 13228 177817.6 13228 L 177816.4 13226.8 Z M 192040.4 21218.8 Q 192040.4 22178.8 191692.4 22898.8 Q 191344.4 23618.8 190690.4 24104.8 Q 190036.4 24590.8 189112.4 24830.8 Q 188188.4 25070.8 187036.4 25070.8 Q 185729.6 25070.8 184793.6 24860.8 Q 183857.6 24650.8 183148.4 24242.8 L 183148.4 22250.8 Q 183521.6 22442.8 183977.6 22628.8 Q 184433.6 22814.8 184937.6 22958.8 Q 185441.6 23102.8 185975.6 23192.8 Q 186509.6 23282.8 187037.6 23282.8 Q 187818.8 23282.8 188364.8 23150.8 Q 188910.8 23018.8 189252.8 22772.8 Q 189594.8 22526.8 189750.8 22172.8 Q 189906.8 21818.8 189906.8 21386.8 Q 189906.8 21016 189786.8 20716 Q 189666.8 20416 189348.8 20122 Q 189030.8 19828 188478.8 19528 Q 187926.8 19228 187062.8 18857.2 Q 186198.8 18484 185508.8 18124 Q 184818.8 17764 184338.8 17320 Q 183858.8 16876 183600.8 16294 Q 183342.8 15712 183342.8 14906.8 Q 183342.8 14066.8 183672.8 13412.8 Q 184002.8 12758.8 184602.8 12314.8 Q 185202.8 11870.8 186042.8 11642.8 Q 186882.8 11414.8 187914.8 11414.8 Q 189077.6 11414.8 190043.6 11666.8 Q 191009.6 11918.8 191873.6 12326.8 L 191116.4 14089.6 Q 190337.6 13742.8 189515.6 13484.8 Q 188693.6 13226.8 187842.8 13226.8 Q 186618.8 13226.8 186030.8 13628.8 Q 185442.8 14030.8 185442.8 14774.8 Q 185442.8 15193.6 185580.8 15505.6 Q 185718.8 15817.6 186054.8 16093.6 Q 186390.8 16369.6 186954.8 16651.6 Q 187518.8 16933.6 188358.8 17280.4 Q 189222.8 17640.4 189900.8 18000.4 Q 190578.8 18360.4 191058.8 18810.4 Q 191538.8 19260.4 191790.8 19836.4 Q 192042.8 20412.4 192042.8 21215.2 L 192040.4 21218.8 Z M 203368 25072 Q 202661.2 25072 202085.2 24916 Q 201509.2 24760 201047.2 24502 Q 200585.2 24244 200231.2 23896 Q 199877.2 23548 199600 23164 L 199456 23164 Q 199493.2 23572 199528 23945.2 Q 199552 24257.2 199576 24587.2 Q 199600 24917.2 199600 25109.2 L 199600 30736 L 197416 30736 L 197416 11656 L 199192 11656 L 199504 13432 L 199600 13432 Q 199877.2 13010.8 200225.2 12644.8 Q 200573.2 12278.8 201035.2 12008.8 Q 201497.2 11738.8 202073.2 11576.8 Q 202649.2 11414.8 203369.2 11414.8 Q 204497.2 11414.8 205421.2 11846.8 Q 206345.2 12278.8 206999.2 13136.8 Q 207653.2 13994.8 208013.2 15266.8 Q 208373.2 16538.8 208373.2 18218.8 Q 208373.2 19912 208013.2 21190 Q 207653.2 22468 206999.2 23332 Q 206345.2 24196 205421.2 24634 Q 204497.2 25072 203369.2 25072 L 203368 25072 Z M 202949.2 13226.8 Q 202037.2 13226.8 201407.2 13502.8 Q 200777.2 13778.8 200387.2 14342.8 Q 199997.2 14906.8 199811.2 15746.8 Q 199625.2 16586.8 199601.2 17728 L 199601.2 18218.8 Q 199601.2 19432 199763.2 20374 Q 199925.2 21316 200315.2 21958 Q 200705.2 22600 201353.2 22930 Q 202001.2 23260 202974.4 23260 Q 204593.2 23260 205355.2 21952 Q 206117.2 20644 206117.2 18196 Q 206117.2 15700 205355.2 14464 Q 204593.2 13228 202950.4 13228 L 202949.2 13226.8 Z M 220547.6 18218.8 Q 220547.6 19864 220145.6 21142 Q 219743.6 22420 218993.6 23290 Q 218243.6 24160 217175.6 24616 Q 216107.6 25072 214774.4 25072 Q 213539.6 25072 212495.6 24616 Q 211451.6 24160 210689.6 23290 Q 209927.6 22420 209501.6 21142 Q 209075.6 19864 209075.6 18218.8 Q 209075.6 16586.8 209477.6 15320.8 Q 209879.6 14054.8 210623.6 13184.8 Q 211367.6 12314.8 212441.6 11864.8 Q 213515.6 11414.8 214846.4 11414.8 Q 216083.6 11414.8 217127.6 11864.8 Q 218171.6 12314.8 218933.6 13184.8 Q 219695.6 14054.8 220121.6 15320.8 Q 220547.6 16586.8 220547.6 18218.8  Z M 211331.6 18218.8 Q 211331.6 20728 212153.6 21994 Q 212975.6 23260 214823.6 23260 Q 216671.6 23260 217481.6 21994 Q 218291.6 20728 218291.6 18218.8 Q 218291.6 15712 217469.6 14470 Q 216647.6 13228 214799.6 13228 Q 212951.6 13228 212141.6 14470 Q 211331.6 15712 211331.6 18218.8  Z M 227642 11416 Q 227988.8 11416 228420.8 11446 Q 228852.8 11476 229164.8 11537.2 L 228876.8 13553.2 Q 228540.8 13492 228186.8 13450 Q 227832.8 13408 227520.8 13408 Q 226763.6 13408 226139.6 13714 Q 225515.6 14020 225065.6 14590 Q 224615.6 15160 224369.6 15958 Q 224123.6 16756 224123.6 17729.2 L 224123.6 24833.2 L 221939.6 24833.2 L 221939.6 11657.2 L 223715.6 11657.2 L 223979.6 14068 L 224075.6 14068 Q 224376.8 13553.2 224718.8 13073.2 Q 225060.8 12593.2 225486.8 12227.2 Q 225912.8 11861.2 226440.8 11639.2 Q 226968.8 11417.2 227640.8 11417.2 L 227642 11416 Z M 112566.4 67788.8 L 112566.4 59303.6 Q 112566.4 57743.6 111936.4 56963.6 Q 111306.4 56183.6 109962.4 56183.6 Q 108989.2 56183.6 108329.2 56495.6 Q 107669.2 56807.6 107267.2 57419.6 Q 106865.2 58031.6 106691.2 58919.6 Q 106517.2 59807.6 106517.2 60959.6 L 106517.2 67788.8 L 104333.2 67788.8 L 104333.2 54612.8 L 106109.2 54612.8 L 106421.2 56388.8 L 106541.2 56388.8 Q 106842.4 55871.6 107256.4 55493.6 Q 107670.4 55115.6 108162.4 54863.6 Q 108654.4 54611.6 109206.4 54491.6 Q 109758.4 54371.6 110334.4 54371.6 Q 112531.6 54371.6 113641.6 55517.6 Q 114751.6 56663.6 114751.6 59183.6 L 114751.6 67788.8 L 112567.6 67788.8 L 112566.4 67788.8 Z M 118908.8 67788.8 L 116724.8 67788.8 L 116724.8 54612.8 L 118908.8 54612.8 L 118908.8 67788.8 Z M 116556.8 51047.6 Q 116556.8 50327.6 116922.8 50003.6 Q 117288.8 49679.6 117827.6 49679.6 Q 118091.6 49679.6 118325.6 49757.6 Q 118559.6 49835.6 118733.6 50003.6 Q 118907.6 50171.6 119009.6 50429.6 Q 119111.6 50687.6 119111.6 51047.6 Q 119111.6 51743.6 118733.6 52085.6 Q 118355.6 52427.6 117827.6 52427.6 Q 117288.8 52427.6 116922.8 52091.6 Q 116556.8 51755.6 116556.8 51046.4 L 116556.8 51047.6 Z M 123387.6 67788.8 L 118886.4 54612.8 L 121142.4 54612.8 L 123531.6 61943.6 Q 123662.4 62340.8 123842.4 62964.8 Q 124022.4 63588.8 124202.4 64236.8 Q 124382.4 64884.8 124532.4 65460.8 Q 124682.4 66036.8 124730.4 66335.6 L 124813.2 66335.6 Q 124874.4 66036.8 125018.4 65460.8 Q 125162.4 64884.8 125342.4 64236.8 Q 125522.4 63588.8 125702.4 62964.8 Q 125882.4 62340.8 126013.2 61943.6 L 128402.4 54612.8 L 130658.4 54612.8 L 126157.2 67788.8 L 123386.4 67788.8 L 123387.6 67788.8 Z M 135859.2 68028.8 Q 134539.2 68028.8 133447.2 67584.8 Q 132355.2 67140.8 131569.2 66288.8 Q 130783.2 65436.8 130351.2 64176.8 Q 129919.2 62916.8 129919.2 61295.6 Q 129919.2 59663.6 130315.2 58379.6 Q 130711.2 57095.6 131431.2 56201.6 Q 132151.2 55307.6 133153.2 54839.6 Q 134155.2 54371.6 135368.4 54371.6 Q 136555.2 54371.6 137503.2 54797.6 Q 138451.2 55223.6 139111.2 55997.6 Q 139771.2 56771.6 140125.2 57857.6 Q 140479.2 58943.6 140479.2 60263.6 L 140479.2 61620.8 L 132175.2 61620.8 Q 132234 63935.6 133152 65027.6 Q 134070 66119.6 135880.8 66119.6 Q 136494 66119.6 137016 66059.6 Q 137538 65999.6 138024 65885.6 Q 138510 65771.6 138966 65597.6 Q 139422 65423.6 139888.8 65207.6 L 139888.8 67151.6 Q 139408.8 67380.8 138946.8 67548.8 Q 138484.8 67716.8 137998.8 67824.8 Q 137512.8 67932.8 136990.8 67980.8 Q 136468.8 68028.8 135855.6 68028.8 L 135859.2 68028.8 Z M 135320.4 56183.6 Q 133952.4 56183.6 133154.4 57119.6 Q 132356.4 58055.6 132225.6 59844.8 L 138129.6 59844.8 Q 138129.6 59028.8 137967.6 58350.8 Q 137805.6 57672.8 137463.6 57192.8 Q 137121.6 56712.8 136593.6 56448.8 Q 136065.6 56184.8 135321.6 56184.8 L 135320.4 56183.6 Z M 143843.2 67788.8 L 141659.2 67788.8 L 141659.2 49116.8 L 143843.2 49116.8 L 143843.2 67788.8 Z M 145586 66455.6 Q 145586 65999.6 145706 65681.6 Q 145826 65363.6 146030 65165.6 Q 146234 64967.6 146510 64877.6 Q 146786 64787.6 147108.8 64787.6 Q 147420.8 64787.6 147702.8 64877.6 Q 147984.8 64967.6 148188.8 65165.6 Q 148392.8 65363.6 148512.8 65681.6 Q 148632.8 65999.6 148632.8 66455.6 Q 148632.8 66900.8 148512.8 67218.8 Q 148392.8 67536.8 148188.8 67742 Q 147984.8 67947.2 147702.8 68043.2 Q 147420.8 68139.2 147108.8 68139.2 Q 146786 68139.2 146510 68043.2 Q 146234 67947.2 146030 67742 Q 145826 67536.8 145706 67218.8 Q 145586 66900.8 145586 66455.6  Z " fill-rule="nonzero" style="fill:#535353;;fill-opacity:1;"/>
</svg>