<svg version="1.1" x="0" y="0" width="100%" height="100%" viewBox="0 0 127283.2 32716.8" xmlns="http://www.w3.org/2000/svg">
  <path d="M 6669.2 17584 L 6669.2 24832 L 4437.2 24832 L 4437.2 7288 L 8709.2 7288 Q 11901.2 7288 13425.2 8524 Q 14949.2 9760 14949.2 12266.8 Q 14949.2 13312 14655.2 14092 Q 14361.2 14872 13875.2 15430 Q 13389.2 15988 12765.2 16360 Q 12141.2 16732 11480 16972 L 16256 24833.2 L 13629.2 24833.2 L 9416 17585.2 L 6669.2 17585.2 L 6669.2 17584 Z M 6669.2 15688 L 8637.2 15688 Q 9717.2 15688 10473.2 15478 Q 11229.2 15268 11715.2 14854 Q 12201.2 14440 12423.2 13822 Q 12645.2 13204 12645.2 12377.2 Q 12645.2 11513.2 12399.2 10913.2 Q 12153.2 10313.2 11655.2 9929.2 Q 11157.2 9545.2 10395.2 9371.2 Q 9633.2 9197.2 8590.4 9197.2 L 6670.4 9197.2 L 6670.4 15690.4 L 6669.2 15688 Z M 22809.6 25072 Q 21489.6 25072 20397.6 24628 Q 19305.6 24184 18519.6 23332 Q 17733.6 22480 17301.6 21220 Q 16869.6 19960 16869.6 18338.8 Q 16869.6 16706.8 17265.6 15422.8 Q 17661.6 14138.8 18381.6 13244.8 Q 19101.6 12350.8 20103.6 11882.8 Q 21105.6 11414.8 22318.8 11414.8 Q 23505.6 11414.8 24453.6 11840.8 Q 25401.6 12266.8 26061.6 13040.8 Q 26721.6 13814.8 27075.6 14900.8 Q 27429.6 15986.8 27429.6 17306.8 L 27429.6 18664 L 19125.6 18664 Q 19184.4 20978.8 20102.4 22070.8 Q 21020.4 23162.8 22831.2 23162.8 Q 23444.4 23162.8 23966.4 23102.8 Q 24488.4 23042.8 24974.4 22928.8 Q 25460.4 22814.8 25916.4 22640.8 Q 26372.4 22466.8 26839.2 22250.8 L 26839.2 24194.8 Q 26359.2 24424 25897.2 24592 Q 25435.2 24760 24949.2 24868 Q 24463.2 24976 23941.2 25024 Q 23419.2 25072 22806 25072 L 22809.6 25072 Z M 22270.8 13226.8 Q 20902.8 13226.8 20104.8 14162.8 Q 19306.8 15098.8 19176 16888 L 25080 16888 Q 25080 16072 24918 15394 Q 24756 14716 24414 14236 Q 24072 13756 23544 13492 Q 23016 13228 22272 13228 L 22270.8 13226.8 Z M 34673.6 25072 Q 33462.8 25072 32406.8 24694 Q 31350.8 24316 30570.8 23494 Q 29790.8 22672 29346.8 21394 Q 28902.8 20116 28902.8 18316 Q 28902.8 16433.2 29358.8 15119.2 Q 29814.8 13805.2 30612.8 12983.2 Q 31410.8 12161.2 32478.8 11789.2 Q 33546.8 11417.2 34770.8 11417.2 Q 35706.8 11417.2 36600.8 11621.2 Q 37494.8 11825.2 38094.8 12124 L 37446.8 13972 Q 37169.6 13852 36833.6 13738 Q 36497.6 13624 36137.6 13534 Q 35777.6 13444 35429.6 13390 Q 35081.6 13336 34769.6 13336 Q 32886.8 13336 32022.8 14542 Q 31158.8 15748 31158.8 18292 Q 31158.8 20825.2 32028.8 21995.2 Q 32898.8 23165.2 34674.8 23165.2 Q 35648 23165.2 36434 22943.2 Q 37220 22721.2 37868 22420 L 37868 24364 Q 37220 24713.2 36482 24893.2 Q 35744 25073.2 34674.8 25073.2 L 34673.6 25072 Z M 48509.2 24832 L 48184 23066.8 L 48064 23066.8 Q 47765.2 23584 47351.2 23962 Q 46937.2 24340 46445.2 24586 Q 45953.2 24832 45401.2 24952 Q 44849.2 25072 44273.2 25072 Q 43182.4 25072 42354.4 24796 Q 41526.4 24520 40974.4 23932 Q 40422.4 23344 40140.4 22432 Q 39858.4 21520 39858.4 20258.8 L 39858.4 11656 L 42042.4 11656 L 42042.4 20138.8 Q 42042.4 21698.8 42678.4 22478.8 Q 43314.4 23258.8 44647.6 23258.8 Q 45618.4 23258.8 46278.4 22946.8 Q 46938.4 22634.8 47340.4 22028.8 Q 47742.4 21422.8 47916.4 20534.8 Q 48090.4 19646.8 48090.4 18494.8 L 48090.4 11654.8 L 50274.4 11654.8 L 50274.4 24830.8 L 48511.6 24830.8 L 48509.2 24832 Z M 59091.6 11416 Q 59438.4 11416 59870.4 11446 Q 60302.4 11476 60614.4 11537.2 L 60326.4 13553.2 Q 59990.4 13492 59636.4 13450 Q 59282.4 13408 58970.4 13408 Q 58213.2 13408 57589.2 13714 Q 56965.2 14020 56515.2 14590 Q 56065.2 15160 55819.2 15958 Q 55573.2 16756 55573.2 17729.2 L 55573.2 24833.2 L 53389.2 24833.2 L 53389.2 11657.2 L 55165.2 11657.2 L 55429.2 14068 L 55525.2 14068 Q 55826.4 13553.2 56168.4 13073.2 Q 56510.4 12593.2 56936.4 12227.2 Q 57362.4 11861.2 57890.4 11639.2 Q 58418.4 11417.2 59090.4 11417.2 L 59091.6 11416 Z M 70082 21218.8 Q 70082 22178.8 69734 22898.8 Q 69386 23618.8 68732 24104.8 Q 68078 24590.8 67154 24830.8 Q 66230 25070.8 65078 25070.8 Q 63771.2 25070.8 62835.2 24860.8 Q 61899.2 24650.8 61190 24242.8 L 61190 22250.8 Q 61563.2 22442.8 62019.2 22628.8 Q 62475.2 22814.8 62979.2 22958.8 Q 63483.2 23102.8 64017.2 23192.8 Q 64551.2 23282.8 65079.2 23282.8 Q 65860.4 23282.8 66406.4 23150.8 Q 66952.4 23018.8 67294.4 22772.8 Q 67636.4 22526.8 67792.4 22172.8 Q 67948.4 21818.8 67948.4 21386.8 Q 67948.4 21016 67828.4 20716 Q 67708.4 20416 67390.4 20122 Q 67072.4 19828 66520.4 19528 Q 65968.4 19228 65104.4 18857.2 Q 64240.4 18484 63550.4 18124 Q 62860.4 17764 62380.4 17320 Q 61900.4 16876 61642.4 16294 Q 61384.4 15712 61384.4 14906.8 Q 61384.4 14066.8 61714.4 13412.8 Q 62044.4 12758.8 62644.4 12314.8 Q 63244.4 11870.8 64084.4 11642.8 Q 64924.4 11414.8 65956.4 11414.8 Q 67119.2 11414.8 68085.2 11666.8 Q 69051.2 11918.8 69915.2 12326.8 L 69158 14089.6 Q 68379.2 13742.8 67557.2 13484.8 Q 66735.2 13226.8 65884.4 13226.8 Q 64660.4 13226.8 64072.4 13628.8 Q 63484.4 14030.8 63484.4 14774.8 Q 63484.4 15193.6 63622.4 15505.6 Q 63760.4 15817.6 64096.4 16093.6 Q 64432.4 16369.6 64996.4 16651.6 Q 65560.4 16933.6 66400.4 17280.4 Q 67264.4 17640.4 67942.4 18000.4 Q 68620.4 18360.4 69100.4 18810.4 Q 69580.4 19260.4 69832.4 19836.4 Q 70084.4 20412.4 70084.4 21215.2 L 70082 21218.8 Z M 82973.2 18218.8 Q 82973.2 19864 82571.2 21142 Q 82169.2 22420 81419.2 23290 Q 80669.2 24160 79601.2 24616 Q 78533.2 25072 77200 25072 Q 75965.2 25072 74921.2 24616 Q 73877.2 24160 73115.2 23290 Q 72353.2 22420 71927.2 21142 Q 71501.2 19864 71501.2 18218.8 Q 71501.2 16586.8 71903.2 15320.8 Q 72305.2 14054.8 73049.2 13184.8 Q 73793.2 12314.8 74867.2 11864.8 Q 75941.2 11414.8 77272 11414.8 Q 78509.2 11414.8 79553.2 11864.8 Q 80597.2 12314.8 81359.2 13184.8 Q 82121.2 14054.8 82547.2 15320.8 Q 82973.2 16586.8 82973.2 18218.8  Z M 73757.2 18218.8 Q 73757.2 20728 74579.2 21994 Q 75401.2 23260 77249.2 23260 Q 79097.2 23260 79907.2 21994 Q 80717.2 20728 80717.2 18218.8 Q 80717.2 15712 79895.2 14470 Q 79073.2 13228 77225.2 13228 Q 75377.2 13228 74567.2 14470 Q 73757.2 15712 73757.2 18218.8  Z M 93275.6 21218.8 Q 93275.6 22178.8 92927.6 22898.8 Q 92579.6 23618.8 91925.6 24104.8 Q 91271.6 24590.8 90347.6 24830.8 Q 89423.6 25070.8 88271.6 25070.8 Q 86964.8 25070.8 86028.8 24860.8 Q 85092.8 24650.8 84383.6 24242.8 L 84383.6 22250.8 Q 84756.8 22442.8 85212.8 22628.8 Q 85668.8 22814.8 86172.8 22958.8 Q 86676.8 23102.8 87210.8 23192.8 Q 87744.8 23282.8 88272.8 23282.8 Q 89054 23282.8 89600 23150.8 Q 90146 23018.8 90488 22772.8 Q 90830 22526.8 90986 22172.8 Q 91142 21818.8 91142 21386.8 Q 91142 21016 91022 20716 Q 90902 20416 90584 20122 Q 90266 19828 89714 19528 Q 89162 19228 88298 18857.2 Q 87434 18484 86744 18124 Q 86054 17764 85574 17320 Q 85094 16876 84836 16294 Q 84578 15712 84578 14906.8 Q 84578 14066.8 84908 13412.8 Q 85238 12758.8 85838 12314.8 Q 86438 11870.8 87278 11642.8 Q 88118 11414.8 89150 11414.8 Q 90312.8 11414.8 91278.8 11666.8 Q 92244.8 11918.8 93108.8 12326.8 L 92351.6 14089.6 Q 91572.8 13742.8 90750.8 13484.8 Q 89928.8 13226.8 89078 13226.8 Q 87854 13226.8 87266 13628.8 Q 86678 14030.8 86678 14774.8 Q 86678 15193.6 86816 15505.6 Q 86954 15817.6 87290 16093.6 Q 87626 16369.6 88190 16651.6 Q 88754 16933.6 89594 17280.4 Q 90458 17640.4 91136 18000.4 Q 91814 18360.4 92294 18810.4 Q 92774 19260.4 93026 19836.4 Q 93278 20412.4 93278 21215.2 L 93275.6 21218.8 Z M 104480.4 17066.8 L 99835.2 17066.8 L 99835.2 15266.8 L 104480.4 15266.8 L 104480.4 10600 L 106280.4 10600 L 106280.4 15266.8 L 110923.2 15266.8 L 110923.2 17066.8 L 106280.4 17066.8 L 106280.4 21688 L 104480.4 21688 L 104480.4 17066.8 Z " fill-rule="nonzero" style="fill:#596670;;fill-opacity:1;"/>
</svg>