<svg version="1.1" x="0" y="0" width="100%" height="100%" viewBox="0 0 250521.6 118630.4" xmlns="http://www.w3.org/2000/svg">
  <path d="M 14909.2 7288 L 17285.2 7288 L 11416 24832 L 9173.2 24832 L 3328 7288 L 5693.2 7288 L 9232 18410.8 Q 9581.2 19504 9833.2 20518 Q 10085.2 21532 10288 22420 Q 10469.2 21532 10745.2 20518 Q 11021.2 19504 11392 18338.8 L 14909.2 7288 Z M 24672.4 24832 L 24227.2 23008 L 24131.2 23008 Q 23736.4 23546.8 23340.4 23936.8 Q 22944.4 24326.8 22476.4 24578.8 Q 22008.4 24830.8 21432.4 24950.8 Q 20856.4 25070.8 20099.2 25070.8 Q 19272.4 25070.8 18576.4 24836.8 Q 17880.4 24602.8 17370.4 24116.8 Q 16860.4 23630.8 16572.4 22892.8 Q 16284.4 22154.8 16284.4 21146.8 Q 16284.4 19178.8 17670.4 18122.8 Q 19056.4 17066.8 21888.4 16970.8 L 24096.4 16888 L 24096.4 16058.8 Q 24096.4 15256 23922.4 14716 Q 23748.4 14176 23418.4 13846 Q 23088.4 13516 22602.4 13372 Q 22116.4 13228 21492.4 13228 Q 20497.6 13228 19639.6 13516 Q 18781.6 13804 17989.6 14212 L 17221.6 12569.2 Q 18109.6 12089.2 19201.6 11753.2 Q 20293.6 11417.2 21493.6 11417.2 Q 22717.6 11417.2 23611.6 11663.2 Q 24505.6 11909.2 25087.6 12443.2 Q 25669.6 12977.2 25957.6 13805.2 Q 26245.6 14633.2 26245.6 15809.2 L 26245.6 24833.2 L 24674.8 24833.2 L 24672.4 24832 Z M 20664.4 23306.8 Q 21395.2 23306.8 22019.2 23078.8 Q 22643.2 22850.8 23099.2 22388.8 Q 23555.2 21926.8 23813.2 21224.8 Q 24071.2 20522.8 24071.2 19576 L 24071.2 18386.8 L 22354 18472 Q 21274 18520 20542 18712 Q 19810 18904 19372 19246 Q 18934 19588 18742 20074 Q 18550 20560 18550 21170.8 Q 18550 22274.8 19132 22790.8 Q 19714 23306.8 20663.2 23306.8 L 20664.4 23306.8 Z M 30332.8 24832 L 28148.8 24832 L 28148.8 6160 L 30332.8 6160 L 30332.8 24832 Z M 43139.6 18218.8 Q 43139.6 19864 42737.6 21142 Q 42335.6 22420 41585.6 23290 Q 40835.6 24160 39767.6 24616 Q 38699.6 25072 37366.4 25072 Q 36131.6 25072 35087.6 24616 Q 34043.6 24160 33281.6 23290 Q 32519.6 22420 32093.6 21142 Q 31667.6 19864 31667.6 18218.8 Q 31667.6 16586.8 32069.6 15320.8 Q 32471.6 14054.8 33215.6 13184.8 Q 33959.6 12314.8 35033.6 11864.8 Q 36107.6 11414.8 37438.4 11414.8 Q 38675.6 11414.8 39719.6 11864.8 Q 40763.6 12314.8 41525.6 13184.8 Q 42287.6 14054.8 42713.6 15320.8 Q 43139.6 16586.8 43139.6 18218.8  Z M 33923.6 18218.8 Q 33923.6 20728 34745.6 21994 Q 35567.6 23260 37415.6 23260 Q 39263.6 23260 40073.6 21994 Q 40883.6 20728 40883.6 18218.8 Q 40883.6 15712 40061.6 14470 Q 39239.6 13228 37391.6 13228 Q 35543.6 13228 34733.6 14470 Q 33923.6 15712 33923.6 18218.8  Z M 50234 11416 Q 50580.8 11416 51012.8 11446 Q 51444.8 11476 51756.8 11537.2 L 51468.8 13553.2 Q 51132.8 13492 50778.8 13450 Q 50424.8 13408 50112.8 13408 Q 49355.6 13408 48731.6 13714 Q 48107.6 14020 47657.6 14590 Q 47207.6 15160 46961.6 15958 Q 46715.6 16756 46715.6 17729.2 L 46715.6 24833.2 L 44531.6 24833.2 L 44531.6 11657.2 L 46307.6 11657.2 L 46571.6 14068 L 46667.6 14068 Q 46968.8 13553.2 47310.8 13073.2 Q 47652.8 12593.2 48078.8 12227.2 Q 48504.8 11861.2 49032.8 11639.2 Q 49560.8 11417.2 50232.8 11417.2 L 50234 11416 Z M 51992.4 23498.8 Q 51992.4 23042.8 52112.4 22724.8 Q 52232.4 22406.8 52436.4 22208.8 Q 52640.4 22010.8 52916.4 21920.8 Q 53192.4 21830.8 53515.2 21830.8 Q 53827.2 21830.8 54109.2 21920.8 Q 54391.2 22010.8 54595.2 22208.8 Q 54799.2 22406.8 54919.2 22724.8 Q 55039.2 23042.8 55039.2 23498.8 Q 55039.2 23944 54919.2 24262 Q 54799.2 24580 54595.2 24785.2 Q 54391.2 24990.4 54109.2 25086.4 Q 53827.2 25182.4 53515.2 25182.4 Q 53192.4 25182.4 52916.4 25086.4 Q 52640.4 24990.4 52436.4 24785.2 Q 52232.4 24580 52112.4 24262 Q 51992.4 23944 51992.4 23498.8  Z M 51992.4 12986.8 Q 51992.4 12520 52112.4 12202 Q 52232.4 11884 52436.4 11686 Q 52640.4 11488 52916.4 11404 Q 53192.4 11320 53515.2 11320 Q 53827.2 11320 54109.2 11404 Q 54391.2 11488 54595.2 11686 Q 54799.2 11884 54919.2 12202 Q 55039.2 12520 55039.2 12986.8 Q 55039.2 13432 54919.2 13744 Q 54799.2 14056 54595.2 14260 Q 54391.2 14464 54109.2 14560 Q 53827.2 14656 53515.2 14656 Q 53192.4 14656 52916.4 14560 Q 52640.4 14464 52436.4 14260 Q 52232.4 14056 52112.4 13744 Q 51992.4 13432 51992.4 12986.8  Z M 70752.4 19480 Q 70752.4 20320 70452.4 21004 Q 70152.4 21688 69594.4 22192 Q 69036.4 22696 68238.4 23026 Q 67440.4 23356 66432.4 23500 L 66432.4 26261.2 L 64776.4 26261.2 L 64776.4 23608 Q 64176.4 23608 63564.4 23554 Q 62952.4 23500 62376.4 23392 Q 61800.4 23284 61296.4 23128 Q 60792.4 22972 60408.4 22769.2 L 60408.4 20705.2 Q 60803.2 20897.2 61325.2 21095.2 Q 61847.2 21293.2 62423.2 21449.2 Q 62999.2 21605.2 63605.2 21707.2 Q 64211.2 21809.2 64776.4 21809.2 L 64776.4 16601.2 Q 63707.2 16241.2 62921.2 15845.2 Q 62135.2 15449.2 61619.2 14939.2 Q 61103.2 14429.2 60851.2 13769.2 Q 60599.2 13109.2 60599.2 12221.2 Q 60599.2 11418.4 60893.2 10752.4 Q 61187.2 10086.4 61733.2 9588.4 Q 62279.2 9090.4 63053.2 8772.4 Q 63827.2 8454.4 64776.4 8347.6 L 64776.4 6187.6 L 66432.4 6187.6 L 66432.4 8299.6 Q 67632.4 8358.4 68646.4 8610.4 Q 69660.4 8862.4 70465.6 9235.6 L 69673.6 10974.4 Q 69001.6 10675.6 68161.6 10429.6 Q 67321.6 10183.6 66433.6 10111.6 L 66433.6 15175.6 Q 67489.6 15548.8 68299.6 15944.8 Q 69109.6 16340.8 69655.6 16838.8 Q 70201.6 17336.8 70477.6 17978.8 Q 70753.6 18620.8 70753.6 19484.8 L 70752.4 19480 Z M 68640.4 19480 Q 68640.4 19082.8 68520.4 18752.8 Q 68400.4 18422.8 68142.4 18152.8 Q 67884.4 17882.8 67464.4 17654.8 Q 67044.4 17426.8 66433.6 17210.8 L 66433.6 21688 Q 67548.4 21520 68094.4 20932 Q 68640.4 20344 68640.4 19480  Z M 62712.4 12242.8 Q 62712.4 12674.8 62814.4 13016.8 Q 62916.4 13358.8 63156.4 13640.8 Q 63396.4 13922.8 63792.4 14150.8 Q 64188.4 14378.8 64777.6 14584 L 64777.6 10154.8 Q 63708.4 10346.8 63210.4 10880.8 Q 62712.4 11414.8 62712.4 12241.6 L 62712.4 12242.8 Z M 73773.2 24832 L 80528 9280 L 71480 9280 L 71480 7288 L 82760 7288 L 82760 9026.8 L 76101.2 24832 L 73773.2 24832 Z M 94252.8 16034.8 Q 94252.8 18160 93946.8 19840 Q 93640.8 21520 92962.8 22684 Q 92284.8 23848 91216.8 24460 Q 90148.8 25072 88626 25072 Q 87210 25072 86160 24460 Q 85110 23848 84420 22684 Q 83730 21520 83388 19840 Q 83046 18160 83046 16034.8 Q 83046 13912 83352 12232 Q 83658 10552 84324 9394 Q 84990 8236 86052 7624 Q 87114 7012 88626 7012 Q 90052.8 7012 91108.8 7618 Q 92164.8 8224 92860.8 9382 Q 93556.8 10540 93904.8 12220 Q 94252.8 13900 94252.8 16036 L 94252.8 16034.8 Z M 85266 16034.8 Q 85266 17834.8 85446 19178.8 Q 85626 20522.8 86022 21416.8 Q 86418 22310.8 87060 22760.8 Q 87702 23210.8 88627.2 23210.8 Q 89550 23210.8 90198 22766.8 Q 90846 22322.8 91260 21434.8 Q 91674 20546.8 91860 19196.8 Q 92046 17846.8 92046 16033.6 Q 92046 14233.6 91860 12889.6 Q 91674 11545.6 91260 10657.6 Q 90846 9769.6 90198 9325.6 Q 89550 8881.6 88627.2 8881.6 Q 87702 8881.6 87060 9325.6 Q 86418 9769.6 86022 10657.6 Q 85626 11545.6 85446 12889.6 Q 85266 14233.6 85266 16033.6 L 85266 16034.8 Z M 95102.8 23498.8 Q 95102.8 23042.8 95222.8 22724.8 Q 95342.8 22406.8 95546.8 22208.8 Q 95750.8 22010.8 96026.8 21920.8 Q 96302.8 21830.8 96625.6 21830.8 Q 96937.6 21830.8 97219.6 21920.8 Q 97501.6 22010.8 97705.6 22208.8 Q 97909.6 22406.8 98029.6 22724.8 Q 98149.6 23042.8 98149.6 23498.8 Q 98149.6 23944 98029.6 24262 Q 97909.6 24580 97705.6 24785.2 Q 97501.6 24990.4 97219.6 25086.4 Q 96937.6 25182.4 96625.6 25182.4 Q 96302.8 25182.4 96026.8 25086.4 Q 95750.8 24990.4 95546.8 24785.2 Q 95342.8 24580 95222.8 24262 Q 95102.8 23944 95102.8 23498.8  Z M 110176 16034.8 Q 110176 18160 109870 19840 Q 109564 21520 108886 22684 Q 108208 23848 107140 24460 Q 106072 25072 104549.2 25072 Q 103133.2 25072 102083.2 24460 Q 101033.2 23848 100343.2 22684 Q 99653.2 21520 99311.2 19840 Q 98969.2 18160 98969.2 16034.8 Q 98969.2 13912 99275.2 12232 Q 99581.2 10552 100247.2 9394 Q 100913.2 8236 101975.2 7624 Q 103037.2 7012 104549.2 7012 Q 105976 7012 107032 7618 Q 108088 8224 108784 9382 Q 109480 10540 109828 12220 Q 110176 13900 110176 16036 L 110176 16034.8 Z M 101189.2 16034.8 Q 101189.2 17834.8 101369.2 19178.8 Q 101549.2 20522.8 101945.2 21416.8 Q 102341.2 22310.8 102983.2 22760.8 Q 103625.2 23210.8 104550.4 23210.8 Q 105473.2 23210.8 106121.2 22766.8 Q 106769.2 22322.8 107183.2 21434.8 Q 107597.2 20546.8 107783.2 19196.8 Q 107969.2 17846.8 107969.2 16033.6 Q 107969.2 14233.6 107783.2 12889.6 Q 107597.2 11545.6 107183.2 10657.6 Q 106769.2 9769.6 106121.2 9325.6 Q 105473.2 8881.6 104550.4 8881.6 Q 103625.2 8881.6 102983.2 9325.6 Q 102341.2 9769.6 101945.2 10657.6 Q 101549.2 11545.6 101369.2 12889.6 Q 101189.2 14233.6 101189.2 16033.6 L 101189.2 16034.8 Z M 121644.8 16034.8 Q 121644.8 18160 121338.8 19840 Q 121032.8 21520 120354.8 22684 Q 119676.8 23848 118608.8 24460 Q 117540.8 25072 116018 25072 Q 114602 25072 113552 24460 Q 112502 23848 111812 22684 Q 111122 21520 110780 19840 Q 110438 18160 110438 16034.8 Q 110438 13912 110744 12232 Q 111050 10552 111716 9394 Q 112382 8236 113444 7624 Q 114506 7012 116018 7012 Q 117444.8 7012 118500.8 7618 Q 119556.8 8224 120252.8 9382 Q 120948.8 10540 121296.8 12220 Q 121644.8 13900 121644.8 16036 L 121644.8 16034.8 Z M 112658 16034.8 Q 112658 17834.8 112838 19178.8 Q 113018 20522.8 113414 21416.8 Q 113810 22310.8 114452 22760.8 Q 115094 23210.8 116019.2 23210.8 Q 116942 23210.8 117590 22766.8 Q 118238 22322.8 118652 21434.8 Q 119066 20546.8 119252 19196.8 Q 119438 17846.8 119438 16033.6 Q 119438 14233.6 119252 12889.6 Q 119066 11545.6 118652 10657.6 Q 118238 9769.6 117590 9325.6 Q 116942 8881.6 116019.2 8881.6 Q 115094 8881.6 114452 9325.6 Q 113810 9769.6 113414 10657.6 Q 113018 11545.6 112838 12889.6 Q 112658 14233.6 112658 16033.6 L 112658 16034.8 Z M 133113.6 16034.8 Q 133113.6 18160 132807.6 19840 Q 132501.6 21520 131823.6 22684 Q 131145.6 23848 130077.6 24460 Q 129009.6 25072 127486.8 25072 Q 126070.8 25072 125020.8 24460 Q 123970.8 23848 123280.8 22684 Q 122590.8 21520 122248.8 19840 Q 121906.8 18160 121906.8 16034.8 Q 121906.8 13912 122212.8 12232 Q 122518.8 10552 123184.8 9394 Q 123850.8 8236 124912.8 7624 Q 125974.8 7012 127486.8 7012 Q 128913.6 7012 129969.6 7618 Q 131025.6 8224 131721.6 9382 Q 132417.6 10540 132765.6 12220 Q 133113.6 13900 133113.6 16036 L 133113.6 16034.8 Z M 124126.8 16034.8 Q 124126.8 17834.8 124306.8 19178.8 Q 124486.8 20522.8 124882.8 21416.8 Q 125278.8 22310.8 125920.8 22760.8 Q 126562.8 23210.8 127488 23210.8 Q 128410.8 23210.8 129058.8 22766.8 Q 129706.8 22322.8 130120.8 21434.8 Q 130534.8 20546.8 130720.8 19196.8 Q 130906.8 17846.8 130906.8 16033.6 Q 130906.8 14233.6 130720.8 12889.6 Q 130534.8 11545.6 130120.8 10657.6 Q 129706.8 9769.6 129058.8 9325.6 Q 128410.8 8881.6 127488 8881.6 Q 126562.8 8881.6 125920.8 9325.6 Q 125278.8 9769.6 124882.8 10657.6 Q 124486.8 11545.6 124306.8 12889.6 Q 124126.8 14233.6 124126.8 16033.6 L 124126.8 16034.8 Z M 144488 25072 Q 143781.2 25072 143205.2 24916 Q 142629.2 24760 142167.2 24502 Q 141705.2 24244 141351.2 23896 Q 140997.2 23548 140720 23164 L 140576 23164 Q 140613.2 23572 140648 23945.2 Q 140672 24257.2 140696 24587.2 Q 140720 24917.2 140720 25109.2 L 140720 30736 L 138536 30736 L 138536 11656 L 140312 11656 L 140624 13432 L 140720 13432 Q 140997.2 13010.8 141345.2 12644.8 Q 141693.2 12278.8 142155.2 12008.8 Q 142617.2 11738.8 143193.2 11576.8 Q 143769.2 11414.8 144489.2 11414.8 Q 145617.2 11414.8 146541.2 11846.8 Q 147465.2 12278.8 148119.2 13136.8 Q 148773.2 13994.8 149133.2 15266.8 Q 149493.2 16538.8 149493.2 18218.8 Q 149493.2 19912 149133.2 21190 Q 148773.2 22468 148119.2 23332 Q 147465.2 24196 146541.2 24634 Q 145617.2 25072 144489.2 25072 L 144488 25072 Z M 144069.2 13226.8 Q 143157.2 13226.8 142527.2 13502.8 Q 141897.2 13778.8 141507.2 14342.8 Q 141117.2 14906.8 140931.2 15746.8 Q 140745.2 16586.8 140721.2 17728 L 140721.2 18218.8 Q 140721.2 19432 140883.2 20374 Q 141045.2 21316 141435.2 21958 Q 141825.2 22600 142473.2 22930 Q 143121.2 23260 144094.4 23260 Q 145713.2 23260 146475.2 21952 Q 147237.2 20644 147237.2 18196 Q 147237.2 15700 146475.2 14464 Q 145713.2 13228 144070.4 13228 L 144069.2 13226.8 Z M 161667.6 18218.8 Q 161667.6 19864 161265.6 21142 Q 160863.6 22420 160113.6 23290 Q 159363.6 24160 158295.6 24616 Q 157227.6 25072 155894.4 25072 Q 154659.6 25072 153615.6 24616 Q 152571.6 24160 151809.6 23290 Q 151047.6 22420 150621.6 21142 Q 150195.6 19864 150195.6 18218.8 Q 150195.6 16586.8 150597.6 15320.8 Q 150999.6 14054.8 151743.6 13184.8 Q 152487.6 12314.8 153561.6 11864.8 Q 154635.6 11414.8 155966.4 11414.8 Q 157203.6 11414.8 158247.6 11864.8 Q 159291.6 12314.8 160053.6 13184.8 Q 160815.6 14054.8 161241.6 15320.8 Q 161667.6 16586.8 161667.6 18218.8  Z M 152451.6 18218.8 Q 152451.6 20728 153273.6 21994 Q 154095.6 23260 155943.6 23260 Q 157791.6 23260 158601.6 21994 Q 159411.6 20728 159411.6 18218.8 Q 159411.6 15712 158589.6 14470 Q 157767.6 13228 155919.6 13228 Q 154071.6 13228 153261.6 14470 Q 152451.6 15712 152451.6 18218.8  Z M 168762 11416 Q 169108.8 11416 169540.8 11446 Q 169972.8 11476 170284.8 11537.2 L 169996.8 13553.2 Q 169660.8 13492 169306.8 13450 Q 168952.8 13408 168640.8 13408 Q 167883.6 13408 167259.6 13714 Q 166635.6 14020 166185.6 14590 Q 165735.6 15160 165489.6 15958 Q 165243.6 16756 165243.6 17729.2 L 165243.6 24833.2 L 163059.6 24833.2 L 163059.6 11657.2 L 164835.6 11657.2 L 165099.6 14068 L 165195.6 14068 Q 165496.8 13553.2 165838.8 13073.2 Q 166180.8 12593.2 166606.8 12227.2 Q 167032.8 11861.2 167560.8 11639.2 Q 168088.8 11417.2 168760.8 11417.2 L 168762 11416 Z M 182978 21218.8 Q 182978 22178.8 182630 22898.8 Q 182282 23618.8 181628 24104.8 Q 180974 24590.8 180050 24830.8 Q 179126 25070.8 177974 25070.8 Q 176667.2 25070.8 175731.2 24860.8 Q 174795.2 24650.8 174086 24242.8 L 174086 22250.8 Q 174459.2 22442.8 174915.2 22628.8 Q 175371.2 22814.8 175875.2 22958.8 Q 176379.2 23102.8 176913.2 23192.8 Q 177447.2 23282.8 177975.2 23282.8 Q 178756.4 23282.8 179302.4 23150.8 Q 179848.4 23018.8 180190.4 22772.8 Q 180532.4 22526.8 180688.4 22172.8 Q 180844.4 21818.8 180844.4 21386.8 Q 180844.4 21016 180724.4 20716 Q 180604.4 20416 180286.4 20122 Q 179968.4 19828 179416.4 19528 Q 178864.4 19228 178000.4 18857.2 Q 177136.4 18484 176446.4 18124 Q 175756.4 17764 175276.4 17320 Q 174796.4 16876 174538.4 16294 Q 174280.4 15712 174280.4 14906.8 Q 174280.4 14066.8 174610.4 13412.8 Q 174940.4 12758.8 175540.4 12314.8 Q 176140.4 11870.8 176980.4 11642.8 Q 177820.4 11414.8 178852.4 11414.8 Q 180015.2 11414.8 180981.2 11666.8 Q 181947.2 11918.8 182811.2 12326.8 L 182054 14089.6 Q 181275.2 13742.8 180453.2 13484.8 Q 179631.2 13226.8 178780.4 13226.8 Q 177556.4 13226.8 176968.4 13628.8 Q 176380.4 14030.8 176380.4 14774.8 Q 176380.4 15193.6 176518.4 15505.6 Q 176656.4 15817.6 176992.4 16093.6 Q 177328.4 16369.6 177892.4 16651.6 Q 178456.4 16933.6 179296.4 17280.4 Q 180160.4 17640.4 180838.4 18000.4 Q 181516.4 18360.4 181996.4 18810.4 Q 182476.4 19260.4 182728.4 19836.4 Q 182980.4 20412.4 182980.4 21215.2 L 182978 21218.8 Z M 189312 25072 Q 187992 25072 186900 24628 Q 185808 24184 185022 23332 Q 184236 22480 183804 21220 Q 183372 19960 183372 18338.8 Q 183372 16706.8 183768 15422.8 Q 184164 14138.8 184884 13244.8 Q 185604 12350.8 186606 11882.8 Q 187608 11414.8 188821.2 11414.8 Q 190008 11414.8 190956 11840.8 Q 191904 12266.8 192564 13040.8 Q 193224 13814.8 193578 14900.8 Q 193932 15986.8 193932 17306.8 L 193932 18664 L 185628 18664 Q 185686.8 20978.8 186604.8 22070.8 Q 187522.8 23162.8 189333.6 23162.8 Q 189946.8 23162.8 190468.8 23102.8 Q 190990.8 23042.8 191476.8 22928.8 Q 191962.8 22814.8 192418.8 22640.8 Q 192874.8 22466.8 193341.6 22250.8 L 193341.6 24194.8 Q 192861.6 24424 192399.6 24592 Q 191937.6 24760 191451.6 24868 Q 190965.6 24976 190443.6 25024 Q 189921.6 25072 189308.4 25072 L 189312 25072 Z M 188773.2 13226.8 Q 187405.2 13226.8 186607.2 14162.8 Q 185809.2 15098.8 185678.4 16888 L 191582.4 16888 Q 191582.4 16072 191420.4 15394 Q 191258.4 14716 190916.4 14236 Q 190574.4 13756 190046.4 13492 Q 189518.4 13228 188774.4 13228 L 188773.2 13226.8 Z M 202997.2 21218.8 Q 202997.2 22178.8 202649.2 22898.8 Q 202301.2 23618.8 201647.2 24104.8 Q 200993.2 24590.8 200069.2 24830.8 Q 199145.2 25070.8 197993.2 25070.8 Q 196686.4 25070.8 195750.4 24860.8 Q 194814.4 24650.8 194105.2 24242.8 L 194105.2 22250.8 Q 194478.4 22442.8 194934.4 22628.8 Q 195390.4 22814.8 195894.4 22958.8 Q 196398.4 23102.8 196932.4 23192.8 Q 197466.4 23282.8 197994.4 23282.8 Q 198775.6 23282.8 199321.6 23150.8 Q 199867.6 23018.8 200209.6 22772.8 Q 200551.6 22526.8 200707.6 22172.8 Q 200863.6 21818.8 200863.6 21386.8 Q 200863.6 21016 200743.6 20716 Q 200623.6 20416 200305.6 20122 Q 199987.6 19828 199435.6 19528 Q 198883.6 19228 198019.6 18857.2 Q 197155.6 18484 196465.6 18124 Q 195775.6 17764 195295.6 17320 Q 194815.6 16876 194557.6 16294 Q 194299.6 15712 194299.6 14906.8 Q 194299.6 14066.8 194629.6 13412.8 Q 194959.6 12758.8 195559.6 12314.8 Q 196159.6 11870.8 196999.6 11642.8 Q 197839.6 11414.8 198871.6 11414.8 Q 200034.4 11414.8 201000.4 11666.8 Q 201966.4 11918.8 202830.4 12326.8 L 202073.2 14089.6 Q 201294.4 13742.8 200472.4 13484.8 Q 199650.4 13226.8 198799.6 13226.8 Q 197575.6 13226.8 196987.6 13628.8 Q 196399.6 14030.8 196399.6 14774.8 Q 196399.6 15193.6 196537.6 15505.6 Q 196675.6 15817.6 197011.6 16093.6 Q 197347.6 16369.6 197911.6 16651.6 Q 198475.6 16933.6 199315.6 17280.4 Q 200179.6 17640.4 200857.6 18000.4 Q 201535.6 18360.4 202015.6 18810.4 Q 202495.6 19260.4 202747.6 19836.4 Q 202999.6 20412.4 202999.6 21215.2 L 202997.2 21218.8 Z M 206307.2 24832 L 204123.2 24832 L 204123.2 11656 L 206307.2 11656 L 206307.2 24832 Z M 203955.2 8090.8 Q 203955.2 7370.8 204321.2 7046.8 Q 204687.2 6722.8 205226 6722.8 Q 205490 6722.8 205724 6800.8 Q 205958 6878.8 206132 7046.8 Q 206306 7214.8 206408 7472.8 Q 206510 7730.8 206510 8090.8 Q 206510 8786.8 206132 9128.8 Q 205754 9470.8 205226 9470.8 Q 204687.2 9470.8 204321.2 9134.8 Q 203955.2 8798.8 203955.2 8089.6 L 203955.2 8090.8 Z M 219114 18218.8 Q 219114 19864 218712 21142 Q 218310 22420 217560 23290 Q 216810 24160 215742 24616 Q 214674 25072 213340.8 25072 Q 212106 25072 211062 24616 Q 210018 24160 209256 23290 Q 208494 22420 208068 21142 Q 207642 19864 207642 18218.8 Q 207642 16586.8 208044 15320.8 Q 208446 14054.8 209190 13184.8 Q 209934 12314.8 211008 11864.8 Q 212082 11414.8 213412.8 11414.8 Q 214650 11414.8 215694 11864.8 Q 216738 12314.8 217500 13184.8 Q 218262 14054.8 218688 15320.8 Q 219114 16586.8 219114 18218.8  Z M 209898 18218.8 Q 209898 20728 210720 21994 Q 211542 23260 213390 23260 Q 215238 23260 216048 21994 Q 216858 20728 216858 18218.8 Q 216858 15712 216036 14470 Q 215214 13228 213366 13228 Q 211518 13228 210708 14470 Q 209898 15712 209898 18218.8  Z M 212025.6 9616 Q 212289.6 9266.8 212571.6 8810.8 Q 212853.6 8354.8 213135.6 7868.8 Q 213417.6 7382.8 213669.6 6896.8 Q 213921.6 6410.8 214113.6 6002.8 L 216740.4 6002.8 L 216740.4 6256 Q 216548.4 6578.8 216170.4 7064.8 Q 215792.4 7550.8 215330.4 8078.8 Q 214868.4 8606.8 214382.4 9104.8 Q 213896.4 9602.8 213475.2 9938.8 L 212024.4 9938.8 L 212024.4 9616 L 212025.6 9616 Z M 228739.2 24832 L 228739.2 16346.8 Q 228739.2 14786.8 228109.2 14006.8 Q 227479.2 13226.8 226135.2 13226.8 Q 225162 13226.8 224502 13538.8 Q 223842 13850.8 223440 14462.8 Q 223038 15074.8 222864 15962.8 Q 222690 16850.8 222690 18002.8 L 222690 24832 L 220506 24832 L 220506 11656 L 222282 11656 L 222594 13432 L 222714 13432 Q 223015.2 12914.8 223429.2 12536.8 Q 223843.2 12158.8 224335.2 11906.8 Q 224827.2 11654.8 225379.2 11534.8 Q 225931.2 11414.8 226507.2 11414.8 Q 228704.4 11414.8 229814.4 12560.8 Q 230924.4 13706.8 230924.4 16226.8 L 230924.4 24832 L 228740.4 24832 L 228739.2 24832 Z M 247888.4 18218.8 Q 247888.4 19864 247486.4 21142 Q 247084.4 22420 246334.4 23290 Q 245584.4 24160 244516.4 24616 Q 243448.4 25072 242115.2 25072 Q 240880.4 25072 239836.4 24616 Q 238792.4 24160 238030.4 23290 Q 237268.4 22420 236842.4 21142 Q 236416.4 19864 236416.4 18218.8 Q 236416.4 16586.8 236818.4 15320.8 Q 237220.4 14054.8 237964.4 13184.8 Q 238708.4 12314.8 239782.4 11864.8 Q 240856.4 11414.8 242187.2 11414.8 Q 243424.4 11414.8 244468.4 11864.8 Q 245512.4 12314.8 246274.4 13184.8 Q 247036.4 14054.8 247462.4 15320.8 Q 247888.4 16586.8 247888.4 18218.8  Z M 238672.4 18218.8 Q 238672.4 20728 239494.4 21994 Q 240316.4 23260 242164.4 23260 Q 244012.4 23260 244822.4 21994 Q 245632.4 20728 245632.4 18218.8 Q 245632.4 15712 244810.4 14470 Q 243988.4 13228 242140.4 13228 Q 240292.4 13228 239482.4 14470 Q 238672.4 15712 238672.4 18218.8  Z M 32096.4 62436.8 Q 32096.4 63276.8 31796.4 63960.8 Q 31496.4 64644.8 30938.4 65148.8 Q 30380.4 65652.8 29582.4 65982.8 Q 28784.4 66312.8 27776.4 66456.8 L 27776.4 69218 L 26120.4 69218 L 26120.4 66564.8 Q 25520.4 66564.8 24908.4 66510.8 Q 24296.4 66456.8 23720.4 66348.8 Q 23144.4 66240.8 22640.4 66084.8 Q 22136.4 65928.8 21752.4 65726 L 21752.4 63662 Q 22147.2 63854 22669.2 64052 Q 23191.2 64250 23767.2 64406 Q 24343.2 64562 24949.2 64664 Q 25555.2 64766 26120.4 64766 L 26120.4 59558 Q 25051.2 59198 24265.2 58802 Q 23479.2 58406 22963.2 57896 Q 22447.2 57386 22195.2 56726 Q 21943.2 56066 21943.2 55178 Q 21943.2 54375.2 22237.2 53709.2 Q 22531.2 53043.2 23077.2 52545.2 Q 23623.2 52047.2 24397.2 51729.2 Q 25171.2 51411.2 26120.4 51304.4 L 26120.4 49144.4 L 27776.4 49144.4 L 27776.4 51256.4 Q 28976.4 51315.2 29990.4 51567.2 Q 31004.4 51819.2 31809.6 52192.4 L 31017.6 53931.2 Q 30345.6 53632.4 29505.6 53386.4 Q 28665.6 53140.4 27777.6 53068.4 L 27777.6 58132.4 Q 28833.6 58505.6 29643.6 58901.6 Q 30453.6 59297.6 30999.6 59795.6 Q 31545.6 60293.6 31821.6 60935.6 Q 32097.6 61577.6 32097.6 62441.6 L 32096.4 62436.8 Z M 29984.4 62436.8 Q 29984.4 62039.6 29864.4 61709.6 Q 29744.4 61379.6 29486.4 61109.6 Q 29228.4 60839.6 28808.4 60611.6 Q 28388.4 60383.6 27777.6 60167.6 L 27777.6 64644.8 Q 28892.4 64476.8 29438.4 63888.8 Q 29984.4 63300.8 29984.4 62436.8  Z M 24056.4 55199.6 Q 24056.4 55631.6 24158.4 55973.6 Q 24260.4 56315.6 24500.4 56597.6 Q 24740.4 56879.6 25136.4 57107.6 Q 25532.4 57335.6 26121.6 57540.8 L 26121.6 53111.6 Q 25052.4 53303.6 24554.4 53837.6 Q 24056.4 54371.6 24056.4 55198.4 L 24056.4 55199.6 Z M 38285.2 57023.6 Q 39472 57023.6 40498 57353.6 Q 41524 57683.6 42286 58331.6 Q 43048 58979.6 43480 59939.6 Q 43912 60899.6 43912 62158.4 Q 43912 63526.4 43504 64618.4 Q 43096 65710.4 42292 66466.4 Q 41488 67222.4 40306 67624.4 Q 39124 68026.4 37588 68026.4 Q 36974.8 68026.4 36380.8 67966.4 Q 35786.8 67906.4 35240.8 67792.4 Q 34694.8 67678.4 34202.8 67498.4 Q 33710.8 67318.4 33316 67078.4 L 33316 65014.4 Q 33710.8 65291.6 34244.8 65507.6 Q 34778.8 65723.6 35366.8 65867.6 Q 35954.8 66011.6 36548.8 66089.6 Q 37142.8 66167.6 37646.8 66167.6 Q 38596 66167.6 39340 65945.6 Q 40084 65723.6 40600 65255.6 Q 41116 64787.6 41392 64079.6 Q 41668 63371.6 41668 62398.4 Q 41668 60683.6 40612 59777.6 Q 39556 58871.6 37540 58871.6 Q 37214.8 58871.6 36836.8 58901.6 Q 36458.8 58931.6 36080.8 58979.6 Q 35702.8 59027.6 35360.8 59081.6 Q 35018.8 59135.6 34765.6 59183.6 L 33685.6 58500.8 L 34346.8 50244.8 L 42626.8 50244.8 L 42626.8 52236.8 L 36242.8 52236.8 L 35773.6 57263.6 Q 36157.6 57191.6 36787.6 57107.6 Q 37417.6 57023.6 38281.6 57023.6 L 38285.2 57023.6 Z M 55596.8 58991.6 Q 55596.8 61116.8 55290.8 62796.8 Q 54984.8 64476.8 54306.8 65640.8 Q 53628.8 66804.8 52560.8 67416.8 Q 51492.8 68028.8 49970 68028.8 Q 48554 68028.8 47504 67416.8 Q 46454 66804.8 45764 65640.8 Q 45074 64476.8 44732 62796.8 Q 44390 61116.8 44390 58991.6 Q 44390 56868.8 44696 55188.8 Q 45002 53508.8 45668 52350.8 Q 46334 51192.8 47396 50580.8 Q 48458 49968.8 49970 49968.8 Q 51396.8 49968.8 52452.8 50574.8 Q 53508.8 51180.8 54204.8 52338.8 Q 54900.8 53496.8 55248.8 55176.8 Q 55596.8 56856.8 55596.8 58992.8 L 55596.8 58991.6 Z M 46610 58991.6 Q 46610 60791.6 46790 62135.6 Q 46970 63479.6 47366 64373.6 Q 47762 65267.6 48404 65717.6 Q 49046 66167.6 49971.2 66167.6 Q 50894 66167.6 51542 65723.6 Q 52190 65279.6 52604 64391.6 Q 53018 63503.6 53204 62153.6 Q 53390 60803.6 53390 58990.4 Q 53390 57190.4 53204 55846.4 Q 53018 54502.4 52604 53614.4 Q 52190 52726.4 51542 52282.4 Q 50894 51838.4 49971.2 51838.4 Q 49046 51838.4 48404 52282.4 Q 47762 52726.4 47366 53614.4 Q 46970 54502.4 46790 55846.4 Q 46610 57190.4 46610 58990.4 L 46610 58991.6 Z M 67065.6 58991.6 Q 67065.6 61116.8 66759.6 62796.8 Q 66453.6 64476.8 65775.6 65640.8 Q 65097.6 66804.8 64029.6 67416.8 Q 62961.6 68028.8 61438.8 68028.8 Q 60022.8 68028.8 58972.8 67416.8 Q 57922.8 66804.8 57232.8 65640.8 Q 56542.8 64476.8 56200.8 62796.8 Q 55858.8 61116.8 55858.8 58991.6 Q 55858.8 56868.8 56164.8 55188.8 Q 56470.8 53508.8 57136.8 52350.8 Q 57802.8 51192.8 58864.8 50580.8 Q 59926.8 49968.8 61438.8 49968.8 Q 62865.6 49968.8 63921.6 50574.8 Q 64977.6 51180.8 65673.6 52338.8 Q 66369.6 53496.8 66717.6 55176.8 Q 67065.6 56856.8 67065.6 58992.8 L 67065.6 58991.6 Z M 58078.8 58991.6 Q 58078.8 60791.6 58258.8 62135.6 Q 58438.8 63479.6 58834.8 64373.6 Q 59230.8 65267.6 59872.8 65717.6 Q 60514.8 66167.6 61440 66167.6 Q 62362.8 66167.6 63010.8 65723.6 Q 63658.8 65279.6 64072.8 64391.6 Q 64486.8 63503.6 64672.8 62153.6 Q 64858.8 60803.6 64858.8 58990.4 Q 64858.8 57190.4 64672.8 55846.4 Q 64486.8 54502.4 64072.8 53614.4 Q 63658.8 52726.4 63010.8 52282.4 Q 62362.8 51838.4 61440 51838.4 Q 60514.8 51838.4 59872.8 52282.4 Q 59230.8 52726.4 58834.8 53614.4 Q 58438.8 54502.4 58258.8 55846.4 Q 58078.8 57190.4 58078.8 58990.4 L 58078.8 58991.6 Z M 67915.6 66455.6 Q 67915.6 65999.6 68035.6 65681.6 Q 68155.6 65363.6 68359.6 65165.6 Q 68563.6 64967.6 68839.6 64877.6 Q 69115.6 64787.6 69438.4 64787.6 Q 69750.4 64787.6 70032.4 64877.6 Q 70314.4 64967.6 70518.4 65165.6 Q 70722.4 65363.6 70842.4 65681.6 Q 70962.4 65999.6 70962.4 66455.6 Q 70962.4 66900.8 70842.4 67218.8 Q 70722.4 67536.8 70518.4 67742 Q 70314.4 67947.2 70032.4 68043.2 Q 69750.4 68139.2 69438.4 68139.2 Q 69115.6 68139.2 68839.6 68043.2 Q 68563.6 67947.2 68359.6 67742 Q 68155.6 67536.8 68035.6 67218.8 Q 67915.6 66900.8 67915.6 66455.6  Z M 82988.8 58991.6 Q 82988.8 61116.8 82682.8 62796.8 Q 82376.8 64476.8 81698.8 65640.8 Q 81020.8 66804.8 79952.8 67416.8 Q 78884.8 68028.8 77362 68028.8 Q 75946 68028.8 74896 67416.8 Q 73846 66804.8 73156 65640.8 Q 72466 64476.8 72124 62796.8 Q 71782 61116.8 71782 58991.6 Q 71782 56868.8 72088 55188.8 Q 72394 53508.8 73060 52350.8 Q 73726 51192.8 74788 50580.8 Q 75850 49968.8 77362 49968.8 Q 78788.8 49968.8 79844.8 50574.8 Q 80900.8 51180.8 81596.8 52338.8 Q 82292.8 53496.8 82640.8 55176.8 Q 82988.8 56856.8 82988.8 58992.8 L 82988.8 58991.6 Z M 74002 58991.6 Q 74002 60791.6 74182 62135.6 Q 74362 63479.6 74758 64373.6 Q 75154 65267.6 75796 65717.6 Q 76438 66167.6 77363.2 66167.6 Q 78286 66167.6 78934 65723.6 Q 79582 65279.6 79996 64391.6 Q 80410 63503.6 80596 62153.6 Q 80782 60803.6 80782 58990.4 Q 80782 57190.4 80596 55846.4 Q 80410 54502.4 79996 53614.4 Q 79582 52726.4 78934 52282.4 Q 78286 51838.4 77363.2 51838.4 Q 76438 51838.4 75796 52282.4 Q 75154 52726.4 74758 53614.4 Q 74362 54502.4 74182 55846.4 Q 74002 57190.4 74002 58990.4 L 74002 58991.6 Z M 94457.6 58991.6 Q 94457.6 61116.8 94151.6 62796.8 Q 93845.6 64476.8 93167.6 65640.8 Q 92489.6 66804.8 91421.6 67416.8 Q 90353.6 68028.8 88830.8 68028.8 Q 87414.8 68028.8 86364.8 67416.8 Q 85314.8 66804.8 84624.8 65640.8 Q 83934.8 64476.8 83592.8 62796.8 Q 83250.8 61116.8 83250.8 58991.6 Q 83250.8 56868.8 83556.8 55188.8 Q 83862.8 53508.8 84528.8 52350.8 Q 85194.8 51192.8 86256.8 50580.8 Q 87318.8 49968.8 88830.8 49968.8 Q 90257.6 49968.8 91313.6 50574.8 Q 92369.6 51180.8 93065.6 52338.8 Q 93761.6 53496.8 94109.6 55176.8 Q 94457.6 56856.8 94457.6 58992.8 L 94457.6 58991.6 Z M 85470.8 58991.6 Q 85470.8 60791.6 85650.8 62135.6 Q 85830.8 63479.6 86226.8 64373.6 Q 86622.8 65267.6 87264.8 65717.6 Q 87906.8 66167.6 88832 66167.6 Q 89754.8 66167.6 90402.8 65723.6 Q 91050.8 65279.6 91464.8 64391.6 Q 91878.8 63503.6 92064.8 62153.6 Q 92250.8 60803.6 92250.8 58990.4 Q 92250.8 57190.4 92064.8 55846.4 Q 91878.8 54502.4 91464.8 53614.4 Q 91050.8 52726.4 90402.8 52282.4 Q 89754.8 51838.4 88832 51838.4 Q 87906.8 51838.4 87264.8 52282.4 Q 86622.8 52726.4 86226.8 53614.4 Q 85830.8 54502.4 85650.8 55846.4 Q 85470.8 57190.4 85470.8 58990.4 L 85470.8 58991.6 Z M 105926.4 58991.6 Q 105926.4 61116.8 105620.4 62796.8 Q 105314.4 64476.8 104636.4 65640.8 Q 103958.4 66804.8 102890.4 67416.8 Q 101822.4 68028.8 100299.6 68028.8 Q 98883.6 68028.8 97833.6 67416.8 Q 96783.6 66804.8 96093.6 65640.8 Q 95403.6 64476.8 95061.6 62796.8 Q 94719.6 61116.8 94719.6 58991.6 Q 94719.6 56868.8 95025.6 55188.8 Q 95331.6 53508.8 95997.6 52350.8 Q 96663.6 51192.8 97725.6 50580.8 Q 98787.6 49968.8 100299.6 49968.8 Q 101726.4 49968.8 102782.4 50574.8 Q 103838.4 51180.8 104534.4 52338.8 Q 105230.4 53496.8 105578.4 55176.8 Q 105926.4 56856.8 105926.4 58992.8 L 105926.4 58991.6 Z M 96939.6 58991.6 Q 96939.6 60791.6 97119.6 62135.6 Q 97299.6 63479.6 97695.6 64373.6 Q 98091.6 65267.6 98733.6 65717.6 Q 99375.6 66167.6 100300.8 66167.6 Q 101223.6 66167.6 101871.6 65723.6 Q 102519.6 65279.6 102933.6 64391.6 Q 103347.6 63503.6 103533.6 62153.6 Q 103719.6 60803.6 103719.6 58990.4 Q 103719.6 57190.4 103533.6 55846.4 Q 103347.6 54502.4 102933.6 53614.4 Q 102519.6 52726.4 101871.6 52282.4 Q 101223.6 51838.4 100300.8 51838.4 Q 99375.6 51838.4 98733.6 52282.4 Q 98091.6 52726.4 97695.6 53614.4 Q 97299.6 54502.4 97119.6 55846.4 Q 96939.6 57190.4 96939.6 58990.4 L 96939.6 58991.6 Z M 127130 67788.8 L 127130 59303.6 Q 127130 57743.6 126530 56963.6 Q 125930 56183.6 124668.8 56183.6 Q 123794 56183.6 123182 56465.6 Q 122570 56747.6 122180 57293.6 Q 121790 57839.6 121610 58649.6 Q 121430 59459.6 121430 60515.6 L 121430 67787.6 L 119235.2 67787.6 L 119235.2 59302.4 Q 119235.2 57742.4 118641.2 56962.4 Q 118047.2 56182.4 116788.4 56182.4 Q 115863.2 56182.4 115239.2 56494.4 Q 114615.2 56806.4 114237.2 57418.4 Q 113859.2 58030.4 113697.2 58918.4 Q 113535.2 59806.4 113535.2 60958.4 L 113535.2 67787.6 L 111351.2 67787.6 L 111351.2 54611.6 L 113127.2 54611.6 L 113439.2 56387.6 L 113559.2 56387.6 Q 113847.2 55870.4 114243.2 55492.4 Q 114639.2 55114.4 115113.2 54862.4 Q 115587.2 54610.4 116121.2 54490.4 Q 116655.2 54370.4 117207.2 54370.4 Q 118647.2 54370.4 119601.2 54898.4 Q 120555.2 55426.4 121011.2 56554.4 L 121107.2 56554.4 Q 121419.2 55989.2 121857.2 55581.2 Q 122295.2 55173.2 122817.2 54903.2 Q 123339.2 54633.2 123915.2 54501.2 Q 124491.2 54369.2 125091.2 54369.2 Q 127190 54369.2 128252 55515.2 Q 129314 56661.2 129314 59181.2 L 129314 67786.4 L 127130 67786.4 L 127130 67788.8 Z M 136473.6 68028.8 Q 135153.6 68028.8 134061.6 67584.8 Q 132969.6 67140.8 132183.6 66288.8 Q 131397.6 65436.8 130965.6 64176.8 Q 130533.6 62916.8 130533.6 61295.6 Q 130533.6 59663.6 130929.6 58379.6 Q 131325.6 57095.6 132045.6 56201.6 Q 132765.6 55307.6 133767.6 54839.6 Q 134769.6 54371.6 135982.8 54371.6 Q 137169.6 54371.6 138117.6 54797.6 Q 139065.6 55223.6 139725.6 55997.6 Q 140385.6 56771.6 140739.6 57857.6 Q 141093.6 58943.6 141093.6 60263.6 L 141093.6 61620.8 L 132789.6 61620.8 Q 132848.4 63935.6 133766.4 65027.6 Q 134684.4 66119.6 136495.2 66119.6 Q 137108.4 66119.6 137630.4 66059.6 Q 138152.4 65999.6 138638.4 65885.6 Q 139124.4 65771.6 139580.4 65597.6 Q 140036.4 65423.6 140503.2 65207.6 L 140503.2 67151.6 Q 140023.2 67380.8 139561.2 67548.8 Q 139099.2 67716.8 138613.2 67824.8 Q 138127.2 67932.8 137605.2 67980.8 Q 137083.2 68028.8 136470 68028.8 L 136473.6 68028.8 Z M 135934.8 56183.6 Q 134566.8 56183.6 133768.8 57119.6 Q 132970.8 58055.6 132840 59844.8 L 138744 59844.8 Q 138744 59028.8 138582 58350.8 Q 138420 57672.8 138078 57192.8 Q 137736 56712.8 137208 56448.8 Q 136680 56184.8 135936 56184.8 L 135934.8 56183.6 Z M 150505.6 67788.8 L 150505.6 59303.6 Q 150505.6 57743.6 149875.6 56963.6 Q 149245.6 56183.6 147901.6 56183.6 Q 146928.4 56183.6 146268.4 56495.6 Q 145608.4 56807.6 145206.4 57419.6 Q 144804.4 58031.6 144630.4 58919.6 Q 144456.4 59807.6 144456.4 60959.6 L 144456.4 67788.8 L 142272.4 67788.8 L 142272.4 54612.8 L 144048.4 54612.8 L 144360.4 56388.8 L 144480.4 56388.8 Q 144781.6 55871.6 145195.6 55493.6 Q 145609.6 55115.6 146101.6 54863.6 Q 146593.6 54611.6 147145.6 54491.6 Q 147697.6 54371.6 148273.6 54371.6 Q 150470.8 54371.6 151580.8 55517.6 Q 152690.8 56663.6 152690.8 59183.6 L 152690.8 67788.8 L 150506.8 67788.8 L 150505.6 67788.8 Z M 162549.2 64175.6 Q 162549.2 65135.6 162201.2 65855.6 Q 161853.2 66575.6 161199.2 67061.6 Q 160545.2 67547.6 159621.2 67787.6 Q 158697.2 68027.6 157545.2 68027.6 Q 156238.4 68027.6 155302.4 67817.6 Q 154366.4 67607.6 153657.2 67199.6 L 153657.2 65207.6 Q 154030.4 65399.6 154486.4 65585.6 Q 154942.4 65771.6 155446.4 65915.6 Q 155950.4 66059.6 156484.4 66149.6 Q 157018.4 66239.6 157546.4 66239.6 Q 158327.6 66239.6 158873.6 66107.6 Q 159419.6 65975.6 159761.6 65729.6 Q 160103.6 65483.6 160259.6 65129.6 Q 160415.6 64775.6 160415.6 64343.6 Q 160415.6 63972.8 160295.6 63672.8 Q 160175.6 63372.8 159857.6 63078.8 Q 159539.6 62784.8 158987.6 62484.8 Q 158435.6 62184.8 157571.6 61814 Q 156707.6 61440.8 156017.6 61080.8 Q 155327.6 60720.8 154847.6 60276.8 Q 154367.6 59832.8 154109.6 59250.8 Q 153851.6 58668.8 153851.6 57863.6 Q 153851.6 57023.6 154181.6 56369.6 Q 154511.6 55715.6 155111.6 55271.6 Q 155711.6 54827.6 156551.6 54599.6 Q 157391.6 54371.6 158423.6 54371.6 Q 159586.4 54371.6 160552.4 54623.6 Q 161518.4 54875.6 162382.4 55283.6 L 161625.2 57046.4 Q 160846.4 56699.6 160024.4 56441.6 Q 159202.4 56183.6 158351.6 56183.6 Q 157127.6 56183.6 156539.6 56585.6 Q 155951.6 56987.6 155951.6 57731.6 Q 155951.6 58150.4 156089.6 58462.4 Q 156227.6 58774.4 156563.6 59050.4 Q 156899.6 59326.4 157463.6 59608.4 Q 158027.6 59890.4 158867.6 60237.2 Q 159731.6 60597.2 160409.6 60957.2 Q 161087.6 61317.2 161567.6 61767.2 Q 162047.6 62217.2 162299.6 62793.2 Q 162551.6 63369.2 162551.6 64172 L 162549.2 64175.6 Z M 172208.4 67788.8 L 171883.2 66023.6 L 171763.2 66023.6 Q 171464.4 66540.8 171050.4 66918.8 Q 170636.4 67296.8 170144.4 67542.8 Q 169652.4 67788.8 169100.4 67908.8 Q 168548.4 68028.8 167972.4 68028.8 Q 166881.6 68028.8 166053.6 67752.8 Q 165225.6 67476.8 164673.6 66888.8 Q 164121.6 66300.8 163839.6 65388.8 Q 163557.6 64476.8 163557.6 63215.6 L 163557.6 54612.8 L 165741.6 54612.8 L 165741.6 63095.6 Q 165741.6 64655.6 166377.6 65435.6 Q 167013.6 66215.6 168346.8 66215.6 Q 169317.6 66215.6 169977.6 65903.6 Q 170637.6 65591.6 171039.6 64985.6 Q 171441.6 64379.6 171615.6 63491.6 Q 171789.6 62603.6 171789.6 61451.6 L 171789.6 54611.6 L 173973.6 54611.6 L 173973.6 67787.6 L 172210.8 67787.6 L 172208.4 67788.8 Z M 183494.8 67788.8 L 183049.6 65964.8 L 182953.6 65964.8 Q 182558.8 66503.6 182162.8 66893.6 Q 181766.8 67283.6 181298.8 67535.6 Q 180830.8 67787.6 180254.8 67907.6 Q 179678.8 68027.6 178921.6 68027.6 Q 178094.8 68027.6 177398.8 67793.6 Q 176702.8 67559.6 176192.8 67073.6 Q 175682.8 66587.6 175394.8 65849.6 Q 175106.8 65111.6 175106.8 64103.6 Q 175106.8 62135.6 176492.8 61079.6 Q 177878.8 60023.6 180710.8 59927.6 L 182918.8 59844.8 L 182918.8 59015.6 Q 182918.8 58212.8 182744.8 57672.8 Q 182570.8 57132.8 182240.8 56802.8 Q 181910.8 56472.8 181424.8 56328.8 Q 180938.8 56184.8 180314.8 56184.8 Q 179320 56184.8 178462 56472.8 Q 177604 56760.8 176812 57168.8 L 176044 55526 Q 176932 55046 178024 54710 Q 179116 54374 180316 54374 Q 181540 54374 182434 54620 Q 183328 54866 183910 55400 Q 184492 55934 184780 56762 Q 185068 57590 185068 58766 L 185068 67790 L 183497.2 67790 L 183494.8 67788.8 Z M 179486.8 66263.6 Q 180217.6 66263.6 180841.6 66035.6 Q 181465.6 65807.6 181921.6 65345.6 Q 182377.6 64883.6 182635.6 64181.6 Q 182893.6 63479.6 182893.6 62532.8 L 182893.6 61343.6 L 181176.4 61428.8 Q 180096.4 61476.8 179364.4 61668.8 Q 178632.4 61860.8 178194.4 62202.8 Q 177756.4 62544.8 177564.4 63030.8 Q 177372.4 63516.8 177372.4 64127.6 Q 177372.4 65231.6 177954.4 65747.6 Q 178536.4 66263.6 179485.6 66263.6 L 179486.8 66263.6 Z M 189155.2 67788.8 L 186971.2 67788.8 L 186971.2 49116.8 L 189155.2 49116.8 L 189155.2 67788.8 Z M 196428.8 68028.8 Q 195108.8 68028.8 194016.8 67584.8 Q 192924.8 67140.8 192138.8 66288.8 Q 191352.8 65436.8 190920.8 64176.8 Q 190488.8 62916.8 190488.8 61295.6 Q 190488.8 59663.6 190884.8 58379.6 Q 191280.8 57095.6 192000.8 56201.6 Q 192720.8 55307.6 193722.8 54839.6 Q 194724.8 54371.6 195938 54371.6 Q 197124.8 54371.6 198072.8 54797.6 Q 199020.8 55223.6 199680.8 55997.6 Q 200340.8 56771.6 200694.8 57857.6 Q 201048.8 58943.6 201048.8 60263.6 L 201048.8 61620.8 L 192744.8 61620.8 Q 192803.6 63935.6 193721.6 65027.6 Q 194639.6 66119.6 196450.4 66119.6 Q 197063.6 66119.6 197585.6 66059.6 Q 198107.6 65999.6 198593.6 65885.6 Q 199079.6 65771.6 199535.6 65597.6 Q 199991.6 65423.6 200458.4 65207.6 L 200458.4 67151.6 Q 199978.4 67380.8 199516.4 67548.8 Q 199054.4 67716.8 198568.4 67824.8 Q 198082.4 67932.8 197560.4 67980.8 Q 197038.4 68028.8 196425.2 68028.8 L 196428.8 68028.8 Z M 195890 56183.6 Q 194522 56183.6 193724 57119.6 Q 192926 58055.6 192795.2 59844.8 L 198699.2 59844.8 Q 198699.2 59028.8 198537.2 58350.8 Q 198375.2 57672.8 198033.2 57192.8 Q 197691.2 56712.8 197163.2 56448.8 Q 196635.2 56184.8 195891.2 56184.8 L 195890 56183.6 Z M 210114 64175.6 Q 210114 65135.6 209766 65855.6 Q 209418 66575.6 208764 67061.6 Q 208110 67547.6 207186 67787.6 Q 206262 68027.6 205110 68027.6 Q 203803.2 68027.6 202867.2 67817.6 Q 201931.2 67607.6 201222 67199.6 L 201222 65207.6 Q 201595.2 65399.6 202051.2 65585.6 Q 202507.2 65771.6 203011.2 65915.6 Q 203515.2 66059.6 204049.2 66149.6 Q 204583.2 66239.6 205111.2 66239.6 Q 205892.4 66239.6 206438.4 66107.6 Q 206984.4 65975.6 207326.4 65729.6 Q 207668.4 65483.6 207824.4 65129.6 Q 207980.4 64775.6 207980.4 64343.6 Q 207980.4 63972.8 207860.4 63672.8 Q 207740.4 63372.8 207422.4 63078.8 Q 207104.4 62784.8 206552.4 62484.8 Q 206000.4 62184.8 205136.4 61814 Q 204272.4 61440.8 203582.4 61080.8 Q 202892.4 60720.8 202412.4 60276.8 Q 201932.4 59832.8 201674.4 59250.8 Q 201416.4 58668.8 201416.4 57863.6 Q 201416.4 57023.6 201746.4 56369.6 Q 202076.4 55715.6 202676.4 55271.6 Q 203276.4 54827.6 204116.4 54599.6 Q 204956.4 54371.6 205988.4 54371.6 Q 207151.2 54371.6 208117.2 54623.6 Q 209083.2 54875.6 209947.2 55283.6 L 209190 57046.4 Q 208411.2 56699.6 207589.2 56441.6 Q 206767.2 56183.6 205916.4 56183.6 Q 204692.4 56183.6 204104.4 56585.6 Q 203516.4 56987.6 203516.4 57731.6 Q 203516.4 58150.4 203654.4 58462.4 Q 203792.4 58774.4 204128.4 59050.4 Q 204464.4 59326.4 205028.4 59608.4 Q 205592.4 59890.4 206432.4 60237.2 Q 207296.4 60597.2 207974.4 60957.2 Q 208652.4 61317.2 209132.4 61767.2 Q 209612.4 62217.2 209864.4 62793.2 Q 210116.4 63369.2 210116.4 64172 L 210114 64175.6 Z M 214385.6 61055.6 Q 214385.6 59556.8 214601.6 58098.8 Q 214817.6 56640.8 215261.6 55266.8 Q 215705.6 53892.8 216383.6 52626.8 Q 217061.6 51360.8 217997.6 50246 L 220061.6 50246 Q 218381.6 52560.8 217511.6 55332.8 Q 216641.6 58104.8 216641.6 61032.8 Q 216641.6 62462 216863.6 63878 Q 217085.6 65294 217511.6 66650 Q 217937.6 68006 218573.6 69278 Q 219209.6 70550 220038.8 71678 L 217998.8 71678 Q 217062.8 70598 216384.8 69362 Q 215706.8 68126 215262.8 66776 Q 214818.8 65426 214602.8 63986 Q 214386.8 62546 214386.8 61058 L 214385.6 61055.6 Z M 225507.6 49967.6 Q 226515.6 49967.6 227409.6 50231.6 Q 228303.6 50495.6 228981.6 51023.6 Q 229659.6 51551.6 230055.6 52343.6 Q 230451.6 53135.6 230451.6 54191.6 Q 230451.6 54996.8 230211.6 55644.8 Q 229971.6 56292.8 229551.6 56814.8 Q 229131.6 57336.8 228555.6 57750.8 Q 227979.6 58164.8 227307.6 58500.8 Q 228003.6 58871.6 228669.6 59327.6 Q 229335.6 59783.6 229857.6 60353.6 Q 230379.6 60923.6 230697.6 61631.6 Q 231015.6 62339.6 231015.6 63214.4 Q 231015.6 64318.4 230613.6 65212.4 Q 230211.6 66106.4 229485.6 66730.4 Q 228759.6 67354.4 227745.6 67690.4 Q 226731.6 68026.4 225507.6 68026.4 Q 224187.6 68026.4 223161.6 67702.4 Q 222135.6 67378.4 221433.6 66772.4 Q 220731.6 66166.4 220365.6 65290.4 Q 219999.6 64414.4 219999.6 63310.4 Q 219999.6 62411.6 220269.6 61691.6 Q 220539.6 60971.6 220995.6 60395.6 Q 221451.6 59819.6 222075.6 59375.6 Q 222699.6 58931.6 223395.6 58595.6 Q 222806.4 58222.4 222290.4 57784.4 Q 221774.4 57346.4 221396.4 56806.4 Q 221018.4 56266.4 220796.4 55612.4 Q 220574.4 54958.4 220574.4 54166.4 Q 220574.4 53123.6 220976.4 52337.6 Q 221378.4 51551.6 222062.4 51023.6 Q 222746.4 50495.6 223640.4 50231.6 Q 224534.4 49967.6 225507.6 49967.6  Z M 222147.6 63335.6 Q 222147.6 63972.8 222339.6 64506.8 Q 222531.6 65040.8 222939.6 65418.8 Q 223347.6 65796.8 223971.6 66006.8 Q 224595.6 66216.8 225459.6 66216.8 Q 226299.6 66216.8 226941.6 66006.8 Q 227583.6 65796.8 228015.6 65406.8 Q 228447.6 65016.8 228663.6 64464.8 Q 228879.6 63912.8 228879.6 63240.8 Q 228879.6 62616.8 228645.6 62112.8 Q 228411.6 61608.8 227973.6 61176.8 Q 227535.6 60744.8 226923.6 60360.8 Q 226311.6 59976.8 225556.8 59606 L 225196.8 59438 Q 223684.8 60158 222916.8 61088 Q 222148.8 62018 222148.8 63338 L 222147.6 63335.6 Z M 225483.6 51791.6 Q 224211.6 51791.6 223461.6 52427.6 Q 222711.6 53063.6 222711.6 54276.8 Q 222711.6 54959.6 222921.6 55451.6 Q 223131.6 55943.6 223503.6 56327.6 Q 223875.6 56711.6 224397.6 57017.6 Q 224919.6 57323.6 225532.8 57611.6 Q 226108.8 57347.6 226618.8 57035.6 Q 227128.8 56723.6 227506.8 56327.6 Q 227884.8 55931.6 228100.8 55427.6 Q 228316.8 54923.6 228316.8 54275.6 Q 228316.8 53062.4 227560.8 52426.4 Q 226804.8 51790.4 225484.8 51790.4 L 225483.6 51791.6 Z M 93634 107132.4 Q 93634 108092.4 93286 108812.4 Q 92938 109532.4 92284 110018.4 Q 91630 110504.4 90706 110744.4 Q 89782 110984.4 88630 110984.4 Q 87323.2 110984.4 86387.2 110774.4 Q 85451.2 110564.4 84742 110156.4 L 84742 108164.4 Q 85115.2 108356.4 85571.2 108542.4 Q 86027.2 108728.4 86531.2 108872.4 Q 87035.2 109016.4 87569.2 109106.4 Q 88103.2 109196.4 88631.2 109196.4 Q 89412.4 109196.4 89958.4 109064.4 Q 90504.4 108932.4 90846.4 108686.4 Q 91188.4 108440.4 91344.4 108086.4 Q 91500.4 107732.4 91500.4 107300.4 Q 91500.4 106929.6 91380.4 106629.6 Q 91260.4 106329.6 90942.4 106035.6 Q 90624.4 105741.6 90072.4 105441.6 Q 89520.4 105141.6 88656.4 104770.8 Q 87792.4 104397.6 87102.4 104037.6 Q 86412.4 103677.6 85932.4 103233.6 Q 85452.4 102789.6 85194.4 102207.6 Q 84936.4 101625.6 84936.4 100820.4 Q 84936.4 99980.4 85266.4 99326.4 Q 85596.4 98672.4 86196.4 98228.4 Q 86796.4 97784.4 87636.4 97556.4 Q 88476.4 97328.4 89508.4 97328.4 Q 90671.2 97328.4 91637.2 97580.4 Q 92603.2 97832.4 93467.2 98240.4 L 92710 100003.2 Q 91931.2 99656.4 91109.2 99398.4 Q 90287.2 99140.4 89436.4 99140.4 Q 88212.4 99140.4 87624.4 99542.4 Q 87036.4 99944.4 87036.4 100688.4 Q 87036.4 101107.2 87174.4 101419.2 Q 87312.4 101731.2 87648.4 102007.2 Q 87984.4 102283.2 88548.4 102565.2 Q 89112.4 102847.2 89952.4 103194 Q 90816.4 103554 91494.4 103914 Q 92172.4 104274 92652.4 104724 Q 93132.4 105174 93384.4 105750 Q 93636.4 106326 93636.4 107128.8 L 93634 107132.4 Z M 99968 110985.6 Q 98648 110985.6 97556 110541.6 Q 96464 110097.6 95678 109245.6 Q 94892 108393.6 94460 107133.6 Q 94028 105873.6 94028 104252.4 Q 94028 102620.4 94424 101336.4 Q 94820 100052.4 95540 99158.4 Q 96260 98264.4 97262 97796.4 Q 98264 97328.4 99477.2 97328.4 Q 100664 97328.4 101612 97754.4 Q 102560 98180.4 103220 98954.4 Q 103880 99728.4 104234 100814.4 Q 104588 101900.4 104588 103220.4 L 104588 104577.6 L 96284 104577.6 Q 96342.8 106892.4 97260.8 107984.4 Q 98178.8 109076.4 99989.6 109076.4 Q 100602.8 109076.4 101124.8 109016.4 Q 101646.8 108956.4 102132.8 108842.4 Q 102618.8 108728.4 103074.8 108554.4 Q 103530.8 108380.4 103997.6 108164.4 L 103997.6 110108.4 Q 103517.6 110337.6 103055.6 110505.6 Q 102593.6 110673.6 102107.6 110781.6 Q 101621.6 110889.6 101099.6 110937.6 Q 100577.6 110985.6 99964.4 110985.6 L 99968 110985.6 Z M 99429.2 99140.4 Q 98061.2 99140.4 97263.2 100076.4 Q 96465.2 101012.4 96334.4 102801.6 L 102238.4 102801.6 Q 102238.4 101985.6 102076.4 101307.6 Q 101914.4 100629.6 101572.4 100149.6 Q 101230.4 99669.6 100702.4 99405.6 Q 100174.4 99141.6 99430.4 99141.6 L 99429.2 99140.4 Z M 113653.2 107132.4 Q 113653.2 108092.4 113305.2 108812.4 Q 112957.2 109532.4 112303.2 110018.4 Q 111649.2 110504.4 110725.2 110744.4 Q 109801.2 110984.4 108649.2 110984.4 Q 107342.4 110984.4 106406.4 110774.4 Q 105470.4 110564.4 104761.2 110156.4 L 104761.2 108164.4 Q 105134.4 108356.4 105590.4 108542.4 Q 106046.4 108728.4 106550.4 108872.4 Q 107054.4 109016.4 107588.4 109106.4 Q 108122.4 109196.4 108650.4 109196.4 Q 109431.6 109196.4 109977.6 109064.4 Q 110523.6 108932.4 110865.6 108686.4 Q 111207.6 108440.4 111363.6 108086.4 Q 111519.6 107732.4 111519.6 107300.4 Q 111519.6 106929.6 111399.6 106629.6 Q 111279.6 106329.6 110961.6 106035.6 Q 110643.6 105741.6 110091.6 105441.6 Q 109539.6 105141.6 108675.6 104770.8 Q 107811.6 104397.6 107121.6 104037.6 Q 106431.6 103677.6 105951.6 103233.6 Q 105471.6 102789.6 105213.6 102207.6 Q 104955.6 101625.6 104955.6 100820.4 Q 104955.6 99980.4 105285.6 99326.4 Q 105615.6 98672.4 106215.6 98228.4 Q 106815.6 97784.4 107655.6 97556.4 Q 108495.6 97328.4 109527.6 97328.4 Q 110690.4 97328.4 111656.4 97580.4 Q 112622.4 97832.4 113486.4 98240.4 L 112729.2 100003.2 Q 111950.4 99656.4 111128.4 99398.4 Q 110306.4 99140.4 109455.6 99140.4 Q 108231.6 99140.4 107643.6 99542.4 Q 107055.6 99944.4 107055.6 100688.4 Q 107055.6 101107.2 107193.6 101419.2 Q 107331.6 101731.2 107667.6 102007.2 Q 108003.6 102283.2 108567.6 102565.2 Q 109131.6 102847.2 109971.6 103194 Q 110835.6 103554 111513.6 103914 Q 112191.6 104274 112671.6 104724 Q 113151.6 105174 113403.6 105750 Q 113655.6 106326 113655.6 107128.8 L 113653.2 107132.4 Z M 116963.2 110745.6 L 114779.2 110745.6 L 114779.2 97569.6 L 116963.2 97569.6 L 116963.2 110745.6 Z M 114611.2 94004.4 Q 114611.2 93284.4 114977.2 92960.4 Q 115343.2 92636.4 115882 92636.4 Q 116146 92636.4 116380 92714.4 Q 116614 92792.4 116788 92960.4 Q 116962 93128.4 117064 93386.4 Q 117166 93644.4 117166 94004.4 Q 117166 94700.4 116788 95042.4 Q 116410 95384.4 115882 95384.4 Q 115343.2 95384.4 114977.2 95048.4 Q 114611.2 94712.4 114611.2 94003.2 L 114611.2 94004.4 Z M 129770 104132.4 Q 129770 105777.6 129368 107055.6 Q 128966 108333.6 128216 109203.6 Q 127466 110073.6 126398 110529.6 Q 125330 110985.6 123996.8 110985.6 Q 122762 110985.6 121718 110529.6 Q 120674 110073.6 119912 109203.6 Q 119150 108333.6 118724 107055.6 Q 118298 105777.6 118298 104132.4 Q 118298 102500.4 118700 101234.4 Q 119102 99968.4 119846 99098.4 Q 120590 98228.4 121664 97778.4 Q 122738 97328.4 124068.8 97328.4 Q 125306 97328.4 126350 97778.4 Q 127394 98228.4 128156 99098.4 Q 128918 99968.4 129344 101234.4 Q 129770 102500.4 129770 104132.4  Z M 120554 104132.4 Q 120554 106641.6 121376 107907.6 Q 122198 109173.6 124046 109173.6 Q 125894 109173.6 126704 107907.6 Q 127514 106641.6 127514 104132.4 Q 127514 101625.6 126692 100383.6 Q 125870 99141.6 124022 99141.6 Q 122174 99141.6 121364 100383.6 Q 120554 101625.6 120554 104132.4  Z M 139395.2 110745.6 L 139395.2 102260.4 Q 139395.2 100700.4 138765.2 99920.4 Q 138135.2 99140.4 136791.2 99140.4 Q 135818 99140.4 135158 99452.4 Q 134498 99764.4 134096 100376.4 Q 133694 100988.4 133520 101876.4 Q 133346 102764.4 133346 103916.4 L 133346 110745.6 L 131162 110745.6 L 131162 97569.6 L 132938 97569.6 L 133250 99345.6 L 133370 99345.6 Q 133671.2 98828.4 134085.2 98450.4 Q 134499.2 98072.4 134991.2 97820.4 Q 135483.2 97568.4 136035.2 97448.4 Q 136587.2 97328.4 137163.2 97328.4 Q 139360.4 97328.4 140470.4 98474.4 Q 141580.4 99620.4 141580.4 102140.4 L 141580.4 110745.6 L 139396.4 110745.6 L 139395.2 110745.6 Z M 148761.6 110985.6 Q 147441.6 110985.6 146349.6 110541.6 Q 145257.6 110097.6 144471.6 109245.6 Q 143685.6 108393.6 143253.6 107133.6 Q 142821.6 105873.6 142821.6 104252.4 Q 142821.6 102620.4 143217.6 101336.4 Q 143613.6 100052.4 144333.6 99158.4 Q 145053.6 98264.4 146055.6 97796.4 Q 147057.6 97328.4 148270.8 97328.4 Q 149457.6 97328.4 150405.6 97754.4 Q 151353.6 98180.4 152013.6 98954.4 Q 152673.6 99728.4 153027.6 100814.4 Q 153381.6 101900.4 153381.6 103220.4 L 153381.6 104577.6 L 145077.6 104577.6 Q 145136.4 106892.4 146054.4 107984.4 Q 146972.4 109076.4 148783.2 109076.4 Q 149396.4 109076.4 149918.4 109016.4 Q 150440.4 108956.4 150926.4 108842.4 Q 151412.4 108728.4 151868.4 108554.4 Q 152324.4 108380.4 152791.2 108164.4 L 152791.2 110108.4 Q 152311.2 110337.6 151849.2 110505.6 Q 151387.2 110673.6 150901.2 110781.6 Q 150415.2 110889.6 149893.2 110937.6 Q 149371.2 110985.6 148758 110985.6 L 148761.6 110985.6 Z M 148222.8 99140.4 Q 146854.8 99140.4 146056.8 100076.4 Q 145258.8 101012.4 145128 102801.6 L 151032 102801.6 Q 151032 101985.6 150870 101307.6 Q 150708 100629.6 150366 100149.6 Q 150024 99669.6 149496 99405.6 Q 148968 99141.6 148224 99141.6 L 148222.8 99140.4 Z M 162446.8 107132.4 Q 162446.8 108092.4 162098.8 108812.4 Q 161750.8 109532.4 161096.8 110018.4 Q 160442.8 110504.4 159518.8 110744.4 Q 158594.8 110984.4 157442.8 110984.4 Q 156136 110984.4 155200 110774.4 Q 154264 110564.4 153554.8 110156.4 L 153554.8 108164.4 Q 153928 108356.4 154384 108542.4 Q 154840 108728.4 155344 108872.4 Q 155848 109016.4 156382 109106.4 Q 156916 109196.4 157444 109196.4 Q 158225.2 109196.4 158771.2 109064.4 Q 159317.2 108932.4 159659.2 108686.4 Q 160001.2 108440.4 160157.2 108086.4 Q 160313.2 107732.4 160313.2 107300.4 Q 160313.2 106929.6 160193.2 106629.6 Q 160073.2 106329.6 159755.2 106035.6 Q 159437.2 105741.6 158885.2 105441.6 Q 158333.2 105141.6 157469.2 104770.8 Q 156605.2 104397.6 155915.2 104037.6 Q 155225.2 103677.6 154745.2 103233.6 Q 154265.2 102789.6 154007.2 102207.6 Q 153749.2 101625.6 153749.2 100820.4 Q 153749.2 99980.4 154079.2 99326.4 Q 154409.2 98672.4 155009.2 98228.4 Q 155609.2 97784.4 156449.2 97556.4 Q 157289.2 97328.4 158321.2 97328.4 Q 159484 97328.4 160450 97580.4 Q 161416 97832.4 162280 98240.4 L 161522.8 100003.2 Q 160744 99656.4 159922 99398.4 Q 159100 99140.4 158249.2 99140.4 Q 157025.2 99140.4 156437.2 99542.4 Q 155849.2 99944.4 155849.2 100688.4 Q 155849.2 101107.2 155987.2 101419.2 Q 156125.2 101731.2 156461.2 102007.2 Q 156797.2 102283.2 157361.2 102565.2 Q 157925.2 102847.2 158765.2 103194 Q 159629.2 103554 160307.2 103914 Q 160985.2 104274 161465.2 104724 Q 161945.2 105174 162197.2 105750 Q 162449.2 106326 162449.2 107128.8 L 162446.8 107132.4 Z M 167906 104012.4 Q 167906 105500.4 167690 106940.4 Q 167474 108380.4 167024 109730.4 Q 166574 111080.4 165896 112316.4 Q 165218 113552.4 164282 114632.4 L 162242 114632.4 Q 163068.8 113504.4 163704.8 112232.4 Q 164340.8 110960.4 164772.8 109604.4 Q 165204.8 108248.4 165420.8 106832.4 Q 165636.8 105416.4 165636.8 103987.2 Q 165636.8 101059.2 164772.8 98287.2 Q 163908.8 95515.2 162218 93200.4 L 164282 93200.4 Q 165218 94315.2 165896 95581.2 Q 166574 96847.2 167024 98221.2 Q 167474 99595.2 167690 101053.2 Q 167906 102511.2 167906 104010 L 167906 104012.4 Z " fill-rule="nonzero" style="fill:#ffffff;;fill-opacity:1;"/>
</svg>