<svg version="1.1" x="0" y="0" width="100%" height="100%" viewBox="0 0 40345.6 34764.8" xmlns="http://www.w3.org/2000/svg">
  <path d="M 20064 16034.8 Q 20064 18160 19758 19840 Q 19452 21520 18774 22684 Q 18096 23848 17028 24460 Q 15960 25072 14437.2 25072 Q 13021.2 25072 11971.2 24460 Q 10921.2 23848 10231.2 22684 Q 9541.2 21520 9199.2 19840 Q 8857.2 18160 8857.2 16034.8 Q 8857.2 13912 9163.2 12232 Q 9469.2 10552 10135.2 9394 Q 10801.2 8236 11863.2 7624 Q 12925.2 7012 14437.2 7012 Q 15864 7012 16920 7618 Q 17976 8224 18672 9382 Q 19368 10540 19716 12220 Q 20064 13900 20064 16036 L 20064 16034.8 Z M 11077.2 16034.8 Q 11077.2 17834.8 11257.2 19178.8 Q 11437.2 20522.8 11833.2 21416.8 Q 12229.2 22310.8 12871.2 22760.8 Q 13513.2 23210.8 14438.4 23210.8 Q 15361.2 23210.8 16009.2 22766.8 Q 16657.2 22322.8 17071.2 21434.8 Q 17485.2 20546.8 17671.2 19196.8 Q 17857.2 17846.8 17857.2 16033.6 Q 17857.2 14233.6 17671.2 12889.6 Q 17485.2 11545.6 17071.2 10657.6 Q 16657.2 9769.6 16009.2 9325.6 Q 15361.2 8881.6 14438.4 8881.6 Q 13513.2 8881.6 12871.2 9325.6 Q 12229.2 9769.6 11833.2 10657.6 Q 11437.2 11545.6 11257.2 12889.6 Q 11077.2 14233.6 11077.2 16033.6 L 11077.2 16034.8 Z M 32268.8 24832 L 21324.8 24832 L 21324.8 22960 L 25524.8 18386.8 Q 26426 17416 27134 16612 Q 27842 15808 28340 15040 Q 28838 14272 29102 13498 Q 29366 12724 29366 11812 Q 29366 11105.2 29162 10565.2 Q 28958 10025.2 28580 9647.2 Q 28202 9269.2 27686 9077.2 Q 27170 8885.2 26532.8 8885.2 Q 25394 8885.2 24476 9347.2 Q 23558 9809.2 22731.2 10529.2 L 21507.2 9100 Q 21987.2 8668 22539.2 8290 Q 23091.2 7912 23727.2 7636 Q 24363.2 7360 25071.2 7198 Q 25779.2 7036 26558 7036 Q 27710 7036 28640 7360 Q 29570 7684 30218 8290 Q 30866 8896 31220 9766 Q 31574 10636 31574 11729.2 Q 31574 12748 31256 13672 Q 30938 14596 30380 15490 Q 29822 16384 29048 17284 Q 28274 18184 27372.8 19154.8 L 24002 22744 L 24002 22840 L 32268.8 22840 L 32268.8 24832 Z " fill-rule="nonzero" style="fill:#535353;;fill-opacity:1;"/>
</svg>