<svg version="1.1" x="0" y="0" width="100%" height="100%" viewBox="0 0 39782.4 63795.2" xmlns="http://www.w3.org/2000/svg">
  <path d="M 19413.1 27185.3 Q 21885.6 27185.3 24023.1 27872.8 Q 26160.6 28560.3 27748.1 29910.3 Q 29335.6 31260.3 30235.6 33260.3 Q 31135.6 35260.3 31135.6 37882.8 Q 31135.6 40732.8 30285.6 43007.8 Q 29435.6 45282.8 27760.6 46857.8 Q 26085.6 48432.8 23623.1 49270.3 Q 21160.6 50107.8 17960.6 50107.8 Q 16683.1 50107.8 15445.6 49982.8 Q 14208.1 49857.8 13070.6 49620.3 Q 11933.1 49382.8 10908.1 49007.8 Q 9883.1 48632.8 9060.6 48132.8 L 9060.6 43832.8 Q 9883.1 44410.3 10995.6 44860.3 Q 12108.1 45310.3 13333.1 45610.3 Q 14558.1 45910.3 15795.6 46072.8 Q 17033.1 46235.3 18083.1 46235.3 Q 20060.6 46235.3 21610.6 45772.8 Q 23160.6 45310.3 24235.6 44335.3 Q 25310.6 43360.3 25885.6 41885.3 Q 26460.6 40410.3 26460.6 38382.8 Q 26460.6 34810.3 24260.6 32922.8 Q 22060.6 31035.3 17860.6 31035.3 Q 17183.1 31035.3 16395.6 31097.8 Q 15608.1 31160.3 14820.6 31260.3 Q 14033.1 31360.3 13320.6 31472.8 Q 12608.1 31585.3 12080.6 31685.3 L 9830.6 30262.8 L 11208.1 13062.8 L 28458.1 13062.8 L 28458.1 17212.8 L 15158.1 17212.8 L 14180.6 27685.3 Q 14980.6 27535.3 16293.1 27360.3 Q 17605.6 27185.3 19405.6 27185.3 L 19413.1 27185.3 Z " fill-rule="nonzero" style="fill:#ffffff;;fill-opacity:1;"/>
</svg>