<svg version="1.1" x="0" y="0" width="100%" height="100%" viewBox="0 0 38860.8 32716.8" xmlns="http://www.w3.org/2000/svg">
  <path d="M 19296 16034.8 Q 19296 18160 18990 19840 Q 18684 21520 18006 22684 Q 17328 23848 16260 24460 Q 15192 25072 13669.2 25072 Q 12253.2 25072 11203.2 24460 Q 10153.2 23848 9463.2 22684 Q 8773.2 21520 8431.2 19840 Q 8089.2 18160 8089.2 16034.8 Q 8089.2 13912 8395.2 12232 Q 8701.2 10552 9367.2 9394 Q 10033.2 8236 11095.2 7624 Q 12157.2 7012 13669.2 7012 Q 15096 7012 16152 7618 Q 17208 8224 17904 9382 Q 18600 10540 18948 12220 Q 19296 13900 19296 16036 L 19296 16034.8 Z M 10309.2 16034.8 Q 10309.2 17834.8 10489.2 19178.8 Q 10669.2 20522.8 11065.2 21416.8 Q 11461.2 22310.8 12103.2 22760.8 Q 12745.2 23210.8 13670.4 23210.8 Q 14593.2 23210.8 15241.2 22766.8 Q 15889.2 22322.8 16303.2 21434.8 Q 16717.2 20546.8 16903.2 19196.8 Q 17089.2 17846.8 17089.2 16033.6 Q 17089.2 14233.6 16903.2 12889.6 Q 16717.2 11545.6 16303.2 10657.6 Q 15889.2 9769.6 15241.2 9325.6 Q 14593.2 8881.6 13670.4 8881.6 Q 12745.2 8881.6 12103.2 9325.6 Q 11461.2 9769.6 11065.2 10657.6 Q 10669.2 11545.6 10489.2 12889.6 Q 10309.2 14233.6 10309.2 16033.6 L 10309.2 16034.8 Z M 27938 24832 L 25826 24832 L 25826 13874.8 Q 25826 13360 25832 12772 Q 25838 12184 25856 11602 Q 25874 11020 25892 10486 Q 25910 9952 25923.2 9544 Q 25718 9760 25562 9916 Q 25406 10072 25244 10216 Q 25082 10360 24902 10522 Q 24722 10684 24468.8 10900 L 22692.8 12353.2 L 21540.8 10876 L 26138 7289.2 L 27938 7289.2 L 27938 24833.2 L 27938 24832 Z " fill-rule="nonzero" style="fill:#ffffff;;fill-opacity:1;"/>
</svg>