<svg version="1.1" x="0" y="0" width="100%" height="100%" viewBox="0 0 390400 63795.2" xmlns="http://www.w3.org/2000/svg">
  <path d="M 34408.3 34512.8 L 34408.3 49612.8 L 29758.3 49612.8 L 29758.3 13062.8 L 38658.3 13062.8 Q 45308.3 13062.8 48483.3 15637.8 Q 51658.3 18212.8 51658.3 23435.3 Q 51658.3 25612.8 51045.8 27237.8 Q 50433.3 28862.8 49420.8 30025.3 Q 48408.3 31187.8 47108.3 31962.8 Q 45808.3 32737.8 44430.8 33237.8 L 54380.8 49615.3 L 48908.3 49615.3 L 40130.8 34515.3 L 34408.3 34515.3 L 34408.3 34512.8 Z M 34408.3 30562.8 L 38508.3 30562.8 Q 40758.3 30562.8 42333.3 30125.3 Q 43908.3 29687.8 44920.8 28825.3 Q 45933.3 27962.8 46395.8 26675.3 Q 46858.3 25387.8 46858.3 23665.3 Q 46858.3 21865.3 46345.8 20615.3 Q 45833.3 19365.3 44795.8 18565.3 Q 43758.3 17765.3 42170.8 17402.8 Q 40583.3 17040.3 38410.8 17040.3 L 34410.8 17040.3 L 34410.8 30567.8 L 34408.3 30562.8 Z M 69216 50112.8 Q 66466 50112.8 64191 49187.8 Q 61916 48262.8 60278.5 46487.8 Q 58641 44712.8 57741 42087.8 Q 56841 39462.8 56841 36085.3 Q 56841 32685.3 57666 30010.3 Q 58491 27335.3 59991 25472.8 Q 61491 23610.3 63578.5 22635.3 Q 65666 21660.3 68193.5 21660.3 Q 70666 21660.3 72641 22547.8 Q 74616 23435.3 75991 25047.8 Q 77366 26660.3 78103.5 28922.8 Q 78841 31185.3 78841 33935.3 L 78841 36762.8 L 61541 36762.8 Q 61663.5 41585.3 63576 43860.3 Q 65488.5 46135.3 69261 46135.3 Q 70538.5 46135.3 71626 46010.3 Q 72713.5 45885.3 73726 45647.8 Q 74738.5 45410.3 75688.5 45047.8 Q 76638.5 44685.3 77611 44235.3 L 77611 48285.3 Q 76611 48762.8 75648.5 49112.8 Q 74686 49462.8 73673.5 49687.8 Q 72661 49912.8 71573.5 50012.8 Q 70486 50112.8 69208.5 50112.8 L 69216 50112.8 Z M 68093.5 25435.3 Q 65243.5 25435.3 63581 27385.3 Q 61918.5 29335.3 61646 33062.8 L 73946 33062.8 Q 73946 31362.8 73608.5 29950.3 Q 73271 28537.8 72558.5 27537.8 Q 71846 26537.8 70746 25987.8 Q 69646 25437.8 68096 25437.8 L 68093.5 25435.3 Z M 100109.1 49612.8 L 99181.6 45812.8 L 98981.6 45812.8 Q 98159.1 46935.3 97334.1 47747.8 Q 96509.1 48560.3 95534.1 49085.3 Q 94559.1 49610.3 93359.1 49860.3 Q 92159.1 50110.3 90581.6 50110.3 Q 88859.1 50110.3 87409.1 49622.8 Q 85959.1 49135.3 84896.6 48122.8 Q 83834.1 47110.3 83234.1 45572.8 Q 82634.1 44035.3 82634.1 41935.3 Q 82634.1 37835.3 85521.6 35635.3 Q 88409.1 33435.3 94309.1 33235.3 L 98909.1 33062.8 L 98909.1 31335.3 Q 98909.1 29662.8 98546.6 28537.8 Q 98184.1 27412.8 97496.6 26725.3 Q 96809.1 26037.8 95796.6 25737.8 Q 94784.1 25437.8 93484.1 25437.8 Q 91411.6 25437.8 89624.1 26037.8 Q 87836.6 26637.8 86186.6 27487.8 L 84586.6 24065.3 Q 86436.6 23065.3 88711.6 22365.3 Q 90986.6 21665.3 93486.6 21665.3 Q 96036.6 21665.3 97899.1 22177.8 Q 99761.6 22690.3 100974.1 23802.8 Q 102186.6 24915.3 102786.6 26640.3 Q 103386.6 28365.3 103386.6 30815.3 L 103386.6 49615.3 L 100114.1 49615.3 L 100109.1 49612.8 Z M 91759.1 46435.3 Q 93281.6 46435.3 94581.6 45960.3 Q 95881.6 45485.3 96831.6 44522.8 Q 97781.6 43560.3 98319.1 42097.8 Q 98856.6 40635.3 98856.6 38662.8 L 98856.6 36185.3 L 95279.1 36362.8 Q 93029.1 36462.8 91504.1 36862.8 Q 89979.1 37262.8 89066.6 37975.3 Q 88154.1 38687.8 87754.1 39700.3 Q 87354.1 40712.8 87354.1 41985.3 Q 87354.1 44285.3 88566.6 45360.3 Q 89779.1 46435.3 91756.6 46435.3 L 91759.1 46435.3 Z M 115242.4 49612.8 L 110692.4 49612.8 L 110692.4 10712.8 L 115242.4 10712.8 L 115242.4 49612.8 Z M 127428 49612.8 L 122878 49612.8 L 122878 22162.8 L 127428 22162.8 L 127428 49612.8 Z M 122528 14735.3 Q 122528 13235.3 123290.5 12560.3 Q 124053 11885.3 125175.5 11885.3 Q 125725.5 11885.3 126213 12047.8 Q 126700.5 12210.3 127063 12560.3 Q 127425.5 12910.3 127638 13447.8 Q 127850.5 13985.3 127850.5 14735.3 Q 127850.5 16185.3 127063 16897.8 Q 126275.5 17610.3 125175.5 17610.3 Q 124053 17610.3 123290.5 16910.3 Q 122528 16210.3 122528 14732.8 L 122528 14735.3 Z M 167941.1 49612.8 L 167941.1 31935.3 Q 167941.1 28685.3 166691.1 27060.3 Q 165441.1 25435.3 162813.6 25435.3 Q 160991.1 25435.3 159716.1 26022.8 Q 158441.1 26610.3 157628.6 27747.8 Q 156816.1 28885.3 156441.1 30572.8 Q 156066.1 32260.3 156066.1 34460.3 L 156066.1 49610.3 L 151493.6 49610.3 L 151493.6 31932.8 Q 151493.6 28682.8 150256.1 27057.8 Q 149018.6 25432.8 146396.1 25432.8 Q 144468.6 25432.8 143168.6 26082.8 Q 141868.6 26732.8 141081.1 28007.8 Q 140293.6 29282.8 139956.1 31132.8 Q 139618.6 32982.8 139618.6 35382.8 L 139618.6 49610.3 L 135068.6 49610.3 L 135068.6 22160.3 L 138768.6 22160.3 L 139418.6 25860.3 L 139668.6 25860.3 Q 140268.6 24782.8 141093.6 23995.3 Q 141918.6 23207.8 142906.1 22682.8 Q 143893.6 22157.8 145006.1 21907.8 Q 146118.6 21657.8 147268.6 21657.8 Q 150268.6 21657.8 152256.1 22757.8 Q 154243.6 23857.8 155193.6 26207.8 L 155393.6 26207.8 Q 156043.6 25030.3 156956.1 24180.3 Q 157868.6 23330.3 158956.1 22767.8 Q 160043.6 22205.3 161243.6 21930.3 Q 162443.6 21655.3 163693.6 21655.3 Q 168066.1 21655.3 170278.6 24042.8 Q 172491.1 26430.3 172491.1 31680.3 L 172491.1 49607.8 L 167941.1 49607.8 L 167941.1 49612.8 Z M 190713.6 50112.8 Q 187963.6 50112.8 185688.6 49187.8 Q 183413.6 48262.8 181776.1 46487.8 Q 180138.6 44712.8 179238.6 42087.8 Q 178338.6 39462.8 178338.6 36085.3 Q 178338.6 32685.3 179163.6 30010.3 Q 179988.6 27335.3 181488.6 25472.8 Q 182988.6 23610.3 185076.1 22635.3 Q 187163.6 21660.3 189691.1 21660.3 Q 192163.6 21660.3 194138.6 22547.8 Q 196113.6 23435.3 197488.6 25047.8 Q 198863.6 26660.3 199601.1 28922.8 Q 200338.6 31185.3 200338.6 33935.3 L 200338.6 36762.8 L 183038.6 36762.8 Q 183161.1 41585.3 185073.6 43860.3 Q 186986.1 46135.3 190758.6 46135.3 Q 192036.1 46135.3 193123.6 46010.3 Q 194211.1 45885.3 195223.6 45647.8 Q 196236.1 45410.3 197186.1 45047.8 Q 198136.1 44685.3 199108.6 44235.3 L 199108.6 48285.3 Q 198108.6 48762.8 197146.1 49112.8 Q 196183.6 49462.8 195171.1 49687.8 Q 194158.6 49912.8 193071.1 50012.8 Q 191983.6 50112.8 190706.1 50112.8 L 190713.6 50112.8 Z M 189591.1 25435.3 Q 186741.1 25435.3 185078.6 27385.3 Q 183416.1 29335.3 183143.6 33062.8 L 195443.6 33062.8 Q 195443.6 31362.8 195106.1 29950.3 Q 194768.6 28537.8 194056.1 27537.8 Q 193343.6 26537.8 192243.6 25987.8 Q 191143.6 25437.8 189593.6 25437.8 L 189591.1 25435.3 Z M 223279.2 49612.8 L 223279.2 31935.3 Q 223279.2 28685.3 221966.7 27060.3 Q 220654.2 25435.3 217854.2 25435.3 Q 215826.7 25435.3 214451.7 26085.3 Q 213076.7 26735.3 212239.2 28010.3 Q 211401.7 29285.3 211039.2 31135.3 Q 210676.7 32985.3 210676.7 35385.3 L 210676.7 49612.8 L 206126.7 49612.8 L 206126.7 22162.8 L 209826.7 22162.8 L 210476.7 25862.8 L 210726.7 25862.8 Q 211354.2 24785.3 212216.7 23997.8 Q 213079.2 23210.3 214104.2 22685.3 Q 215129.2 22160.3 216279.2 21910.3 Q 217429.2 21660.3 218629.2 21660.3 Q 223206.7 21660.3 225519.2 24047.8 Q 227831.7 26435.3 227831.7 31685.3 L 227831.7 49612.8 L 223281.7 49612.8 L 223279.2 49612.8 Z M 243459.6 46385.3 Q 243909.6 46385.3 244472.1 46335.3 Q 245034.6 46285.3 245559.6 46210.3 Q 246084.6 46135.3 246522.1 46035.3 Q 246959.6 45935.3 247187.1 45862.8 L 247187.1 49312.8 Q 246859.6 49462.8 246359.6 49612.8 Q 245859.6 49762.8 245259.6 49875.3 Q 244659.6 49987.8 244009.6 50050.3 Q 243359.6 50112.8 242737.1 50112.8 Q 241187.1 50112.8 239862.1 49712.8 Q 238537.1 49312.8 237574.6 48337.8 Q 236612.1 47362.8 236062.1 45700.3 Q 235512.1 44037.8 235512.1 41515.3 L 235512.1 25587.8 L 231639.6 25587.8 L 231639.6 23565.3 L 235512.1 21615.3 L 237462.1 15865.3 L 240089.6 15865.3 L 240089.6 22165.3 L 246989.6 22165.3 L 246989.6 25587.8 L 240089.6 25587.8 L 240089.6 41515.3 Q 240089.6 43937.8 240877.1 45162.8 Q 241664.6 46387.8 243464.6 46387.8 L 243459.6 46385.3 Z M 266867.5 49612.8 L 265940 45812.8 L 265740 45812.8 Q 264917.5 46935.3 264092.5 47747.8 Q 263267.5 48560.3 262292.5 49085.3 Q 261317.5 49610.3 260117.5 49860.3 Q 258917.5 50110.3 257340 50110.3 Q 255617.5 50110.3 254167.5 49622.8 Q 252717.5 49135.3 251655 48122.8 Q 250592.5 47110.3 249992.5 45572.8 Q 249392.5 44035.3 249392.5 41935.3 Q 249392.5 37835.3 252280 35635.3 Q 255167.5 33435.3 261067.5 33235.3 L 265667.5 33062.8 L 265667.5 31335.3 Q 265667.5 29662.8 265305 28537.8 Q 264942.5 27412.8 264255 26725.3 Q 263567.5 26037.8 262555 25737.8 Q 261542.5 25437.8 260242.5 25437.8 Q 258170 25437.8 256382.5 26037.8 Q 254595 26637.8 252945 27487.8 L 251345 24065.3 Q 253195 23065.3 255470 22365.3 Q 257745 21665.3 260245 21665.3 Q 262795 21665.3 264657.5 22177.8 Q 266520 22690.3 267732.5 23802.8 Q 268945 24915.3 269545 26640.3 Q 270145 28365.3 270145 30815.3 L 270145 49615.3 L 266872.5 49615.3 L 266867.5 49612.8 Z M 258517.5 46435.3 Q 260040 46435.3 261340 45960.3 Q 262640 45485.3 263590 44522.8 Q 264540 43560.3 265077.5 42097.8 Q 265615 40635.3 265615 38662.8 L 265615 36185.3 L 262037.5 36362.8 Q 259787.5 36462.8 258262.5 36862.8 Q 256737.5 37262.8 255825 37975.3 Q 254912.5 38687.8 254512.5 39700.3 Q 254112.5 40712.8 254112.5 41985.3 Q 254112.5 44285.3 255325 45360.3 Q 256537.5 46435.3 258515 46435.3 L 258517.5 46435.3 Z M 287950.8 50112.8 Q 285428.3 50112.8 283228.3 49325.3 Q 281028.3 48537.8 279403.3 46825.3 Q 277778.3 45112.8 276853.3 42450.3 Q 275928.3 39787.8 275928.3 36037.8 Q 275928.3 32115.3 276878.3 29377.8 Q 277828.3 26640.3 279490.8 24927.8 Q 281153.3 23215.3 283378.3 22440.3 Q 285603.3 21665.3 288153.3 21665.3 Q 290103.3 21665.3 291965.8 22090.3 Q 293828.3 22515.3 295078.3 23137.8 L 293728.3 26987.8 Q 293150.8 26737.8 292450.8 26500.3 Q 291750.8 26262.8 291000.8 26075.3 Q 290250.8 25887.8 289525.8 25775.3 Q 288800.8 25662.8 288150.8 25662.8 Q 284228.3 25662.8 282428.3 28175.3 Q 280628.3 30687.8 280628.3 35987.8 Q 280628.3 41265.3 282440.8 43702.8 Q 284253.3 46140.3 287953.3 46140.3 Q 289980.8 46140.3 291618.3 45677.8 Q 293255.8 45215.3 294605.8 44587.8 L 294605.8 48637.8 Q 293255.8 49365.3 291718.3 49740.3 Q 290180.8 50115.3 287953.3 50115.3 L 287950.8 50112.8 Z M 304631.2 49612.8 L 300081.2 49612.8 L 300081.2 22162.8 L 304631.2 22162.8 L 304631.2 49612.8 Z M 299731.2 14735.3 Q 299731.2 13235.3 300493.7 12560.3 Q 301256.2 11885.3 302378.7 11885.3 Q 302928.7 11885.3 303416.2 12047.8 Q 303903.7 12210.3 304266.2 12560.3 Q 304628.7 12910.3 304841.2 13447.8 Q 305053.7 13985.3 305053.7 14735.3 Q 305053.7 16185.3 304266.2 16897.8 Q 303478.7 17610.3 302378.7 17610.3 Q 301256.2 17610.3 300493.7 16910.3 Q 299731.2 16210.3 299731.2 14732.8 L 299731.2 14735.3 Z M 334644.3 35835.3 Q 334644.3 39262.8 333806.8 41925.3 Q 332969.3 44587.8 331406.8 46400.3 Q 329844.3 48212.8 327619.3 49162.8 Q 325394.3 50112.8 322616.8 50112.8 Q 320044.3 50112.8 317869.3 49162.8 Q 315694.3 48212.8 314106.8 46400.3 Q 312519.3 44587.8 311631.8 41925.3 Q 310744.3 39262.8 310744.3 35835.3 Q 310744.3 32435.3 311581.8 29797.8 Q 312419.3 27160.3 313969.3 25347.8 Q 315519.3 23535.3 317756.8 22597.8 Q 319994.3 21660.3 322766.8 21660.3 Q 325344.3 21660.3 327519.3 22597.8 Q 329694.3 23535.3 331281.8 25347.8 Q 332869.3 27160.3 333756.8 29797.8 Q 334644.3 32435.3 334644.3 35835.3  Z M 315444.3 35835.3 Q 315444.3 41062.8 317156.8 43700.3 Q 318869.3 46337.8 322719.3 46337.8 Q 326569.3 46337.8 328256.8 43700.3 Q 329944.3 41062.8 329944.3 35835.3 Q 329944.3 30612.8 328231.8 28025.3 Q 326519.3 25437.8 322669.3 25437.8 Q 318819.3 25437.8 317131.8 28025.3 Q 315444.3 30612.8 315444.3 35835.3  Z M 319876.8 17912.8 Q 320426.8 17185.3 321014.3 16235.3 Q 321601.8 15285.3 322189.3 14272.8 Q 322776.8 13260.3 323301.8 12247.8 Q 323826.8 11235.3 324226.8 10385.3 L 329699.3 10385.3 L 329699.3 10912.8 Q 329299.3 11585.3 328511.8 12597.8 Q 327724.3 13610.3 326761.8 14710.3 Q 325799.3 15810.3 324786.8 16847.8 Q 323774.3 17885.3 322896.8 18585.3 L 319874.3 18585.3 L 319874.3 17912.8 L 319876.8 17912.8 Z M 358037.6 49612.8 L 358037.6 31935.3 Q 358037.6 28685.3 356725.1 27060.3 Q 355412.6 25435.3 352612.6 25435.3 Q 350585.1 25435.3 349210.1 26085.3 Q 347835.1 26735.3 346997.6 28010.3 Q 346160.1 29285.3 345797.6 31135.3 Q 345435.1 32985.3 345435.1 35385.3 L 345435.1 49612.8 L 340885.1 49612.8 L 340885.1 22162.8 L 344585.1 22162.8 L 345235.1 25862.8 L 345485.1 25862.8 Q 346112.6 24785.3 346975.1 23997.8 Q 347837.6 23210.3 348862.6 22685.3 Q 349887.6 22160.3 351037.6 21910.3 Q 352187.6 21660.3 353387.6 21660.3 Q 357965.1 21660.3 360277.6 24047.8 Q 362590.1 26435.3 362590.1 31685.3 L 362590.1 49612.8 L 358040.1 49612.8 L 358037.6 49612.8 Z " fill-rule="nonzero" style="fill:#56626c;;fill-opacity:1;"/>
</svg>