<svg version="1.1" x="0" y="0" width="100%" height="100%" viewBox="0 0 39731.2 63795.2" xmlns="http://www.w3.org/2000/svg">
  <path d="M 32963.1 41412.8 L 27635.6 41412.8 L 27635.6 49612.8 L 23235.6 49612.8 L 23235.6 41412.8 L 6363.1 41412.8 L 6363.1 37435.3 L 22935.6 12862.8 L 27635.6 12862.8 L 27635.6 37262.8 L 32963.1 37262.8 L 32963.1 41412.8 Z M 23235.6 37262.8 L 23235.6 28362.8 Q 23235.6 26962.8 23273.1 25425.3 Q 23310.6 23887.8 23360.6 22425.3 Q 23410.6 20962.8 23473.1 19687.8 Q 23535.6 18412.8 23563.1 17562.8 L 23335.6 17562.8 Q 23163.1 18062.8 22900.6 18675.3 Q 22638.1 19287.8 22325.6 19900.3 Q 22013.1 20512.8 21688.1 21087.8 Q 21363.1 21662.8 21085.6 22062.8 L 10813.1 37262.8 L 23235.6 37262.8 Z " fill-rule="nonzero" style="fill:#ffffff;;fill-opacity:1;"/>
</svg>