<svg version="1.1" x="0" y="0" width="100%" height="100%" viewBox="0 0 40345.6 34764.8" xmlns="http://www.w3.org/2000/svg">
  <path d="M 20064 16034.8 Q 20064 18160 19758 19840 Q 19452 21520 18774 22684 Q 18096 23848 17028 24460 Q 15960 25072 14437.2 25072 Q 13021.2 25072 11971.2 24460 Q 10921.2 23848 10231.2 22684 Q 9541.2 21520 9199.2 19840 Q 8857.2 18160 8857.2 16034.8 Q 8857.2 13912 9163.2 12232 Q 9469.2 10552 10135.2 9394 Q 10801.2 8236 11863.2 7624 Q 12925.2 7012 14437.2 7012 Q 15864 7012 16920 7618 Q 17976 8224 18672 9382 Q 19368 10540 19716 12220 Q 20064 13900 20064 16036 L 20064 16034.8 Z M 11077.2 16034.8 Q 11077.2 17834.8 11257.2 19178.8 Q 11437.2 20522.8 11833.2 21416.8 Q 12229.2 22310.8 12871.2 22760.8 Q 13513.2 23210.8 14438.4 23210.8 Q 15361.2 23210.8 16009.2 22766.8 Q 16657.2 22322.8 17071.2 21434.8 Q 17485.2 20546.8 17671.2 19196.8 Q 17857.2 17846.8 17857.2 16033.6 Q 17857.2 14233.6 17671.2 12889.6 Q 17485.2 11545.6 17071.2 10657.6 Q 16657.2 9769.6 16009.2 9325.6 Q 15361.2 8881.6 14438.4 8881.6 Q 13513.2 8881.6 12871.2 9325.6 Q 12229.2 9769.6 11833.2 10657.6 Q 11437.2 11545.6 11257.2 12889.6 Q 11077.2 14233.6 11077.2 16033.6 L 11077.2 16034.8 Z M 33218 20896 L 30660.8 20896 L 30660.8 24832 L 28548.8 24832 L 28548.8 20896 L 20450 20896 L 20450 18986.8 L 28404.8 7192 L 30660.8 7192 L 30660.8 18904 L 33218 18904 L 33218 20896 Z M 28548.8 18904 L 28548.8 14632 Q 28548.8 13960 28566.8 13222 Q 28584.8 12484 28608.8 11782 Q 28632.8 11080 28662.8 10468 Q 28692.8 9856 28706 9448 L 28596.8 9448 Q 28514 9688 28388 9982 Q 28262 10276 28112 10570 Q 27962 10864 27806 11140 Q 27650 11416 27516.8 11608 L 22586 18904 L 28548.8 18904 Z " fill-rule="nonzero" style="fill:#535353;;fill-opacity:1;"/>
</svg>