<svg version="1.1" x="0" y="0" width="100%" height="100%" viewBox="0 0 254105.6 121651.2" xmlns="http://www.w3.org/2000/svg">
  <path d="M 33456.4 24832 L 33131.2 23066.8 L 33011.2 23066.8 Q 32712.4 23584 32298.4 23962 Q 31884.4 24340 31392.4 24586 Q 30900.4 24832 30348.4 24952 Q 29796.4 25072 29220.4 25072 Q 28129.6 25072 27301.6 24796 Q 26473.6 24520 25921.6 23932 Q 25369.6 23344 25087.6 22432 Q 24805.6 21520 24805.6 20258.8 L 24805.6 11656 L 26989.6 11656 L 26989.6 20138.8 Q 26989.6 21698.8 27625.6 22478.8 Q 28261.6 23258.8 29594.8 23258.8 Q 30565.6 23258.8 31225.6 22946.8 Q 31885.6 22634.8 32287.6 22028.8 Q 32689.6 21422.8 32863.6 20534.8 Q 33037.6 19646.8 33037.6 18494.8 L 33037.6 11654.8 L 35221.6 11654.8 L 35221.6 24830.8 L 33458.8 24830.8 L 33456.4 24832 Z M 45545.6 24832 L 45545.6 16346.8 Q 45545.6 14786.8 44915.6 14006.8 Q 44285.6 13226.8 42941.6 13226.8 Q 41968.4 13226.8 41308.4 13538.8 Q 40648.4 13850.8 40246.4 14462.8 Q 39844.4 15074.8 39670.4 15962.8 Q 39496.4 16850.8 39496.4 18002.8 L 39496.4 24832 L 37312.4 24832 L 37312.4 11656 L 39088.4 11656 L 39400.4 13432 L 39520.4 13432 Q 39821.6 12914.8 40235.6 12536.8 Q 40649.6 12158.8 41141.6 11906.8 Q 41633.6 11654.8 42185.6 11534.8 Q 42737.6 11414.8 43313.6 11414.8 Q 45510.8 11414.8 46620.8 12560.8 Q 47730.8 13706.8 47730.8 16226.8 L 47730.8 24832 L 45546.8 24832 L 45545.6 24832 Z M 59905.6 25072 Q 59198.8 25072 58622.8 24916 Q 58046.8 24760 57584.8 24502 Q 57122.8 24244 56768.8 23896 Q 56414.8 23548 56137.6 23164 L 55993.6 23164 Q 56030.8 23572 56065.6 23945.2 Q 56089.6 24257.2 56113.6 24587.2 Q 56137.6 24917.2 56137.6 25109.2 L 56137.6 30736 L 53953.6 30736 L 53953.6 11656 L 55729.6 11656 L 56041.6 13432 L 56137.6 13432 Q 56414.8 13010.8 56762.8 12644.8 Q 57110.8 12278.8 57572.8 12008.8 Q 58034.8 11738.8 58610.8 11576.8 Q 59186.8 11414.8 59906.8 11414.8 Q 61034.8 11414.8 61958.8 11846.8 Q 62882.8 12278.8 63536.8 13136.8 Q 64190.8 13994.8 64550.8 15266.8 Q 64910.8 16538.8 64910.8 18218.8 Q 64910.8 19912 64550.8 21190 Q 64190.8 22468 63536.8 23332 Q 62882.8 24196 61958.8 24634 Q 61034.8 25072 59906.8 25072 L 59905.6 25072 Z M 59486.8 13226.8 Q 58574.8 13226.8 57944.8 13502.8 Q 57314.8 13778.8 56924.8 14342.8 Q 56534.8 14906.8 56348.8 15746.8 Q 56162.8 16586.8 56138.8 17728 L 56138.8 18218.8 Q 56138.8 19432 56300.8 20374 Q 56462.8 21316 56852.8 21958 Q 57242.8 22600 57890.8 22930 Q 58538.8 23260 59512 23260 Q 61130.8 23260 61892.8 21952 Q 62654.8 20644 62654.8 18196 Q 62654.8 15700 61892.8 14464 Q 61130.8 13228 59488 13228 L 59486.8 13226.8 Z M 68528 24832 L 66344 24832 L 66344 6160 L 68528 6160 L 68528 24832 Z M 78022.8 24832 L 77577.6 23008 L 77481.6 23008 Q 77086.8 23546.8 76690.8 23936.8 Q 76294.8 24326.8 75826.8 24578.8 Q 75358.8 24830.8 74782.8 24950.8 Q 74206.8 25070.8 73449.6 25070.8 Q 72622.8 25070.8 71926.8 24836.8 Q 71230.8 24602.8 70720.8 24116.8 Q 70210.8 23630.8 69922.8 22892.8 Q 69634.8 22154.8 69634.8 21146.8 Q 69634.8 19178.8 71020.8 18122.8 Q 72406.8 17066.8 75238.8 16970.8 L 77446.8 16888 L 77446.8 16058.8 Q 77446.8 15256 77272.8 14716 Q 77098.8 14176 76768.8 13846 Q 76438.8 13516 75952.8 13372 Q 75466.8 13228 74842.8 13228 Q 73848 13228 72990 13516 Q 72132 13804 71340 14212 L 70572 12569.2 Q 71460 12089.2 72552 11753.2 Q 73644 11417.2 74844 11417.2 Q 76068 11417.2 76962 11663.2 Q 77856 11909.2 78438 12443.2 Q 79020 12977.2 79308 13805.2 Q 79596 14633.2 79596 15809.2 L 79596 24833.2 L 78025.2 24833.2 L 78022.8 24832 Z M 74014.8 23306.8 Q 74745.6 23306.8 75369.6 23078.8 Q 75993.6 22850.8 76449.6 22388.8 Q 76905.6 21926.8 77163.6 21224.8 Q 77421.6 20522.8 77421.6 19576 L 77421.6 18386.8 L 75704.4 18472 Q 74624.4 18520 73892.4 18712 Q 73160.4 18904 72722.4 19246 Q 72284.4 19588 72092.4 20074 Q 71900.4 20560 71900.4 21170.8 Q 71900.4 22274.8 72482.4 22790.8 Q 73064.4 23306.8 74013.6 23306.8 L 74014.8 23306.8 Z M 89731.2 24832 L 89731.2 16346.8 Q 89731.2 14786.8 89101.2 14006.8 Q 88471.2 13226.8 87127.2 13226.8 Q 86154 13226.8 85494 13538.8 Q 84834 13850.8 84432 14462.8 Q 84030 15074.8 83856 15962.8 Q 83682 16850.8 83682 18002.8 L 83682 24832 L 81498 24832 L 81498 11656 L 83274 11656 L 83586 13432 L 83706 13432 Q 84007.2 12914.8 84421.2 12536.8 Q 84835.2 12158.8 85327.2 11906.8 Q 85819.2 11654.8 86371.2 11534.8 Q 86923.2 11414.8 87499.2 11414.8 Q 89696.4 11414.8 90806.4 12560.8 Q 91916.4 13706.8 91916.4 16226.8 L 91916.4 24832 L 89732.4 24832 L 89731.2 24832 Z M 104091.2 25072 Q 103384.4 25072 102808.4 24916 Q 102232.4 24760 101770.4 24502 Q 101308.4 24244 100954.4 23896 Q 100600.4 23548 100323.2 23164 L 100179.2 23164 Q 100216.4 23572 100251.2 23945.2 Q 100275.2 24257.2 100299.2 24587.2 Q 100323.2 24917.2 100323.2 25109.2 L 100323.2 30736 L 98139.2 30736 L 98139.2 11656 L 99915.2 11656 L 100227.2 13432 L 100323.2 13432 Q 100600.4 13010.8 100948.4 12644.8 Q 101296.4 12278.8 101758.4 12008.8 Q 102220.4 11738.8 102796.4 11576.8 Q 103372.4 11414.8 104092.4 11414.8 Q 105220.4 11414.8 106144.4 11846.8 Q 107068.4 12278.8 107722.4 13136.8 Q 108376.4 13994.8 108736.4 15266.8 Q 109096.4 16538.8 109096.4 18218.8 Q 109096.4 19912 108736.4 21190 Q 108376.4 22468 107722.4 23332 Q 107068.4 24196 106144.4 24634 Q 105220.4 25072 104092.4 25072 L 104091.2 25072 Z M 103672.4 13226.8 Q 102760.4 13226.8 102130.4 13502.8 Q 101500.4 13778.8 101110.4 14342.8 Q 100720.4 14906.8 100534.4 15746.8 Q 100348.4 16586.8 100324.4 17728 L 100324.4 18218.8 Q 100324.4 19432 100486.4 20374 Q 100648.4 21316 101038.4 21958 Q 101428.4 22600 102076.4 22930 Q 102724.4 23260 103697.6 23260 Q 105316.4 23260 106078.4 21952 Q 106840.4 20644 106840.4 18196 Q 106840.4 15700 106078.4 14464 Q 105316.4 13228 103673.6 13228 L 103672.4 13226.8 Z M 115737.6 25072 Q 114417.6 25072 113325.6 24628 Q 112233.6 24184 111447.6 23332 Q 110661.6 22480 110229.6 21220 Q 109797.6 19960 109797.6 18338.8 Q 109797.6 16706.8 110193.6 15422.8 Q 110589.6 14138.8 111309.6 13244.8 Q 112029.6 12350.8 113031.6 11882.8 Q 114033.6 11414.8 115246.8 11414.8 Q 116433.6 11414.8 117381.6 11840.8 Q 118329.6 12266.8 118989.6 13040.8 Q 119649.6 13814.8 120003.6 14900.8 Q 120357.6 15986.8 120357.6 17306.8 L 120357.6 18664 L 112053.6 18664 Q 112112.4 20978.8 113030.4 22070.8 Q 113948.4 23162.8 115759.2 23162.8 Q 116372.4 23162.8 116894.4 23102.8 Q 117416.4 23042.8 117902.4 22928.8 Q 118388.4 22814.8 118844.4 22640.8 Q 119300.4 22466.8 119767.2 22250.8 L 119767.2 24194.8 Q 119287.2 24424 118825.2 24592 Q 118363.2 24760 117877.2 24868 Q 117391.2 24976 116869.2 25024 Q 116347.2 25072 115734 25072 L 115737.6 25072 Z M 115198.8 13226.8 Q 113830.8 13226.8 113032.8 14162.8 Q 112234.8 15098.8 112104 16888 L 118008 16888 Q 118008 16072 117846 15394 Q 117684 14716 117342 14236 Q 117000 13756 116472 13492 Q 115944 13228 115200 13228 L 115198.8 13226.8 Z M 127238.8 11416 Q 127585.6 11416 128017.6 11446 Q 128449.6 11476 128761.6 11537.2 L 128473.6 13553.2 Q 128137.6 13492 127783.6 13450 Q 127429.6 13408 127117.6 13408 Q 126360.4 13408 125736.4 13714 Q 125112.4 14020 124662.4 14590 Q 124212.4 15160 123966.4 15958 Q 123720.4 16756 123720.4 17729.2 L 123720.4 24833.2 L 121536.4 24833.2 L 121536.4 11657.2 L 123312.4 11657.2 L 123576.4 14068 L 123672.4 14068 Q 123973.6 13553.2 124315.6 13073.2 Q 124657.6 12593.2 125083.6 12227.2 Q 125509.6 11861.2 126037.6 11639.2 Q 126565.6 11417.2 127237.6 11417.2 L 127238.8 11416 Z M 137205.2 21218.8 Q 137205.2 22178.8 136857.2 22898.8 Q 136509.2 23618.8 135855.2 24104.8 Q 135201.2 24590.8 134277.2 24830.8 Q 133353.2 25070.8 132201.2 25070.8 Q 130894.4 25070.8 129958.4 24860.8 Q 129022.4 24650.8 128313.2 24242.8 L 128313.2 22250.8 Q 128686.4 22442.8 129142.4 22628.8 Q 129598.4 22814.8 130102.4 22958.8 Q 130606.4 23102.8 131140.4 23192.8 Q 131674.4 23282.8 132202.4 23282.8 Q 132983.6 23282.8 133529.6 23150.8 Q 134075.6 23018.8 134417.6 22772.8 Q 134759.6 22526.8 134915.6 22172.8 Q 135071.6 21818.8 135071.6 21386.8 Q 135071.6 21016 134951.6 20716 Q 134831.6 20416 134513.6 20122 Q 134195.6 19828 133643.6 19528 Q 133091.6 19228 132227.6 18857.2 Q 131363.6 18484 130673.6 18124 Q 129983.6 17764 129503.6 17320 Q 129023.6 16876 128765.6 16294 Q 128507.6 15712 128507.6 14906.8 Q 128507.6 14066.8 128837.6 13412.8 Q 129167.6 12758.8 129767.6 12314.8 Q 130367.6 11870.8 131207.6 11642.8 Q 132047.6 11414.8 133079.6 11414.8 Q 134242.4 11414.8 135208.4 11666.8 Q 136174.4 11918.8 137038.4 12326.8 L 136281.2 14089.6 Q 135502.4 13742.8 134680.4 13484.8 Q 133858.4 13226.8 133007.6 13226.8 Q 131783.6 13226.8 131195.6 13628.8 Q 130607.6 14030.8 130607.6 14774.8 Q 130607.6 15193.6 130745.6 15505.6 Q 130883.6 15817.6 131219.6 16093.6 Q 131555.6 16369.6 132119.6 16651.6 Q 132683.6 16933.6 133523.6 17280.4 Q 134387.6 17640.4 135065.6 18000.4 Q 135743.6 18360.4 136223.6 18810.4 Q 136703.6 19260.4 136955.6 19836.4 Q 137207.6 20412.4 137207.6 21215.2 L 137205.2 21218.8 Z M 149072.4 18218.8 Q 149072.4 19864 148670.4 21142 Q 148268.4 22420 147518.4 23290 Q 146768.4 24160 145700.4 24616 Q 144632.4 25072 143299.2 25072 Q 142064.4 25072 141020.4 24616 Q 139976.4 24160 139214.4 23290 Q 138452.4 22420 138026.4 21142 Q 137600.4 19864 137600.4 18218.8 Q 137600.4 16586.8 138002.4 15320.8 Q 138404.4 14054.8 139148.4 13184.8 Q 139892.4 12314.8 140966.4 11864.8 Q 142040.4 11414.8 143371.2 11414.8 Q 144608.4 11414.8 145652.4 11864.8 Q 146696.4 12314.8 147458.4 13184.8 Q 148220.4 14054.8 148646.4 15320.8 Q 149072.4 16586.8 149072.4 18218.8  Z M 139856.4 18218.8 Q 139856.4 20728 140678.4 21994 Q 141500.4 23260 143348.4 23260 Q 145196.4 23260 146006.4 21994 Q 146816.4 20728 146816.4 18218.8 Q 146816.4 15712 145994.4 14470 Q 145172.4 13228 143324.4 13228 Q 141476.4 13228 140666.4 14470 Q 139856.4 15712 139856.4 18218.8  Z M 158697.6 24832 L 158697.6 16346.8 Q 158697.6 14786.8 158067.6 14006.8 Q 157437.6 13226.8 156093.6 13226.8 Q 155120.4 13226.8 154460.4 13538.8 Q 153800.4 13850.8 153398.4 14462.8 Q 152996.4 15074.8 152822.4 15962.8 Q 152648.4 16850.8 152648.4 18002.8 L 152648.4 24832 L 150464.4 24832 L 150464.4 11656 L 152240.4 11656 L 152552.4 13432 L 152672.4 13432 Q 152973.6 12914.8 153387.6 12536.8 Q 153801.6 12158.8 154293.6 11906.8 Q 154785.6 11654.8 155337.6 11534.8 Q 155889.6 11414.8 156465.6 11414.8 Q 158662.8 11414.8 159772.8 12560.8 Q 160882.8 13706.8 160882.8 16226.8 L 160882.8 24832 L 158698.8 24832 L 158697.6 24832 Z M 170285.2 24832 L 169840 23008 L 169744 23008 Q 169349.2 23546.8 168953.2 23936.8 Q 168557.2 24326.8 168089.2 24578.8 Q 167621.2 24830.8 167045.2 24950.8 Q 166469.2 25070.8 165712 25070.8 Q 164885.2 25070.8 164189.2 24836.8 Q 163493.2 24602.8 162983.2 24116.8 Q 162473.2 23630.8 162185.2 22892.8 Q 161897.2 22154.8 161897.2 21146.8 Q 161897.2 19178.8 163283.2 18122.8 Q 164669.2 17066.8 167501.2 16970.8 L 169709.2 16888 L 169709.2 16058.8 Q 169709.2 15256 169535.2 14716 Q 169361.2 14176 169031.2 13846 Q 168701.2 13516 168215.2 13372 Q 167729.2 13228 167105.2 13228 Q 166110.4 13228 165252.4 13516 Q 164394.4 13804 163602.4 14212 L 162834.4 12569.2 Q 163722.4 12089.2 164814.4 11753.2 Q 165906.4 11417.2 167106.4 11417.2 Q 168330.4 11417.2 169224.4 11663.2 Q 170118.4 11909.2 170700.4 12443.2 Q 171282.4 12977.2 171570.4 13805.2 Q 171858.4 14633.2 171858.4 15809.2 L 171858.4 24833.2 L 170287.6 24833.2 L 170285.2 24832 Z M 166277.2 23306.8 Q 167008 23306.8 167632 23078.8 Q 168256 22850.8 168712 22388.8 Q 169168 21926.8 169426 21224.8 Q 169684 20522.8 169684 19576 L 169684 18386.8 L 167966.8 18472 Q 166886.8 18520 166154.8 18712 Q 165422.8 18904 164984.8 19246 Q 164546.8 19588 164354.8 20074 Q 164162.8 20560 164162.8 21170.8 Q 164162.8 22274.8 164744.8 22790.8 Q 165326.8 23306.8 166276 23306.8 L 166277.2 23306.8 Z M 175945.6 24832 L 173761.6 24832 L 173761.6 6160 L 175945.6 6160 L 175945.6 24832 Z M 180195.2 24832 L 178011.2 24832 L 178011.2 11656 L 180195.2 11656 L 180195.2 24832 Z M 177843.2 8090.8 Q 177843.2 7370.8 178209.2 7046.8 Q 178575.2 6722.8 179114 6722.8 Q 179378 6722.8 179612 6800.8 Q 179846 6878.8 180020 7046.8 Q 180194 7214.8 180296 7472.8 Q 180398 7730.8 180398 8090.8 Q 180398 8786.8 180020 9128.8 Q 179642 9470.8 179114 9470.8 Q 178575.2 9470.8 178209.2 9134.8 Q 177843.2 8798.8 177843.2 8089.6 L 177843.2 8090.8 Z M 190026 24832 L 181156.8 24832 L 181156.8 23330.8 L 187588.8 13298.8 L 181554 13298.8 L 181554 11656 L 189810 11656 L 189810 13408 L 183522 23186.8 L 190026 23186.8 L 190026 24832 Z M 198445.2 24832 L 198000 23008 L 197904 23008 Q 197509.2 23546.8 197113.2 23936.8 Q 196717.2 24326.8 196249.2 24578.8 Q 195781.2 24830.8 195205.2 24950.8 Q 194629.2 25070.8 193872 25070.8 Q 193045.2 25070.8 192349.2 24836.8 Q 191653.2 24602.8 191143.2 24116.8 Q 190633.2 23630.8 190345.2 22892.8 Q 190057.2 22154.8 190057.2 21146.8 Q 190057.2 19178.8 191443.2 18122.8 Q 192829.2 17066.8 195661.2 16970.8 L 197869.2 16888 L 197869.2 16058.8 Q 197869.2 15256 197695.2 14716 Q 197521.2 14176 197191.2 13846 Q 196861.2 13516 196375.2 13372 Q 195889.2 13228 195265.2 13228 Q 194270.4 13228 193412.4 13516 Q 192554.4 13804 191762.4 14212 L 190994.4 12569.2 Q 191882.4 12089.2 192974.4 11753.2 Q 194066.4 11417.2 195266.4 11417.2 Q 196490.4 11417.2 197384.4 11663.2 Q 198278.4 11909.2 198860.4 12443.2 Q 199442.4 12977.2 199730.4 13805.2 Q 200018.4 14633.2 200018.4 15809.2 L 200018.4 24833.2 L 198447.6 24833.2 L 198445.2 24832 Z M 194437.2 23306.8 Q 195168 23306.8 195792 23078.8 Q 196416 22850.8 196872 22388.8 Q 197328 21926.8 197586 21224.8 Q 197844 20522.8 197844 19576 L 197844 18386.8 L 196126.8 18472 Q 195046.8 18520 194314.8 18712 Q 193582.8 18904 193144.8 19246 Q 192706.8 19588 192514.8 20074 Q 192322.8 20560 192322.8 21170.8 Q 192322.8 22274.8 192904.8 22790.8 Q 193486.8 23306.8 194436 23306.8 L 194437.2 23306.8 Z M 210057.6 23066.8 L 209961.6 23066.8 Q 209697.6 23474.8 209343.6 23840.8 Q 208989.6 24206.8 208527.6 24482.8 Q 208065.6 24758.8 207489.6 24914.8 Q 206913.6 25070.8 206193.6 25070.8 Q 205078.8 25070.8 204154.8 24638.8 Q 203230.8 24206.8 202570.8 23348.8 Q 201910.8 22490.8 201550.8 21218.8 Q 201190.8 19946.8 201190.8 18266.8 Q 201190.8 16576 201550.8 15298 Q 201910.8 14020 202570.8 13156 Q 203230.8 12292 204154.8 11854 Q 205078.8 11416 206193.6 11416 Q 206902.8 11416 207478.8 11572 Q 208054.8 11728 208516.8 11992 Q 208978.8 12256 209338.8 12604 Q 209698.8 12952 209962.8 13336 L 210106.8 13336 Q 210072 12928 210034.8 12554.8 Q 210010.8 12242.8 209986.8 11912.8 Q 209962.8 11582.8 209962.8 11390.8 L 209962.8 6158.8 L 212146.8 6158.8 L 212146.8 24830.8 L 210384 24830.8 L 210058.8 23065.6 L 210057.6 23066.8 Z M 206614.8 23258.8 Q 207526.8 23258.8 208156.8 22982.8 Q 208786.8 22706.8 209176.8 22142.8 Q 209566.8 21578.8 209752.8 20732.8 Q 209938.8 19886.8 209962.8 18758.8 L 209962.8 18265.6 Q 209962.8 17054.8 209800.8 16112.8 Q 209638.8 15170.8 209248.8 14528.8 Q 208858.8 13886.8 208210.8 13556.8 Q 207562.8 13226.8 206592 13226.8 Q 204970.8 13226.8 204208.8 14534.8 Q 203446.8 15842.8 203446.8 18290.8 Q 203446.8 20800 204208.8 22030 Q 204970.8 23260 206616 23260 L 206614.8 23258.8 Z M 225053.2 18218.8 Q 225053.2 19864 224651.2 21142 Q 224249.2 22420 223499.2 23290 Q 222749.2 24160 221681.2 24616 Q 220613.2 25072 219280 25072 Q 218045.2 25072 217001.2 24616 Q 215957.2 24160 215195.2 23290 Q 214433.2 22420 214007.2 21142 Q 213581.2 19864 213581.2 18218.8 Q 213581.2 16586.8 213983.2 15320.8 Q 214385.2 14054.8 215129.2 13184.8 Q 215873.2 12314.8 216947.2 11864.8 Q 218021.2 11414.8 219352 11414.8 Q 220589.2 11414.8 221633.2 11864.8 Q 222677.2 12314.8 223439.2 13184.8 Q 224201.2 14054.8 224627.2 15320.8 Q 225053.2 16586.8 225053.2 18218.8  Z M 215837.2 18218.8 Q 215837.2 20728 216659.2 21994 Q 217481.2 23260 219329.2 23260 Q 221177.2 23260 221987.2 21994 Q 222797.2 20728 222797.2 18218.8 Q 222797.2 15712 221975.2 14470 Q 221153.2 13228 219305.2 13228 Q 217457.2 13228 216647.2 14470 Q 215837.2 15712 215837.2 18218.8  Z M 238832 23066.8 L 238736 23066.8 Q 238472 23474.8 238118 23840.8 Q 237764 24206.8 237302 24482.8 Q 236840 24758.8 236264 24914.8 Q 235688 25070.8 234968 25070.8 Q 233853.2 25070.8 232929.2 24638.8 Q 232005.2 24206.8 231345.2 23348.8 Q 230685.2 22490.8 230325.2 21218.8 Q 229965.2 19946.8 229965.2 18266.8 Q 229965.2 16576 230325.2 15298 Q 230685.2 14020 231345.2 13156 Q 232005.2 12292 232929.2 11854 Q 233853.2 11416 234968 11416 Q 235677.2 11416 236253.2 11572 Q 236829.2 11728 237291.2 11992 Q 237753.2 12256 238113.2 12604 Q 238473.2 12952 238737.2 13336 L 238881.2 13336 Q 238846.4 12928 238809.2 12554.8 Q 238785.2 12242.8 238761.2 11912.8 Q 238737.2 11582.8 238737.2 11390.8 L 238737.2 6158.8 L 240921.2 6158.8 L 240921.2 24830.8 L 239158.4 24830.8 L 238833.2 23065.6 L 238832 23066.8 Z M 235389.2 23258.8 Q 236301.2 23258.8 236931.2 22982.8 Q 237561.2 22706.8 237951.2 22142.8 Q 238341.2 21578.8 238527.2 20732.8 Q 238713.2 19886.8 238737.2 18758.8 L 238737.2 18265.6 Q 238737.2 17054.8 238575.2 16112.8 Q 238413.2 15170.8 238023.2 14528.8 Q 237633.2 13886.8 236985.2 13556.8 Q 236337.2 13226.8 235366.4 13226.8 Q 233745.2 13226.8 232983.2 14534.8 Q 232221.2 15842.8 232221.2 18290.8 Q 232221.2 20800 232983.2 22030 Q 233745.2 23260 235390.4 23260 L 235389.2 23258.8 Z M 248294.4 25072 Q 246974.4 25072 245882.4 24628 Q 244790.4 24184 244004.4 23332 Q 243218.4 22480 242786.4 21220 Q 242354.4 19960 242354.4 18338.8 Q 242354.4 16706.8 242750.4 15422.8 Q 243146.4 14138.8 243866.4 13244.8 Q 244586.4 12350.8 245588.4 11882.8 Q 246590.4 11414.8 247803.6 11414.8 Q 248990.4 11414.8 249938.4 11840.8 Q 250886.4 12266.8 251546.4 13040.8 Q 252206.4 13814.8 252560.4 14900.8 Q 252914.4 15986.8 252914.4 17306.8 L 252914.4 18664 L 244610.4 18664 Q 244669.2 20978.8 245587.2 22070.8 Q 246505.2 23162.8 248316 23162.8 Q 248929.2 23162.8 249451.2 23102.8 Q 249973.2 23042.8 250459.2 22928.8 Q 250945.2 22814.8 251401.2 22640.8 Q 251857.2 22466.8 252324 22250.8 L 252324 24194.8 Q 251844 24424 251382 24592 Q 250920 24760 250434 24868 Q 249948 24976 249426 25024 Q 248904 25072 248290.8 25072 L 248294.4 25072 Z M 247755.6 13226.8 Q 246387.6 13226.8 245589.6 14162.8 Q 244791.6 15098.8 244660.8 16888 L 250564.8 16888 Q 250564.8 16072 250402.8 15394 Q 250240.8 14716 249898.8 14236 Q 249556.8 13756 249028.8 13492 Q 248500.8 13228 247756.8 13228 L 247755.6 13226.8 Z M 29946 54476.8 L 29500.8 52652.8 L 29404.8 52652.8 Q 29010 53191.6 28614 53581.6 Q 28218 53971.6 27750 54223.6 Q 27282 54475.6 26706 54595.6 Q 26130 54715.6 25372.8 54715.6 Q 24546 54715.6 23850 54481.6 Q 23154 54247.6 22644 53761.6 Q 22134 53275.6 21846 52537.6 Q 21558 51799.6 21558 50791.6 Q 21558 48823.6 22944 47767.6 Q 24330 46711.6 27162 46615.6 L 29370 46532.8 L 29370 45703.6 Q 29370 44900.8 29196 44360.8 Q 29022 43820.8 28692 43490.8 Q 28362 43160.8 27876 43016.8 Q 27390 42872.8 26766 42872.8 Q 25771.2 42872.8 24913.2 43160.8 Q 24055.2 43448.8 23263.2 43856.8 L 22495.2 42214 Q 23383.2 41734 24475.2 41398 Q 25567.2 41062 26767.2 41062 Q 27991.2 41062 28885.2 41308 Q 29779.2 41554 30361.2 42088 Q 30943.2 42622 31231.2 43450 Q 31519.2 44278 31519.2 45454 L 31519.2 54478 L 29948.4 54478 L 29946 54476.8 Z M 25938 52951.6 Q 26668.8 52951.6 27292.8 52723.6 Q 27916.8 52495.6 28372.8 52033.6 Q 28828.8 51571.6 29086.8 50869.6 Q 29344.8 50167.6 29344.8 49220.8 L 29344.8 48031.6 L 27627.6 48116.8 Q 26547.6 48164.8 25815.6 48356.8 Q 25083.6 48548.8 24645.6 48890.8 Q 24207.6 49232.8 24015.6 49718.8 Q 23823.6 50204.8 23823.6 50815.6 Q 23823.6 51919.6 24405.6 52435.6 Q 24987.6 52951.6 25936.8 52951.6 L 25938 52951.6 Z M 41307.6 50863.6 Q 41307.6 51823.6 40959.6 52543.6 Q 40611.6 53263.6 39957.6 53749.6 Q 39303.6 54235.6 38379.6 54475.6 Q 37455.6 54715.6 36303.6 54715.6 Q 34996.8 54715.6 34060.8 54505.6 Q 33124.8 54295.6 32415.6 53887.6 L 32415.6 51895.6 Q 32788.8 52087.6 33244.8 52273.6 Q 33700.8 52459.6 34204.8 52603.6 Q 34708.8 52747.6 35242.8 52837.6 Q 35776.8 52927.6 36304.8 52927.6 Q 37086 52927.6 37632 52795.6 Q 38178 52663.6 38520 52417.6 Q 38862 52171.6 39018 51817.6 Q 39174 51463.6 39174 51031.6 Q 39174 50660.8 39054 50360.8 Q 38934 50060.8 38616 49766.8 Q 38298 49472.8 37746 49172.8 Q 37194 48872.8 36330 48502 Q 35466 48128.8 34776 47768.8 Q 34086 47408.8 33606 46964.8 Q 33126 46520.8 32868 45938.8 Q 32610 45356.8 32610 44551.6 Q 32610 43711.6 32940 43057.6 Q 33270 42403.6 33870 41959.6 Q 34470 41515.6 35310 41287.6 Q 36150 41059.6 37182 41059.6 Q 38344.8 41059.6 39310.8 41311.6 Q 40276.8 41563.6 41140.8 41971.6 L 40383.6 43734.4 Q 39604.8 43387.6 38782.8 43129.6 Q 37960.8 42871.6 37110 42871.6 Q 35886 42871.6 35298 43273.6 Q 34710 43675.6 34710 44419.6 Q 34710 44838.4 34848 45150.4 Q 34986 45462.4 35322 45738.4 Q 35658 46014.4 36222 46296.4 Q 36786 46578.4 37626 46925.2 Q 38490 47285.2 39168 47645.2 Q 39846 48005.2 40326 48455.2 Q 40806 48905.2 41058 49481.2 Q 41310 50057.2 41310 50860 L 41307.6 50863.6 Z M 47641.6 54716.8 Q 46321.6 54716.8 45229.6 54272.8 Q 44137.6 53828.8 43351.6 52976.8 Q 42565.6 52124.8 42133.6 50864.8 Q 41701.6 49604.8 41701.6 47983.6 Q 41701.6 46351.6 42097.6 45067.6 Q 42493.6 43783.6 43213.6 42889.6 Q 43933.6 41995.6 44935.6 41527.6 Q 45937.6 41059.6 47150.8 41059.6 Q 48337.6 41059.6 49285.6 41485.6 Q 50233.6 41911.6 50893.6 42685.6 Q 51553.6 43459.6 51907.6 44545.6 Q 52261.6 45631.6 52261.6 46951.6 L 52261.6 48308.8 L 43957.6 48308.8 Q 44016.4 50623.6 44934.4 51715.6 Q 45852.4 52807.6 47663.2 52807.6 Q 48276.4 52807.6 48798.4 52747.6 Q 49320.4 52687.6 49806.4 52573.6 Q 50292.4 52459.6 50748.4 52285.6 Q 51204.4 52111.6 51671.2 51895.6 L 51671.2 53839.6 Q 51191.2 54068.8 50729.2 54236.8 Q 50267.2 54404.8 49781.2 54512.8 Q 49295.2 54620.8 48773.2 54668.8 Q 48251.2 54716.8 47638 54716.8 L 47641.6 54716.8 Z M 47102.8 42871.6 Q 45734.8 42871.6 44936.8 43807.6 Q 44138.8 44743.6 44008 46532.8 L 49912 46532.8 Q 49912 45716.8 49750 45038.8 Q 49588 44360.8 49246 43880.8 Q 48904 43400.8 48376 43136.8 Q 47848 42872.8 47104 42872.8 L 47102.8 42871.6 Z M 61326.8 50863.6 Q 61326.8 51823.6 60978.8 52543.6 Q 60630.8 53263.6 59976.8 53749.6 Q 59322.8 54235.6 58398.8 54475.6 Q 57474.8 54715.6 56322.8 54715.6 Q 55016 54715.6 54080 54505.6 Q 53144 54295.6 52434.8 53887.6 L 52434.8 51895.6 Q 52808 52087.6 53264 52273.6 Q 53720 52459.6 54224 52603.6 Q 54728 52747.6 55262 52837.6 Q 55796 52927.6 56324 52927.6 Q 57105.2 52927.6 57651.2 52795.6 Q 58197.2 52663.6 58539.2 52417.6 Q 58881.2 52171.6 59037.2 51817.6 Q 59193.2 51463.6 59193.2 51031.6 Q 59193.2 50660.8 59073.2 50360.8 Q 58953.2 50060.8 58635.2 49766.8 Q 58317.2 49472.8 57765.2 49172.8 Q 57213.2 48872.8 56349.2 48502 Q 55485.2 48128.8 54795.2 47768.8 Q 54105.2 47408.8 53625.2 46964.8 Q 53145.2 46520.8 52887.2 45938.8 Q 52629.2 45356.8 52629.2 44551.6 Q 52629.2 43711.6 52959.2 43057.6 Q 53289.2 42403.6 53889.2 41959.6 Q 54489.2 41515.6 55329.2 41287.6 Q 56169.2 41059.6 57201.2 41059.6 Q 58364 41059.6 59330 41311.6 Q 60296 41563.6 61160 41971.6 L 60402.8 43734.4 Q 59624 43387.6 58802 43129.6 Q 57980 42871.6 57129.2 42871.6 Q 55905.2 42871.6 55317.2 43273.6 Q 54729.2 43675.6 54729.2 44419.6 Q 54729.2 44838.4 54867.2 45150.4 Q 55005.2 45462.4 55341.2 45738.4 Q 55677.2 46014.4 56241.2 46296.4 Q 56805.2 46578.4 57645.2 46925.2 Q 58509.2 47285.2 59187.2 47645.2 Q 59865.2 48005.2 60345.2 48455.2 Q 60825.2 48905.2 61077.2 49481.2 Q 61329.2 50057.2 61329.2 50860 L 61326.8 50863.6 Z M 73194 47863.6 Q 73194 49508.8 72792 50786.8 Q 72390 52064.8 71640 52934.8 Q 70890 53804.8 69822 54260.8 Q 68754 54716.8 67420.8 54716.8 Q 66186 54716.8 65142 54260.8 Q 64098 53804.8 63336 52934.8 Q 62574 52064.8 62148 50786.8 Q 61722 49508.8 61722 47863.6 Q 61722 46231.6 62124 44965.6 Q 62526 43699.6 63270 42829.6 Q 64014 41959.6 65088 41509.6 Q 66162 41059.6 67492.8 41059.6 Q 68730 41059.6 69774 41509.6 Q 70818 41959.6 71580 42829.6 Q 72342 43699.6 72768 44965.6 Q 73194 46231.6 73194 47863.6  Z M 63978 47863.6 Q 63978 50372.8 64800 51638.8 Q 65622 52904.8 67470 52904.8 Q 69318 52904.8 70128 51638.8 Q 70938 50372.8 70938 47863.6 Q 70938 45356.8 70116 44114.8 Q 69294 42872.8 67446 42872.8 Q 65598 42872.8 64788 44114.8 Q 63978 45356.8 63978 47863.6  Z M 80288.4 41060.8 Q 80635.2 41060.8 81067.2 41090.8 Q 81499.2 41120.8 81811.2 41182 L 81523.2 43198 Q 81187.2 43136.8 80833.2 43094.8 Q 80479.2 43052.8 80167.2 43052.8 Q 79410 43052.8 78786 43358.8 Q 78162 43664.8 77712 44234.8 Q 77262 44804.8 77016 45602.8 Q 76770 46400.8 76770 47374 L 76770 54478 L 74586 54478 L 74586 41302 L 76362 41302 L 76626 43712.8 L 76722 43712.8 Q 77023.2 43198 77365.2 42718 Q 77707.2 42238 78133.2 41872 Q 78559.2 41506 79087.2 41284 Q 79615.2 41062 80287.2 41062 L 80288.4 41060.8 Z M 84553.6 54476.8 L 82369.6 54476.8 L 82369.6 41300.8 L 84553.6 41300.8 L 84553.6 54476.8 Z M 82541.2 39260.8 Q 82805.2 38911.6 83087.2 38455.6 Q 83369.2 37999.6 83651.2 37513.6 Q 83933.2 37027.6 84185.2 36541.6 Q 84437.2 36055.6 84629.2 35647.6 L 87256 35647.6 L 87256 35900.8 Q 87064 36223.6 86686 36709.6 Q 86308 37195.6 85846 37723.6 Q 85384 38251.6 84898 38749.6 Q 84412 39247.6 83990.8 39583.6 L 82540 39583.6 L 82540 39260.8 L 82541.2 39260.8 Z M 94048.4 54476.8 L 93603.2 52652.8 L 93507.2 52652.8 Q 93112.4 53191.6 92716.4 53581.6 Q 92320.4 53971.6 91852.4 54223.6 Q 91384.4 54475.6 90808.4 54595.6 Q 90232.4 54715.6 89475.2 54715.6 Q 88648.4 54715.6 87952.4 54481.6 Q 87256.4 54247.6 86746.4 53761.6 Q 86236.4 53275.6 85948.4 52537.6 Q 85660.4 51799.6 85660.4 50791.6 Q 85660.4 48823.6 87046.4 47767.6 Q 88432.4 46711.6 91264.4 46615.6 L 93472.4 46532.8 L 93472.4 45703.6 Q 93472.4 44900.8 93298.4 44360.8 Q 93124.4 43820.8 92794.4 43490.8 Q 92464.4 43160.8 91978.4 43016.8 Q 91492.4 42872.8 90868.4 42872.8 Q 89873.6 42872.8 89015.6 43160.8 Q 88157.6 43448.8 87365.6 43856.8 L 86597.6 42214 Q 87485.6 41734 88577.6 41398 Q 89669.6 41062 90869.6 41062 Q 92093.6 41062 92987.6 41308 Q 93881.6 41554 94463.6 42088 Q 95045.6 42622 95333.6 43450 Q 95621.6 44278 95621.6 45454 L 95621.6 54478 L 94050.8 54478 L 94048.4 54476.8 Z M 90040.4 52951.6 Q 90771.2 52951.6 91395.2 52723.6 Q 92019.2 52495.6 92475.2 52033.6 Q 92931.2 51571.6 93189.2 50869.6 Q 93447.2 50167.6 93447.2 49220.8 L 93447.2 48031.6 L 91730 48116.8 Q 90650 48164.8 89918 48356.8 Q 89186 48548.8 88748 48890.8 Q 88310 49232.8 88118 49718.8 Q 87926 50204.8 87926 50815.6 Q 87926 51919.6 88508 52435.6 Q 89090 52951.6 90039.2 52951.6 L 90040.4 52951.6 Z M 105410 50863.6 Q 105410 51823.6 105062 52543.6 Q 104714 53263.6 104060 53749.6 Q 103406 54235.6 102482 54475.6 Q 101558 54715.6 100406 54715.6 Q 99099.2 54715.6 98163.2 54505.6 Q 97227.2 54295.6 96518 53887.6 L 96518 51895.6 Q 96891.2 52087.6 97347.2 52273.6 Q 97803.2 52459.6 98307.2 52603.6 Q 98811.2 52747.6 99345.2 52837.6 Q 99879.2 52927.6 100407.2 52927.6 Q 101188.4 52927.6 101734.4 52795.6 Q 102280.4 52663.6 102622.4 52417.6 Q 102964.4 52171.6 103120.4 51817.6 Q 103276.4 51463.6 103276.4 51031.6 Q 103276.4 50660.8 103156.4 50360.8 Q 103036.4 50060.8 102718.4 49766.8 Q 102400.4 49472.8 101848.4 49172.8 Q 101296.4 48872.8 100432.4 48502 Q 99568.4 48128.8 98878.4 47768.8 Q 98188.4 47408.8 97708.4 46964.8 Q 97228.4 46520.8 96970.4 45938.8 Q 96712.4 45356.8 96712.4 44551.6 Q 96712.4 43711.6 97042.4 43057.6 Q 97372.4 42403.6 97972.4 41959.6 Q 98572.4 41515.6 99412.4 41287.6 Q 100252.4 41059.6 101284.4 41059.6 Q 102447.2 41059.6 103413.2 41311.6 Q 104379.2 41563.6 105243.2 41971.6 L 104486 43734.4 Q 103707.2 43387.6 102885.2 43129.6 Q 102063.2 42871.6 101212.4 42871.6 Q 99988.4 42871.6 99400.4 43273.6 Q 98812.4 43675.6 98812.4 44419.6 Q 98812.4 44838.4 98950.4 45150.4 Q 99088.4 45462.4 99424.4 45738.4 Q 99760.4 46014.4 100324.4 46296.4 Q 100888.4 46578.4 101728.4 46925.2 Q 102592.4 47285.2 103270.4 47645.2 Q 103948.4 48005.2 104428.4 48455.2 Q 104908.4 48905.2 105160.4 49481.2 Q 105412.4 50057.2 105412.4 50860 L 105410 50863.6 Z M 115478.8 52903.6 Q 116390.8 52903.6 117020.8 52627.6 Q 117650.8 52351.6 118040.8 51787.6 Q 118430.8 51223.6 118616.8 50377.6 Q 118802.8 49531.6 118826.8 48403.6 L 118826.8 47910.4 Q 118826.8 46699.6 118664.8 45757.6 Q 118502.8 44815.6 118112.8 44173.6 Q 117722.8 43531.6 117074.8 43201.6 Q 116426.8 42871.6 115456 42871.6 Q 113834.8 42871.6 113072.8 44179.6 Q 112310.8 45487.6 112310.8 47935.6 Q 112310.8 50444.8 113072.8 51674.8 Q 113834.8 52904.8 115480 52904.8 L 115478.8 52903.6 Z M 115057.6 54716.8 Q 113942.8 54716.8 113018.8 54284.8 Q 112094.8 53852.8 111434.8 52994.8 Q 110774.8 52136.8 110414.8 50864.8 Q 110054.8 49592.8 110054.8 47912.8 Q 110054.8 46222 110414.8 44944 Q 110774.8 43666 111434.8 42802 Q 112094.8 41938 113018.8 41500 Q 113942.8 41062 115057.6 41062 Q 115766.8 41062 116342.8 41224 Q 116918.8 41386 117374.8 41656 Q 117830.8 41926 118190.8 42292 Q 118550.8 42658 118825.6 43079.2 L 118921.6 43079.2 L 119246.8 41303.2 L 121009.6 41303.2 L 121009.6 60383.2 L 118825.6 60383.2 L 118825.6 54756.4 Q 118825.6 54527.2 118849.6 54179.2 Q 118873.6 53831.2 118897.6 53506 Q 118934.8 53122 118969.6 52714 L 118825.6 52714 Q 118561.6 53122 118207.6 53488 Q 117853.6 53854 117391.6 54130 Q 116929.6 54406 116353.6 54562 Q 115777.6 54718 115057.6 54718 L 115057.6 54716.8 Z M 131709.2 54476.8 L 131384 52711.6 L 131264 52711.6 Q 130965.2 53228.8 130551.2 53606.8 Q 130137.2 53984.8 129645.2 54230.8 Q 129153.2 54476.8 128601.2 54596.8 Q 128049.2 54716.8 127473.2 54716.8 Q 126382.4 54716.8 125554.4 54440.8 Q 124726.4 54164.8 124174.4 53576.8 Q 123622.4 52988.8 123340.4 52076.8 Q 123058.4 51164.8 123058.4 49903.6 L 123058.4 41300.8 L 125242.4 41300.8 L 125242.4 49783.6 Q 125242.4 51343.6 125878.4 52123.6 Q 126514.4 52903.6 127847.6 52903.6 Q 128818.4 52903.6 129478.4 52591.6 Q 130138.4 52279.6 130540.4 51673.6 Q 130942.4 51067.6 131116.4 50179.6 Q 131290.4 49291.6 131290.4 48139.6 L 131290.4 41299.6 L 133474.4 41299.6 L 133474.4 54475.6 L 131711.6 54475.6 L 131709.2 54476.8 Z M 140774.4 54716.8 Q 139454.4 54716.8 138362.4 54272.8 Q 137270.4 53828.8 136484.4 52976.8 Q 135698.4 52124.8 135266.4 50864.8 Q 134834.4 49604.8 134834.4 47983.6 Q 134834.4 46351.6 135230.4 45067.6 Q 135626.4 43783.6 136346.4 42889.6 Q 137066.4 41995.6 138068.4 41527.6 Q 139070.4 41059.6 140283.6 41059.6 Q 141470.4 41059.6 142418.4 41485.6 Q 143366.4 41911.6 144026.4 42685.6 Q 144686.4 43459.6 145040.4 44545.6 Q 145394.4 45631.6 145394.4 46951.6 L 145394.4 48308.8 L 137090.4 48308.8 Q 137149.2 50623.6 138067.2 51715.6 Q 138985.2 52807.6 140796 52807.6 Q 141409.2 52807.6 141931.2 52747.6 Q 142453.2 52687.6 142939.2 52573.6 Q 143425.2 52459.6 143881.2 52285.6 Q 144337.2 52111.6 144804 51895.6 L 144804 53839.6 Q 144324 54068.8 143862 54236.8 Q 143400 54404.8 142914 54512.8 Q 142428 54620.8 141906 54668.8 Q 141384 54716.8 140770.8 54716.8 L 140774.4 54716.8 Z M 140235.6 42871.6 Q 138867.6 42871.6 138069.6 43807.6 Q 137271.6 44743.6 137140.8 46532.8 L 143044.8 46532.8 Q 143044.8 45716.8 142882.8 45038.8 Q 142720.8 44360.8 142378.8 43880.8 Q 142036.8 43400.8 141508.8 43136.8 Q 140980.8 42872.8 140236.8 42872.8 L 140235.6 42871.6 Z M 158709.2 50863.6 Q 158709.2 51823.6 158361.2 52543.6 Q 158013.2 53263.6 157359.2 53749.6 Q 156705.2 54235.6 155781.2 54475.6 Q 154857.2 54715.6 153705.2 54715.6 Q 152398.4 54715.6 151462.4 54505.6 Q 150526.4 54295.6 149817.2 53887.6 L 149817.2 51895.6 Q 150190.4 52087.6 150646.4 52273.6 Q 151102.4 52459.6 151606.4 52603.6 Q 152110.4 52747.6 152644.4 52837.6 Q 153178.4 52927.6 153706.4 52927.6 Q 154487.6 52927.6 155033.6 52795.6 Q 155579.6 52663.6 155921.6 52417.6 Q 156263.6 52171.6 156419.6 51817.6 Q 156575.6 51463.6 156575.6 51031.6 Q 156575.6 50660.8 156455.6 50360.8 Q 156335.6 50060.8 156017.6 49766.8 Q 155699.6 49472.8 155147.6 49172.8 Q 154595.6 48872.8 153731.6 48502 Q 152867.6 48128.8 152177.6 47768.8 Q 151487.6 47408.8 151007.6 46964.8 Q 150527.6 46520.8 150269.6 45938.8 Q 150011.6 45356.8 150011.6 44551.6 Q 150011.6 43711.6 150341.6 43057.6 Q 150671.6 42403.6 151271.6 41959.6 Q 151871.6 41515.6 152711.6 41287.6 Q 153551.6 41059.6 154583.6 41059.6 Q 155746.4 41059.6 156712.4 41311.6 Q 157678.4 41563.6 158542.4 41971.6 L 157785.2 43734.4 Q 157006.4 43387.6 156184.4 43129.6 Q 155362.4 42871.6 154511.6 42871.6 Q 153287.6 42871.6 152699.6 43273.6 Q 152111.6 43675.6 152111.6 44419.6 Q 152111.6 44838.4 152249.6 45150.4 Q 152387.6 45462.4 152723.6 45738.4 Q 153059.6 46014.4 153623.6 46296.4 Q 154187.6 46578.4 155027.6 46925.2 Q 155891.6 47285.2 156569.6 47645.2 Q 157247.6 48005.2 157727.6 48455.2 Q 158207.6 48905.2 158459.6 49481.2 Q 158711.6 50057.2 158711.6 50860 L 158709.2 50863.6 Z M 165043.2 54716.8 Q 163723.2 54716.8 162631.2 54272.8 Q 161539.2 53828.8 160753.2 52976.8 Q 159967.2 52124.8 159535.2 50864.8 Q 159103.2 49604.8 159103.2 47983.6 Q 159103.2 46351.6 159499.2 45067.6 Q 159895.2 43783.6 160615.2 42889.6 Q 161335.2 41995.6 162337.2 41527.6 Q 163339.2 41059.6 164552.4 41059.6 Q 165739.2 41059.6 166687.2 41485.6 Q 167635.2 41911.6 168295.2 42685.6 Q 168955.2 43459.6 169309.2 44545.6 Q 169663.2 45631.6 169663.2 46951.6 L 169663.2 48308.8 L 161359.2 48308.8 Q 161418 50623.6 162336 51715.6 Q 163254 52807.6 165064.8 52807.6 Q 165678 52807.6 166200 52747.6 Q 166722 52687.6 167208 52573.6 Q 167694 52459.6 168150 52285.6 Q 168606 52111.6 169072.8 51895.6 L 169072.8 53839.6 Q 168592.8 54068.8 168130.8 54236.8 Q 167668.8 54404.8 167182.8 54512.8 Q 166696.8 54620.8 166174.8 54668.8 Q 165652.8 54716.8 165039.6 54716.8 L 165043.2 54716.8 Z M 164504.4 42871.6 Q 163136.4 42871.6 162338.4 43807.6 Q 161540.4 44743.6 161409.6 46532.8 L 167313.6 46532.8 Q 167313.6 45716.8 167151.6 45038.8 Q 166989.6 44360.8 166647.6 43880.8 Q 166305.6 43400.8 165777.6 43136.8 Q 165249.6 42872.8 164505.6 42872.8 L 164504.4 42871.6 Z M 182522 54476.8 L 182076.8 52652.8 L 181980.8 52652.8 Q 181586 53191.6 181190 53581.6 Q 180794 53971.6 180326 54223.6 Q 179858 54475.6 179282 54595.6 Q 178706 54715.6 177948.8 54715.6 Q 177122 54715.6 176426 54481.6 Q 175730 54247.6 175220 53761.6 Q 174710 53275.6 174422 52537.6 Q 174134 51799.6 174134 50791.6 Q 174134 48823.6 175520 47767.6 Q 176906 46711.6 179738 46615.6 L 181946 46532.8 L 181946 45703.6 Q 181946 44900.8 181772 44360.8 Q 181598 43820.8 181268 43490.8 Q 180938 43160.8 180452 43016.8 Q 179966 42872.8 179342 42872.8 Q 178347.2 42872.8 177489.2 43160.8 Q 176631.2 43448.8 175839.2 43856.8 L 175071.2 42214 Q 175959.2 41734 177051.2 41398 Q 178143.2 41062 179343.2 41062 Q 180567.2 41062 181461.2 41308 Q 182355.2 41554 182937.2 42088 Q 183519.2 42622 183807.2 43450 Q 184095.2 44278 184095.2 45454 L 184095.2 54478 L 182524.4 54478 L 182522 54476.8 Z M 178514 52951.6 Q 179244.8 52951.6 179868.8 52723.6 Q 180492.8 52495.6 180948.8 52033.6 Q 181404.8 51571.6 181662.8 50869.6 Q 181920.8 50167.6 181920.8 49220.8 L 181920.8 48031.6 L 180203.6 48116.8 Q 179123.6 48164.8 178391.6 48356.8 Q 177659.6 48548.8 177221.6 48890.8 Q 176783.6 49232.8 176591.6 49718.8 Q 176399.6 50204.8 176399.6 50815.6 Q 176399.6 51919.6 176981.6 52435.6 Q 177563.6 52951.6 178512.8 52951.6 L 178514 52951.6 Z M 194134.4 52711.6 L 194038.4 52711.6 Q 193774.4 53119.6 193420.4 53485.6 Q 193066.4 53851.6 192604.4 54127.6 Q 192142.4 54403.6 191566.4 54559.6 Q 190990.4 54715.6 190270.4 54715.6 Q 189155.6 54715.6 188231.6 54283.6 Q 187307.6 53851.6 186647.6 52993.6 Q 185987.6 52135.6 185627.6 50863.6 Q 185267.6 49591.6 185267.6 47911.6 Q 185267.6 46220.8 185627.6 44942.8 Q 185987.6 43664.8 186647.6 42800.8 Q 187307.6 41936.8 188231.6 41498.8 Q 189155.6 41060.8 190270.4 41060.8 Q 190979.6 41060.8 191555.6 41216.8 Q 192131.6 41372.8 192593.6 41636.8 Q 193055.6 41900.8 193415.6 42248.8 Q 193775.6 42596.8 194039.6 42980.8 L 194183.6 42980.8 Q 194148.8 42572.8 194111.6 42199.6 Q 194087.6 41887.6 194063.6 41557.6 Q 194039.6 41227.6 194039.6 41035.6 L 194039.6 35803.6 L 196223.6 35803.6 L 196223.6 54475.6 L 194460.8 54475.6 L 194135.6 52710.4 L 194134.4 52711.6 Z M 190691.6 52903.6 Q 191603.6 52903.6 192233.6 52627.6 Q 192863.6 52351.6 193253.6 51787.6 Q 193643.6 51223.6 193829.6 50377.6 Q 194015.6 49531.6 194039.6 48403.6 L 194039.6 47910.4 Q 194039.6 46699.6 193877.6 45757.6 Q 193715.6 44815.6 193325.6 44173.6 Q 192935.6 43531.6 192287.6 43201.6 Q 191639.6 42871.6 190668.8 42871.6 Q 189047.6 42871.6 188285.6 44179.6 Q 187523.6 45487.6 187523.6 47935.6 Q 187523.6 50444.8 188285.6 51674.8 Q 189047.6 52904.8 190692.8 52904.8 L 190691.6 52903.6 Z M 205818 54476.8 L 205372.8 52652.8 L 205276.8 52652.8 Q 204882 53191.6 204486 53581.6 Q 204090 53971.6 203622 54223.6 Q 203154 54475.6 202578 54595.6 Q 202002 54715.6 201244.8 54715.6 Q 200418 54715.6 199722 54481.6 Q 199026 54247.6 198516 53761.6 Q 198006 53275.6 197718 52537.6 Q 197430 51799.6 197430 50791.6 Q 197430 48823.6 198816 47767.6 Q 200202 46711.6 203034 46615.6 L 205242 46532.8 L 205242 45703.6 Q 205242 44900.8 205068 44360.8 Q 204894 43820.8 204564 43490.8 Q 204234 43160.8 203748 43016.8 Q 203262 42872.8 202638 42872.8 Q 201643.2 42872.8 200785.2 43160.8 Q 199927.2 43448.8 199135.2 43856.8 L 198367.2 42214 Q 199255.2 41734 200347.2 41398 Q 201439.2 41062 202639.2 41062 Q 203863.2 41062 204757.2 41308 Q 205651.2 41554 206233.2 42088 Q 206815.2 42622 207103.2 43450 Q 207391.2 44278 207391.2 45454 L 207391.2 54478 L 205820.4 54478 L 205818 54476.8 Z M 201810 52951.6 Q 202540.8 52951.6 203164.8 52723.6 Q 203788.8 52495.6 204244.8 52033.6 Q 204700.8 51571.6 204958.8 50869.6 Q 205216.8 50167.6 205216.8 49220.8 L 205216.8 48031.6 L 203499.6 48116.8 Q 202419.6 48164.8 201687.6 48356.8 Q 200955.6 48548.8 200517.6 48890.8 Q 200079.6 49232.8 199887.6 49718.8 Q 199695.6 50204.8 199695.6 50815.6 Q 199695.6 51919.6 200277.6 52435.6 Q 200859.6 52951.6 201808.8 52951.6 L 201810 52951.6 Z M 215246.4 54716.8 Q 214539.6 54716.8 213963.6 54560.8 Q 213387.6 54404.8 212925.6 54146.8 Q 212463.6 53888.8 212109.6 53540.8 Q 211755.6 53192.8 211478.4 52808.8 L 211334.4 52808.8 Q 211371.6 53216.8 211406.4 53590 Q 211430.4 53902 211454.4 54232 Q 211478.4 54562 211478.4 54754 L 211478.4 60380.8 L 209294.4 60380.8 L 209294.4 41300.8 L 211070.4 41300.8 L 211382.4 43076.8 L 211478.4 43076.8 Q 211755.6 42655.6 212103.6 42289.6 Q 212451.6 41923.6 212913.6 41653.6 Q 213375.6 41383.6 213951.6 41221.6 Q 214527.6 41059.6 215247.6 41059.6 Q 216375.6 41059.6 217299.6 41491.6 Q 218223.6 41923.6 218877.6 42781.6 Q 219531.6 43639.6 219891.6 44911.6 Q 220251.6 46183.6 220251.6 47863.6 Q 220251.6 49556.8 219891.6 50834.8 Q 219531.6 52112.8 218877.6 52976.8 Q 218223.6 53840.8 217299.6 54278.8 Q 216375.6 54716.8 215247.6 54716.8 L 215246.4 54716.8 Z M 214827.6 42871.6 Q 213915.6 42871.6 213285.6 43147.6 Q 212655.6 43423.6 212265.6 43987.6 Q 211875.6 44551.6 211689.6 45391.6 Q 211503.6 46231.6 211479.6 47372.8 L 211479.6 47863.6 Q 211479.6 49076.8 211641.6 50018.8 Q 211803.6 50960.8 212193.6 51602.8 Q 212583.6 52244.8 213231.6 52574.8 Q 213879.6 52904.8 214852.8 52904.8 Q 216471.6 52904.8 217233.6 51596.8 Q 217995.6 50288.8 217995.6 47840.8 Q 217995.6 45344.8 217233.6 44108.8 Q 216471.6 42872.8 214828.8 42872.8 L 214827.6 42871.6 Z M 225668.8 52927.6 Q 225884.8 52927.6 226154.8 52903.6 Q 226424.8 52879.6 226676.8 52843.6 Q 226928.8 52807.6 227138.8 52759.6 Q 227348.8 52711.6 227458 52676.8 L 227458 54332.8 Q 227300.8 54404.8 227060.8 54476.8 Q 226820.8 54548.8 226532.8 54602.8 Q 226244.8 54656.8 225932.8 54686.8 Q 225620.8 54716.8 225322 54716.8 Q 224578 54716.8 223942 54524.8 Q 223306 54332.8 222844 53864.8 Q 222382 53396.8 222118 52598.8 Q 221854 51800.8 221854 50590 L 221854 42944.8 L 219995.2 42944.8 L 219995.2 41974 L 221854 41038 L 222790 38278 L 224051.2 38278 L 224051.2 41302 L 227363.2 41302 L 227363.2 42944.8 L 224051.2 42944.8 L 224051.2 50590 Q 224051.2 51752.8 224429.2 52340.8 Q 224807.2 52928.8 225671.2 52928.8 L 225668.8 52927.6 Z M 233139.2 54716.8 Q 231819.2 54716.8 230727.2 54272.8 Q 229635.2 53828.8 228849.2 52976.8 Q 228063.2 52124.8 227631.2 50864.8 Q 227199.2 49604.8 227199.2 47983.6 Q 227199.2 46351.6 227595.2 45067.6 Q 227991.2 43783.6 228711.2 42889.6 Q 229431.2 41995.6 230433.2 41527.6 Q 231435.2 41059.6 232648.4 41059.6 Q 233835.2 41059.6 234783.2 41485.6 Q 235731.2 41911.6 236391.2 42685.6 Q 237051.2 43459.6 237405.2 44545.6 Q 237759.2 45631.6 237759.2 46951.6 L 237759.2 48308.8 L 229455.2 48308.8 Q 229514 50623.6 230432 51715.6 Q 231350 52807.6 233160.8 52807.6 Q 233774 52807.6 234296 52747.6 Q 234818 52687.6 235304 52573.6 Q 235790 52459.6 236246 52285.6 Q 236702 52111.6 237168.8 51895.6 L 237168.8 53839.6 Q 236688.8 54068.8 236226.8 54236.8 Q 235764.8 54404.8 235278.8 54512.8 Q 234792.8 54620.8 234270.8 54668.8 Q 233748.8 54716.8 233135.6 54716.8 L 233139.2 54716.8 Z M 232600.4 42871.6 Q 231232.4 42871.6 230434.4 43807.6 Q 229636.4 44743.6 229505.6 46532.8 L 235409.6 46532.8 Q 235409.6 45716.8 235247.6 45038.8 Q 235085.6 44360.8 234743.6 43880.8 Q 234401.6 43400.8 233873.6 43136.8 Q 233345.6 42872.8 232601.6 42872.8 L 232600.4 42871.6 Z M 250618 54476.8 L 250172.8 52652.8 L 250076.8 52652.8 Q 249682 53191.6 249286 53581.6 Q 248890 53971.6 248422 54223.6 Q 247954 54475.6 247378 54595.6 Q 246802 54715.6 246044.8 54715.6 Q 245218 54715.6 244522 54481.6 Q 243826 54247.6 243316 53761.6 Q 242806 53275.6 242518 52537.6 Q 242230 51799.6 242230 50791.6 Q 242230 48823.6 243616 47767.6 Q 245002 46711.6 247834 46615.6 L 250042 46532.8 L 250042 45703.6 Q 250042 44900.8 249868 44360.8 Q 249694 43820.8 249364 43490.8 Q 249034 43160.8 248548 43016.8 Q 248062 42872.8 247438 42872.8 Q 246443.2 42872.8 245585.2 43160.8 Q 244727.2 43448.8 243935.2 43856.8 L 243167.2 42214 Q 244055.2 41734 245147.2 41398 Q 246239.2 41062 247439.2 41062 Q 248663.2 41062 249557.2 41308 Q 250451.2 41554 251033.2 42088 Q 251615.2 42622 251903.2 43450 Q 252191.2 44278 252191.2 45454 L 252191.2 54478 L 250620.4 54478 L 250618 54476.8 Z M 246610 52951.6 Q 247340.8 52951.6 247964.8 52723.6 Q 248588.8 52495.6 249044.8 52033.6 Q 249500.8 51571.6 249758.8 50869.6 Q 250016.8 50167.6 250016.8 49220.8 L 250016.8 48031.6 L 248299.6 48116.8 Q 247219.6 48164.8 246487.6 48356.8 Q 245755.6 48548.8 245317.6 48890.8 Q 244879.6 49232.8 244687.6 49718.8 Q 244495.6 50204.8 244495.6 50815.6 Q 244495.6 51919.6 245077.6 52435.6 Q 245659.6 52951.6 246608.8 52951.6 L 246610 52951.6 Z M 99307.2 82572.4 Q 99523.2 82572.4 99793.2 82548.4 Q 100063.2 82524.4 100315.2 82488.4 Q 100567.2 82452.4 100777.2 82404.4 Q 100987.2 82356.4 101096.4 82321.6 L 101096.4 83977.6 Q 100939.2 84049.6 100699.2 84121.6 Q 100459.2 84193.6 100171.2 84247.6 Q 99883.2 84301.6 99571.2 84331.6 Q 99259.2 84361.6 98960.4 84361.6 Q 98216.4 84361.6 97580.4 84169.6 Q 96944.4 83977.6 96482.4 83509.6 Q 96020.4 83041.6 95756.4 82243.6 Q 95492.4 81445.6 95492.4 80234.8 L 95492.4 72589.6 L 93633.6 72589.6 L 93633.6 71618.8 L 95492.4 70682.8 L 96428.4 67922.8 L 97689.6 67922.8 L 97689.6 70946.8 L 101001.6 70946.8 L 101001.6 72589.6 L 97689.6 72589.6 L 97689.6 80234.8 Q 97689.6 81397.6 98067.6 81985.6 Q 98445.6 82573.6 99309.6 82573.6 L 99307.2 82572.4 Z M 110102.8 84121.6 L 109777.6 82356.4 L 109657.6 82356.4 Q 109358.8 82873.6 108944.8 83251.6 Q 108530.8 83629.6 108038.8 83875.6 Q 107546.8 84121.6 106994.8 84241.6 Q 106442.8 84361.6 105866.8 84361.6 Q 104776 84361.6 103948 84085.6 Q 103120 83809.6 102568 83221.6 Q 102016 82633.6 101734 81721.6 Q 101452 80809.6 101452 79548.4 L 101452 70945.6 L 103636 70945.6 L 103636 79428.4 Q 103636 80988.4 104272 81768.4 Q 104908 82548.4 106241.2 82548.4 Q 107212 82548.4 107872 82236.4 Q 108532 81924.4 108934 81318.4 Q 109336 80712.4 109510 79824.4 Q 109684 78936.4 109684 77784.4 L 109684 70944.4 L 111868 70944.4 L 111868 84120.4 L 110105.2 84120.4 L 110102.8 84121.6 Z M 121845.2 80508.4 Q 121845.2 81468.4 121497.2 82188.4 Q 121149.2 82908.4 120495.2 83394.4 Q 119841.2 83880.4 118917.2 84120.4 Q 117993.2 84360.4 116841.2 84360.4 Q 115534.4 84360.4 114598.4 84150.4 Q 113662.4 83940.4 112953.2 83532.4 L 112953.2 81540.4 Q 113326.4 81732.4 113782.4 81918.4 Q 114238.4 82104.4 114742.4 82248.4 Q 115246.4 82392.4 115780.4 82482.4 Q 116314.4 82572.4 116842.4 82572.4 Q 117623.6 82572.4 118169.6 82440.4 Q 118715.6 82308.4 119057.6 82062.4 Q 119399.6 81816.4 119555.6 81462.4 Q 119711.6 81108.4 119711.6 80676.4 Q 119711.6 80305.6 119591.6 80005.6 Q 119471.6 79705.6 119153.6 79411.6 Q 118835.6 79117.6 118283.6 78817.6 Q 117731.6 78517.6 116867.6 78146.8 Q 116003.6 77773.6 115313.6 77413.6 Q 114623.6 77053.6 114143.6 76609.6 Q 113663.6 76165.6 113405.6 75583.6 Q 113147.6 75001.6 113147.6 74196.4 Q 113147.6 73356.4 113477.6 72702.4 Q 113807.6 72048.4 114407.6 71604.4 Q 115007.6 71160.4 115847.6 70932.4 Q 116687.6 70704.4 117719.6 70704.4 Q 118882.4 70704.4 119848.4 70956.4 Q 120814.4 71208.4 121678.4 71616.4 L 120921.2 73379.2 Q 120142.4 73032.4 119320.4 72774.4 Q 118498.4 72516.4 117647.6 72516.4 Q 116423.6 72516.4 115835.6 72918.4 Q 115247.6 73320.4 115247.6 74064.4 Q 115247.6 74483.2 115385.6 74795.2 Q 115523.6 75107.2 115859.6 75383.2 Q 116195.6 75659.2 116759.6 75941.2 Q 117323.6 76223.2 118163.6 76570 Q 119027.6 76930 119705.6 77290 Q 120383.6 77650 120863.6 78100 Q 121343.6 78550 121595.6 79126 Q 121847.6 79702 121847.6 80504.8 L 121845.2 80508.4 Z M 135452.8 84121.6 L 135452.8 75636.4 Q 135452.8 74076.4 134822.8 73296.4 Q 134192.8 72516.4 132848.8 72516.4 Q 131875.6 72516.4 131215.6 72828.4 Q 130555.6 73140.4 130153.6 73752.4 Q 129751.6 74364.4 129577.6 75252.4 Q 129403.6 76140.4 129403.6 77292.4 L 129403.6 84121.6 L 127219.6 84121.6 L 127219.6 70945.6 L 128995.6 70945.6 L 129307.6 72721.6 L 129427.6 72721.6 Q 129728.8 72204.4 130142.8 71826.4 Q 130556.8 71448.4 131048.8 71196.4 Q 131540.8 70944.4 132092.8 70824.4 Q 132644.8 70704.4 133220.8 70704.4 Q 135418 70704.4 136528 71850.4 Q 137638 72996.4 137638 75516.4 L 137638 84121.6 L 135454 84121.6 L 135452.8 84121.6 Z M 144819.2 84361.6 Q 143499.2 84361.6 142407.2 83917.6 Q 141315.2 83473.6 140529.2 82621.6 Q 139743.2 81769.6 139311.2 80509.6 Q 138879.2 79249.6 138879.2 77628.4 Q 138879.2 75996.4 139275.2 74712.4 Q 139671.2 73428.4 140391.2 72534.4 Q 141111.2 71640.4 142113.2 71172.4 Q 143115.2 70704.4 144328.4 70704.4 Q 145515.2 70704.4 146463.2 71130.4 Q 147411.2 71556.4 148071.2 72330.4 Q 148731.2 73104.4 149085.2 74190.4 Q 149439.2 75276.4 149439.2 76596.4 L 149439.2 77953.6 L 141135.2 77953.6 Q 141194 80268.4 142112 81360.4 Q 143030 82452.4 144840.8 82452.4 Q 145454 82452.4 145976 82392.4 Q 146498 82332.4 146984 82218.4 Q 147470 82104.4 147926 81930.4 Q 148382 81756.4 148848.8 81540.4 L 148848.8 83484.4 Q 148368.8 83713.6 147906.8 83881.6 Q 147444.8 84049.6 146958.8 84157.6 Q 146472.8 84265.6 145950.8 84313.6 Q 145428.8 84361.6 144815.6 84361.6 L 144819.2 84361.6 Z M 144280.4 72516.4 Q 142912.4 72516.4 142114.4 73452.4 Q 141316.4 74388.4 141185.6 76177.6 L 147089.6 76177.6 Q 147089.6 75361.6 146927.6 74683.6 Q 146765.6 74005.6 146423.6 73525.6 Q 146081.6 73045.6 145553.6 72781.6 Q 145025.6 72517.6 144281.6 72517.6 L 144280.4 72516.4 Z M 155659.2 84361.6 Q 154448.4 84361.6 153392.4 83983.6 Q 152336.4 83605.6 151556.4 82783.6 Q 150776.4 81961.6 150332.4 80683.6 Q 149888.4 79405.6 149888.4 77605.6 Q 149888.4 75722.8 150344.4 74408.8 Q 150800.4 73094.8 151598.4 72272.8 Q 152396.4 71450.8 153464.4 71078.8 Q 154532.4 70706.8 155756.4 70706.8 Q 156692.4 70706.8 157586.4 70910.8 Q 158480.4 71114.8 159080.4 71413.6 L 158432.4 73261.6 Q 158155.2 73141.6 157819.2 73027.6 Q 157483.2 72913.6 157123.2 72823.6 Q 156763.2 72733.6 156415.2 72679.6 Q 156067.2 72625.6 155755.2 72625.6 Q 153872.4 72625.6 153008.4 73831.6 Q 152144.4 75037.6 152144.4 77581.6 Q 152144.4 80114.8 153014.4 81284.8 Q 153884.4 82454.8 155660.4 82454.8 Q 156633.6 82454.8 157419.6 82232.8 Q 158205.6 82010.8 158853.6 81709.6 L 158853.6 83653.6 Q 158205.6 84002.8 157467.6 84182.8 Q 156729.6 84362.8 155660.4 84362.8 L 155659.2 84361.6 Z M 165145.6 84361.6 Q 163825.6 84361.6 162733.6 83917.6 Q 161641.6 83473.6 160855.6 82621.6 Q 160069.6 81769.6 159637.6 80509.6 Q 159205.6 79249.6 159205.6 77628.4 Q 159205.6 75996.4 159601.6 74712.4 Q 159997.6 73428.4 160717.6 72534.4 Q 161437.6 71640.4 162439.6 71172.4 Q 163441.6 70704.4 164654.8 70704.4 Q 165841.6 70704.4 166789.6 71130.4 Q 167737.6 71556.4 168397.6 72330.4 Q 169057.6 73104.4 169411.6 74190.4 Q 169765.6 75276.4 169765.6 76596.4 L 169765.6 77953.6 L 161461.6 77953.6 Q 161520.4 80268.4 162438.4 81360.4 Q 163356.4 82452.4 165167.2 82452.4 Q 165780.4 82452.4 166302.4 82392.4 Q 166824.4 82332.4 167310.4 82218.4 Q 167796.4 82104.4 168252.4 81930.4 Q 168708.4 81756.4 169175.2 81540.4 L 169175.2 83484.4 Q 168695.2 83713.6 168233.2 83881.6 Q 167771.2 84049.6 167285.2 84157.6 Q 166799.2 84265.6 166277.2 84313.6 Q 165755.2 84361.6 165142 84361.6 L 165145.6 84361.6 Z M 164606.8 72516.4 Q 163238.8 72516.4 162440.8 73452.4 Q 161642.8 74388.4 161512 76177.6 L 167416 76177.6 Q 167416 75361.6 167254 74683.6 Q 167092 74005.6 166750 73525.6 Q 166408 73045.6 165880 72781.6 Q 165352 72517.6 164608 72517.6 L 164606.8 72516.4 Z M 178830.8 80508.4 Q 178830.8 81468.4 178482.8 82188.4 Q 178134.8 82908.4 177480.8 83394.4 Q 176826.8 83880.4 175902.8 84120.4 Q 174978.8 84360.4 173826.8 84360.4 Q 172520 84360.4 171584 84150.4 Q 170648 83940.4 169938.8 83532.4 L 169938.8 81540.4 Q 170312 81732.4 170768 81918.4 Q 171224 82104.4 171728 82248.4 Q 172232 82392.4 172766 82482.4 Q 173300 82572.4 173828 82572.4 Q 174609.2 82572.4 175155.2 82440.4 Q 175701.2 82308.4 176043.2 82062.4 Q 176385.2 81816.4 176541.2 81462.4 Q 176697.2 81108.4 176697.2 80676.4 Q 176697.2 80305.6 176577.2 80005.6 Q 176457.2 79705.6 176139.2 79411.6 Q 175821.2 79117.6 175269.2 78817.6 Q 174717.2 78517.6 173853.2 78146.8 Q 172989.2 77773.6 172299.2 77413.6 Q 171609.2 77053.6 171129.2 76609.6 Q 170649.2 76165.6 170391.2 75583.6 Q 170133.2 75001.6 170133.2 74196.4 Q 170133.2 73356.4 170463.2 72702.4 Q 170793.2 72048.4 171393.2 71604.4 Q 171993.2 71160.4 172833.2 70932.4 Q 173673.2 70704.4 174705.2 70704.4 Q 175868 70704.4 176834 70956.4 Q 177800 71208.4 178664 71616.4 L 177906.8 73379.2 Q 177128 73032.4 176306 72774.4 Q 175484 72516.4 174633.2 72516.4 Q 173409.2 72516.4 172821.2 72918.4 Q 172233.2 73320.4 172233.2 74064.4 Q 172233.2 74483.2 172371.2 74795.2 Q 172509.2 75107.2 172845.2 75383.2 Q 173181.2 75659.2 173745.2 75941.2 Q 174309.2 76223.2 175149.2 76570 Q 176013.2 76930 176691.2 77290 Q 177369.2 77650 177849.2 78100 Q 178329.2 78550 178581.2 79126 Q 178833.2 79702 178833.2 80504.8 L 178830.8 80508.4 Z M 182140.8 84121.6 L 179956.8 84121.6 L 179956.8 70945.6 L 182140.8 70945.6 L 182140.8 84121.6 Z M 179788.8 67380.4 Q 179788.8 66660.4 180154.8 66336.4 Q 180520.8 66012.4 181059.6 66012.4 Q 181323.6 66012.4 181557.6 66090.4 Q 181791.6 66168.4 181965.6 66336.4 Q 182139.6 66504.4 182241.6 66762.4 Q 182343.6 67020.4 182343.6 67380.4 Q 182343.6 68076.4 181965.6 68418.4 Q 181587.6 68760.4 181059.6 68760.4 Q 180520.8 68760.4 180154.8 68424.4 Q 179788.8 68088.4 179788.8 67379.2 L 179788.8 67380.4 Z M 192342.4 82356.4 L 192246.4 82356.4 Q 191982.4 82764.4 191628.4 83130.4 Q 191274.4 83496.4 190812.4 83772.4 Q 190350.4 84048.4 189774.4 84204.4 Q 189198.4 84360.4 188478.4 84360.4 Q 187363.6 84360.4 186439.6 83928.4 Q 185515.6 83496.4 184855.6 82638.4 Q 184195.6 81780.4 183835.6 80508.4 Q 183475.6 79236.4 183475.6 77556.4 Q 183475.6 75865.6 183835.6 74587.6 Q 184195.6 73309.6 184855.6 72445.6 Q 185515.6 71581.6 186439.6 71143.6 Q 187363.6 70705.6 188478.4 70705.6 Q 189187.6 70705.6 189763.6 70861.6 Q 190339.6 71017.6 190801.6 71281.6 Q 191263.6 71545.6 191623.6 71893.6 Q 191983.6 72241.6 192247.6 72625.6 L 192391.6 72625.6 Q 192356.8 72217.6 192319.6 71844.4 Q 192295.6 71532.4 192271.6 71202.4 Q 192247.6 70872.4 192247.6 70680.4 L 192247.6 65448.4 L 194431.6 65448.4 L 194431.6 84120.4 L 192668.8 84120.4 L 192343.6 82355.2 L 192342.4 82356.4 Z M 188899.6 82548.4 Q 189811.6 82548.4 190441.6 82272.4 Q 191071.6 81996.4 191461.6 81432.4 Q 191851.6 80868.4 192037.6 80022.4 Q 192223.6 79176.4 192247.6 78048.4 L 192247.6 77555.2 Q 192247.6 76344.4 192085.6 75402.4 Q 191923.6 74460.4 191533.6 73818.4 Q 191143.6 73176.4 190495.6 72846.4 Q 189847.6 72516.4 188876.8 72516.4 Q 187255.6 72516.4 186493.6 73824.4 Q 185731.6 75132.4 185731.6 77580.4 Q 185731.6 80089.6 186493.6 81319.6 Q 187255.6 82549.6 188900.8 82549.6 L 188899.6 82548.4 Z M 204026 84121.6 L 203580.8 82297.6 L 203484.8 82297.6 Q 203090 82836.4 202694 83226.4 Q 202298 83616.4 201830 83868.4 Q 201362 84120.4 200786 84240.4 Q 200210 84360.4 199452.8 84360.4 Q 198626 84360.4 197930 84126.4 Q 197234 83892.4 196724 83406.4 Q 196214 82920.4 195926 82182.4 Q 195638 81444.4 195638 80436.4 Q 195638 78468.4 197024 77412.4 Q 198410 76356.4 201242 76260.4 L 203450 76177.6 L 203450 75348.4 Q 203450 74545.6 203276 74005.6 Q 203102 73465.6 202772 73135.6 Q 202442 72805.6 201956 72661.6 Q 201470 72517.6 200846 72517.6 Q 199851.2 72517.6 198993.2 72805.6 Q 198135.2 73093.6 197343.2 73501.6 L 196575.2 71858.8 Q 197463.2 71378.8 198555.2 71042.8 Q 199647.2 70706.8 200847.2 70706.8 Q 202071.2 70706.8 202965.2 70952.8 Q 203859.2 71198.8 204441.2 71732.8 Q 205023.2 72266.8 205311.2 73094.8 Q 205599.2 73922.8 205599.2 75098.8 L 205599.2 84122.8 L 204028.4 84122.8 L 204026 84121.6 Z M 200018 82596.4 Q 200748.8 82596.4 201372.8 82368.4 Q 201996.8 82140.4 202452.8 81678.4 Q 202908.8 81216.4 203166.8 80514.4 Q 203424.8 79812.4 203424.8 78865.6 L 203424.8 77676.4 L 201707.6 77761.6 Q 200627.6 77809.6 199895.6 78001.6 Q 199163.6 78193.6 198725.6 78535.6 Q 198287.6 78877.6 198095.6 79363.6 Q 197903.6 79849.6 197903.6 80460.4 Q 197903.6 81564.4 198485.6 82080.4 Q 199067.6 82596.4 200016.8 82596.4 L 200018 82596.4 Z M 215638.4 82356.4 L 215542.4 82356.4 Q 215278.4 82764.4 214924.4 83130.4 Q 214570.4 83496.4 214108.4 83772.4 Q 213646.4 84048.4 213070.4 84204.4 Q 212494.4 84360.4 211774.4 84360.4 Q 210659.6 84360.4 209735.6 83928.4 Q 208811.6 83496.4 208151.6 82638.4 Q 207491.6 81780.4 207131.6 80508.4 Q 206771.6 79236.4 206771.6 77556.4 Q 206771.6 75865.6 207131.6 74587.6 Q 207491.6 73309.6 208151.6 72445.6 Q 208811.6 71581.6 209735.6 71143.6 Q 210659.6 70705.6 211774.4 70705.6 Q 212483.6 70705.6 213059.6 70861.6 Q 213635.6 71017.6 214097.6 71281.6 Q 214559.6 71545.6 214919.6 71893.6 Q 215279.6 72241.6 215543.6 72625.6 L 215687.6 72625.6 Q 215652.8 72217.6 215615.6 71844.4 Q 215591.6 71532.4 215567.6 71202.4 Q 215543.6 70872.4 215543.6 70680.4 L 215543.6 65448.4 L 217727.6 65448.4 L 217727.6 84120.4 L 215964.8 84120.4 L 215639.6 82355.2 L 215638.4 82356.4 Z M 212195.6 82548.4 Q 213107.6 82548.4 213737.6 82272.4 Q 214367.6 81996.4 214757.6 81432.4 Q 215147.6 80868.4 215333.6 80022.4 Q 215519.6 79176.4 215543.6 78048.4 L 215543.6 77555.2 Q 215543.6 76344.4 215381.6 75402.4 Q 215219.6 74460.4 214829.6 73818.4 Q 214439.6 73176.4 213791.6 72846.4 Q 213143.6 72516.4 212172.8 72516.4 Q 210551.6 72516.4 209789.6 73824.4 Q 209027.6 75132.4 209027.6 77580.4 Q 209027.6 80089.6 209789.6 81319.6 Q 210551.6 82549.6 212196.8 82549.6 L 212195.6 82548.4 Z M 225100.8 84361.6 Q 223780.8 84361.6 222688.8 83917.6 Q 221596.8 83473.6 220810.8 82621.6 Q 220024.8 81769.6 219592.8 80509.6 Q 219160.8 79249.6 219160.8 77628.4 Q 219160.8 75996.4 219556.8 74712.4 Q 219952.8 73428.4 220672.8 72534.4 Q 221392.8 71640.4 222394.8 71172.4 Q 223396.8 70704.4 224610 70704.4 Q 225796.8 70704.4 226744.8 71130.4 Q 227692.8 71556.4 228352.8 72330.4 Q 229012.8 73104.4 229366.8 74190.4 Q 229720.8 75276.4 229720.8 76596.4 L 229720.8 77953.6 L 221416.8 77953.6 Q 221475.6 80268.4 222393.6 81360.4 Q 223311.6 82452.4 225122.4 82452.4 Q 225735.6 82452.4 226257.6 82392.4 Q 226779.6 82332.4 227265.6 82218.4 Q 227751.6 82104.4 228207.6 81930.4 Q 228663.6 81756.4 229130.4 81540.4 L 229130.4 83484.4 Q 228650.4 83713.6 228188.4 83881.6 Q 227726.4 84049.6 227240.4 84157.6 Q 226754.4 84265.6 226232.4 84313.6 Q 225710.4 84361.6 225097.2 84361.6 L 225100.8 84361.6 Z M 224562 72516.4 Q 223194 72516.4 222396 73452.4 Q 221598 74388.4 221467.2 76177.6 L 227371.2 76177.6 Q 227371.2 75361.6 227209.2 74683.6 Q 227047.2 74005.6 226705.2 73525.6 Q 226363.2 73045.6 225835.2 72781.6 Q 225307.2 72517.6 224563.2 72517.6 L 224562 72516.4 Z M 238786 80508.4 Q 238786 81468.4 238438 82188.4 Q 238090 82908.4 237436 83394.4 Q 236782 83880.4 235858 84120.4 Q 234934 84360.4 233782 84360.4 Q 232475.2 84360.4 231539.2 84150.4 Q 230603.2 83940.4 229894 83532.4 L 229894 81540.4 Q 230267.2 81732.4 230723.2 81918.4 Q 231179.2 82104.4 231683.2 82248.4 Q 232187.2 82392.4 232721.2 82482.4 Q 233255.2 82572.4 233783.2 82572.4 Q 234564.4 82572.4 235110.4 82440.4 Q 235656.4 82308.4 235998.4 82062.4 Q 236340.4 81816.4 236496.4 81462.4 Q 236652.4 81108.4 236652.4 80676.4 Q 236652.4 80305.6 236532.4 80005.6 Q 236412.4 79705.6 236094.4 79411.6 Q 235776.4 79117.6 235224.4 78817.6 Q 234672.4 78517.6 233808.4 78146.8 Q 232944.4 77773.6 232254.4 77413.6 Q 231564.4 77053.6 231084.4 76609.6 Q 230604.4 76165.6 230346.4 75583.6 Q 230088.4 75001.6 230088.4 74196.4 Q 230088.4 73356.4 230418.4 72702.4 Q 230748.4 72048.4 231348.4 71604.4 Q 231948.4 71160.4 232788.4 70932.4 Q 233628.4 70704.4 234660.4 70704.4 Q 235823.2 70704.4 236789.2 70956.4 Q 237755.2 71208.4 238619.2 71616.4 L 237862 73379.2 Q 237083.2 73032.4 236261.2 72774.4 Q 235439.2 72516.4 234588.4 72516.4 Q 233364.4 72516.4 232776.4 72918.4 Q 232188.4 73320.4 232188.4 74064.4 Q 232188.4 74483.2 232326.4 74795.2 Q 232464.4 75107.2 232800.4 75383.2 Q 233136.4 75659.2 233700.4 75941.2 Q 234264.4 76223.2 235104.4 76570 Q 235968.4 76930 236646.4 77290 Q 237324.4 77650 237804.4 78100 Q 238284.4 78550 238536.4 79126 Q 238788.4 79702 238788.4 80504.8 L 238786 80508.4 Z M 242193.6 70945.6 L 244462.8 70945.6 L 247041.6 78300.4 Q 247209.6 78780.4 247383.6 79308.4 Q 247557.6 79836.4 247707.6 80364.4 Q 247857.6 80892.4 247965.6 81384.4 Q 248073.6 81876.4 248121.6 82297.6 L 248193.6 82297.6 Q 248254.8 81996.4 248386.8 81480.4 Q 248518.8 80964.4 248680.8 80382.4 Q 248842.8 79800.4 249016.8 79236.4 Q 249190.8 78672.4 249321.6 78275.2 L 251710.8 70944.4 L 253966.8 70944.4 L 248758.8 85837.6 Q 248422.8 86808.4 248032.8 87582.4 Q 247642.8 88356.4 247126.8 88896.4 Q 246610.8 89436.4 245914.8 89730.4 Q 245218.8 90024.4 244258.8 90024.4 Q 243634.8 90024.4 243178.8 89958.4 Q 242722.8 89892.4 242400 89820.4 L 242400 88079.2 Q 242650.8 88140.4 243034.8 88182.4 Q 243418.8 88224.4 243840 88224.4 Q 244416 88224.4 244836 88086.4 Q 245256 87948.4 245568 87684.4 Q 245880 87420.4 246102 87036.4 Q 246324 86652.4 246505.2 86159.2 L 247188 84239.2 L 242196 70943.2 L 242193.6 70945.6 Z M 143641.6 114006.4 Q 142321.6 114006.4 141229.6 113562.4 Q 140137.6 113118.4 139351.6 112266.4 Q 138565.6 111414.4 138133.6 110154.4 Q 137701.6 108894.4 137701.6 107273.2 Q 137701.6 105641.2 138097.6 104357.2 Q 138493.6 103073.2 139213.6 102179.2 Q 139933.6 101285.2 140935.6 100817.2 Q 141937.6 100349.2 143150.8 100349.2 Q 144337.6 100349.2 145285.6 100775.2 Q 146233.6 101201.2 146893.6 101975.2 Q 147553.6 102749.2 147907.6 103835.2 Q 148261.6 104921.2 148261.6 106241.2 L 148261.6 107598.4 L 139957.6 107598.4 Q 140016.4 109913.2 140934.4 111005.2 Q 141852.4 112097.2 143663.2 112097.2 Q 144276.4 112097.2 144798.4 112037.2 Q 145320.4 111977.2 145806.4 111863.2 Q 146292.4 111749.2 146748.4 111575.2 Q 147204.4 111401.2 147671.2 111185.2 L 147671.2 113129.2 Q 147191.2 113358.4 146729.2 113526.4 Q 146267.2 113694.4 145781.2 113802.4 Q 145295.2 113910.4 144773.2 113958.4 Q 144251.2 114006.4 143638 114006.4 L 143641.6 114006.4 Z M 143102.8 102161.2 Q 141734.8 102161.2 140936.8 103097.2 Q 140138.8 104033.2 140008 105822.4 L 145912 105822.4 Q 145912 105006.4 145750 104328.4 Q 145588 103650.4 145246 103170.4 Q 144904 102690.4 144376 102426.4 Q 143848 102162.4 143104 102162.4 L 143102.8 102161.2 Z M 152249.6 107009.2 L 148014.8 100590.4 L 150497.6 100590.4 L 153497.6 105510.4 L 156497.6 100590.4 L 158982.8 100590.4 L 154721.6 107009.2 L 159198.8 113766.4 L 156713.6 113766.4 L 153497.6 108534.4 L 150257.6 113766.4 L 147774.8 113766.4 L 152249.6 107009.2 Z M 165633.6 114006.4 Q 164926.8 114006.4 164350.8 113850.4 Q 163774.8 113694.4 163312.8 113436.4 Q 162850.8 113178.4 162496.8 112830.4 Q 162142.8 112482.4 161865.6 112098.4 L 161721.6 112098.4 Q 161758.8 112506.4 161793.6 112879.6 Q 161817.6 113191.6 161841.6 113521.6 Q 161865.6 113851.6 161865.6 114043.6 L 161865.6 119670.4 L 159681.6 119670.4 L 159681.6 100590.4 L 161457.6 100590.4 L 161769.6 102366.4 L 161865.6 102366.4 Q 162142.8 101945.2 162490.8 101579.2 Q 162838.8 101213.2 163300.8 100943.2 Q 163762.8 100673.2 164338.8 100511.2 Q 164914.8 100349.2 165634.8 100349.2 Q 166762.8 100349.2 167686.8 100781.2 Q 168610.8 101213.2 169264.8 102071.2 Q 169918.8 102929.2 170278.8 104201.2 Q 170638.8 105473.2 170638.8 107153.2 Q 170638.8 108846.4 170278.8 110124.4 Q 169918.8 111402.4 169264.8 112266.4 Q 168610.8 113130.4 167686.8 113568.4 Q 166762.8 114006.4 165634.8 114006.4 L 165633.6 114006.4 Z M 165214.8 102161.2 Q 164302.8 102161.2 163672.8 102437.2 Q 163042.8 102713.2 162652.8 103277.2 Q 162262.8 103841.2 162076.8 104681.2 Q 161890.8 105521.2 161866.8 106662.4 L 161866.8 107153.2 Q 161866.8 108366.4 162028.8 109308.4 Q 162190.8 110250.4 162580.8 110892.4 Q 162970.8 111534.4 163618.8 111864.4 Q 164266.8 112194.4 165240 112194.4 Q 166858.8 112194.4 167620.8 110886.4 Q 168382.8 109578.4 168382.8 107130.4 Q 168382.8 104634.4 167620.8 103398.4 Q 166858.8 102162.4 165216 102162.4 L 165214.8 102161.2 Z M 177280 114006.4 Q 175960 114006.4 174868 113562.4 Q 173776 113118.4 172990 112266.4 Q 172204 111414.4 171772 110154.4 Q 171340 108894.4 171340 107273.2 Q 171340 105641.2 171736 104357.2 Q 172132 103073.2 172852 102179.2 Q 173572 101285.2 174574 100817.2 Q 175576 100349.2 176789.2 100349.2 Q 177976 100349.2 178924 100775.2 Q 179872 101201.2 180532 101975.2 Q 181192 102749.2 181546 103835.2 Q 181900 104921.2 181900 106241.2 L 181900 107598.4 L 173596 107598.4 Q 173654.8 109913.2 174572.8 111005.2 Q 175490.8 112097.2 177301.6 112097.2 Q 177914.8 112097.2 178436.8 112037.2 Q 178958.8 111977.2 179444.8 111863.2 Q 179930.8 111749.2 180386.8 111575.2 Q 180842.8 111401.2 181309.6 111185.2 L 181309.6 113129.2 Q 180829.6 113358.4 180367.6 113526.4 Q 179905.6 113694.4 179419.6 113802.4 Q 178933.6 113910.4 178411.6 113958.4 Q 177889.6 114006.4 177276.4 114006.4 L 177280 114006.4 Z M 176741.2 102161.2 Q 175373.2 102161.2 174575.2 103097.2 Q 173777.2 104033.2 173646.4 105822.4 L 179550.4 105822.4 Q 179550.4 105006.4 179388.4 104328.4 Q 179226.4 103650.4 178884.4 103170.4 Q 178542.4 102690.4 178014.4 102426.4 Q 177486.4 102162.4 176742.4 102162.4 L 176741.2 102161.2 Z M 188120 114006.4 Q 186909.2 114006.4 185853.2 113628.4 Q 184797.2 113250.4 184017.2 112428.4 Q 183237.2 111606.4 182793.2 110328.4 Q 182349.2 109050.4 182349.2 107250.4 Q 182349.2 105367.6 182805.2 104053.6 Q 183261.2 102739.6 184059.2 101917.6 Q 184857.2 101095.6 185925.2 100723.6 Q 186993.2 100351.6 188217.2 100351.6 Q 189153.2 100351.6 190047.2 100555.6 Q 190941.2 100759.6 191541.2 101058.4 L 190893.2 102906.4 Q 190616 102786.4 190280 102672.4 Q 189944 102558.4 189584 102468.4 Q 189224 102378.4 188876 102324.4 Q 188528 102270.4 188216 102270.4 Q 186333.2 102270.4 185469.2 103476.4 Q 184605.2 104682.4 184605.2 107226.4 Q 184605.2 109759.6 185475.2 110929.6 Q 186345.2 112099.6 188121.2 112099.6 Q 189094.4 112099.6 189880.4 111877.6 Q 190666.4 111655.6 191314.4 111354.4 L 191314.4 113298.4 Q 190666.4 113647.6 189928.4 113827.6 Q 189190.4 114007.6 188121.2 114007.6 L 188120 114006.4 Z M 196382.4 112217.2 Q 196598.4 112217.2 196868.4 112193.2 Q 197138.4 112169.2 197390.4 112133.2 Q 197642.4 112097.2 197852.4 112049.2 Q 198062.4 112001.2 198171.6 111966.4 L 198171.6 113622.4 Q 198014.4 113694.4 197774.4 113766.4 Q 197534.4 113838.4 197246.4 113892.4 Q 196958.4 113946.4 196646.4 113976.4 Q 196334.4 114006.4 196035.6 114006.4 Q 195291.6 114006.4 194655.6 113814.4 Q 194019.6 113622.4 193557.6 113154.4 Q 193095.6 112686.4 192831.6 111888.4 Q 192567.6 111090.4 192567.6 109879.6 L 192567.6 102234.4 L 190708.8 102234.4 L 190708.8 101263.6 L 192567.6 100327.6 L 193503.6 97567.6 L 194764.8 97567.6 L 194764.8 100591.6 L 198076.8 100591.6 L 198076.8 102234.4 L 194764.8 102234.4 L 194764.8 109879.6 Q 194764.8 111042.4 195142.8 111630.4 Q 195520.8 112218.4 196384.8 112218.4 L 196382.4 112217.2 Z M 206074 113766.4 L 205628.8 111942.4 L 205532.8 111942.4 Q 205138 112481.2 204742 112871.2 Q 204346 113261.2 203878 113513.2 Q 203410 113765.2 202834 113885.2 Q 202258 114005.2 201500.8 114005.2 Q 200674 114005.2 199978 113771.2 Q 199282 113537.2 198772 113051.2 Q 198262 112565.2 197974 111827.2 Q 197686 111089.2 197686 110081.2 Q 197686 108113.2 199072 107057.2 Q 200458 106001.2 203290 105905.2 L 205498 105822.4 L 205498 104993.2 Q 205498 104190.4 205324 103650.4 Q 205150 103110.4 204820 102780.4 Q 204490 102450.4 204004 102306.4 Q 203518 102162.4 202894 102162.4 Q 201899.2 102162.4 201041.2 102450.4 Q 200183.2 102738.4 199391.2 103146.4 L 198623.2 101503.6 Q 199511.2 101023.6 200603.2 100687.6 Q 201695.2 100351.6 202895.2 100351.6 Q 204119.2 100351.6 205013.2 100597.6 Q 205907.2 100843.6 206489.2 101377.6 Q 207071.2 101911.6 207359.2 102739.6 Q 207647.2 103567.6 207647.2 104743.6 L 207647.2 113767.6 L 206076.4 113767.6 L 206074 113766.4 Z M 202066 112241.2 Q 202796.8 112241.2 203420.8 112013.2 Q 204044.8 111785.2 204500.8 111323.2 Q 204956.8 110861.2 205214.8 110159.2 Q 205472.8 109457.2 205472.8 108510.4 L 205472.8 107321.2 L 203755.6 107406.4 Q 202675.6 107454.4 201943.6 107646.4 Q 201211.6 107838.4 200773.6 108180.4 Q 200335.6 108522.4 200143.6 109008.4 Q 199951.6 109494.4 199951.6 110105.2 Q 199951.6 111209.2 200533.6 111725.2 Q 201115.6 112241.2 202064.8 112241.2 L 202066 112241.2 Z M 213534.4 112217.2 Q 213750.4 112217.2 214020.4 112193.2 Q 214290.4 112169.2 214542.4 112133.2 Q 214794.4 112097.2 215004.4 112049.2 Q 215214.4 112001.2 215323.6 111966.4 L 215323.6 113622.4 Q 215166.4 113694.4 214926.4 113766.4 Q 214686.4 113838.4 214398.4 113892.4 Q 214110.4 113946.4 213798.4 113976.4 Q 213486.4 114006.4 213187.6 114006.4 Q 212443.6 114006.4 211807.6 113814.4 Q 211171.6 113622.4 210709.6 113154.4 Q 210247.6 112686.4 209983.6 111888.4 Q 209719.6 111090.4 209719.6 109879.6 L 209719.6 102234.4 L 207860.8 102234.4 L 207860.8 101263.6 L 209719.6 100327.6 L 210655.6 97567.6 L 211916.8 97567.6 L 211916.8 100591.6 L 215228.8 100591.6 L 215228.8 102234.4 L 211916.8 102234.4 L 211916.8 109879.6 Q 211916.8 111042.4 212294.8 111630.4 Q 212672.8 112218.4 213536.8 112218.4 L 213534.4 112217.2 Z M 217980.8 113766.4 L 215796.8 113766.4 L 215796.8 100590.4 L 217980.8 100590.4 L 217980.8 113766.4 Z M 215628.8 97025.2 Q 215628.8 96305.2 215994.8 95981.2 Q 216360.8 95657.2 216899.6 95657.2 Q 217163.6 95657.2 217397.6 95735.2 Q 217631.6 95813.2 217805.6 95981.2 Q 217979.6 96149.2 218081.6 96407.2 Q 218183.6 96665.2 218183.6 97025.2 Q 218183.6 97721.2 217805.6 98063.2 Q 217427.6 98405.2 216899.6 98405.2 Q 216360.8 98405.2 215994.8 98069.2 Q 215628.8 97733.2 215628.8 97024 L 215628.8 97025.2 Z M 222459.6 113766.4 L 217958.4 100590.4 L 220214.4 100590.4 L 222603.6 107921.2 Q 222734.4 108318.4 222914.4 108942.4 Q 223094.4 109566.4 223274.4 110214.4 Q 223454.4 110862.4 223604.4 111438.4 Q 223754.4 112014.4 223802.4 112313.2 L 223885.2 112313.2 Q 223946.4 112014.4 224090.4 111438.4 Q 224234.4 110862.4 224414.4 110214.4 Q 224594.4 109566.4 224774.4 108942.4 Q 224954.4 108318.4 225085.2 107921.2 L 227474.4 100590.4 L 229730.4 100590.4 L 225229.2 113766.4 L 222458.4 113766.4 L 222459.6 113766.4 Z M 237152.4 113766.4 L 236707.2 111942.4 L 236611.2 111942.4 Q 236216.4 112481.2 235820.4 112871.2 Q 235424.4 113261.2 234956.4 113513.2 Q 234488.4 113765.2 233912.4 113885.2 Q 233336.4 114005.2 232579.2 114005.2 Q 231752.4 114005.2 231056.4 113771.2 Q 230360.4 113537.2 229850.4 113051.2 Q 229340.4 112565.2 229052.4 111827.2 Q 228764.4 111089.2 228764.4 110081.2 Q 228764.4 108113.2 230150.4 107057.2 Q 231536.4 106001.2 234368.4 105905.2 L 236576.4 105822.4 L 236576.4 104993.2 Q 236576.4 104190.4 236402.4 103650.4 Q 236228.4 103110.4 235898.4 102780.4 Q 235568.4 102450.4 235082.4 102306.4 Q 234596.4 102162.4 233972.4 102162.4 Q 232977.6 102162.4 232119.6 102450.4 Q 231261.6 102738.4 230469.6 103146.4 L 229701.6 101503.6 Q 230589.6 101023.6 231681.6 100687.6 Q 232773.6 100351.6 233973.6 100351.6 Q 235197.6 100351.6 236091.6 100597.6 Q 236985.6 100843.6 237567.6 101377.6 Q 238149.6 101911.6 238437.6 102739.6 Q 238725.6 103567.6 238725.6 104743.6 L 238725.6 113767.6 L 237154.8 113767.6 L 237152.4 113766.4 Z M 233144.4 112241.2 Q 233875.2 112241.2 234499.2 112013.2 Q 235123.2 111785.2 235579.2 111323.2 Q 236035.2 110861.2 236293.2 110159.2 Q 236551.2 109457.2 236551.2 108510.4 L 236551.2 107321.2 L 234834 107406.4 Q 233754 107454.4 233022 107646.4 Q 232290 107838.4 231852 108180.4 Q 231414 108522.4 231222 109008.4 Q 231030 109494.4 231030 110105.2 Q 231030 111209.2 231612 111725.2 Q 232194 112241.2 233143.2 112241.2 L 233144.4 112241.2 Z M 248514 110153.2 Q 248514 111113.2 248166 111833.2 Q 247818 112553.2 247164 113039.2 Q 246510 113525.2 245586 113765.2 Q 244662 114005.2 243510 114005.2 Q 242203.2 114005.2 241267.2 113795.2 Q 240331.2 113585.2 239622 113177.2 L 239622 111185.2 Q 239995.2 111377.2 240451.2 111563.2 Q 240907.2 111749.2 241411.2 111893.2 Q 241915.2 112037.2 242449.2 112127.2 Q 242983.2 112217.2 243511.2 112217.2 Q 244292.4 112217.2 244838.4 112085.2 Q 245384.4 111953.2 245726.4 111707.2 Q 246068.4 111461.2 246224.4 111107.2 Q 246380.4 110753.2 246380.4 110321.2 Q 246380.4 109950.4 246260.4 109650.4 Q 246140.4 109350.4 245822.4 109056.4 Q 245504.4 108762.4 244952.4 108462.4 Q 244400.4 108162.4 243536.4 107791.6 Q 242672.4 107418.4 241982.4 107058.4 Q 241292.4 106698.4 240812.4 106254.4 Q 240332.4 105810.4 240074.4 105228.4 Q 239816.4 104646.4 239816.4 103841.2 Q 239816.4 103001.2 240146.4 102347.2 Q 240476.4 101693.2 241076.4 101249.2 Q 241676.4 100805.2 242516.4 100577.2 Q 243356.4 100349.2 244388.4 100349.2 Q 245551.2 100349.2 246517.2 100601.2 Q 247483.2 100853.2 248347.2 101261.2 L 247590 103024 Q 246811.2 102677.2 245989.2 102419.2 Q 245167.2 102161.2 244316.4 102161.2 Q 243092.4 102161.2 242504.4 102563.2 Q 241916.4 102965.2 241916.4 103709.2 Q 241916.4 104128 242054.4 104440 Q 242192.4 104752 242528.4 105028 Q 242864.4 105304 243428.4 105586 Q 243992.4 105868 244832.4 106214.8 Q 245696.4 106574.8 246374.4 106934.8 Q 247052.4 107294.8 247532.4 107744.8 Q 248012.4 108194.8 248264.4 108770.8 Q 248516.4 109346.8 248516.4 110149.6 L 248514 110153.2 Z M 249317.2 112433.2 Q 249317.2 111977.2 249437.2 111659.2 Q 249557.2 111341.2 249761.2 111143.2 Q 249965.2 110945.2 250241.2 110855.2 Q 250517.2 110765.2 250840 110765.2 Q 251152 110765.2 251434 110855.2 Q 251716 110945.2 251920 111143.2 Q 252124 111341.2 252244 111659.2 Q 252364 111977.2 252364 112433.2 Q 252364 112878.4 252244 113196.4 Q 252124 113514.4 251920 113719.6 Q 251716 113924.8 251434 114020.8 Q 251152 114116.8 250840 114116.8 Q 250517.2 114116.8 250241.2 114020.8 Q 249965.2 113924.8 249761.2 113719.6 Q 249557.2 113514.4 249437.2 113196.4 Q 249317.2 112878.4 249317.2 112433.2  Z " fill-rule="nonzero" style="fill:#535353;;fill-opacity:1;"/>
</svg>