<svg version="1.1" x="0" y="0" width="100%" height="100%" viewBox="0 0 39987.2 63795.2" xmlns="http://www.w3.org/2000/svg">
  <path d="M 31688 31285.3 Q 31688 35712.8 31050.5 39212.8 Q 30413 42712.8 29000.5 45137.8 Q 27588 47562.8 25363 48837.8 Q 23138 50112.8 19965.5 50112.8 Q 17015.5 50112.8 14828 48837.8 Q 12640.5 47562.8 11203 45137.8 Q 9765.5 42712.8 9053 39212.8 Q 8340.5 35712.8 8340.5 31285.3 Q 8340.5 26862.8 8978 23362.8 Q 9615.5 19862.8 11003 17450.3 Q 12390.5 15037.8 14603 13762.8 Q 16815.5 12487.8 19965.5 12487.8 Q 22938 12487.8 25138 13750.3 Q 27338 15012.8 28788 17425.3 Q 30238 19837.8 30963 23337.8 Q 31688 26837.8 31688 31287.8 L 31688 31285.3 Z M 12965.5 31285.3 Q 12965.5 35035.3 13340.5 37835.3 Q 13715.5 40635.3 14540.5 42497.8 Q 15365.5 44360.3 16703 45297.8 Q 18040.5 46235.3 19968 46235.3 Q 21890.5 46235.3 23240.5 45310.3 Q 24590.5 44385.3 25453 42535.3 Q 26315.5 40685.3 26703 37872.8 Q 27090.5 35060.3 27090.5 31282.8 Q 27090.5 27532.8 26703 24732.8 Q 26315.5 21932.8 25453 20082.8 Q 24590.5 18232.8 23240.5 17307.8 Q 21890.5 16382.8 19968 16382.8 Q 18040.5 16382.8 16703 17307.8 Q 15365.5 18232.8 14540.5 20082.8 Q 13715.5 21932.8 13340.5 24732.8 Q 12965.5 27532.8 12965.5 31282.8 L 12965.5 31285.3 Z " fill-rule="nonzero" style="fill:#ffffff;;fill-opacity:1;"/>
</svg>