<svg version="1.1" x="0" y="0" width="100%" height="100%" viewBox="0 0 38758.4 31692.8" xmlns="http://www.w3.org/2000/svg">
  <path d="M 18220.8 16034.8 Q 18220.8 18160 17914.8 19840 Q 17608.8 21520 16930.8 22684 Q 16252.8 23848 15184.8 24460 Q 14116.8 25072 12594 25072 Q 11178 25072 10128 24460 Q 9078 23848 8388 22684 Q 7698 21520 7356 19840 Q 7014 18160 7014 16034.8 Q 7014 13912 7320 12232 Q 7626 10552 8292 9394 Q 8958 8236 10020 7624 Q 11082 7012 12594 7012 Q 14020.8 7012 15076.8 7618 Q 16132.8 8224 16828.8 9382 Q 17524.8 10540 17872.8 12220 Q 18220.8 13900 18220.8 16036 L 18220.8 16034.8 Z M 9234 16034.8 Q 9234 17834.8 9414 19178.8 Q 9594 20522.8 9990 21416.8 Q 10386 22310.8 11028 22760.8 Q 11670 23210.8 12595.2 23210.8 Q 13518 23210.8 14166 22766.8 Q 14814 22322.8 15228 21434.8 Q 15642 20546.8 15828 19196.8 Q 16014 17846.8 16014 16033.6 Q 16014 14233.6 15828 12889.6 Q 15642 11545.6 15228 10657.6 Q 14814 9769.6 14166 9325.6 Q 13518 8881.6 12595.2 8881.6 Q 11670 8881.6 11028 9325.6 Q 10386 9769.6 9990 10657.6 Q 9594 11545.6 9414 12889.6 Q 9234 14233.6 9234 16033.6 L 9234 16034.8 Z M 32398.8 20896 L 29841.6 20896 L 29841.6 24832 L 27729.6 24832 L 27729.6 20896 L 19630.8 20896 L 19630.8 18986.8 L 27585.6 7192 L 29841.6 7192 L 29841.6 18904 L 32398.8 18904 L 32398.8 20896 Z M 27729.6 18904 L 27729.6 14632 Q 27729.6 13960 27747.6 13222 Q 27765.6 12484 27789.6 11782 Q 27813.6 11080 27843.6 10468 Q 27873.6 9856 27886.8 9448 L 27777.6 9448 Q 27694.8 9688 27568.8 9982 Q 27442.8 10276 27292.8 10570 Q 27142.8 10864 26986.8 11140 Q 26830.8 11416 26697.6 11608 L 21766.8 18904 L 27729.6 18904 Z " fill-rule="nonzero" style="fill:#535353;;fill-opacity:1;"/>
</svg>