<svg version="1.1" x="0" y="0" width="100%" height="100%" viewBox="0 0 40345.6 34764.8" xmlns="http://www.w3.org/2000/svg">
  <path d="M 20064 16034.8 Q 20064 18160 19758 19840 Q 19452 21520 18774 22684 Q 18096 23848 17028 24460 Q 15960 25072 14437.2 25072 Q 13021.2 25072 11971.2 24460 Q 10921.2 23848 10231.2 22684 Q 9541.2 21520 9199.2 19840 Q 8857.2 18160 8857.2 16034.8 Q 8857.2 13912 9163.2 12232 Q 9469.2 10552 10135.2 9394 Q 10801.2 8236 11863.2 7624 Q 12925.2 7012 14437.2 7012 Q 15864 7012 16920 7618 Q 17976 8224 18672 9382 Q 19368 10540 19716 12220 Q 20064 13900 20064 16036 L 20064 16034.8 Z M 11077.2 16034.8 Q 11077.2 17834.8 11257.2 19178.8 Q 11437.2 20522.8 11833.2 21416.8 Q 12229.2 22310.8 12871.2 22760.8 Q 13513.2 23210.8 14438.4 23210.8 Q 15361.2 23210.8 16009.2 22766.8 Q 16657.2 22322.8 17071.2 21434.8 Q 17485.2 20546.8 17671.2 19196.8 Q 17857.2 17846.8 17857.2 16033.6 Q 17857.2 14233.6 17671.2 12889.6 Q 17485.2 11545.6 17071.2 10657.6 Q 16657.2 9769.6 16009.2 9325.6 Q 15361.2 8881.6 14438.4 8881.6 Q 13513.2 8881.6 12871.2 9325.6 Q 12229.2 9769.6 11833.2 10657.6 Q 11437.2 11545.6 11257.2 12889.6 Q 11077.2 14233.6 11077.2 16033.6 L 11077.2 16034.8 Z M 28706 24832 L 26594 24832 L 26594 13874.8 Q 26594 13360 26600 12772 Q 26606 12184 26624 11602 Q 26642 11020 26660 10486 Q 26678 9952 26691.2 9544 Q 26486 9760 26330 9916 Q 26174 10072 26012 10216 Q 25850 10360 25670 10522 Q 25490 10684 25236.8 10900 L 23460.8 12353.2 L 22308.8 10876 L 26906 7289.2 L 28706 7289.2 L 28706 24833.2 L 28706 24832 Z " fill-rule="nonzero" style="fill:#535353;;fill-opacity:1;"/>
</svg>