<svg version="1.1" x="0" y="0" width="100%" height="100%" viewBox="0 0 121446.4 32716.8" xmlns="http://www.w3.org/2000/svg">
  <path d="M 7691 25022 Q 6732.45 25022 5896.45 24722.75 Q 5060.45 24423.5 4442.95 23772.75 Q 3825.45 23122 3473.95 22110.25 Q 3122.45 21098.5 3122.45 19673.5 Q 3122.45 18182.95 3483.45 17142.7 Q 3844.45 16102.45 4476.2 15451.7 Q 5107.95 14800.95 5953.45 14506.45 Q 6798.95 14211.95 7767.95 14211.95 Q 8508.95 14211.95 9216.7 14373.45 Q 9924.45 14534.95 10399.45 14771.5 L 9886.45 16234.5 Q 9667 16139.5 9401 16049.25 Q 9135 15959 8850 15887.75 Q 8565 15816.5 8289.5 15773.75 Q 8014 15731 7767 15731 Q 6276.45 15731 5592.45 16685.75 Q 4908.45 17640.5 4908.45 19654.5 Q 4908.45 21659.95 5597.2 22586.2 Q 6285.95 23512.45 7691.95 23512.45 Q 8462.4 23512.45 9084.65 23336.7 Q 9706.9 23160.95 10219.9 22922.5 L 10219.9 24461.5 Q 9706.9 24737.95 9122.65 24880.45 Q 8538.4 25022.95 7691.95 25022.95 L 7691 25022 Z M 20140.45 19596.55 Q 20140.45 20899 19822.2 21910.75 Q 19503.95 22922.5 18910.2 23611.25 Q 18316.45 24300 17470.95 24661 Q 16625.45 25022 15570 25022 Q 14592.45 25022 13765.95 24661 Q 12939.45 24300 12336.2 23611.25 Q 11732.95 22922.5 11395.7 21910.75 Q 11058.45 20899 11058.45 19596.55 Q 11058.45 18304.55 11376.7 17302.3 Q 11694.95 16300.05 12283.95 15611.3 Q 12872.95 14922.55 13723.2 14566.3 Q 14573.45 14210.05 15627 14210.05 Q 16606.45 14210.05 17432.95 14566.3 Q 18259.45 14922.55 18862.7 15611.3 Q 19465.95 16300.05 19803.2 17302.3 Q 20140.45 18304.55 20140.45 19596.55  Z M 12844.45 19596.55 Q 12844.45 21583 13495.2 22585.25 Q 14145.95 23587.5 15608.95 23587.5 Q 17071.95 23587.5 17713.2 22585.25 Q 18354.45 21583 18354.45 19596.55 Q 18354.45 17612 17703.7 16628.75 Q 17052.95 15645.5 15589.95 15645.5 Q 14126.95 15645.5 13485.7 16628.75 Q 12844.45 17612 12844.45 19596.55  Z M 34370.45 24832 L 34370.45 18114.55 Q 34370.45 16879.55 33895.45 16262.05 Q 33420.45 15644.55 32422 15644.55 Q 31729.45 15644.55 31244.95 15867.8 Q 30760.45 16091.05 30451.7 16523.3 Q 30142.95 16955.55 30000.45 17596.8 Q 29857.95 18238.05 29857.95 19074.05 L 29857.95 24831.05 L 28120.4 24831.05 L 28120.4 18113.6 Q 28120.4 16878.6 27650.15 16261.1 Q 27179.9 15643.6 26183.35 15643.6 Q 25450.9 15643.6 24956.9 15890.6 Q 24462.9 16137.6 24163.65 16622.1 Q 23864.4 17106.6 23736.15 17809.6 Q 23607.9 18512.6 23607.9 19424.6 L 23607.9 24831.05 L 21878.9 24831.05 L 21878.9 14400.05 L 23284.9 14400.05 L 23531.9 15806.05 L 23626.9 15806.05 Q 23854.9 15396.6 24168.4 15097.35 Q 24481.9 14798.1 24857.15 14598.6 Q 25232.4 14399.1 25655.15 14304.1 Q 26077.9 14209.1 26514.9 14209.1 Q 27654.9 14209.1 28410.15 14627.1 Q 29165.4 15045.1 29526.4 15938.1 L 29602.4 15938.1 Q 29849.4 15490.65 30196.15 15167.65 Q 30542.9 14844.65 30956.15 14630.9 Q 31369.4 14417.15 31825.4 14312.65 Q 32281.4 14208.15 32756.4 14208.15 Q 34417.95 14208.15 35258.7 15115.4 Q 36099.45 16022.65 36099.45 18017.65 L 36099.45 24830.1 L 34370.45 24830.1 L 34370.45 24832 Z M 45016.45 24832 L 44759 23434.55 L 44664 23434.55 Q 44427.45 23844 44099.7 24143.25 Q 43771.95 24442.5 43382.45 24637.25 Q 42992.95 24832 42555.95 24927 Q 42118.95 25022 41662.95 25022 Q 40799.4 25022 40143.9 24803.5 Q 39488.4 24585 39051.4 24119.5 Q 38614.4 23654 38391.15 22932 Q 38167.9 22210 38167.9 21211.55 L 38167.9 14401 L 39896.9 14401 L 39896.9 21116.55 Q 39896.9 22351.55 40400.4 22969.05 Q 40903.9 23586.55 41959.35 23586.55 Q 42727.9 23586.55 43250.4 23339.55 Q 43772.9 23092.55 44091.15 22612.8 Q 44409.4 22133.05 44547.15 21430.05 Q 44684.9 20727.05 44684.9 19815.05 L 44684.9 14400.05 L 46413.9 14400.05 L 46413.9 24831.05 L 45018.35 24831.05 L 45016.45 24832 Z M 55171.6 24832 L 55171.6 18114.55 Q 55171.6 16879.55 54672.85 16262.05 Q 54174.1 15644.55 53110.1 15644.55 Q 52339.65 15644.55 51817.15 15891.55 Q 51294.65 16138.55 50976.4 16623.05 Q 50658.15 17107.55 50520.4 17810.55 Q 50382.65 18513.55 50382.65 19425.55 L 50382.65 24832 L 48653.65 24832 L 48653.65 14401 L 50059.65 14401 L 50306.65 15807 L 50401.65 15807 Q 50640.1 15397.55 50967.85 15098.3 Q 51295.6 14799.05 51685.1 14599.55 Q 52074.6 14400.05 52511.6 14305.05 Q 52948.6 14210.05 53404.6 14210.05 Q 55144.05 14210.05 56022.8 15117.3 Q 56901.55 16024.55 56901.55 18019.55 L 56901.55 24832 L 55172.55 24832 L 55171.6 24832 Z M 60777.2 24832 L 59048.2 24832 L 59048.2 14401 L 60777.2 14401 L 60777.2 24832 Z M 58915.2 11578.55 Q 58915.2 11008.55 59204.95 10752.05 Q 59494.7 10495.55 59921.25 10495.55 Q 60130.25 10495.55 60315.5 10557.3 Q 60500.75 10619.05 60638.5 10752.05 Q 60776.25 10885.05 60857 11089.3 Q 60937.75 11293.55 60937.75 11578.55 Q 60937.75 12129.55 60638.5 12400.3 Q 60339.25 12671.05 59921.25 12671.05 Q 59494.7 12671.05 59204.95 12405.05 Q 58915.2 12139.05 58915.2 11577.6 L 58915.2 11578.55 Z M 67031.8 25022 Q 66073.25 25022 65237.25 24722.75 Q 64401.25 24423.5 63783.75 23772.75 Q 63166.25 23122 62814.75 22110.25 Q 62463.25 21098.5 62463.25 19673.5 Q 62463.25 18182.95 62824.25 17142.7 Q 63185.25 16102.45 63817 15451.7 Q 64448.75 14800.95 65294.25 14506.45 Q 66139.75 14211.95 67108.75 14211.95 Q 67849.75 14211.95 68557.5 14373.45 Q 69265.25 14534.95 69740.25 14771.5 L 69227.25 16234.5 Q 69007.8 16139.5 68741.8 16049.25 Q 68475.8 15959 68190.8 15887.75 Q 67905.8 15816.5 67630.3 15773.75 Q 67354.8 15731 67107.8 15731 Q 65617.25 15731 64933.25 16685.75 Q 64249.25 17640.5 64249.25 19654.5 Q 64249.25 21659.95 64938 22586.2 Q 65626.75 23512.45 67032.75 23512.45 Q 67803.2 23512.45 68425.45 23336.7 Q 69047.7 23160.95 69560.7 22922.5 L 69560.7 24461.5 Q 69047.7 24737.95 68463.45 24880.45 Q 67879.2 25022.95 67032.75 25022.95 L 67031.8 25022 Z M 76859.25 24832 L 76506.8 23388 L 76430.8 23388 Q 76118.25 23814.55 75804.75 24123.3 Q 75491.25 24432.05 75120.75 24631.55 Q 74750.25 24831.05 74294.25 24926.05 Q 73838.25 25021.05 73238.8 25021.05 Q 72584.25 25021.05 72033.25 24835.8 Q 71482.25 24650.55 71078.5 24265.8 Q 70674.75 23881.05 70446.75 23296.8 Q 70218.75 22712.55 70218.75 21914.55 Q 70218.75 20356.55 71316 19520.55 Q 72413.25 18684.55 74655.25 18608.55 L 76403.25 18543 L 76403.25 17886.55 Q 76403.25 17251 76265.5 16823.5 Q 76127.75 16396 75866.5 16134.75 Q 75605.25 15873.5 75220.5 15759.5 Q 74835.75 15645.5 74341.75 15645.5 Q 73554.2 15645.5 72874.95 15873.5 Q 72195.7 16101.5 71568.7 16424.5 L 70960.7 15123.95 Q 71663.7 14743.95 72528.2 14477.95 Q 73392.7 14211.95 74342.7 14211.95 Q 75311.7 14211.95 76019.45 14406.7 Q 76727.2 14601.45 77187.95 15024.2 Q 77648.7 15446.95 77876.7 16102.45 Q 78104.7 16757.95 78104.7 17688.95 L 78104.7 24832.95 L 76861.15 24832.95 L 76859.25 24832 Z M 73686.25 23624.55 Q 74264.8 23624.55 74758.8 23444.05 Q 75252.8 23263.55 75613.8 22897.8 Q 75974.8 22532.05 76179.05 21976.3 Q 76383.3 21420.55 76383.3 20671 L 76383.3 19729.55 L 75023.85 19797 Q 74168.85 19835 73589.35 19987 Q 73009.85 20139 72663.1 20409.75 Q 72316.35 20680.5 72164.35 21065.25 Q 72012.35 21450 72012.35 21933.55 Q 72012.35 22807.55 72473.1 23216.05 Q 72933.85 23624.55 73685.3 23624.55 L 73686.25 23624.55 Z M 83399 23605.55 Q 83570 23605.55 83783.75 23586.55 Q 83997.5 23567.55 84197 23539.05 Q 84396.5 23510.55 84562.75 23472.55 Q 84729 23434.55 84815.45 23407 L 84815.45 24718 Q 84691 24775 84501 24832 Q 84311 24889 84083 24931.75 Q 83855 24974.5 83608 24998.25 Q 83361 25022 83124.45 25022 Q 82535.45 25022 82031.95 24870 Q 81528.45 24718 81162.7 24347.5 Q 80796.95 23977 80587.95 23345.25 Q 80378.95 22713.5 80378.95 21754.95 L 80378.95 15702.5 L 78907.4 15702.5 L 78907.4 14933.95 L 80378.95 14192.95 L 81119.95 12007.95 L 82118.4 12007.95 L 82118.4 14401.95 L 84740.4 14401.95 L 84740.4 15702.5 L 82118.4 15702.5 L 82118.4 21754.95 Q 82118.4 22675.5 82417.65 23141 Q 82716.9 23606.5 83400.9 23606.5 L 83399 23605.55 Z M 87503.6 24832 L 85774.6 24832 L 85774.6 14401 L 87503.6 14401 L 87503.6 24832 Z M 85641.6 11578.55 Q 85641.6 11008.55 85931.35 10752.05 Q 86221.1 10495.55 86647.65 10495.55 Q 86856.65 10495.55 87041.9 10557.3 Q 87227.15 10619.05 87364.9 10752.05 Q 87502.65 10885.05 87583.4 11089.3 Q 87664.15 11293.55 87664.15 11578.55 Q 87664.15 12129.55 87364.9 12400.3 Q 87065.65 12671.05 86647.65 12671.05 Q 86221.1 12671.05 85931.35 12405.05 Q 85641.6 12139.05 85641.6 11577.6 L 85641.6 11578.55 Z M 91678.65 24832 L 88115.2 14401 L 89901.2 14401 L 91792.65 20204.55 Q 91896.2 20519 92038.7 21013 Q 92181.2 21507 92323.7 22020 Q 92466.2 22533 92584.95 22989 Q 92703.7 23445 92741.7 23681.55 L 92807.25 23681.55 Q 92855.7 23445 92969.7 22989 Q 93083.7 22533 93226.2 22020 Q 93368.7 21507 93511.2 21013 Q 93653.7 20519 93757.25 20204.55 L 95648.7 14401 L 97434.7 14401 L 93871.25 24832 L 91677.7 24832 L 91678.65 24832 Z M 106566.05 19596.55 Q 106566.05 20899 106247.8 21910.75 Q 105929.55 22922.5 105335.8 23611.25 Q 104742.05 24300 103896.55 24661 Q 103051.05 25022 101995.6 25022 Q 101018.05 25022 100191.55 24661 Q 99365.05 24300 98761.8 23611.25 Q 98158.55 22922.5 97821.3 21910.75 Q 97484.05 20899 97484.05 19596.55 Q 97484.05 18304.55 97802.3 17302.3 Q 98120.55 16300.05 98709.55 15611.3 Q 99298.55 14922.55 100148.8 14566.3 Q 100999.05 14210.05 102052.6 14210.05 Q 103032.05 14210.05 103858.55 14566.3 Q 104685.05 14922.55 105288.3 15611.3 Q 105891.55 16300.05 106228.8 17302.3 Q 106566.05 18304.55 106566.05 19596.55  Z M 99270.05 19596.55 Q 99270.05 21583 99920.8 22585.25 Q 100571.55 23587.5 102034.55 23587.5 Q 103497.55 23587.5 104138.8 22585.25 Q 104780.05 21583 104780.05 19596.55 Q 104780.05 17612 104129.3 16628.75 Q 103478.55 15645.5 102015.55 15645.5 Q 100552.55 15645.5 99911.3 16628.75 Q 99270.05 17612 99270.05 19596.55  Z " fill-rule="nonzero" style="fill:#273339;;fill-opacity:1;"/>
</svg>