<svg version="1.1" x="0" y="0" width="100%" height="100%" viewBox="0 0 127283.2 32716.8" xmlns="http://www.w3.org/2000/svg">
  <path d="M 14949.2 12424 Q 14949.2 13514.8 14619.2 14522.8 Q 14289.2 15530.8 13533.2 16304.8 Q 12777.2 17078.8 11535.2 17540.8 Q 10293.2 18002.8 8469.2 18002.8 L 6669.2 18002.8 L 6669.2 24832 L 4437.2 24832 L 4437.2 7288 L 8781.2 7288 Q 10389.2 7288 11553.2 7630 Q 12717.2 7972 13473.2 8626 Q 14229.2 9280 14589.2 10240 Q 14949.2 11200 14949.2 12424  Z M 6669.2 16106.8 L 8216 16106.8 Q 9333.2 16106.8 10167.2 15914.8 Q 11001.2 15722.8 11547.2 15296.8 Q 12093.2 14870.8 12369.2 14192.8 Q 12645.2 13514.8 12645.2 12544 Q 12645.2 10840 11661.2 10018 Q 10677.2 9196 8589.2 9196 L 6669.2 9196 L 6669.2 16108 L 6669.2 16106.8 Z M 24672.4 24832 L 24227.2 23008 L 24131.2 23008 Q 23736.4 23546.8 23340.4 23936.8 Q 22944.4 24326.8 22476.4 24578.8 Q 22008.4 24830.8 21432.4 24950.8 Q 20856.4 25070.8 20099.2 25070.8 Q 19272.4 25070.8 18576.4 24836.8 Q 17880.4 24602.8 17370.4 24116.8 Q 16860.4 23630.8 16572.4 22892.8 Q 16284.4 22154.8 16284.4 21146.8 Q 16284.4 19178.8 17670.4 18122.8 Q 19056.4 17066.8 21888.4 16970.8 L 24096.4 16888 L 24096.4 16058.8 Q 24096.4 15256 23922.4 14716 Q 23748.4 14176 23418.4 13846 Q 23088.4 13516 22602.4 13372 Q 22116.4 13228 21492.4 13228 Q 20497.6 13228 19639.6 13516 Q 18781.6 13804 17989.6 14212 L 17221.6 12569.2 Q 18109.6 12089.2 19201.6 11753.2 Q 20293.6 11417.2 21493.6 11417.2 Q 22717.6 11417.2 23611.6 11663.2 Q 24505.6 11909.2 25087.6 12443.2 Q 25669.6 12977.2 25957.6 13805.2 Q 26245.6 14633.2 26245.6 15809.2 L 26245.6 24833.2 L 24674.8 24833.2 L 24672.4 24832 Z M 20664.4 23306.8 Q 21395.2 23306.8 22019.2 23078.8 Q 22643.2 22850.8 23099.2 22388.8 Q 23555.2 21926.8 23813.2 21224.8 Q 24071.2 20522.8 24071.2 19576 L 24071.2 18386.8 L 22354 18472 Q 21274 18520 20542 18712 Q 19810 18904 19372 19246 Q 18934 19588 18742 20074 Q 18550 20560 18550 21170.8 Q 18550 22274.8 19132 22790.8 Q 19714 23306.8 20663.2 23306.8 L 20664.4 23306.8 Z M 37058 21218.8 Q 37058 22178.8 36710 22898.8 Q 36362 23618.8 35708 24104.8 Q 35054 24590.8 34130 24830.8 Q 33206 25070.8 32054 25070.8 Q 30747.2 25070.8 29811.2 24860.8 Q 28875.2 24650.8 28166 24242.8 L 28166 22250.8 Q 28539.2 22442.8 28995.2 22628.8 Q 29451.2 22814.8 29955.2 22958.8 Q 30459.2 23102.8 30993.2 23192.8 Q 31527.2 23282.8 32055.2 23282.8 Q 32836.4 23282.8 33382.4 23150.8 Q 33928.4 23018.8 34270.4 22772.8 Q 34612.4 22526.8 34768.4 22172.8 Q 34924.4 21818.8 34924.4 21386.8 Q 34924.4 21016 34804.4 20716 Q 34684.4 20416 34366.4 20122 Q 34048.4 19828 33496.4 19528 Q 32944.4 19228 32080.4 18857.2 Q 31216.4 18484 30526.4 18124 Q 29836.4 17764 29356.4 17320 Q 28876.4 16876 28618.4 16294 Q 28360.4 15712 28360.4 14906.8 Q 28360.4 14066.8 28690.4 13412.8 Q 29020.4 12758.8 29620.4 12314.8 Q 30220.4 11870.8 31060.4 11642.8 Q 31900.4 11414.8 32932.4 11414.8 Q 34095.2 11414.8 35061.2 11666.8 Q 36027.2 11918.8 36891.2 12326.8 L 36134 14089.6 Q 35355.2 13742.8 34533.2 13484.8 Q 33711.2 13226.8 32860.4 13226.8 Q 31636.4 13226.8 31048.4 13628.8 Q 30460.4 14030.8 30460.4 14774.8 Q 30460.4 15193.6 30598.4 15505.6 Q 30736.4 15817.6 31072.4 16093.6 Q 31408.4 16369.6 31972.4 16651.6 Q 32536.4 16933.6 33376.4 17280.4 Q 34240.4 17640.4 34918.4 18000.4 Q 35596.4 18360.4 36076.4 18810.4 Q 36556.4 19260.4 36808.4 19836.4 Q 37060.4 20412.4 37060.4 21215.2 L 37058 21218.8 Z M 49949.2 18218.8 Q 49949.2 19864 49547.2 21142 Q 49145.2 22420 48395.2 23290 Q 47645.2 24160 46577.2 24616 Q 45509.2 25072 44176 25072 Q 42941.2 25072 41897.2 24616 Q 40853.2 24160 40091.2 23290 Q 39329.2 22420 38903.2 21142 Q 38477.2 19864 38477.2 18218.8 Q 38477.2 16586.8 38879.2 15320.8 Q 39281.2 14054.8 40025.2 13184.8 Q 40769.2 12314.8 41843.2 11864.8 Q 42917.2 11414.8 44248 11414.8 Q 45485.2 11414.8 46529.2 11864.8 Q 47573.2 12314.8 48335.2 13184.8 Q 49097.2 14054.8 49523.2 15320.8 Q 49949.2 16586.8 49949.2 18218.8  Z M 40733.2 18218.8 Q 40733.2 20728 41555.2 21994 Q 42377.2 23260 44225.2 23260 Q 46073.2 23260 46883.2 21994 Q 47693.2 20728 47693.2 18218.8 Q 47693.2 15712 46871.2 14470 Q 46049.2 13228 44201.2 13228 Q 42353.2 13228 41543.2 14470 Q 40733.2 15712 40733.2 18218.8  Z M 64085.2 24832 L 61973.2 24832 L 61973.2 13874.8 Q 61973.2 13360 61979.2 12772 Q 61985.2 12184 62003.2 11602 Q 62021.2 11020 62039.2 10486 Q 62057.2 9952 62070.4 9544 Q 61865.2 9760 61709.2 9916 Q 61553.2 10072 61391.2 10216 Q 61229.2 10360 61049.2 10522 Q 60869.2 10684 60616 10900 L 58840 12353.2 L 57688 10876 L 62285.2 7289.2 L 64085.2 7289.2 L 64085.2 24833.2 L 64085.2 24832 Z " fill-rule="nonzero" style="fill:#df1100;;fill-opacity:1;"/>
</svg>