<svg version="1.1" x="0" y="0" width="100%" height="100%" viewBox="0 0 271001.6 62361.6" xmlns="http://www.w3.org/2000/svg">
  <path d="M 17434 24832 L 15188.8 24832 L 15188.8 9256 L 10172.8 9256 L 10172.8 7288 L 22436.8 7288 L 22436.8 9256 L 17434 9256 L 17434 24832 Z M 27929.6 25072 Q 26609.6 25072 25517.6 24628 Q 24425.6 24184 23639.6 23332 Q 22853.6 22480 22421.6 21220 Q 21989.6 19960 21989.6 18338.8 Q 21989.6 16706.8 22385.6 15422.8 Q 22781.6 14138.8 23501.6 13244.8 Q 24221.6 12350.8 25223.6 11882.8 Q 26225.6 11414.8 27438.8 11414.8 Q 28625.6 11414.8 29573.6 11840.8 Q 30521.6 12266.8 31181.6 13040.8 Q 31841.6 13814.8 32195.6 14900.8 Q 32549.6 15986.8 32549.6 17306.8 L 32549.6 18664 L 24245.6 18664 Q 24304.4 20978.8 25222.4 22070.8 Q 26140.4 23162.8 27951.2 23162.8 Q 28564.4 23162.8 29086.4 23102.8 Q 29608.4 23042.8 30094.4 22928.8 Q 30580.4 22814.8 31036.4 22640.8 Q 31492.4 22466.8 31959.2 22250.8 L 31959.2 24194.8 Q 31479.2 24424 31017.2 24592 Q 30555.2 24760 30069.2 24868 Q 29583.2 24976 29061.2 25024 Q 28539.2 25072 27926 25072 L 27929.6 25072 Z M 27390.8 13226.8 Q 26022.8 13226.8 25224.8 14162.8 Q 24426.8 15098.8 24296 16888 L 30200 16888 Q 30200 16072 30038 15394 Q 29876 14716 29534 14236 Q 29192 13756 28664 13492 Q 28136 13228 27392 13228 L 27390.8 13226.8 Z M 41961.6 24832 L 41961.6 16346.8 Q 41961.6 14786.8 41331.6 14006.8 Q 40701.6 13226.8 39357.6 13226.8 Q 38384.4 13226.8 37724.4 13538.8 Q 37064.4 13850.8 36662.4 14462.8 Q 36260.4 15074.8 36086.4 15962.8 Q 35912.4 16850.8 35912.4 18002.8 L 35912.4 24832 L 33728.4 24832 L 33728.4 11656 L 35504.4 11656 L 35816.4 13432 L 35936.4 13432 Q 36237.6 12914.8 36651.6 12536.8 Q 37065.6 12158.8 37557.6 11906.8 Q 38049.6 11654.8 38601.6 11534.8 Q 39153.6 11414.8 39729.6 11414.8 Q 41926.8 11414.8 43036.8 12560.8 Q 44146.8 13706.8 44146.8 16226.8 L 44146.8 24832 L 41962.8 24832 L 41961.6 24832 Z M 55409.6 25072 Q 54198.8 25072 53142.8 24694 Q 52086.8 24316 51306.8 23494 Q 50526.8 22672 50082.8 21394 Q 49638.8 20116 49638.8 18316 Q 49638.8 16433.2 50094.8 15119.2 Q 50550.8 13805.2 51348.8 12983.2 Q 52146.8 12161.2 53214.8 11789.2 Q 54282.8 11417.2 55506.8 11417.2 Q 56442.8 11417.2 57336.8 11621.2 Q 58230.8 11825.2 58830.8 12124 L 58182.8 13972 Q 57905.6 13852 57569.6 13738 Q 57233.6 13624 56873.6 13534 Q 56513.6 13444 56165.6 13390 Q 55817.6 13336 55505.6 13336 Q 53622.8 13336 52758.8 14542 Q 51894.8 15748 51894.8 18292 Q 51894.8 20825.2 52764.8 21995.2 Q 53634.8 23165.2 55410.8 23165.2 Q 56384 23165.2 57170 22943.2 Q 57956 22721.2 58604 22420 L 58604 24364 Q 57956 24713.2 57218 24893.2 Q 56480 25073.2 55410.8 25073.2 L 55409.6 25072 Z M 70429.2 18218.8 Q 70429.2 19864 70027.2 21142 Q 69625.2 22420 68875.2 23290 Q 68125.2 24160 67057.2 24616 Q 65989.2 25072 64656 25072 Q 63421.2 25072 62377.2 24616 Q 61333.2 24160 60571.2 23290 Q 59809.2 22420 59383.2 21142 Q 58957.2 19864 58957.2 18218.8 Q 58957.2 16586.8 59359.2 15320.8 Q 59761.2 14054.8 60505.2 13184.8 Q 61249.2 12314.8 62323.2 11864.8 Q 63397.2 11414.8 64728 11414.8 Q 65965.2 11414.8 67009.2 11864.8 Q 68053.2 12314.8 68815.2 13184.8 Q 69577.2 14054.8 70003.2 15320.8 Q 70429.2 16586.8 70429.2 18218.8  Z M 61213.2 18218.8 Q 61213.2 20728 62035.2 21994 Q 62857.2 23260 64705.2 23260 Q 66553.2 23260 67363.2 21994 Q 68173.2 20728 68173.2 18218.8 Q 68173.2 15712 67351.2 14470 Q 66529.2 13228 64681.2 13228 Q 62833.2 13228 62023.2 14470 Q 61213.2 15712 61213.2 18218.8  Z M 80054.4 24832 L 80054.4 16346.8 Q 80054.4 14786.8 79424.4 14006.8 Q 78794.4 13226.8 77450.4 13226.8 Q 76477.2 13226.8 75817.2 13538.8 Q 75157.2 13850.8 74755.2 14462.8 Q 74353.2 15074.8 74179.2 15962.8 Q 74005.2 16850.8 74005.2 18002.8 L 74005.2 24832 L 71821.2 24832 L 71821.2 11656 L 73597.2 11656 L 73909.2 13432 L 74029.2 13432 Q 74330.4 12914.8 74744.4 12536.8 Q 75158.4 12158.8 75650.4 11906.8 Q 76142.4 11654.8 76694.4 11534.8 Q 77246.4 11414.8 77822.4 11414.8 Q 80019.6 11414.8 81129.6 12560.8 Q 82239.6 13706.8 82239.6 16226.8 L 82239.6 24832 L 80055.6 24832 L 80054.4 24832 Z M 86626 24832 L 82124.8 11656 L 84380.8 11656 L 86770 18986.8 Q 86900.8 19384 87080.8 20008 Q 87260.8 20632 87440.8 21280 Q 87620.8 21928 87770.8 22504 Q 87920.8 23080 87968.8 23378.8 L 88051.6 23378.8 Q 88112.8 23080 88256.8 22504 Q 88400.8 21928 88580.8 21280 Q 88760.8 20632 88940.8 20008 Q 89120.8 19384 89251.6 18986.8 L 91640.8 11656 L 93896.8 11656 L 89395.6 24832 L 86624.8 24832 L 86626 24832 Z M 99097.6 25072 Q 97777.6 25072 96685.6 24628 Q 95593.6 24184 94807.6 23332 Q 94021.6 22480 93589.6 21220 Q 93157.6 19960 93157.6 18338.8 Q 93157.6 16706.8 93553.6 15422.8 Q 93949.6 14138.8 94669.6 13244.8 Q 95389.6 12350.8 96391.6 11882.8 Q 97393.6 11414.8 98606.8 11414.8 Q 99793.6 11414.8 100741.6 11840.8 Q 101689.6 12266.8 102349.6 13040.8 Q 103009.6 13814.8 103363.6 14900.8 Q 103717.6 15986.8 103717.6 17306.8 L 103717.6 18664 L 95413.6 18664 Q 95472.4 20978.8 96390.4 22070.8 Q 97308.4 23162.8 99119.2 23162.8 Q 99732.4 23162.8 100254.4 23102.8 Q 100776.4 23042.8 101262.4 22928.8 Q 101748.4 22814.8 102204.4 22640.8 Q 102660.4 22466.8 103127.2 22250.8 L 103127.2 24194.8 Q 102647.2 24424 102185.2 24592 Q 101723.2 24760 101237.2 24868 Q 100751.2 24976 100229.2 25024 Q 99707.2 25072 99094 25072 L 99097.6 25072 Z M 98558.8 13226.8 Q 97190.8 13226.8 96392.8 14162.8 Q 95594.8 15098.8 95464 16888 L 101368 16888 Q 101368 16072 101206 15394 Q 101044 14716 100702 14236 Q 100360 13756 99832 13492 Q 99304 13228 98560 13228 L 98558.8 13226.8 Z M 110598.8 11416 Q 110945.6 11416 111377.6 11446 Q 111809.6 11476 112121.6 11537.2 L 111833.6 13553.2 Q 111497.6 13492 111143.6 13450 Q 110789.6 13408 110477.6 13408 Q 109720.4 13408 109096.4 13714 Q 108472.4 14020 108022.4 14590 Q 107572.4 15160 107326.4 15958 Q 107080.4 16756 107080.4 17729.2 L 107080.4 24833.2 L 104896.4 24833.2 L 104896.4 11657.2 L 106672.4 11657.2 L 106936.4 14068 L 107032.4 14068 Q 107333.6 13553.2 107675.6 13073.2 Q 108017.6 12593.2 108443.6 12227.2 Q 108869.6 11861.2 109397.6 11639.2 Q 109925.6 11417.2 110597.6 11417.2 L 110598.8 11416 Z M 120565.2 21218.8 Q 120565.2 22178.8 120217.2 22898.8 Q 119869.2 23618.8 119215.2 24104.8 Q 118561.2 24590.8 117637.2 24830.8 Q 116713.2 25070.8 115561.2 25070.8 Q 114254.4 25070.8 113318.4 24860.8 Q 112382.4 24650.8 111673.2 24242.8 L 111673.2 22250.8 Q 112046.4 22442.8 112502.4 22628.8 Q 112958.4 22814.8 113462.4 22958.8 Q 113966.4 23102.8 114500.4 23192.8 Q 115034.4 23282.8 115562.4 23282.8 Q 116343.6 23282.8 116889.6 23150.8 Q 117435.6 23018.8 117777.6 22772.8 Q 118119.6 22526.8 118275.6 22172.8 Q 118431.6 21818.8 118431.6 21386.8 Q 118431.6 21016 118311.6 20716 Q 118191.6 20416 117873.6 20122 Q 117555.6 19828 117003.6 19528 Q 116451.6 19228 115587.6 18857.2 Q 114723.6 18484 114033.6 18124 Q 113343.6 17764 112863.6 17320 Q 112383.6 16876 112125.6 16294 Q 111867.6 15712 111867.6 14906.8 Q 111867.6 14066.8 112197.6 13412.8 Q 112527.6 12758.8 113127.6 12314.8 Q 113727.6 11870.8 114567.6 11642.8 Q 115407.6 11414.8 116439.6 11414.8 Q 117602.4 11414.8 118568.4 11666.8 Q 119534.4 11918.8 120398.4 12326.8 L 119641.2 14089.6 Q 118862.4 13742.8 118040.4 13484.8 Q 117218.4 13226.8 116367.6 13226.8 Q 115143.6 13226.8 114555.6 13628.8 Q 113967.6 14030.8 113967.6 14774.8 Q 113967.6 15193.6 114105.6 15505.6 Q 114243.6 15817.6 114579.6 16093.6 Q 114915.6 16369.6 115479.6 16651.6 Q 116043.6 16933.6 116883.6 17280.4 Q 117747.6 17640.4 118425.6 18000.4 Q 119103.6 18360.4 119583.6 18810.4 Q 120063.6 19260.4 120315.6 19836.4 Q 120567.6 20412.4 120567.6 21215.2 L 120565.2 21218.8 Z M 129120.4 24832 L 128675.2 23008 L 128579.2 23008 Q 128184.4 23546.8 127788.4 23936.8 Q 127392.4 24326.8 126924.4 24578.8 Q 126456.4 24830.8 125880.4 24950.8 Q 125304.4 25070.8 124547.2 25070.8 Q 123720.4 25070.8 123024.4 24836.8 Q 122328.4 24602.8 121818.4 24116.8 Q 121308.4 23630.8 121020.4 22892.8 Q 120732.4 22154.8 120732.4 21146.8 Q 120732.4 19178.8 122118.4 18122.8 Q 123504.4 17066.8 126336.4 16970.8 L 128544.4 16888 L 128544.4 16058.8 Q 128544.4 15256 128370.4 14716 Q 128196.4 14176 127866.4 13846 Q 127536.4 13516 127050.4 13372 Q 126564.4 13228 125940.4 13228 Q 124945.6 13228 124087.6 13516 Q 123229.6 13804 122437.6 14212 L 121669.6 12569.2 Q 122557.6 12089.2 123649.6 11753.2 Q 124741.6 11417.2 125941.6 11417.2 Q 127165.6 11417.2 128059.6 11663.2 Q 128953.6 11909.2 129535.6 12443.2 Q 130117.6 12977.2 130405.6 13805.2 Q 130693.6 14633.2 130693.6 15809.2 L 130693.6 24833.2 L 129122.8 24833.2 L 129120.4 24832 Z M 125112.4 23306.8 Q 125843.2 23306.8 126467.2 23078.8 Q 127091.2 22850.8 127547.2 22388.8 Q 128003.2 21926.8 128261.2 21224.8 Q 128519.2 20522.8 128519.2 19576 L 128519.2 18386.8 L 126802 18472 Q 125722 18520 124990 18712 Q 124258 18904 123820 19246 Q 123382 19588 123190 20074 Q 122998 20560 122998 21170.8 Q 122998 22274.8 123580 22790.8 Q 124162 23306.8 125111.2 23306.8 L 125112.4 23306.8 Z M 137636.8 25072 Q 136426 25072 135370 24694 Q 134314 24316 133534 23494 Q 132754 22672 132310 21394 Q 131866 20116 131866 18316 Q 131866 16433.2 132322 15119.2 Q 132778 13805.2 133576 12983.2 Q 134374 12161.2 135442 11789.2 Q 136510 11417.2 137734 11417.2 Q 138670 11417.2 139564 11621.2 Q 140458 11825.2 141058 12124 L 140410 13972 Q 140132.8 13852 139796.8 13738 Q 139460.8 13624 139100.8 13534 Q 138740.8 13444 138392.8 13390 Q 138044.8 13336 137732.8 13336 Q 135850 13336 134986 14542 Q 134122 15748 134122 18292 Q 134122 20825.2 134992 21995.2 Q 135862 23165.2 137638 23165.2 Q 138611.2 23165.2 139397.2 22943.2 Q 140183.2 22721.2 140831.2 22420 L 140831.2 24364 Q 140183.2 24713.2 139445.2 24893.2 Q 138707.2 25073.2 137638 25073.2 L 137636.8 25072 Z M 144099.2 24832 L 141915.2 24832 L 141915.2 11656 L 144099.2 11656 L 144099.2 24832 Z M 141747.2 8090.8 Q 141747.2 7370.8 142113.2 7046.8 Q 142479.2 6722.8 143018 6722.8 Q 143282 6722.8 143516 6800.8 Q 143750 6878.8 143924 7046.8 Q 144098 7214.8 144200 7472.8 Q 144302 7730.8 144302 8090.8 Q 144302 8786.8 143924 9128.8 Q 143546 9470.8 143018 9470.8 Q 142479.2 9470.8 142113.2 9134.8 Q 141747.2 8798.8 141747.2 8089.6 L 141747.2 8090.8 Z M 156906 18218.8 Q 156906 19864 156504 21142 Q 156102 22420 155352 23290 Q 154602 24160 153534 24616 Q 152466 25072 151132.8 25072 Q 149898 25072 148854 24616 Q 147810 24160 147048 23290 Q 146286 22420 145860 21142 Q 145434 19864 145434 18218.8 Q 145434 16586.8 145836 15320.8 Q 146238 14054.8 146982 13184.8 Q 147726 12314.8 148800 11864.8 Q 149874 11414.8 151204.8 11414.8 Q 152442 11414.8 153486 11864.8 Q 154530 12314.8 155292 13184.8 Q 156054 14054.8 156480 15320.8 Q 156906 16586.8 156906 18218.8  Z M 147690 18218.8 Q 147690 20728 148512 21994 Q 149334 23260 151182 23260 Q 153030 23260 153840 21994 Q 154650 20728 154650 18218.8 Q 154650 15712 153828 14470 Q 153006 13228 151158 13228 Q 149310 13228 148500 14470 Q 147690 15712 147690 18218.8  Z M 166531.2 24832 L 166531.2 16346.8 Q 166531.2 14786.8 165901.2 14006.8 Q 165271.2 13226.8 163927.2 13226.8 Q 162954 13226.8 162294 13538.8 Q 161634 13850.8 161232 14462.8 Q 160830 15074.8 160656 15962.8 Q 160482 16850.8 160482 18002.8 L 160482 24832 L 158298 24832 L 158298 11656 L 160074 11656 L 160386 13432 L 160506 13432 Q 160807.2 12914.8 161221.2 12536.8 Q 161635.2 12158.8 162127.2 11906.8 Q 162619.2 11654.8 163171.2 11534.8 Q 163723.2 11414.8 164299.2 11414.8 Q 166496.4 11414.8 167606.4 12560.8 Q 168716.4 13706.8 168716.4 16226.8 L 168716.4 24832 L 166532.4 24832 L 166531.2 24832 Z M 175897.6 25072 Q 174577.6 25072 173485.6 24628 Q 172393.6 24184 171607.6 23332 Q 170821.6 22480 170389.6 21220 Q 169957.6 19960 169957.6 18338.8 Q 169957.6 16706.8 170353.6 15422.8 Q 170749.6 14138.8 171469.6 13244.8 Q 172189.6 12350.8 173191.6 11882.8 Q 174193.6 11414.8 175406.8 11414.8 Q 176593.6 11414.8 177541.6 11840.8 Q 178489.6 12266.8 179149.6 13040.8 Q 179809.6 13814.8 180163.6 14900.8 Q 180517.6 15986.8 180517.6 17306.8 L 180517.6 18664 L 172213.6 18664 Q 172272.4 20978.8 173190.4 22070.8 Q 174108.4 23162.8 175919.2 23162.8 Q 176532.4 23162.8 177054.4 23102.8 Q 177576.4 23042.8 178062.4 22928.8 Q 178548.4 22814.8 179004.4 22640.8 Q 179460.4 22466.8 179927.2 22250.8 L 179927.2 24194.8 Q 179447.2 24424 178985.2 24592 Q 178523.2 24760 178037.2 24868 Q 177551.2 24976 177029.2 25024 Q 176507.2 25072 175894 25072 L 175897.6 25072 Z M 175358.8 13226.8 Q 173990.8 13226.8 173192.8 14162.8 Q 172394.8 15098.8 172264 16888 L 178168 16888 Q 178168 16072 178006 15394 Q 177844 14716 177502 14236 Q 177160 13756 176632 13492 Q 176104 13228 175360 13228 L 175358.8 13226.8 Z M 189582.8 21218.8 Q 189582.8 22178.8 189234.8 22898.8 Q 188886.8 23618.8 188232.8 24104.8 Q 187578.8 24590.8 186654.8 24830.8 Q 185730.8 25070.8 184578.8 25070.8 Q 183272 25070.8 182336 24860.8 Q 181400 24650.8 180690.8 24242.8 L 180690.8 22250.8 Q 181064 22442.8 181520 22628.8 Q 181976 22814.8 182480 22958.8 Q 182984 23102.8 183518 23192.8 Q 184052 23282.8 184580 23282.8 Q 185361.2 23282.8 185907.2 23150.8 Q 186453.2 23018.8 186795.2 22772.8 Q 187137.2 22526.8 187293.2 22172.8 Q 187449.2 21818.8 187449.2 21386.8 Q 187449.2 21016 187329.2 20716 Q 187209.2 20416 186891.2 20122 Q 186573.2 19828 186021.2 19528 Q 185469.2 19228 184605.2 18857.2 Q 183741.2 18484 183051.2 18124 Q 182361.2 17764 181881.2 17320 Q 181401.2 16876 181143.2 16294 Q 180885.2 15712 180885.2 14906.8 Q 180885.2 14066.8 181215.2 13412.8 Q 181545.2 12758.8 182145.2 12314.8 Q 182745.2 11870.8 183585.2 11642.8 Q 184425.2 11414.8 185457.2 11414.8 Q 186620 11414.8 187586 11666.8 Q 188552 11918.8 189416 12326.8 L 188658.8 14089.6 Q 187880 13742.8 187058 13484.8 Q 186236 13226.8 185385.2 13226.8 Q 184161.2 13226.8 183573.2 13628.8 Q 182985.2 14030.8 182985.2 14774.8 Q 182985.2 15193.6 183123.2 15505.6 Q 183261.2 15817.6 183597.2 16093.6 Q 183933.2 16369.6 184497.2 16651.6 Q 185061.2 16933.6 185901.2 17280.4 Q 186765.2 17640.4 187443.2 18000.4 Q 188121.2 18360.4 188601.2 18810.4 Q 189081.2 19260.4 189333.2 19836.4 Q 189585.2 20412.4 189585.2 21215.2 L 189582.8 21218.8 Z M 200659.6 11416 Q 201006.4 11416 201438.4 11446 Q 201870.4 11476 202182.4 11537.2 L 201894.4 13553.2 Q 201558.4 13492 201204.4 13450 Q 200850.4 13408 200538.4 13408 Q 199781.2 13408 199157.2 13714 Q 198533.2 14020 198083.2 14590 Q 197633.2 15160 197387.2 15958 Q 197141.2 16756 197141.2 17729.2 L 197141.2 24833.2 L 194957.2 24833.2 L 194957.2 11657.2 L 196733.2 11657.2 L 196997.2 14068 L 197093.2 14068 Q 197394.4 13553.2 197736.4 13073.2 Q 198078.4 12593.2 198504.4 12227.2 Q 198930.4 11861.2 199458.4 11639.2 Q 199986.4 11417.2 200658.4 11417.2 L 200659.6 11416 Z M 207948.8 25072 Q 206628.8 25072 205536.8 24628 Q 204444.8 24184 203658.8 23332 Q 202872.8 22480 202440.8 21220 Q 202008.8 19960 202008.8 18338.8 Q 202008.8 16706.8 202404.8 15422.8 Q 202800.8 14138.8 203520.8 13244.8 Q 204240.8 12350.8 205242.8 11882.8 Q 206244.8 11414.8 207458 11414.8 Q 208644.8 11414.8 209592.8 11840.8 Q 210540.8 12266.8 211200.8 13040.8 Q 211860.8 13814.8 212214.8 14900.8 Q 212568.8 15986.8 212568.8 17306.8 L 212568.8 18664 L 204264.8 18664 Q 204323.6 20978.8 205241.6 22070.8 Q 206159.6 23162.8 207970.4 23162.8 Q 208583.6 23162.8 209105.6 23102.8 Q 209627.6 23042.8 210113.6 22928.8 Q 210599.6 22814.8 211055.6 22640.8 Q 211511.6 22466.8 211978.4 22250.8 L 211978.4 24194.8 Q 211498.4 24424 211036.4 24592 Q 210574.4 24760 210088.4 24868 Q 209602.4 24976 209080.4 25024 Q 208558.4 25072 207945.2 25072 L 207948.8 25072 Z M 207410 13226.8 Q 206042 13226.8 205244 14162.8 Q 204446 15098.8 204315.2 16888 L 210219.2 16888 Q 210219.2 16072 210057.2 15394 Q 209895.2 14716 209553.2 14236 Q 209211.2 13756 208683.2 13492 Q 208155.2 13228 207411.2 13228 L 207410 13226.8 Z M 221178 24832 L 220732.8 23008 L 220636.8 23008 Q 220242 23546.8 219846 23936.8 Q 219450 24326.8 218982 24578.8 Q 218514 24830.8 217938 24950.8 Q 217362 25070.8 216604.8 25070.8 Q 215778 25070.8 215082 24836.8 Q 214386 24602.8 213876 24116.8 Q 213366 23630.8 213078 22892.8 Q 212790 22154.8 212790 21146.8 Q 212790 19178.8 214176 18122.8 Q 215562 17066.8 218394 16970.8 L 220602 16888 L 220602 16058.8 Q 220602 15256 220428 14716 Q 220254 14176 219924 13846 Q 219594 13516 219108 13372 Q 218622 13228 217998 13228 Q 217003.2 13228 216145.2 13516 Q 215287.2 13804 214495.2 14212 L 213727.2 12569.2 Q 214615.2 12089.2 215707.2 11753.2 Q 216799.2 11417.2 217999.2 11417.2 Q 219223.2 11417.2 220117.2 11663.2 Q 221011.2 11909.2 221593.2 12443.2 Q 222175.2 12977.2 222463.2 13805.2 Q 222751.2 14633.2 222751.2 15809.2 L 222751.2 24833.2 L 221180.4 24833.2 L 221178 24832 Z M 217170 23306.8 Q 217900.8 23306.8 218524.8 23078.8 Q 219148.8 22850.8 219604.8 22388.8 Q 220060.8 21926.8 220318.8 21224.8 Q 220576.8 20522.8 220576.8 19576 L 220576.8 18386.8 L 218859.6 18472 Q 217779.6 18520 217047.6 18712 Q 216315.6 18904 215877.6 19246 Q 215439.6 19588 215247.6 20074 Q 215055.6 20560 215055.6 21170.8 Q 215055.6 22274.8 215637.6 22790.8 Q 216219.6 23306.8 217168.8 23306.8 L 217170 23306.8 Z M 226838.4 24832 L 224654.4 24832 L 224654.4 6160 L 226838.4 6160 L 226838.4 24832 Z M 234112 25072 Q 232792 25072 231700 24628 Q 230608 24184 229822 23332 Q 229036 22480 228604 21220 Q 228172 19960 228172 18338.8 Q 228172 16706.8 228568 15422.8 Q 228964 14138.8 229684 13244.8 Q 230404 12350.8 231406 11882.8 Q 232408 11414.8 233621.2 11414.8 Q 234808 11414.8 235756 11840.8 Q 236704 12266.8 237364 13040.8 Q 238024 13814.8 238378 14900.8 Q 238732 15986.8 238732 17306.8 L 238732 18664 L 230428 18664 Q 230486.8 20978.8 231404.8 22070.8 Q 232322.8 23162.8 234133.6 23162.8 Q 234746.8 23162.8 235268.8 23102.8 Q 235790.8 23042.8 236276.8 22928.8 Q 236762.8 22814.8 237218.8 22640.8 Q 237674.8 22466.8 238141.6 22250.8 L 238141.6 24194.8 Q 237661.6 24424 237199.6 24592 Q 236737.6 24760 236251.6 24868 Q 235765.6 24976 235243.6 25024 Q 234721.6 25072 234108.4 25072 L 234112 25072 Z M 233573.2 13226.8 Q 232205.2 13226.8 231407.2 14162.8 Q 230609.2 15098.8 230478.4 16888 L 236382.4 16888 Q 236382.4 16072 236220.4 15394 Q 236058.4 14716 235716.4 14236 Q 235374.4 13756 234846.4 13492 Q 234318.4 13228 233574.4 13228 L 233573.2 13226.8 Z M 247797.2 21218.8 Q 247797.2 22178.8 247449.2 22898.8 Q 247101.2 23618.8 246447.2 24104.8 Q 245793.2 24590.8 244869.2 24830.8 Q 243945.2 25070.8 242793.2 25070.8 Q 241486.4 25070.8 240550.4 24860.8 Q 239614.4 24650.8 238905.2 24242.8 L 238905.2 22250.8 Q 239278.4 22442.8 239734.4 22628.8 Q 240190.4 22814.8 240694.4 22958.8 Q 241198.4 23102.8 241732.4 23192.8 Q 242266.4 23282.8 242794.4 23282.8 Q 243575.6 23282.8 244121.6 23150.8 Q 244667.6 23018.8 245009.6 22772.8 Q 245351.6 22526.8 245507.6 22172.8 Q 245663.6 21818.8 245663.6 21386.8 Q 245663.6 21016 245543.6 20716 Q 245423.6 20416 245105.6 20122 Q 244787.6 19828 244235.6 19528 Q 243683.6 19228 242819.6 18857.2 Q 241955.6 18484 241265.6 18124 Q 240575.6 17764 240095.6 17320 Q 239615.6 16876 239357.6 16294 Q 239099.6 15712 239099.6 14906.8 Q 239099.6 14066.8 239429.6 13412.8 Q 239759.6 12758.8 240359.6 12314.8 Q 240959.6 11870.8 241799.6 11642.8 Q 242639.6 11414.8 243671.6 11414.8 Q 244834.4 11414.8 245800.4 11666.8 Q 246766.4 11918.8 247630.4 12326.8 L 246873.2 14089.6 Q 246094.4 13742.8 245272.4 13484.8 Q 244450.4 13226.8 243599.6 13226.8 Q 242375.6 13226.8 241787.6 13628.8 Q 241199.6 14030.8 241199.6 14774.8 Q 241199.6 15193.6 241337.6 15505.6 Q 241475.6 15817.6 241811.6 16093.6 Q 242147.6 16369.6 242711.6 16651.6 Q 243275.6 16933.6 244115.6 17280.4 Q 244979.6 17640.4 245657.6 18000.4 Q 246335.6 18360.4 246815.6 18810.4 Q 247295.6 19260.4 247547.6 19836.4 Q 247799.6 20412.4 247799.6 21215.2 L 247797.2 21218.8 Z M 251204.8 11656 L 253474 11656 L 256052.8 19010.8 Q 256220.8 19490.8 256394.8 20018.8 Q 256568.8 20546.8 256718.8 21074.8 Q 256868.8 21602.8 256976.8 22094.8 Q 257084.8 22586.8 257132.8 23008 L 257204.8 23008 Q 257266 22706.8 257398 22190.8 Q 257530 21674.8 257692 21092.8 Q 257854 20510.8 258028 19946.8 Q 258202 19382.8 258332.8 18985.6 L 260722 11654.8 L 262978 11654.8 L 257770 26548 Q 257434 27518.8 257044 28292.8 Q 256654 29066.8 256138 29606.8 Q 255622 30146.8 254926 30440.8 Q 254230 30734.8 253270 30734.8 Q 252646 30734.8 252190 30668.8 Q 251734 30602.8 251411.2 30530.8 L 251411.2 28789.6 Q 251662 28850.8 252046 28892.8 Q 252430 28934.8 252851.2 28934.8 Q 253427.2 28934.8 253847.2 28796.8 Q 254267.2 28658.8 254579.2 28394.8 Q 254891.2 28130.8 255113.2 27746.8 Q 255335.2 27362.8 255516.4 26869.6 L 256199.2 24949.6 L 251207.2 11653.6 L 251204.8 11656 Z M 89947.6 50863.6 Q 89947.6 51823.6 89599.6 52543.6 Q 89251.6 53263.6 88597.6 53749.6 Q 87943.6 54235.6 87019.6 54475.6 Q 86095.6 54715.6 84943.6 54715.6 Q 83636.8 54715.6 82700.8 54505.6 Q 81764.8 54295.6 81055.6 53887.6 L 81055.6 51895.6 Q 81428.8 52087.6 81884.8 52273.6 Q 82340.8 52459.6 82844.8 52603.6 Q 83348.8 52747.6 83882.8 52837.6 Q 84416.8 52927.6 84944.8 52927.6 Q 85726 52927.6 86272 52795.6 Q 86818 52663.6 87160 52417.6 Q 87502 52171.6 87658 51817.6 Q 87814 51463.6 87814 51031.6 Q 87814 50660.8 87694 50360.8 Q 87574 50060.8 87256 49766.8 Q 86938 49472.8 86386 49172.8 Q 85834 48872.8 84970 48502 Q 84106 48128.8 83416 47768.8 Q 82726 47408.8 82246 46964.8 Q 81766 46520.8 81508 45938.8 Q 81250 45356.8 81250 44551.6 Q 81250 43711.6 81580 43057.6 Q 81910 42403.6 82510 41959.6 Q 83110 41515.6 83950 41287.6 Q 84790 41059.6 85822 41059.6 Q 86984.8 41059.6 87950.8 41311.6 Q 88916.8 41563.6 89780.8 41971.6 L 89023.6 43734.4 Q 88244.8 43387.6 87422.8 43129.6 Q 86600.8 42871.6 85750 42871.6 Q 84526 42871.6 83938 43273.6 Q 83350 43675.6 83350 44419.6 Q 83350 44838.4 83488 45150.4 Q 83626 45462.4 83962 45738.4 Q 84298 46014.4 84862 46296.4 Q 85426 46578.4 86266 46925.2 Q 87130 47285.2 87808 47645.2 Q 88486 48005.2 88966 48455.2 Q 89446 48905.2 89698 49481.2 Q 89950 50057.2 89950 50860 L 89947.6 50863.6 Z M 93257.6 54476.8 L 91073.6 54476.8 L 91073.6 41300.8 L 93257.6 41300.8 L 93257.6 54476.8 Z M 90905.6 37735.6 Q 90905.6 37015.6 91271.6 36691.6 Q 91637.6 36367.6 92176.4 36367.6 Q 92440.4 36367.6 92674.4 36445.6 Q 92908.4 36523.6 93082.4 36691.6 Q 93256.4 36859.6 93358.4 37117.6 Q 93460.4 37375.6 93460.4 37735.6 Q 93460.4 38431.6 93082.4 38773.6 Q 92704.4 39115.6 92176.4 39115.6 Q 91637.6 39115.6 91271.6 38779.6 Q 90905.6 38443.6 90905.6 37734.4 L 90905.6 37735.6 Z M 105475.2 41300.8 L 105475.2 42655.6 L 103112.4 42980.8 Q 103448.4 43399.6 103676.4 44053.6 Q 103904.4 44707.6 103904.4 45534.4 Q 103904.4 46446.4 103622.4 47220.4 Q 103340.4 47994.4 102770.4 48558.4 Q 102200.4 49122.4 101360.4 49440.4 Q 100520.4 49758.4 99403.2 49758.4 Q 99139.2 49758.4 98875.2 49752.4 Q 98611.2 49746.4 98443.2 49709.2 Q 98240.4 49829.2 98042.4 49979.2 Q 97844.4 50129.2 97682.4 50321.2 Q 97520.4 50513.2 97418.4 50753.2 Q 97316.4 50993.2 97316.4 51281.2 Q 97316.4 51604 97460.4 51802 Q 97604.4 52000 97850.4 52108 Q 98096.4 52216 98432.4 52252 Q 98768.4 52288 99139.2 52288 L 101251.2 52288 Q 102368.4 52288 103136.4 52570 Q 103904.4 52852 104390.4 53332 Q 104876.4 53812 105092.4 54466 Q 105308.4 55120 105308.4 55853.2 Q 105308.4 56909.2 104918.4 57749.2 Q 104528.4 58589.2 103724.4 59171.2 Q 102920.4 59753.2 101690.4 60065.2 Q 100460.4 60377.2 98793.6 60377.2 Q 97508.4 60377.2 96548.4 60125.2 Q 95588.4 59873.2 94952.4 59393.2 Q 94316.4 58913.2 93998.4 58235.2 Q 93680.4 57557.2 93680.4 56704 Q 93680.4 55984 93914.4 55438 Q 94148.4 54892 94544.4 54494.8 Q 94940.4 54097.6 95462.4 53845.6 Q 95984.4 53593.6 96547.2 53462.8 Q 96043.2 53233.6 95719.2 52741.6 Q 95395.2 52249.6 95395.2 51614.8 Q 95395.2 50881.6 95779.2 50347.6 Q 96163.2 49813.6 96992.4 49309.6 Q 96475.2 49093.6 96049.2 48715.6 Q 95623.2 48337.6 95329.2 47851.6 Q 95035.2 47365.6 94873.2 46789.6 Q 94711.2 46213.6 94711.2 45600.4 Q 94711.2 44533.6 95011.2 43693.6 Q 95311.2 42853.6 95899.2 42265.6 Q 96487.2 41677.6 97363.2 41365.6 Q 98239.2 41053.6 99402 41053.6 Q 99847.2 41053.6 100321.2 41119.6 Q 100795.2 41185.6 101120.4 41294.8 L 105475.2 41294.8 L 105475.2 41300.8 Z M 95744.4 56636.8 Q 95744.4 57082 95900.4 57466 Q 96056.4 57850 96410.4 58126 Q 96764.4 58402 97346.4 58564 Q 97928.4 58726 98792.4 58726 Q 101024.4 58726 102134.4 58036 Q 103244.4 57346 103244.4 56050 Q 103244.4 55498 103100.4 55150 Q 102956.4 54802 102626.4 54604 Q 102296.4 54406 101756.4 54334 Q 101216.4 54262 100435.2 54262 L 98323.2 54262 Q 97904.4 54262 97448.4 54358 Q 96992.4 54454 96614.4 54718 Q 96236.4 54982 95990.4 55444 Q 95744.4 55906 95744.4 56636.8  Z M 96848.4 45535.6 Q 96848.4 46916.8 97496.4 47588.8 Q 98144.4 48260.8 99331.2 48260.8 Q 100531.2 48260.8 101149.2 47594.8 Q 101767.2 46928.8 101767.2 45502 Q 101767.2 44024.8 101137.2 43328.8 Q 100507.2 42632.8 99307.2 42632.8 Q 98120.4 42632.8 97484.4 43352.8 Q 96848.4 44072.8 96848.4 45536.8 L 96848.4 45535.6 Z M 114153.6 54476.8 L 114153.6 45991.6 Q 114153.6 44431.6 113523.6 43651.6 Q 112893.6 42871.6 111549.6 42871.6 Q 110576.4 42871.6 109916.4 43183.6 Q 109256.4 43495.6 108854.4 44107.6 Q 108452.4 44719.6 108278.4 45607.6 Q 108104.4 46495.6 108104.4 47647.6 L 108104.4 54476.8 L 105920.4 54476.8 L 105920.4 41300.8 L 107696.4 41300.8 L 108008.4 43076.8 L 108128.4 43076.8 Q 108429.6 42559.6 108843.6 42181.6 Q 109257.6 41803.6 109749.6 41551.6 Q 110241.6 41299.6 110793.6 41179.6 Q 111345.6 41059.6 111921.6 41059.6 Q 114118.8 41059.6 115228.8 42205.6 Q 116338.8 43351.6 116338.8 45871.6 L 116338.8 54476.8 L 114154.8 54476.8 L 114153.6 54476.8 Z M 120496 54476.8 L 118312 54476.8 L 118312 41300.8 L 120496 41300.8 L 120496 54476.8 Z M 118144 37735.6 Q 118144 37015.6 118510 36691.6 Q 118876 36367.6 119414.8 36367.6 Q 119678.8 36367.6 119912.8 36445.6 Q 120146.8 36523.6 120320.8 36691.6 Q 120494.8 36859.6 120596.8 37117.6 Q 120698.8 37375.6 120698.8 37735.6 Q 120698.8 38431.6 120320.8 38773.6 Q 119942.8 39115.6 119414.8 39115.6 Q 118876 39115.6 118510 38779.6 Q 118144 38443.6 118144 37734.4 L 118144 37735.6 Z M 128286.8 42943.6 L 125345.6 42943.6 L 125345.6 54476.8 L 123150.8 54476.8 L 123150.8 42943.6 L 120822.8 42943.6 L 120822.8 42044.8 L 123150.8 41228.8 L 123150.8 40076.8 Q 123150.8 38791.6 123420.8 37945.6 Q 123690.8 37099.6 124200.8 36595.6 Q 124710.8 36091.6 125454.8 35881.6 Q 126198.8 35671.6 127134.8 35671.6 Q 127841.6 35671.6 128435.6 35809.6 Q 129029.6 35947.6 129496.4 36115.6 L 128933.6 37806.4 Q 128560.4 37675.6 128122.4 37573.6 Q 127684.4 37471.6 127204.4 37471.6 Q 126724.4 37471.6 126376.4 37585.6 Q 126028.4 37699.6 125800.4 37987.6 Q 125572.4 38275.6 125458.4 38773.6 Q 125344.4 39271.6 125344.4 40052.8 L 125344.4 41300.8 L 128285.6 41300.8 L 128285.6 42943.6 L 128286.8 42943.6 Z M 130736 54476.8 L 128552 54476.8 L 128552 41300.8 L 130736 41300.8 L 130736 54476.8 Z M 128384 37735.6 Q 128384 37015.6 128750 36691.6 Q 129116 36367.6 129654.8 36367.6 Q 129918.8 36367.6 130152.8 36445.6 Q 130386.8 36523.6 130560.8 36691.6 Q 130734.8 36859.6 130836.8 37117.6 Q 130938.8 37375.6 130938.8 37735.6 Q 130938.8 38431.6 130560.8 38773.6 Q 130182.8 39115.6 129654.8 39115.6 Q 129116 39115.6 128750 38779.6 Q 128384 38443.6 128384 37734.4 L 128384 37735.6 Z M 137841.6 54716.8 Q 136630.8 54716.8 135574.8 54338.8 Q 134518.8 53960.8 133738.8 53138.8 Q 132958.8 52316.8 132514.8 51038.8 Q 132070.8 49760.8 132070.8 47960.8 Q 132070.8 46078 132526.8 44764 Q 132982.8 43450 133780.8 42628 Q 134578.8 41806 135646.8 41434 Q 136714.8 41062 137938.8 41062 Q 138874.8 41062 139768.8 41266 Q 140662.8 41470 141262.8 41768.8 L 140614.8 43616.8 Q 140337.6 43496.8 140001.6 43382.8 Q 139665.6 43268.8 139305.6 43178.8 Q 138945.6 43088.8 138597.6 43034.8 Q 138249.6 42980.8 137937.6 42980.8 Q 136054.8 42980.8 135190.8 44186.8 Q 134326.8 45392.8 134326.8 47936.8 Q 134326.8 50470 135196.8 51640 Q 136066.8 52810 137842.8 52810 Q 138816 52810 139602 52588 Q 140388 52366 141036 52064.8 L 141036 54008.8 Q 140388 54358 139650 54538 Q 138912 54718 137842.8 54718 L 137841.6 54716.8 Z M 149549.2 54476.8 L 149104 52652.8 L 149008 52652.8 Q 148613.2 53191.6 148217.2 53581.6 Q 147821.2 53971.6 147353.2 54223.6 Q 146885.2 54475.6 146309.2 54595.6 Q 145733.2 54715.6 144976 54715.6 Q 144149.2 54715.6 143453.2 54481.6 Q 142757.2 54247.6 142247.2 53761.6 Q 141737.2 53275.6 141449.2 52537.6 Q 141161.2 51799.6 141161.2 50791.6 Q 141161.2 48823.6 142547.2 47767.6 Q 143933.2 46711.6 146765.2 46615.6 L 148973.2 46532.8 L 148973.2 45703.6 Q 148973.2 44900.8 148799.2 44360.8 Q 148625.2 43820.8 148295.2 43490.8 Q 147965.2 43160.8 147479.2 43016.8 Q 146993.2 42872.8 146369.2 42872.8 Q 145374.4 42872.8 144516.4 43160.8 Q 143658.4 43448.8 142866.4 43856.8 L 142098.4 42214 Q 142986.4 41734 144078.4 41398 Q 145170.4 41062 146370.4 41062 Q 147594.4 41062 148488.4 41308 Q 149382.4 41554 149964.4 42088 Q 150546.4 42622 150834.4 43450 Q 151122.4 44278 151122.4 45454 L 151122.4 54478 L 149551.6 54478 L 149549.2 54476.8 Z M 145541.2 52951.6 Q 146272 52951.6 146896 52723.6 Q 147520 52495.6 147976 52033.6 Q 148432 51571.6 148690 50869.6 Q 148948 50167.6 148948 49220.8 L 148948 48031.6 L 147230.8 48116.8 Q 146150.8 48164.8 145418.8 48356.8 Q 144686.8 48548.8 144248.8 48890.8 Q 143810.8 49232.8 143618.8 49718.8 Q 143426.8 50204.8 143426.8 50815.6 Q 143426.8 51919.6 144008.8 52435.6 Q 144590.8 52951.6 145540 52951.6 L 145541.2 52951.6 Z M 157009.6 52927.6 Q 157225.6 52927.6 157495.6 52903.6 Q 157765.6 52879.6 158017.6 52843.6 Q 158269.6 52807.6 158479.6 52759.6 Q 158689.6 52711.6 158798.8 52676.8 L 158798.8 54332.8 Q 158641.6 54404.8 158401.6 54476.8 Q 158161.6 54548.8 157873.6 54602.8 Q 157585.6 54656.8 157273.6 54686.8 Q 156961.6 54716.8 156662.8 54716.8 Q 155918.8 54716.8 155282.8 54524.8 Q 154646.8 54332.8 154184.8 53864.8 Q 153722.8 53396.8 153458.8 52598.8 Q 153194.8 51800.8 153194.8 50590 L 153194.8 42944.8 L 151336 42944.8 L 151336 41974 L 153194.8 41038 L 154130.8 38278 L 155392 38278 L 155392 41302 L 158704 41302 L 158704 42944.8 L 155392 42944.8 L 155392 50590 Q 155392 51752.8 155770 52340.8 Q 156148 52928.8 157012 52928.8 L 157009.6 52927.6 Z M 161456 54476.8 L 159272 54476.8 L 159272 41300.8 L 161456 41300.8 L 161456 54476.8 Z M 159104 37735.6 Q 159104 37015.6 159470 36691.6 Q 159836 36367.6 160374.8 36367.6 Q 160638.8 36367.6 160872.8 36445.6 Q 161106.8 36523.6 161280.8 36691.6 Q 161454.8 36859.6 161556.8 37117.6 Q 161658.8 37375.6 161658.8 37735.6 Q 161658.8 38431.6 161280.8 38773.6 Q 160902.8 39115.6 160374.8 39115.6 Q 159836 39115.6 159470 38779.6 Q 159104 38443.6 159104 37734.4 L 159104 37735.6 Z M 165934.8 54476.8 L 161433.6 41300.8 L 163689.6 41300.8 L 166078.8 48631.6 Q 166209.6 49028.8 166389.6 49652.8 Q 166569.6 50276.8 166749.6 50924.8 Q 166929.6 51572.8 167079.6 52148.8 Q 167229.6 52724.8 167277.6 53023.6 L 167360.4 53023.6 Q 167421.6 52724.8 167565.6 52148.8 Q 167709.6 51572.8 167889.6 50924.8 Q 168069.6 50276.8 168249.6 49652.8 Q 168429.6 49028.8 168560.4 48631.6 L 170949.6 41300.8 L 173205.6 41300.8 L 168704.4 54476.8 L 165933.6 54476.8 L 165934.8 54476.8 Z M 180627.6 54476.8 L 180182.4 52652.8 L 180086.4 52652.8 Q 179691.6 53191.6 179295.6 53581.6 Q 178899.6 53971.6 178431.6 54223.6 Q 177963.6 54475.6 177387.6 54595.6 Q 176811.6 54715.6 176054.4 54715.6 Q 175227.6 54715.6 174531.6 54481.6 Q 173835.6 54247.6 173325.6 53761.6 Q 172815.6 53275.6 172527.6 52537.6 Q 172239.6 51799.6 172239.6 50791.6 Q 172239.6 48823.6 173625.6 47767.6 Q 175011.6 46711.6 177843.6 46615.6 L 180051.6 46532.8 L 180051.6 45703.6 Q 180051.6 44900.8 179877.6 44360.8 Q 179703.6 43820.8 179373.6 43490.8 Q 179043.6 43160.8 178557.6 43016.8 Q 178071.6 42872.8 177447.6 42872.8 Q 176452.8 42872.8 175594.8 43160.8 Q 174736.8 43448.8 173944.8 43856.8 L 173176.8 42214 Q 174064.8 41734 175156.8 41398 Q 176248.8 41062 177448.8 41062 Q 178672.8 41062 179566.8 41308 Q 180460.8 41554 181042.8 42088 Q 181624.8 42622 181912.8 43450 Q 182200.8 44278 182200.8 45454 L 182200.8 54478 L 180630 54478 L 180627.6 54476.8 Z M 176619.6 52951.6 Q 177350.4 52951.6 177974.4 52723.6 Q 178598.4 52495.6 179054.4 52033.6 Q 179510.4 51571.6 179768.4 50869.6 Q 180026.4 50167.6 180026.4 49220.8 L 180026.4 48031.6 L 178309.2 48116.8 Q 177229.2 48164.8 176497.2 48356.8 Q 175765.2 48548.8 175327.2 48890.8 Q 174889.2 49232.8 174697.2 49718.8 Q 174505.2 50204.8 174505.2 50815.6 Q 174505.2 51919.6 175087.2 52435.6 Q 175669.2 52951.6 176618.4 52951.6 L 176619.6 52951.6 Z M 191989.2 50863.6 Q 191989.2 51823.6 191641.2 52543.6 Q 191293.2 53263.6 190639.2 53749.6 Q 189985.2 54235.6 189061.2 54475.6 Q 188137.2 54715.6 186985.2 54715.6 Q 185678.4 54715.6 184742.4 54505.6 Q 183806.4 54295.6 183097.2 53887.6 L 183097.2 51895.6 Q 183470.4 52087.6 183926.4 52273.6 Q 184382.4 52459.6 184886.4 52603.6 Q 185390.4 52747.6 185924.4 52837.6 Q 186458.4 52927.6 186986.4 52927.6 Q 187767.6 52927.6 188313.6 52795.6 Q 188859.6 52663.6 189201.6 52417.6 Q 189543.6 52171.6 189699.6 51817.6 Q 189855.6 51463.6 189855.6 51031.6 Q 189855.6 50660.8 189735.6 50360.8 Q 189615.6 50060.8 189297.6 49766.8 Q 188979.6 49472.8 188427.6 49172.8 Q 187875.6 48872.8 187011.6 48502 Q 186147.6 48128.8 185457.6 47768.8 Q 184767.6 47408.8 184287.6 46964.8 Q 183807.6 46520.8 183549.6 45938.8 Q 183291.6 45356.8 183291.6 44551.6 Q 183291.6 43711.6 183621.6 43057.6 Q 183951.6 42403.6 184551.6 41959.6 Q 185151.6 41515.6 185991.6 41287.6 Q 186831.6 41059.6 187863.6 41059.6 Q 189026.4 41059.6 189992.4 41311.6 Q 190958.4 41563.6 191822.4 41971.6 L 191065.2 43734.4 Q 190286.4 43387.6 189464.4 43129.6 Q 188642.4 42871.6 187791.6 42871.6 Q 186567.6 42871.6 185979.6 43273.6 Q 185391.6 43675.6 185391.6 44419.6 Q 185391.6 44838.4 185529.6 45150.4 Q 185667.6 45462.4 186003.6 45738.4 Q 186339.6 46014.4 186903.6 46296.4 Q 187467.6 46578.4 188307.6 46925.2 Q 189171.6 47285.2 189849.6 47645.2 Q 190527.6 48005.2 191007.6 48455.2 Q 191487.6 48905.2 191739.6 49481.2 Q 191991.6 50057.2 191991.6 50860 L 191989.2 50863.6 Z " fill-rule="nonzero" style="fill:#d8d8d8;;fill-opacity:1;"/>
</svg>