<svg version="1.1" x="0" y="0" width="100%" height="100%" viewBox="0 0 256512 62361.6" xmlns="http://www.w3.org/2000/svg">
  <path d="M 37083.6 24832 L 35163.6 19394.8 L 28622.4 19394.8 L 26678.4 24832 L 24422.4 24832 L 30867.6 7216 L 32907.6 7216 L 39363.6 24832 L 37083.6 24832 Z M 34454.4 17416 L 32678.4 12328 Q 32606.4 12112 32504.4 11800 Q 32402.4 11488 32294.4 11128 Q 32186.4 10768 32078.4 10378 Q 31970.4 9988 31874.4 9617.2 Q 31789.2 9988 31681.2 10384 Q 31573.2 10780 31465.2 11146 Q 31357.2 11512 31255.2 11818 Q 31153.2 12124 31081.2 12329.2 L 29340 17417.2 L 34452 17417.2 L 34454.4 17416 Z M 45313.6 25072 Q 44606.8 25072 44030.8 24916 Q 43454.8 24760 42992.8 24502 Q 42530.8 24244 42176.8 23896 Q 41822.8 23548 41545.6 23164 L 41401.6 23164 Q 41438.8 23572 41473.6 23945.2 Q 41497.6 24257.2 41521.6 24587.2 Q 41545.6 24917.2 41545.6 25109.2 L 41545.6 30736 L 39361.6 30736 L 39361.6 11656 L 41137.6 11656 L 41449.6 13432 L 41545.6 13432 Q 41822.8 13010.8 42170.8 12644.8 Q 42518.8 12278.8 42980.8 12008.8 Q 43442.8 11738.8 44018.8 11576.8 Q 44594.8 11414.8 45314.8 11414.8 Q 46442.8 11414.8 47366.8 11846.8 Q 48290.8 12278.8 48944.8 13136.8 Q 49598.8 13994.8 49958.8 15266.8 Q 50318.8 16538.8 50318.8 18218.8 Q 50318.8 19912 49958.8 21190 Q 49598.8 22468 48944.8 23332 Q 48290.8 24196 47366.8 24634 Q 46442.8 25072 45314.8 25072 L 45313.6 25072 Z M 44894.8 13226.8 Q 43982.8 13226.8 43352.8 13502.8 Q 42722.8 13778.8 42332.8 14342.8 Q 41942.8 14906.8 41756.8 15746.8 Q 41570.8 16586.8 41546.8 17728 L 41546.8 18218.8 Q 41546.8 19432 41708.8 20374 Q 41870.8 21316 42260.8 21958 Q 42650.8 22600 43298.8 22930 Q 43946.8 23260 44920 23260 Q 46538.8 23260 47300.8 21952 Q 48062.8 20644 48062.8 18196 Q 48062.8 15700 47300.8 14464 Q 46538.8 13228 44896 13228 L 44894.8 13226.8 Z M 57453.2 11416 Q 57800 11416 58232 11446 Q 58664 11476 58976 11537.2 L 58688 13553.2 Q 58352 13492 57998 13450 Q 57644 13408 57332 13408 Q 56574.8 13408 55950.8 13714 Q 55326.8 14020 54876.8 14590 Q 54426.8 15160 54180.8 15958 Q 53934.8 16756 53934.8 17729.2 L 53934.8 24833.2 L 51750.8 24833.2 L 51750.8 11657.2 L 53526.8 11657.2 L 53790.8 14068 L 53886.8 14068 Q 54188 13553.2 54530 13073.2 Q 54872 12593.2 55298 12227.2 Q 55724 11861.2 56252 11639.2 Q 56780 11417.2 57452 11417.2 L 57453.2 11416 Z M 64742.4 25072 Q 63422.4 25072 62330.4 24628 Q 61238.4 24184 60452.4 23332 Q 59666.4 22480 59234.4 21220 Q 58802.4 19960 58802.4 18338.8 Q 58802.4 16706.8 59198.4 15422.8 Q 59594.4 14138.8 60314.4 13244.8 Q 61034.4 12350.8 62036.4 11882.8 Q 63038.4 11414.8 64251.6 11414.8 Q 65438.4 11414.8 66386.4 11840.8 Q 67334.4 12266.8 67994.4 13040.8 Q 68654.4 13814.8 69008.4 14900.8 Q 69362.4 15986.8 69362.4 17306.8 L 69362.4 18664 L 61058.4 18664 Q 61117.2 20978.8 62035.2 22070.8 Q 62953.2 23162.8 64764 23162.8 Q 65377.2 23162.8 65899.2 23102.8 Q 66421.2 23042.8 66907.2 22928.8 Q 67393.2 22814.8 67849.2 22640.8 Q 68305.2 22466.8 68772 22250.8 L 68772 24194.8 Q 68292 24424 67830 24592 Q 67368 24760 66882 24868 Q 66396 24976 65874 25024 Q 65352 25072 64738.8 25072 L 64742.4 25072 Z M 64203.6 13226.8 Q 62835.6 13226.8 62037.6 14162.8 Q 61239.6 15098.8 61108.8 16888 L 67012.8 16888 Q 67012.8 16072 66850.8 15394 Q 66688.8 14716 66346.8 14236 Q 66004.8 13756 65476.8 13492 Q 64948.8 13228 64204.8 13228 L 64203.6 13226.8 Z M 78774.4 24832 L 78774.4 16346.8 Q 78774.4 14786.8 78144.4 14006.8 Q 77514.4 13226.8 76170.4 13226.8 Q 75197.2 13226.8 74537.2 13538.8 Q 73877.2 13850.8 73475.2 14462.8 Q 73073.2 15074.8 72899.2 15962.8 Q 72725.2 16850.8 72725.2 18002.8 L 72725.2 24832 L 70541.2 24832 L 70541.2 11656 L 72317.2 11656 L 72629.2 13432 L 72749.2 13432 Q 73050.4 12914.8 73464.4 12536.8 Q 73878.4 12158.8 74370.4 11906.8 Q 74862.4 11654.8 75414.4 11534.8 Q 75966.4 11414.8 76542.4 11414.8 Q 78739.6 11414.8 79849.6 12560.8 Q 80959.6 13706.8 80959.6 16226.8 L 80959.6 24832 L 78775.6 24832 L 78774.4 24832 Z M 91068.8 23066.8 L 90972.8 23066.8 Q 90708.8 23474.8 90354.8 23840.8 Q 90000.8 24206.8 89538.8 24482.8 Q 89076.8 24758.8 88500.8 24914.8 Q 87924.8 25070.8 87204.8 25070.8 Q 86090 25070.8 85166 24638.8 Q 84242 24206.8 83582 23348.8 Q 82922 22490.8 82562 21218.8 Q 82202 19946.8 82202 18266.8 Q 82202 16576 82562 15298 Q 82922 14020 83582 13156 Q 84242 12292 85166 11854 Q 86090 11416 87204.8 11416 Q 87914 11416 88490 11572 Q 89066 11728 89528 11992 Q 89990 12256 90350 12604 Q 90710 12952 90974 13336 L 91118 13336 Q 91083.2 12928 91046 12554.8 Q 91022 12242.8 90998 11912.8 Q 90974 11582.8 90974 11390.8 L 90974 6158.8 L 93158 6158.8 L 93158 24830.8 L 91395.2 24830.8 L 91070 23065.6 L 91068.8 23066.8 Z M 87626 23258.8 Q 88538 23258.8 89168 22982.8 Q 89798 22706.8 90188 22142.8 Q 90578 21578.8 90764 20732.8 Q 90950 19886.8 90974 18758.8 L 90974 18265.6 Q 90974 17054.8 90812 16112.8 Q 90650 15170.8 90260 14528.8 Q 89870 13886.8 89222 13556.8 Q 88574 13226.8 87603.2 13226.8 Q 85982 13226.8 85220 14534.8 Q 84458 15842.8 84458 18290.8 Q 84458 20800 85220 22030 Q 85982 23260 87627.2 23260 L 87626 23258.8 Z M 100531.2 25072 Q 99211.2 25072 98119.2 24628 Q 97027.2 24184 96241.2 23332 Q 95455.2 22480 95023.2 21220 Q 94591.2 19960 94591.2 18338.8 Q 94591.2 16706.8 94987.2 15422.8 Q 95383.2 14138.8 96103.2 13244.8 Q 96823.2 12350.8 97825.2 11882.8 Q 98827.2 11414.8 100040.4 11414.8 Q 101227.2 11414.8 102175.2 11840.8 Q 103123.2 12266.8 103783.2 13040.8 Q 104443.2 13814.8 104797.2 14900.8 Q 105151.2 15986.8 105151.2 17306.8 L 105151.2 18664 L 96847.2 18664 Q 96906 20978.8 97824 22070.8 Q 98742 23162.8 100552.8 23162.8 Q 101166 23162.8 101688 23102.8 Q 102210 23042.8 102696 22928.8 Q 103182 22814.8 103638 22640.8 Q 104094 22466.8 104560.8 22250.8 L 104560.8 24194.8 Q 104080.8 24424 103618.8 24592 Q 103156.8 24760 102670.8 24868 Q 102184.8 24976 101662.8 25024 Q 101140.8 25072 100527.6 25072 L 100531.2 25072 Z M 99992.4 13226.8 Q 98624.4 13226.8 97826.4 14162.8 Q 97028.4 15098.8 96897.6 16888 L 102801.6 16888 Q 102801.6 16072 102639.6 15394 Q 102477.6 14716 102135.6 14236 Q 101793.6 13756 101265.6 13492 Q 100737.6 13228 99993.6 13228 L 99992.4 13226.8 Z M 115620.8 25072 Q 114410 25072 113354 24694 Q 112298 24316 111518 23494 Q 110738 22672 110294 21394 Q 109850 20116 109850 18316 Q 109850 16433.2 110306 15119.2 Q 110762 13805.2 111560 12983.2 Q 112358 12161.2 113426 11789.2 Q 114494 11417.2 115718 11417.2 Q 116654 11417.2 117548 11621.2 Q 118442 11825.2 119042 12124 L 118394 13972 Q 118116.8 13852 117780.8 13738 Q 117444.8 13624 117084.8 13534 Q 116724.8 13444 116376.8 13390 Q 116028.8 13336 115716.8 13336 Q 113834 13336 112970 14542 Q 112106 15748 112106 18292 Q 112106 20825.2 112976 21995.2 Q 113846 23165.2 115622 23165.2 Q 116595.2 23165.2 117381.2 22943.2 Q 118167.2 22721.2 118815.2 22420 L 118815.2 24364 Q 118167.2 24713.2 117429.2 24893.2 Q 116691.2 25073.2 115622 25073.2 L 115620.8 25072 Z M 130640.4 18218.8 Q 130640.4 19864 130238.4 21142 Q 129836.4 22420 129086.4 23290 Q 128336.4 24160 127268.4 24616 Q 126200.4 25072 124867.2 25072 Q 123632.4 25072 122588.4 24616 Q 121544.4 24160 120782.4 23290 Q 120020.4 22420 119594.4 21142 Q 119168.4 19864 119168.4 18218.8 Q 119168.4 16586.8 119570.4 15320.8 Q 119972.4 14054.8 120716.4 13184.8 Q 121460.4 12314.8 122534.4 11864.8 Q 123608.4 11414.8 124939.2 11414.8 Q 126176.4 11414.8 127220.4 11864.8 Q 128264.4 12314.8 129026.4 13184.8 Q 129788.4 14054.8 130214.4 15320.8 Q 130640.4 16586.8 130640.4 18218.8  Z M 121424.4 18218.8 Q 121424.4 20728 122246.4 21994 Q 123068.4 23260 124916.4 23260 Q 126764.4 23260 127574.4 21994 Q 128384.4 20728 128384.4 18218.8 Q 128384.4 15712 127562.4 14470 Q 126740.4 13228 124892.4 13228 Q 123044.4 13228 122234.4 14470 Q 121424.4 15712 121424.4 18218.8  Z M 140265.6 24832 L 140265.6 16346.8 Q 140265.6 14786.8 139635.6 14006.8 Q 139005.6 13226.8 137661.6 13226.8 Q 136688.4 13226.8 136028.4 13538.8 Q 135368.4 13850.8 134966.4 14462.8 Q 134564.4 15074.8 134390.4 15962.8 Q 134216.4 16850.8 134216.4 18002.8 L 134216.4 24832 L 132032.4 24832 L 132032.4 11656 L 133808.4 11656 L 134120.4 13432 L 134240.4 13432 Q 134541.6 12914.8 134955.6 12536.8 Q 135369.6 12158.8 135861.6 11906.8 Q 136353.6 11654.8 136905.6 11534.8 Q 137457.6 11414.8 138033.6 11414.8 Q 140230.8 11414.8 141340.8 12560.8 Q 142450.8 13706.8 142450.8 16226.8 L 142450.8 24832 L 140266.8 24832 L 140265.6 24832 Z M 154625.6 25072 Q 153918.8 25072 153342.8 24916 Q 152766.8 24760 152304.8 24502 Q 151842.8 24244 151488.8 23896 Q 151134.8 23548 150857.6 23164 L 150713.6 23164 Q 150750.8 23572 150785.6 23945.2 Q 150809.6 24257.2 150833.6 24587.2 Q 150857.6 24917.2 150857.6 25109.2 L 150857.6 30736 L 148673.6 30736 L 148673.6 11656 L 150449.6 11656 L 150761.6 13432 L 150857.6 13432 Q 151134.8 13010.8 151482.8 12644.8 Q 151830.8 12278.8 152292.8 12008.8 Q 152754.8 11738.8 153330.8 11576.8 Q 153906.8 11414.8 154626.8 11414.8 Q 155754.8 11414.8 156678.8 11846.8 Q 157602.8 12278.8 158256.8 13136.8 Q 158910.8 13994.8 159270.8 15266.8 Q 159630.8 16538.8 159630.8 18218.8 Q 159630.8 19912 159270.8 21190 Q 158910.8 22468 158256.8 23332 Q 157602.8 24196 156678.8 24634 Q 155754.8 25072 154626.8 25072 L 154625.6 25072 Z M 154206.8 13226.8 Q 153294.8 13226.8 152664.8 13502.8 Q 152034.8 13778.8 151644.8 14342.8 Q 151254.8 14906.8 151068.8 15746.8 Q 150882.8 16586.8 150858.8 17728 L 150858.8 18218.8 Q 150858.8 19432 151020.8 20374 Q 151182.8 21316 151572.8 21958 Q 151962.8 22600 152610.8 22930 Q 153258.8 23260 154232 23260 Q 155850.8 23260 156612.8 21952 Q 157374.8 20644 157374.8 18196 Q 157374.8 15700 156612.8 14464 Q 155850.8 13228 154208 13228 L 154206.8 13226.8 Z M 171805.2 18218.8 Q 171805.2 19864 171403.2 21142 Q 171001.2 22420 170251.2 23290 Q 169501.2 24160 168433.2 24616 Q 167365.2 25072 166032 25072 Q 164797.2 25072 163753.2 24616 Q 162709.2 24160 161947.2 23290 Q 161185.2 22420 160759.2 21142 Q 160333.2 19864 160333.2 18218.8 Q 160333.2 16586.8 160735.2 15320.8 Q 161137.2 14054.8 161881.2 13184.8 Q 162625.2 12314.8 163699.2 11864.8 Q 164773.2 11414.8 166104 11414.8 Q 167341.2 11414.8 168385.2 11864.8 Q 169429.2 12314.8 170191.2 13184.8 Q 170953.2 14054.8 171379.2 15320.8 Q 171805.2 16586.8 171805.2 18218.8  Z M 162589.2 18218.8 Q 162589.2 20728 163411.2 21994 Q 164233.2 23260 166081.2 23260 Q 167929.2 23260 168739.2 21994 Q 169549.2 20728 169549.2 18218.8 Q 169549.2 15712 168727.2 14470 Q 167905.2 13228 166057.2 13228 Q 164209.2 13228 163399.2 14470 Q 162589.2 15712 162589.2 18218.8  Z M 181334.4 23066.8 L 181238.4 23066.8 Q 180974.4 23474.8 180620.4 23840.8 Q 180266.4 24206.8 179804.4 24482.8 Q 179342.4 24758.8 178766.4 24914.8 Q 178190.4 25070.8 177470.4 25070.8 Q 176355.6 25070.8 175431.6 24638.8 Q 174507.6 24206.8 173847.6 23348.8 Q 173187.6 22490.8 172827.6 21218.8 Q 172467.6 19946.8 172467.6 18266.8 Q 172467.6 16576 172827.6 15298 Q 173187.6 14020 173847.6 13156 Q 174507.6 12292 175431.6 11854 Q 176355.6 11416 177470.4 11416 Q 178179.6 11416 178755.6 11572 Q 179331.6 11728 179793.6 11992 Q 180255.6 12256 180615.6 12604 Q 180975.6 12952 181239.6 13336 L 181383.6 13336 Q 181348.8 12928 181311.6 12554.8 Q 181287.6 12242.8 181263.6 11912.8 Q 181239.6 11582.8 181239.6 11390.8 L 181239.6 6158.8 L 183423.6 6158.8 L 183423.6 24830.8 L 181660.8 24830.8 L 181335.6 23065.6 L 181334.4 23066.8 Z M 177891.6 23258.8 Q 178803.6 23258.8 179433.6 22982.8 Q 180063.6 22706.8 180453.6 22142.8 Q 180843.6 21578.8 181029.6 20732.8 Q 181215.6 19886.8 181239.6 18758.8 L 181239.6 18265.6 Q 181239.6 17054.8 181077.6 16112.8 Q 180915.6 15170.8 180525.6 14528.8 Q 180135.6 13886.8 179487.6 13556.8 Q 178839.6 13226.8 177868.8 13226.8 Q 176247.6 13226.8 175485.6 14534.8 Q 174723.6 15842.8 174723.6 18290.8 Q 174723.6 20800 175485.6 22030 Q 176247.6 23260 177892.8 23260 L 177891.6 23258.8 Z M 190628.8 25072 Q 189418 25072 188362 24694 Q 187306 24316 186526 23494 Q 185746 22672 185302 21394 Q 184858 20116 184858 18316 Q 184858 16433.2 185314 15119.2 Q 185770 13805.2 186568 12983.2 Q 187366 12161.2 188434 11789.2 Q 189502 11417.2 190726 11417.2 Q 191662 11417.2 192556 11621.2 Q 193450 11825.2 194050 12124 L 193402 13972 Q 193124.8 13852 192788.8 13738 Q 192452.8 13624 192092.8 13534 Q 191732.8 13444 191384.8 13390 Q 191036.8 13336 190724.8 13336 Q 188842 13336 187978 14542 Q 187114 15748 187114 18292 Q 187114 20825.2 187984 21995.2 Q 188854 23165.2 190630 23165.2 Q 191603.2 23165.2 192389.2 22943.2 Q 193175.2 22721.2 193823.2 22420 L 193823.2 24364 Q 193175.2 24713.2 192437.2 24893.2 Q 191699.2 25073.2 190630 25073.2 L 190628.8 25072 Z M 202336.4 24832 L 201891.2 23008 L 201795.2 23008 Q 201400.4 23546.8 201004.4 23936.8 Q 200608.4 24326.8 200140.4 24578.8 Q 199672.4 24830.8 199096.4 24950.8 Q 198520.4 25070.8 197763.2 25070.8 Q 196936.4 25070.8 196240.4 24836.8 Q 195544.4 24602.8 195034.4 24116.8 Q 194524.4 23630.8 194236.4 22892.8 Q 193948.4 22154.8 193948.4 21146.8 Q 193948.4 19178.8 195334.4 18122.8 Q 196720.4 17066.8 199552.4 16970.8 L 201760.4 16888 L 201760.4 16058.8 Q 201760.4 15256 201586.4 14716 Q 201412.4 14176 201082.4 13846 Q 200752.4 13516 200266.4 13372 Q 199780.4 13228 199156.4 13228 Q 198161.6 13228 197303.6 13516 Q 196445.6 13804 195653.6 14212 L 194885.6 12569.2 Q 195773.6 12089.2 196865.6 11753.2 Q 197957.6 11417.2 199157.6 11417.2 Q 200381.6 11417.2 201275.6 11663.2 Q 202169.6 11909.2 202751.6 12443.2 Q 203333.6 12977.2 203621.6 13805.2 Q 203909.6 14633.2 203909.6 15809.2 L 203909.6 24833.2 L 202338.8 24833.2 L 202336.4 24832 Z M 198328.4 23306.8 Q 199059.2 23306.8 199683.2 23078.8 Q 200307.2 22850.8 200763.2 22388.8 Q 201219.2 21926.8 201477.2 21224.8 Q 201735.2 20522.8 201735.2 19576 L 201735.2 18386.8 L 200018 18472 Q 198938 18520 198206 18712 Q 197474 18904 197036 19246 Q 196598 19588 196406 20074 Q 196214 20560 196214 21170.8 Q 196214 22274.8 196796 22790.8 Q 197378 23306.8 198327.2 23306.8 L 198328.4 23306.8 Z M 213698 21218.8 Q 213698 22178.8 213350 22898.8 Q 213002 23618.8 212348 24104.8 Q 211694 24590.8 210770 24830.8 Q 209846 25070.8 208694 25070.8 Q 207387.2 25070.8 206451.2 24860.8 Q 205515.2 24650.8 204806 24242.8 L 204806 22250.8 Q 205179.2 22442.8 205635.2 22628.8 Q 206091.2 22814.8 206595.2 22958.8 Q 207099.2 23102.8 207633.2 23192.8 Q 208167.2 23282.8 208695.2 23282.8 Q 209476.4 23282.8 210022.4 23150.8 Q 210568.4 23018.8 210910.4 22772.8 Q 211252.4 22526.8 211408.4 22172.8 Q 211564.4 21818.8 211564.4 21386.8 Q 211564.4 21016 211444.4 20716 Q 211324.4 20416 211006.4 20122 Q 210688.4 19828 210136.4 19528 Q 209584.4 19228 208720.4 18857.2 Q 207856.4 18484 207166.4 18124 Q 206476.4 17764 205996.4 17320 Q 205516.4 16876 205258.4 16294 Q 205000.4 15712 205000.4 14906.8 Q 205000.4 14066.8 205330.4 13412.8 Q 205660.4 12758.8 206260.4 12314.8 Q 206860.4 11870.8 207700.4 11642.8 Q 208540.4 11414.8 209572.4 11414.8 Q 210735.2 11414.8 211701.2 11666.8 Q 212667.2 11918.8 213531.2 12326.8 L 212774 14089.6 Q 211995.2 13742.8 211173.2 13484.8 Q 210351.2 13226.8 209500.4 13226.8 Q 208276.4 13226.8 207688.4 13628.8 Q 207100.4 14030.8 207100.4 14774.8 Q 207100.4 15193.6 207238.4 15505.6 Q 207376.4 15817.6 207712.4 16093.6 Q 208048.4 16369.6 208612.4 16651.6 Q 209176.4 16933.6 210016.4 17280.4 Q 210880.4 17640.4 211558.4 18000.4 Q 212236.4 18360.4 212716.4 18810.4 Q 213196.4 19260.4 213448.4 19836.4 Q 213700.4 20412.4 213700.4 21215.2 L 213698 21218.8 Z M 218808 23282.8 Q 219024 23282.8 219294 23258.8 Q 219564 23234.8 219816 23198.8 Q 220068 23162.8 220278 23114.8 Q 220488 23066.8 220597.2 23032 L 220597.2 24688 Q 220440 24760 220200 24832 Q 219960 24904 219672 24958 Q 219384 25012 219072 25042 Q 218760 25072 218461.2 25072 Q 217717.2 25072 217081.2 24880 Q 216445.2 24688 215983.2 24220 Q 215521.2 23752 215257.2 22954 Q 214993.2 22156 214993.2 20945.2 L 214993.2 13300 L 213134.4 13300 L 213134.4 12329.2 L 214993.2 11393.2 L 215929.2 8633.2 L 217190.4 8633.2 L 217190.4 11657.2 L 220502.4 11657.2 L 220502.4 13300 L 217190.4 13300 L 217190.4 20945.2 Q 217190.4 22108 217568.4 22696 Q 217946.4 23284 218810.4 23284 L 218808 23282.8 Z M 228955.6 21218.8 Q 228955.6 22178.8 228607.6 22898.8 Q 228259.6 23618.8 227605.6 24104.8 Q 226951.6 24590.8 226027.6 24830.8 Q 225103.6 25070.8 223951.6 25070.8 Q 222644.8 25070.8 221708.8 24860.8 Q 220772.8 24650.8 220063.6 24242.8 L 220063.6 22250.8 Q 220436.8 22442.8 220892.8 22628.8 Q 221348.8 22814.8 221852.8 22958.8 Q 222356.8 23102.8 222890.8 23192.8 Q 223424.8 23282.8 223952.8 23282.8 Q 224734 23282.8 225280 23150.8 Q 225826 23018.8 226168 22772.8 Q 226510 22526.8 226666 22172.8 Q 226822 21818.8 226822 21386.8 Q 226822 21016 226702 20716 Q 226582 20416 226264 20122 Q 225946 19828 225394 19528 Q 224842 19228 223978 18857.2 Q 223114 18484 222424 18124 Q 221734 17764 221254 17320 Q 220774 16876 220516 16294 Q 220258 15712 220258 14906.8 Q 220258 14066.8 220588 13412.8 Q 220918 12758.8 221518 12314.8 Q 222118 11870.8 222958 11642.8 Q 223798 11414.8 224830 11414.8 Q 225992.8 11414.8 226958.8 11666.8 Q 227924.8 11918.8 228788.8 12326.8 L 228031.6 14089.6 Q 227252.8 13742.8 226430.8 13484.8 Q 225608.8 13226.8 224758 13226.8 Q 223534 13226.8 222946 13628.8 Q 222358 14030.8 222358 14774.8 Q 222358 15193.6 222496 15505.6 Q 222634 15817.6 222970 16093.6 Q 223306 16369.6 223870 16651.6 Q 224434 16933.6 225274 17280.4 Q 226138 17640.4 226816 18000.4 Q 227494 18360.4 227974 18810.4 Q 228454 19260.4 228706 19836.4 Q 228958 20412.4 228958 21215.2 L 228955.6 21218.8 Z M 232337.6 21976 L 232518.8 22250.8 Q 232350.8 22898.8 232116.8 23630.8 Q 231882.8 24362.8 231600.8 25108 Q 231318.8 25853.2 231012.8 26591.2 Q 230706.8 27329.2 230408 28001.2 L 228752 28001.2 Q 228930.8 27270.4 229104.8 26478.4 Q 229278.8 25686.4 229440.8 24900.4 Q 229602.8 24114.4 229734.8 23364.4 Q 229866.8 22614.4 229962.8 21979.6 L 232338.8 21979.6 L 232337.6 21976 Z M 52627.6 54476.8 L 52182.4 52652.8 L 52086.4 52652.8 Q 51691.6 53191.6 51295.6 53581.6 Q 50899.6 53971.6 50431.6 54223.6 Q 49963.6 54475.6 49387.6 54595.6 Q 48811.6 54715.6 48054.4 54715.6 Q 47227.6 54715.6 46531.6 54481.6 Q 45835.6 54247.6 45325.6 53761.6 Q 44815.6 53275.6 44527.6 52537.6 Q 44239.6 51799.6 44239.6 50791.6 Q 44239.6 48823.6 45625.6 47767.6 Q 47011.6 46711.6 49843.6 46615.6 L 52051.6 46532.8 L 52051.6 45703.6 Q 52051.6 44900.8 51877.6 44360.8 Q 51703.6 43820.8 51373.6 43490.8 Q 51043.6 43160.8 50557.6 43016.8 Q 50071.6 42872.8 49447.6 42872.8 Q 48452.8 42872.8 47594.8 43160.8 Q 46736.8 43448.8 45944.8 43856.8 L 45176.8 42214 Q 46064.8 41734 47156.8 41398 Q 48248.8 41062 49448.8 41062 Q 50672.8 41062 51566.8 41308 Q 52460.8 41554 53042.8 42088 Q 53624.8 42622 53912.8 43450 Q 54200.8 44278 54200.8 45454 L 54200.8 54478 L 52630 54478 L 52627.6 54476.8 Z M 48619.6 52951.6 Q 49350.4 52951.6 49974.4 52723.6 Q 50598.4 52495.6 51054.4 52033.6 Q 51510.4 51571.6 51768.4 50869.6 Q 52026.4 50167.6 52026.4 49220.8 L 52026.4 48031.6 L 50309.2 48116.8 Q 49229.2 48164.8 48497.2 48356.8 Q 47765.2 48548.8 47327.2 48890.8 Q 46889.2 49232.8 46697.2 49718.8 Q 46505.2 50204.8 46505.2 50815.6 Q 46505.2 51919.6 47087.2 52435.6 Q 47669.2 52951.6 48618.4 52951.6 L 48619.6 52951.6 Z M 64637.2 54476.8 L 64312 52711.6 L 64192 52711.6 Q 63893.2 53228.8 63479.2 53606.8 Q 63065.2 53984.8 62573.2 54230.8 Q 62081.2 54476.8 61529.2 54596.8 Q 60977.2 54716.8 60401.2 54716.8 Q 59310.4 54716.8 58482.4 54440.8 Q 57654.4 54164.8 57102.4 53576.8 Q 56550.4 52988.8 56268.4 52076.8 Q 55986.4 51164.8 55986.4 49903.6 L 55986.4 41300.8 L 58170.4 41300.8 L 58170.4 49783.6 Q 58170.4 51343.6 58806.4 52123.6 Q 59442.4 52903.6 60775.6 52903.6 Q 61746.4 52903.6 62406.4 52591.6 Q 63066.4 52279.6 63468.4 51673.6 Q 63870.4 51067.6 64044.4 50179.6 Q 64218.4 49291.6 64218.4 48139.6 L 64218.4 41299.6 L 66402.4 41299.6 L 66402.4 54475.6 L 64639.6 54475.6 L 64637.2 54476.8 Z M 76630.4 52711.6 L 76534.4 52711.6 Q 76270.4 53119.6 75916.4 53485.6 Q 75562.4 53851.6 75100.4 54127.6 Q 74638.4 54403.6 74062.4 54559.6 Q 73486.4 54715.6 72766.4 54715.6 Q 71651.6 54715.6 70727.6 54283.6 Q 69803.6 53851.6 69143.6 52993.6 Q 68483.6 52135.6 68123.6 50863.6 Q 67763.6 49591.6 67763.6 47911.6 Q 67763.6 46220.8 68123.6 44942.8 Q 68483.6 43664.8 69143.6 42800.8 Q 69803.6 41936.8 70727.6 41498.8 Q 71651.6 41060.8 72766.4 41060.8 Q 73475.6 41060.8 74051.6 41216.8 Q 74627.6 41372.8 75089.6 41636.8 Q 75551.6 41900.8 75911.6 42248.8 Q 76271.6 42596.8 76535.6 42980.8 L 76679.6 42980.8 Q 76644.8 42572.8 76607.6 42199.6 Q 76583.6 41887.6 76559.6 41557.6 Q 76535.6 41227.6 76535.6 41035.6 L 76535.6 35803.6 L 78719.6 35803.6 L 78719.6 54475.6 L 76956.8 54475.6 L 76631.6 52710.4 L 76630.4 52711.6 Z M 73187.6 52903.6 Q 74099.6 52903.6 74729.6 52627.6 Q 75359.6 52351.6 75749.6 51787.6 Q 76139.6 51223.6 76325.6 50377.6 Q 76511.6 49531.6 76535.6 48403.6 L 76535.6 47910.4 Q 76535.6 46699.6 76373.6 45757.6 Q 76211.6 44815.6 75821.6 44173.6 Q 75431.6 43531.6 74783.6 43201.6 Q 74135.6 42871.6 73164.8 42871.6 Q 71543.6 42871.6 70781.6 44179.6 Q 70019.6 45487.6 70019.6 47935.6 Q 70019.6 50444.8 70781.6 51674.8 Q 71543.6 52904.8 73188.8 52904.8 L 73187.6 52903.6 Z M 83068.8 54476.8 L 80884.8 54476.8 L 80884.8 41300.8 L 83068.8 41300.8 L 83068.8 54476.8 Z M 80716.8 37735.6 Q 80716.8 37015.6 81082.8 36691.6 Q 81448.8 36367.6 81987.6 36367.6 Q 82251.6 36367.6 82485.6 36445.6 Q 82719.6 36523.6 82893.6 36691.6 Q 83067.6 36859.6 83169.6 37117.6 Q 83271.6 37375.6 83271.6 37735.6 Q 83271.6 38431.6 82893.6 38773.6 Q 82515.6 39115.6 81987.6 39115.6 Q 81448.8 39115.6 81082.8 38779.6 Q 80716.8 38443.6 80716.8 37734.4 L 80716.8 37735.6 Z M 95875.6 47863.6 Q 95875.6 49508.8 95473.6 50786.8 Q 95071.6 52064.8 94321.6 52934.8 Q 93571.6 53804.8 92503.6 54260.8 Q 91435.6 54716.8 90102.4 54716.8 Q 88867.6 54716.8 87823.6 54260.8 Q 86779.6 53804.8 86017.6 52934.8 Q 85255.6 52064.8 84829.6 50786.8 Q 84403.6 49508.8 84403.6 47863.6 Q 84403.6 46231.6 84805.6 44965.6 Q 85207.6 43699.6 85951.6 42829.6 Q 86695.6 41959.6 87769.6 41509.6 Q 88843.6 41059.6 90174.4 41059.6 Q 91411.6 41059.6 92455.6 41509.6 Q 93499.6 41959.6 94261.6 42829.6 Q 95023.6 43699.6 95449.6 44965.6 Q 95875.6 46231.6 95875.6 47863.6  Z M 86659.6 47863.6 Q 86659.6 50372.8 87481.6 51638.8 Q 88303.6 52904.8 90151.6 52904.8 Q 91999.6 52904.8 92809.6 51638.8 Q 93619.6 50372.8 93619.6 47863.6 Q 93619.6 45356.8 92797.6 44114.8 Q 91975.6 42872.8 90127.6 42872.8 Q 88279.6 42872.8 87469.6 44114.8 Q 86659.6 45356.8 86659.6 47863.6  Z M 105154 50863.6 Q 105154 51823.6 104806 52543.6 Q 104458 53263.6 103804 53749.6 Q 103150 54235.6 102226 54475.6 Q 101302 54715.6 100150 54715.6 Q 98843.2 54715.6 97907.2 54505.6 Q 96971.2 54295.6 96262 53887.6 L 96262 51895.6 Q 96635.2 52087.6 97091.2 52273.6 Q 97547.2 52459.6 98051.2 52603.6 Q 98555.2 52747.6 99089.2 52837.6 Q 99623.2 52927.6 100151.2 52927.6 Q 100932.4 52927.6 101478.4 52795.6 Q 102024.4 52663.6 102366.4 52417.6 Q 102708.4 52171.6 102864.4 51817.6 Q 103020.4 51463.6 103020.4 51031.6 Q 103020.4 50660.8 102900.4 50360.8 Q 102780.4 50060.8 102462.4 49766.8 Q 102144.4 49472.8 101592.4 49172.8 Q 101040.4 48872.8 100176.4 48502 Q 99312.4 48128.8 98622.4 47768.8 Q 97932.4 47408.8 97452.4 46964.8 Q 96972.4 46520.8 96714.4 45938.8 Q 96456.4 45356.8 96456.4 44551.6 Q 96456.4 43711.6 96786.4 43057.6 Q 97116.4 42403.6 97716.4 41959.6 Q 98316.4 41515.6 99156.4 41287.6 Q 99996.4 41059.6 101028.4 41059.6 Q 102191.2 41059.6 103157.2 41311.6 Q 104123.2 41563.6 104987.2 41971.6 L 104230 43734.4 Q 103451.2 43387.6 102629.2 43129.6 Q 101807.2 42871.6 100956.4 42871.6 Q 99732.4 42871.6 99144.4 43273.6 Q 98556.4 43675.6 98556.4 44419.6 Q 98556.4 44838.4 98694.4 45150.4 Q 98832.4 45462.4 99168.4 45738.4 Q 99504.4 46014.4 100068.4 46296.4 Q 100632.4 46578.4 101472.4 46925.2 Q 102336.4 47285.2 103014.4 47645.2 Q 103692.4 48005.2 104172.4 48455.2 Q 104652.4 48905.2 104904.4 49481.2 Q 105156.4 50057.2 105156.4 50860 L 105154 50863.6 Z M 108561.6 41300.8 L 110830.8 41300.8 L 113409.6 48655.6 Q 113577.6 49135.6 113751.6 49663.6 Q 113925.6 50191.6 114075.6 50719.6 Q 114225.6 51247.6 114333.6 51739.6 Q 114441.6 52231.6 114489.6 52652.8 L 114561.6 52652.8 Q 114622.8 52351.6 114754.8 51835.6 Q 114886.8 51319.6 115048.8 50737.6 Q 115210.8 50155.6 115384.8 49591.6 Q 115558.8 49027.6 115689.6 48630.4 L 118078.8 41299.6 L 120334.8 41299.6 L 115126.8 56192.8 Q 114790.8 57163.6 114400.8 57937.6 Q 114010.8 58711.6 113494.8 59251.6 Q 112978.8 59791.6 112282.8 60085.6 Q 111586.8 60379.6 110626.8 60379.6 Q 110002.8 60379.6 109546.8 60313.6 Q 109090.8 60247.6 108768 60175.6 L 108768 58434.4 Q 109018.8 58495.6 109402.8 58537.6 Q 109786.8 58579.6 110208 58579.6 Q 110784 58579.6 111204 58441.6 Q 111624 58303.6 111936 58039.6 Q 112248 57775.6 112470 57391.6 Q 112692 57007.6 112873.2 56514.4 L 113556 54594.4 L 108564 41298.4 L 108561.6 41300.8 Z M 129752 54716.8 Q 128541.2 54716.8 127485.2 54338.8 Q 126429.2 53960.8 125649.2 53138.8 Q 124869.2 52316.8 124425.2 51038.8 Q 123981.2 49760.8 123981.2 47960.8 Q 123981.2 46078 124437.2 44764 Q 124893.2 43450 125691.2 42628 Q 126489.2 41806 127557.2 41434 Q 128625.2 41062 129849.2 41062 Q 130785.2 41062 131679.2 41266 Q 132573.2 41470 133173.2 41768.8 L 132525.2 43616.8 Q 132248 43496.8 131912 43382.8 Q 131576 43268.8 131216 43178.8 Q 130856 43088.8 130508 43034.8 Q 130160 42980.8 129848 42980.8 Q 127965.2 42980.8 127101.2 44186.8 Q 126237.2 45392.8 126237.2 47936.8 Q 126237.2 50470 127107.2 51640 Q 127977.2 52810 129753.2 52810 Q 130726.4 52810 131512.4 52588 Q 132298.4 52366 132946.4 52064.8 L 132946.4 54008.8 Q 132298.4 54358 131560.4 54538 Q 130822.4 54718 129753.2 54718 L 129752 54716.8 Z M 141459.6 54476.8 L 141014.4 52652.8 L 140918.4 52652.8 Q 140523.6 53191.6 140127.6 53581.6 Q 139731.6 53971.6 139263.6 54223.6 Q 138795.6 54475.6 138219.6 54595.6 Q 137643.6 54715.6 136886.4 54715.6 Q 136059.6 54715.6 135363.6 54481.6 Q 134667.6 54247.6 134157.6 53761.6 Q 133647.6 53275.6 133359.6 52537.6 Q 133071.6 51799.6 133071.6 50791.6 Q 133071.6 48823.6 134457.6 47767.6 Q 135843.6 46711.6 138675.6 46615.6 L 140883.6 46532.8 L 140883.6 45703.6 Q 140883.6 44900.8 140709.6 44360.8 Q 140535.6 43820.8 140205.6 43490.8 Q 139875.6 43160.8 139389.6 43016.8 Q 138903.6 42872.8 138279.6 42872.8 Q 137284.8 42872.8 136426.8 43160.8 Q 135568.8 43448.8 134776.8 43856.8 L 134008.8 42214 Q 134896.8 41734 135988.8 41398 Q 137080.8 41062 138280.8 41062 Q 139504.8 41062 140398.8 41308 Q 141292.8 41554 141874.8 42088 Q 142456.8 42622 142744.8 43450 Q 143032.8 44278 143032.8 45454 L 143032.8 54478 L 141462 54478 L 141459.6 54476.8 Z M 137451.6 52951.6 Q 138182.4 52951.6 138806.4 52723.6 Q 139430.4 52495.6 139886.4 52033.6 Q 140342.4 51571.6 140600.4 50869.6 Q 140858.4 50167.6 140858.4 49220.8 L 140858.4 48031.6 L 139141.2 48116.8 Q 138061.2 48164.8 137329.2 48356.8 Q 136597.2 48548.8 136159.2 48890.8 Q 135721.2 49232.8 135529.2 49718.8 Q 135337.2 50204.8 135337.2 50815.6 Q 135337.2 51919.6 135919.2 52435.6 Q 136501.2 52951.6 137450.4 52951.6 L 137451.6 52951.6 Z M 153168 54476.8 L 153168 45991.6 Q 153168 44431.6 152538 43651.6 Q 151908 42871.6 150564 42871.6 Q 149590.8 42871.6 148930.8 43183.6 Q 148270.8 43495.6 147868.8 44107.6 Q 147466.8 44719.6 147292.8 45607.6 Q 147118.8 46495.6 147118.8 47647.6 L 147118.8 54476.8 L 144934.8 54476.8 L 144934.8 41300.8 L 146710.8 41300.8 L 147022.8 43076.8 L 147142.8 43076.8 Q 147444 42559.6 147858 42181.6 Q 148272 41803.6 148764 41551.6 Q 149256 41299.6 149808 41179.6 Q 150360 41059.6 150936 41059.6 Q 153133.2 41059.6 154243.2 42205.6 Q 155353.2 43351.6 155353.2 45871.6 L 155353.2 54476.8 L 153169.2 54476.8 L 153168 54476.8 Z M 162366.4 54716.8 Q 161155.6 54716.8 160099.6 54338.8 Q 159043.6 53960.8 158263.6 53138.8 Q 157483.6 52316.8 157039.6 51038.8 Q 156595.6 49760.8 156595.6 47960.8 Q 156595.6 46078 157051.6 44764 Q 157507.6 43450 158305.6 42628 Q 159103.6 41806 160171.6 41434 Q 161239.6 41062 162463.6 41062 Q 163399.6 41062 164293.6 41266 Q 165187.6 41470 165787.6 41768.8 L 165139.6 43616.8 Q 164862.4 43496.8 164526.4 43382.8 Q 164190.4 43268.8 163830.4 43178.8 Q 163470.4 43088.8 163122.4 43034.8 Q 162774.4 42980.8 162462.4 42980.8 Q 160579.6 42980.8 159715.6 44186.8 Q 158851.6 45392.8 158851.6 47936.8 Q 158851.6 50470 159721.6 51640 Q 160591.6 52810 162367.6 52810 Q 163340.8 52810 164126.8 52588 Q 164912.8 52366 165560.8 52064.8 L 165560.8 54008.8 Q 164912.8 54358 164174.8 54538 Q 163436.8 54718 162367.6 54718 L 162366.4 54716.8 Z M 168828.8 54476.8 L 166644.8 54476.8 L 166644.8 41300.8 L 168828.8 41300.8 L 168828.8 54476.8 Z M 166476.8 37735.6 Q 166476.8 37015.6 166842.8 36691.6 Q 167208.8 36367.6 167747.6 36367.6 Q 168011.6 36367.6 168245.6 36445.6 Q 168479.6 36523.6 168653.6 36691.6 Q 168827.6 36859.6 168929.6 37117.6 Q 169031.6 37375.6 169031.6 37735.6 Q 169031.6 38431.6 168653.6 38773.6 Q 168275.6 39115.6 167747.6 39115.6 Q 167208.8 39115.6 166842.8 38779.6 Q 166476.8 38443.6 166476.8 37734.4 L 166476.8 37735.6 Z M 181635.6 47863.6 Q 181635.6 49508.8 181233.6 50786.8 Q 180831.6 52064.8 180081.6 52934.8 Q 179331.6 53804.8 178263.6 54260.8 Q 177195.6 54716.8 175862.4 54716.8 Q 174627.6 54716.8 173583.6 54260.8 Q 172539.6 53804.8 171777.6 52934.8 Q 171015.6 52064.8 170589.6 50786.8 Q 170163.6 49508.8 170163.6 47863.6 Q 170163.6 46231.6 170565.6 44965.6 Q 170967.6 43699.6 171711.6 42829.6 Q 172455.6 41959.6 173529.6 41509.6 Q 174603.6 41059.6 175934.4 41059.6 Q 177171.6 41059.6 178215.6 41509.6 Q 179259.6 41959.6 180021.6 42829.6 Q 180783.6 43699.6 181209.6 44965.6 Q 181635.6 46231.6 181635.6 47863.6  Z M 172419.6 47863.6 Q 172419.6 50372.8 173241.6 51638.8 Q 174063.6 52904.8 175911.6 52904.8 Q 177759.6 52904.8 178569.6 51638.8 Q 179379.6 50372.8 179379.6 47863.6 Q 179379.6 45356.8 178557.6 44114.8 Q 177735.6 42872.8 175887.6 42872.8 Q 174039.6 42872.8 173229.6 44114.8 Q 172419.6 45356.8 172419.6 47863.6  Z M 191260.8 54476.8 L 191260.8 45991.6 Q 191260.8 44431.6 190630.8 43651.6 Q 190000.8 42871.6 188656.8 42871.6 Q 187683.6 42871.6 187023.6 43183.6 Q 186363.6 43495.6 185961.6 44107.6 Q 185559.6 44719.6 185385.6 45607.6 Q 185211.6 46495.6 185211.6 47647.6 L 185211.6 54476.8 L 183027.6 54476.8 L 183027.6 41300.8 L 184803.6 41300.8 L 185115.6 43076.8 L 185235.6 43076.8 Q 185536.8 42559.6 185950.8 42181.6 Q 186364.8 41803.6 186856.8 41551.6 Q 187348.8 41299.6 187900.8 41179.6 Q 188452.8 41059.6 189028.8 41059.6 Q 191226 41059.6 192336 42205.6 Q 193446 43351.6 193446 45871.6 L 193446 54476.8 L 191262 54476.8 L 191260.8 54476.8 Z M 200627.2 54716.8 Q 199307.2 54716.8 198215.2 54272.8 Q 197123.2 53828.8 196337.2 52976.8 Q 195551.2 52124.8 195119.2 50864.8 Q 194687.2 49604.8 194687.2 47983.6 Q 194687.2 46351.6 195083.2 45067.6 Q 195479.2 43783.6 196199.2 42889.6 Q 196919.2 41995.6 197921.2 41527.6 Q 198923.2 41059.6 200136.4 41059.6 Q 201323.2 41059.6 202271.2 41485.6 Q 203219.2 41911.6 203879.2 42685.6 Q 204539.2 43459.6 204893.2 44545.6 Q 205247.2 45631.6 205247.2 46951.6 L 205247.2 48308.8 L 196943.2 48308.8 Q 197002 50623.6 197920 51715.6 Q 198838 52807.6 200648.8 52807.6 Q 201262 52807.6 201784 52747.6 Q 202306 52687.6 202792 52573.6 Q 203278 52459.6 203734 52285.6 Q 204190 52111.6 204656.8 51895.6 L 204656.8 53839.6 Q 204176.8 54068.8 203714.8 54236.8 Q 203252.8 54404.8 202766.8 54512.8 Q 202280.8 54620.8 201758.8 54668.8 Q 201236.8 54716.8 200623.6 54716.8 L 200627.2 54716.8 Z M 200088.4 42871.6 Q 198720.4 42871.6 197922.4 43807.6 Q 197124.4 44743.6 196993.6 46532.8 L 202897.6 46532.8 Q 202897.6 45716.8 202735.6 45038.8 Q 202573.6 44360.8 202231.6 43880.8 Q 201889.6 43400.8 201361.6 43136.8 Q 200833.6 42872.8 200089.6 42872.8 L 200088.4 42871.6 Z M 214312.4 50863.6 Q 214312.4 51823.6 213964.4 52543.6 Q 213616.4 53263.6 212962.4 53749.6 Q 212308.4 54235.6 211384.4 54475.6 Q 210460.4 54715.6 209308.4 54715.6 Q 208001.6 54715.6 207065.6 54505.6 Q 206129.6 54295.6 205420.4 53887.6 L 205420.4 51895.6 Q 205793.6 52087.6 206249.6 52273.6 Q 206705.6 52459.6 207209.6 52603.6 Q 207713.6 52747.6 208247.6 52837.6 Q 208781.6 52927.6 209309.6 52927.6 Q 210090.8 52927.6 210636.8 52795.6 Q 211182.8 52663.6 211524.8 52417.6 Q 211866.8 52171.6 212022.8 51817.6 Q 212178.8 51463.6 212178.8 51031.6 Q 212178.8 50660.8 212058.8 50360.8 Q 211938.8 50060.8 211620.8 49766.8 Q 211302.8 49472.8 210750.8 49172.8 Q 210198.8 48872.8 209334.8 48502 Q 208470.8 48128.8 207780.8 47768.8 Q 207090.8 47408.8 206610.8 46964.8 Q 206130.8 46520.8 205872.8 45938.8 Q 205614.8 45356.8 205614.8 44551.6 Q 205614.8 43711.6 205944.8 43057.6 Q 206274.8 42403.6 206874.8 41959.6 Q 207474.8 41515.6 208314.8 41287.6 Q 209154.8 41059.6 210186.8 41059.6 Q 211349.6 41059.6 212315.6 41311.6 Q 213281.6 41563.6 214145.6 41971.6 L 213388.4 43734.4 Q 212609.6 43387.6 211787.6 43129.6 Q 210965.6 42871.6 210114.8 42871.6 Q 208890.8 42871.6 208302.8 43273.6 Q 207714.8 43675.6 207714.8 44419.6 Q 207714.8 44838.4 207852.8 45150.4 Q 207990.8 45462.4 208326.8 45738.4 Q 208662.8 46014.4 209226.8 46296.4 Q 209790.8 46578.4 210630.8 46925.2 Q 211494.8 47285.2 212172.8 47645.2 Q 212850.8 48005.2 213330.8 48455.2 Q 213810.8 48905.2 214062.8 49481.2 Q 214314.8 50057.2 214314.8 50860 L 214312.4 50863.6 Z " fill-rule="nonzero" style="fill:#535353;;fill-opacity:1;"/>
</svg>