<svg version="1.1" x="0" y="0" width="100%" height="100%" viewBox="0 0 214067.2 32563.2" xmlns="http://www.w3.org/2000/svg">
  <path d="M 13065 23910.4 L 4337.65 23910.4 L 4337.65 7097.4 L 13065 7097.4 L 13065 8983.4 L 6476.65 8983.4 L 6476.65 14181.4 L 12628 14181.4 L 12628 16044.4 L 6476.65 16044.4 L 6476.65 22024.4 L 13065 22024.4 L 13065 23910.4 Z M 21999.25 20447.75 Q 21999.25 21367.75 21665.75 22057.75 Q 21332.25 22747.75 20705.5 23213.5 Q 20078.75 23679.25 19193.25 23909.25 Q 18307.75 24139.25 17203.75 24139.25 Q 15951.4 24139.25 15054.4 23938 Q 14157.4 23736.75 13477.75 23345.75 L 13477.75 21436.75 Q 13835.4 21620.75 14272.4 21799 Q 14709.4 21977.25 15192.4 22115.25 Q 15675.4 22253.25 16187.15 22339.5 Q 16698.9 22425.75 17204.9 22425.75 Q 17953.55 22425.75 18476.8 22299.25 Q 19000.05 22172.75 19327.8 21937 Q 19655.55 21701.25 19805.05 21362 Q 19954.55 21022.75 19954.55 20608.75 Q 19954.55 20253.4 19839.55 19965.9 Q 19724.55 19678.4 19419.8 19396.65 Q 19115.05 19114.9 18586.05 18827.4 Q 18057.05 18539.9 17229.05 18184.55 Q 16401.05 17826.9 15739.8 17481.9 Q 15078.55 17136.9 14618.55 16711.4 Q 14158.55 16285.9 13911.3 15728.15 Q 13664.05 15170.4 13664.05 14398.75 Q 13664.05 13593.75 13980.3 12967 Q 14296.55 12340.25 14871.55 11914.75 Q 15446.55 11489.25 16251.55 11270.75 Q 17056.55 11052.25 18045.55 11052.25 Q 19159.9 11052.25 20085.65 11293.75 Q 21011.4 11535.25 21839.4 11926.25 L 21113.75 13615.6 Q 20367.4 13283.25 19579.65 13036 Q 18791.9 12788.75 17976.55 12788.75 Q 16803.55 12788.75 16240.05 13174 Q 15676.55 13559.25 15676.55 14272.25 Q 15676.55 14673.6 15808.8 14972.6 Q 15941.05 15271.6 16263.05 15536.1 Q 16585.05 15800.6 17125.55 16070.85 Q 17666.05 16341.1 18471.05 16673.45 Q 19299.05 17018.45 19948.8 17363.45 Q 20598.55 17708.45 21058.55 18139.7 Q 21518.55 18570.95 21760.05 19122.95 Q 22001.55 19674.95 22001.55 20444.3 L 21999.25 20447.75 Z M 26811 22425.75 Q 27018 22425.75 27276.75 22402.75 Q 27535.5 22379.75 27777 22345.25 Q 28018.5 22310.75 28219.75 22264.75 Q 28421 22218.75 28525.65 22185.4 L 28525.65 23772.4 Q 28375 23841.4 28145 23910.4 Q 27915 23979.4 27639 24031.15 Q 27363 24082.9 27064 24111.65 Q 26765 24140.4 26478.65 24140.4 Q 25765.65 24140.4 25156.15 23956.4 Q 24546.65 23772.4 24103.9 23323.9 Q 23661.15 22875.4 23408.15 22110.65 Q 23155.15 21345.9 23155.15 20185.55 L 23155.15 12858.9 L 21373.8 12858.9 L 21373.8 11928.55 L 23155.15 11031.55 L 24052.15 8386.55 L 25260.8 8386.55 L 25260.8 11284.55 L 28434.8 11284.55 L 28434.8 12858.9 L 25260.8 12858.9 L 25260.8 20185.55 Q 25260.8 21299.9 25623.05 21863.4 Q 25985.3 22426.9 26813.3 22426.9 L 26811 22425.75 Z M 36000.65 23910.4 L 35574 22162.4 L 35482 22162.4 Q 35103.65 22678.75 34724.15 23052.5 Q 34344.65 23426.25 33896.15 23667.75 Q 33447.65 23909.25 32895.65 24024.25 Q 32343.65 24139.25 31618 24139.25 Q 30825.65 24139.25 30158.65 23915 Q 29491.65 23690.75 29002.9 23225 Q 28514.15 22759.25 28238.15 22052 Q 27962.15 21344.75 27962.15 20378.75 Q 27962.15 18492.75 29290.4 17480.75 Q 30618.65 16468.75 33332.65 16376.75 L 35448.65 16297.4 L 35448.65 15502.75 Q 35448.65 14733.4 35281.9 14215.9 Q 35115.15 13698.4 34798.9 13382.15 Q 34482.65 13065.9 34016.9 12927.9 Q 33551.15 12789.9 32953.15 12789.9 Q 31999.8 12789.9 31177.55 13065.9 Q 30355.3 13341.9 29596.3 13732.9 L 28860.3 12158.55 Q 29711.3 11698.55 30757.8 11376.55 Q 31804.3 11054.55 32954.3 11054.55 Q 34127.3 11054.55 34984.05 11290.3 Q 35840.8 11526.05 36398.55 12037.8 Q 36956.3 12549.55 37232.3 13343.05 Q 37508.3 14136.55 37508.3 15263.55 L 37508.3 23911.55 L 36002.95 23911.55 L 36000.65 23910.4 Z M 32159.65 22448.75 Q 32860 22448.75 33458 22230.25 Q 34056 22011.75 34493 21569 Q 34930 21126.25 35177.25 20453.5 Q 35424.5 19780.75 35424.5 18873.4 L 35424.5 17733.75 L 33778.85 17815.4 Q 32743.85 17861.4 32042.35 18045.4 Q 31340.85 18229.4 30921.1 18557.15 Q 30501.35 18884.9 30317.35 19350.65 Q 30133.35 19816.4 30133.35 20401.75 Q 30133.35 21459.75 30691.1 21954.25 Q 31248.85 22448.75 32158.5 22448.75 L 32159.65 22448.75 Z M 44978.6 11053.4 Q 46059.6 11053.4 46945.1 11467.4 Q 47830.6 11881.4 48457.35 12703.65 Q 49084.1 13525.9 49429.1 14744.9 Q 49774.1 15963.9 49774.1 17573.9 Q 49774.1 19196.55 49429.1 20421.3 Q 49084.1 21646.05 48457.35 22474.05 Q 47830.6 23302.05 46945.1 23721.8 Q 46059.6 24141.55 44978.6 24141.55 Q 44301.25 24141.55 43749.25 23992.05 Q 43197.25 23842.55 42754.5 23595.3 Q 42311.75 23348.05 41972.5 23014.55 Q 41633.25 22681.05 41367.6 22313.05 L 41229.6 22313.05 L 40805.25 23912.7 L 39274.6 23912.7 L 39274.6 6018.7 L 41367.6 6018.7 L 41367.6 10342.7 Q 41367.6 10744.05 41356.1 11198.3 Q 41344.6 11652.55 41321.6 12043.55 Q 41298.6 12503.55 41275.6 12940.55 L 41367.6 12940.55 Q 41633.25 12536.9 41966.75 12191.9 Q 42300.25 11846.9 42743 11593.9 Q 43185.75 11340.9 43737.75 11197.15 Q 44289.75 11053.4 44979.75 11053.4 L 44978.6 11053.4 Z M 44577.25 12788.75 Q 43657.25 12788.75 43042 13082 Q 42426.75 13375.25 42053 13973.25 Q 41679.25 14571.25 41524 15468.25 Q 41368.75 16365.25 41368.75 17571.6 Q 41368.75 18734.25 41524 19637 Q 41679.25 20539.75 42053 21155 Q 42426.75 21770.25 43047.75 22086.5 Q 43668.75 22402.75 44601.4 22402.75 Q 46152.75 22402.75 46883 21149.25 Q 47613.25 19895.75 47613.25 17549.75 Q 47613.25 15157.75 46883 13973.25 Q 46152.75 12788.75 44578.4 12788.75 L 44577.25 12788.75 Z M 53143.6 23910.4 L 51050.6 23910.4 L 51050.6 6016.4 L 53143.6 6016.4 L 53143.6 23910.4 Z M 60035.2 24140.4 Q 58770.2 24140.4 57723.7 23714.9 Q 56677.2 23289.4 55923.95 22472.9 Q 55170.7 21656.4 54756.7 20448.9 Q 54342.7 19241.4 54342.7 17687.75 Q 54342.7 16123.75 54722.2 14893.25 Q 55101.7 13662.75 55791.7 12806 Q 56481.7 11949.25 57441.95 11500.75 Q 58402.2 11052.25 59564.85 11052.25 Q 60702.2 11052.25 61610.7 11460.5 Q 62519.2 11868.75 63151.7 12610.5 Q 63784.2 13352.25 64123.45 14393 Q 64462.7 15433.75 64462.7 16698.75 L 64462.7 17999.4 L 56504.7 17999.4 Q 56561.05 20217.75 57440.8 21264.25 Q 58320.55 22310.75 60055.9 22310.75 Q 60643.55 22310.75 61143.8 22253.25 Q 61644.05 22195.75 62109.8 22086.5 Q 62575.55 21977.25 63012.55 21810.5 Q 63449.55 21643.75 63896.9 21436.75 L 63896.9 23299.75 Q 63436.9 23519.4 62994.15 23680.4 Q 62551.4 23841.4 62085.65 23944.9 Q 61619.9 24048.4 61119.65 24094.4 Q 60619.4 24140.4 60031.75 24140.4 L 60035.2 24140.4 Z M 59518.85 12788.75 Q 58207.85 12788.75 57443.1 13685.75 Q 56678.35 14582.75 56553 16297.4 L 62211 16297.4 Q 62211 15515.4 62055.75 14865.65 Q 61900.5 14215.9 61572.75 13755.9 Q 61245 13295.9 60739 13042.9 Q 60233 12789.9 59520 12789.9 L 59518.85 12788.75 Z M 70370.2 24140.4 Q 69209.85 24140.4 68197.85 23778.15 Q 67185.85 23415.9 66438.35 22628.15 Q 65690.85 21840.4 65265.35 20615.65 Q 64839.85 19390.9 64839.85 17665.9 Q 64839.85 15861.55 65276.85 14602.3 Q 65713.85 13343.05 66478.6 12555.3 Q 67243.35 11767.55 68266.85 11411.05 Q 69290.35 11054.55 70463.35 11054.55 Q 71360.35 11054.55 72217.1 11250.05 Q 73073.85 11445.55 73648.85 11731.9 L 73027.85 13502.9 Q 72762.2 13387.9 72440.2 13278.65 Q 72118.2 13169.4 71773.2 13083.15 Q 71428.2 12996.9 71094.7 12945.15 Q 70761.2 12893.4 70462.2 12893.4 Q 68657.85 12893.4 67829.85 14049.15 Q 67001.85 15204.9 67001.85 17642.9 Q 67001.85 20070.55 67835.6 21191.8 Q 68669.35 22313.05 70371.35 22313.05 Q 71304 22313.05 72057.25 22100.3 Q 72810.5 21887.55 73431.5 21598.9 L 73431.5 23461.9 Q 72810.5 23796.55 72103.25 23969.05 Q 71396 24141.55 70371.35 24141.55 L 70370.2 24140.4 Z M 79337.6 24140.4 Q 78072.6 24140.4 77026.1 23714.9 Q 75979.6 23289.4 75226.35 22472.9 Q 74473.1 21656.4 74059.1 20448.9 Q 73645.1 19241.4 73645.1 17687.75 Q 73645.1 16123.75 74024.6 14893.25 Q 74404.1 13662.75 75094.1 12806 Q 75784.1 11949.25 76744.35 11500.75 Q 77704.6 11052.25 78867.25 11052.25 Q 80004.6 11052.25 80913.1 11460.5 Q 81821.6 11868.75 82454.1 12610.5 Q 83086.6 13352.25 83425.85 14393 Q 83765.1 15433.75 83765.1 16698.75 L 83765.1 17999.4 L 75807.1 17999.4 Q 75863.45 20217.75 76743.2 21264.25 Q 77622.95 22310.75 79358.3 22310.75 Q 79945.95 22310.75 80446.2 22253.25 Q 80946.45 22195.75 81412.2 22086.5 Q 81877.95 21977.25 82314.95 21810.5 Q 82751.95 21643.75 83199.3 21436.75 L 83199.3 23299.75 Q 82739.3 23519.4 82296.55 23680.4 Q 81853.8 23841.4 81388.05 23944.9 Q 80922.3 24048.4 80422.05 24094.4 Q 79921.8 24140.4 79334.15 24140.4 L 79337.6 24140.4 Z M 78821.25 12788.75 Q 77510.25 12788.75 76745.5 13685.75 Q 75980.75 14582.75 75855.4 16297.4 L 81513.4 16297.4 Q 81513.4 15515.4 81358.15 14865.65 Q 81202.9 14215.9 80875.15 13755.9 Q 80547.4 13295.9 80041.4 13042.9 Q 79535.4 12789.9 78822.4 12789.9 L 78821.25 12788.75 Z M 90306.25 11053.4 Q 90638.6 11053.4 91052.6 11082.15 Q 91466.6 11110.9 91765.6 11169.55 L 91489.6 13101.55 Q 91167.6 13042.9 90828.35 13002.65 Q 90489.1 12962.4 90190.1 12962.4 Q 89464.45 12962.4 88866.45 13255.65 Q 88268.45 13548.9 87837.2 14095.15 Q 87405.95 14641.4 87170.2 15406.15 Q 86934.45 16170.9 86934.45 17103.55 L 86934.45 23911.55 L 84841.45 23911.55 L 84841.45 11284.55 L 86543.45 11284.55 L 86796.45 13594.9 L 86888.45 13594.9 Q 87177.1 13101.55 87504.85 12641.55 Q 87832.6 12181.55 88240.85 11830.8 Q 88649.1 11480.05 89155.1 11267.3 Q 89661.1 11054.55 90305.1 11054.55 L 90306.25 11053.4 Z M 97206.4 24140.4 Q 95941.4 24140.4 94894.9 23714.9 Q 93848.4 23289.4 93095.15 22472.9 Q 92341.9 21656.4 91927.9 20448.9 Q 91513.9 19241.4 91513.9 17687.75 Q 91513.9 16123.75 91893.4 14893.25 Q 92272.9 13662.75 92962.9 12806 Q 93652.9 11949.25 94613.15 11500.75 Q 95573.4 11052.25 96736.05 11052.25 Q 97873.4 11052.25 98781.9 11460.5 Q 99690.4 11868.75 100322.9 12610.5 Q 100955.4 13352.25 101294.65 14393 Q 101633.9 15433.75 101633.9 16698.75 L 101633.9 17999.4 L 93675.9 17999.4 Q 93732.25 20217.75 94612 21264.25 Q 95491.75 22310.75 97227.1 22310.75 Q 97814.75 22310.75 98315 22253.25 Q 98815.25 22195.75 99281 22086.5 Q 99746.75 21977.25 100183.75 21810.5 Q 100620.75 21643.75 101068.1 21436.75 L 101068.1 23299.75 Q 100608.1 23519.4 100165.35 23680.4 Q 99722.6 23841.4 99256.85 23944.9 Q 98791.1 24048.4 98290.85 24094.4 Q 97790.6 24140.4 97202.95 24140.4 L 97206.4 24140.4 Z M 96690.05 12788.75 Q 95379.05 12788.75 94614.3 13685.75 Q 93849.55 14582.75 93724.2 16297.4 L 99382.2 16297.4 Q 99382.2 15515.4 99226.95 14865.65 Q 99071.7 14215.9 98743.95 13755.9 Q 98416.2 13295.9 97910.2 13042.9 Q 97404.2 12789.9 96691.2 12789.9 L 96690.05 12788.75 Z M 117835.05 23910.4 L 117835.05 15778.75 Q 117835.05 14283.75 117260.05 13536.25 Q 116685.05 12788.75 115476.4 12788.75 Q 114638.05 12788.75 114051.55 13059 Q 113465.05 13329.25 113091.3 13852.5 Q 112717.55 14375.75 112545.05 15152 Q 112372.55 15928.25 112372.55 16940.25 L 112372.55 23909.25 L 110269.2 23909.25 L 110269.2 15777.6 Q 110269.2 14282.6 109699.95 13535.1 Q 109130.7 12787.6 107924.35 12787.6 Q 107037.7 12787.6 106439.7 13086.6 Q 105841.7 13385.6 105479.45 13972.1 Q 105117.2 14558.6 104961.95 15409.6 Q 104806.7 16260.6 104806.7 17364.6 L 104806.7 23909.25 L 102713.7 23909.25 L 102713.7 11282.25 L 104415.7 11282.25 L 104714.7 12984.25 L 104829.7 12984.25 Q 105105.7 12488.6 105485.2 12126.35 Q 105864.7 11764.1 106318.95 11522.6 Q 106773.2 11281.1 107284.95 11166.1 Q 107796.7 11051.1 108325.7 11051.1 Q 109705.7 11051.1 110619.95 11557.1 Q 111534.2 12063.1 111971.2 13144.1 L 112063.2 13144.1 Q 112362.2 12602.45 112781.95 12211.45 Q 113201.7 11820.45 113701.95 11561.7 Q 114202.2 11302.95 114754.2 11176.45 Q 115306.2 11049.95 115881.2 11049.95 Q 117892.55 11049.95 118910.3 12148.2 Q 119928.05 13246.45 119928.05 15661.45 L 119928.05 23908.1 L 117835.05 23908.1 L 117835.05 23910.4 Z M 132051.45 17572.75 Q 132051.45 19149.4 131666.2 20374.15 Q 131280.95 21598.9 130562.2 22432.65 Q 129843.45 23266.4 128819.95 23703.4 Q 127796.45 24140.4 126518.8 24140.4 Q 125335.45 24140.4 124334.95 23703.4 Q 123334.45 23266.4 122604.2 22432.65 Q 121873.95 21598.9 121465.7 20374.15 Q 121057.45 19149.4 121057.45 17572.75 Q 121057.45 16008.75 121442.7 14795.5 Q 121827.95 13582.25 122540.95 12748.5 Q 123253.95 11914.75 124283.2 11483.5 Q 125312.45 11052.25 126587.8 11052.25 Q 127773.45 11052.25 128773.95 11483.5 Q 129774.45 11914.75 130504.7 12748.5 Q 131234.95 13582.25 131643.2 14795.5 Q 132051.45 16008.75 132051.45 17572.75  Z M 123219.45 17572.75 Q 123219.45 19977.4 124007.2 21190.65 Q 124794.95 22403.9 126565.95 22403.9 Q 128336.95 22403.9 129113.2 21190.65 Q 129889.45 19977.4 129889.45 17572.75 Q 129889.45 15170.4 129101.7 13980.15 Q 128313.95 12789.9 126542.95 12789.9 Q 124771.95 12789.9 123995.7 13980.15 Q 123219.45 15170.4 123219.45 17572.75  Z M 140885.65 20447.75 Q 140885.65 21367.75 140552.15 22057.75 Q 140218.65 22747.75 139591.9 23213.5 Q 138965.15 23679.25 138079.65 23909.25 Q 137194.15 24139.25 136090.15 24139.25 Q 134837.8 24139.25 133940.8 23938 Q 133043.8 23736.75 132364.15 23345.75 L 132364.15 21436.75 Q 132721.8 21620.75 133158.8 21799 Q 133595.8 21977.25 134078.8 22115.25 Q 134561.8 22253.25 135073.55 22339.5 Q 135585.3 22425.75 136091.3 22425.75 Q 136839.95 22425.75 137363.2 22299.25 Q 137886.45 22172.75 138214.2 21937 Q 138541.95 21701.25 138691.45 21362 Q 138840.95 21022.75 138840.95 20608.75 Q 138840.95 20253.4 138725.95 19965.9 Q 138610.95 19678.4 138306.2 19396.65 Q 138001.45 19114.9 137472.45 18827.4 Q 136943.45 18539.9 136115.45 18184.55 Q 135287.45 17826.9 134626.2 17481.9 Q 133964.95 17136.9 133504.95 16711.4 Q 133044.95 16285.9 132797.7 15728.15 Q 132550.45 15170.4 132550.45 14398.75 Q 132550.45 13593.75 132866.7 12967 Q 133182.95 12340.25 133757.95 11914.75 Q 134332.95 11489.25 135137.95 11270.75 Q 135942.95 11052.25 136931.95 11052.25 Q 138046.3 11052.25 138972.05 11293.75 Q 139897.8 11535.25 140725.8 11926.25 L 140000.15 13615.6 Q 139253.8 13283.25 138466.05 13036 Q 137678.3 12788.75 136862.95 12788.75 Q 135689.95 12788.75 135126.45 13174 Q 134562.95 13559.25 134562.95 14272.25 Q 134562.95 14673.6 134695.2 14972.6 Q 134827.45 15271.6 135149.45 15536.1 Q 135471.45 15800.6 136011.95 16070.85 Q 136552.45 16341.1 137357.45 16673.45 Q 138185.45 17018.45 138835.2 17363.45 Q 139484.95 17708.45 139944.95 18139.7 Q 140404.95 18570.95 140646.45 19122.95 Q 140887.95 19674.95 140887.95 20444.3 L 140885.65 20447.75 Z M 141570.05 22632.75 Q 141570.05 22195.75 141685.05 21891 Q 141800.05 21586.25 141995.55 21396.5 Q 142191.05 21206.75 142455.55 21120.5 Q 142720.05 21034.25 143029.4 21034.25 Q 143328.4 21034.25 143598.65 21120.5 Q 143868.9 21206.75 144064.4 21396.5 Q 144259.9 21586.25 144374.9 21891 Q 144489.9 22195.75 144489.9 22632.75 Q 144489.9 23059.4 144374.9 23364.15 Q 144259.9 23668.9 144064.4 23865.55 Q 143868.9 24062.2 143598.65 24154.2 Q 143328.4 24246.2 143029.4 24246.2 Q 142720.05 24246.2 142455.55 24154.2 Q 142191.05 24062.2 141995.55 23865.55 Q 141800.05 23668.9 141685.05 23364.15 Q 141570.05 23059.4 141570.05 22632.75  Z M 145768.45 22632.75 Q 145768.45 22195.75 145883.45 21891 Q 145998.45 21586.25 146193.95 21396.5 Q 146389.45 21206.75 146653.95 21120.5 Q 146918.45 21034.25 147227.8 21034.25 Q 147526.8 21034.25 147797.05 21120.5 Q 148067.3 21206.75 148262.8 21396.5 Q 148458.3 21586.25 148573.3 21891 Q 148688.3 22195.75 148688.3 22632.75 Q 148688.3 23059.4 148573.3 23364.15 Q 148458.3 23668.9 148262.8 23865.55 Q 148067.3 24062.2 147797.05 24154.2 Q 147526.8 24246.2 147227.8 24246.2 Q 146918.45 24246.2 146653.95 24154.2 Q 146389.45 24062.2 146193.95 23865.55 Q 145998.45 23668.9 145883.45 23364.15 Q 145768.45 23059.4 145768.45 22632.75  Z M 149966.85 22632.75 Q 149966.85 22195.75 150081.85 21891 Q 150196.85 21586.25 150392.35 21396.5 Q 150587.85 21206.75 150852.35 21120.5 Q 151116.85 21034.25 151426.2 21034.25 Q 151725.2 21034.25 151995.45 21120.5 Q 152265.7 21206.75 152461.2 21396.5 Q 152656.7 21586.25 152771.7 21891 Q 152886.7 22195.75 152886.7 22632.75 Q 152886.7 23059.4 152771.7 23364.15 Q 152656.7 23668.9 152461.2 23865.55 Q 152265.7 24062.2 151995.45 24154.2 Q 151725.2 24246.2 151426.2 24246.2 Q 151116.85 24246.2 150852.35 24154.2 Q 150587.85 24062.2 150392.35 23865.55 Q 150196.85 23668.9 150081.85 23364.15 Q 149966.85 23059.4 149966.85 22632.75  Z " fill-rule="nonzero" style="fill:#e01000;;fill-opacity:1;"/>
</svg>