<svg version="1.1" x="0" y="0" width="100%" height="100%" viewBox="0 0 387635.2 96870.4" xmlns="http://www.w3.org/2000/svg">
  <path d="M 34316.05 28483.75 Q 34316.05 30183 33712.3 31521.75 Q 33108.55 32860.5 31988.55 33788 Q 30868.55 34715.5 29258.55 35196.75 Q 27648.55 35678 25637.8 35678 Q 23693.55 35678 22004.8 35371.75 Q 20316.05 35065.5 19176.8 34470.5 L 19176.8 31355.5 Q 19771.8 31635.5 20533.05 31906.75 Q 21294.3 32178 22134.3 32388 Q 22974.3 32598 23866.8 32729.25 Q 24759.3 32860.5 25634.3 32860.5 Q 28434.3 32860.5 29773.05 31810.5 Q 31111.8 30760.5 31111.8 28800.5 Q 31111.8 27855.5 30858.05 27155.5 Q 30604.3 26455.5 29965.55 25869.25 Q 29326.8 25283 28259.3 24731.75 Q 27191.8 24180.5 25566.05 23534.75 Q 24006.8 22920.5 22860.55 22194.25 Q 21714.3 21468 20970.55 20558 Q 20226.8 19648 19868.05 18493 Q 19509.3 17338 19509.3 15868 Q 19509.3 14328 20069.3 13120.5 Q 20629.3 11913 21644.3 11081.75 Q 22659.3 10250.5 24068.05 9813 Q 25476.8 9375.5 27176.05 9375.5 Q 29256.8 9375.5 30919.3 9769.25 Q 32581.8 10163 33876.8 10773.75 L 32706.05 13503.75 Q 31566.8 12998 30123.05 12621.75 Q 28679.3 12245.5 27139.3 12245.5 Q 25004.3 12245.5 23831.8 13234.25 Q 22659.3 14223 22659.3 15903 Q 22659.3 16898.75 22921.8 17625 Q 23184.3 18351.25 23796.8 18937.5 Q 24409.3 19523.75 25415.55 20040 Q 26421.8 20556.25 27891.8 21132 Q 29486.05 21762 30684.8 22427 Q 31883.55 23092 32688.55 23932 Q 33493.55 24772 33904.8 25874.5 Q 34316.05 26977 34316.05 28482 L 34316.05 28483.75 Z M 46633.6 35678 Q 44708.6 35678 43116.1 35030.5 Q 41523.6 34383 40377.35 33140.5 Q 39231.1 31898 38601.1 30060.5 Q 37971.1 28223 37971.1 25858.75 Q 37971.1 23478.75 38548.6 21606.25 Q 39126.1 19733.75 40176.1 18430 Q 41226.1 17126.25 42687.35 16443.75 Q 44148.6 15761.25 45917.85 15761.25 Q 47648.6 15761.25 49031.1 16382.5 Q 50413.6 17003.75 51376.1 18132.5 Q 52338.6 19261.25 52854.85 20845 Q 53371.1 22428.75 53371.1 24353.75 L 53371.1 26333 L 41261.1 26333 Q 41346.85 29708.75 42685.6 31301.25 Q 44024.35 32893.75 46665.1 32893.75 Q 47559.35 32893.75 48320.6 32806.25 Q 49081.85 32718.75 49790.6 32552.5 Q 50499.35 32386.25 51164.35 32132.5 Q 51829.35 31878.75 52510.1 31563.75 L 52510.1 34398.75 Q 51810.1 34733 51136.35 34978 Q 50462.6 35223 49753.85 35380.5 Q 49045.1 35538 48283.85 35608 Q 47522.6 35678 46628.35 35678 L 46633.6 35678 Z M 45847.85 18403.75 Q 43852.85 18403.75 42689.1 19768.75 Q 41525.35 21133.75 41334.6 23743 L 49944.6 23743 Q 49944.6 22553 49708.35 21564.25 Q 49472.1 20575.5 48973.35 19875.5 Q 48474.6 19175.5 47704.6 18790.5 Q 46934.6 18405.5 45849.6 18405.5 L 45847.85 18403.75 Z M 69635.45 30058.75 Q 69635.45 31458.75 69127.95 32508.75 Q 68620.45 33558.75 67666.7 34267.5 Q 66712.95 34976.25 65365.45 35326.25 Q 64017.95 35676.25 62337.95 35676.25 Q 60432.2 35676.25 59067.2 35370 Q 57702.2 35063.75 56667.95 34468.75 L 56667.95 31563.75 Q 57212.2 31843.75 57877.2 32115 Q 58542.2 32386.25 59277.2 32596.25 Q 60012.2 32806.25 60790.95 32937.5 Q 61569.7 33068.75 62339.7 33068.75 Q 63478.95 33068.75 64275.2 32876.25 Q 65071.45 32683.75 65570.2 32325 Q 66068.95 31966.25 66296.45 31450 Q 66523.95 30933.75 66523.95 30303.75 Q 66523.95 29763 66348.95 29325.5 Q 66173.95 28888 65710.2 28459.25 Q 65246.45 28030.5 64441.45 27593 Q 63636.45 27155.5 62376.45 26614.75 Q 61116.45 26070.5 60110.2 25545.5 Q 59103.95 25020.5 58403.95 24373 Q 57703.95 23725.5 57327.7 22876.75 Q 56951.45 22028 56951.45 20853.75 Q 56951.45 19628.75 57432.7 18675 Q 57913.95 17721.25 58788.95 17073.75 Q 59663.95 16426.25 60888.95 16093.75 Q 62113.95 15761.25 63618.95 15761.25 Q 65314.7 15761.25 66723.45 16128.75 Q 68132.2 16496.25 69392.2 17091.25 L 68287.95 19662 Q 67152.2 19156.25 65953.45 18780 Q 64754.7 18403.75 63513.95 18403.75 Q 61728.95 18403.75 60871.45 18990 Q 60013.95 19576.25 60013.95 20661.25 Q 60013.95 21272 60215.2 21727 Q 60416.45 22182 60906.45 22584.5 Q 61396.45 22987 62218.95 23398.25 Q 63041.45 23809.5 64266.45 24315.25 Q 65526.45 24840.25 66515.2 25365.25 Q 67503.95 25890.25 68203.95 26546.5 Q 68903.95 27202.75 69271.45 28042.75 Q 69638.95 28882.75 69638.95 30053.5 L 69635.45 30058.75 Z M 77449.2 35328 L 74264.2 35328 L 74264.2 16113 L 77449.2 16113 L 77449.2 35328 Z M 74019.2 10913.75 Q 74019.2 9863.75 74552.95 9391.25 Q 75086.7 8918.75 75872.45 8918.75 Q 76257.45 8918.75 76598.7 9032.5 Q 76939.95 9146.25 77193.7 9391.25 Q 77447.45 9636.25 77596.2 10012.5 Q 77744.95 10388.75 77744.95 10913.75 Q 77744.95 11928.75 77193.7 12427.5 Q 76642.45 12926.25 75872.45 12926.25 Q 75086.7 12926.25 74552.95 12436.25 Q 74019.2 11946.25 74019.2 10912 L 74019.2 10913.75 Z M 99144.45 25683.75 Q 99144.45 28083 98558.2 29946.75 Q 97971.95 31810.5 96878.2 33079.25 Q 95784.45 34348 94226.95 35013 Q 92669.45 35678 90725.2 35678 Q 88924.45 35678 87401.95 35013 Q 85879.45 34348 84768.2 33079.25 Q 83656.95 31810.5 83035.7 29946.75 Q 82414.45 28083 82414.45 25683.75 Q 82414.45 23303.75 83000.7 21457.5 Q 83586.95 19611.25 84671.95 18342.5 Q 85756.95 17073.75 87323.2 16417.5 Q 88889.45 15761.25 90830.2 15761.25 Q 92634.45 15761.25 94156.95 16417.5 Q 95679.45 17073.75 96790.7 18342.5 Q 97901.95 19611.25 98523.2 21457.5 Q 99144.45 23303.75 99144.45 25683.75  Z M 85704.45 25683.75 Q 85704.45 29343 86903.2 31189.25 Q 88101.95 33035.5 90796.95 33035.5 Q 93491.95 33035.5 94673.2 31189.25 Q 95854.45 29343 95854.45 25683.75 Q 95854.45 22028 94655.7 20216.75 Q 93456.95 18405.5 90761.95 18405.5 Q 88066.95 18405.5 86885.7 20216.75 Q 85704.45 22028 85704.45 25683.75  Z M 116221.2 35328 L 116221.2 22953.75 Q 116221.2 20678.75 115302.45 19541.25 Q 114383.7 18403.75 112423.7 18403.75 Q 111004.45 18403.75 110041.95 18858.75 Q 109079.45 19313.75 108493.2 20206.25 Q 107906.95 21098.75 107653.2 22393.75 Q 107399.45 23688.75 107399.45 25368.75 L 107399.45 35328 L 104214.45 35328 L 104214.45 16113 L 106804.45 16113 L 107259.45 18703 L 107434.45 18703 Q 107873.7 17948.75 108477.45 17397.5 Q 109081.2 16846.25 109798.7 16478.75 Q 110516.2 16111.25 111321.2 15936.25 Q 112126.2 15761.25 112966.2 15761.25 Q 116170.45 15761.25 117789.2 17432.5 Q 119407.95 19103.75 119407.95 22778.75 L 119407.95 35328 L 116222.95 35328 L 116221.2 35328 Z M 132854.4 35678 Q 130929.4 35678 129336.9 35030.5 Q 127744.4 34383 126598.15 33140.5 Q 125451.9 31898 124821.9 30060.5 Q 124191.9 28223 124191.9 25858.75 Q 124191.9 23478.75 124769.4 21606.25 Q 125346.9 19733.75 126396.9 18430 Q 127446.9 17126.25 128908.15 16443.75 Q 130369.4 15761.25 132138.65 15761.25 Q 133869.4 15761.25 135251.9 16382.5 Q 136634.4 17003.75 137596.9 18132.5 Q 138559.4 19261.25 139075.65 20845 Q 139591.9 22428.75 139591.9 24353.75 L 139591.9 26333 L 127481.9 26333 Q 127567.65 29708.75 128906.4 31301.25 Q 130245.15 32893.75 132885.9 32893.75 Q 133780.15 32893.75 134541.4 32806.25 Q 135302.65 32718.75 136011.4 32552.5 Q 136720.15 32386.25 137385.15 32132.5 Q 138050.15 31878.75 138730.9 31563.75 L 138730.9 34398.75 Q 138030.9 34733 137357.15 34978 Q 136683.4 35223 135974.65 35380.5 Q 135265.9 35538 134504.65 35608 Q 133743.4 35678 132849.15 35678 L 132854.4 35678 Z M 132068.65 18403.75 Q 130073.65 18403.75 128909.9 19768.75 Q 127746.15 21133.75 127555.4 23743 L 136165.4 23743 Q 136165.4 22553 135929.15 21564.25 Q 135692.9 20575.5 135194.15 19875.5 Q 134695.4 19175.5 133925.4 18790.5 Q 133155.4 18405.5 132070.4 18405.5 L 132068.65 18403.75 Z M 155856.25 30058.75 Q 155856.25 31458.75 155348.75 32508.75 Q 154841.25 33558.75 153887.5 34267.5 Q 152933.75 34976.25 151586.25 35326.25 Q 150238.75 35676.25 148558.75 35676.25 Q 146653 35676.25 145288 35370 Q 143923 35063.75 142888.75 34468.75 L 142888.75 31563.75 Q 143433 31843.75 144098 32115 Q 144763 32386.25 145498 32596.25 Q 146233 32806.25 147011.75 32937.5 Q 147790.5 33068.75 148560.5 33068.75 Q 149699.75 33068.75 150496 32876.25 Q 151292.25 32683.75 151791 32325 Q 152289.75 31966.25 152517.25 31450 Q 152744.75 30933.75 152744.75 30303.75 Q 152744.75 29763 152569.75 29325.5 Q 152394.75 28888 151931 28459.25 Q 151467.25 28030.5 150662.25 27593 Q 149857.25 27155.5 148597.25 26614.75 Q 147337.25 26070.5 146331 25545.5 Q 145324.75 25020.5 144624.75 24373 Q 143924.75 23725.5 143548.5 22876.75 Q 143172.25 22028 143172.25 20853.75 Q 143172.25 19628.75 143653.5 18675 Q 144134.75 17721.25 145009.75 17073.75 Q 145884.75 16426.25 147109.75 16093.75 Q 148334.75 15761.25 149839.75 15761.25 Q 151535.5 15761.25 152944.25 16128.75 Q 154353 16496.25 155613 17091.25 L 154508.75 19662 Q 153373 19156.25 152174.25 18780 Q 150975.5 18403.75 149734.75 18403.75 Q 147949.75 18403.75 147092.25 18990 Q 146234.75 19576.25 146234.75 20661.25 Q 146234.75 21272 146436 21727 Q 146637.25 22182 147127.25 22584.5 Q 147617.25 22987 148439.75 23398.25 Q 149262.25 23809.5 150487.25 24315.25 Q 151747.25 24840.25 152736 25365.25 Q 153724.75 25890.25 154424.75 26546.5 Q 155124.75 27202.75 155492.25 28042.75 Q 155859.75 28882.75 155859.75 30053.5 L 155856.25 30058.75 Z M 181566 32753.75 L 181426 32753.75 Q 181041 33348.75 180524.75 33882.5 Q 180008.5 34416.25 179334.75 34818.75 Q 178661 35221.25 177821 35448.75 Q 176981 35676.25 175931 35676.25 Q 174305.25 35676.25 172957.75 35046.25 Q 171610.25 34416.25 170647.75 33165 Q 169685.25 31913.75 169160.25 30058.75 Q 168635.25 28203.75 168635.25 25753.75 Q 168635.25 23288 169160.25 21424.25 Q 169685.25 19560.5 170647.75 18300.5 Q 171610.25 17040.5 172957.75 16401.75 Q 174305.25 15763 175931 15763 Q 176965.25 15763 177805.25 15990.5 Q 178645.25 16218 179319 16603 Q 179992.75 16988 180517.75 17495.5 Q 181042.75 18003 181427.75 18563 L 181637.75 18563 Q 181587 17968 181532.75 17423.75 Q 181497.75 16968.75 181462.75 16487.5 Q 181427.75 16006.25 181427.75 15726.25 L 181427.75 8096.25 L 184612.75 8096.25 L 184612.75 35326.25 L 182042 35326.25 L 181567.75 32752 L 181566 32753.75 Z M 176545.25 33033.75 Q 177875.25 33033.75 178794 32631.25 Q 179712.75 32228.75 180281.5 31406.25 Q 180850.25 30583.75 181121.5 29350 Q 181392.75 28116.25 181427.75 26471.25 L 181427.75 25752 Q 181427.75 23986.25 181191.5 22612.5 Q 180955.25 21238.75 180386.5 20302.5 Q 179817.75 19366.25 178872.75 18885 Q 177927.75 18403.75 176512 18403.75 Q 174147.75 18403.75 173036.5 20311.25 Q 171925.25 22218.75 171925.25 25788.75 Q 171925.25 29448 173036.5 31241.75 Q 174147.75 33035.5 176547 33035.5 L 176545.25 33033.75 Z M 198339.2 35678 Q 196414.2 35678 194821.7 35030.5 Q 193229.2 34383 192082.95 33140.5 Q 190936.7 31898 190306.7 30060.5 Q 189676.7 28223 189676.7 25858.75 Q 189676.7 23478.75 190254.2 21606.25 Q 190831.7 19733.75 191881.7 18430 Q 192931.7 17126.25 194392.95 16443.75 Q 195854.2 15761.25 197623.45 15761.25 Q 199354.2 15761.25 200736.7 16382.5 Q 202119.2 17003.75 203081.7 18132.5 Q 204044.2 19261.25 204560.45 20845 Q 205076.7 22428.75 205076.7 24353.75 L 205076.7 26333 L 192966.7 26333 Q 193052.45 29708.75 194391.2 31301.25 Q 195729.95 32893.75 198370.7 32893.75 Q 199264.95 32893.75 200026.2 32806.25 Q 200787.45 32718.75 201496.2 32552.5 Q 202204.95 32386.25 202869.95 32132.5 Q 203534.95 31878.75 204215.7 31563.75 L 204215.7 34398.75 Q 203515.7 34733 202841.95 34978 Q 202168.2 35223 201459.45 35380.5 Q 200750.7 35538 199989.45 35608 Q 199228.2 35678 198333.95 35678 L 198339.2 35678 Z M 197553.45 18403.75 Q 195558.45 18403.75 194394.7 19768.75 Q 193230.95 21133.75 193040.2 23743 L 201650.2 23743 Q 201650.2 22553 201413.95 21564.25 Q 201177.7 20575.5 200678.95 19875.5 Q 200180.2 19175.5 199410.2 18790.5 Q 198640.2 18405.5 197555.2 18405.5 L 197553.45 18403.75 Z M 229892.05 35328 L 229242.8 32668 L 229102.8 32668 Q 228527.05 33453.75 227949.55 34022.5 Q 227372.05 34591.25 226689.55 34958.75 Q 226007.05 35326.25 225167.05 35501.25 Q 224327.05 35676.25 223222.8 35676.25 Q 222017.05 35676.25 221002.05 35335 Q 219987.05 34993.75 219243.3 34285 Q 218499.55 33576.25 218079.55 32500 Q 217659.55 31423.75 217659.55 29953.75 Q 217659.55 27083.75 219680.8 25543.75 Q 221702.05 24003.75 225832.05 23863.75 L 229052.05 23743 L 229052.05 22533.75 Q 229052.05 21363 228798.3 20575.5 Q 228544.55 19788 228063.3 19306.75 Q 227582.05 18825.5 226873.3 18615.5 Q 226164.55 18405.5 225254.55 18405.5 Q 223803.8 18405.5 222552.55 18825.5 Q 221301.3 19245.5 220146.3 19840.5 L 219026.3 17444.75 Q 220321.3 16744.75 221913.8 16254.75 Q 223506.3 15764.75 225256.3 15764.75 Q 227041.3 15764.75 228345.05 16123.5 Q 229648.8 16482.25 230497.55 17261 Q 231346.3 18039.75 231766.3 19247.25 Q 232186.3 20454.75 232186.3 22169.75 L 232186.3 35329.75 L 229895.55 35329.75 L 229892.05 35328 Z M 224047.05 33103.75 Q 225112.8 33103.75 226022.8 32771.25 Q 226932.8 32438.75 227597.8 31765 Q 228262.8 31091.25 228639.05 30067.5 Q 229015.3 29043.75 229015.3 27663 L 229015.3 25928.75 L 226511.05 26053 Q 224936.05 26123 223868.55 26403 Q 222801.05 26683 222162.3 27181.75 Q 221523.55 27680.5 221243.55 28389.25 Q 220963.55 29098 220963.55 29988.75 Q 220963.55 31598.75 221812.3 32351.25 Q 222661.05 33103.75 224045.3 33103.75 L 224047.05 33103.75 Z M 249501.05 30058.75 Q 249501.05 31458.75 248993.55 32508.75 Q 248486.05 33558.75 247532.3 34267.5 Q 246578.55 34976.25 245231.05 35326.25 Q 243883.55 35676.25 242203.55 35676.25 Q 240297.8 35676.25 238932.8 35370 Q 237567.8 35063.75 236533.55 34468.75 L 236533.55 31563.75 Q 237077.8 31843.75 237742.8 32115 Q 238407.8 32386.25 239142.8 32596.25 Q 239877.8 32806.25 240656.55 32937.5 Q 241435.3 33068.75 242205.3 33068.75 Q 243344.55 33068.75 244140.8 32876.25 Q 244937.05 32683.75 245435.8 32325 Q 245934.55 31966.25 246162.05 31450 Q 246389.55 30933.75 246389.55 30303.75 Q 246389.55 29763 246214.55 29325.5 Q 246039.55 28888 245575.8 28459.25 Q 245112.05 28030.5 244307.05 27593 Q 243502.05 27155.5 242242.05 26614.75 Q 240982.05 26070.5 239975.8 25545.5 Q 238969.55 25020.5 238269.55 24373 Q 237569.55 23725.5 237193.3 22876.75 Q 236817.05 22028 236817.05 20853.75 Q 236817.05 19628.75 237298.3 18675 Q 237779.55 17721.25 238654.55 17073.75 Q 239529.55 16426.25 240754.55 16093.75 Q 241979.55 15761.25 243484.55 15761.25 Q 245180.3 15761.25 246589.05 16128.75 Q 247997.8 16496.25 249257.8 17091.25 L 248153.55 19662 Q 247017.8 19156.25 245819.05 18780 Q 244620.3 18403.75 243379.55 18403.75 Q 241594.55 18403.75 240737.05 18990 Q 239879.55 19576.25 239879.55 20661.25 Q 239879.55 21272 240080.8 21727 Q 240282.05 22182 240772.05 22584.5 Q 241262.05 22987 242084.55 23398.25 Q 242907.05 23809.5 244132.05 24315.25 Q 245392.05 24840.25 246380.8 25365.25 Q 247369.55 25890.25 248069.55 26546.5 Q 248769.55 27202.75 249137.05 28042.75 Q 249504.55 28882.75 249504.55 30053.5 L 249501.05 30058.75 Z M 261724.8 35678 Q 259799.8 35678 258207.3 35030.5 Q 256614.8 34383 255468.55 33140.5 Q 254322.3 31898 253692.3 30060.5 Q 253062.3 28223 253062.3 25858.75 Q 253062.3 23478.75 253639.8 21606.25 Q 254217.3 19733.75 255267.3 18430 Q 256317.3 17126.25 257778.55 16443.75 Q 259239.8 15761.25 261009.05 15761.25 Q 262739.8 15761.25 264122.3 16382.5 Q 265504.8 17003.75 266467.3 18132.5 Q 267429.8 19261.25 267946.05 20845 Q 268462.3 22428.75 268462.3 24353.75 L 268462.3 26333 L 256352.3 26333 Q 256438.05 29708.75 257776.8 31301.25 Q 259115.55 32893.75 261756.3 32893.75 Q 262650.55 32893.75 263411.8 32806.25 Q 264173.05 32718.75 264881.8 32552.5 Q 265590.55 32386.25 266255.55 32132.5 Q 266920.55 31878.75 267601.3 31563.75 L 267601.3 34398.75 Q 266901.3 34733 266227.55 34978 Q 265553.8 35223 264845.05 35380.5 Q 264136.3 35538 263375.05 35608 Q 262613.8 35678 261719.55 35678 L 261724.8 35678 Z M 260939.05 18403.75 Q 258944.05 18403.75 257780.3 19768.75 Q 256616.55 21133.75 256425.8 23743 L 265035.8 23743 Q 265035.8 22553 264799.55 21564.25 Q 264563.3 20575.5 264064.55 19875.5 Q 263565.8 19175.5 262795.8 18790.5 Q 262025.8 18405.5 260940.8 18405.5 L 260939.05 18403.75 Z M 284726.65 30058.75 Q 284726.65 31458.75 284219.15 32508.75 Q 283711.65 33558.75 282757.9 34267.5 Q 281804.15 34976.25 280456.65 35326.25 Q 279109.15 35676.25 277429.15 35676.25 Q 275523.4 35676.25 274158.4 35370 Q 272793.4 35063.75 271759.15 34468.75 L 271759.15 31563.75 Q 272303.4 31843.75 272968.4 32115 Q 273633.4 32386.25 274368.4 32596.25 Q 275103.4 32806.25 275882.15 32937.5 Q 276660.9 33068.75 277430.9 33068.75 Q 278570.15 33068.75 279366.4 32876.25 Q 280162.65 32683.75 280661.4 32325 Q 281160.15 31966.25 281387.65 31450 Q 281615.15 30933.75 281615.15 30303.75 Q 281615.15 29763 281440.15 29325.5 Q 281265.15 28888 280801.4 28459.25 Q 280337.65 28030.5 279532.65 27593 Q 278727.65 27155.5 277467.65 26614.75 Q 276207.65 26070.5 275201.4 25545.5 Q 274195.15 25020.5 273495.15 24373 Q 272795.15 23725.5 272418.9 22876.75 Q 272042.65 22028 272042.65 20853.75 Q 272042.65 19628.75 272523.9 18675 Q 273005.15 17721.25 273880.15 17073.75 Q 274755.15 16426.25 275980.15 16093.75 Q 277205.15 15761.25 278710.15 15761.25 Q 280405.9 15761.25 281814.65 16128.75 Q 283223.4 16496.25 284483.4 17091.25 L 283379.15 19662 Q 282243.4 19156.25 281044.65 18780 Q 279845.9 18403.75 278605.15 18403.75 Q 276820.15 18403.75 275962.65 18990 Q 275105.15 19576.25 275105.15 20661.25 Q 275105.15 21272 275306.4 21727 Q 275507.65 22182 275997.65 22584.5 Q 276487.65 22987 277310.15 23398.25 Q 278132.65 23809.5 279357.65 24315.25 Q 280617.65 24840.25 281606.4 25365.25 Q 282595.15 25890.25 283295.15 26546.5 Q 283995.15 27202.75 284362.65 28042.75 Q 284730.15 28882.75 284730.15 30053.5 L 284726.65 30058.75 Z M 305019.65 25683.75 Q 305019.65 28083 304433.4 29946.75 Q 303847.15 31810.5 302753.4 33079.25 Q 301659.65 34348 300102.15 35013 Q 298544.65 35678 296600.4 35678 Q 294799.65 35678 293277.15 35013 Q 291754.65 34348 290643.4 33079.25 Q 289532.15 31810.5 288910.9 29946.75 Q 288289.65 28083 288289.65 25683.75 Q 288289.65 23303.75 288875.9 21457.5 Q 289462.15 19611.25 290547.15 18342.5 Q 291632.15 17073.75 293198.4 16417.5 Q 294764.65 15761.25 296705.4 15761.25 Q 298509.65 15761.25 300032.15 16417.5 Q 301554.65 17073.75 302665.9 18342.5 Q 303777.15 19611.25 304398.4 21457.5 Q 305019.65 23303.75 305019.65 25683.75  Z M 291579.65 25683.75 Q 291579.65 29343 292778.4 31189.25 Q 293977.15 33035.5 296672.15 33035.5 Q 299367.15 33035.5 300548.4 31189.25 Q 301729.65 29343 301729.65 25683.75 Q 301729.65 22028 300530.9 20216.75 Q 299332.15 18405.5 296637.15 18405.5 Q 293942.15 18405.5 292760.9 20216.75 Q 291579.65 22028 291579.65 25683.75  Z M 318405.65 15763 Q 318911.4 15763 319541.4 15806.75 Q 320171.4 15850.5 320626.4 15939.75 L 320206.4 18879.75 Q 319716.4 18790.5 319200.15 18729.25 Q 318683.9 18668 318228.9 18668 Q 317124.65 18668 316214.65 19114.25 Q 315304.65 19560.5 314648.4 20391.75 Q 313992.15 21223 313633.4 22386.75 Q 313274.65 23550.5 313274.65 24969.75 L 313274.65 35329.75 L 310089.65 35329.75 L 310089.65 16114.75 L 312679.65 16114.75 L 313064.65 19630.5 L 313204.65 19630.5 Q 313643.9 18879.75 314142.65 18179.75 Q 314641.4 17479.75 315262.65 16946 Q 315883.9 16412.25 316653.9 16088.5 Q 317423.9 15764.75 318403.9 15764.75 L 318405.65 15763 Z M 327612.4 35328 L 324427.4 35328 L 324427.4 16113 L 327612.4 16113 L 327612.4 35328 Z M 324677.65 13138 Q 325062.65 12628.75 325473.9 11963.75 Q 325885.15 11298.75 326296.4 10590 Q 326707.65 9881.25 327075.15 9172.5 Q 327442.65 8463.75 327722.65 7868.75 L 331553.4 7868.75 L 331553.4 8238 Q 331273.4 8708.75 330722.15 9417.5 Q 330170.9 10126.25 329497.15 10896.25 Q 328823.4 11666.25 328114.65 12392.5 Q 327405.9 13118.75 326791.65 13608.75 L 324675.9 13608.75 L 324675.9 13138 L 324677.65 13138 Z M 344477.65 35328 L 343828.4 32668 L 343688.4 32668 Q 343112.65 33453.75 342535.15 34022.5 Q 341957.65 34591.25 341275.15 34958.75 Q 340592.65 35326.25 339752.65 35501.25 Q 338912.65 35676.25 337808.4 35676.25 Q 336602.65 35676.25 335587.65 35335 Q 334572.65 34993.75 333828.9 34285 Q 333085.15 33576.25 332665.15 32500 Q 332245.15 31423.75 332245.15 29953.75 Q 332245.15 27083.75 334266.4 25543.75 Q 336287.65 24003.75 340417.65 23863.75 L 343637.65 23743 L 343637.65 22533.75 Q 343637.65 21363 343383.9 20575.5 Q 343130.15 19788 342648.9 19306.75 Q 342167.65 18825.5 341458.9 18615.5 Q 340750.15 18405.5 339840.15 18405.5 Q 338389.4 18405.5 337138.15 18825.5 Q 335886.9 19245.5 334731.9 19840.5 L 333611.9 17444.75 Q 334906.9 16744.75 336499.4 16254.75 Q 338091.9 15764.75 339841.9 15764.75 Q 341626.9 15764.75 342930.65 16123.5 Q 344234.4 16482.25 345083.15 17261 Q 345931.9 18039.75 346351.9 19247.25 Q 346771.9 20454.75 346771.9 22169.75 L 346771.9 35329.75 L 344481.15 35329.75 L 344477.65 35328 Z M 338632.65 33103.75 Q 339698.4 33103.75 340608.4 32771.25 Q 341518.4 32438.75 342183.4 31765 Q 342848.4 31091.25 343224.65 30067.5 Q 343600.9 29043.75 343600.9 27663 L 343600.9 25928.75 L 341096.65 26053 Q 339521.65 26123 338454.15 26403 Q 337386.65 26683 336747.9 27181.75 Q 336109.15 27680.5 335829.15 28389.25 Q 335549.15 29098 335549.15 29988.75 Q 335549.15 31598.75 336397.9 32351.25 Q 337246.65 33103.75 338630.9 33103.75 L 338632.65 33103.75 Z M 360193.4 27188.75 L 360193.4 24248.75 L 368873.4 24248.75 L 368873.4 27188.75 L 360193.4 27188.75 Z M 40098.8 86323.2 L 30823.8 86323.2 L 30823.8 84538.2 L 33833.8 83818.95 L 33833.8 63238.95 L 30823.8 62523.2 L 30823.8 60738.2 L 40098.8 60738.2 L 40098.8 62523.2 L 37088.8 63238.95 L 37088.8 83818.95 L 40098.8 84538.2 L 40098.8 86323.2 Z M 56522 86323.2 L 56522 73948.95 Q 56522 71673.95 55603.25 70536.45 Q 54684.5 69398.95 52724.5 69398.95 Q 51305.25 69398.95 50342.75 69853.95 Q 49380.25 70308.95 48794 71201.45 Q 48207.75 72093.95 47954 73388.95 Q 47700.25 74683.95 47700.25 76363.95 L 47700.25 86323.2 L 44515.25 86323.2 L 44515.25 67108.2 L 47105.25 67108.2 L 47560.25 69698.2 L 47735.25 69698.2 Q 48174.5 68943.95 48778.25 68392.7 Q 49382 67841.45 50099.5 67473.95 Q 50817 67106.45 51622 66931.45 Q 52427 66756.45 53267 66756.45 Q 56471.25 66756.45 58090 68427.7 Q 59708.75 70098.95 59708.75 73773.95 L 59708.75 86323.2 L 56523.75 86323.2 L 56522 86323.2 Z M 80365.2 67108.2 L 80365.2 69083.95 L 76919.45 69558.2 Q 77409.45 70168.95 77741.95 71122.7 Q 78074.45 72076.45 78074.45 73282.2 Q 78074.45 74612.2 77663.2 75740.95 Q 77251.95 76869.7 76420.7 77692.2 Q 75589.45 78514.7 74364.45 78978.45 Q 73139.45 79442.2 71510.2 79442.2 Q 71125.2 79442.2 70740.2 79433.45 Q 70355.2 79424.7 70110.2 79370.45 Q 69814.45 79545.45 69525.7 79764.2 Q 69236.95 79982.95 69000.7 80262.95 Q 68764.45 80542.95 68615.7 80892.95 Q 68466.95 81242.95 68466.95 81662.95 Q 68466.95 82133.7 68676.95 82422.45 Q 68886.95 82711.2 69245.7 82868.7 Q 69604.45 83026.2 70094.45 83078.7 Q 70584.45 83131.2 71125.2 83131.2 L 74205.2 83131.2 Q 75834.45 83131.2 76954.45 83542.45 Q 78074.45 83953.7 78783.2 84653.7 Q 79491.95 85353.7 79806.95 86307.45 Q 80121.95 87261.2 80121.95 88330.45 Q 80121.95 89870.45 79553.2 91095.45 Q 78984.45 92320.45 77811.95 93169.2 Q 76639.45 94017.95 74845.7 94472.95 Q 73051.95 94927.95 70621.2 94927.95 Q 68746.95 94927.95 67346.95 94560.45 Q 65946.95 94192.95 65019.45 93492.95 Q 64091.95 92792.95 63628.2 91804.2 Q 63164.45 90815.45 63164.45 89571.2 Q 63164.45 88521.2 63505.7 87724.95 Q 63846.95 86928.7 64424.45 86349.45 Q 65001.95 85770.2 65763.2 85402.7 Q 66524.45 85035.2 67345.2 84844.45 Q 66610.2 84510.2 66137.7 83792.7 Q 65665.2 83075.2 65665.2 82149.45 Q 65665.2 81080.2 66225.2 80301.45 Q 66785.2 79522.7 67994.45 78787.7 Q 67240.2 78472.7 66618.95 77921.45 Q 65997.7 77370.2 65568.95 76661.45 Q 65140.2 75952.7 64903.95 75112.7 Q 64667.7 74272.7 64667.7 73378.45 Q 64667.7 71822.7 65105.2 70597.7 Q 65542.7 69372.7 66400.2 68515.2 Q 67257.7 67657.7 68535.2 67202.7 Q 69812.7 66747.7 71508.45 66747.7 Q 72157.7 66747.7 72848.95 66843.95 Q 73540.2 66940.2 74014.45 67099.45 L 80365.2 67099.45 L 80365.2 67108.2 Z M 66174.45 89473.2 Q 66174.45 90122.45 66401.95 90682.45 Q 66629.45 91242.45 67145.7 91644.95 Q 67661.95 92047.45 68510.7 92283.7 Q 69359.45 92519.95 70619.45 92519.95 Q 73874.45 92519.95 75493.2 91513.7 Q 77111.95 90507.45 77111.95 88617.45 Q 77111.95 87812.45 76901.95 87304.95 Q 76691.95 86797.45 76210.7 86508.7 Q 75729.45 86219.95 74941.95 86114.95 Q 74154.45 86009.95 73015.2 86009.95 L 69935.2 86009.95 Q 69324.45 86009.95 68659.45 86149.95 Q 67994.45 86289.95 67443.2 86674.95 Q 66891.95 87059.95 66533.2 87733.7 Q 66174.45 88407.45 66174.45 89473.2  Z M 67784.45 73283.95 Q 67784.45 75298.2 68729.45 76278.2 Q 69674.45 77258.2 71405.2 77258.2 Q 73155.2 77258.2 74056.45 76286.95 Q 74957.7 75315.7 74957.7 73234.95 Q 74957.7 71080.7 74038.95 70065.7 Q 73120.2 69050.7 71370.2 69050.7 Q 69639.45 69050.7 68711.95 70100.7 Q 67784.45 71150.7 67784.45 73285.7 L 67784.45 73283.95 Z M 87228.4 86323.2 L 84043.4 86323.2 L 84043.4 59093.2 L 87228.4 59093.2 L 87228.4 86323.2 Z M 100854.4 86673.2 Q 98929.4 86673.2 97336.9 86025.7 Q 95744.4 85378.2 94598.15 84135.7 Q 93451.9 82893.2 92821.9 81055.7 Q 92191.9 79218.2 92191.9 76853.95 Q 92191.9 74473.95 92769.4 72601.45 Q 93346.9 70728.95 94396.9 69425.2 Q 95446.9 68121.45 96908.15 67438.95 Q 98369.4 66756.45 100138.65 66756.45 Q 101869.4 66756.45 103251.9 67377.7 Q 104634.4 67998.95 105596.9 69127.7 Q 106559.4 70256.45 107075.65 71840.2 Q 107591.9 73423.95 107591.9 75348.95 L 107591.9 77328.2 L 95481.9 77328.2 Q 95567.65 80703.95 96906.4 82296.45 Q 98245.15 83888.95 100885.9 83888.95 Q 101780.15 83888.95 102541.4 83801.45 Q 103302.65 83713.95 104011.4 83547.7 Q 104720.15 83381.45 105385.15 83127.7 Q 106050.15 82873.95 106730.9 82558.95 L 106730.9 85393.95 Q 106030.9 85728.2 105357.15 85973.2 Q 104683.4 86218.2 103974.65 86375.7 Q 103265.9 86533.2 102504.65 86603.2 Q 101743.4 86673.2 100849.15 86673.2 L 100854.4 86673.2 Z M 100068.65 69398.95 Q 98073.65 69398.95 96909.9 70763.95 Q 95746.15 72128.95 95555.4 74738.2 L 104165.4 74738.2 Q 104165.4 73548.2 103929.15 72559.45 Q 103692.9 71570.7 103194.15 70870.7 Q 102695.4 70170.7 101925.4 69785.7 Q 101155.4 69400.7 100070.4 69400.7 L 100068.65 69398.95 Z M 98586.4 64133.2 Q 98971.4 63623.95 99382.65 62958.95 Q 99793.9 62293.95 100205.15 61585.2 Q 100616.4 60876.45 100983.9 60167.7 Q 101351.4 59458.95 101631.4 58863.95 L 105462.15 58863.95 L 105462.15 59233.2 Q 105182.15 59703.95 104630.9 60412.7 Q 104079.65 61121.45 103405.9 61891.45 Q 102732.15 62661.45 102023.4 63387.7 Q 101314.65 64113.95 100700.4 64603.95 L 98584.65 64603.95 L 98584.65 64133.2 L 98586.4 64133.2 Z M 123856.25 81053.95 Q 123856.25 82453.95 123348.75 83503.95 Q 122841.25 84553.95 121887.5 85262.7 Q 120933.75 85971.45 119586.25 86321.45 Q 118238.75 86671.45 116558.75 86671.45 Q 114653 86671.45 113288 86365.2 Q 111923 86058.95 110888.75 85463.95 L 110888.75 82558.95 Q 111433 82838.95 112098 83110.2 Q 112763 83381.45 113498 83591.45 Q 114233 83801.45 115011.75 83932.7 Q 115790.5 84063.95 116560.5 84063.95 Q 117699.75 84063.95 118496 83871.45 Q 119292.25 83678.95 119791 83320.2 Q 120289.75 82961.45 120517.25 82445.2 Q 120744.75 81928.95 120744.75 81298.95 Q 120744.75 80758.2 120569.75 80320.7 Q 120394.75 79883.2 119931 79454.45 Q 119467.25 79025.7 118662.25 78588.2 Q 117857.25 78150.7 116597.25 77609.95 Q 115337.25 77065.7 114331 76540.7 Q 113324.75 76015.7 112624.75 75368.2 Q 111924.75 74720.7 111548.5 73871.95 Q 111172.25 73023.2 111172.25 71848.95 Q 111172.25 70623.95 111653.5 69670.2 Q 112134.75 68716.45 113009.75 68068.95 Q 113884.75 67421.45 115109.75 67088.95 Q 116334.75 66756.45 117839.75 66756.45 Q 119535.5 66756.45 120944.25 67123.95 Q 122353 67491.45 123613 68086.45 L 122508.75 70657.2 Q 121373 70151.45 120174.25 69775.2 Q 118975.5 69398.95 117734.75 69398.95 Q 115949.75 69398.95 115092.25 69985.2 Q 114234.75 70571.45 114234.75 71656.45 Q 114234.75 72267.2 114436 72722.2 Q 114637.25 73177.2 115127.25 73579.7 Q 115617.25 73982.2 116439.75 74393.45 Q 117262.25 74804.7 118487.25 75310.45 Q 119747.25 75835.45 120736 76360.45 Q 121724.75 76885.45 122424.75 77541.7 Q 123124.75 78197.95 123492.25 79037.95 Q 123859.75 79877.95 123859.75 81048.7 L 123856.25 81053.95 Z M 145051 86673.2 Q 143285.25 86673.2 141745.25 86121.95 Q 140205.25 85570.7 139067.75 84371.95 Q 137930.25 83173.2 137282.75 81309.45 Q 136635.25 79445.7 136635.25 76820.7 Q 136635.25 74074.95 137300.25 72158.7 Q 137965.25 70242.45 139129 69043.7 Q 140292.75 67844.95 141850.25 67302.45 Q 143407.75 66759.95 145192.75 66759.95 Q 146557.75 66759.95 147861.5 67057.45 Q 149165.25 67354.95 150040.25 67790.7 L 149095.25 70485.7 Q 148691 70310.7 148201 70144.45 Q 147711 69978.2 147186 69846.95 Q 146661 69715.7 146153.5 69636.95 Q 145646 69558.2 145191 69558.2 Q 142445.25 69558.2 141185.25 71316.95 Q 139925.25 73075.7 139925.25 76785.7 Q 139925.25 80479.95 141194 82186.2 Q 142462.75 83892.45 145052.75 83892.45 Q 146472 83892.45 147618.25 83568.7 Q 148764.5 83244.95 149709.5 82805.7 L 149709.5 85640.7 Q 148764.5 86149.95 147688.25 86412.45 Q 146612 86674.95 145052.75 86674.95 L 145051 86673.2 Z M 169902.85 76678.95 Q 169902.85 79078.2 169316.6 80941.95 Q 168730.35 82805.7 167636.6 84074.45 Q 166542.85 85343.2 164985.35 86008.2 Q 163427.85 86673.2 161483.6 86673.2 Q 159682.85 86673.2 158160.35 86008.2 Q 156637.85 85343.2 155526.6 84074.45 Q 154415.35 82805.7 153794.1 80941.95 Q 153172.85 79078.2 153172.85 76678.95 Q 153172.85 74298.95 153759.1 72452.7 Q 154345.35 70606.45 155430.35 69337.7 Q 156515.35 68068.95 158081.6 67412.7 Q 159647.85 66756.45 161588.6 66756.45 Q 163392.85 66756.45 164915.35 67412.7 Q 166437.85 68068.95 167549.1 69337.7 Q 168660.35 70606.45 169281.6 72452.7 Q 169902.85 74298.95 169902.85 76678.95  Z M 156462.85 76678.95 Q 156462.85 80338.2 157661.6 82184.45 Q 158860.35 84030.7 161555.35 84030.7 Q 164250.35 84030.7 165431.6 82184.45 Q 166612.85 80338.2 166612.85 76678.95 Q 166612.85 73023.2 165414.1 71211.95 Q 164215.35 69400.7 161520.35 69400.7 Q 158825.35 69400.7 157644.1 71211.95 Q 156462.85 73023.2 156462.85 76678.95  Z M 186979.6 86323.2 L 186979.6 73948.95 Q 186979.6 71673.95 186060.85 70536.45 Q 185142.1 69398.95 183182.1 69398.95 Q 181762.85 69398.95 180800.35 69853.95 Q 179837.85 70308.95 179251.6 71201.45 Q 178665.35 72093.95 178411.6 73388.95 Q 178157.85 74683.95 178157.85 76363.95 L 178157.85 86323.2 L 174972.85 86323.2 L 174972.85 67108.2 L 177562.85 67108.2 L 178017.85 69698.2 L 178192.85 69698.2 Q 178632.1 68943.95 179235.85 68392.7 Q 179839.6 67841.45 180557.1 67473.95 Q 181274.6 67106.45 182079.6 66931.45 Q 182884.6 66756.45 183724.6 66756.45 Q 186928.85 66756.45 188547.6 68427.7 Q 190166.35 70098.95 190166.35 73773.95 L 190166.35 86323.2 L 186981.35 86323.2 L 186979.6 86323.2 Z M 213913.8 86673.2 Q 212883.05 86673.2 212043.05 86445.7 Q 211203.05 86218.2 210529.3 85841.95 Q 209855.55 85465.7 209339.3 84958.2 Q 208823.05 84450.7 208418.8 83890.7 L 208208.8 83890.7 Q 208263.05 84485.7 208313.8 85029.95 Q 208348.8 85484.95 208383.8 85966.2 Q 208418.8 86447.45 208418.8 86727.45 L 208418.8 94933.2 L 205233.8 94933.2 L 205233.8 67108.2 L 207823.8 67108.2 L 208278.8 69698.2 L 208418.8 69698.2 Q 208823.05 69083.95 209330.55 68550.2 Q 209838.05 68016.45 210511.8 67622.7 Q 211185.55 67228.95 212025.55 66992.7 Q 212865.55 66756.45 213915.55 66756.45 Q 215560.55 66756.45 216908.05 67386.45 Q 218255.55 68016.45 219209.3 69267.7 Q 220163.05 70518.95 220688.05 72373.95 Q 221213.05 74228.95 221213.05 76678.95 Q 221213.05 79148.2 220688.05 81011.95 Q 220163.05 82875.7 219209.3 84135.7 Q 218255.55 85395.7 216908.05 86034.45 Q 215560.55 86673.2 213915.55 86673.2 L 213913.8 86673.2 Z M 213303.05 69398.95 Q 211973.05 69398.95 211054.3 69801.45 Q 210135.55 70203.95 209566.8 71026.45 Q 208998.05 71848.95 208726.8 73073.95 Q 208455.55 74298.95 208420.55 75963.2 L 208420.55 76678.95 Q 208420.55 78448.2 208656.8 79821.95 Q 208893.05 81195.7 209461.8 82131.95 Q 210030.55 83068.2 210975.55 83549.45 Q 211920.55 84030.7 213339.8 84030.7 Q 215700.55 84030.7 216811.8 82123.2 Q 217923.05 80215.7 217923.05 76645.7 Q 217923.05 73005.7 216811.8 71203.2 Q 215700.55 69400.7 213304.8 69400.7 L 213303.05 69398.95 Z M 234591.25 66758.2 Q 235097 66758.2 235727 66801.95 Q 236357 66845.7 236812 66934.95 L 236392 69874.95 Q 235902 69785.7 235385.75 69724.45 Q 234869.5 69663.2 234414.5 69663.2 Q 233310.25 69663.2 232400.25 70109.45 Q 231490.25 70555.7 230834 71386.95 Q 230177.75 72218.2 229819 73381.95 Q 229460.25 74545.7 229460.25 75964.95 L 229460.25 86324.95 L 226275.25 86324.95 L 226275.25 67109.95 L 228865.25 67109.95 L 229250.25 70625.7 L 229390.25 70625.7 Q 229829.5 69874.95 230328.25 69174.95 Q 230827 68474.95 231448.25 67941.2 Q 232069.5 67407.45 232839.5 67083.7 Q 233609.5 66759.95 234589.5 66759.95 L 234591.25 66758.2 Z M 256277.25 76678.95 Q 256277.25 79078.2 255691 80941.95 Q 255104.75 82805.7 254011 84074.45 Q 252917.25 85343.2 251359.75 86008.2 Q 249802.25 86673.2 247858 86673.2 Q 246057.25 86673.2 244534.75 86008.2 Q 243012.25 85343.2 241901 84074.45 Q 240789.75 82805.7 240168.5 80941.95 Q 239547.25 79078.2 239547.25 76678.95 Q 239547.25 74298.95 240133.5 72452.7 Q 240719.75 70606.45 241804.75 69337.7 Q 242889.75 68068.95 244456 67412.7 Q 246022.25 66756.45 247963 66756.45 Q 249767.25 66756.45 251289.75 67412.7 Q 252812.25 68068.95 253923.5 69337.7 Q 255034.75 70606.45 255656 72452.7 Q 256277.25 74298.95 256277.25 76678.95  Z M 242837.25 76678.95 Q 242837.25 80338.2 244036 82184.45 Q 245234.75 84030.7 247929.75 84030.7 Q 250624.75 84030.7 251806 82184.45 Q 252987.25 80338.2 252987.25 76678.95 Q 252987.25 73023.2 251788.5 71211.95 Q 250589.75 69400.7 247894.75 69400.7 Q 245199.75 69400.7 244018.5 71211.95 Q 242837.25 73023.2 242837.25 76678.95  Z M 270029 86673.2 Q 268998.25 86673.2 268158.25 86445.7 Q 267318.25 86218.2 266644.5 85841.95 Q 265970.75 85465.7 265454.5 84958.2 Q 264938.25 84450.7 264534 83890.7 L 264324 83890.7 Q 264378.25 84485.7 264429 85029.95 Q 264464 85484.95 264499 85966.2 Q 264534 86447.45 264534 86727.45 L 264534 94933.2 L 261349 94933.2 L 261349 67108.2 L 263939 67108.2 L 264394 69698.2 L 264534 69698.2 Q 264938.25 69083.95 265445.75 68550.2 Q 265953.25 68016.45 266627 67622.7 Q 267300.75 67228.95 268140.75 66992.7 Q 268980.75 66756.45 270030.75 66756.45 Q 271675.75 66756.45 273023.25 67386.45 Q 274370.75 68016.45 275324.5 69267.7 Q 276278.25 70518.95 276803.25 72373.95 Q 277328.25 74228.95 277328.25 76678.95 Q 277328.25 79148.2 276803.25 81011.95 Q 276278.25 82875.7 275324.5 84135.7 Q 274370.75 85395.7 273023.25 86034.45 Q 271675.75 86673.2 270030.75 86673.2 L 270029 86673.2 Z M 269418.25 69398.95 Q 268088.25 69398.95 267169.5 69801.45 Q 266250.75 70203.95 265682 71026.45 Q 265113.25 71848.95 264842 73073.95 Q 264570.75 74298.95 264535.75 75963.2 L 264535.75 76678.95 Q 264535.75 78448.2 264772 79821.95 Q 265008.25 81195.7 265577 82131.95 Q 266145.75 83068.2 267090.75 83549.45 Q 268035.75 84030.7 269455 84030.7 Q 271815.75 84030.7 272927 82123.2 Q 274038.25 80215.7 274038.25 76645.7 Q 274038.25 73005.7 272927 71203.2 Q 271815.75 69400.7 269420 69400.7 L 269418.25 69398.95 Z M 298056.45 76678.95 Q 298056.45 79078.2 297470.2 80941.95 Q 296883.95 82805.7 295790.2 84074.45 Q 294696.45 85343.2 293138.95 86008.2 Q 291581.45 86673.2 289637.2 86673.2 Q 287836.45 86673.2 286313.95 86008.2 Q 284791.45 85343.2 283680.2 84074.45 Q 282568.95 82805.7 281947.7 80941.95 Q 281326.45 79078.2 281326.45 76678.95 Q 281326.45 74298.95 281912.7 72452.7 Q 282498.95 70606.45 283583.95 69337.7 Q 284668.95 68068.95 286235.2 67412.7 Q 287801.45 66756.45 289742.2 66756.45 Q 291546.45 66756.45 293068.95 67412.7 Q 294591.45 68068.95 295702.7 69337.7 Q 296813.95 70606.45 297435.2 72452.7 Q 298056.45 74298.95 298056.45 76678.95  Z M 284616.45 76678.95 Q 284616.45 80338.2 285815.2 82184.45 Q 287013.95 84030.7 289708.95 84030.7 Q 292403.95 84030.7 293585.2 82184.45 Q 294766.45 80338.2 294766.45 76678.95 Q 294766.45 73023.2 293567.7 71211.95 Q 292368.95 69400.7 289673.95 69400.7 Q 286978.95 69400.7 285797.7 71211.95 Q 284616.45 73023.2 284616.45 76678.95  Z M 287719.2 64133.2 Q 288104.2 63623.95 288515.45 62958.95 Q 288926.7 62293.95 289337.95 61585.2 Q 289749.2 60876.45 290116.7 60167.7 Q 290484.2 59458.95 290764.2 58863.95 L 294594.95 58863.95 L 294594.95 59233.2 Q 294314.95 59703.95 293763.7 60412.7 Q 293212.45 61121.45 292538.7 61891.45 Q 291864.95 62661.45 291156.2 63387.7 Q 290447.45 64113.95 289833.2 64603.95 L 287717.45 64603.95 L 287717.45 64133.2 L 287719.2 64133.2 Z M 314627.45 81053.95 Q 314627.45 82453.95 314119.95 83503.95 Q 313612.45 84553.95 312658.7 85262.7 Q 311704.95 85971.45 310357.45 86321.45 Q 309009.95 86671.45 307329.95 86671.45 Q 305424.2 86671.45 304059.2 86365.2 Q 302694.2 86058.95 301659.95 85463.95 L 301659.95 82558.95 Q 302204.2 82838.95 302869.2 83110.2 Q 303534.2 83381.45 304269.2 83591.45 Q 305004.2 83801.45 305782.95 83932.7 Q 306561.7 84063.95 307331.7 84063.95 Q 308470.95 84063.95 309267.2 83871.45 Q 310063.45 83678.95 310562.2 83320.2 Q 311060.95 82961.45 311288.45 82445.2 Q 311515.95 81928.95 311515.95 81298.95 Q 311515.95 80758.2 311340.95 80320.7 Q 311165.95 79883.2 310702.2 79454.45 Q 310238.45 79025.7 309433.45 78588.2 Q 308628.45 78150.7 307368.45 77609.95 Q 306108.45 77065.7 305102.2 76540.7 Q 304095.95 76015.7 303395.95 75368.2 Q 302695.95 74720.7 302319.7 73871.95 Q 301943.45 73023.2 301943.45 71848.95 Q 301943.45 70623.95 302424.7 69670.2 Q 302905.95 68716.45 303780.95 68068.95 Q 304655.95 67421.45 305880.95 67088.95 Q 307105.95 66756.45 308610.95 66756.45 Q 310306.7 66756.45 311715.45 67123.95 Q 313124.2 67491.45 314384.2 68086.45 L 313279.95 70657.2 Q 312144.2 70151.45 310945.45 69775.2 Q 309746.7 69398.95 308505.95 69398.95 Q 306720.95 69398.95 305863.45 69985.2 Q 305005.95 70571.45 305005.95 71656.45 Q 305005.95 72267.2 305207.2 72722.2 Q 305408.45 73177.2 305898.45 73579.7 Q 306388.45 73982.2 307210.95 74393.45 Q 308033.45 74804.7 309258.45 75310.45 Q 310518.45 75835.45 311507.2 76360.45 Q 312495.95 76885.45 313195.95 77541.7 Q 313895.95 78197.95 314263.45 79037.95 Q 314630.95 79877.95 314630.95 81048.7 L 314627.45 81053.95 Z M 322441.2 86323.2 L 319256.2 86323.2 L 319256.2 67108.2 L 322441.2 67108.2 L 322441.2 86323.2 Z M 319011.2 61908.95 Q 319011.2 60858.95 319544.95 60386.45 Q 320078.7 59913.95 320864.45 59913.95 Q 321249.45 59913.95 321590.7 60027.7 Q 321931.95 60141.45 322185.7 60386.45 Q 322439.45 60631.45 322588.2 61007.7 Q 322736.95 61383.95 322736.95 61908.95 Q 322736.95 62923.95 322185.7 63422.7 Q 321634.45 63921.45 320864.45 63921.45 Q 320078.7 63921.45 319544.95 63431.45 Q 319011.2 62941.45 319011.2 61907.2 L 319011.2 61908.95 Z M 334282.2 84063.95 Q 334597.2 84063.95 334990.95 84028.95 Q 335384.7 83993.95 335752.2 83941.45 Q 336119.7 83888.95 336425.95 83818.95 Q 336732.2 83748.95 336891.45 83698.2 L 336891.45 86113.2 Q 336662.2 86218.2 336312.2 86323.2 Q 335962.2 86428.2 335542.2 86506.95 Q 335122.2 86585.7 334667.2 86629.45 Q 334212.2 86673.2 333776.45 86673.2 Q 332691.45 86673.2 331763.95 86393.2 Q 330836.45 86113.2 330162.7 85430.7 Q 329488.95 84748.2 329103.95 83584.45 Q 328718.95 82420.7 328718.95 80654.95 L 328718.95 69505.7 L 326008.2 69505.7 L 326008.2 68089.95 L 328718.95 66724.95 L 330083.95 62699.95 L 331923.2 62699.95 L 331923.2 67109.95 L 336753.2 67109.95 L 336753.2 69505.7 L 331923.2 69505.7 L 331923.2 80654.95 Q 331923.2 82350.7 332474.45 83208.2 Q 333025.7 84065.7 334285.7 84065.7 L 334282.2 84063.95 Z M 356219.65 76678.95 Q 356219.65 79078.2 355633.4 80941.95 Q 355047.15 82805.7 353953.4 84074.45 Q 352859.65 85343.2 351302.15 86008.2 Q 349744.65 86673.2 347800.4 86673.2 Q 345999.65 86673.2 344477.15 86008.2 Q 342954.65 85343.2 341843.4 84074.45 Q 340732.15 82805.7 340110.9 80941.95 Q 339489.65 79078.2 339489.65 76678.95 Q 339489.65 74298.95 340075.9 72452.7 Q 340662.15 70606.45 341747.15 69337.7 Q 342832.15 68068.95 344398.4 67412.7 Q 345964.65 66756.45 347905.4 66756.45 Q 349709.65 66756.45 351232.15 67412.7 Q 352754.65 68068.95 353865.9 69337.7 Q 354977.15 70606.45 355598.4 72452.7 Q 356219.65 74298.95 356219.65 76678.95  Z M 342779.65 76678.95 Q 342779.65 80338.2 343978.4 82184.45 Q 345177.15 84030.7 347872.15 84030.7 Q 350567.15 84030.7 351748.4 82184.45 Q 352929.65 80338.2 352929.65 76678.95 Q 352929.65 73023.2 351730.9 71211.95 Q 350532.15 69400.7 347837.15 69400.7 Q 345142.15 69400.7 343960.9 71211.95 Q 342779.65 73023.2 342779.65 76678.95  Z " fill-rule="nonzero" style="fill:#56626c;;fill-opacity:1;"/>
</svg>