<svg version="1.1" x="0" y="0" width="100%" height="100%" viewBox="0 0 110899.2 32716.8" xmlns="http://www.w3.org/2000/svg">
  <path d="M 17360 15890.8 Q 17360 18112 16784 19786 Q 16208 21460 15116 22582 Q 14024 23704 12434 24268 Q 10844 24832 8828 24832 L 4436 24832 L 4436 7288 L 9318.8 7288 Q 11156 7288 12644 7840 Q 14132 8392 15176 9478 Q 16220 10564 16790 12172 Q 17360 13780 17360 15892 L 17360 15890.8 Z M 14997.2 15962.8 Q 14997.2 14210.8 14601.2 12932.8 Q 14205.2 11654.8 13449.2 10826.8 Q 12693.2 9998.8 11589.2 9596.8 Q 10485.2 9194.8 9080 9194.8 L 6669.2 9194.8 L 6669.2 22912 L 8613.2 22912 Q 11781.2 22912 13389.2 21160 Q 14997.2 19408 14997.2 15962.8  Z M 28387.6 24832 L 28062.4 23066.8 L 27942.4 23066.8 Q 27643.6 23584 27229.6 23962 Q 26815.6 24340 26323.6 24586 Q 25831.6 24832 25279.6 24952 Q 24727.6 25072 24151.6 25072 Q 23060.8 25072 22232.8 24796 Q 21404.8 24520 20852.8 23932 Q 20300.8 23344 20018.8 22432 Q 19736.8 21520 19736.8 20258.8 L 19736.8 11656 L 21920.8 11656 L 21920.8 20138.8 Q 21920.8 21698.8 22556.8 22478.8 Q 23192.8 23258.8 24526 23258.8 Q 25496.8 23258.8 26156.8 22946.8 Q 26816.8 22634.8 27218.8 22028.8 Q 27620.8 21422.8 27794.8 20534.8 Q 27968.8 19646.8 27968.8 18494.8 L 27968.8 11654.8 L 30152.8 11654.8 L 30152.8 24830.8 L 28390 24830.8 L 28387.6 24832 Z M 38970 11416 Q 39316.8 11416 39748.8 11446 Q 40180.8 11476 40492.8 11537.2 L 40204.8 13553.2 Q 39868.8 13492 39514.8 13450 Q 39160.8 13408 38848.8 13408 Q 38091.6 13408 37467.6 13714 Q 36843.6 14020 36393.6 14590 Q 35943.6 15160 35697.6 15958 Q 35451.6 16756 35451.6 17729.2 L 35451.6 24833.2 L 33267.6 24833.2 L 33267.6 11657.2 L 35043.6 11657.2 L 35307.6 14068 L 35403.6 14068 Q 35704.8 13553.2 36046.8 13073.2 Q 36388.8 12593.2 36814.8 12227.2 Q 37240.8 11861.2 37768.8 11639.2 Q 38296.8 11417.2 38968.8 11417.2 L 38970 11416 Z M 49504.4 24832 L 49059.2 23008 L 48963.2 23008 Q 48568.4 23546.8 48172.4 23936.8 Q 47776.4 24326.8 47308.4 24578.8 Q 46840.4 24830.8 46264.4 24950.8 Q 45688.4 25070.8 44931.2 25070.8 Q 44104.4 25070.8 43408.4 24836.8 Q 42712.4 24602.8 42202.4 24116.8 Q 41692.4 23630.8 41404.4 22892.8 Q 41116.4 22154.8 41116.4 21146.8 Q 41116.4 19178.8 42502.4 18122.8 Q 43888.4 17066.8 46720.4 16970.8 L 48928.4 16888 L 48928.4 16058.8 Q 48928.4 15256 48754.4 14716 Q 48580.4 14176 48250.4 13846 Q 47920.4 13516 47434.4 13372 Q 46948.4 13228 46324.4 13228 Q 45329.6 13228 44471.6 13516 Q 43613.6 13804 42821.6 14212 L 42053.6 12569.2 Q 42941.6 12089.2 44033.6 11753.2 Q 45125.6 11417.2 46325.6 11417.2 Q 47549.6 11417.2 48443.6 11663.2 Q 49337.6 11909.2 49919.6 12443.2 Q 50501.6 12977.2 50789.6 13805.2 Q 51077.6 14633.2 51077.6 15809.2 L 51077.6 24833.2 L 49506.8 24833.2 L 49504.4 24832 Z M 45496.4 23306.8 Q 46227.2 23306.8 46851.2 23078.8 Q 47475.2 22850.8 47931.2 22388.8 Q 48387.2 21926.8 48645.2 21224.8 Q 48903.2 20522.8 48903.2 19576 L 48903.2 18386.8 L 47186 18472 Q 46106 18520 45374 18712 Q 44642 18904 44204 19246 Q 43766 19588 43574 20074 Q 43382 20560 43382 21170.8 Q 43382 22274.8 43964 22790.8 Q 44546 23306.8 45495.2 23306.8 L 45496.4 23306.8 Z M 59044.8 25072 Q 57834 25072 56778 24694 Q 55722 24316 54942 23494 Q 54162 22672 53718 21394 Q 53274 20116 53274 18316 Q 53274 16433.2 53730 15119.2 Q 54186 13805.2 54984 12983.2 Q 55782 12161.2 56850 11789.2 Q 57918 11417.2 59142 11417.2 Q 60078 11417.2 60972 11621.2 Q 61866 11825.2 62466 12124 L 61818 13972 Q 61540.8 13852 61204.8 13738 Q 60868.8 13624 60508.8 13534 Q 60148.8 13444 59800.8 13390 Q 59452.8 13336 59140.8 13336 Q 57258 13336 56394 14542 Q 55530 15748 55530 18292 Q 55530 20825.2 56400 21995.2 Q 57270 23165.2 59046 23165.2 Q 60019.2 23165.2 60805.2 22943.2 Q 61591.2 22721.2 62239.2 22420 L 62239.2 24364 Q 61591.2 24713.2 60853.2 24893.2 Q 60115.2 25073.2 59046 25073.2 L 59044.8 25072 Z M 66531.2 24832 L 64347.2 24832 L 64347.2 11656 L 66531.2 11656 L 66531.2 24832 Z M 64179.2 8090.8 Q 64179.2 7370.8 64545.2 7046.8 Q 64911.2 6722.8 65450 6722.8 Q 65714 6722.8 65948 6800.8 Q 66182 6878.8 66356 7046.8 Q 66530 7214.8 66632 7472.8 Q 66734 7730.8 66734 8090.8 Q 66734 8786.8 66356 9128.8 Q 65978 9470.8 65450 9470.8 Q 64911.2 9470.8 64545.2 9134.8 Q 64179.2 8798.8 64179.2 8089.6 L 64179.2 8090.8 Z M 80362 18218.8 Q 80362 19864 79960 21142 Q 79558 22420 78808 23290 Q 78058 24160 76990 24616 Q 75922 25072 74588.8 25072 Q 73354 25072 72310 24616 Q 71266 24160 70504 23290 Q 69742 22420 69316 21142 Q 68890 19864 68890 18218.8 Q 68890 16586.8 69292 15320.8 Q 69694 14054.8 70438 13184.8 Q 71182 12314.8 72256 11864.8 Q 73330 11414.8 74660.8 11414.8 Q 75898 11414.8 76942 11864.8 Q 77986 12314.8 78748 13184.8 Q 79510 14054.8 79936 15320.8 Q 80362 16586.8 80362 18218.8  Z M 71146 18218.8 Q 71146 20728 71968 21994 Q 72790 23260 74638 23260 Q 76486 23260 77296 21994 Q 78106 20728 78106 18218.8 Q 78106 15712 77284 14470 Q 76462 13228 74614 13228 Q 72766 13228 71956 14470 Q 71146 15712 71146 18218.8  Z M 73273.6 9616 Q 73537.6 9266.8 73819.6 8810.8 Q 74101.6 8354.8 74383.6 7868.8 Q 74665.6 7382.8 74917.6 6896.8 Q 75169.6 6410.8 75361.6 6002.8 L 77988.4 6002.8 L 77988.4 6256 Q 77796.4 6578.8 77418.4 7064.8 Q 77040.4 7550.8 76578.4 8078.8 Q 76116.4 8606.8 75630.4 9104.8 Q 75144.4 9602.8 74723.2 9938.8 L 73272.4 9938.8 L 73272.4 9616 L 73273.6 9616 Z M 91011.2 24832 L 91011.2 16346.8 Q 91011.2 14786.8 90381.2 14006.8 Q 89751.2 13226.8 88407.2 13226.8 Q 87434 13226.8 86774 13538.8 Q 86114 13850.8 85712 14462.8 Q 85310 15074.8 85136 15962.8 Q 84962 16850.8 84962 18002.8 L 84962 24832 L 82778 24832 L 82778 11656 L 84554 11656 L 84866 13432 L 84986 13432 Q 85287.2 12914.8 85701.2 12536.8 Q 86115.2 12158.8 86607.2 11906.8 Q 87099.2 11654.8 87651.2 11534.8 Q 88203.2 11414.8 88779.2 11414.8 Q 90976.4 11414.8 92086.4 12560.8 Q 93196.4 13706.8 93196.4 16226.8 L 93196.4 24832 L 91012.4 24832 L 91011.2 24832 Z " fill-rule="nonzero" style="fill:#a0a6af;;fill-opacity:1;"/>
</svg>