<svg version="1.1" x="0" y="0" width="100%" height="100%" viewBox="0 0 218521.6 29644.8" xmlns="http://www.w3.org/2000/svg">
  <path d="M 18561.6 24832 L 9454.8 24832 L 9454.8 7288 L 18561.6 7288 L 18561.6 9256 L 11686.8 9256 L 11686.8 14680 L 18105.6 14680 L 18105.6 16624 L 11686.8 16624 L 11686.8 22864 L 18561.6 22864 L 18561.6 24832 Z M 28291.2 24832 L 28291.2 16346.8 Q 28291.2 14786.8 27661.2 14006.8 Q 27031.2 13226.8 25687.2 13226.8 Q 24714 13226.8 24054 13538.8 Q 23394 13850.8 22992 14462.8 Q 22590 15074.8 22416 15962.8 Q 22242 16850.8 22242 18002.8 L 22242 24832 L 20058 24832 L 20058 11656 L 21834 11656 L 22146 13432 L 22266 13432 Q 22567.2 12914.8 22981.2 12536.8 Q 23395.2 12158.8 23887.2 11906.8 Q 24379.2 11654.8 24931.2 11534.8 Q 25483.2 11414.8 26059.2 11414.8 Q 28256.4 11414.8 29366.4 12560.8 Q 30476.4 13706.8 30476.4 16226.8 L 30476.4 24832 L 28292.4 24832 L 28291.2 24832 Z M 38174.8 13298.8 L 35233.6 13298.8 L 35233.6 24832 L 33038.8 24832 L 33038.8 13298.8 L 30710.8 13298.8 L 30710.8 12400 L 33038.8 11584 L 33038.8 10432 Q 33038.8 9146.8 33308.8 8300.8 Q 33578.8 7454.8 34088.8 6950.8 Q 34598.8 6446.8 35342.8 6236.8 Q 36086.8 6026.8 37022.8 6026.8 Q 37729.6 6026.8 38323.6 6164.8 Q 38917.6 6302.8 39384.4 6470.8 L 38821.6 8161.6 Q 38448.4 8030.8 38010.4 7928.8 Q 37572.4 7826.8 37092.4 7826.8 Q 36612.4 7826.8 36264.4 7940.8 Q 35916.4 8054.8 35688.4 8342.8 Q 35460.4 8630.8 35346.4 9128.8 Q 35232.4 9626.8 35232.4 10408 L 35232.4 11656 L 38173.6 11656 L 38173.6 13298.8 L 38174.8 13298.8 Z M 49181.2 18218.8 Q 49181.2 19864 48779.2 21142 Q 48377.2 22420 47627.2 23290 Q 46877.2 24160 45809.2 24616 Q 44741.2 25072 43408 25072 Q 42173.2 25072 41129.2 24616 Q 40085.2 24160 39323.2 23290 Q 38561.2 22420 38135.2 21142 Q 37709.2 19864 37709.2 18218.8 Q 37709.2 16586.8 38111.2 15320.8 Q 38513.2 14054.8 39257.2 13184.8 Q 40001.2 12314.8 41075.2 11864.8 Q 42149.2 11414.8 43480 11414.8 Q 44717.2 11414.8 45761.2 11864.8 Q 46805.2 12314.8 47567.2 13184.8 Q 48329.2 14054.8 48755.2 15320.8 Q 49181.2 16586.8 49181.2 18218.8  Z M 39965.2 18218.8 Q 39965.2 20728 40787.2 21994 Q 41609.2 23260 43457.2 23260 Q 45305.2 23260 46115.2 21994 Q 46925.2 20728 46925.2 18218.8 Q 46925.2 15712 46103.2 14470 Q 45281.2 13228 43433.2 13228 Q 41585.2 13228 40775.2 14470 Q 39965.2 15712 39965.2 18218.8  Z M 55267.6 23258.8 Q 56179.6 23258.8 56809.6 22982.8 Q 57439.6 22706.8 57829.6 22142.8 Q 58219.6 21578.8 58405.6 20732.8 Q 58591.6 19886.8 58615.6 18758.8 L 58615.6 18265.6 Q 58615.6 17054.8 58453.6 16112.8 Q 58291.6 15170.8 57901.6 14528.8 Q 57511.6 13886.8 56863.6 13556.8 Q 56215.6 13226.8 55244.8 13226.8 Q 53623.6 13226.8 52861.6 14534.8 Q 52099.6 15842.8 52099.6 18290.8 Q 52099.6 20800 52861.6 22030 Q 53623.6 23260 55268.8 23260 L 55267.6 23258.8 Z M 54846.4 25072 Q 53731.6 25072 52807.6 24640 Q 51883.6 24208 51223.6 23350 Q 50563.6 22492 50203.6 21220 Q 49843.6 19948 49843.6 18268 Q 49843.6 16577.2 50203.6 15299.2 Q 50563.6 14021.2 51223.6 13157.2 Q 51883.6 12293.2 52807.6 11855.2 Q 53731.6 11417.2 54846.4 11417.2 Q 55555.6 11417.2 56131.6 11579.2 Q 56707.6 11741.2 57163.6 12011.2 Q 57619.6 12281.2 57979.6 12647.2 Q 58339.6 13013.2 58614.4 13434.4 L 58710.4 13434.4 L 59035.6 11658.4 L 60798.4 11658.4 L 60798.4 30738.4 L 58614.4 30738.4 L 58614.4 25111.6 Q 58614.4 24882.4 58638.4 24534.4 Q 58662.4 24186.4 58686.4 23861.2 Q 58723.6 23477.2 58758.4 23069.2 L 58614.4 23069.2 Q 58350.4 23477.2 57996.4 23843.2 Q 57642.4 24209.2 57180.4 24485.2 Q 56718.4 24761.2 56142.4 24917.2 Q 55566.4 25073.2 54846.4 25073.2 L 54846.4 25072 Z M 71498 24832 L 71172.8 23066.8 L 71052.8 23066.8 Q 70754 23584 70340 23962 Q 69926 24340 69434 24586 Q 68942 24832 68390 24952 Q 67838 25072 67262 25072 Q 66171.2 25072 65343.2 24796 Q 64515.2 24520 63963.2 23932 Q 63411.2 23344 63129.2 22432 Q 62847.2 21520 62847.2 20258.8 L 62847.2 11656 L 65031.2 11656 L 65031.2 20138.8 Q 65031.2 21698.8 65667.2 22478.8 Q 66303.2 23258.8 67636.4 23258.8 Q 68607.2 23258.8 69267.2 22946.8 Q 69927.2 22634.8 70329.2 22028.8 Q 70731.2 21422.8 70905.2 20534.8 Q 71079.2 19646.8 71079.2 18494.8 L 71079.2 11654.8 L 73263.2 11654.8 L 73263.2 24830.8 L 71500.4 24830.8 L 71498 24832 Z M 80563.2 25072 Q 79243.2 25072 78151.2 24628 Q 77059.2 24184 76273.2 23332 Q 75487.2 22480 75055.2 21220 Q 74623.2 19960 74623.2 18338.8 Q 74623.2 16706.8 75019.2 15422.8 Q 75415.2 14138.8 76135.2 13244.8 Q 76855.2 12350.8 77857.2 11882.8 Q 78859.2 11414.8 80072.4 11414.8 Q 81259.2 11414.8 82207.2 11840.8 Q 83155.2 12266.8 83815.2 13040.8 Q 84475.2 13814.8 84829.2 14900.8 Q 85183.2 15986.8 85183.2 17306.8 L 85183.2 18664 L 76879.2 18664 Q 76938 20978.8 77856 22070.8 Q 78774 23162.8 80584.8 23162.8 Q 81198 23162.8 81720 23102.8 Q 82242 23042.8 82728 22928.8 Q 83214 22814.8 83670 22640.8 Q 84126 22466.8 84592.8 22250.8 L 84592.8 24194.8 Q 84112.8 24424 83650.8 24592 Q 83188.8 24760 82702.8 24868 Q 82216.8 24976 81694.8 25024 Q 81172.8 25072 80559.6 25072 L 80563.2 25072 Z M 80024.4 13226.8 Q 78656.4 13226.8 77858.4 14162.8 Q 77060.4 15098.8 76929.6 16888 L 82833.6 16888 Q 82833.6 16072 82671.6 15394 Q 82509.6 14716 82167.6 14236 Q 81825.6 13756 81297.6 13492 Q 80769.6 13228 80025.6 13228 L 80024.4 13226.8 Z M 95652.8 25072 Q 94442 25072 93386 24694 Q 92330 24316 91550 23494 Q 90770 22672 90326 21394 Q 89882 20116 89882 18316 Q 89882 16433.2 90338 15119.2 Q 90794 13805.2 91592 12983.2 Q 92390 12161.2 93458 11789.2 Q 94526 11417.2 95750 11417.2 Q 96686 11417.2 97580 11621.2 Q 98474 11825.2 99074 12124 L 98426 13972 Q 98148.8 13852 97812.8 13738 Q 97476.8 13624 97116.8 13534 Q 96756.8 13444 96408.8 13390 Q 96060.8 13336 95748.8 13336 Q 93866 13336 93002 14542 Q 92138 15748 92138 18292 Q 92138 20825.2 93008 21995.2 Q 93878 23165.2 95654 23165.2 Q 96627.2 23165.2 97413.2 22943.2 Q 98199.2 22721.2 98847.2 22420 L 98847.2 24364 Q 98199.2 24713.2 97461.2 24893.2 Q 96723.2 25073.2 95654 25073.2 L 95652.8 25072 Z M 110672.4 18218.8 Q 110672.4 19864 110270.4 21142 Q 109868.4 22420 109118.4 23290 Q 108368.4 24160 107300.4 24616 Q 106232.4 25072 104899.2 25072 Q 103664.4 25072 102620.4 24616 Q 101576.4 24160 100814.4 23290 Q 100052.4 22420 99626.4 21142 Q 99200.4 19864 99200.4 18218.8 Q 99200.4 16586.8 99602.4 15320.8 Q 100004.4 14054.8 100748.4 13184.8 Q 101492.4 12314.8 102566.4 11864.8 Q 103640.4 11414.8 104971.2 11414.8 Q 106208.4 11414.8 107252.4 11864.8 Q 108296.4 12314.8 109058.4 13184.8 Q 109820.4 14054.8 110246.4 15320.8 Q 110672.4 16586.8 110672.4 18218.8  Z M 101456.4 18218.8 Q 101456.4 20728 102278.4 21994 Q 103100.4 23260 104948.4 23260 Q 106796.4 23260 107606.4 21994 Q 108416.4 20728 108416.4 18218.8 Q 108416.4 15712 107594.4 14470 Q 106772.4 13228 104924.4 13228 Q 103076.4 13228 102266.4 14470 Q 101456.4 15712 101456.4 18218.8  Z M 127846.8 24832 L 127846.8 16346.8 Q 127846.8 14786.8 127246.8 14006.8 Q 126646.8 13226.8 125385.6 13226.8 Q 124510.8 13226.8 123898.8 13508.8 Q 123286.8 13790.8 122896.8 14336.8 Q 122506.8 14882.8 122326.8 15692.8 Q 122146.8 16502.8 122146.8 17558.8 L 122146.8 24830.8 L 119952 24830.8 L 119952 16345.6 Q 119952 14785.6 119358 14005.6 Q 118764 13225.6 117505.2 13225.6 Q 116580 13225.6 115956 13537.6 Q 115332 13849.6 114954 14461.6 Q 114576 15073.6 114414 15961.6 Q 114252 16849.6 114252 18001.6 L 114252 24830.8 L 112068 24830.8 L 112068 11654.8 L 113844 11654.8 L 114156 13430.8 L 114276 13430.8 Q 114564 12913.6 114960 12535.6 Q 115356 12157.6 115830 11905.6 Q 116304 11653.6 116838 11533.6 Q 117372 11413.6 117924 11413.6 Q 119364 11413.6 120318 11941.6 Q 121272 12469.6 121728 13597.6 L 121824 13597.6 Q 122136 13032.4 122574 12624.4 Q 123012 12216.4 123534 11946.4 Q 124056 11676.4 124632 11544.4 Q 125208 11412.4 125808 11412.4 Q 127906.8 11412.4 128968.8 12558.4 Q 130030.8 13704.4 130030.8 16224.4 L 130030.8 24829.6 L 127846.8 24829.6 L 127846.8 24832 Z M 140515.6 24832 L 140190.4 23066.8 L 140070.4 23066.8 Q 139771.6 23584 139357.6 23962 Q 138943.6 24340 138451.6 24586 Q 137959.6 24832 137407.6 24952 Q 136855.6 25072 136279.6 25072 Q 135188.8 25072 134360.8 24796 Q 133532.8 24520 132980.8 23932 Q 132428.8 23344 132146.8 22432 Q 131864.8 21520 131864.8 20258.8 L 131864.8 11656 L 134048.8 11656 L 134048.8 20138.8 Q 134048.8 21698.8 134684.8 22478.8 Q 135320.8 23258.8 136654 23258.8 Q 137624.8 23258.8 138284.8 22946.8 Q 138944.8 22634.8 139346.8 22028.8 Q 139748.8 21422.8 139922.8 20534.8 Q 140096.8 19646.8 140096.8 18494.8 L 140096.8 11654.8 L 142280.8 11654.8 L 142280.8 24830.8 L 140518 24830.8 L 140515.6 24832 Z M 152604.8 24832 L 152604.8 16346.8 Q 152604.8 14786.8 151974.8 14006.8 Q 151344.8 13226.8 150000.8 13226.8 Q 149027.6 13226.8 148367.6 13538.8 Q 147707.6 13850.8 147305.6 14462.8 Q 146903.6 15074.8 146729.6 15962.8 Q 146555.6 16850.8 146555.6 18002.8 L 146555.6 24832 L 144371.6 24832 L 144371.6 11656 L 146147.6 11656 L 146459.6 13432 L 146579.6 13432 Q 146880.8 12914.8 147294.8 12536.8 Q 147708.8 12158.8 148200.8 11906.8 Q 148692.8 11654.8 149244.8 11534.8 Q 149796.8 11414.8 150372.8 11414.8 Q 152570 11414.8 153680 12560.8 Q 154790 13706.8 154790 16226.8 L 154790 24832 L 152606 24832 L 152604.8 24832 Z M 158947.2 24832 L 156763.2 24832 L 156763.2 11656 L 158947.2 11656 L 158947.2 24832 Z M 156595.2 8090.8 Q 156595.2 7370.8 156961.2 7046.8 Q 157327.2 6722.8 157866 6722.8 Q 158130 6722.8 158364 6800.8 Q 158598 6878.8 158772 7046.8 Q 158946 7214.8 159048 7472.8 Q 159150 7730.8 159150 8090.8 Q 159150 8786.8 158772 9128.8 Q 158394 9470.8 157866 9470.8 Q 157327.2 9470.8 156961.2 9134.8 Q 156595.2 8798.8 156595.2 8089.6 L 156595.2 8090.8 Z M 166052.8 25072 Q 164842 25072 163786 24694 Q 162730 24316 161950 23494 Q 161170 22672 160726 21394 Q 160282 20116 160282 18316 Q 160282 16433.2 160738 15119.2 Q 161194 13805.2 161992 12983.2 Q 162790 12161.2 163858 11789.2 Q 164926 11417.2 166150 11417.2 Q 167086 11417.2 167980 11621.2 Q 168874 11825.2 169474 12124 L 168826 13972 Q 168548.8 13852 168212.8 13738 Q 167876.8 13624 167516.8 13534 Q 167156.8 13444 166808.8 13390 Q 166460.8 13336 166148.8 13336 Q 164266 13336 163402 14542 Q 162538 15748 162538 18292 Q 162538 20825.2 163408 21995.2 Q 164278 23165.2 166054 23165.2 Q 167027.2 23165.2 167813.2 22943.2 Q 168599.2 22721.2 169247.2 22420 L 169247.2 24364 Q 168599.2 24713.2 167861.2 24893.2 Q 167123.2 25073.2 166054 25073.2 L 166052.8 25072 Z M 177760.4 24832 L 177315.2 23008 L 177219.2 23008 Q 176824.4 23546.8 176428.4 23936.8 Q 176032.4 24326.8 175564.4 24578.8 Q 175096.4 24830.8 174520.4 24950.8 Q 173944.4 25070.8 173187.2 25070.8 Q 172360.4 25070.8 171664.4 24836.8 Q 170968.4 24602.8 170458.4 24116.8 Q 169948.4 23630.8 169660.4 22892.8 Q 169372.4 22154.8 169372.4 21146.8 Q 169372.4 19178.8 170758.4 18122.8 Q 172144.4 17066.8 174976.4 16970.8 L 177184.4 16888 L 177184.4 16058.8 Q 177184.4 15256 177010.4 14716 Q 176836.4 14176 176506.4 13846 Q 176176.4 13516 175690.4 13372 Q 175204.4 13228 174580.4 13228 Q 173585.6 13228 172727.6 13516 Q 171869.6 13804 171077.6 14212 L 170309.6 12569.2 Q 171197.6 12089.2 172289.6 11753.2 Q 173381.6 11417.2 174581.6 11417.2 Q 175805.6 11417.2 176699.6 11663.2 Q 177593.6 11909.2 178175.6 12443.2 Q 178757.6 12977.2 179045.6 13805.2 Q 179333.6 14633.2 179333.6 15809.2 L 179333.6 24833.2 L 177762.8 24833.2 L 177760.4 24832 Z M 173752.4 23306.8 Q 174483.2 23306.8 175107.2 23078.8 Q 175731.2 22850.8 176187.2 22388.8 Q 176643.2 21926.8 176901.2 21224.8 Q 177159.2 20522.8 177159.2 19576 L 177159.2 18386.8 L 175442 18472 Q 174362 18520 173630 18712 Q 172898 18904 172460 19246 Q 172022 19588 171830 20074 Q 171638 20560 171638 21170.8 Q 171638 22274.8 172220 22790.8 Q 172802 23306.8 173751.2 23306.8 L 173752.4 23306.8 Z M 185220.8 23282.8 Q 185436.8 23282.8 185706.8 23258.8 Q 185976.8 23234.8 186228.8 23198.8 Q 186480.8 23162.8 186690.8 23114.8 Q 186900.8 23066.8 187010 23032 L 187010 24688 Q 186852.8 24760 186612.8 24832 Q 186372.8 24904 186084.8 24958 Q 185796.8 25012 185484.8 25042 Q 185172.8 25072 184874 25072 Q 184130 25072 183494 24880 Q 182858 24688 182396 24220 Q 181934 23752 181670 22954 Q 181406 22156 181406 20945.2 L 181406 13300 L 179547.2 13300 L 179547.2 12329.2 L 181406 11393.2 L 182342 8633.2 L 183603.2 8633.2 L 183603.2 11657.2 L 186915.2 11657.2 L 186915.2 13300 L 183603.2 13300 L 183603.2 20945.2 Q 183603.2 22108 183981.2 22696 Q 184359.2 23284 185223.2 23284 L 185220.8 23282.8 Z M 189667.2 24832 L 187483.2 24832 L 187483.2 11656 L 189667.2 11656 L 189667.2 24832 Z M 187315.2 8090.8 Q 187315.2 7370.8 187681.2 7046.8 Q 188047.2 6722.8 188586 6722.8 Q 188850 6722.8 189084 6800.8 Q 189318 6878.8 189492 7046.8 Q 189666 7214.8 189768 7472.8 Q 189870 7730.8 189870 8090.8 Q 189870 8786.8 189492 9128.8 Q 189114 9470.8 188586 9470.8 Q 188047.2 9470.8 187681.2 9134.8 Q 187315.2 8798.8 187315.2 8089.6 L 187315.2 8090.8 Z M 194146 24832 L 189644.8 11656 L 191900.8 11656 L 194290 18986.8 Q 194420.8 19384 194600.8 20008 Q 194780.8 20632 194960.8 21280 Q 195140.8 21928 195290.8 22504 Q 195440.8 23080 195488.8 23378.8 L 195571.6 23378.8 Q 195632.8 23080 195776.8 22504 Q 195920.8 21928 196100.8 21280 Q 196280.8 20632 196460.8 20008 Q 196640.8 19384 196771.6 18986.8 L 199160.8 11656 L 201416.8 11656 L 196915.6 24832 L 194144.8 24832 L 194146 24832 Z M 212150.8 18218.8 Q 212150.8 19864 211748.8 21142 Q 211346.8 22420 210596.8 23290 Q 209846.8 24160 208778.8 24616 Q 207710.8 25072 206377.6 25072 Q 205142.8 25072 204098.8 24616 Q 203054.8 24160 202292.8 23290 Q 201530.8 22420 201104.8 21142 Q 200678.8 19864 200678.8 18218.8 Q 200678.8 16586.8 201080.8 15320.8 Q 201482.8 14054.8 202226.8 13184.8 Q 202970.8 12314.8 204044.8 11864.8 Q 205118.8 11414.8 206449.6 11414.8 Q 207686.8 11414.8 208730.8 11864.8 Q 209774.8 12314.8 210536.8 13184.8 Q 211298.8 14054.8 211724.8 15320.8 Q 212150.8 16586.8 212150.8 18218.8  Z M 202934.8 18218.8 Q 202934.8 20728 203756.8 21994 Q 204578.8 23260 206426.8 23260 Q 208274.8 23260 209084.8 21994 Q 209894.8 20728 209894.8 18218.8 Q 209894.8 15712 209072.8 14470 Q 208250.8 13228 206402.8 13228 Q 204554.8 13228 203744.8 14470 Q 202934.8 15712 202934.8 18218.8  Z " fill-rule="nonzero" style="fill:#f2f2f2;;fill-opacity:1;"/>
</svg>