<svg version="1.1" x="0" y="0" width="100%" height="100%" viewBox="0 0 271001.6 62361.6" xmlns="http://www.w3.org/2000/svg">
  <path d="M 22758.8 16034.8 Q 22758.8 18064 22272.8 19732 Q 21786.8 21400 20826.8 22588 Q 19866.8 23776 18444.8 24424 Q 17022.8 25072 15161.6 25072 Q 13206.8 25072 11772.8 24424 Q 10338.8 23776 9396.8 22588 Q 8454.8 21400 7998.8 19726 Q 7542.8 18052 7542.8 16012 Q 7542.8 13972 7998.8 12310 Q 8454.8 10648 9402.8 9472 Q 10350.8 8296 11790.8 7654 Q 13230.8 7012 15185.6 7012 Q 17046.8 7012 18456.8 7654 Q 19866.8 8296 20826.8 9478 Q 21786.8 10660 22272.8 12322 Q 22758.8 13984 22758.8 16034.8  Z M 9905.6 16034.8 Q 9905.6 17680 10217.6 18994 Q 10529.6 20308 11171.6 21226 Q 11813.6 22144 12803.6 22630 Q 13793.6 23116 15161.6 23116 Q 16529.6 23116 17519.6 22630 Q 18509.6 22144 19151.6 21226 Q 19793.6 20308 20093.6 18994 Q 20393.6 17680 20393.6 16034.8 Q 20393.6 14378.8 20093.6 13070.8 Q 19793.6 11762.8 19157.6 10856.8 Q 18521.6 9950.8 17537.6 9464.8 Q 16553.6 8978.8 15185.6 8978.8 Q 13817.6 8978.8 12821.6 9464.8 Q 11825.6 9950.8 11177.6 10856.8 Q 10529.6 11762.8 10217.6 13070.8 Q 9905.6 14378.8 9905.6 16034.8  Z M 26441.6 24832 L 24257.6 24832 L 24257.6 6160 L 26441.6 6160 L 26441.6 24832 Z M 30920.4 24832 L 26419.2 11656 L 28675.2 11656 L 31064.4 18986.8 Q 31195.2 19384 31375.2 20008 Q 31555.2 20632 31735.2 21280 Q 31915.2 21928 32065.2 22504 Q 32215.2 23080 32263.2 23378.8 L 32346 23378.8 Q 32407.2 23080 32551.2 22504 Q 32695.2 21928 32875.2 21280 Q 33055.2 20632 33235.2 20008 Q 33415.2 19384 33546 18986.8 L 35935.2 11656 L 38191.2 11656 L 33690 24832 L 30919.2 24832 L 30920.4 24832 Z M 40368 24832 L 38184 24832 L 38184 11656 L 40368 11656 L 40368 24832 Z M 38355.6 9616 Q 38619.6 9266.8 38901.6 8810.8 Q 39183.6 8354.8 39465.6 7868.8 Q 39747.6 7382.8 39999.6 6896.8 Q 40251.6 6410.8 40443.6 6002.8 L 43070.4 6002.8 L 43070.4 6256 Q 42878.4 6578.8 42500.4 7064.8 Q 42122.4 7550.8 41660.4 8078.8 Q 41198.4 8606.8 40712.4 9104.8 Q 40226.4 9602.8 39805.2 9938.8 L 38354.4 9938.8 L 38354.4 9616 L 38355.6 9616 Z M 50569.6 23066.8 L 50473.6 23066.8 Q 50209.6 23474.8 49855.6 23840.8 Q 49501.6 24206.8 49039.6 24482.8 Q 48577.6 24758.8 48001.6 24914.8 Q 47425.6 25070.8 46705.6 25070.8 Q 45590.8 25070.8 44666.8 24638.8 Q 43742.8 24206.8 43082.8 23348.8 Q 42422.8 22490.8 42062.8 21218.8 Q 41702.8 19946.8 41702.8 18266.8 Q 41702.8 16576 42062.8 15298 Q 42422.8 14020 43082.8 13156 Q 43742.8 12292 44666.8 11854 Q 45590.8 11416 46705.6 11416 Q 47414.8 11416 47990.8 11572 Q 48566.8 11728 49028.8 11992 Q 49490.8 12256 49850.8 12604 Q 50210.8 12952 50474.8 13336 L 50618.8 13336 Q 50584 12928 50546.8 12554.8 Q 50522.8 12242.8 50498.8 11912.8 Q 50474.8 11582.8 50474.8 11390.8 L 50474.8 6158.8 L 52658.8 6158.8 L 52658.8 24830.8 L 50896 24830.8 L 50570.8 23065.6 L 50569.6 23066.8 Z M 47126.8 23258.8 Q 48038.8 23258.8 48668.8 22982.8 Q 49298.8 22706.8 49688.8 22142.8 Q 50078.8 21578.8 50264.8 20732.8 Q 50450.8 19886.8 50474.8 18758.8 L 50474.8 18265.6 Q 50474.8 17054.8 50312.8 16112.8 Q 50150.8 15170.8 49760.8 14528.8 Q 49370.8 13886.8 48722.8 13556.8 Q 48074.8 13226.8 47104 13226.8 Q 45482.8 13226.8 44720.8 14534.8 Q 43958.8 15842.8 43958.8 18290.8 Q 43958.8 20800 44720.8 22030 Q 45482.8 23260 47128 23260 L 47126.8 23258.8 Z M 62253.2 24832 L 61808 23008 L 61712 23008 Q 61317.2 23546.8 60921.2 23936.8 Q 60525.2 24326.8 60057.2 24578.8 Q 59589.2 24830.8 59013.2 24950.8 Q 58437.2 25070.8 57680 25070.8 Q 56853.2 25070.8 56157.2 24836.8 Q 55461.2 24602.8 54951.2 24116.8 Q 54441.2 23630.8 54153.2 22892.8 Q 53865.2 22154.8 53865.2 21146.8 Q 53865.2 19178.8 55251.2 18122.8 Q 56637.2 17066.8 59469.2 16970.8 L 61677.2 16888 L 61677.2 16058.8 Q 61677.2 15256 61503.2 14716 Q 61329.2 14176 60999.2 13846 Q 60669.2 13516 60183.2 13372 Q 59697.2 13228 59073.2 13228 Q 58078.4 13228 57220.4 13516 Q 56362.4 13804 55570.4 14212 L 54802.4 12569.2 Q 55690.4 12089.2 56782.4 11753.2 Q 57874.4 11417.2 59074.4 11417.2 Q 60298.4 11417.2 61192.4 11663.2 Q 62086.4 11909.2 62668.4 12443.2 Q 63250.4 12977.2 63538.4 13805.2 Q 63826.4 14633.2 63826.4 15809.2 L 63826.4 24833.2 L 62255.6 24833.2 L 62253.2 24832 Z M 58245.2 23306.8 Q 58976 23306.8 59600 23078.8 Q 60224 22850.8 60680 22388.8 Q 61136 21926.8 61394 21224.8 Q 61652 20522.8 61652 19576 L 61652 18386.8 L 59934.8 18472 Q 58854.8 18520 58122.8 18712 Q 57390.8 18904 56952.8 19246 Q 56514.8 19588 56322.8 20074 Q 56130.8 20560 56130.8 21170.8 Q 56130.8 22274.8 56712.8 22790.8 Q 57294.8 23306.8 58244 23306.8 L 58245.2 23306.8 Z M 69713.6 23282.8 Q 69929.6 23282.8 70199.6 23258.8 Q 70469.6 23234.8 70721.6 23198.8 Q 70973.6 23162.8 71183.6 23114.8 Q 71393.6 23066.8 71502.8 23032 L 71502.8 24688 Q 71345.6 24760 71105.6 24832 Q 70865.6 24904 70577.6 24958 Q 70289.6 25012 69977.6 25042 Q 69665.6 25072 69366.8 25072 Q 68622.8 25072 67986.8 24880 Q 67350.8 24688 66888.8 24220 Q 66426.8 23752 66162.8 22954 Q 65898.8 22156 65898.8 20945.2 L 65898.8 13300 L 64040 13300 L 64040 12329.2 L 65898.8 11393.2 L 66834.8 8633.2 L 68096 8633.2 L 68096 11657.2 L 71408 11657.2 L 71408 13300 L 68096 13300 L 68096 20945.2 Q 68096 22108 68474 22696 Q 68852 23284 69716 23284 L 69713.6 23282.8 Z M 77184 25072 Q 75864 25072 74772 24628 Q 73680 24184 72894 23332 Q 72108 22480 71676 21220 Q 71244 19960 71244 18338.8 Q 71244 16706.8 71640 15422.8 Q 72036 14138.8 72756 13244.8 Q 73476 12350.8 74478 11882.8 Q 75480 11414.8 76693.2 11414.8 Q 77880 11414.8 78828 11840.8 Q 79776 12266.8 80436 13040.8 Q 81096 13814.8 81450 14900.8 Q 81804 15986.8 81804 17306.8 L 81804 18664 L 73500 18664 Q 73558.8 20978.8 74476.8 22070.8 Q 75394.8 23162.8 77205.6 23162.8 Q 77818.8 23162.8 78340.8 23102.8 Q 78862.8 23042.8 79348.8 22928.8 Q 79834.8 22814.8 80290.8 22640.8 Q 80746.8 22466.8 81213.6 22250.8 L 81213.6 24194.8 Q 80733.6 24424 80271.6 24592 Q 79809.6 24760 79323.6 24868 Q 78837.6 24976 78315.6 25024 Q 77793.6 25072 77180.4 25072 L 77184 25072 Z M 76645.2 13226.8 Q 75277.2 13226.8 74479.2 14162.8 Q 73681.2 15098.8 73550.4 16888 L 79454.4 16888 Q 79454.4 16072 79292.4 15394 Q 79130.4 14716 78788.4 14236 Q 78446.4 13756 77918.4 13492 Q 77390.4 13228 76646.4 13228 L 76645.2 13226.8 Z M 95369.6 23066.8 L 95273.6 23066.8 Q 95009.6 23474.8 94655.6 23840.8 Q 94301.6 24206.8 93839.6 24482.8 Q 93377.6 24758.8 92801.6 24914.8 Q 92225.6 25070.8 91505.6 25070.8 Q 90390.8 25070.8 89466.8 24638.8 Q 88542.8 24206.8 87882.8 23348.8 Q 87222.8 22490.8 86862.8 21218.8 Q 86502.8 19946.8 86502.8 18266.8 Q 86502.8 16576 86862.8 15298 Q 87222.8 14020 87882.8 13156 Q 88542.8 12292 89466.8 11854 Q 90390.8 11416 91505.6 11416 Q 92214.8 11416 92790.8 11572 Q 93366.8 11728 93828.8 11992 Q 94290.8 12256 94650.8 12604 Q 95010.8 12952 95274.8 13336 L 95418.8 13336 Q 95384 12928 95346.8 12554.8 Q 95322.8 12242.8 95298.8 11912.8 Q 95274.8 11582.8 95274.8 11390.8 L 95274.8 6158.8 L 97458.8 6158.8 L 97458.8 24830.8 L 95696 24830.8 L 95370.8 23065.6 L 95369.6 23066.8 Z M 91926.8 23258.8 Q 92838.8 23258.8 93468.8 22982.8 Q 94098.8 22706.8 94488.8 22142.8 Q 94878.8 21578.8 95064.8 20732.8 Q 95250.8 19886.8 95274.8 18758.8 L 95274.8 18265.6 Q 95274.8 17054.8 95112.8 16112.8 Q 94950.8 15170.8 94560.8 14528.8 Q 94170.8 13886.8 93522.8 13556.8 Q 92874.8 13226.8 91904 13226.8 Q 90282.8 13226.8 89520.8 14534.8 Q 88758.8 15842.8 88758.8 18290.8 Q 88758.8 20800 89520.8 22030 Q 90282.8 23260 91928 23260 L 91926.8 23258.8 Z M 104832 25072 Q 103512 25072 102420 24628 Q 101328 24184 100542 23332 Q 99756 22480 99324 21220 Q 98892 19960 98892 18338.8 Q 98892 16706.8 99288 15422.8 Q 99684 14138.8 100404 13244.8 Q 101124 12350.8 102126 11882.8 Q 103128 11414.8 104341.2 11414.8 Q 105528 11414.8 106476 11840.8 Q 107424 12266.8 108084 13040.8 Q 108744 13814.8 109098 14900.8 Q 109452 15986.8 109452 17306.8 L 109452 18664 L 101148 18664 Q 101206.8 20978.8 102124.8 22070.8 Q 103042.8 23162.8 104853.6 23162.8 Q 105466.8 23162.8 105988.8 23102.8 Q 106510.8 23042.8 106996.8 22928.8 Q 107482.8 22814.8 107938.8 22640.8 Q 108394.8 22466.8 108861.6 22250.8 L 108861.6 24194.8 Q 108381.6 24424 107919.6 24592 Q 107457.6 24760 106971.6 24868 Q 106485.6 24976 105963.6 25024 Q 105441.6 25072 104828.4 25072 L 104832 25072 Z M 104293.2 13226.8 Q 102925.2 13226.8 102127.2 14162.8 Q 101329.2 15098.8 101198.4 16888 L 107102.4 16888 Q 107102.4 16072 106940.4 15394 Q 106778.4 14716 106436.4 14236 Q 106094.4 13756 105566.4 13492 Q 105038.4 13228 104294.4 13228 L 104293.2 13226.8 Z M 119921.6 25072 Q 118710.8 25072 117654.8 24694 Q 116598.8 24316 115818.8 23494 Q 115038.8 22672 114594.8 21394 Q 114150.8 20116 114150.8 18316 Q 114150.8 16433.2 114606.8 15119.2 Q 115062.8 13805.2 115860.8 12983.2 Q 116658.8 12161.2 117726.8 11789.2 Q 118794.8 11417.2 120018.8 11417.2 Q 120954.8 11417.2 121848.8 11621.2 Q 122742.8 11825.2 123342.8 12124 L 122694.8 13972 Q 122417.6 13852 122081.6 13738 Q 121745.6 13624 121385.6 13534 Q 121025.6 13444 120677.6 13390 Q 120329.6 13336 120017.6 13336 Q 118134.8 13336 117270.8 14542 Q 116406.8 15748 116406.8 18292 Q 116406.8 20825.2 117276.8 21995.2 Q 118146.8 23165.2 119922.8 23165.2 Q 120896 23165.2 121682 22943.2 Q 122468 22721.2 123116 22420 L 123116 24364 Q 122468 24713.2 121730 24893.2 Q 120992 25073.2 119922.8 25073.2 L 119921.6 25072 Z M 129408 25072 Q 128088 25072 126996 24628 Q 125904 24184 125118 23332 Q 124332 22480 123900 21220 Q 123468 19960 123468 18338.8 Q 123468 16706.8 123864 15422.8 Q 124260 14138.8 124980 13244.8 Q 125700 12350.8 126702 11882.8 Q 127704 11414.8 128917.2 11414.8 Q 130104 11414.8 131052 11840.8 Q 132000 12266.8 132660 13040.8 Q 133320 13814.8 133674 14900.8 Q 134028 15986.8 134028 17306.8 L 134028 18664 L 125724 18664 Q 125782.8 20978.8 126700.8 22070.8 Q 127618.8 23162.8 129429.6 23162.8 Q 130042.8 23162.8 130564.8 23102.8 Q 131086.8 23042.8 131572.8 22928.8 Q 132058.8 22814.8 132514.8 22640.8 Q 132970.8 22466.8 133437.6 22250.8 L 133437.6 24194.8 Q 132957.6 24424 132495.6 24592 Q 132033.6 24760 131547.6 24868 Q 131061.6 24976 130539.6 25024 Q 130017.6 25072 129404.4 25072 L 129408 25072 Z M 128869.2 13226.8 Q 127501.2 13226.8 126703.2 14162.8 Q 125905.2 15098.8 125774.4 16888 L 131678.4 16888 Q 131678.4 16072 131516.4 15394 Q 131354.4 14716 131012.4 14236 Q 130670.4 13756 130142.4 13492 Q 129614.4 13228 128870.4 13228 L 128869.2 13226.8 Z M 143440 24832 L 143440 16346.8 Q 143440 14786.8 142810 14006.8 Q 142180 13226.8 140836 13226.8 Q 139862.8 13226.8 139202.8 13538.8 Q 138542.8 13850.8 138140.8 14462.8 Q 137738.8 15074.8 137564.8 15962.8 Q 137390.8 16850.8 137390.8 18002.8 L 137390.8 24832 L 135206.8 24832 L 135206.8 11656 L 136982.8 11656 L 137294.8 13432 L 137414.8 13432 Q 137716 12914.8 138130 12536.8 Q 138544 12158.8 139036 11906.8 Q 139528 11654.8 140080 11534.8 Q 140632 11414.8 141208 11414.8 Q 143405.2 11414.8 144515.2 12560.8 Q 145625.2 13706.8 145625.2 16226.8 L 145625.2 24832 L 143441.2 24832 L 143440 24832 Z M 151582.4 23282.8 Q 151798.4 23282.8 152068.4 23258.8 Q 152338.4 23234.8 152590.4 23198.8 Q 152842.4 23162.8 153052.4 23114.8 Q 153262.4 23066.8 153371.6 23032 L 153371.6 24688 Q 153214.4 24760 152974.4 24832 Q 152734.4 24904 152446.4 24958 Q 152158.4 25012 151846.4 25042 Q 151534.4 25072 151235.6 25072 Q 150491.6 25072 149855.6 24880 Q 149219.6 24688 148757.6 24220 Q 148295.6 23752 148031.6 22954 Q 147767.6 22156 147767.6 20945.2 L 147767.6 13300 L 145908.8 13300 L 145908.8 12329.2 L 147767.6 11393.2 L 148703.6 8633.2 L 149964.8 8633.2 L 149964.8 11657.2 L 153276.8 11657.2 L 153276.8 13300 L 149964.8 13300 L 149964.8 20945.2 Q 149964.8 22108 150342.8 22696 Q 150720.8 23284 151584.8 23284 L 151582.4 23282.8 Z M 159546 11416 Q 159892.8 11416 160324.8 11446 Q 160756.8 11476 161068.8 11537.2 L 160780.8 13553.2 Q 160444.8 13492 160090.8 13450 Q 159736.8 13408 159424.8 13408 Q 158667.6 13408 158043.6 13714 Q 157419.6 14020 156969.6 14590 Q 156519.6 15160 156273.6 15958 Q 156027.6 16756 156027.6 17729.2 L 156027.6 24833.2 L 153843.6 24833.2 L 153843.6 11657.2 L 155619.6 11657.2 L 155883.6 14068 L 155979.6 14068 Q 156280.8 13553.2 156622.8 13073.2 Q 156964.8 12593.2 157390.8 12227.2 Q 157816.8 11861.2 158344.8 11639.2 Q 158872.8 11417.2 159544.8 11417.2 L 159546 11416 Z M 169056.4 24832 L 168611.2 23008 L 168515.2 23008 Q 168120.4 23546.8 167724.4 23936.8 Q 167328.4 24326.8 166860.4 24578.8 Q 166392.4 24830.8 165816.4 24950.8 Q 165240.4 25070.8 164483.2 25070.8 Q 163656.4 25070.8 162960.4 24836.8 Q 162264.4 24602.8 161754.4 24116.8 Q 161244.4 23630.8 160956.4 22892.8 Q 160668.4 22154.8 160668.4 21146.8 Q 160668.4 19178.8 162054.4 18122.8 Q 163440.4 17066.8 166272.4 16970.8 L 168480.4 16888 L 168480.4 16058.8 Q 168480.4 15256 168306.4 14716 Q 168132.4 14176 167802.4 13846 Q 167472.4 13516 166986.4 13372 Q 166500.4 13228 165876.4 13228 Q 164881.6 13228 164023.6 13516 Q 163165.6 13804 162373.6 14212 L 161605.6 12569.2 Q 162493.6 12089.2 163585.6 11753.2 Q 164677.6 11417.2 165877.6 11417.2 Q 167101.6 11417.2 167995.6 11663.2 Q 168889.6 11909.2 169471.6 12443.2 Q 170053.6 12977.2 170341.6 13805.2 Q 170629.6 14633.2 170629.6 15809.2 L 170629.6 24833.2 L 169058.8 24833.2 L 169056.4 24832 Z M 165048.4 23306.8 Q 165779.2 23306.8 166403.2 23078.8 Q 167027.2 22850.8 167483.2 22388.8 Q 167939.2 21926.8 168197.2 21224.8 Q 168455.2 20522.8 168455.2 19576 L 168455.2 18386.8 L 166738 18472 Q 165658 18520 164926 18712 Q 164194 18904 163756 19246 Q 163318 19588 163126 20074 Q 162934 20560 162934 21170.8 Q 162934 22274.8 163516 22790.8 Q 164098 23306.8 165047.2 23306.8 L 165048.4 23306.8 Z M 178234 11416 Q 178580.8 11416 179012.8 11446 Q 179444.8 11476 179756.8 11537.2 L 179468.8 13553.2 Q 179132.8 13492 178778.8 13450 Q 178424.8 13408 178112.8 13408 Q 177355.6 13408 176731.6 13714 Q 176107.6 14020 175657.6 14590 Q 175207.6 15160 174961.6 15958 Q 174715.6 16756 174715.6 17729.2 L 174715.6 24833.2 L 172531.6 24833.2 L 172531.6 11657.2 L 174307.6 11657.2 L 174571.6 14068 L 174667.6 14068 Q 174968.8 13553.2 175310.8 13073.2 Q 175652.8 12593.2 176078.8 12227.2 Q 176504.8 11861.2 177032.8 11639.2 Q 177560.8 11417.2 178232.8 11417.2 L 178234 11416 Z M 184299.2 23282.8 Q 184515.2 23282.8 184785.2 23258.8 Q 185055.2 23234.8 185307.2 23198.8 Q 185559.2 23162.8 185769.2 23114.8 Q 185979.2 23066.8 186088.4 23032 L 186088.4 24688 Q 185931.2 24760 185691.2 24832 Q 185451.2 24904 185163.2 24958 Q 184875.2 25012 184563.2 25042 Q 184251.2 25072 183952.4 25072 Q 183208.4 25072 182572.4 24880 Q 181936.4 24688 181474.4 24220 Q 181012.4 23752 180748.4 22954 Q 180484.4 22156 180484.4 20945.2 L 180484.4 13300 L 178625.6 13300 L 178625.6 12329.2 L 180484.4 11393.2 L 181420.4 8633.2 L 182681.6 8633.2 L 182681.6 11657.2 L 185993.6 11657.2 L 185993.6 13300 L 182681.6 13300 L 182681.6 20945.2 Q 182681.6 22108 183059.6 22696 Q 183437.6 23284 184301.6 23284 L 184299.2 23282.8 Z M 191769.6 25072 Q 190449.6 25072 189357.6 24628 Q 188265.6 24184 187479.6 23332 Q 186693.6 22480 186261.6 21220 Q 185829.6 19960 185829.6 18338.8 Q 185829.6 16706.8 186225.6 15422.8 Q 186621.6 14138.8 187341.6 13244.8 Q 188061.6 12350.8 189063.6 11882.8 Q 190065.6 11414.8 191278.8 11414.8 Q 192465.6 11414.8 193413.6 11840.8 Q 194361.6 12266.8 195021.6 13040.8 Q 195681.6 13814.8 196035.6 14900.8 Q 196389.6 15986.8 196389.6 17306.8 L 196389.6 18664 L 188085.6 18664 Q 188144.4 20978.8 189062.4 22070.8 Q 189980.4 23162.8 191791.2 23162.8 Q 192404.4 23162.8 192926.4 23102.8 Q 193448.4 23042.8 193934.4 22928.8 Q 194420.4 22814.8 194876.4 22640.8 Q 195332.4 22466.8 195799.2 22250.8 L 195799.2 24194.8 Q 195319.2 24424 194857.2 24592 Q 194395.2 24760 193909.2 24868 Q 193423.2 24976 192901.2 25024 Q 192379.2 25072 191766 25072 L 191769.6 25072 Z M 191230.8 13226.8 Q 189862.8 13226.8 189064.8 14162.8 Q 188266.8 15098.8 188136 16888 L 194040 16888 Q 194040 16072 193878 15394 Q 193716 14716 193374 14236 Q 193032 13756 192504 13492 Q 191976 13228 191232 13228 L 191230.8 13226.8 Z M 209704.4 21218.8 Q 209704.4 22178.8 209356.4 22898.8 Q 209008.4 23618.8 208354.4 24104.8 Q 207700.4 24590.8 206776.4 24830.8 Q 205852.4 25070.8 204700.4 25070.8 Q 203393.6 25070.8 202457.6 24860.8 Q 201521.6 24650.8 200812.4 24242.8 L 200812.4 22250.8 Q 201185.6 22442.8 201641.6 22628.8 Q 202097.6 22814.8 202601.6 22958.8 Q 203105.6 23102.8 203639.6 23192.8 Q 204173.6 23282.8 204701.6 23282.8 Q 205482.8 23282.8 206028.8 23150.8 Q 206574.8 23018.8 206916.8 22772.8 Q 207258.8 22526.8 207414.8 22172.8 Q 207570.8 21818.8 207570.8 21386.8 Q 207570.8 21016 207450.8 20716 Q 207330.8 20416 207012.8 20122 Q 206694.8 19828 206142.8 19528 Q 205590.8 19228 204726.8 18857.2 Q 203862.8 18484 203172.8 18124 Q 202482.8 17764 202002.8 17320 Q 201522.8 16876 201264.8 16294 Q 201006.8 15712 201006.8 14906.8 Q 201006.8 14066.8 201336.8 13412.8 Q 201666.8 12758.8 202266.8 12314.8 Q 202866.8 11870.8 203706.8 11642.8 Q 204546.8 11414.8 205578.8 11414.8 Q 206741.6 11414.8 207707.6 11666.8 Q 208673.6 11918.8 209537.6 12326.8 L 208780.4 14089.6 Q 208001.6 13742.8 207179.6 13484.8 Q 206357.6 13226.8 205506.8 13226.8 Q 204282.8 13226.8 203694.8 13628.8 Q 203106.8 14030.8 203106.8 14774.8 Q 203106.8 15193.6 203244.8 15505.6 Q 203382.8 15817.6 203718.8 16093.6 Q 204054.8 16369.6 204618.8 16651.6 Q 205182.8 16933.6 206022.8 17280.4 Q 206886.8 17640.4 207564.8 18000.4 Q 208242.8 18360.4 208722.8 18810.4 Q 209202.8 19260.4 209454.8 19836.4 Q 209706.8 20412.4 209706.8 21215.2 L 209704.4 21218.8 Z M 221571.6 18218.8 Q 221571.6 19864 221169.6 21142 Q 220767.6 22420 220017.6 23290 Q 219267.6 24160 218199.6 24616 Q 217131.6 25072 215798.4 25072 Q 214563.6 25072 213519.6 24616 Q 212475.6 24160 211713.6 23290 Q 210951.6 22420 210525.6 21142 Q 210099.6 19864 210099.6 18218.8 Q 210099.6 16586.8 210501.6 15320.8 Q 210903.6 14054.8 211647.6 13184.8 Q 212391.6 12314.8 213465.6 11864.8 Q 214539.6 11414.8 215870.4 11414.8 Q 217107.6 11414.8 218151.6 11864.8 Q 219195.6 12314.8 219957.6 13184.8 Q 220719.6 14054.8 221145.6 15320.8 Q 221571.6 16586.8 221571.6 18218.8  Z M 212355.6 18218.8 Q 212355.6 20728 213177.6 21994 Q 213999.6 23260 215847.6 23260 Q 217695.6 23260 218505.6 21994 Q 219315.6 20728 219315.6 18218.8 Q 219315.6 15712 218493.6 14470 Q 217671.6 13228 215823.6 13228 Q 213975.6 13228 213165.6 14470 Q 212355.6 15712 212355.6 18218.8  Z M 225148.8 24832 L 222964.8 24832 L 222964.8 6160 L 225148.8 6160 L 225148.8 24832 Z M 237955.6 18218.8 Q 237955.6 19864 237553.6 21142 Q 237151.6 22420 236401.6 23290 Q 235651.6 24160 234583.6 24616 Q 233515.6 25072 232182.4 25072 Q 230947.6 25072 229903.6 24616 Q 228859.6 24160 228097.6 23290 Q 227335.6 22420 226909.6 21142 Q 226483.6 19864 226483.6 18218.8 Q 226483.6 16586.8 226885.6 15320.8 Q 227287.6 14054.8 228031.6 13184.8 Q 228775.6 12314.8 229849.6 11864.8 Q 230923.6 11414.8 232254.4 11414.8 Q 233491.6 11414.8 234535.6 11864.8 Q 235579.6 12314.8 236341.6 13184.8 Q 237103.6 14054.8 237529.6 15320.8 Q 237955.6 16586.8 237955.6 18218.8  Z M 228739.6 18218.8 Q 228739.6 20728 229561.6 21994 Q 230383.6 23260 232231.6 23260 Q 234079.6 23260 234889.6 21994 Q 235699.6 20728 235699.6 18218.8 Q 235699.6 15712 234877.6 14470 Q 234055.6 13228 232207.6 13228 Q 230359.6 13228 229549.6 14470 Q 228739.6 15712 228739.6 18218.8  Z M 248806.4 25072 Q 247486.4 25072 246394.4 24628 Q 245302.4 24184 244516.4 23332 Q 243730.4 22480 243298.4 21220 Q 242866.4 19960 242866.4 18338.8 Q 242866.4 16706.8 243262.4 15422.8 Q 243658.4 14138.8 244378.4 13244.8 Q 245098.4 12350.8 246100.4 11882.8 Q 247102.4 11414.8 248315.6 11414.8 Q 249502.4 11414.8 250450.4 11840.8 Q 251398.4 12266.8 252058.4 13040.8 Q 252718.4 13814.8 253072.4 14900.8 Q 253426.4 15986.8 253426.4 17306.8 L 253426.4 18664 L 245122.4 18664 Q 245181.2 20978.8 246099.2 22070.8 Q 247017.2 23162.8 248828 23162.8 Q 249441.2 23162.8 249963.2 23102.8 Q 250485.2 23042.8 250971.2 22928.8 Q 251457.2 22814.8 251913.2 22640.8 Q 252369.2 22466.8 252836 22250.8 L 252836 24194.8 Q 252356 24424 251894 24592 Q 251432 24760 250946 24868 Q 250460 24976 249938 25024 Q 249416 25072 248802.8 25072 L 248806.4 25072 Z M 248267.6 13226.8 Q 246899.6 13226.8 246101.6 14162.8 Q 245303.6 15098.8 245172.8 16888 L 251076.8 16888 Q 251076.8 16072 250914.8 15394 Q 250752.8 14716 250410.8 14236 Q 250068.8 13756 249540.8 13492 Q 249012.8 13228 248268.8 13228 L 248267.6 13226.8 Z M 262838.4 24832 L 262838.4 16346.8 Q 262838.4 14786.8 262208.4 14006.8 Q 261578.4 13226.8 260234.4 13226.8 Q 259261.2 13226.8 258601.2 13538.8 Q 257941.2 13850.8 257539.2 14462.8 Q 257137.2 15074.8 256963.2 15962.8 Q 256789.2 16850.8 256789.2 18002.8 L 256789.2 24832 L 254605.2 24832 L 254605.2 11656 L 256381.2 11656 L 256693.2 13432 L 256813.2 13432 Q 257114.4 12914.8 257528.4 12536.8 Q 257942.4 12158.8 258434.4 11906.8 Q 258926.4 11654.8 259478.4 11534.8 Q 260030.4 11414.8 260606.4 11414.8 Q 262803.6 11414.8 263913.6 12560.8 Q 265023.6 13706.8 265023.6 16226.8 L 265023.6 24832 L 262839.6 24832 L 262838.4 24832 Z M 102300.8 41300.8 L 102300.8 42655.6 L 99938 42980.8 Q 100274 43399.6 100502 44053.6 Q 100730 44707.6 100730 45534.4 Q 100730 46446.4 100448 47220.4 Q 100166 47994.4 99596 48558.4 Q 99026 49122.4 98186 49440.4 Q 97346 49758.4 96228.8 49758.4 Q 95964.8 49758.4 95700.8 49752.4 Q 95436.8 49746.4 95268.8 49709.2 Q 95066 49829.2 94868 49979.2 Q 94670 50129.2 94508 50321.2 Q 94346 50513.2 94244 50753.2 Q 94142 50993.2 94142 51281.2 Q 94142 51604 94286 51802 Q 94430 52000 94676 52108 Q 94922 52216 95258 52252 Q 95594 52288 95964.8 52288 L 98076.8 52288 Q 99194 52288 99962 52570 Q 100730 52852 101216 53332 Q 101702 53812 101918 54466 Q 102134 55120 102134 55853.2 Q 102134 56909.2 101744 57749.2 Q 101354 58589.2 100550 59171.2 Q 99746 59753.2 98516 60065.2 Q 97286 60377.2 95619.2 60377.2 Q 94334 60377.2 93374 60125.2 Q 92414 59873.2 91778 59393.2 Q 91142 58913.2 90824 58235.2 Q 90506 57557.2 90506 56704 Q 90506 55984 90740 55438 Q 90974 54892 91370 54494.8 Q 91766 54097.6 92288 53845.6 Q 92810 53593.6 93372.8 53462.8 Q 92868.8 53233.6 92544.8 52741.6 Q 92220.8 52249.6 92220.8 51614.8 Q 92220.8 50881.6 92604.8 50347.6 Q 92988.8 49813.6 93818 49309.6 Q 93300.8 49093.6 92874.8 48715.6 Q 92448.8 48337.6 92154.8 47851.6 Q 91860.8 47365.6 91698.8 46789.6 Q 91536.8 46213.6 91536.8 45600.4 Q 91536.8 44533.6 91836.8 43693.6 Q 92136.8 42853.6 92724.8 42265.6 Q 93312.8 41677.6 94188.8 41365.6 Q 95064.8 41053.6 96227.6 41053.6 Q 96672.8 41053.6 97146.8 41119.6 Q 97620.8 41185.6 97946 41294.8 L 102300.8 41294.8 L 102300.8 41300.8 Z M 92570 56636.8 Q 92570 57082 92726 57466 Q 92882 57850 93236 58126 Q 93590 58402 94172 58564 Q 94754 58726 95618 58726 Q 97850 58726 98960 58036 Q 100070 57346 100070 56050 Q 100070 55498 99926 55150 Q 99782 54802 99452 54604 Q 99122 54406 98582 54334 Q 98042 54262 97260.8 54262 L 95148.8 54262 Q 94730 54262 94274 54358 Q 93818 54454 93440 54718 Q 93062 54982 92816 55444 Q 92570 55906 92570 56636.8  Z M 93674 45535.6 Q 93674 46916.8 94322 47588.8 Q 94970 48260.8 96156.8 48260.8 Q 97356.8 48260.8 97974.8 47594.8 Q 98592.8 46928.8 98592.8 45502 Q 98592.8 44024.8 97962.8 43328.8 Q 97332.8 42632.8 96132.8 42632.8 Q 94946 42632.8 94310 43352.8 Q 93674 44072.8 93674 45536.8 L 93674 45535.6 Z M 108448.4 41060.8 Q 108795.2 41060.8 109227.2 41090.8 Q 109659.2 41120.8 109971.2 41182 L 109683.2 43198 Q 109347.2 43136.8 108993.2 43094.8 Q 108639.2 43052.8 108327.2 43052.8 Q 107570 43052.8 106946 43358.8 Q 106322 43664.8 105872 44234.8 Q 105422 44804.8 105176 45602.8 Q 104930 46400.8 104930 47374 L 104930 54478 L 102746 54478 L 102746 41302 L 104522 41302 L 104786 43712.8 L 104882 43712.8 Q 105183.2 43198 105525.2 42718 Q 105867.2 42238 106293.2 41872 Q 106719.2 41506 107247.2 41284 Q 107775.2 41062 108447.2 41062 L 108448.4 41060.8 Z M 117958.8 54476.8 L 117513.6 52652.8 L 117417.6 52652.8 Q 117022.8 53191.6 116626.8 53581.6 Q 116230.8 53971.6 115762.8 54223.6 Q 115294.8 54475.6 114718.8 54595.6 Q 114142.8 54715.6 113385.6 54715.6 Q 112558.8 54715.6 111862.8 54481.6 Q 111166.8 54247.6 110656.8 53761.6 Q 110146.8 53275.6 109858.8 52537.6 Q 109570.8 51799.6 109570.8 50791.6 Q 109570.8 48823.6 110956.8 47767.6 Q 112342.8 46711.6 115174.8 46615.6 L 117382.8 46532.8 L 117382.8 45703.6 Q 117382.8 44900.8 117208.8 44360.8 Q 117034.8 43820.8 116704.8 43490.8 Q 116374.8 43160.8 115888.8 43016.8 Q 115402.8 42872.8 114778.8 42872.8 Q 113784 42872.8 112926 43160.8 Q 112068 43448.8 111276 43856.8 L 110508 42214 Q 111396 41734 112488 41398 Q 113580 41062 114780 41062 Q 116004 41062 116898 41308 Q 117792 41554 118374 42088 Q 118956 42622 119244 43450 Q 119532 44278 119532 45454 L 119532 54478 L 117961.2 54478 L 117958.8 54476.8 Z M 113950.8 52951.6 Q 114681.6 52951.6 115305.6 52723.6 Q 115929.6 52495.6 116385.6 52033.6 Q 116841.6 51571.6 117099.6 50869.6 Q 117357.6 50167.6 117357.6 49220.8 L 117357.6 48031.6 L 115640.4 48116.8 Q 114560.4 48164.8 113828.4 48356.8 Q 113096.4 48548.8 112658.4 48890.8 Q 112220.4 49232.8 112028.4 49718.8 Q 111836.4 50204.8 111836.4 50815.6 Q 111836.4 51919.6 112418.4 52435.6 Q 113000.4 52951.6 113949.6 52951.6 L 113950.8 52951.6 Z M 137216.4 54476.8 L 137216.4 45991.6 Q 137216.4 44431.6 136616.4 43651.6 Q 136016.4 42871.6 134755.2 42871.6 Q 133880.4 42871.6 133268.4 43153.6 Q 132656.4 43435.6 132266.4 43981.6 Q 131876.4 44527.6 131696.4 45337.6 Q 131516.4 46147.6 131516.4 47203.6 L 131516.4 54475.6 L 129321.6 54475.6 L 129321.6 45990.4 Q 129321.6 44430.4 128727.6 43650.4 Q 128133.6 42870.4 126874.8 42870.4 Q 125949.6 42870.4 125325.6 43182.4 Q 124701.6 43494.4 124323.6 44106.4 Q 123945.6 44718.4 123783.6 45606.4 Q 123621.6 46494.4 123621.6 47646.4 L 123621.6 54475.6 L 121437.6 54475.6 L 121437.6 41299.6 L 123213.6 41299.6 L 123525.6 43075.6 L 123645.6 43075.6 Q 123933.6 42558.4 124329.6 42180.4 Q 124725.6 41802.4 125199.6 41550.4 Q 125673.6 41298.4 126207.6 41178.4 Q 126741.6 41058.4 127293.6 41058.4 Q 128733.6 41058.4 129687.6 41586.4 Q 130641.6 42114.4 131097.6 43242.4 L 131193.6 43242.4 Q 131505.6 42677.2 131943.6 42269.2 Q 132381.6 41861.2 132903.6 41591.2 Q 133425.6 41321.2 134001.6 41189.2 Q 134577.6 41057.2 135177.6 41057.2 Q 137276.4 41057.2 138338.4 42203.2 Q 139400.4 43349.2 139400.4 45869.2 L 139400.4 54474.4 L 137216.4 54474.4 L 137216.4 54476.8 Z M 148781.2 54476.8 L 148336 52652.8 L 148240 52652.8 Q 147845.2 53191.6 147449.2 53581.6 Q 147053.2 53971.6 146585.2 54223.6 Q 146117.2 54475.6 145541.2 54595.6 Q 144965.2 54715.6 144208 54715.6 Q 143381.2 54715.6 142685.2 54481.6 Q 141989.2 54247.6 141479.2 53761.6 Q 140969.2 53275.6 140681.2 52537.6 Q 140393.2 51799.6 140393.2 50791.6 Q 140393.2 48823.6 141779.2 47767.6 Q 143165.2 46711.6 145997.2 46615.6 L 148205.2 46532.8 L 148205.2 45703.6 Q 148205.2 44900.8 148031.2 44360.8 Q 147857.2 43820.8 147527.2 43490.8 Q 147197.2 43160.8 146711.2 43016.8 Q 146225.2 42872.8 145601.2 42872.8 Q 144606.4 42872.8 143748.4 43160.8 Q 142890.4 43448.8 142098.4 43856.8 L 141330.4 42214 Q 142218.4 41734 143310.4 41398 Q 144402.4 41062 145602.4 41062 Q 146826.4 41062 147720.4 41308 Q 148614.4 41554 149196.4 42088 Q 149778.4 42622 150066.4 43450 Q 150354.4 44278 150354.4 45454 L 150354.4 54478 L 148783.6 54478 L 148781.2 54476.8 Z M 144773.2 52951.6 Q 145504 52951.6 146128 52723.6 Q 146752 52495.6 147208 52033.6 Q 147664 51571.6 147922 50869.6 Q 148180 50167.6 148180 49220.8 L 148180 48031.6 L 146462.8 48116.8 Q 145382.8 48164.8 144650.8 48356.8 Q 143918.8 48548.8 143480.8 48890.8 Q 143042.8 49232.8 142850.8 49718.8 Q 142658.8 50204.8 142658.8 50815.6 Q 142658.8 51919.6 143240.8 52435.6 Q 143822.8 52951.6 144772 52951.6 L 144773.2 52951.6 Z M 144595.6 39260.8 Q 144859.6 38911.6 145141.6 38455.6 Q 145423.6 37999.6 145705.6 37513.6 Q 145987.6 37027.6 146239.6 36541.6 Q 146491.6 36055.6 146683.6 35647.6 L 149310.4 35647.6 L 149310.4 35900.8 Q 149118.4 36223.6 148740.4 36709.6 Q 148362.4 37195.6 147900.4 37723.6 Q 147438.4 38251.6 146952.4 38749.6 Q 146466.4 39247.6 146045.2 39583.6 L 144594.4 39583.6 L 144594.4 39260.8 L 144595.6 39260.8 Z M 156241.6 52927.6 Q 156457.6 52927.6 156727.6 52903.6 Q 156997.6 52879.6 157249.6 52843.6 Q 157501.6 52807.6 157711.6 52759.6 Q 157921.6 52711.6 158030.8 52676.8 L 158030.8 54332.8 Q 157873.6 54404.8 157633.6 54476.8 Q 157393.6 54548.8 157105.6 54602.8 Q 156817.6 54656.8 156505.6 54686.8 Q 156193.6 54716.8 155894.8 54716.8 Q 155150.8 54716.8 154514.8 54524.8 Q 153878.8 54332.8 153416.8 53864.8 Q 152954.8 53396.8 152690.8 52598.8 Q 152426.8 51800.8 152426.8 50590 L 152426.8 42944.8 L 150568 42944.8 L 150568 41974 L 152426.8 41038 L 153362.8 38278 L 154624 38278 L 154624 41302 L 157936 41302 L 157936 42944.8 L 154624 42944.8 L 154624 50590 Q 154624 51752.8 155002 52340.8 Q 155380 52928.8 156244 52928.8 L 156241.6 52927.6 Z M 160688 54476.8 L 158504 54476.8 L 158504 41300.8 L 160688 41300.8 L 160688 54476.8 Z M 158336 37735.6 Q 158336 37015.6 158702 36691.6 Q 159068 36367.6 159606.8 36367.6 Q 159870.8 36367.6 160104.8 36445.6 Q 160338.8 36523.6 160512.8 36691.6 Q 160686.8 36859.6 160788.8 37117.6 Q 160890.8 37375.6 160890.8 37735.6 Q 160890.8 38431.6 160512.8 38773.6 Q 160134.8 39115.6 159606.8 39115.6 Q 159068 39115.6 158702 38779.6 Q 158336 38443.6 158336 37734.4 L 158336 37735.6 Z M 167793.6 54716.8 Q 166582.8 54716.8 165526.8 54338.8 Q 164470.8 53960.8 163690.8 53138.8 Q 162910.8 52316.8 162466.8 51038.8 Q 162022.8 49760.8 162022.8 47960.8 Q 162022.8 46078 162478.8 44764 Q 162934.8 43450 163732.8 42628 Q 164530.8 41806 165598.8 41434 Q 166666.8 41062 167890.8 41062 Q 168826.8 41062 169720.8 41266 Q 170614.8 41470 171214.8 41768.8 L 170566.8 43616.8 Q 170289.6 43496.8 169953.6 43382.8 Q 169617.6 43268.8 169257.6 43178.8 Q 168897.6 43088.8 168549.6 43034.8 Q 168201.6 42980.8 167889.6 42980.8 Q 166006.8 42980.8 165142.8 44186.8 Q 164278.8 45392.8 164278.8 47936.8 Q 164278.8 50470 165148.8 51640 Q 166018.8 52810 167794.8 52810 Q 168768 52810 169554 52588 Q 170340 52366 170988 52064.8 L 170988 54008.8 Q 170340 54358 169602 54538 Q 168864 54718 167794.8 54718 L 167793.6 54716.8 Z M 179501.2 54476.8 L 179056 52652.8 L 178960 52652.8 Q 178565.2 53191.6 178169.2 53581.6 Q 177773.2 53971.6 177305.2 54223.6 Q 176837.2 54475.6 176261.2 54595.6 Q 175685.2 54715.6 174928 54715.6 Q 174101.2 54715.6 173405.2 54481.6 Q 172709.2 54247.6 172199.2 53761.6 Q 171689.2 53275.6 171401.2 52537.6 Q 171113.2 51799.6 171113.2 50791.6 Q 171113.2 48823.6 172499.2 47767.6 Q 173885.2 46711.6 176717.2 46615.6 L 178925.2 46532.8 L 178925.2 45703.6 Q 178925.2 44900.8 178751.2 44360.8 Q 178577.2 43820.8 178247.2 43490.8 Q 177917.2 43160.8 177431.2 43016.8 Q 176945.2 42872.8 176321.2 42872.8 Q 175326.4 42872.8 174468.4 43160.8 Q 173610.4 43448.8 172818.4 43856.8 L 172050.4 42214 Q 172938.4 41734 174030.4 41398 Q 175122.4 41062 176322.4 41062 Q 177546.4 41062 178440.4 41308 Q 179334.4 41554 179916.4 42088 Q 180498.4 42622 180786.4 43450 Q 181074.4 44278 181074.4 45454 L 181074.4 54478 L 179503.6 54478 L 179501.2 54476.8 Z M 175493.2 52951.6 Q 176224 52951.6 176848 52723.6 Q 177472 52495.6 177928 52033.6 Q 178384 51571.6 178642 50869.6 Q 178900 50167.6 178900 49220.8 L 178900 48031.6 L 177182.8 48116.8 Q 176102.8 48164.8 175370.8 48356.8 Q 174638.8 48548.8 174200.8 48890.8 Q 173762.8 49232.8 173570.8 49718.8 Q 173378.8 50204.8 173378.8 50815.6 Q 173378.8 51919.6 173960.8 52435.6 Q 174542.8 52951.6 175492 52951.6 L 175493.2 52951.6 Z " fill-rule="nonzero" style="fill:#d8d8d8;;fill-opacity:1;"/>
</svg>