<svg version="1.1" x="0" y="0" width="100%" height="100%" viewBox="0 0 584704 42956.8" xmlns="http://www.w3.org/2000/svg">
  <path d="M 17360 15890.8 Q 17360 18112 16784 19786 Q 16208 21460 15116 22582 Q 14024 23704 12434 24268 Q 10844 24832 8828 24832 L 4436 24832 L 4436 7288 L 9318.8 7288 Q 11156 7288 12644 7840 Q 14132 8392 15176 9478 Q 16220 10564 16790 12172 Q 17360 13780 17360 15892 L 17360 15890.8 Z M 14997.2 15962.8 Q 14997.2 14210.8 14601.2 12932.8 Q 14205.2 11654.8 13449.2 10826.8 Q 12693.2 9998.8 11589.2 9596.8 Q 10485.2 9194.8 9080 9194.8 L 6669.2 9194.8 L 6669.2 22912 L 8613.2 22912 Q 11781.2 22912 13389.2 21160 Q 14997.2 19408 14997.2 15962.8  Z M 21014.4 24832 L 18830.4 24832 L 18830.4 11656 L 21014.4 11656 L 21014.4 24832 Z M 18662.4 8090.8 Q 18662.4 7370.8 19028.4 7046.8 Q 19394.4 6722.8 19933.2 6722.8 Q 20197.2 6722.8 20431.2 6800.8 Q 20665.2 6878.8 20839.2 7046.8 Q 21013.2 7214.8 21115.2 7472.8 Q 21217.2 7730.8 21217.2 8090.8 Q 21217.2 8786.8 20839.2 9128.8 Q 20461.2 9470.8 19933.2 9470.8 Q 19394.4 9470.8 19028.4 9134.8 Q 18662.4 8798.8 18662.4 8089.6 L 18662.4 8090.8 Z M 30509.2 24832 L 30064 23008 L 29968 23008 Q 29573.2 23546.8 29177.2 23936.8 Q 28781.2 24326.8 28313.2 24578.8 Q 27845.2 24830.8 27269.2 24950.8 Q 26693.2 25070.8 25936 25070.8 Q 25109.2 25070.8 24413.2 24836.8 Q 23717.2 24602.8 23207.2 24116.8 Q 22697.2 23630.8 22409.2 22892.8 Q 22121.2 22154.8 22121.2 21146.8 Q 22121.2 19178.8 23507.2 18122.8 Q 24893.2 17066.8 27725.2 16970.8 L 29933.2 16888 L 29933.2 16058.8 Q 29933.2 15256 29759.2 14716 Q 29585.2 14176 29255.2 13846 Q 28925.2 13516 28439.2 13372 Q 27953.2 13228 27329.2 13228 Q 26334.4 13228 25476.4 13516 Q 24618.4 13804 23826.4 14212 L 23058.4 12569.2 Q 23946.4 12089.2 25038.4 11753.2 Q 26130.4 11417.2 27330.4 11417.2 Q 28554.4 11417.2 29448.4 11663.2 Q 30342.4 11909.2 30924.4 12443.2 Q 31506.4 12977.2 31794.4 13805.2 Q 32082.4 14633.2 32082.4 15809.2 L 32082.4 24833.2 L 30511.6 24833.2 L 30509.2 24832 Z M 26501.2 23306.8 Q 27232 23306.8 27856 23078.8 Q 28480 22850.8 28936 22388.8 Q 29392 21926.8 29650 21224.8 Q 29908 20522.8 29908 19576 L 29908 18386.8 L 28190.8 18472 Q 27110.8 18520 26378.8 18712 Q 25646.8 18904 25208.8 19246 Q 24770.8 19588 24578.8 20074 Q 24386.8 20560 24386.8 21170.8 Q 24386.8 22274.8 24968.8 22790.8 Q 25550.8 23306.8 26500 23306.8 L 26501.2 23306.8 Z M 44137.6 11656 L 44137.6 13010.8 L 41774.8 13336 Q 42110.8 13754.8 42338.8 14408.8 Q 42566.8 15062.8 42566.8 15889.6 Q 42566.8 16801.6 42284.8 17575.6 Q 42002.8 18349.6 41432.8 18913.6 Q 40862.8 19477.6 40022.8 19795.6 Q 39182.8 20113.6 38065.6 20113.6 Q 37801.6 20113.6 37537.6 20107.6 Q 37273.6 20101.6 37105.6 20064.4 Q 36902.8 20184.4 36704.8 20334.4 Q 36506.8 20484.4 36344.8 20676.4 Q 36182.8 20868.4 36080.8 21108.4 Q 35978.8 21348.4 35978.8 21636.4 Q 35978.8 21959.2 36122.8 22157.2 Q 36266.8 22355.2 36512.8 22463.2 Q 36758.8 22571.2 37094.8 22607.2 Q 37430.8 22643.2 37801.6 22643.2 L 39913.6 22643.2 Q 41030.8 22643.2 41798.8 22925.2 Q 42566.8 23207.2 43052.8 23687.2 Q 43538.8 24167.2 43754.8 24821.2 Q 43970.8 25475.2 43970.8 26208.4 Q 43970.8 27264.4 43580.8 28104.4 Q 43190.8 28944.4 42386.8 29526.4 Q 41582.8 30108.4 40352.8 30420.4 Q 39122.8 30732.4 37456 30732.4 Q 36170.8 30732.4 35210.8 30480.4 Q 34250.8 30228.4 33614.8 29748.4 Q 32978.8 29268.4 32660.8 28590.4 Q 32342.8 27912.4 32342.8 27059.2 Q 32342.8 26339.2 32576.8 25793.2 Q 32810.8 25247.2 33206.8 24850 Q 33602.8 24452.8 34124.8 24200.8 Q 34646.8 23948.8 35209.6 23818 Q 34705.6 23588.8 34381.6 23096.8 Q 34057.6 22604.8 34057.6 21970 Q 34057.6 21236.8 34441.6 20702.8 Q 34825.6 20168.8 35654.8 19664.8 Q 35137.6 19448.8 34711.6 19070.8 Q 34285.6 18692.8 33991.6 18206.8 Q 33697.6 17720.8 33535.6 17144.8 Q 33373.6 16568.8 33373.6 15955.6 Q 33373.6 14888.8 33673.6 14048.8 Q 33973.6 13208.8 34561.6 12620.8 Q 35149.6 12032.8 36025.6 11720.8 Q 36901.6 11408.8 38064.4 11408.8 Q 38509.6 11408.8 38983.6 11474.8 Q 39457.6 11540.8 39782.8 11650 L 44137.6 11650 L 44137.6 11656 Z M 34406.8 26992 Q 34406.8 27437.2 34562.8 27821.2 Q 34718.8 28205.2 35072.8 28481.2 Q 35426.8 28757.2 36008.8 28919.2 Q 36590.8 29081.2 37454.8 29081.2 Q 39686.8 29081.2 40796.8 28391.2 Q 41906.8 27701.2 41906.8 26405.2 Q 41906.8 25853.2 41762.8 25505.2 Q 41618.8 25157.2 41288.8 24959.2 Q 40958.8 24761.2 40418.8 24689.2 Q 39878.8 24617.2 39097.6 24617.2 L 36985.6 24617.2 Q 36566.8 24617.2 36110.8 24713.2 Q 35654.8 24809.2 35276.8 25073.2 Q 34898.8 25337.2 34652.8 25799.2 Q 34406.8 26261.2 34406.8 26992  Z M 35510.8 15890.8 Q 35510.8 17272 36158.8 17944 Q 36806.8 18616 37993.6 18616 Q 39193.6 18616 39811.6 17950 Q 40429.6 17284 40429.6 15857.2 Q 40429.6 14380 39799.6 13684 Q 39169.6 12988 37969.6 12988 Q 36782.8 12988 36146.8 13708 Q 35510.8 14428 35510.8 15892 L 35510.8 15890.8 Z M 52816 24832 L 52816 16346.8 Q 52816 14786.8 52186 14006.8 Q 51556 13226.8 50212 13226.8 Q 49238.8 13226.8 48578.8 13538.8 Q 47918.8 13850.8 47516.8 14462.8 Q 47114.8 15074.8 46940.8 15962.8 Q 46766.8 16850.8 46766.8 18002.8 L 46766.8 24832 L 44582.8 24832 L 44582.8 11656 L 46358.8 11656 L 46670.8 13432 L 46790.8 13432 Q 47092 12914.8 47506 12536.8 Q 47920 12158.8 48412 11906.8 Q 48904 11654.8 49456 11534.8 Q 50008 11414.8 50584 11414.8 Q 52781.2 11414.8 53891.2 12560.8 Q 55001.2 13706.8 55001.2 16226.8 L 55001.2 24832 L 52817.2 24832 L 52816 24832 Z M 67715.6 18218.8 Q 67715.6 19864 67313.6 21142 Q 66911.6 22420 66161.6 23290 Q 65411.6 24160 64343.6 24616 Q 63275.6 25072 61942.4 25072 Q 60707.6 25072 59663.6 24616 Q 58619.6 24160 57857.6 23290 Q 57095.6 22420 56669.6 21142 Q 56243.6 19864 56243.6 18218.8 Q 56243.6 16586.8 56645.6 15320.8 Q 57047.6 14054.8 57791.6 13184.8 Q 58535.6 12314.8 59609.6 11864.8 Q 60683.6 11414.8 62014.4 11414.8 Q 63251.6 11414.8 64295.6 11864.8 Q 65339.6 12314.8 66101.6 13184.8 Q 66863.6 14054.8 67289.6 15320.8 Q 67715.6 16586.8 67715.6 18218.8  Z M 58499.6 18218.8 Q 58499.6 20728 59321.6 21994 Q 60143.6 23260 61991.6 23260 Q 63839.6 23260 64649.6 21994 Q 65459.6 20728 65459.6 18218.8 Q 65459.6 15712 64637.6 14470 Q 63815.6 13228 61967.6 13228 Q 60119.6 13228 59309.6 14470 Q 58499.6 15712 58499.6 18218.8  Z M 60627.2 9616 Q 60891.2 9266.8 61173.2 8810.8 Q 61455.2 8354.8 61737.2 7868.8 Q 62019.2 7382.8 62271.2 6896.8 Q 62523.2 6410.8 62715.2 6002.8 L 65342 6002.8 L 65342 6256 Q 65150 6578.8 64772 7064.8 Q 64394 7550.8 63932 8078.8 Q 63470 8606.8 62984 9104.8 Q 62498 9602.8 62076.8 9938.8 L 60626 9938.8 L 60626 9616 L 60627.2 9616 Z M 76994 21218.8 Q 76994 22178.8 76646 22898.8 Q 76298 23618.8 75644 24104.8 Q 74990 24590.8 74066 24830.8 Q 73142 25070.8 71990 25070.8 Q 70683.2 25070.8 69747.2 24860.8 Q 68811.2 24650.8 68102 24242.8 L 68102 22250.8 Q 68475.2 22442.8 68931.2 22628.8 Q 69387.2 22814.8 69891.2 22958.8 Q 70395.2 23102.8 70929.2 23192.8 Q 71463.2 23282.8 71991.2 23282.8 Q 72772.4 23282.8 73318.4 23150.8 Q 73864.4 23018.8 74206.4 22772.8 Q 74548.4 22526.8 74704.4 22172.8 Q 74860.4 21818.8 74860.4 21386.8 Q 74860.4 21016 74740.4 20716 Q 74620.4 20416 74302.4 20122 Q 73984.4 19828 73432.4 19528 Q 72880.4 19228 72016.4 18857.2 Q 71152.4 18484 70462.4 18124 Q 69772.4 17764 69292.4 17320 Q 68812.4 16876 68554.4 16294 Q 68296.4 15712 68296.4 14906.8 Q 68296.4 14066.8 68626.4 13412.8 Q 68956.4 12758.8 69556.4 12314.8 Q 70156.4 11870.8 70996.4 11642.8 Q 71836.4 11414.8 72868.4 11414.8 Q 74031.2 11414.8 74997.2 11666.8 Q 75963.2 11918.8 76827.2 12326.8 L 76070 14089.6 Q 75291.2 13742.8 74469.2 13484.8 Q 73647.2 13226.8 72796.4 13226.8 Q 71572.4 13226.8 70984.4 13628.8 Q 70396.4 14030.8 70396.4 14774.8 Q 70396.4 15193.6 70534.4 15505.6 Q 70672.4 15817.6 71008.4 16093.6 Q 71344.4 16369.6 71908.4 16651.6 Q 72472.4 16933.6 73312.4 17280.4 Q 74176.4 17640.4 74854.4 18000.4 Q 75532.4 18360.4 76012.4 18810.4 Q 76492.4 19260.4 76744.4 19836.4 Q 76996.4 20412.4 76996.4 21215.2 L 76994 21218.8 Z M 82104 23282.8 Q 82320 23282.8 82590 23258.8 Q 82860 23234.8 83112 23198.8 Q 83364 23162.8 83574 23114.8 Q 83784 23066.8 83893.2 23032 L 83893.2 24688 Q 83736 24760 83496 24832 Q 83256 24904 82968 24958 Q 82680 25012 82368 25042 Q 82056 25072 81757.2 25072 Q 81013.2 25072 80377.2 24880 Q 79741.2 24688 79279.2 24220 Q 78817.2 23752 78553.2 22954 Q 78289.2 22156 78289.2 20945.2 L 78289.2 13300 L 76430.4 13300 L 76430.4 12329.2 L 78289.2 11393.2 L 79225.2 8633.2 L 80486.4 8633.2 L 80486.4 11657.2 L 83798.4 11657.2 L 83798.4 13300 L 80486.4 13300 L 80486.4 20945.2 Q 80486.4 22108 80864.4 22696 Q 81242.4 23284 82106.4 23284 L 82104 23282.8 Z M 86550.4 24832 L 84366.4 24832 L 84366.4 11656 L 86550.4 11656 L 86550.4 24832 Z M 84198.4 8090.8 Q 84198.4 7370.8 84564.4 7046.8 Q 84930.4 6722.8 85469.2 6722.8 Q 85733.2 6722.8 85967.2 6800.8 Q 86201.2 6878.8 86375.2 7046.8 Q 86549.2 7214.8 86651.2 7472.8 Q 86753.2 7730.8 86753.2 8090.8 Q 86753.2 8786.8 86375.2 9128.8 Q 85997.2 9470.8 85469.2 9470.8 Q 84930.4 9470.8 84564.4 9134.8 Q 84198.4 8798.8 84198.4 8089.6 L 84198.4 8090.8 Z M 93656 25072 Q 92445.2 25072 91389.2 24694 Q 90333.2 24316 89553.2 23494 Q 88773.2 22672 88329.2 21394 Q 87885.2 20116 87885.2 18316 Q 87885.2 16433.2 88341.2 15119.2 Q 88797.2 13805.2 89595.2 12983.2 Q 90393.2 12161.2 91461.2 11789.2 Q 92529.2 11417.2 93753.2 11417.2 Q 94689.2 11417.2 95583.2 11621.2 Q 96477.2 11825.2 97077.2 12124 L 96429.2 13972 Q 96152 13852 95816 13738 Q 95480 13624 95120 13534 Q 94760 13444 94412 13390 Q 94064 13336 93752 13336 Q 91869.2 13336 91005.2 14542 Q 90141.2 15748 90141.2 18292 Q 90141.2 20825.2 91011.2 21995.2 Q 91881.2 23165.2 93657.2 23165.2 Q 94630.4 23165.2 95416.4 22943.2 Q 96202.4 22721.2 96850.4 22420 L 96850.4 24364 Q 96202.4 24713.2 95464.4 24893.2 Q 94726.4 25073.2 93657.2 25073.2 L 93656 25072 Z M 108675.6 18218.8 Q 108675.6 19864 108273.6 21142 Q 107871.6 22420 107121.6 23290 Q 106371.6 24160 105303.6 24616 Q 104235.6 25072 102902.4 25072 Q 101667.6 25072 100623.6 24616 Q 99579.6 24160 98817.6 23290 Q 98055.6 22420 97629.6 21142 Q 97203.6 19864 97203.6 18218.8 Q 97203.6 16586.8 97605.6 15320.8 Q 98007.6 14054.8 98751.6 13184.8 Q 99495.6 12314.8 100569.6 11864.8 Q 101643.6 11414.8 102974.4 11414.8 Q 104211.6 11414.8 105255.6 11864.8 Q 106299.6 12314.8 107061.6 13184.8 Q 107823.6 14054.8 108249.6 15320.8 Q 108675.6 16586.8 108675.6 18218.8  Z M 99459.6 18218.8 Q 99459.6 20728 100281.6 21994 Q 101103.6 23260 102951.6 23260 Q 104799.6 23260 105609.6 21994 Q 106419.6 20728 106419.6 18218.8 Q 106419.6 15712 105597.6 14470 Q 104775.6 13228 102927.6 13228 Q 101079.6 13228 100269.6 14470 Q 99459.6 15712 99459.6 18218.8  Z M 116502.4 24832 L 114318.4 24832 L 114318.4 11656 L 116502.4 11656 L 116502.4 24832 Z M 114150.4 8090.8 Q 114150.4 7370.8 114516.4 7046.8 Q 114882.4 6722.8 115421.2 6722.8 Q 115685.2 6722.8 115919.2 6800.8 Q 116153.2 6878.8 116327.2 7046.8 Q 116501.2 7214.8 116603.2 7472.8 Q 116705.2 7730.8 116705.2 8090.8 Q 116705.2 8786.8 116327.2 9128.8 Q 115949.2 9470.8 115421.2 9470.8 Q 114882.4 9470.8 114516.4 9134.8 Q 114150.4 8798.8 114150.4 8089.6 L 114150.4 8090.8 Z M 126800 24832 L 126800 16346.8 Q 126800 14786.8 126170 14006.8 Q 125540 13226.8 124196 13226.8 Q 123222.8 13226.8 122562.8 13538.8 Q 121902.8 13850.8 121500.8 14462.8 Q 121098.8 15074.8 120924.8 15962.8 Q 120750.8 16850.8 120750.8 18002.8 L 120750.8 24832 L 118566.8 24832 L 118566.8 11656 L 120342.8 11656 L 120654.8 13432 L 120774.8 13432 Q 121076 12914.8 121490 12536.8 Q 121904 12158.8 122396 11906.8 Q 122888 11654.8 123440 11534.8 Q 123992 11414.8 124568 11414.8 Q 126765.2 11414.8 127875.2 12560.8 Q 128985.2 13706.8 128985.2 16226.8 L 128985.2 24832 L 126801.2 24832 L 126800 24832 Z M 133142.4 24832 L 130958.4 24832 L 130958.4 11656 L 133142.4 11656 L 133142.4 24832 Z M 130790.4 8090.8 Q 130790.4 7370.8 131156.4 7046.8 Q 131522.4 6722.8 132061.2 6722.8 Q 132325.2 6722.8 132559.2 6800.8 Q 132793.2 6878.8 132967.2 7046.8 Q 133141.2 7214.8 133243.2 7472.8 Q 133345.2 7730.8 133345.2 8090.8 Q 133345.2 8786.8 132967.2 9128.8 Q 132589.2 9470.8 132061.2 9470.8 Q 131522.4 9470.8 131156.4 9134.8 Q 130790.4 8798.8 130790.4 8089.6 L 130790.4 8090.8 Z M 140248 25072 Q 139037.2 25072 137981.2 24694 Q 136925.2 24316 136145.2 23494 Q 135365.2 22672 134921.2 21394 Q 134477.2 20116 134477.2 18316 Q 134477.2 16433.2 134933.2 15119.2 Q 135389.2 13805.2 136187.2 12983.2 Q 136985.2 12161.2 138053.2 11789.2 Q 139121.2 11417.2 140345.2 11417.2 Q 141281.2 11417.2 142175.2 11621.2 Q 143069.2 11825.2 143669.2 12124 L 143021.2 13972 Q 142744 13852 142408 13738 Q 142072 13624 141712 13534 Q 141352 13444 141004 13390 Q 140656 13336 140344 13336 Q 138461.2 13336 137597.2 14542 Q 136733.2 15748 136733.2 18292 Q 136733.2 20825.2 137603.2 21995.2 Q 138473.2 23165.2 140249.2 23165.2 Q 141222.4 23165.2 142008.4 22943.2 Q 142794.4 22721.2 143442.4 22420 L 143442.4 24364 Q 142794.4 24713.2 142056.4 24893.2 Q 141318.4 25073.2 140249.2 25073.2 L 140248 25072 Z M 146710.4 24832 L 144526.4 24832 L 144526.4 11656 L 146710.4 11656 L 146710.4 24832 Z M 144358.4 8090.8 Q 144358.4 7370.8 144724.4 7046.8 Q 145090.4 6722.8 145629.2 6722.8 Q 145893.2 6722.8 146127.2 6800.8 Q 146361.2 6878.8 146535.2 7046.8 Q 146709.2 7214.8 146811.2 7472.8 Q 146913.2 7730.8 146913.2 8090.8 Q 146913.2 8786.8 146535.2 9128.8 Q 146157.2 9470.8 145629.2 9470.8 Q 145090.4 9470.8 144724.4 9134.8 Q 144358.4 8798.8 144358.4 8089.6 L 144358.4 8090.8 Z M 156205.2 24832 L 155760 23008 L 155664 23008 Q 155269.2 23546.8 154873.2 23936.8 Q 154477.2 24326.8 154009.2 24578.8 Q 153541.2 24830.8 152965.2 24950.8 Q 152389.2 25070.8 151632 25070.8 Q 150805.2 25070.8 150109.2 24836.8 Q 149413.2 24602.8 148903.2 24116.8 Q 148393.2 23630.8 148105.2 22892.8 Q 147817.2 22154.8 147817.2 21146.8 Q 147817.2 19178.8 149203.2 18122.8 Q 150589.2 17066.8 153421.2 16970.8 L 155629.2 16888 L 155629.2 16058.8 Q 155629.2 15256 155455.2 14716 Q 155281.2 14176 154951.2 13846 Q 154621.2 13516 154135.2 13372 Q 153649.2 13228 153025.2 13228 Q 152030.4 13228 151172.4 13516 Q 150314.4 13804 149522.4 14212 L 148754.4 12569.2 Q 149642.4 12089.2 150734.4 11753.2 Q 151826.4 11417.2 153026.4 11417.2 Q 154250.4 11417.2 155144.4 11663.2 Q 156038.4 11909.2 156620.4 12443.2 Q 157202.4 12977.2 157490.4 13805.2 Q 157778.4 14633.2 157778.4 15809.2 L 157778.4 24833.2 L 156207.6 24833.2 L 156205.2 24832 Z M 152197.2 23306.8 Q 152928 23306.8 153552 23078.8 Q 154176 22850.8 154632 22388.8 Q 155088 21926.8 155346 21224.8 Q 155604 20522.8 155604 19576 L 155604 18386.8 L 153886.8 18472 Q 152806.8 18520 152074.8 18712 Q 151342.8 18904 150904.8 19246 Q 150466.8 19588 150274.8 20074 Q 150082.8 20560 150082.8 21170.8 Q 150082.8 22274.8 150664.8 22790.8 Q 151246.8 23306.8 152196 23306.8 L 152197.2 23306.8 Z M 161865.6 24832 L 159681.6 24832 L 159681.6 6160 L 161865.6 6160 L 161865.6 24832 Z M 166212.8 11656 L 168482 11656 L 171060.8 19010.8 Q 171228.8 19490.8 171402.8 20018.8 Q 171576.8 20546.8 171726.8 21074.8 Q 171876.8 21602.8 171984.8 22094.8 Q 172092.8 22586.8 172140.8 23008 L 172212.8 23008 Q 172274 22706.8 172406 22190.8 Q 172538 21674.8 172700 21092.8 Q 172862 20510.8 173036 19946.8 Q 173210 19382.8 173340.8 18985.6 L 175730 11654.8 L 177986 11654.8 L 172778 26548 Q 172442 27518.8 172052 28292.8 Q 171662 29066.8 171146 29606.8 Q 170630 30146.8 169934 30440.8 Q 169238 30734.8 168278 30734.8 Q 167654 30734.8 167198 30668.8 Q 166742 30602.8 166419.2 30530.8 L 166419.2 28789.6 Q 166670 28850.8 167054 28892.8 Q 167438 28934.8 167859.2 28934.8 Q 168435.2 28934.8 168855.2 28796.8 Q 169275.2 28658.8 169587.2 28394.8 Q 169899.2 28130.8 170121.2 27746.8 Q 170343.2 27362.8 170524.4 26869.6 L 171207.2 24949.6 L 166215.2 11653.6 L 166212.8 11656 Z M 190499.2 23066.8 L 190403.2 23066.8 Q 190139.2 23474.8 189785.2 23840.8 Q 189431.2 24206.8 188969.2 24482.8 Q 188507.2 24758.8 187931.2 24914.8 Q 187355.2 25070.8 186635.2 25070.8 Q 185520.4 25070.8 184596.4 24638.8 Q 183672.4 24206.8 183012.4 23348.8 Q 182352.4 22490.8 181992.4 21218.8 Q 181632.4 19946.8 181632.4 18266.8 Q 181632.4 16576 181992.4 15298 Q 182352.4 14020 183012.4 13156 Q 183672.4 12292 184596.4 11854 Q 185520.4 11416 186635.2 11416 Q 187344.4 11416 187920.4 11572 Q 188496.4 11728 188958.4 11992 Q 189420.4 12256 189780.4 12604 Q 190140.4 12952 190404.4 13336 L 190548.4 13336 Q 190513.6 12928 190476.4 12554.8 Q 190452.4 12242.8 190428.4 11912.8 Q 190404.4 11582.8 190404.4 11390.8 L 190404.4 6158.8 L 192588.4 6158.8 L 192588.4 24830.8 L 190825.6 24830.8 L 190500.4 23065.6 L 190499.2 23066.8 Z M 187056.4 23258.8 Q 187968.4 23258.8 188598.4 22982.8 Q 189228.4 22706.8 189618.4 22142.8 Q 190008.4 21578.8 190194.4 20732.8 Q 190380.4 19886.8 190404.4 18758.8 L 190404.4 18265.6 Q 190404.4 17054.8 190242.4 16112.8 Q 190080.4 15170.8 189690.4 14528.8 Q 189300.4 13886.8 188652.4 13556.8 Q 188004.4 13226.8 187033.6 13226.8 Q 185412.4 13226.8 184650.4 14534.8 Q 183888.4 15842.8 183888.4 18290.8 Q 183888.4 20800 184650.4 22030 Q 185412.4 23260 187057.6 23260 L 187056.4 23258.8 Z M 196937.6 24832 L 194753.6 24832 L 194753.6 11656 L 196937.6 11656 L 196937.6 24832 Z M 194585.6 8090.8 Q 194585.6 7370.8 194951.6 7046.8 Q 195317.6 6722.8 195856.4 6722.8 Q 196120.4 6722.8 196354.4 6800.8 Q 196588.4 6878.8 196762.4 7046.8 Q 196936.4 7214.8 197038.4 7472.8 Q 197140.4 7730.8 197140.4 8090.8 Q 197140.4 8786.8 196762.4 9128.8 Q 196384.4 9470.8 195856.4 9470.8 Q 195317.6 9470.8 194951.6 9134.8 Q 194585.6 8798.8 194585.6 8089.6 L 194585.6 8090.8 Z M 206888.4 21218.8 Q 206888.4 22178.8 206540.4 22898.8 Q 206192.4 23618.8 205538.4 24104.8 Q 204884.4 24590.8 203960.4 24830.8 Q 203036.4 25070.8 201884.4 25070.8 Q 200577.6 25070.8 199641.6 24860.8 Q 198705.6 24650.8 197996.4 24242.8 L 197996.4 22250.8 Q 198369.6 22442.8 198825.6 22628.8 Q 199281.6 22814.8 199785.6 22958.8 Q 200289.6 23102.8 200823.6 23192.8 Q 201357.6 23282.8 201885.6 23282.8 Q 202666.8 23282.8 203212.8 23150.8 Q 203758.8 23018.8 204100.8 22772.8 Q 204442.8 22526.8 204598.8 22172.8 Q 204754.8 21818.8 204754.8 21386.8 Q 204754.8 21016 204634.8 20716 Q 204514.8 20416 204196.8 20122 Q 203878.8 19828 203326.8 19528 Q 202774.8 19228 201910.8 18857.2 Q 201046.8 18484 200356.8 18124 Q 199666.8 17764 199186.8 17320 Q 198706.8 16876 198448.8 16294 Q 198190.8 15712 198190.8 14906.8 Q 198190.8 14066.8 198520.8 13412.8 Q 198850.8 12758.8 199450.8 12314.8 Q 200050.8 11870.8 200890.8 11642.8 Q 201730.8 11414.8 202762.8 11414.8 Q 203925.6 11414.8 204891.6 11666.8 Q 205857.6 11918.8 206721.6 12326.8 L 205964.4 14089.6 Q 205185.6 13742.8 204363.6 13484.8 Q 203541.6 13226.8 202690.8 13226.8 Q 201466.8 13226.8 200878.8 13628.8 Q 200290.8 14030.8 200290.8 14774.8 Q 200290.8 15193.6 200428.8 15505.6 Q 200566.8 15817.6 200902.8 16093.6 Q 201238.8 16369.6 201802.8 16651.6 Q 202366.8 16933.6 203206.8 17280.4 Q 204070.8 17640.4 204748.8 18000.4 Q 205426.8 18360.4 205906.8 18810.4 Q 206386.8 19260.4 206638.8 19836.4 Q 206890.8 20412.4 206890.8 21215.2 L 206888.4 21218.8 Z M 213222.4 25072 Q 211902.4 25072 210810.4 24628 Q 209718.4 24184 208932.4 23332 Q 208146.4 22480 207714.4 21220 Q 207282.4 19960 207282.4 18338.8 Q 207282.4 16706.8 207678.4 15422.8 Q 208074.4 14138.8 208794.4 13244.8 Q 209514.4 12350.8 210516.4 11882.8 Q 211518.4 11414.8 212731.6 11414.8 Q 213918.4 11414.8 214866.4 11840.8 Q 215814.4 12266.8 216474.4 13040.8 Q 217134.4 13814.8 217488.4 14900.8 Q 217842.4 15986.8 217842.4 17306.8 L 217842.4 18664 L 209538.4 18664 Q 209597.2 20978.8 210515.2 22070.8 Q 211433.2 23162.8 213244 23162.8 Q 213857.2 23162.8 214379.2 23102.8 Q 214901.2 23042.8 215387.2 22928.8 Q 215873.2 22814.8 216329.2 22640.8 Q 216785.2 22466.8 217252 22250.8 L 217252 24194.8 Q 216772 24424 216310 24592 Q 215848 24760 215362 24868 Q 214876 24976 214354 25024 Q 213832 25072 213218.8 25072 L 213222.4 25072 Z M 212683.6 13226.8 Q 211315.6 13226.8 210517.6 14162.8 Q 209719.6 15098.8 209588.8 16888 L 215492.8 16888 Q 215492.8 16072 215330.8 15394 Q 215168.8 14716 214826.8 14236 Q 214484.8 13756 213956.8 13492 Q 213428.8 13228 212684.8 13228 L 212683.6 13226.8 Z M 227254.4 24832 L 227254.4 16346.8 Q 227254.4 14786.8 226624.4 14006.8 Q 225994.4 13226.8 224650.4 13226.8 Q 223677.2 13226.8 223017.2 13538.8 Q 222357.2 13850.8 221955.2 14462.8 Q 221553.2 15074.8 221379.2 15962.8 Q 221205.2 16850.8 221205.2 18002.8 L 221205.2 24832 L 219021.2 24832 L 219021.2 11656 L 220797.2 11656 L 221109.2 13432 L 221229.2 13432 Q 221530.4 12914.8 221944.4 12536.8 Q 222358.4 12158.8 222850.4 11906.8 Q 223342.4 11654.8 223894.4 11534.8 Q 224446.4 11414.8 225022.4 11414.8 Q 227219.6 11414.8 228329.6 12560.8 Q 229439.6 13706.8 229439.6 16226.8 L 229439.6 24832 L 227255.6 24832 L 227254.4 24832 Z M 226024.4 9914.8 Q 225544.4 9914.8 225070.4 9704.8 Q 224596.4 9494.8 224140.4 9236.8 Q 223684.4 8978.8 223264.4 8768.8 Q 222844.4 8558.8 222460.4 8558.8 Q 221919.2 8558.8 221631.2 8876.8 Q 221343.2 9194.8 221175.2 9938.8 L 219927.2 9938.8 Q 219988.4 9218.8 220186.4 8630.8 Q 220384.4 8042.8 220702.4 7628.8 Q 221020.4 7214.8 221464.4 6992.8 Q 221908.4 6770.8 222460.4 6770.8 Q 222964.4 6770.8 223450.4 6980.8 Q 223936.4 7190.8 224392.4 7442.8 Q 224848.4 7694.8 225262.4 7904.8 Q 225676.4 8114.8 226023.2 8114.8 Q 226564.4 8114.8 226840.4 7802.8 Q 227116.4 7490.8 227295.2 6746.8 L 228556.4 6746.8 Q 228495.2 7466.8 228297.2 8048.8 Q 228099.2 8630.8 227781.2 9044.8 Q 227463.2 9458.8 227019.2 9686.8 Q 226575.2 9914.8 226023.2 9914.8 L 226024.4 9914.8 Z M 242154 18218.8 Q 242154 19864 241752 21142 Q 241350 22420 240600 23290 Q 239850 24160 238782 24616 Q 237714 25072 236380.8 25072 Q 235146 25072 234102 24616 Q 233058 24160 232296 23290 Q 231534 22420 231108 21142 Q 230682 19864 230682 18218.8 Q 230682 16586.8 231084 15320.8 Q 231486 14054.8 232230 13184.8 Q 232974 12314.8 234048 11864.8 Q 235122 11414.8 236452.8 11414.8 Q 237690 11414.8 238734 11864.8 Q 239778 12314.8 240540 13184.8 Q 241302 14054.8 241728 15320.8 Q 242154 16586.8 242154 18218.8  Z M 232938 18218.8 Q 232938 20728 233760 21994 Q 234582 23260 236430 23260 Q 238278 23260 239088 21994 Q 239898 20728 239898 18218.8 Q 239898 15712 239076 14470 Q 238254 13228 236406 13228 Q 234558 13228 233748 14470 Q 232938 15712 232938 18218.8  Z M 255932.8 23066.8 L 255836.8 23066.8 Q 255572.8 23474.8 255218.8 23840.8 Q 254864.8 24206.8 254402.8 24482.8 Q 253940.8 24758.8 253364.8 24914.8 Q 252788.8 25070.8 252068.8 25070.8 Q 250954 25070.8 250030 24638.8 Q 249106 24206.8 248446 23348.8 Q 247786 22490.8 247426 21218.8 Q 247066 19946.8 247066 18266.8 Q 247066 16576 247426 15298 Q 247786 14020 248446 13156 Q 249106 12292 250030 11854 Q 250954 11416 252068.8 11416 Q 252778 11416 253354 11572 Q 253930 11728 254392 11992 Q 254854 12256 255214 12604 Q 255574 12952 255838 13336 L 255982 13336 Q 255947.2 12928 255910 12554.8 Q 255886 12242.8 255862 11912.8 Q 255838 11582.8 255838 11390.8 L 255838 6158.8 L 258022 6158.8 L 258022 24830.8 L 256259.2 24830.8 L 255934 23065.6 L 255932.8 23066.8 Z M 252490 23258.8 Q 253402 23258.8 254032 22982.8 Q 254662 22706.8 255052 22142.8 Q 255442 21578.8 255628 20732.8 Q 255814 19886.8 255838 18758.8 L 255838 18265.6 Q 255838 17054.8 255676 16112.8 Q 255514 15170.8 255124 14528.8 Q 254734 13886.8 254086 13556.8 Q 253438 13226.8 252467.2 13226.8 Q 250846 13226.8 250084 14534.8 Q 249322 15842.8 249322 18290.8 Q 249322 20800 250084 22030 Q 250846 23260 252491.2 23260 L 252490 23258.8 Z M 265395.2 25072 Q 264075.2 25072 262983.2 24628 Q 261891.2 24184 261105.2 23332 Q 260319.2 22480 259887.2 21220 Q 259455.2 19960 259455.2 18338.8 Q 259455.2 16706.8 259851.2 15422.8 Q 260247.2 14138.8 260967.2 13244.8 Q 261687.2 12350.8 262689.2 11882.8 Q 263691.2 11414.8 264904.4 11414.8 Q 266091.2 11414.8 267039.2 11840.8 Q 267987.2 12266.8 268647.2 13040.8 Q 269307.2 13814.8 269661.2 14900.8 Q 270015.2 15986.8 270015.2 17306.8 L 270015.2 18664 L 261711.2 18664 Q 261770 20978.8 262688 22070.8 Q 263606 23162.8 265416.8 23162.8 Q 266030 23162.8 266552 23102.8 Q 267074 23042.8 267560 22928.8 Q 268046 22814.8 268502 22640.8 Q 268958 22466.8 269424.8 22250.8 L 269424.8 24194.8 Q 268944.8 24424 268482.8 24592 Q 268020.8 24760 267534.8 24868 Q 267048.8 24976 266526.8 25024 Q 266004.8 25072 265391.6 25072 L 265395.2 25072 Z M 264856.4 13226.8 Q 263488.4 13226.8 262690.4 14162.8 Q 261892.4 15098.8 261761.6 16888 L 267665.6 16888 Q 267665.6 16072 267503.6 15394 Q 267341.6 14716 266999.6 14236 Q 266657.6 13756 266129.6 13492 Q 265601.6 13228 264857.6 13228 L 264856.4 13226.8 Z M 281396.8 25072 Q 280690 25072 280114 24916 Q 279538 24760 279076 24502 Q 278614 24244 278260 23896 Q 277906 23548 277628.8 23164 L 277484.8 23164 Q 277522 23572 277556.8 23945.2 Q 277580.8 24257.2 277604.8 24587.2 Q 277628.8 24917.2 277628.8 25109.2 L 277628.8 30736 L 275444.8 30736 L 275444.8 11656 L 277220.8 11656 L 277532.8 13432 L 277628.8 13432 Q 277906 13010.8 278254 12644.8 Q 278602 12278.8 279064 12008.8 Q 279526 11738.8 280102 11576.8 Q 280678 11414.8 281398 11414.8 Q 282526 11414.8 283450 11846.8 Q 284374 12278.8 285028 13136.8 Q 285682 13994.8 286042 15266.8 Q 286402 16538.8 286402 18218.8 Q 286402 19912 286042 21190 Q 285682 22468 285028 23332 Q 284374 24196 283450 24634 Q 282526 25072 281398 25072 L 281396.8 25072 Z M 280978 13226.8 Q 280066 13226.8 279436 13502.8 Q 278806 13778.8 278416 14342.8 Q 278026 14906.8 277840 15746.8 Q 277654 16586.8 277630 17728 L 277630 18218.8 Q 277630 19432 277792 20374 Q 277954 21316 278344 21958 Q 278734 22600 279382 22930 Q 280030 23260 281003.2 23260 Q 282622 23260 283384 21952 Q 284146 20644 284146 18196 Q 284146 15700 283384 14464 Q 282622 13228 280979.2 13228 L 280978 13226.8 Z M 290019.2 24832 L 287835.2 24832 L 287835.2 6160 L 290019.2 6160 L 290019.2 24832 Z M 299514 24832 L 299068.8 23008 L 298972.8 23008 Q 298578 23546.8 298182 23936.8 Q 297786 24326.8 297318 24578.8 Q 296850 24830.8 296274 24950.8 Q 295698 25070.8 294940.8 25070.8 Q 294114 25070.8 293418 24836.8 Q 292722 24602.8 292212 24116.8 Q 291702 23630.8 291414 22892.8 Q 291126 22154.8 291126 21146.8 Q 291126 19178.8 292512 18122.8 Q 293898 17066.8 296730 16970.8 L 298938 16888 L 298938 16058.8 Q 298938 15256 298764 14716 Q 298590 14176 298260 13846 Q 297930 13516 297444 13372 Q 296958 13228 296334 13228 Q 295339.2 13228 294481.2 13516 Q 293623.2 13804 292831.2 14212 L 292063.2 12569.2 Q 292951.2 12089.2 294043.2 11753.2 Q 295135.2 11417.2 296335.2 11417.2 Q 297559.2 11417.2 298453.2 11663.2 Q 299347.2 11909.2 299929.2 12443.2 Q 300511.2 12977.2 300799.2 13805.2 Q 301087.2 14633.2 301087.2 15809.2 L 301087.2 24833.2 L 299516.4 24833.2 L 299514 24832 Z M 295506 23306.8 Q 296236.8 23306.8 296860.8 23078.8 Q 297484.8 22850.8 297940.8 22388.8 Q 298396.8 21926.8 298654.8 21224.8 Q 298912.8 20522.8 298912.8 19576 L 298912.8 18386.8 L 297195.6 18472 Q 296115.6 18520 295383.6 18712 Q 294651.6 18904 294213.6 19246 Q 293775.6 19588 293583.6 20074 Q 293391.6 20560 293391.6 21170.8 Q 293391.6 22274.8 293973.6 22790.8 Q 294555.6 23306.8 295504.8 23306.8 L 295506 23306.8 Z M 311222.4 24832 L 311222.4 16346.8 Q 311222.4 14786.8 310592.4 14006.8 Q 309962.4 13226.8 308618.4 13226.8 Q 307645.2 13226.8 306985.2 13538.8 Q 306325.2 13850.8 305923.2 14462.8 Q 305521.2 15074.8 305347.2 15962.8 Q 305173.2 16850.8 305173.2 18002.8 L 305173.2 24832 L 302989.2 24832 L 302989.2 11656 L 304765.2 11656 L 305077.2 13432 L 305197.2 13432 Q 305498.4 12914.8 305912.4 12536.8 Q 306326.4 12158.8 306818.4 11906.8 Q 307310.4 11654.8 307862.4 11534.8 Q 308414.4 11414.8 308990.4 11414.8 Q 311187.6 11414.8 312297.6 12560.8 Q 313407.6 13706.8 313407.6 16226.8 L 313407.6 24832 L 311223.6 24832 L 311222.4 24832 Z M 327766.4 23066.8 L 327670.4 23066.8 Q 327406.4 23474.8 327052.4 23840.8 Q 326698.4 24206.8 326236.4 24482.8 Q 325774.4 24758.8 325198.4 24914.8 Q 324622.4 25070.8 323902.4 25070.8 Q 322787.6 25070.8 321863.6 24638.8 Q 320939.6 24206.8 320279.6 23348.8 Q 319619.6 22490.8 319259.6 21218.8 Q 318899.6 19946.8 318899.6 18266.8 Q 318899.6 16576 319259.6 15298 Q 319619.6 14020 320279.6 13156 Q 320939.6 12292 321863.6 11854 Q 322787.6 11416 323902.4 11416 Q 324611.6 11416 325187.6 11572 Q 325763.6 11728 326225.6 11992 Q 326687.6 12256 327047.6 12604 Q 327407.6 12952 327671.6 13336 L 327815.6 13336 Q 327780.8 12928 327743.6 12554.8 Q 327719.6 12242.8 327695.6 11912.8 Q 327671.6 11582.8 327671.6 11390.8 L 327671.6 6158.8 L 329855.6 6158.8 L 329855.6 24830.8 L 328092.8 24830.8 L 327767.6 23065.6 L 327766.4 23066.8 Z M 324323.6 23258.8 Q 325235.6 23258.8 325865.6 22982.8 Q 326495.6 22706.8 326885.6 22142.8 Q 327275.6 21578.8 327461.6 20732.8 Q 327647.6 19886.8 327671.6 18758.8 L 327671.6 18265.6 Q 327671.6 17054.8 327509.6 16112.8 Q 327347.6 15170.8 326957.6 14528.8 Q 326567.6 13886.8 325919.6 13556.8 Q 325271.6 13226.8 324300.8 13226.8 Q 322679.6 13226.8 321917.6 14534.8 Q 321155.6 15842.8 321155.6 18290.8 Q 321155.6 20800 321917.6 22030 Q 322679.6 23260 324324.8 23260 L 324323.6 23258.8 Z M 337228.8 25072 Q 335908.8 25072 334816.8 24628 Q 333724.8 24184 332938.8 23332 Q 332152.8 22480 331720.8 21220 Q 331288.8 19960 331288.8 18338.8 Q 331288.8 16706.8 331684.8 15422.8 Q 332080.8 14138.8 332800.8 13244.8 Q 333520.8 12350.8 334522.8 11882.8 Q 335524.8 11414.8 336738 11414.8 Q 337924.8 11414.8 338872.8 11840.8 Q 339820.8 12266.8 340480.8 13040.8 Q 341140.8 13814.8 341494.8 14900.8 Q 341848.8 15986.8 341848.8 17306.8 L 341848.8 18664 L 333544.8 18664 Q 333603.6 20978.8 334521.6 22070.8 Q 335439.6 23162.8 337250.4 23162.8 Q 337863.6 23162.8 338385.6 23102.8 Q 338907.6 23042.8 339393.6 22928.8 Q 339879.6 22814.8 340335.6 22640.8 Q 340791.6 22466.8 341258.4 22250.8 L 341258.4 24194.8 Q 340778.4 24424 340316.4 24592 Q 339854.4 24760 339368.4 24868 Q 338882.4 24976 338360.4 25024 Q 337838.4 25072 337225.2 25072 L 337228.8 25072 Z M 336690 13226.8 Q 335322 13226.8 334524 14162.8 Q 333726 15098.8 333595.2 16888 L 339499.2 16888 Q 339499.2 16072 339337.2 15394 Q 339175.2 14716 338833.2 14236 Q 338491.2 13756 337963.2 13492 Q 337435.2 13228 336691.2 13228 L 336690 13226.8 Z M 351262.4 23282.8 Q 351478.4 23282.8 351748.4 23258.8 Q 352018.4 23234.8 352270.4 23198.8 Q 352522.4 23162.8 352732.4 23114.8 Q 352942.4 23066.8 353051.6 23032 L 353051.6 24688 Q 352894.4 24760 352654.4 24832 Q 352414.4 24904 352126.4 24958 Q 351838.4 25012 351526.4 25042 Q 351214.4 25072 350915.6 25072 Q 350171.6 25072 349535.6 24880 Q 348899.6 24688 348437.6 24220 Q 347975.6 23752 347711.6 22954 Q 347447.6 22156 347447.6 20945.2 L 347447.6 13300 L 345588.8 13300 L 345588.8 12329.2 L 347447.6 11393.2 L 348383.6 8633.2 L 349644.8 8633.2 L 349644.8 11657.2 L 352956.8 11657.2 L 352956.8 13300 L 349644.8 13300 L 349644.8 20945.2 Q 349644.8 22108 350022.8 22696 Q 350400.8 23284 351264.8 23284 L 351262.4 23282.8 Z M 359226 11416 Q 359572.8 11416 360004.8 11446 Q 360436.8 11476 360748.8 11537.2 L 360460.8 13553.2 Q 360124.8 13492 359770.8 13450 Q 359416.8 13408 359104.8 13408 Q 358347.6 13408 357723.6 13714 Q 357099.6 14020 356649.6 14590 Q 356199.6 15160 355953.6 15958 Q 355707.6 16756 355707.6 17729.2 L 355707.6 24833.2 L 353523.6 24833.2 L 353523.6 11657.2 L 355299.6 11657.2 L 355563.6 14068 L 355659.6 14068 Q 355960.8 13553.2 356302.8 13073.2 Q 356644.8 12593.2 357070.8 12227.2 Q 357496.8 11861.2 358024.8 11639.2 Q 358552.8 11417.2 359224.8 11417.2 L 359226 11416 Z M 368736.4 24832 L 368291.2 23008 L 368195.2 23008 Q 367800.4 23546.8 367404.4 23936.8 Q 367008.4 24326.8 366540.4 24578.8 Q 366072.4 24830.8 365496.4 24950.8 Q 364920.4 25070.8 364163.2 25070.8 Q 363336.4 25070.8 362640.4 24836.8 Q 361944.4 24602.8 361434.4 24116.8 Q 360924.4 23630.8 360636.4 22892.8 Q 360348.4 22154.8 360348.4 21146.8 Q 360348.4 19178.8 361734.4 18122.8 Q 363120.4 17066.8 365952.4 16970.8 L 368160.4 16888 L 368160.4 16058.8 Q 368160.4 15256 367986.4 14716 Q 367812.4 14176 367482.4 13846 Q 367152.4 13516 366666.4 13372 Q 366180.4 13228 365556.4 13228 Q 364561.6 13228 363703.6 13516 Q 362845.6 13804 362053.6 14212 L 361285.6 12569.2 Q 362173.6 12089.2 363265.6 11753.2 Q 364357.6 11417.2 365557.6 11417.2 Q 366781.6 11417.2 367675.6 11663.2 Q 368569.6 11909.2 369151.6 12443.2 Q 369733.6 12977.2 370021.6 13805.2 Q 370309.6 14633.2 370309.6 15809.2 L 370309.6 24833.2 L 368738.8 24833.2 L 368736.4 24832 Z M 364728.4 23306.8 Q 365459.2 23306.8 366083.2 23078.8 Q 366707.2 22850.8 367163.2 22388.8 Q 367619.2 21926.8 367877.2 21224.8 Q 368135.2 20522.8 368135.2 19576 L 368135.2 18386.8 L 366418 18472 Q 365338 18520 364606 18712 Q 363874 18904 363436 19246 Q 362998 19588 362806 20074 Q 362614 20560 362614 21170.8 Q 362614 22274.8 363196 22790.8 Q 363778 23306.8 364727.2 23306.8 L 364728.4 23306.8 Z M 378164.8 11416 Q 379292.8 11416 380216.8 11848 Q 381140.8 12280 381794.8 13138 Q 382448.8 13996 382808.8 15268 Q 383168.8 16540 383168.8 18220 Q 383168.8 19913.2 382808.8 21191.2 Q 382448.8 22469.2 381794.8 23333.2 Q 381140.8 24197.2 380216.8 24635.2 Q 379292.8 25073.2 378164.8 25073.2 Q 377458 25073.2 376882 24917.2 Q 376306 24761.2 375844 24503.2 Q 375382 24245.2 375028 23897.2 Q 374674 23549.2 374396.8 23165.2 L 374252.8 23165.2 L 373810 24834.4 L 372212.8 24834.4 L 372212.8 6162.4 L 374396.8 6162.4 L 374396.8 10674.4 Q 374396.8 11093.2 374384.8 11567.2 Q 374372.8 12041.2 374348.8 12449.2 Q 374324.8 12929.2 374300.8 13385.2 L 374396.8 13385.2 Q 374674 12964 375022 12604 Q 375370 12244 375832 11980 Q 376294 11716 376870 11566 Q 377446 11416 378166 11416 L 378164.8 11416 Z M 377746 13226.8 Q 376786 13226.8 376144 13532.8 Q 375502 13838.8 375112 14462.8 Q 374722 15086.8 374560 16022.8 Q 374398 16958.8 374398 18217.6 Q 374398 19430.8 374560 20372.8 Q 374722 21314.8 375112 21956.8 Q 375502 22598.8 376150 22928.8 Q 376798 23258.8 377771.2 23258.8 Q 379390 23258.8 380152 21950.8 Q 380914 20642.8 380914 18194.8 Q 380914 15698.8 380152 14462.8 Q 379390 13226.8 377747.2 13226.8 L 377746 13226.8 Z M 392032.4 24832 L 391587.2 23008 L 391491.2 23008 Q 391096.4 23546.8 390700.4 23936.8 Q 390304.4 24326.8 389836.4 24578.8 Q 389368.4 24830.8 388792.4 24950.8 Q 388216.4 25070.8 387459.2 25070.8 Q 386632.4 25070.8 385936.4 24836.8 Q 385240.4 24602.8 384730.4 24116.8 Q 384220.4 23630.8 383932.4 22892.8 Q 383644.4 22154.8 383644.4 21146.8 Q 383644.4 19178.8 385030.4 18122.8 Q 386416.4 17066.8 389248.4 16970.8 L 391456.4 16888 L 391456.4 16058.8 Q 391456.4 15256 391282.4 14716 Q 391108.4 14176 390778.4 13846 Q 390448.4 13516 389962.4 13372 Q 389476.4 13228 388852.4 13228 Q 387857.6 13228 386999.6 13516 Q 386141.6 13804 385349.6 14212 L 384581.6 12569.2 Q 385469.6 12089.2 386561.6 11753.2 Q 387653.6 11417.2 388853.6 11417.2 Q 390077.6 11417.2 390971.6 11663.2 Q 391865.6 11909.2 392447.6 12443.2 Q 393029.6 12977.2 393317.6 13805.2 Q 393605.6 14633.2 393605.6 15809.2 L 393605.6 24833.2 L 392034.8 24833.2 L 392032.4 24832 Z M 388024.4 23306.8 Q 388755.2 23306.8 389379.2 23078.8 Q 390003.2 22850.8 390459.2 22388.8 Q 390915.2 21926.8 391173.2 21224.8 Q 391431.2 20522.8 391431.2 19576 L 391431.2 18386.8 L 389714 18472 Q 388634 18520 387902 18712 Q 387170 18904 386732 19246 Q 386294 19588 386102 20074 Q 385910 20560 385910 21170.8 Q 385910 22274.8 386492 22790.8 Q 387074 23306.8 388023.2 23306.8 L 388024.4 23306.8 Z M 394212.8 30736 Q 393636.8 30736 393258.8 30652 Q 392880.8 30568 392606 30437.2 L 392606 28661.2 Q 392918 28781.2 393242 28847.2 Q 393566 28913.2 393987.2 28913.2 Q 394310 28913.2 394586 28823.2 Q 394862 28733.2 395072 28499.2 Q 395282 28265.2 395396 27875.2 Q 395510 27485.2 395510 26872 L 395510 11656 L 397694 11656 L 397694 26728 Q 397694 27653.2 397490 28391.2 Q 397286 29129.2 396854 29651.2 Q 396422 30173.2 395768 30455.2 Q 395114 30737.2 394212.8 30737.2 L 394212.8 30736 Z M 395340.8 8090.8 Q 395340.8 7370.8 395706.8 7046.8 Q 396072.8 6722.8 396611.6 6722.8 Q 396875.6 6722.8 397109.6 6800.8 Q 397343.6 6878.8 397517.6 7046.8 Q 397691.6 7214.8 397793.6 7472.8 Q 397895.6 7730.8 397895.6 8090.8 Q 397895.6 8786.8 397517.6 9128.8 Q 397139.6 9470.8 396611.6 9470.8 Q 396072.8 9470.8 395706.8 9134.8 Q 395340.8 8798.8 395340.8 8089.6 L 395340.8 8090.8 Z M 410499.6 18218.8 Q 410499.6 19864 410097.6 21142 Q 409695.6 22420 408945.6 23290 Q 408195.6 24160 407127.6 24616 Q 406059.6 25072 404726.4 25072 Q 403491.6 25072 402447.6 24616 Q 401403.6 24160 400641.6 23290 Q 399879.6 22420 399453.6 21142 Q 399027.6 19864 399027.6 18218.8 Q 399027.6 16586.8 399429.6 15320.8 Q 399831.6 14054.8 400575.6 13184.8 Q 401319.6 12314.8 402393.6 11864.8 Q 403467.6 11414.8 404798.4 11414.8 Q 406035.6 11414.8 407079.6 11864.8 Q 408123.6 12314.8 408885.6 13184.8 Q 409647.6 14054.8 410073.6 15320.8 Q 410499.6 16586.8 410499.6 18218.8  Z M 401283.6 18218.8 Q 401283.6 20728 402105.6 21994 Q 402927.6 23260 404775.6 23260 Q 406623.6 23260 407433.6 21994 Q 408243.6 20728 408243.6 18218.8 Q 408243.6 15712 407421.6 14470 Q 406599.6 13228 404751.6 13228 Q 402903.6 13228 402093.6 14470 Q 401283.6 15712 401283.6 18218.8  Z " fill-rule="nonzero" style="fill:#535353;;fill-opacity:1;"/>
</svg>