<svg version="1.1" x="0" y="0" width="100%" height="100%" viewBox="0 0 250521.6 118630.4" xmlns="http://www.w3.org/2000/svg">
  <path d="M 52478.8 12424 Q 52478.8 13514.8 52148.8 14522.8 Q 51818.8 15530.8 51062.8 16304.8 Q 50306.8 17078.8 49064.8 17540.8 Q 47822.8 18002.8 45998.8 18002.8 L 44198.8 18002.8 L 44198.8 24832 L 41966.8 24832 L 41966.8 7288 L 46310.8 7288 Q 47918.8 7288 49082.8 7630 Q 50246.8 7972 51002.8 8626 Q 51758.8 9280 52118.8 10240 Q 52478.8 11200 52478.8 12424  Z M 44198.8 16106.8 L 45745.6 16106.8 Q 46862.8 16106.8 47696.8 15914.8 Q 48530.8 15722.8 49076.8 15296.8 Q 49622.8 14870.8 49898.8 14192.8 Q 50174.8 13514.8 50174.8 12544 Q 50174.8 10840 49190.8 10018 Q 48206.8 9196 46118.8 9196 L 44198.8 9196 L 44198.8 16108 L 44198.8 16106.8 Z M 59450 11416 Q 59796.8 11416 60228.8 11446 Q 60660.8 11476 60972.8 11537.2 L 60684.8 13553.2 Q 60348.8 13492 59994.8 13450 Q 59640.8 13408 59328.8 13408 Q 58571.6 13408 57947.6 13714 Q 57323.6 14020 56873.6 14590 Q 56423.6 15160 56177.6 15958 Q 55931.6 16756 55931.6 17729.2 L 55931.6 24833.2 L 53747.6 24833.2 L 53747.6 11657.2 L 55523.6 11657.2 L 55787.6 14068 L 55883.6 14068 Q 56184.8 13553.2 56526.8 13073.2 Q 56868.8 12593.2 57294.8 12227.2 Q 57720.8 11861.2 58248.8 11639.2 Q 58776.8 11417.2 59448.8 11417.2 L 59450 11416 Z M 72272.4 18218.8 Q 72272.4 19864 71870.4 21142 Q 71468.4 22420 70718.4 23290 Q 69968.4 24160 68900.4 24616 Q 67832.4 25072 66499.2 25072 Q 65264.4 25072 64220.4 24616 Q 63176.4 24160 62414.4 23290 Q 61652.4 22420 61226.4 21142 Q 60800.4 19864 60800.4 18218.8 Q 60800.4 16586.8 61202.4 15320.8 Q 61604.4 14054.8 62348.4 13184.8 Q 63092.4 12314.8 64166.4 11864.8 Q 65240.4 11414.8 66571.2 11414.8 Q 67808.4 11414.8 68852.4 11864.8 Q 69896.4 12314.8 70658.4 13184.8 Q 71420.4 14054.8 71846.4 15320.8 Q 72272.4 16586.8 72272.4 18218.8  Z M 63056.4 18218.8 Q 63056.4 20728 63878.4 21994 Q 64700.4 23260 66548.4 23260 Q 68396.4 23260 69206.4 21994 Q 70016.4 20728 70016.4 18218.8 Q 70016.4 15712 69194.4 14470 Q 68372.4 13228 66524.4 13228 Q 64676.4 13228 63866.4 14470 Q 63056.4 15712 63056.4 18218.8  Z M 83817.6 11656 L 83817.6 13010.8 L 81454.8 13336 Q 81790.8 13754.8 82018.8 14408.8 Q 82246.8 15062.8 82246.8 15889.6 Q 82246.8 16801.6 81964.8 17575.6 Q 81682.8 18349.6 81112.8 18913.6 Q 80542.8 19477.6 79702.8 19795.6 Q 78862.8 20113.6 77745.6 20113.6 Q 77481.6 20113.6 77217.6 20107.6 Q 76953.6 20101.6 76785.6 20064.4 Q 76582.8 20184.4 76384.8 20334.4 Q 76186.8 20484.4 76024.8 20676.4 Q 75862.8 20868.4 75760.8 21108.4 Q 75658.8 21348.4 75658.8 21636.4 Q 75658.8 21959.2 75802.8 22157.2 Q 75946.8 22355.2 76192.8 22463.2 Q 76438.8 22571.2 76774.8 22607.2 Q 77110.8 22643.2 77481.6 22643.2 L 79593.6 22643.2 Q 80710.8 22643.2 81478.8 22925.2 Q 82246.8 23207.2 82732.8 23687.2 Q 83218.8 24167.2 83434.8 24821.2 Q 83650.8 25475.2 83650.8 26208.4 Q 83650.8 27264.4 83260.8 28104.4 Q 82870.8 28944.4 82066.8 29526.4 Q 81262.8 30108.4 80032.8 30420.4 Q 78802.8 30732.4 77136 30732.4 Q 75850.8 30732.4 74890.8 30480.4 Q 73930.8 30228.4 73294.8 29748.4 Q 72658.8 29268.4 72340.8 28590.4 Q 72022.8 27912.4 72022.8 27059.2 Q 72022.8 26339.2 72256.8 25793.2 Q 72490.8 25247.2 72886.8 24850 Q 73282.8 24452.8 73804.8 24200.8 Q 74326.8 23948.8 74889.6 23818 Q 74385.6 23588.8 74061.6 23096.8 Q 73737.6 22604.8 73737.6 21970 Q 73737.6 21236.8 74121.6 20702.8 Q 74505.6 20168.8 75334.8 19664.8 Q 74817.6 19448.8 74391.6 19070.8 Q 73965.6 18692.8 73671.6 18206.8 Q 73377.6 17720.8 73215.6 17144.8 Q 73053.6 16568.8 73053.6 15955.6 Q 73053.6 14888.8 73353.6 14048.8 Q 73653.6 13208.8 74241.6 12620.8 Q 74829.6 12032.8 75705.6 11720.8 Q 76581.6 11408.8 77744.4 11408.8 Q 78189.6 11408.8 78663.6 11474.8 Q 79137.6 11540.8 79462.8 11650 L 83817.6 11650 L 83817.6 11656 Z M 74086.8 26992 Q 74086.8 27437.2 74242.8 27821.2 Q 74398.8 28205.2 74752.8 28481.2 Q 75106.8 28757.2 75688.8 28919.2 Q 76270.8 29081.2 77134.8 29081.2 Q 79366.8 29081.2 80476.8 28391.2 Q 81586.8 27701.2 81586.8 26405.2 Q 81586.8 25853.2 81442.8 25505.2 Q 81298.8 25157.2 80968.8 24959.2 Q 80638.8 24761.2 80098.8 24689.2 Q 79558.8 24617.2 78777.6 24617.2 L 76665.6 24617.2 Q 76246.8 24617.2 75790.8 24713.2 Q 75334.8 24809.2 74956.8 25073.2 Q 74578.8 25337.2 74332.8 25799.2 Q 74086.8 26261.2 74086.8 26992  Z M 75190.8 15890.8 Q 75190.8 17272 75838.8 17944 Q 76486.8 18616 77673.6 18616 Q 78873.6 18616 79491.6 17950 Q 80109.6 17284 80109.6 15857.2 Q 80109.6 14380 79479.6 13684 Q 78849.6 12988 77649.6 12988 Q 76462.8 12988 75826.8 13708 Q 75190.8 14428 75190.8 15892 L 75190.8 15890.8 Z M 89965.2 11416 Q 90312 11416 90744 11446 Q 91176 11476 91488 11537.2 L 91200 13553.2 Q 90864 13492 90510 13450 Q 90156 13408 89844 13408 Q 89086.8 13408 88462.8 13714 Q 87838.8 14020 87388.8 14590 Q 86938.8 15160 86692.8 15958 Q 86446.8 16756 86446.8 17729.2 L 86446.8 24833.2 L 84262.8 24833.2 L 84262.8 11657.2 L 86038.8 11657.2 L 86302.8 14068 L 86398.8 14068 Q 86700 13553.2 87042 13073.2 Q 87384 12593.2 87810 12227.2 Q 88236 11861.2 88764 11639.2 Q 89292 11417.2 89964 11417.2 L 89965.2 11416 Z M 99475.6 24832 L 99030.4 23008 L 98934.4 23008 Q 98539.6 23546.8 98143.6 23936.8 Q 97747.6 24326.8 97279.6 24578.8 Q 96811.6 24830.8 96235.6 24950.8 Q 95659.6 25070.8 94902.4 25070.8 Q 94075.6 25070.8 93379.6 24836.8 Q 92683.6 24602.8 92173.6 24116.8 Q 91663.6 23630.8 91375.6 22892.8 Q 91087.6 22154.8 91087.6 21146.8 Q 91087.6 19178.8 92473.6 18122.8 Q 93859.6 17066.8 96691.6 16970.8 L 98899.6 16888 L 98899.6 16058.8 Q 98899.6 15256 98725.6 14716 Q 98551.6 14176 98221.6 13846 Q 97891.6 13516 97405.6 13372 Q 96919.6 13228 96295.6 13228 Q 95300.8 13228 94442.8 13516 Q 93584.8 13804 92792.8 14212 L 92024.8 12569.2 Q 92912.8 12089.2 94004.8 11753.2 Q 95096.8 11417.2 96296.8 11417.2 Q 97520.8 11417.2 98414.8 11663.2 Q 99308.8 11909.2 99890.8 12443.2 Q 100472.8 12977.2 100760.8 13805.2 Q 101048.8 14633.2 101048.8 15809.2 L 101048.8 24833.2 L 99478 24833.2 L 99475.6 24832 Z M 95467.6 23306.8 Q 96198.4 23306.8 96822.4 23078.8 Q 97446.4 22850.8 97902.4 22388.8 Q 98358.4 21926.8 98616.4 21224.8 Q 98874.4 20522.8 98874.4 19576 L 98874.4 18386.8 L 97157.2 18472 Q 96077.2 18520 95345.2 18712 Q 94613.2 18904 94175.2 19246 Q 93737.2 19588 93545.2 20074 Q 93353.2 20560 93353.2 21170.8 Q 93353.2 22274.8 93935.2 22790.8 Q 94517.2 23306.8 95466.4 23306.8 L 95467.6 23306.8 Z M 95290 9616 Q 95554 9266.8 95836 8810.8 Q 96118 8354.8 96400 7868.8 Q 96682 7382.8 96934 6896.8 Q 97186 6410.8 97378 6002.8 L 100004.8 6002.8 L 100004.8 6256 Q 99812.8 6578.8 99434.8 7064.8 Q 99056.8 7550.8 98594.8 8078.8 Q 98132.8 8606.8 97646.8 9104.8 Q 97160.8 9602.8 96739.6 9938.8 L 95288.8 9938.8 L 95288.8 9616 L 95290 9616 Z M 118733.2 24832 L 118733.2 16346.8 Q 118733.2 14786.8 118133.2 14006.8 Q 117533.2 13226.8 116272 13226.8 Q 115397.2 13226.8 114785.2 13508.8 Q 114173.2 13790.8 113783.2 14336.8 Q 113393.2 14882.8 113213.2 15692.8 Q 113033.2 16502.8 113033.2 17558.8 L 113033.2 24830.8 L 110838.4 24830.8 L 110838.4 16345.6 Q 110838.4 14785.6 110244.4 14005.6 Q 109650.4 13225.6 108391.6 13225.6 Q 107466.4 13225.6 106842.4 13537.6 Q 106218.4 13849.6 105840.4 14461.6 Q 105462.4 15073.6 105300.4 15961.6 Q 105138.4 16849.6 105138.4 18001.6 L 105138.4 24830.8 L 102954.4 24830.8 L 102954.4 11654.8 L 104730.4 11654.8 L 105042.4 13430.8 L 105162.4 13430.8 Q 105450.4 12913.6 105846.4 12535.6 Q 106242.4 12157.6 106716.4 11905.6 Q 107190.4 11653.6 107724.4 11533.6 Q 108258.4 11413.6 108810.4 11413.6 Q 110250.4 11413.6 111204.4 11941.6 Q 112158.4 12469.6 112614.4 13597.6 L 112710.4 13597.6 Q 113022.4 13032.4 113460.4 12624.4 Q 113898.4 12216.4 114420.4 11946.4 Q 114942.4 11676.4 115518.4 11544.4 Q 116094.4 11412.4 116694.4 11412.4 Q 118793.2 11412.4 119855.2 12558.4 Q 120917.2 13704.4 120917.2 16224.4 L 120917.2 24829.6 L 118733.2 24829.6 L 118733.2 24832 Z M 130298 24832 L 129852.8 23008 L 129756.8 23008 Q 129362 23546.8 128966 23936.8 Q 128570 24326.8 128102 24578.8 Q 127634 24830.8 127058 24950.8 Q 126482 25070.8 125724.8 25070.8 Q 124898 25070.8 124202 24836.8 Q 123506 24602.8 122996 24116.8 Q 122486 23630.8 122198 22892.8 Q 121910 22154.8 121910 21146.8 Q 121910 19178.8 123296 18122.8 Q 124682 17066.8 127514 16970.8 L 129722 16888 L 129722 16058.8 Q 129722 15256 129548 14716 Q 129374 14176 129044 13846 Q 128714 13516 128228 13372 Q 127742 13228 127118 13228 Q 126123.2 13228 125265.2 13516 Q 124407.2 13804 123615.2 14212 L 122847.2 12569.2 Q 123735.2 12089.2 124827.2 11753.2 Q 125919.2 11417.2 127119.2 11417.2 Q 128343.2 11417.2 129237.2 11663.2 Q 130131.2 11909.2 130713.2 12443.2 Q 131295.2 12977.2 131583.2 13805.2 Q 131871.2 14633.2 131871.2 15809.2 L 131871.2 24833.2 L 130300.4 24833.2 L 130298 24832 Z M 126290 23306.8 Q 127020.8 23306.8 127644.8 23078.8 Q 128268.8 22850.8 128724.8 22388.8 Q 129180.8 21926.8 129438.8 21224.8 Q 129696.8 20522.8 129696.8 19576 L 129696.8 18386.8 L 127979.6 18472 Q 126899.6 18520 126167.6 18712 Q 125435.6 18904 124997.6 19246 Q 124559.6 19588 124367.6 20074 Q 124175.6 20560 124175.6 21170.8 Q 124175.6 22274.8 124757.6 22790.8 Q 125339.6 23306.8 126288.8 23306.8 L 126290 23306.8 Z M 137758.4 23282.8 Q 137974.4 23282.8 138244.4 23258.8 Q 138514.4 23234.8 138766.4 23198.8 Q 139018.4 23162.8 139228.4 23114.8 Q 139438.4 23066.8 139547.6 23032 L 139547.6 24688 Q 139390.4 24760 139150.4 24832 Q 138910.4 24904 138622.4 24958 Q 138334.4 25012 138022.4 25042 Q 137710.4 25072 137411.6 25072 Q 136667.6 25072 136031.6 24880 Q 135395.6 24688 134933.6 24220 Q 134471.6 23752 134207.6 22954 Q 133943.6 22156 133943.6 20945.2 L 133943.6 13300 L 132084.8 13300 L 132084.8 12329.2 L 133943.6 11393.2 L 134879.6 8633.2 L 136140.8 8633.2 L 136140.8 11657.2 L 139452.8 11657.2 L 139452.8 13300 L 136140.8 13300 L 136140.8 20945.2 Q 136140.8 22108 136518.8 22696 Q 136896.8 23284 137760.8 23284 L 137758.4 23282.8 Z M 145228.8 25072 Q 143908.8 25072 142816.8 24628 Q 141724.8 24184 140938.8 23332 Q 140152.8 22480 139720.8 21220 Q 139288.8 19960 139288.8 18338.8 Q 139288.8 16706.8 139684.8 15422.8 Q 140080.8 14138.8 140800.8 13244.8 Q 141520.8 12350.8 142522.8 11882.8 Q 143524.8 11414.8 144738 11414.8 Q 145924.8 11414.8 146872.8 11840.8 Q 147820.8 12266.8 148480.8 13040.8 Q 149140.8 13814.8 149494.8 14900.8 Q 149848.8 15986.8 149848.8 17306.8 L 149848.8 18664 L 141544.8 18664 Q 141603.6 20978.8 142521.6 22070.8 Q 143439.6 23162.8 145250.4 23162.8 Q 145863.6 23162.8 146385.6 23102.8 Q 146907.6 23042.8 147393.6 22928.8 Q 147879.6 22814.8 148335.6 22640.8 Q 148791.6 22466.8 149258.4 22250.8 L 149258.4 24194.8 Q 148778.4 24424 148316.4 24592 Q 147854.4 24760 147368.4 24868 Q 146882.4 24976 146360.4 25024 Q 145838.4 25072 145225.2 25072 L 145228.8 25072 Z M 144690 13226.8 Q 143322 13226.8 142524 14162.8 Q 141726 15098.8 141595.2 16888 L 147499.2 16888 Q 147499.2 16072 147337.2 15394 Q 147175.2 14716 146833.2 14236 Q 146491.2 13756 145963.2 13492 Q 145435.2 13228 144691.2 13228 L 144690 13226.8 Z M 161230.4 25072 Q 160523.6 25072 159947.6 24916 Q 159371.6 24760 158909.6 24502 Q 158447.6 24244 158093.6 23896 Q 157739.6 23548 157462.4 23164 L 157318.4 23164 Q 157355.6 23572 157390.4 23945.2 Q 157414.4 24257.2 157438.4 24587.2 Q 157462.4 24917.2 157462.4 25109.2 L 157462.4 30736 L 155278.4 30736 L 155278.4 11656 L 157054.4 11656 L 157366.4 13432 L 157462.4 13432 Q 157739.6 13010.8 158087.6 12644.8 Q 158435.6 12278.8 158897.6 12008.8 Q 159359.6 11738.8 159935.6 11576.8 Q 160511.6 11414.8 161231.6 11414.8 Q 162359.6 11414.8 163283.6 11846.8 Q 164207.6 12278.8 164861.6 13136.8 Q 165515.6 13994.8 165875.6 15266.8 Q 166235.6 16538.8 166235.6 18218.8 Q 166235.6 19912 165875.6 21190 Q 165515.6 22468 164861.6 23332 Q 164207.6 24196 163283.6 24634 Q 162359.6 25072 161231.6 25072 L 161230.4 25072 Z M 160811.6 13226.8 Q 159899.6 13226.8 159269.6 13502.8 Q 158639.6 13778.8 158249.6 14342.8 Q 157859.6 14906.8 157673.6 15746.8 Q 157487.6 16586.8 157463.6 17728 L 157463.6 18218.8 Q 157463.6 19432 157625.6 20374 Q 157787.6 21316 158177.6 21958 Q 158567.6 22600 159215.6 22930 Q 159863.6 23260 160836.8 23260 Q 162455.6 23260 163217.6 21952 Q 163979.6 20644 163979.6 18196 Q 163979.6 15700 163217.6 14464 Q 162455.6 13228 160812.8 13228 L 160811.6 13226.8 Z M 175098 24832 L 174652.8 23008 L 174556.8 23008 Q 174162 23546.8 173766 23936.8 Q 173370 24326.8 172902 24578.8 Q 172434 24830.8 171858 24950.8 Q 171282 25070.8 170524.8 25070.8 Q 169698 25070.8 169002 24836.8 Q 168306 24602.8 167796 24116.8 Q 167286 23630.8 166998 22892.8 Q 166710 22154.8 166710 21146.8 Q 166710 19178.8 168096 18122.8 Q 169482 17066.8 172314 16970.8 L 174522 16888 L 174522 16058.8 Q 174522 15256 174348 14716 Q 174174 14176 173844 13846 Q 173514 13516 173028 13372 Q 172542 13228 171918 13228 Q 170923.2 13228 170065.2 13516 Q 169207.2 13804 168415.2 14212 L 167647.2 12569.2 Q 168535.2 12089.2 169627.2 11753.2 Q 170719.2 11417.2 171919.2 11417.2 Q 173143.2 11417.2 174037.2 11663.2 Q 174931.2 11909.2 175513.2 12443.2 Q 176095.2 12977.2 176383.2 13805.2 Q 176671.2 14633.2 176671.2 15809.2 L 176671.2 24833.2 L 175100.4 24833.2 L 175098 24832 Z M 171090 23306.8 Q 171820.8 23306.8 172444.8 23078.8 Q 173068.8 22850.8 173524.8 22388.8 Q 173980.8 21926.8 174238.8 21224.8 Q 174496.8 20522.8 174496.8 19576 L 174496.8 18386.8 L 172779.6 18472 Q 171699.6 18520 170967.6 18712 Q 170235.6 18904 169797.6 19246 Q 169359.6 19588 169167.6 20074 Q 168975.6 20560 168975.6 21170.8 Q 168975.6 22274.8 169557.6 22790.8 Q 170139.6 23306.8 171088.8 23306.8 L 171090 23306.8 Z M 184275.6 11416 Q 184622.4 11416 185054.4 11446 Q 185486.4 11476 185798.4 11537.2 L 185510.4 13553.2 Q 185174.4 13492 184820.4 13450 Q 184466.4 13408 184154.4 13408 Q 183397.2 13408 182773.2 13714 Q 182149.2 14020 181699.2 14590 Q 181249.2 15160 181003.2 15958 Q 180757.2 16756 180757.2 17729.2 L 180757.2 24833.2 L 178573.2 24833.2 L 178573.2 11657.2 L 180349.2 11657.2 L 180613.2 14068 L 180709.2 14068 Q 181010.4 13553.2 181352.4 13073.2 Q 181694.4 12593.2 182120.4 12227.2 Q 182546.4 11861.2 183074.4 11639.2 Q 183602.4 11417.2 184274.4 11417.2 L 184275.6 11416 Z M 193786 24832 L 193340.8 23008 L 193244.8 23008 Q 192850 23546.8 192454 23936.8 Q 192058 24326.8 191590 24578.8 Q 191122 24830.8 190546 24950.8 Q 189970 25070.8 189212.8 25070.8 Q 188386 25070.8 187690 24836.8 Q 186994 24602.8 186484 24116.8 Q 185974 23630.8 185686 22892.8 Q 185398 22154.8 185398 21146.8 Q 185398 19178.8 186784 18122.8 Q 188170 17066.8 191002 16970.8 L 193210 16888 L 193210 16058.8 Q 193210 15256 193036 14716 Q 192862 14176 192532 13846 Q 192202 13516 191716 13372 Q 191230 13228 190606 13228 Q 189611.2 13228 188753.2 13516 Q 187895.2 13804 187103.2 14212 L 186335.2 12569.2 Q 187223.2 12089.2 188315.2 11753.2 Q 189407.2 11417.2 190607.2 11417.2 Q 191831.2 11417.2 192725.2 11663.2 Q 193619.2 11909.2 194201.2 12443.2 Q 194783.2 12977.2 195071.2 13805.2 Q 195359.2 14633.2 195359.2 15809.2 L 195359.2 24833.2 L 193788.4 24833.2 L 193786 24832 Z M 189778 23306.8 Q 190508.8 23306.8 191132.8 23078.8 Q 191756.8 22850.8 192212.8 22388.8 Q 192668.8 21926.8 192926.8 21224.8 Q 193184.8 20522.8 193184.8 19576 L 193184.8 18386.8 L 191467.6 18472 Q 190387.6 18520 189655.6 18712 Q 188923.6 18904 188485.6 19246 Q 188047.6 19588 187855.6 20074 Q 187663.6 20560 187663.6 21170.8 Q 187663.6 22274.8 188245.6 22790.8 Q 188827.6 23306.8 189776.8 23306.8 L 189778 23306.8 Z M 211520 24832 L 200576 24832 L 200576 22960 L 204776 18386.8 Q 205677.2 17416 206385.2 16612 Q 207093.2 15808 207591.2 15040 Q 208089.2 14272 208353.2 13498 Q 208617.2 12724 208617.2 11812 Q 208617.2 11105.2 208413.2 10565.2 Q 208209.2 10025.2 207831.2 9647.2 Q 207453.2 9269.2 206937.2 9077.2 Q 206421.2 8885.2 205784 8885.2 Q 204645.2 8885.2 203727.2 9347.2 Q 202809.2 9809.2 201982.4 10529.2 L 200758.4 9100 Q 201238.4 8668 201790.4 8290 Q 202342.4 7912 202978.4 7636 Q 203614.4 7360 204322.4 7198 Q 205030.4 7036 205809.2 7036 Q 206961.2 7036 207891.2 7360 Q 208821.2 7684 209469.2 8290 Q 210117.2 8896 210471.2 9766 Q 210825.2 10636 210825.2 11729.2 Q 210825.2 12748 210507.2 13672 Q 210189.2 14596 209631.2 15490 Q 209073.2 16384 208299.2 17284 Q 207525.2 18184 206624 19154.8 L 203253.2 22744 L 203253.2 22840 L 211520 22840 L 211520 24832 Z M 27571.2 68028.8 Q 26251.2 68028.8 25159.2 67584.8 Q 24067.2 67140.8 23281.2 66288.8 Q 22495.2 65436.8 22063.2 64176.8 Q 21631.2 62916.8 21631.2 61295.6 Q 21631.2 59663.6 22027.2 58379.6 Q 22423.2 57095.6 23143.2 56201.6 Q 23863.2 55307.6 24865.2 54839.6 Q 25867.2 54371.6 27080.4 54371.6 Q 28267.2 54371.6 29215.2 54797.6 Q 30163.2 55223.6 30823.2 55997.6 Q 31483.2 56771.6 31837.2 57857.6 Q 32191.2 58943.6 32191.2 60263.6 L 32191.2 61620.8 L 23887.2 61620.8 Q 23946 63935.6 24864 65027.6 Q 25782 66119.6 27592.8 66119.6 Q 28206 66119.6 28728 66059.6 Q 29250 65999.6 29736 65885.6 Q 30222 65771.6 30678 65597.6 Q 31134 65423.6 31600.8 65207.6 L 31600.8 67151.6 Q 31120.8 67380.8 30658.8 67548.8 Q 30196.8 67716.8 29710.8 67824.8 Q 29224.8 67932.8 28702.8 67980.8 Q 28180.8 68028.8 27567.6 68028.8 L 27571.2 68028.8 Z M 27032.4 56183.6 Q 25664.4 56183.6 24866.4 57119.6 Q 24068.4 58055.6 23937.6 59844.8 L 29841.6 59844.8 Q 29841.6 59028.8 29679.6 58350.8 Q 29517.6 57672.8 29175.6 57192.8 Q 28833.6 56712.8 28305.6 56448.8 Q 27777.6 56184.8 27033.6 56184.8 L 27032.4 56183.6 Z M 41603.2 67788.8 L 41603.2 59303.6 Q 41603.2 57743.6 40973.2 56963.6 Q 40343.2 56183.6 38999.2 56183.6 Q 38026 56183.6 37366 56495.6 Q 36706 56807.6 36304 57419.6 Q 35902 58031.6 35728 58919.6 Q 35554 59807.6 35554 60959.6 L 35554 67788.8 L 33370 67788.8 L 33370 54612.8 L 35146 54612.8 L 35458 56388.8 L 35578 56388.8 Q 35879.2 55871.6 36293.2 55493.6 Q 36707.2 55115.6 37199.2 54863.6 Q 37691.2 54611.6 38243.2 54491.6 Q 38795.2 54371.6 39371.2 54371.6 Q 41568.4 54371.6 42678.4 55517.6 Q 43788.4 56663.6 43788.4 59183.6 L 43788.4 67788.8 L 41604.4 67788.8 L 41603.2 67788.8 Z M 50801.6 68028.8 Q 49590.8 68028.8 48534.8 67650.8 Q 47478.8 67272.8 46698.8 66450.8 Q 45918.8 65628.8 45474.8 64350.8 Q 45030.8 63072.8 45030.8 61272.8 Q 45030.8 59390 45486.8 58076 Q 45942.8 56762 46740.8 55940 Q 47538.8 55118 48606.8 54746 Q 49674.8 54374 50898.8 54374 Q 51834.8 54374 52728.8 54578 Q 53622.8 54782 54222.8 55080.8 L 53574.8 56928.8 Q 53297.6 56808.8 52961.6 56694.8 Q 52625.6 56580.8 52265.6 56490.8 Q 51905.6 56400.8 51557.6 56346.8 Q 51209.6 56292.8 50897.6 56292.8 Q 49014.8 56292.8 48150.8 57498.8 Q 47286.8 58704.8 47286.8 61248.8 Q 47286.8 63782 48156.8 64952 Q 49026.8 66122 50802.8 66122 Q 51776 66122 52562 65900 Q 53348 65678 53996 65376.8 L 53996 67320.8 Q 53348 67670 52610 67850 Q 51872 68030 50802.8 68030 L 50801.6 68028.8 Z M 63613.2 67788.8 L 63288 66023.6 L 63168 66023.6 Q 62869.2 66540.8 62455.2 66918.8 Q 62041.2 67296.8 61549.2 67542.8 Q 61057.2 67788.8 60505.2 67908.8 Q 59953.2 68028.8 59377.2 68028.8 Q 58286.4 68028.8 57458.4 67752.8 Q 56630.4 67476.8 56078.4 66888.8 Q 55526.4 66300.8 55244.4 65388.8 Q 54962.4 64476.8 54962.4 63215.6 L 54962.4 54612.8 L 57146.4 54612.8 L 57146.4 63095.6 Q 57146.4 64655.6 57782.4 65435.6 Q 58418.4 66215.6 59751.6 66215.6 Q 60722.4 66215.6 61382.4 65903.6 Q 62042.4 65591.6 62444.4 64985.6 Q 62846.4 64379.6 63020.4 63491.6 Q 63194.4 62603.6 63194.4 61451.6 L 63194.4 54611.6 L 65378.4 54611.6 L 65378.4 67787.6 L 63615.6 67787.6 L 63613.2 67788.8 Z M 72678.4 68028.8 Q 71358.4 68028.8 70266.4 67584.8 Q 69174.4 67140.8 68388.4 66288.8 Q 67602.4 65436.8 67170.4 64176.8 Q 66738.4 62916.8 66738.4 61295.6 Q 66738.4 59663.6 67134.4 58379.6 Q 67530.4 57095.6 68250.4 56201.6 Q 68970.4 55307.6 69972.4 54839.6 Q 70974.4 54371.6 72187.6 54371.6 Q 73374.4 54371.6 74322.4 54797.6 Q 75270.4 55223.6 75930.4 55997.6 Q 76590.4 56771.6 76944.4 57857.6 Q 77298.4 58943.6 77298.4 60263.6 L 77298.4 61620.8 L 68994.4 61620.8 Q 69053.2 63935.6 69971.2 65027.6 Q 70889.2 66119.6 72700 66119.6 Q 73313.2 66119.6 73835.2 66059.6 Q 74357.2 65999.6 74843.2 65885.6 Q 75329.2 65771.6 75785.2 65597.6 Q 76241.2 65423.6 76708 65207.6 L 76708 67151.6 Q 76228 67380.8 75766 67548.8 Q 75304 67716.8 74818 67824.8 Q 74332 67932.8 73810 67980.8 Q 73288 68028.8 72674.8 68028.8 L 72678.4 68028.8 Z M 72139.6 56183.6 Q 70771.6 56183.6 69973.6 57119.6 Q 69175.6 58055.6 69044.8 59844.8 L 74948.8 59844.8 Q 74948.8 59028.8 74786.8 58350.8 Q 74624.8 57672.8 74282.8 57192.8 Q 73940.8 56712.8 73412.8 56448.8 Q 72884.8 56184.8 72140.8 56184.8 L 72139.6 56183.6 Z M 86710.4 67788.8 L 86710.4 59303.6 Q 86710.4 57743.6 86080.4 56963.6 Q 85450.4 56183.6 84106.4 56183.6 Q 83133.2 56183.6 82473.2 56495.6 Q 81813.2 56807.6 81411.2 57419.6 Q 81009.2 58031.6 80835.2 58919.6 Q 80661.2 59807.6 80661.2 60959.6 L 80661.2 67788.8 L 78477.2 67788.8 L 78477.2 54612.8 L 80253.2 54612.8 L 80565.2 56388.8 L 80685.2 56388.8 Q 80986.4 55871.6 81400.4 55493.6 Q 81814.4 55115.6 82306.4 54863.6 Q 82798.4 54611.6 83350.4 54491.6 Q 83902.4 54371.6 84478.4 54371.6 Q 86675.6 54371.6 87785.6 55517.6 Q 88895.6 56663.6 88895.6 59183.6 L 88895.6 67788.8 L 86711.6 67788.8 L 86710.4 67788.8 Z M 94852.8 66239.6 Q 95068.8 66239.6 95338.8 66215.6 Q 95608.8 66191.6 95860.8 66155.6 Q 96112.8 66119.6 96322.8 66071.6 Q 96532.8 66023.6 96642 65988.8 L 96642 67644.8 Q 96484.8 67716.8 96244.8 67788.8 Q 96004.8 67860.8 95716.8 67914.8 Q 95428.8 67968.8 95116.8 67998.8 Q 94804.8 68028.8 94506 68028.8 Q 93762 68028.8 93126 67836.8 Q 92490 67644.8 92028 67176.8 Q 91566 66708.8 91302 65910.8 Q 91038 65112.8 91038 63902 L 91038 56256.8 L 89179.2 56256.8 L 89179.2 55286 L 91038 54350 L 91974 51590 L 93235.2 51590 L 93235.2 54614 L 96547.2 54614 L 96547.2 56256.8 L 93235.2 56256.8 L 93235.2 63902 Q 93235.2 65064.8 93613.2 65652.8 Q 93991.2 66240.8 94855.2 66240.8 L 94852.8 66239.6 Z M 102816.4 54372.8 Q 103163.2 54372.8 103595.2 54402.8 Q 104027.2 54432.8 104339.2 54494 L 104051.2 56510 Q 103715.2 56448.8 103361.2 56406.8 Q 103007.2 56364.8 102695.2 56364.8 Q 101938 56364.8 101314 56670.8 Q 100690 56976.8 100240 57546.8 Q 99790 58116.8 99544 58914.8 Q 99298 59712.8 99298 60686 L 99298 67790 L 97114 67790 L 97114 54614 L 98890 54614 L 99154 57024.8 L 99250 57024.8 Q 99551.2 56510 99893.2 56030 Q 100235.2 55550 100661.2 55184 Q 101087.2 54818 101615.2 54596 Q 102143.2 54374 102815.2 54374 L 102816.4 54372.8 Z M 115638.8 61175.6 Q 115638.8 62820.8 115236.8 64098.8 Q 114834.8 65376.8 114084.8 66246.8 Q 113334.8 67116.8 112266.8 67572.8 Q 111198.8 68028.8 109865.6 68028.8 Q 108630.8 68028.8 107586.8 67572.8 Q 106542.8 67116.8 105780.8 66246.8 Q 105018.8 65376.8 104592.8 64098.8 Q 104166.8 62820.8 104166.8 61175.6 Q 104166.8 59543.6 104568.8 58277.6 Q 104970.8 57011.6 105714.8 56141.6 Q 106458.8 55271.6 107532.8 54821.6 Q 108606.8 54371.6 109937.6 54371.6 Q 111174.8 54371.6 112218.8 54821.6 Q 113262.8 55271.6 114024.8 56141.6 Q 114786.8 57011.6 115212.8 58277.6 Q 115638.8 59543.6 115638.8 61175.6  Z M 106422.8 61175.6 Q 106422.8 63684.8 107244.8 64950.8 Q 108066.8 66216.8 109914.8 66216.8 Q 111762.8 66216.8 112572.8 64950.8 Q 113382.8 63684.8 113382.8 61175.6 Q 113382.8 58668.8 112560.8 57426.8 Q 111738.8 56184.8 109890.8 56184.8 Q 108042.8 56184.8 107232.8 57426.8 Q 106422.8 58668.8 106422.8 61175.6  Z M 124917.2 64175.6 Q 124917.2 65135.6 124569.2 65855.6 Q 124221.2 66575.6 123567.2 67061.6 Q 122913.2 67547.6 121989.2 67787.6 Q 121065.2 68027.6 119913.2 68027.6 Q 118606.4 68027.6 117670.4 67817.6 Q 116734.4 67607.6 116025.2 67199.6 L 116025.2 65207.6 Q 116398.4 65399.6 116854.4 65585.6 Q 117310.4 65771.6 117814.4 65915.6 Q 118318.4 66059.6 118852.4 66149.6 Q 119386.4 66239.6 119914.4 66239.6 Q 120695.6 66239.6 121241.6 66107.6 Q 121787.6 65975.6 122129.6 65729.6 Q 122471.6 65483.6 122627.6 65129.6 Q 122783.6 64775.6 122783.6 64343.6 Q 122783.6 63972.8 122663.6 63672.8 Q 122543.6 63372.8 122225.6 63078.8 Q 121907.6 62784.8 121355.6 62484.8 Q 120803.6 62184.8 119939.6 61814 Q 119075.6 61440.8 118385.6 61080.8 Q 117695.6 60720.8 117215.6 60276.8 Q 116735.6 59832.8 116477.6 59250.8 Q 116219.6 58668.8 116219.6 57863.6 Q 116219.6 57023.6 116549.6 56369.6 Q 116879.6 55715.6 117479.6 55271.6 Q 118079.6 54827.6 118919.6 54599.6 Q 119759.6 54371.6 120791.6 54371.6 Q 121954.4 54371.6 122920.4 54623.6 Q 123886.4 54875.6 124750.4 55283.6 L 123993.2 57046.4 Q 123214.4 56699.6 122392.4 56441.6 Q 121570.4 56183.6 120719.6 56183.6 Q 119495.6 56183.6 118907.6 56585.6 Q 118319.6 56987.6 118319.6 57731.6 Q 118319.6 58150.4 118457.6 58462.4 Q 118595.6 58774.4 118931.6 59050.4 Q 119267.6 59326.4 119831.6 59608.4 Q 120395.6 59890.4 121235.6 60237.2 Q 122099.6 60597.2 122777.6 60957.2 Q 123455.6 61317.2 123935.6 61767.2 Q 124415.6 62217.2 124667.6 62793.2 Q 124919.6 63369.2 124919.6 64172 L 124917.2 64175.6 Z M 138178 64175.6 Q 138178 65135.6 137830 65855.6 Q 137482 66575.6 136828 67061.6 Q 136174 67547.6 135250 67787.6 Q 134326 68027.6 133174 68027.6 Q 131867.2 68027.6 130931.2 67817.6 Q 129995.2 67607.6 129286 67199.6 L 129286 65207.6 Q 129659.2 65399.6 130115.2 65585.6 Q 130571.2 65771.6 131075.2 65915.6 Q 131579.2 66059.6 132113.2 66149.6 Q 132647.2 66239.6 133175.2 66239.6 Q 133956.4 66239.6 134502.4 66107.6 Q 135048.4 65975.6 135390.4 65729.6 Q 135732.4 65483.6 135888.4 65129.6 Q 136044.4 64775.6 136044.4 64343.6 Q 136044.4 63972.8 135924.4 63672.8 Q 135804.4 63372.8 135486.4 63078.8 Q 135168.4 62784.8 134616.4 62484.8 Q 134064.4 62184.8 133200.4 61814 Q 132336.4 61440.8 131646.4 61080.8 Q 130956.4 60720.8 130476.4 60276.8 Q 129996.4 59832.8 129738.4 59250.8 Q 129480.4 58668.8 129480.4 57863.6 Q 129480.4 57023.6 129810.4 56369.6 Q 130140.4 55715.6 130740.4 55271.6 Q 131340.4 54827.6 132180.4 54599.6 Q 133020.4 54371.6 134052.4 54371.6 Q 135215.2 54371.6 136181.2 54623.6 Q 137147.2 54875.6 138011.2 55283.6 L 137254 57046.4 Q 136475.2 56699.6 135653.2 56441.6 Q 134831.2 56183.6 133980.4 56183.6 Q 132756.4 56183.6 132168.4 56585.6 Q 131580.4 56987.6 131580.4 57731.6 Q 131580.4 58150.4 131718.4 58462.4 Q 131856.4 58774.4 132192.4 59050.4 Q 132528.4 59326.4 133092.4 59608.4 Q 133656.4 59890.4 134496.4 60237.2 Q 135360.4 60597.2 136038.4 60957.2 Q 136716.4 61317.2 137196.4 61767.2 Q 137676.4 62217.2 137928.4 62793.2 Q 138180.4 63369.2 138180.4 64172 L 138178 64175.6 Z M 141488 67788.8 L 139304 67788.8 L 139304 54612.8 L 141488 54612.8 L 141488 67788.8 Z M 139136 51047.6 Q 139136 50327.6 139502 50003.6 Q 139868 49679.6 140406.8 49679.6 Q 140670.8 49679.6 140904.8 49757.6 Q 141138.8 49835.6 141312.8 50003.6 Q 141486.8 50171.6 141588.8 50429.6 Q 141690.8 50687.6 141690.8 51047.6 Q 141690.8 51743.6 141312.8 52085.6 Q 140934.8 52427.6 140406.8 52427.6 Q 139868 52427.6 139502 52091.6 Q 139136 51755.6 139136 51046.4 L 139136 51047.6 Z M 151785.6 67788.8 L 151785.6 59303.6 Q 151785.6 57743.6 151155.6 56963.6 Q 150525.6 56183.6 149181.6 56183.6 Q 148208.4 56183.6 147548.4 56495.6 Q 146888.4 56807.6 146486.4 57419.6 Q 146084.4 58031.6 145910.4 58919.6 Q 145736.4 59807.6 145736.4 60959.6 L 145736.4 67788.8 L 143552.4 67788.8 L 143552.4 54612.8 L 145328.4 54612.8 L 145640.4 56388.8 L 145760.4 56388.8 Q 146061.6 55871.6 146475.6 55493.6 Q 146889.6 55115.6 147381.6 54863.6 Q 147873.6 54611.6 148425.6 54491.6 Q 148977.6 54371.6 149553.6 54371.6 Q 151750.8 54371.6 152860.8 55517.6 Q 153970.8 56663.6 153970.8 59183.6 L 153970.8 67788.8 L 151786.8 67788.8 L 151785.6 67788.8 Z M 160984 68028.8 Q 159773.2 68028.8 158717.2 67650.8 Q 157661.2 67272.8 156881.2 66450.8 Q 156101.2 65628.8 155657.2 64350.8 Q 155213.2 63072.8 155213.2 61272.8 Q 155213.2 59390 155669.2 58076 Q 156125.2 56762 156923.2 55940 Q 157721.2 55118 158789.2 54746 Q 159857.2 54374 161081.2 54374 Q 162017.2 54374 162911.2 54578 Q 163805.2 54782 164405.2 55080.8 L 163757.2 56928.8 Q 163480 56808.8 163144 56694.8 Q 162808 56580.8 162448 56490.8 Q 162088 56400.8 161740 56346.8 Q 161392 56292.8 161080 56292.8 Q 159197.2 56292.8 158333.2 57498.8 Q 157469.2 58704.8 157469.2 61248.8 Q 157469.2 63782 158339.2 64952 Q 159209.2 66122 160985.2 66122 Q 161958.4 66122 162744.4 65900 Q 163530.4 65678 164178.4 65376.8 L 164178.4 67320.8 Q 163530.4 67670 162792.4 67850 Q 162054.4 68030 160985.2 68030 L 160984 68028.8 Z M 170963.6 54372.8 Q 171310.4 54372.8 171742.4 54402.8 Q 172174.4 54432.8 172486.4 54494 L 172198.4 56510 Q 171862.4 56448.8 171508.4 56406.8 Q 171154.4 56364.8 170842.4 56364.8 Q 170085.2 56364.8 169461.2 56670.8 Q 168837.2 56976.8 168387.2 57546.8 Q 167937.2 58116.8 167691.2 58914.8 Q 167445.2 59712.8 167445.2 60686 L 167445.2 67790 L 165261.2 67790 L 165261.2 54614 L 167037.2 54614 L 167301.2 57024.8 L 167397.2 57024.8 Q 167698.4 56510 168040.4 56030 Q 168382.4 55550 168808.4 55184 Q 169234.4 54818 169762.4 54596 Q 170290.4 54374 170962.4 54374 L 170963.6 54372.8 Z M 183786 61175.6 Q 183786 62820.8 183384 64098.8 Q 182982 65376.8 182232 66246.8 Q 181482 67116.8 180414 67572.8 Q 179346 68028.8 178012.8 68028.8 Q 176778 68028.8 175734 67572.8 Q 174690 67116.8 173928 66246.8 Q 173166 65376.8 172740 64098.8 Q 172314 62820.8 172314 61175.6 Q 172314 59543.6 172716 58277.6 Q 173118 57011.6 173862 56141.6 Q 174606 55271.6 175680 54821.6 Q 176754 54371.6 178084.8 54371.6 Q 179322 54371.6 180366 54821.6 Q 181410 55271.6 182172 56141.6 Q 182934 57011.6 183360 58277.6 Q 183786 59543.6 183786 61175.6  Z M 174570 61175.6 Q 174570 63684.8 175392 64950.8 Q 176214 66216.8 178062 66216.8 Q 179910 66216.8 180720 64950.8 Q 181530 63684.8 181530 61175.6 Q 181530 58668.8 180708 57426.8 Q 179886 56184.8 178038 56184.8 Q 176190 56184.8 175380 57426.8 Q 174570 58668.8 174570 61175.6  Z M 176697.6 52572.8 Q 176961.6 52223.6 177243.6 51767.6 Q 177525.6 51311.6 177807.6 50825.6 Q 178089.6 50339.6 178341.6 49853.6 Q 178593.6 49367.6 178785.6 48959.6 L 181412.4 48959.6 L 181412.4 49212.8 Q 181220.4 49535.6 180842.4 50021.6 Q 180464.4 50507.6 180002.4 51035.6 Q 179540.4 51563.6 179054.4 52061.6 Q 178568.4 52559.6 178147.2 52895.6 L 176696.4 52895.6 L 176696.4 52572.8 L 176697.6 52572.8 Z M 193411.2 67788.8 L 193411.2 59303.6 Q 193411.2 57743.6 192781.2 56963.6 Q 192151.2 56183.6 190807.2 56183.6 Q 189834 56183.6 189174 56495.6 Q 188514 56807.6 188112 57419.6 Q 187710 58031.6 187536 58919.6 Q 187362 59807.6 187362 60959.6 L 187362 67788.8 L 185178 67788.8 L 185178 54612.8 L 186954 54612.8 L 187266 56388.8 L 187386 56388.8 Q 187687.2 55871.6 188101.2 55493.6 Q 188515.2 55115.6 189007.2 54863.6 Q 189499.2 54611.6 190051.2 54491.6 Q 190603.2 54371.6 191179.2 54371.6 Q 193376.4 54371.6 194486.4 55517.6 Q 195596.4 56663.6 195596.4 59183.6 L 195596.4 67788.8 L 193412.4 67788.8 L 193411.2 67788.8 Z M 199753.6 67788.8 L 197569.6 67788.8 L 197569.6 54612.8 L 199753.6 54612.8 L 199753.6 67788.8 Z M 197401.6 51047.6 Q 197401.6 50327.6 197767.6 50003.6 Q 198133.6 49679.6 198672.4 49679.6 Q 198936.4 49679.6 199170.4 49757.6 Q 199404.4 49835.6 199578.4 50003.6 Q 199752.4 50171.6 199854.4 50429.6 Q 199956.4 50687.6 199956.4 51047.6 Q 199956.4 51743.6 199578.4 52085.6 Q 199200.4 52427.6 198672.4 52427.6 Q 198133.6 52427.6 197767.6 52091.6 Q 197401.6 51755.6 197401.6 51046.4 L 197401.6 51047.6 Z M 206859.2 68028.8 Q 205648.4 68028.8 204592.4 67650.8 Q 203536.4 67272.8 202756.4 66450.8 Q 201976.4 65628.8 201532.4 64350.8 Q 201088.4 63072.8 201088.4 61272.8 Q 201088.4 59390 201544.4 58076 Q 202000.4 56762 202798.4 55940 Q 203596.4 55118 204664.4 54746 Q 205732.4 54374 206956.4 54374 Q 207892.4 54374 208786.4 54578 Q 209680.4 54782 210280.4 55080.8 L 209632.4 56928.8 Q 209355.2 56808.8 209019.2 56694.8 Q 208683.2 56580.8 208323.2 56490.8 Q 207963.2 56400.8 207615.2 56346.8 Q 207267.2 56292.8 206955.2 56292.8 Q 205072.4 56292.8 204208.4 57498.8 Q 203344.4 58704.8 203344.4 61248.8 Q 203344.4 63782 204214.4 64952 Q 205084.4 66122 206860.4 66122 Q 207833.6 66122 208619.6 65900 Q 209405.6 65678 210053.6 65376.8 L 210053.6 67320.8 Q 209405.6 67670 208667.6 67850 Q 207929.6 68030 206860.4 68030 L 206859.2 68028.8 Z M 221878.8 61175.6 Q 221878.8 62820.8 221476.8 64098.8 Q 221074.8 65376.8 220324.8 66246.8 Q 219574.8 67116.8 218506.8 67572.8 Q 217438.8 68028.8 216105.6 68028.8 Q 214870.8 68028.8 213826.8 67572.8 Q 212782.8 67116.8 212020.8 66246.8 Q 211258.8 65376.8 210832.8 64098.8 Q 210406.8 62820.8 210406.8 61175.6 Q 210406.8 59543.6 210808.8 58277.6 Q 211210.8 57011.6 211954.8 56141.6 Q 212698.8 55271.6 213772.8 54821.6 Q 214846.8 54371.6 216177.6 54371.6 Q 217414.8 54371.6 218458.8 54821.6 Q 219502.8 55271.6 220264.8 56141.6 Q 221026.8 57011.6 221452.8 58277.6 Q 221878.8 59543.6 221878.8 61175.6  Z M 212662.8 61175.6 Q 212662.8 63684.8 213484.8 64950.8 Q 214306.8 66216.8 216154.8 66216.8 Q 218002.8 66216.8 218812.8 64950.8 Q 219622.8 63684.8 219622.8 61175.6 Q 219622.8 58668.8 218800.8 57426.8 Q 217978.8 56184.8 216130.8 56184.8 Q 214282.8 56184.8 213472.8 57426.8 Q 212662.8 58668.8 212662.8 61175.6  Z M 231157.2 64175.6 Q 231157.2 65135.6 230809.2 65855.6 Q 230461.2 66575.6 229807.2 67061.6 Q 229153.2 67547.6 228229.2 67787.6 Q 227305.2 68027.6 226153.2 68027.6 Q 224846.4 68027.6 223910.4 67817.6 Q 222974.4 67607.6 222265.2 67199.6 L 222265.2 65207.6 Q 222638.4 65399.6 223094.4 65585.6 Q 223550.4 65771.6 224054.4 65915.6 Q 224558.4 66059.6 225092.4 66149.6 Q 225626.4 66239.6 226154.4 66239.6 Q 226935.6 66239.6 227481.6 66107.6 Q 228027.6 65975.6 228369.6 65729.6 Q 228711.6 65483.6 228867.6 65129.6 Q 229023.6 64775.6 229023.6 64343.6 Q 229023.6 63972.8 228903.6 63672.8 Q 228783.6 63372.8 228465.6 63078.8 Q 228147.6 62784.8 227595.6 62484.8 Q 227043.6 62184.8 226179.6 61814 Q 225315.6 61440.8 224625.6 61080.8 Q 223935.6 60720.8 223455.6 60276.8 Q 222975.6 59832.8 222717.6 59250.8 Q 222459.6 58668.8 222459.6 57863.6 Q 222459.6 57023.6 222789.6 56369.6 Q 223119.6 55715.6 223719.6 55271.6 Q 224319.6 54827.6 225159.6 54599.6 Q 225999.6 54371.6 227031.6 54371.6 Q 228194.4 54371.6 229160.4 54623.6 Q 230126.4 54875.6 230990.4 55283.6 L 230233.2 57046.4 Q 229454.4 56699.6 228632.4 56441.6 Q 227810.4 56183.6 226959.6 56183.6 Q 225735.6 56183.6 225147.6 56585.6 Q 224559.6 56987.6 224559.6 57731.6 Q 224559.6 58150.4 224697.6 58462.4 Q 224835.6 58774.4 225171.6 59050.4 Q 225507.6 59326.4 226071.6 59608.4 Q 226635.6 59890.4 227475.6 60237.2 Q 228339.6 60597.2 229017.6 60957.2 Q 229695.6 61317.2 230175.6 61767.2 Q 230655.6 62217.2 230907.6 62793.2 Q 231159.6 63369.2 231159.6 64172 L 231157.2 64175.6 Z M 86005.2 107132.4 Q 86005.2 108092.4 85657.2 108812.4 Q 85309.2 109532.4 84655.2 110018.4 Q 84001.2 110504.4 83077.2 110744.4 Q 82153.2 110984.4 81001.2 110984.4 Q 79694.4 110984.4 78758.4 110774.4 Q 77822.4 110564.4 77113.2 110156.4 L 77113.2 108164.4 Q 77486.4 108356.4 77942.4 108542.4 Q 78398.4 108728.4 78902.4 108872.4 Q 79406.4 109016.4 79940.4 109106.4 Q 80474.4 109196.4 81002.4 109196.4 Q 81783.6 109196.4 82329.6 109064.4 Q 82875.6 108932.4 83217.6 108686.4 Q 83559.6 108440.4 83715.6 108086.4 Q 83871.6 107732.4 83871.6 107300.4 Q 83871.6 106929.6 83751.6 106629.6 Q 83631.6 106329.6 83313.6 106035.6 Q 82995.6 105741.6 82443.6 105441.6 Q 81891.6 105141.6 81027.6 104770.8 Q 80163.6 104397.6 79473.6 104037.6 Q 78783.6 103677.6 78303.6 103233.6 Q 77823.6 102789.6 77565.6 102207.6 Q 77307.6 101625.6 77307.6 100820.4 Q 77307.6 99980.4 77637.6 99326.4 Q 77967.6 98672.4 78567.6 98228.4 Q 79167.6 97784.4 80007.6 97556.4 Q 80847.6 97328.4 81879.6 97328.4 Q 83042.4 97328.4 84008.4 97580.4 Q 84974.4 97832.4 85838.4 98240.4 L 85081.2 100003.2 Q 84302.4 99656.4 83480.4 99398.4 Q 82658.4 99140.4 81807.6 99140.4 Q 80583.6 99140.4 79995.6 99542.4 Q 79407.6 99944.4 79407.6 100688.4 Q 79407.6 101107.2 79545.6 101419.2 Q 79683.6 101731.2 80019.6 102007.2 Q 80355.6 102283.2 80919.6 102565.2 Q 81483.6 102847.2 82323.6 103194 Q 83187.6 103554 83865.6 103914 Q 84543.6 104274 85023.6 104724 Q 85503.6 105174 85755.6 105750 Q 86007.6 106326 86007.6 107128.8 L 86005.2 107132.4 Z M 92339.2 110985.6 Q 91019.2 110985.6 89927.2 110541.6 Q 88835.2 110097.6 88049.2 109245.6 Q 87263.2 108393.6 86831.2 107133.6 Q 86399.2 105873.6 86399.2 104252.4 Q 86399.2 102620.4 86795.2 101336.4 Q 87191.2 100052.4 87911.2 99158.4 Q 88631.2 98264.4 89633.2 97796.4 Q 90635.2 97328.4 91848.4 97328.4 Q 93035.2 97328.4 93983.2 97754.4 Q 94931.2 98180.4 95591.2 98954.4 Q 96251.2 99728.4 96605.2 100814.4 Q 96959.2 101900.4 96959.2 103220.4 L 96959.2 104577.6 L 88655.2 104577.6 Q 88714 106892.4 89632 107984.4 Q 90550 109076.4 92360.8 109076.4 Q 92974 109076.4 93496 109016.4 Q 94018 108956.4 94504 108842.4 Q 94990 108728.4 95446 108554.4 Q 95902 108380.4 96368.8 108164.4 L 96368.8 110108.4 Q 95888.8 110337.6 95426.8 110505.6 Q 94964.8 110673.6 94478.8 110781.6 Q 93992.8 110889.6 93470.8 110937.6 Q 92948.8 110985.6 92335.6 110985.6 L 92339.2 110985.6 Z M 91800.4 99140.4 Q 90432.4 99140.4 89634.4 100076.4 Q 88836.4 101012.4 88705.6 102801.6 L 94609.6 102801.6 Q 94609.6 101985.6 94447.6 101307.6 Q 94285.6 100629.6 93943.6 100149.6 Q 93601.6 99669.6 93073.6 99405.6 Q 92545.6 99141.6 91801.6 99141.6 L 91800.4 99140.4 Z M 113920.4 110745.6 L 113920.4 102260.4 Q 113920.4 100700.4 113320.4 99920.4 Q 112720.4 99140.4 111459.2 99140.4 Q 110584.4 99140.4 109972.4 99422.4 Q 109360.4 99704.4 108970.4 100250.4 Q 108580.4 100796.4 108400.4 101606.4 Q 108220.4 102416.4 108220.4 103472.4 L 108220.4 110744.4 L 106025.6 110744.4 L 106025.6 102259.2 Q 106025.6 100699.2 105431.6 99919.2 Q 104837.6 99139.2 103578.8 99139.2 Q 102653.6 99139.2 102029.6 99451.2 Q 101405.6 99763.2 101027.6 100375.2 Q 100649.6 100987.2 100487.6 101875.2 Q 100325.6 102763.2 100325.6 103915.2 L 100325.6 110744.4 L 98141.6 110744.4 L 98141.6 97568.4 L 99917.6 97568.4 L 100229.6 99344.4 L 100349.6 99344.4 Q 100637.6 98827.2 101033.6 98449.2 Q 101429.6 98071.2 101903.6 97819.2 Q 102377.6 97567.2 102911.6 97447.2 Q 103445.6 97327.2 103997.6 97327.2 Q 105437.6 97327.2 106391.6 97855.2 Q 107345.6 98383.2 107801.6 99511.2 L 107897.6 99511.2 Q 108209.6 98946 108647.6 98538 Q 109085.6 98130 109607.6 97860 Q 110129.6 97590 110705.6 97458 Q 111281.6 97326 111881.6 97326 Q 113980.4 97326 115042.4 98472 Q 116104.4 99618 116104.4 102138 L 116104.4 110743.2 L 113920.4 110743.2 L 113920.4 110745.6 Z M 125485.2 110745.6 L 125040 108921.6 L 124944 108921.6 Q 124549.2 109460.4 124153.2 109850.4 Q 123757.2 110240.4 123289.2 110492.4 Q 122821.2 110744.4 122245.2 110864.4 Q 121669.2 110984.4 120912 110984.4 Q 120085.2 110984.4 119389.2 110750.4 Q 118693.2 110516.4 118183.2 110030.4 Q 117673.2 109544.4 117385.2 108806.4 Q 117097.2 108068.4 117097.2 107060.4 Q 117097.2 105092.4 118483.2 104036.4 Q 119869.2 102980.4 122701.2 102884.4 L 124909.2 102801.6 L 124909.2 101972.4 Q 124909.2 101169.6 124735.2 100629.6 Q 124561.2 100089.6 124231.2 99759.6 Q 123901.2 99429.6 123415.2 99285.6 Q 122929.2 99141.6 122305.2 99141.6 Q 121310.4 99141.6 120452.4 99429.6 Q 119594.4 99717.6 118802.4 100125.6 L 118034.4 98482.8 Q 118922.4 98002.8 120014.4 97666.8 Q 121106.4 97330.8 122306.4 97330.8 Q 123530.4 97330.8 124424.4 97576.8 Q 125318.4 97822.8 125900.4 98356.8 Q 126482.4 98890.8 126770.4 99718.8 Q 127058.4 100546.8 127058.4 101722.8 L 127058.4 110746.8 L 125487.6 110746.8 L 125485.2 110745.6 Z M 121477.2 109220.4 Q 122208 109220.4 122832 108992.4 Q 123456 108764.4 123912 108302.4 Q 124368 107840.4 124626 107138.4 Q 124884 106436.4 124884 105489.6 L 124884 104300.4 L 123166.8 104385.6 Q 122086.8 104433.6 121354.8 104625.6 Q 120622.8 104817.6 120184.8 105159.6 Q 119746.8 105501.6 119554.8 105987.6 Q 119362.8 106473.6 119362.8 107084.4 Q 119362.8 108188.4 119944.8 108704.4 Q 120526.8 109220.4 121476 109220.4 L 121477.2 109220.4 Z M 137193.6 110745.6 L 137193.6 102260.4 Q 137193.6 100700.4 136563.6 99920.4 Q 135933.6 99140.4 134589.6 99140.4 Q 133616.4 99140.4 132956.4 99452.4 Q 132296.4 99764.4 131894.4 100376.4 Q 131492.4 100988.4 131318.4 101876.4 Q 131144.4 102764.4 131144.4 103916.4 L 131144.4 110745.6 L 128960.4 110745.6 L 128960.4 97569.6 L 130736.4 97569.6 L 131048.4 99345.6 L 131168.4 99345.6 Q 131469.6 98828.4 131883.6 98450.4 Q 132297.6 98072.4 132789.6 97820.4 Q 133281.6 97568.4 133833.6 97448.4 Q 134385.6 97328.4 134961.6 97328.4 Q 137158.8 97328.4 138268.8 98474.4 Q 139378.8 99620.4 139378.8 102140.4 L 139378.8 110745.6 L 137194.8 110745.6 L 137193.6 110745.6 Z M 148781.2 110745.6 L 148336 108921.6 L 148240 108921.6 Q 147845.2 109460.4 147449.2 109850.4 Q 147053.2 110240.4 146585.2 110492.4 Q 146117.2 110744.4 145541.2 110864.4 Q 144965.2 110984.4 144208 110984.4 Q 143381.2 110984.4 142685.2 110750.4 Q 141989.2 110516.4 141479.2 110030.4 Q 140969.2 109544.4 140681.2 108806.4 Q 140393.2 108068.4 140393.2 107060.4 Q 140393.2 105092.4 141779.2 104036.4 Q 143165.2 102980.4 145997.2 102884.4 L 148205.2 102801.6 L 148205.2 101972.4 Q 148205.2 101169.6 148031.2 100629.6 Q 147857.2 100089.6 147527.2 99759.6 Q 147197.2 99429.6 146711.2 99285.6 Q 146225.2 99141.6 145601.2 99141.6 Q 144606.4 99141.6 143748.4 99429.6 Q 142890.4 99717.6 142098.4 100125.6 L 141330.4 98482.8 Q 142218.4 98002.8 143310.4 97666.8 Q 144402.4 97330.8 145602.4 97330.8 Q 146826.4 97330.8 147720.4 97576.8 Q 148614.4 97822.8 149196.4 98356.8 Q 149778.4 98890.8 150066.4 99718.8 Q 150354.4 100546.8 150354.4 101722.8 L 150354.4 110746.8 L 148783.6 110746.8 L 148781.2 110745.6 Z M 144773.2 109220.4 Q 145504 109220.4 146128 108992.4 Q 146752 108764.4 147208 108302.4 Q 147664 107840.4 147922 107138.4 Q 148180 106436.4 148180 105489.6 L 148180 104300.4 L 146462.8 104385.6 Q 145382.8 104433.6 144650.8 104625.6 Q 143918.8 104817.6 143480.8 105159.6 Q 143042.8 105501.6 142850.8 105987.6 Q 142658.8 106473.6 142658.8 107084.4 Q 142658.8 108188.4 143240.8 108704.4 Q 143822.8 109220.4 144772 109220.4 L 144773.2 109220.4 Z M 154441.6 110745.6 L 152257.6 110745.6 L 152257.6 92073.6 L 154441.6 92073.6 L 154441.6 110745.6 Z M 161715.2 110985.6 Q 160395.2 110985.6 159303.2 110541.6 Q 158211.2 110097.6 157425.2 109245.6 Q 156639.2 108393.6 156207.2 107133.6 Q 155775.2 105873.6 155775.2 104252.4 Q 155775.2 102620.4 156171.2 101336.4 Q 156567.2 100052.4 157287.2 99158.4 Q 158007.2 98264.4 159009.2 97796.4 Q 160011.2 97328.4 161224.4 97328.4 Q 162411.2 97328.4 163359.2 97754.4 Q 164307.2 98180.4 164967.2 98954.4 Q 165627.2 99728.4 165981.2 100814.4 Q 166335.2 101900.4 166335.2 103220.4 L 166335.2 104577.6 L 158031.2 104577.6 Q 158090 106892.4 159008 107984.4 Q 159926 109076.4 161736.8 109076.4 Q 162350 109076.4 162872 109016.4 Q 163394 108956.4 163880 108842.4 Q 164366 108728.4 164822 108554.4 Q 165278 108380.4 165744.8 108164.4 L 165744.8 110108.4 Q 165264.8 110337.6 164802.8 110505.6 Q 164340.8 110673.6 163854.8 110781.6 Q 163368.8 110889.6 162846.8 110937.6 Q 162324.8 110985.6 161711.6 110985.6 L 161715.2 110985.6 Z M 161176.4 99140.4 Q 159808.4 99140.4 159010.4 100076.4 Q 158212.4 101012.4 158081.6 102801.6 L 163985.6 102801.6 Q 163985.6 101985.6 163823.6 101307.6 Q 163661.6 100629.6 163319.6 100149.6 Q 162977.6 99669.6 162449.6 99405.6 Q 161921.6 99141.6 161177.6 99141.6 L 161176.4 99140.4 Z M 175400.4 107132.4 Q 175400.4 108092.4 175052.4 108812.4 Q 174704.4 109532.4 174050.4 110018.4 Q 173396.4 110504.4 172472.4 110744.4 Q 171548.4 110984.4 170396.4 110984.4 Q 169089.6 110984.4 168153.6 110774.4 Q 167217.6 110564.4 166508.4 110156.4 L 166508.4 108164.4 Q 166881.6 108356.4 167337.6 108542.4 Q 167793.6 108728.4 168297.6 108872.4 Q 168801.6 109016.4 169335.6 109106.4 Q 169869.6 109196.4 170397.6 109196.4 Q 171178.8 109196.4 171724.8 109064.4 Q 172270.8 108932.4 172612.8 108686.4 Q 172954.8 108440.4 173110.8 108086.4 Q 173266.8 107732.4 173266.8 107300.4 Q 173266.8 106929.6 173146.8 106629.6 Q 173026.8 106329.6 172708.8 106035.6 Q 172390.8 105741.6 171838.8 105441.6 Q 171286.8 105141.6 170422.8 104770.8 Q 169558.8 104397.6 168868.8 104037.6 Q 168178.8 103677.6 167698.8 103233.6 Q 167218.8 102789.6 166960.8 102207.6 Q 166702.8 101625.6 166702.8 100820.4 Q 166702.8 99980.4 167032.8 99326.4 Q 167362.8 98672.4 167962.8 98228.4 Q 168562.8 97784.4 169402.8 97556.4 Q 170242.8 97328.4 171274.8 97328.4 Q 172437.6 97328.4 173403.6 97580.4 Q 174369.6 97832.4 175233.6 98240.4 L 174476.4 100003.2 Q 173697.6 99656.4 172875.6 99398.4 Q 172053.6 99140.4 171202.8 99140.4 Q 169978.8 99140.4 169390.8 99542.4 Q 168802.8 99944.4 168802.8 100688.4 Q 168802.8 101107.2 168940.8 101419.2 Q 169078.8 101731.2 169414.8 102007.2 Q 169750.8 102283.2 170314.8 102565.2 Q 170878.8 102847.2 171718.8 103194 Q 172582.8 103554 173260.8 103914 Q 173938.8 104274 174418.8 104724 Q 174898.8 105174 175150.8 105750 Q 175402.8 106326 175402.8 107128.8 L 175400.4 107132.4 Z " fill-rule="nonzero" style="fill:#ffffff;;fill-opacity:1;"/>
</svg>