<svg version="1.1" x="0" y="0" width="100%" height="100%" viewBox="0 0 38809.6 32716.8" xmlns="http://www.w3.org/2000/svg">
  <path d="M 19296 16034.8 Q 19296 18160 18990 19840 Q 18684 21520 18006 22684 Q 17328 23848 16260 24460 Q 15192 25072 13669.2 25072 Q 12253.2 25072 11203.2 24460 Q 10153.2 23848 9463.2 22684 Q 8773.2 21520 8431.2 19840 Q 8089.2 18160 8089.2 16034.8 Q 8089.2 13912 8395.2 12232 Q 8701.2 10552 9367.2 9394 Q 10033.2 8236 11095.2 7624 Q 12157.2 7012 13669.2 7012 Q 15096 7012 16152 7618 Q 17208 8224 17904 9382 Q 18600 10540 18948 12220 Q 19296 13900 19296 16036 L 19296 16034.8 Z M 10309.2 16034.8 Q 10309.2 17834.8 10489.2 19178.8 Q 10669.2 20522.8 11065.2 21416.8 Q 11461.2 22310.8 12103.2 22760.8 Q 12745.2 23210.8 13670.4 23210.8 Q 14593.2 23210.8 15241.2 22766.8 Q 15889.2 22322.8 16303.2 21434.8 Q 16717.2 20546.8 16903.2 19196.8 Q 17089.2 17846.8 17089.2 16033.6 Q 17089.2 14233.6 16903.2 12889.6 Q 16717.2 11545.6 16303.2 10657.6 Q 15889.2 9769.6 15241.2 9325.6 Q 14593.2 8881.6 13670.4 8881.6 Q 12745.2 8881.6 12103.2 9325.6 Q 11461.2 9769.6 11065.2 10657.6 Q 10669.2 11545.6 10489.2 12889.6 Q 10309.2 14233.6 10309.2 16033.6 L 10309.2 16034.8 Z M 30938 11392 Q 30938 12266.8 30662 12986.8 Q 30386 13706.8 29888 14234.8 Q 29390 14762.8 28694 15104.8 Q 27998 15446.8 27147.2 15590.8 L 27147.2 15662.8 Q 29270 15926.8 30374 17012.8 Q 31478 18098.8 31478 19840 Q 31478 20992 31088 21952 Q 30698 22912 29906 23608 Q 29114 24304 27902 24688 Q 26690 25072 25034 25072 Q 23724.8 25072 22566.8 24868 Q 21408.8 24664 20387.6 24122.8 L 20387.6 22082.8 Q 21432.8 22634.8 22650.8 22934.8 Q 23868.8 23234.8 24986 23234.8 Q 26090 23234.8 26894 22994.8 Q 27698 22754.8 28220 22310.8 Q 28742 21866.8 28988 21218.8 Q 29234 20570.8 29234 19768 Q 29234 18952 28916 18370 Q 28598 17788 28010 17410 Q 27422 17032 26576 16852 Q 25730 16672 24660.8 16672 L 23066 16672 L 23066 14858.8 L 24660.8 14858.8 Q 25634 14858.8 26390 14618.8 Q 27146 14378.8 27656 13934.8 Q 28166 13490.8 28430 12878.8 Q 28694 12266.8 28694 11536 Q 28694 10912 28478 10420 Q 28262 9928 27866 9586 Q 27470 9244 26918 9064 Q 26366 8884 25694 8884 Q 24411.2 8884 23433.2 9286 Q 22455.2 9688 21567.2 10336 L 20463.2 8834.8 Q 20919.2 8464 21477.2 8140 Q 22035.2 7816 22695.2 7570 Q 23355.2 7324 24105.2 7180 Q 24855.2 7036 25695.2 7036 Q 26991.2 7036 27969.2 7360 Q 28947.2 7684 29607.2 8266 Q 30267.2 8848 30603.2 9646 Q 30939.2 10444 30939.2 11393.2 L 30938 11392 Z " fill-rule="nonzero" style="fill:#ffffff;;fill-opacity:1;"/>
</svg>