<svg version="1.1" x="0" y="0" width="100%" height="100%" viewBox="0 0 40345.6 34764.8" xmlns="http://www.w3.org/2000/svg">
  <path d="M 20064 16034.8 Q 20064 18160 19758 19840 Q 19452 21520 18774 22684 Q 18096 23848 17028 24460 Q 15960 25072 14437.2 25072 Q 13021.2 25072 11971.2 24460 Q 10921.2 23848 10231.2 22684 Q 9541.2 21520 9199.2 19840 Q 8857.2 18160 8857.2 16034.8 Q 8857.2 13912 9163.2 12232 Q 9469.2 10552 10135.2 9394 Q 10801.2 8236 11863.2 7624 Q 12925.2 7012 14437.2 7012 Q 15864 7012 16920 7618 Q 17976 8224 18672 9382 Q 19368 10540 19716 12220 Q 20064 13900 20064 16036 L 20064 16034.8 Z M 11077.2 16034.8 Q 11077.2 17834.8 11257.2 19178.8 Q 11437.2 20522.8 11833.2 21416.8 Q 12229.2 22310.8 12871.2 22760.8 Q 13513.2 23210.8 14438.4 23210.8 Q 15361.2 23210.8 16009.2 22766.8 Q 16657.2 22322.8 17071.2 21434.8 Q 17485.2 20546.8 17671.2 19196.8 Q 17857.2 17846.8 17857.2 16033.6 Q 17857.2 14233.6 17671.2 12889.6 Q 17485.2 11545.6 17071.2 10657.6 Q 16657.2 9769.6 16009.2 9325.6 Q 15361.2 8881.6 14438.4 8881.6 Q 13513.2 8881.6 12871.2 9325.6 Q 12229.2 9769.6 11833.2 10657.6 Q 11437.2 11545.6 11257.2 12889.6 Q 11077.2 14233.6 11077.2 16033.6 L 11077.2 16034.8 Z M 31706 11392 Q 31706 12266.8 31430 12986.8 Q 31154 13706.8 30656 14234.8 Q 30158 14762.8 29462 15104.8 Q 28766 15446.8 27915.2 15590.8 L 27915.2 15662.8 Q 30038 15926.8 31142 17012.8 Q 32246 18098.8 32246 19840 Q 32246 20992 31856 21952 Q 31466 22912 30674 23608 Q 29882 24304 28670 24688 Q 27458 25072 25802 25072 Q 24492.8 25072 23334.8 24868 Q 22176.8 24664 21155.6 24122.8 L 21155.6 22082.8 Q 22200.8 22634.8 23418.8 22934.8 Q 24636.8 23234.8 25754 23234.8 Q 26858 23234.8 27662 22994.8 Q 28466 22754.8 28988 22310.8 Q 29510 21866.8 29756 21218.8 Q 30002 20570.8 30002 19768 Q 30002 18952 29684 18370 Q 29366 17788 28778 17410 Q 28190 17032 27344 16852 Q 26498 16672 25428.8 16672 L 23834 16672 L 23834 14858.8 L 25428.8 14858.8 Q 26402 14858.8 27158 14618.8 Q 27914 14378.8 28424 13934.8 Q 28934 13490.8 29198 12878.8 Q 29462 12266.8 29462 11536 Q 29462 10912 29246 10420 Q 29030 9928 28634 9586 Q 28238 9244 27686 9064 Q 27134 8884 26462 8884 Q 25179.2 8884 24201.2 9286 Q 23223.2 9688 22335.2 10336 L 21231.2 8834.8 Q 21687.2 8464 22245.2 8140 Q 22803.2 7816 23463.2 7570 Q 24123.2 7324 24873.2 7180 Q 25623.2 7036 26463.2 7036 Q 27759.2 7036 28737.2 7360 Q 29715.2 7684 30375.2 8266 Q 31035.2 8848 31371.2 9646 Q 31707.2 10444 31707.2 11393.2 L 31706 11392 Z " fill-rule="nonzero" style="fill:#535353;;fill-opacity:1;"/>
</svg>