<svg version="1.1" x="0" y="0" width="100%" height="100%" viewBox="0 0 250521.6 149708.8" xmlns="http://www.w3.org/2000/svg">
  <path d="M 34074 24832 L 31828.8 24832 L 31828.8 9256 L 26812.8 9256 L 26812.8 7288 L 39076.8 7288 L 39076.8 9256 L 34074 9256 L 34074 24832 Z M 44569.6 25072 Q 43249.6 25072 42157.6 24628 Q 41065.6 24184 40279.6 23332 Q 39493.6 22480 39061.6 21220 Q 38629.6 19960 38629.6 18338.8 Q 38629.6 16706.8 39025.6 15422.8 Q 39421.6 14138.8 40141.6 13244.8 Q 40861.6 12350.8 41863.6 11882.8 Q 42865.6 11414.8 44078.8 11414.8 Q 45265.6 11414.8 46213.6 11840.8 Q 47161.6 12266.8 47821.6 13040.8 Q 48481.6 13814.8 48835.6 14900.8 Q 49189.6 15986.8 49189.6 17306.8 L 49189.6 18664 L 40885.6 18664 Q 40944.4 20978.8 41862.4 22070.8 Q 42780.4 23162.8 44591.2 23162.8 Q 45204.4 23162.8 45726.4 23102.8 Q 46248.4 23042.8 46734.4 22928.8 Q 47220.4 22814.8 47676.4 22640.8 Q 48132.4 22466.8 48599.2 22250.8 L 48599.2 24194.8 Q 48119.2 24424 47657.2 24592 Q 47195.2 24760 46709.2 24868 Q 46223.2 24976 45701.2 25024 Q 45179.2 25072 44566 25072 L 44569.6 25072 Z M 44030.8 13226.8 Q 42662.8 13226.8 41864.8 14162.8 Q 41066.8 15098.8 40936 16888 L 46840 16888 Q 46840 16072 46678 15394 Q 46516 14716 46174 14236 Q 45832 13756 45304 13492 Q 44776 13228 44032 13228 L 44030.8 13226.8 Z M 58601.6 24832 L 58601.6 16346.8 Q 58601.6 14786.8 57971.6 14006.8 Q 57341.6 13226.8 55997.6 13226.8 Q 55024.4 13226.8 54364.4 13538.8 Q 53704.4 13850.8 53302.4 14462.8 Q 52900.4 15074.8 52726.4 15962.8 Q 52552.4 16850.8 52552.4 18002.8 L 52552.4 24832 L 50368.4 24832 L 50368.4 11656 L 52144.4 11656 L 52456.4 13432 L 52576.4 13432 Q 52877.6 12914.8 53291.6 12536.8 Q 53705.6 12158.8 54197.6 11906.8 Q 54689.6 11654.8 55241.6 11534.8 Q 55793.6 11414.8 56369.6 11414.8 Q 58566.8 11414.8 59676.8 12560.8 Q 60786.8 13706.8 60786.8 16226.8 L 60786.8 24832 L 58602.8 24832 L 58601.6 24832 Z M 70993.6 23282.8 Q 71209.6 23282.8 71479.6 23258.8 Q 71749.6 23234.8 72001.6 23198.8 Q 72253.6 23162.8 72463.6 23114.8 Q 72673.6 23066.8 72782.8 23032 L 72782.8 24688 Q 72625.6 24760 72385.6 24832 Q 72145.6 24904 71857.6 24958 Q 71569.6 25012 71257.6 25042 Q 70945.6 25072 70646.8 25072 Q 69902.8 25072 69266.8 24880 Q 68630.8 24688 68168.8 24220 Q 67706.8 23752 67442.8 22954 Q 67178.8 22156 67178.8 20945.2 L 67178.8 13300 L 65320 13300 L 65320 12329.2 L 67178.8 11393.2 L 68114.8 8633.2 L 69376 8633.2 L 69376 11657.2 L 72688 11657.2 L 72688 13300 L 69376 13300 L 69376 20945.2 Q 69376 22108 69754 22696 Q 70132 23284 70996 23284 L 70993.6 23282.8 Z M 81789.2 24832 L 81464 23066.8 L 81344 23066.8 Q 81045.2 23584 80631.2 23962 Q 80217.2 24340 79725.2 24586 Q 79233.2 24832 78681.2 24952 Q 78129.2 25072 77553.2 25072 Q 76462.4 25072 75634.4 24796 Q 74806.4 24520 74254.4 23932 Q 73702.4 23344 73420.4 22432 Q 73138.4 21520 73138.4 20258.8 L 73138.4 11656 L 75322.4 11656 L 75322.4 20138.8 Q 75322.4 21698.8 75958.4 22478.8 Q 76594.4 23258.8 77927.6 23258.8 Q 78898.4 23258.8 79558.4 22946.8 Q 80218.4 22634.8 80620.4 22028.8 Q 81022.4 21422.8 81196.4 20534.8 Q 81370.4 19646.8 81370.4 18494.8 L 81370.4 11654.8 L 83554.4 11654.8 L 83554.4 24830.8 L 81791.6 24830.8 L 81789.2 24832 Z M 95848 25072 Q 95141.2 25072 94565.2 24916 Q 93989.2 24760 93527.2 24502 Q 93065.2 24244 92711.2 23896 Q 92357.2 23548 92080 23164 L 91936 23164 Q 91973.2 23572 92008 23945.2 Q 92032 24257.2 92056 24587.2 Q 92080 24917.2 92080 25109.2 L 92080 30736 L 89896 30736 L 89896 11656 L 91672 11656 L 91984 13432 L 92080 13432 Q 92357.2 13010.8 92705.2 12644.8 Q 93053.2 12278.8 93515.2 12008.8 Q 93977.2 11738.8 94553.2 11576.8 Q 95129.2 11414.8 95849.2 11414.8 Q 96977.2 11414.8 97901.2 11846.8 Q 98825.2 12278.8 99479.2 13136.8 Q 100133.2 13994.8 100493.2 15266.8 Q 100853.2 16538.8 100853.2 18218.8 Q 100853.2 19912 100493.2 21190 Q 100133.2 22468 99479.2 23332 Q 98825.2 24196 97901.2 24634 Q 96977.2 25072 95849.2 25072 L 95848 25072 Z M 95429.2 13226.8 Q 94517.2 13226.8 93887.2 13502.8 Q 93257.2 13778.8 92867.2 14342.8 Q 92477.2 14906.8 92291.2 15746.8 Q 92105.2 16586.8 92081.2 17728 L 92081.2 18218.8 Q 92081.2 19432 92243.2 20374 Q 92405.2 21316 92795.2 21958 Q 93185.2 22600 93833.2 22930 Q 94481.2 23260 95454.4 23260 Q 97073.2 23260 97835.2 21952 Q 98597.2 20644 98597.2 18196 Q 98597.2 15700 97835.2 14464 Q 97073.2 13228 95430.4 13228 L 95429.2 13226.8 Z M 107987.6 11416 Q 108334.4 11416 108766.4 11446 Q 109198.4 11476 109510.4 11537.2 L 109222.4 13553.2 Q 108886.4 13492 108532.4 13450 Q 108178.4 13408 107866.4 13408 Q 107109.2 13408 106485.2 13714 Q 105861.2 14020 105411.2 14590 Q 104961.2 15160 104715.2 15958 Q 104469.2 16756 104469.2 17729.2 L 104469.2 24833.2 L 102285.2 24833.2 L 102285.2 11657.2 L 104061.2 11657.2 L 104325.2 14068 L 104421.2 14068 Q 104722.4 13553.2 105064.4 13073.2 Q 105406.4 12593.2 105832.4 12227.2 Q 106258.4 11861.2 106786.4 11639.2 Q 107314.4 11417.2 107986.4 11417.2 L 107987.6 11416 Z M 112252.8 24832 L 110068.8 24832 L 110068.8 11656 L 112252.8 11656 L 112252.8 24832 Z M 109900.8 8090.8 Q 109900.8 7370.8 110266.8 7046.8 Q 110632.8 6722.8 111171.6 6722.8 Q 111435.6 6722.8 111669.6 6800.8 Q 111903.6 6878.8 112077.6 7046.8 Q 112251.6 7214.8 112353.6 7472.8 Q 112455.6 7730.8 112455.6 8090.8 Q 112455.6 8786.8 112077.6 9128.8 Q 111699.6 9470.8 111171.6 9470.8 Q 110632.8 9470.8 110266.8 9134.8 Q 109900.8 8798.8 109900.8 8089.6 L 109900.8 8090.8 Z M 130099.6 24832 L 130099.6 16346.8 Q 130099.6 14786.8 129499.6 14006.8 Q 128899.6 13226.8 127638.4 13226.8 Q 126763.6 13226.8 126151.6 13508.8 Q 125539.6 13790.8 125149.6 14336.8 Q 124759.6 14882.8 124579.6 15692.8 Q 124399.6 16502.8 124399.6 17558.8 L 124399.6 24830.8 L 122204.8 24830.8 L 122204.8 16345.6 Q 122204.8 14785.6 121610.8 14005.6 Q 121016.8 13225.6 119758 13225.6 Q 118832.8 13225.6 118208.8 13537.6 Q 117584.8 13849.6 117206.8 14461.6 Q 116828.8 15073.6 116666.8 15961.6 Q 116504.8 16849.6 116504.8 18001.6 L 116504.8 24830.8 L 114320.8 24830.8 L 114320.8 11654.8 L 116096.8 11654.8 L 116408.8 13430.8 L 116528.8 13430.8 Q 116816.8 12913.6 117212.8 12535.6 Q 117608.8 12157.6 118082.8 11905.6 Q 118556.8 11653.6 119090.8 11533.6 Q 119624.8 11413.6 120176.8 11413.6 Q 121616.8 11413.6 122570.8 11941.6 Q 123524.8 12469.6 123980.8 13597.6 L 124076.8 13597.6 Q 124388.8 13032.4 124826.8 12624.4 Q 125264.8 12216.4 125786.8 11946.4 Q 126308.8 11676.4 126884.8 11544.4 Q 127460.8 11412.4 128060.8 11412.4 Q 130159.6 11412.4 131221.6 12558.4 Q 132283.6 13704.4 132283.6 16224.4 L 132283.6 24829.6 L 130099.6 24829.6 L 130099.6 24832 Z M 139443.2 25072 Q 138123.2 25072 137031.2 24628 Q 135939.2 24184 135153.2 23332 Q 134367.2 22480 133935.2 21220 Q 133503.2 19960 133503.2 18338.8 Q 133503.2 16706.8 133899.2 15422.8 Q 134295.2 14138.8 135015.2 13244.8 Q 135735.2 12350.8 136737.2 11882.8 Q 137739.2 11414.8 138952.4 11414.8 Q 140139.2 11414.8 141087.2 11840.8 Q 142035.2 12266.8 142695.2 13040.8 Q 143355.2 13814.8 143709.2 14900.8 Q 144063.2 15986.8 144063.2 17306.8 L 144063.2 18664 L 135759.2 18664 Q 135818 20978.8 136736 22070.8 Q 137654 23162.8 139464.8 23162.8 Q 140078 23162.8 140600 23102.8 Q 141122 23042.8 141608 22928.8 Q 142094 22814.8 142550 22640.8 Q 143006 22466.8 143472.8 22250.8 L 143472.8 24194.8 Q 142992.8 24424 142530.8 24592 Q 142068.8 24760 141582.8 24868 Q 141096.8 24976 140574.8 25024 Q 140052.8 25072 139439.6 25072 L 139443.2 25072 Z M 138904.4 13226.8 Q 137536.4 13226.8 136738.4 14162.8 Q 135940.4 15098.8 135809.6 16888 L 141713.6 16888 Q 141713.6 16072 141551.6 15394 Q 141389.6 14716 141047.6 14236 Q 140705.6 13756 140177.6 13492 Q 139649.6 13228 138905.6 13228 L 138904.4 13226.8 Z M 150944.4 11416 Q 151291.2 11416 151723.2 11446 Q 152155.2 11476 152467.2 11537.2 L 152179.2 13553.2 Q 151843.2 13492 151489.2 13450 Q 151135.2 13408 150823.2 13408 Q 150066 13408 149442 13714 Q 148818 14020 148368 14590 Q 147918 15160 147672 15958 Q 147426 16756 147426 17729.2 L 147426 24833.2 L 145242 24833.2 L 145242 11657.2 L 147018 11657.2 L 147282 14068 L 147378 14068 Q 147679.2 13553.2 148021.2 13073.2 Q 148363.2 12593.2 148789.2 12227.2 Q 149215.2 11861.2 149743.2 11639.2 Q 150271.2 11417.2 150943.2 11417.2 L 150944.4 11416 Z M 160454.8 24832 L 160009.6 23008 L 159913.6 23008 Q 159518.8 23546.8 159122.8 23936.8 Q 158726.8 24326.8 158258.8 24578.8 Q 157790.8 24830.8 157214.8 24950.8 Q 156638.8 25070.8 155881.6 25070.8 Q 155054.8 25070.8 154358.8 24836.8 Q 153662.8 24602.8 153152.8 24116.8 Q 152642.8 23630.8 152354.8 22892.8 Q 152066.8 22154.8 152066.8 21146.8 Q 152066.8 19178.8 153452.8 18122.8 Q 154838.8 17066.8 157670.8 16970.8 L 159878.8 16888 L 159878.8 16058.8 Q 159878.8 15256 159704.8 14716 Q 159530.8 14176 159200.8 13846 Q 158870.8 13516 158384.8 13372 Q 157898.8 13228 157274.8 13228 Q 156280 13228 155422 13516 Q 154564 13804 153772 14212 L 153004 12569.2 Q 153892 12089.2 154984 11753.2 Q 156076 11417.2 157276 11417.2 Q 158500 11417.2 159394 11663.2 Q 160288 11909.2 160870 12443.2 Q 161452 12977.2 161740 13805.2 Q 162028 14633.2 162028 15809.2 L 162028 24833.2 L 160457.2 24833.2 L 160454.8 24832 Z M 156446.8 23306.8 Q 157177.6 23306.8 157801.6 23078.8 Q 158425.6 22850.8 158881.6 22388.8 Q 159337.6 21926.8 159595.6 21224.8 Q 159853.6 20522.8 159853.6 19576 L 159853.6 18386.8 L 158136.4 18472 Q 157056.4 18520 156324.4 18712 Q 155592.4 18904 155154.4 19246 Q 154716.4 19588 154524.4 20074 Q 154332.4 20560 154332.4 21170.8 Q 154332.4 22274.8 154914.4 22790.8 Q 155496.4 23306.8 156445.6 23306.8 L 156446.8 23306.8 Z M 176066 21218.8 Q 176066 22178.8 175718 22898.8 Q 175370 23618.8 174716 24104.8 Q 174062 24590.8 173138 24830.8 Q 172214 25070.8 171062 25070.8 Q 169755.2 25070.8 168819.2 24860.8 Q 167883.2 24650.8 167174 24242.8 L 167174 22250.8 Q 167547.2 22442.8 168003.2 22628.8 Q 168459.2 22814.8 168963.2 22958.8 Q 169467.2 23102.8 170001.2 23192.8 Q 170535.2 23282.8 171063.2 23282.8 Q 171844.4 23282.8 172390.4 23150.8 Q 172936.4 23018.8 173278.4 22772.8 Q 173620.4 22526.8 173776.4 22172.8 Q 173932.4 21818.8 173932.4 21386.8 Q 173932.4 21016 173812.4 20716 Q 173692.4 20416 173374.4 20122 Q 173056.4 19828 172504.4 19528 Q 171952.4 19228 171088.4 18857.2 Q 170224.4 18484 169534.4 18124 Q 168844.4 17764 168364.4 17320 Q 167884.4 16876 167626.4 16294 Q 167368.4 15712 167368.4 14906.8 Q 167368.4 14066.8 167698.4 13412.8 Q 168028.4 12758.8 168628.4 12314.8 Q 169228.4 11870.8 170068.4 11642.8 Q 170908.4 11414.8 171940.4 11414.8 Q 173103.2 11414.8 174069.2 11666.8 Q 175035.2 11918.8 175899.2 12326.8 L 175142 14089.6 Q 174363.2 13742.8 173541.2 13484.8 Q 172719.2 13226.8 171868.4 13226.8 Q 170644.4 13226.8 170056.4 13628.8 Q 169468.4 14030.8 169468.4 14774.8 Q 169468.4 15193.6 169606.4 15505.6 Q 169744.4 15817.6 170080.4 16093.6 Q 170416.4 16369.6 170980.4 16651.6 Q 171544.4 16933.6 172384.4 17280.4 Q 173248.4 17640.4 173926.4 18000.4 Q 174604.4 18360.4 175084.4 18810.4 Q 175564.4 19260.4 175816.4 19836.4 Q 176068.4 20412.4 176068.4 21215.2 L 176066 21218.8 Z M 182400 25072 Q 181080 25072 179988 24628 Q 178896 24184 178110 23332 Q 177324 22480 176892 21220 Q 176460 19960 176460 18338.8 Q 176460 16706.8 176856 15422.8 Q 177252 14138.8 177972 13244.8 Q 178692 12350.8 179694 11882.8 Q 180696 11414.8 181909.2 11414.8 Q 183096 11414.8 184044 11840.8 Q 184992 12266.8 185652 13040.8 Q 186312 13814.8 186666 14900.8 Q 187020 15986.8 187020 17306.8 L 187020 18664 L 178716 18664 Q 178774.8 20978.8 179692.8 22070.8 Q 180610.8 23162.8 182421.6 23162.8 Q 183034.8 23162.8 183556.8 23102.8 Q 184078.8 23042.8 184564.8 22928.8 Q 185050.8 22814.8 185506.8 22640.8 Q 185962.8 22466.8 186429.6 22250.8 L 186429.6 24194.8 Q 185949.6 24424 185487.6 24592 Q 185025.6 24760 184539.6 24868 Q 184053.6 24976 183531.6 25024 Q 183009.6 25072 182396.4 25072 L 182400 25072 Z M 181861.2 13226.8 Q 180493.2 13226.8 179695.2 14162.8 Q 178897.2 15098.8 178766.4 16888 L 184670.4 16888 Q 184670.4 16072 184508.4 15394 Q 184346.4 14716 184004.4 14236 Q 183662.4 13756 183134.4 13492 Q 182606.4 13228 181862.4 13228 L 181861.2 13226.8 Z M 196085.2 21218.8 Q 196085.2 22178.8 195737.2 22898.8 Q 195389.2 23618.8 194735.2 24104.8 Q 194081.2 24590.8 193157.2 24830.8 Q 192233.2 25070.8 191081.2 25070.8 Q 189774.4 25070.8 188838.4 24860.8 Q 187902.4 24650.8 187193.2 24242.8 L 187193.2 22250.8 Q 187566.4 22442.8 188022.4 22628.8 Q 188478.4 22814.8 188982.4 22958.8 Q 189486.4 23102.8 190020.4 23192.8 Q 190554.4 23282.8 191082.4 23282.8 Q 191863.6 23282.8 192409.6 23150.8 Q 192955.6 23018.8 193297.6 22772.8 Q 193639.6 22526.8 193795.6 22172.8 Q 193951.6 21818.8 193951.6 21386.8 Q 193951.6 21016 193831.6 20716 Q 193711.6 20416 193393.6 20122 Q 193075.6 19828 192523.6 19528 Q 191971.6 19228 191107.6 18857.2 Q 190243.6 18484 189553.6 18124 Q 188863.6 17764 188383.6 17320 Q 187903.6 16876 187645.6 16294 Q 187387.6 15712 187387.6 14906.8 Q 187387.6 14066.8 187717.6 13412.8 Q 188047.6 12758.8 188647.6 12314.8 Q 189247.6 11870.8 190087.6 11642.8 Q 190927.6 11414.8 191959.6 11414.8 Q 193122.4 11414.8 194088.4 11666.8 Q 195054.4 11918.8 195918.4 12326.8 L 195161.2 14089.6 Q 194382.4 13742.8 193560.4 13484.8 Q 192738.4 13226.8 191887.6 13226.8 Q 190663.6 13226.8 190075.6 13628.8 Q 189487.6 14030.8 189487.6 14774.8 Q 189487.6 15193.6 189625.6 15505.6 Q 189763.6 15817.6 190099.6 16093.6 Q 190435.6 16369.6 190999.6 16651.6 Q 191563.6 16933.6 192403.6 17280.4 Q 193267.6 17640.4 193945.6 18000.4 Q 194623.6 18360.4 195103.6 18810.4 Q 195583.6 19260.4 195835.6 19836.4 Q 196087.6 20412.4 196087.6 21215.2 L 196085.2 21218.8 Z M 199395.2 24832 L 197211.2 24832 L 197211.2 11656 L 199395.2 11656 L 199395.2 24832 Z M 197043.2 8090.8 Q 197043.2 7370.8 197409.2 7046.8 Q 197775.2 6722.8 198314 6722.8 Q 198578 6722.8 198812 6800.8 Q 199046 6878.8 199220 7046.8 Q 199394 7214.8 199496 7472.8 Q 199598 7730.8 199598 8090.8 Q 199598 8786.8 199220 9128.8 Q 198842 9470.8 198314 9470.8 Q 197775.2 9470.8 197409.2 9134.8 Q 197043.2 8798.8 197043.2 8089.6 L 197043.2 8090.8 Z M 212202 18218.8 Q 212202 19864 211800 21142 Q 211398 22420 210648 23290 Q 209898 24160 208830 24616 Q 207762 25072 206428.8 25072 Q 205194 25072 204150 24616 Q 203106 24160 202344 23290 Q 201582 22420 201156 21142 Q 200730 19864 200730 18218.8 Q 200730 16586.8 201132 15320.8 Q 201534 14054.8 202278 13184.8 Q 203022 12314.8 204096 11864.8 Q 205170 11414.8 206500.8 11414.8 Q 207738 11414.8 208782 11864.8 Q 209826 12314.8 210588 13184.8 Q 211350 14054.8 211776 15320.8 Q 212202 16586.8 212202 18218.8  Z M 202986 18218.8 Q 202986 20728 203808 21994 Q 204630 23260 206478 23260 Q 208326 23260 209136 21994 Q 209946 20728 209946 18218.8 Q 209946 15712 209124 14470 Q 208302 13228 206454 13228 Q 204606 13228 203796 14470 Q 202986 15712 202986 18218.8  Z M 205113.6 9616 Q 205377.6 9266.8 205659.6 8810.8 Q 205941.6 8354.8 206223.6 7868.8 Q 206505.6 7382.8 206757.6 6896.8 Q 207009.6 6410.8 207201.6 6002.8 L 209828.4 6002.8 L 209828.4 6256 Q 209636.4 6578.8 209258.4 7064.8 Q 208880.4 7550.8 208418.4 8078.8 Q 207956.4 8606.8 207470.4 9104.8 Q 206984.4 9602.8 206563.2 9938.8 L 205112.4 9938.8 L 205112.4 9616 L 205113.6 9616 Z M 221827.2 24832 L 221827.2 16346.8 Q 221827.2 14786.8 221197.2 14006.8 Q 220567.2 13226.8 219223.2 13226.8 Q 218250 13226.8 217590 13538.8 Q 216930 13850.8 216528 14462.8 Q 216126 15074.8 215952 15962.8 Q 215778 16850.8 215778 18002.8 L 215778 24832 L 213594 24832 L 213594 11656 L 215370 11656 L 215682 13432 L 215802 13432 Q 216103.2 12914.8 216517.2 12536.8 Q 216931.2 12158.8 217423.2 11906.8 Q 217915.2 11654.8 218467.2 11534.8 Q 219019.2 11414.8 219595.2 11414.8 Q 221792.4 11414.8 222902.4 12560.8 Q 224012.4 13706.8 224012.4 16226.8 L 224012.4 24832 L 221828.4 24832 L 221827.2 24832 Z M 110032 58847.6 Q 110032 61068.8 109456 62742.8 Q 108880 64416.8 107788 65538.8 Q 106696 66660.8 105106 67224.8 Q 103516 67788.8 101500 67788.8 L 97108 67788.8 L 97108 50244.8 L 101990.8 50244.8 Q 103828 50244.8 105316 50796.8 Q 106804 51348.8 107848 52434.8 Q 108892 53520.8 109462 55128.8 Q 110032 56736.8 110032 58848.8 L 110032 58847.6 Z M 107669.2 58919.6 Q 107669.2 57167.6 107273.2 55889.6 Q 106877.2 54611.6 106121.2 53783.6 Q 105365.2 52955.6 104261.2 52553.6 Q 103157.2 52151.6 101752 52151.6 L 99341.2 52151.6 L 99341.2 65868.8 L 101285.2 65868.8 Q 104453.2 65868.8 106061.2 64116.8 Q 107669.2 62364.8 107669.2 58919.6  Z M 120910.4 67788.8 L 111803.6 67788.8 L 111803.6 50244.8 L 120910.4 50244.8 L 120910.4 52212.8 L 114035.6 52212.8 L 114035.6 57636.8 L 120454.4 57636.8 L 120454.4 59580.8 L 114035.6 59580.8 L 114035.6 65820.8 L 120910.4 65820.8 L 120910.4 67788.8 Z M 129957.2 67788.8 L 124640 52428.8 L 124544 52428.8 Q 124616 53316.8 124664 54191.6 Q 124712 54948.8 124742 55782.8 Q 124772 56616.8 124772 57302 L 124772 67790 L 122708 67790 L 122708 50246 L 126020 50246 L 130964 64550 L 131036 64550 L 136004 50246 L 139316 50246 L 139316 67790 L 137084 67790 L 137084 57144.8 Q 137084 56520.8 137108 55716.8 Q 137132 54912.8 137166.8 54182 Q 137214.8 53328.8 137252 52454 L 137156 52454 L 131790.8 67790 L 129956 67790 L 129957.2 67788.8 Z M 156339.6 58991.6 Q 156339.6 61020.8 155853.6 62688.8 Q 155367.6 64356.8 154407.6 65544.8 Q 153447.6 66732.8 152025.6 67380.8 Q 150603.6 68028.8 148742.4 68028.8 Q 146787.6 68028.8 145353.6 67380.8 Q 143919.6 66732.8 142977.6 65544.8 Q 142035.6 64356.8 141579.6 62682.8 Q 141123.6 61008.8 141123.6 58968.8 Q 141123.6 56928.8 141579.6 55266.8 Q 142035.6 53604.8 142983.6 52428.8 Q 143931.6 51252.8 145371.6 50610.8 Q 146811.6 49968.8 148766.4 49968.8 Q 150627.6 49968.8 152037.6 50610.8 Q 153447.6 51252.8 154407.6 52434.8 Q 155367.6 53616.8 155853.6 55278.8 Q 156339.6 56940.8 156339.6 58991.6  Z M 143486.4 58991.6 Q 143486.4 60636.8 143798.4 61950.8 Q 144110.4 63264.8 144752.4 64182.8 Q 145394.4 65100.8 146384.4 65586.8 Q 147374.4 66072.8 148742.4 66072.8 Q 150110.4 66072.8 151100.4 65586.8 Q 152090.4 65100.8 152732.4 64182.8 Q 153374.4 63264.8 153674.4 61950.8 Q 153974.4 60636.8 153974.4 58991.6 Q 153974.4 57335.6 153674.4 56027.6 Q 153374.4 54719.6 152738.4 53813.6 Q 152102.4 52907.6 151118.4 52421.6 Q 150134.4 51935.6 148766.4 51935.6 Q 147398.4 51935.6 146402.4 52421.6 Q 145406.4 52907.6 144758.4 53813.6 Q 144110.4 54719.6 143798.4 56027.6 Q 143486.4 57335.6 143486.4 58991.6  Z M 41243.65 106035.2 L 39476.65 106035.2 L 39476.65 99556.2 L 33149.65 99556.2 L 33149.65 106035.2 L 31382.65 106035.2 L 31382.65 92146.2 L 33149.65 92146.2 L 33149.65 97998.2 L 39476.65 97998.2 L 39476.65 92146.2 L 41243.65 92146.2 L 41243.65 106035.2 Z M 48596.85 106035.2 L 48244.4 104591.2 L 48168.4 104591.2 Q 47855.85 105017.75 47542.35 105326.5 Q 47228.85 105635.25 46858.35 105834.75 Q 46487.85 106034.25 46031.85 106129.25 Q 45575.85 106224.25 44976.4 106224.25 Q 44321.85 106224.25 43770.85 106039 Q 43219.85 105853.75 42816.1 105469 Q 42412.35 105084.25 42184.35 104500 Q 41956.35 103915.75 41956.35 103117.75 Q 41956.35 101559.75 43053.6 100723.75 Q 44150.85 99887.75 46392.85 99811.75 L 48140.85 99746.2 L 48140.85 99089.75 Q 48140.85 98454.2 48003.1 98026.7 Q 47865.35 97599.2 47604.1 97337.95 Q 47342.85 97076.7 46958.1 96962.7 Q 46573.35 96848.7 46079.35 96848.7 Q 45291.8 96848.7 44612.55 97076.7 Q 43933.3 97304.7 43306.3 97627.7 L 42698.3 96327.15 Q 43401.3 95947.15 44265.8 95681.15 Q 45130.3 95415.15 46080.3 95415.15 Q 47049.3 95415.15 47757.05 95609.9 Q 48464.8 95804.65 48925.55 96227.4 Q 49386.3 96650.15 49614.3 97305.65 Q 49842.3 97961.15 49842.3 98892.15 L 49842.3 106036.15 L 48598.75 106036.15 L 48596.85 106035.2 Z M 45423.85 104827.75 Q 46002.4 104827.75 46496.4 104647.25 Q 46990.4 104466.75 47351.4 104101 Q 47712.4 103735.25 47916.65 103179.5 Q 48120.9 102623.75 48120.9 101874.2 L 48120.9 100932.75 L 46761.45 101000.2 Q 45906.45 101038.2 45326.95 101190.2 Q 44747.45 101342.2 44400.7 101612.95 Q 44053.95 101883.7 43901.95 102268.45 Q 43749.95 102653.2 43749.95 103136.75 Q 43749.95 104010.75 44210.7 104419.25 Q 44671.45 104827.75 45422.9 104827.75 L 45423.85 104827.75 Z M 55670.6 95414.2 Q 56563.6 95414.2 57295.1 95756.2 Q 58026.6 96098.2 58544.35 96777.45 Q 59062.1 97456.7 59347.1 98463.7 Q 59632.1 99470.7 59632.1 100800.7 Q 59632.1 102141.15 59347.1 103152.9 Q 59062.1 104164.65 58544.35 104848.65 Q 58026.6 105532.65 57295.1 105879.4 Q 56563.6 106226.15 55670.6 106226.15 Q 55111.05 106226.15 54655.05 106102.65 Q 54199.05 105979.15 53833.3 105774.9 Q 53467.55 105570.65 53187.3 105295.15 Q 52907.05 105019.65 52687.6 104715.65 L 52573.6 104715.65 L 52223.05 106037.1 L 50958.6 106037.1 L 50958.6 91255.1 L 52687.6 91255.1 L 52687.6 94827.1 Q 52687.6 95158.65 52678.1 95533.9 Q 52668.6 95909.15 52649.6 96232.15 Q 52630.6 96612.15 52611.6 96973.15 L 52687.6 96973.15 Q 52907.05 96639.7 53182.55 96354.7 Q 53458.05 96069.7 53823.8 95860.7 Q 54189.55 95651.7 54645.55 95532.95 Q 55101.55 95414.2 55671.55 95414.2 L 55670.6 95414.2 Z M 55339.05 96847.75 Q 54579.05 96847.75 54070.8 97090 Q 53562.55 97332.25 53253.8 97826.25 Q 52945.05 98320.25 52816.8 99061.25 Q 52688.55 99802.25 52688.55 100798.8 Q 52688.55 101759.25 52816.8 102505 Q 52945.05 103250.75 53253.8 103759 Q 53562.55 104267.25 54075.55 104528.5 Q 54588.55 104789.75 55359 104789.75 Q 56640.55 104789.75 57243.8 103754.25 Q 57847.05 102718.75 57847.05 100780.75 Q 57847.05 98804.75 57243.8 97826.25 Q 56640.55 96847.75 55340 96847.75 L 55339.05 96847.75 Z M 62057.2 106035.2 L 60328.2 106035.2 L 60328.2 91253.2 L 62057.2 91253.2 L 62057.2 106035.2 Z M 67420.8 106225.2 Q 66375.8 106225.2 65511.3 105873.7 Q 64646.8 105522.2 64024.55 104847.7 Q 63402.3 104173.2 63060.3 103175.7 Q 62718.3 102178.2 62718.3 100894.75 Q 62718.3 99602.75 63031.8 98586.25 Q 63345.3 97569.75 63915.3 96862 Q 64485.3 96154.25 65278.55 95783.75 Q 66071.8 95413.25 67032.25 95413.25 Q 67971.8 95413.25 68722.3 95750.5 Q 69472.8 96087.75 69995.3 96700.5 Q 70517.8 97313.25 70798.05 98173 Q 71078.3 99032.75 71078.3 100077.75 L 71078.3 101152.2 L 64504.3 101152.2 Q 64550.85 102984.75 65277.6 103849.25 Q 66004.35 104713.75 67437.9 104713.75 Q 67923.35 104713.75 68336.6 104666.25 Q 68749.85 104618.75 69134.6 104528.5 Q 69519.35 104438.25 69880.35 104300.5 Q 70241.35 104162.75 70610.9 103991.75 L 70610.9 105530.75 Q 70230.9 105712.2 69865.15 105845.2 Q 69499.4 105978.2 69114.65 106063.7 Q 68729.9 106149.2 68316.65 106187.2 Q 67903.4 106225.2 67417.95 106225.2 L 67420.8 106225.2 Z M 66994.25 96847.75 Q 65911.25 96847.75 65279.5 97588.75 Q 64647.75 98329.75 64544.2 99746.2 L 69218.2 99746.2 Q 69218.2 99100.2 69089.95 98563.45 Q 68961.7 98026.7 68690.95 97646.7 Q 68420.2 97266.7 68002.2 97057.7 Q 67584.2 96848.7 66995.2 96848.7 L 66994.25 96847.75 Z M 84085.65 106035.2 L 84085.65 99317.75 Q 84085.65 98082.75 83610.65 97465.25 Q 83135.65 96847.75 82137.2 96847.75 Q 81444.65 96847.75 80960.15 97071 Q 80475.65 97294.25 80166.9 97726.5 Q 79858.15 98158.75 79715.65 98800 Q 79573.15 99441.25 79573.15 100277.25 L 79573.15 106034.25 L 77835.6 106034.25 L 77835.6 99316.8 Q 77835.6 98081.8 77365.35 97464.3 Q 76895.1 96846.8 75898.55 96846.8 Q 75166.1 96846.8 74672.1 97093.8 Q 74178.1 97340.8 73878.85 97825.3 Q 73579.6 98309.8 73451.35 99012.8 Q 73323.1 99715.8 73323.1 100627.8 L 73323.1 106034.25 L 71594.1 106034.25 L 71594.1 95603.25 L 73000.1 95603.25 L 73247.1 97009.25 L 73342.1 97009.25 Q 73570.1 96599.8 73883.6 96300.55 Q 74197.1 96001.3 74572.35 95801.8 Q 74947.6 95602.3 75370.35 95507.3 Q 75793.1 95412.3 76230.1 95412.3 Q 77370.1 95412.3 78125.35 95830.3 Q 78880.6 96248.3 79241.6 97141.3 L 79317.6 97141.3 Q 79564.6 96693.85 79911.35 96370.85 Q 80258.1 96047.85 80671.35 95834.1 Q 81084.6 95620.35 81540.6 95515.85 Q 81996.6 95411.35 82471.6 95411.35 Q 84133.15 95411.35 84973.9 96318.6 Q 85814.65 97225.85 85814.65 99220.85 L 85814.65 106033.3 L 84085.65 106033.3 L 84085.65 106035.2 Z M 95455.65 100799.75 Q 95455.65 102102.2 95137.4 103113.95 Q 94819.15 104125.7 94225.4 104814.45 Q 93631.65 105503.2 92786.15 105864.2 Q 91940.65 106225.2 90885.2 106225.2 Q 89907.65 106225.2 89081.15 105864.2 Q 88254.65 105503.2 87651.4 104814.45 Q 87048.15 104125.7 86710.9 103113.95 Q 86373.65 102102.2 86373.65 100799.75 Q 86373.65 99507.75 86691.9 98505.5 Q 87010.15 97503.25 87599.15 96814.5 Q 88188.15 96125.75 89038.4 95769.5 Q 89888.65 95413.25 90942.2 95413.25 Q 91921.65 95413.25 92748.15 95769.5 Q 93574.65 96125.75 94177.9 96814.5 Q 94781.15 97503.25 95118.4 98505.5 Q 95455.65 99507.75 95455.65 100799.75  Z M 88159.65 100799.75 Q 88159.65 102786.2 88810.4 103788.45 Q 89461.15 104790.7 90924.15 104790.7 Q 92387.15 104790.7 93028.4 103788.45 Q 93669.65 102786.2 93669.65 100799.75 Q 93669.65 98815.2 93018.9 97831.95 Q 92368.15 96848.7 90905.15 96848.7 Q 89442.15 96848.7 88800.9 97831.95 Q 88159.65 98815.2 88159.65 100799.75  Z M 102410.65 103174.75 Q 102410.65 103934.75 102135.15 104504.75 Q 101859.65 105074.75 101341.9 105459.5 Q 100824.15 105844.25 100092.65 106034.25 Q 99361.15 106224.25 98449.15 106224.25 Q 97414.6 106224.25 96673.6 106058 Q 95932.6 105891.75 95371.15 105568.75 L 95371.15 103991.75 Q 95666.6 104143.75 96027.6 104291 Q 96388.6 104438.25 96787.6 104552.25 Q 97186.6 104666.25 97609.35 104737.5 Q 98032.1 104808.75 98450.1 104808.75 Q 99068.55 104808.75 99500.8 104704.25 Q 99933.05 104599.75 100203.8 104405 Q 100474.55 104210.25 100598.05 103930 Q 100721.55 103649.75 100721.55 103307.75 Q 100721.55 103014.2 100626.55 102776.7 Q 100531.55 102539.2 100279.8 102306.45 Q 100028.05 102073.7 99591.05 101836.2 Q 99154.05 101598.7 98470.05 101305.15 Q 97786.05 101009.7 97239.8 100724.7 Q 96693.55 100439.7 96313.55 100088.2 Q 95933.55 99736.7 95729.3 99275.95 Q 95525.05 98815.2 95525.05 98177.75 Q 95525.05 97512.75 95786.3 96995 Q 96047.55 96477.25 96522.55 96125.75 Q 96997.55 95774.25 97662.55 95593.75 Q 98327.55 95413.25 99144.55 95413.25 Q 100065.1 95413.25 100829.85 95612.75 Q 101594.6 95812.25 102278.6 96135.25 L 101679.15 97530.8 Q 101062.6 97256.25 100411.85 97052 Q 99761.1 96847.75 99087.55 96847.75 Q 98118.55 96847.75 97653.05 97166 Q 97187.55 97484.25 97187.55 98073.25 Q 97187.55 98404.8 97296.8 98651.8 Q 97406.05 98898.8 97672.05 99117.3 Q 97938.05 99335.8 98384.55 99559.05 Q 98831.05 99782.3 99496.05 100056.85 Q 100180.05 100341.85 100716.8 100626.85 Q 101253.55 100911.85 101633.55 101268.1 Q 102013.55 101624.35 102213.05 102080.35 Q 102412.55 102536.35 102412.55 103171.9 L 102410.65 103174.75 Z M 102619.85 104979.75 Q 102619.85 104618.75 102714.85 104367 Q 102809.85 104115.25 102971.35 103958.5 Q 103132.85 103801.75 103351.35 103730.5 Q 103569.85 103659.25 103825.4 103659.25 Q 104072.4 103659.25 104295.65 103730.5 Q 104518.9 103801.75 104680.4 103958.5 Q 104841.9 104115.25 104936.9 104367 Q 105031.9 104618.75 105031.9 104979.75 Q 105031.9 105332.2 104936.9 105583.95 Q 104841.9 105835.7 104680.4 105998.15 Q 104518.9 106160.6 104295.65 106236.6 Q 104072.4 106312.6 103825.4 106312.6 Q 103569.85 106312.6 103351.35 106236.6 Q 103132.85 106160.6 102971.35 105998.15 Q 102809.85 105835.7 102714.85 105583.95 Q 102619.85 105332.2 102619.85 104979.75  Z M 102619.85 96657.75 Q 102619.85 96288.2 102714.85 96036.45 Q 102809.85 95784.7 102971.35 95627.95 Q 103132.85 95471.2 103351.35 95404.7 Q 103569.85 95338.2 103825.4 95338.2 Q 104072.4 95338.2 104295.65 95404.7 Q 104518.9 95471.2 104680.4 95627.95 Q 104841.9 95784.7 104936.9 96036.45 Q 105031.9 96288.2 105031.9 96657.75 Q 105031.9 97010.2 104936.9 97257.2 Q 104841.9 97504.2 104680.4 97665.7 Q 104518.9 97827.2 104295.65 97903.2 Q 104072.4 97979.2 103825.4 97979.2 Q 103569.85 97979.2 103351.35 97903.2 Q 103132.85 97827.2 102971.35 97665.7 Q 102809.85 97504.2 102714.85 97257.2 Q 102619.85 97010.2 102619.85 96657.75  Z M 115001.65 92146.2 L 116872.2 92146.2 L 119048.65 100278.2 Q 119190.2 100810.2 119327.95 101342.2 Q 119465.7 101874.2 119584.45 102372.95 Q 119703.2 102871.7 119793.45 103318.2 Q 119883.7 103764.7 119940.7 104125.7 Q 119978.7 103764.7 120035.7 103337.2 Q 120092.7 102909.7 120168.7 102439.45 Q 120244.7 101969.2 120334.95 101479.95 Q 120425.2 100990.7 120530.65 100526.15 L 122430.65 92147.15 L 124320.2 92147.15 L 120834.65 106036.15 L 119048.65 106036.15 L 116635.65 97125.15 Q 116502.65 96639.7 116379.15 96126.7 Q 116255.65 95613.7 116150.2 95168.15 Q 116036.2 94644.7 115932.65 94150.7 Q 115827.2 94636.15 115723.65 95157.7 Q 115628.65 95605.15 115509.9 96137.15 Q 115391.15 96669.15 115258.15 97182.15 L 112959.15 106036.15 L 111173.15 106036.15 L 107506.15 92147.15 L 109378.6 92147.15 L 111496.15 100591.7 Q 111610.15 101028.7 111705.15 101498.95 Q 111800.15 101969.2 111880.9 102434.7 Q 111961.65 102900.2 112028.15 103332.45 Q 112094.65 103764.7 112141.2 104125.7 Q 112189.65 103775.15 112260.9 103309.65 Q 112332.15 102844.15 112427.15 102331.15 Q 112522.15 101818.15 112631.4 101290.9 Q 112740.65 100763.65 112863.2 100299.1 L 115001.65 92148.1 L 115001.65 92146.2 Z M 132632.65 96212.2 Q 132632.65 97075.75 132371.4 97873.75 Q 132110.15 98671.75 131511.65 99284.5 Q 130913.15 99897.25 129929.9 100263 Q 128946.65 100628.75 127502.65 100628.75 L 126077.65 100628.75 L 126077.65 106035.2 L 124310.65 106035.2 L 124310.65 92146.2 L 127749.65 92146.2 Q 129022.65 92146.2 129944.15 92416.95 Q 130865.65 92687.7 131464.15 93205.45 Q 132062.65 93723.2 132347.65 94483.2 Q 132632.65 95243.2 132632.65 96212.2  Z M 126077.65 99127.75 L 127302.2 99127.75 Q 128186.65 99127.75 128846.9 98975.75 Q 129507.15 98823.75 129939.4 98486.5 Q 130371.65 98149.25 130590.15 97612.5 Q 130808.65 97075.75 130808.65 96307.2 Q 130808.65 94958.2 130029.65 94307.45 Q 129250.65 93656.7 127597.65 93656.7 L 126077.65 93656.7 L 126077.65 99128.7 L 126077.65 99127.75 Z M 143632.85 95395.2 Q 143632.85 96087.75 143414.35 96657.75 Q 143195.85 97227.75 142801.6 97645.75 Q 142407.35 98063.75 141856.35 98334.5 Q 141305.35 98605.25 140631.8 98719.25 L 140631.8 98776.25 Q 142312.35 98985.25 143186.35 99845 Q 144060.35 100704.75 144060.35 102083.2 Q 144060.35 102995.2 143751.6 103755.2 Q 143442.85 104515.2 142815.85 105066.2 Q 142188.85 105617.2 141229.35 105921.2 Q 140269.85 106225.2 138958.85 106225.2 Q 137922.4 106225.2 137005.65 106063.7 Q 136088.9 105902.2 135280.45 105473.75 L 135280.45 103858.75 Q 136107.9 104295.75 137072.15 104533.25 Q 138036.4 104770.75 138920.85 104770.75 Q 139794.85 104770.75 140431.35 104580.75 Q 141067.85 104390.75 141481.1 104039.25 Q 141894.35 103687.75 142089.1 103174.75 Q 142283.85 102661.75 142283.85 102026.2 Q 142283.85 101380.2 142032.1 100919.45 Q 141780.35 100458.7 141314.85 100159.45 Q 140849.35 99860.2 140179.6 99717.7 Q 139509.85 99575.2 138663.4 99575.2 L 137400.85 99575.2 L 137400.85 98139.75 L 138663.4 98139.75 Q 139433.85 98139.75 140032.35 97949.75 Q 140630.85 97759.75 141034.6 97408.25 Q 141438.35 97056.75 141647.35 96572.25 Q 141856.35 96087.75 141856.35 95509.2 Q 141856.35 95015.2 141685.35 94625.7 Q 141514.35 94236.2 141200.85 93965.45 Q 140887.35 93694.7 140450.35 93552.2 Q 140013.35 93409.7 139481.35 93409.7 Q 138465.8 93409.7 137691.55 93727.95 Q 136917.3 94046.2 136214.3 94559.2 L 135340.3 93370.75 Q 135701.3 93077.2 136143.05 92820.7 Q 136584.8 92564.2 137107.3 92369.45 Q 137629.8 92174.7 138223.55 92060.7 Q 138817.3 91946.7 139482.3 91946.7 Q 140508.3 91946.7 141282.55 92203.2 Q 142056.8 92459.7 142579.3 92920.45 Q 143101.8 93381.2 143367.8 94012.95 Q 143633.8 94644.7 143633.8 95396.15 L 143632.85 95395.2 Z M 152959.2 99070.75 Q 152959.2 100753.2 152716.95 102083.2 Q 152474.7 103413.2 151937.95 104334.7 Q 151401.2 105256.2 150555.7 105740.7 Q 149710.2 106225.2 148504.65 106225.2 Q 147383.65 106225.2 146552.4 105740.7 Q 145721.15 105256.2 145174.9 104334.7 Q 144628.65 103413.2 144357.9 102083.2 Q 144087.15 100753.2 144087.15 99070.75 Q 144087.15 97390.2 144329.4 96060.2 Q 144571.65 94730.2 145098.9 93813.45 Q 145626.15 92896.7 146466.9 92412.2 Q 147307.65 91927.7 148504.65 91927.7 Q 149634.2 91927.7 150470.2 92407.45 Q 151306.2 92887.2 151857.2 93803.95 Q 152408.2 94720.7 152683.7 96050.7 Q 152959.2 97380.7 152959.2 99071.7 L 152959.2 99070.75 Z M 145844.65 99070.75 Q 145844.65 100495.75 145987.15 101559.75 Q 146129.65 102623.75 146443.15 103331.5 Q 146756.65 104039.25 147264.9 104395.5 Q 147773.15 104751.75 148505.6 104751.75 Q 149236.15 104751.75 149749.15 104400.25 Q 150262.15 104048.75 150589.9 103345.75 Q 150917.65 102642.75 151064.9 101574 Q 151212.15 100505.25 151212.15 99069.8 Q 151212.15 97644.8 151064.9 96580.8 Q 150917.65 95516.8 150589.9 94813.8 Q 150262.15 94110.8 149749.15 93759.3 Q 149236.15 93407.8 148505.6 93407.8 Q 147773.15 93407.8 147264.9 93759.3 Q 146756.65 94110.8 146443.15 94813.8 Q 146129.65 95516.8 145987.15 96580.8 Q 145844.65 97644.8 145844.65 99069.8 L 145844.65 99070.75 Z M 161384 106035.2 L 152720 106035.2 L 152720 104553.2 L 156045 100932.75 Q 156758.45 100164.2 157318.95 99527.7 Q 157879.45 98891.2 158273.7 98283.2 Q 158667.95 97675.2 158876.95 97062.45 Q 159085.95 96449.7 159085.95 95727.7 Q 159085.95 95168.15 158924.45 94740.65 Q 158762.95 94313.15 158463.7 94013.9 Q 158164.45 93714.65 157755.95 93562.65 Q 157347.45 93410.65 156843 93410.65 Q 155941.45 93410.65 155214.7 93776.4 Q 154487.95 94142.15 153833.4 94712.15 L 152864.4 93580.7 Q 153244.4 93238.7 153681.4 92939.45 Q 154118.4 92640.2 154621.9 92421.7 Q 155125.4 92203.2 155685.9 92074.95 Q 156246.4 91946.7 156862.95 91946.7 Q 157774.95 91946.7 158511.2 92203.2 Q 159247.45 92459.7 159760.45 92939.45 Q 160273.45 93419.2 160553.7 94107.95 Q 160833.95 94796.7 160833.95 95662.15 Q 160833.95 96468.7 160582.2 97200.2 Q 160330.45 97931.7 159888.7 98639.45 Q 159446.95 99347.2 158834.2 100059.7 Q 158221.45 100772.2 157508 101540.75 L 154839.45 104382.2 L 154839.45 104458.2 L 161384 104458.2 L 161384 106035.2 Z M 170036.8 106035.2 L 161372.8 106035.2 L 161372.8 104553.2 L 164697.8 100932.75 Q 165411.25 100164.2 165971.75 99527.7 Q 166532.25 98891.2 166926.5 98283.2 Q 167320.75 97675.2 167529.75 97062.45 Q 167738.75 96449.7 167738.75 95727.7 Q 167738.75 95168.15 167577.25 94740.65 Q 167415.75 94313.15 167116.5 94013.9 Q 166817.25 93714.65 166408.75 93562.65 Q 166000.25 93410.65 165495.8 93410.65 Q 164594.25 93410.65 163867.5 93776.4 Q 163140.75 94142.15 162486.2 94712.15 L 161517.2 93580.7 Q 161897.2 93238.7 162334.2 92939.45 Q 162771.2 92640.2 163274.7 92421.7 Q 163778.2 92203.2 164338.7 92074.95 Q 164899.2 91946.7 165515.75 91946.7 Q 166427.75 91946.7 167164 92203.2 Q 167900.25 92459.7 168413.25 92939.45 Q 168926.25 93419.2 169206.5 94107.95 Q 169486.75 94796.7 169486.75 95662.15 Q 169486.75 96468.7 169235 97200.2 Q 168983.25 97931.7 168541.5 98639.45 Q 168099.75 99347.2 167487 100059.7 Q 166874.25 100772.2 166160.8 101540.75 L 163492.25 104382.2 L 163492.25 104458.2 L 170036.8 104458.2 L 170036.8 106035.2 Z M 174292.05 97512.75 Q 175231.6 97512.75 176043.85 97774 Q 176856.1 98035.25 177459.35 98548.25 Q 178062.6 99061.25 178404.6 99821.25 Q 178746.6 100581.25 178746.6 101577.8 Q 178746.6 102660.8 178423.6 103525.3 Q 178100.6 104389.8 177464.1 104988.3 Q 176827.6 105586.8 175891.85 105905.05 Q 174956.1 106223.3 173740.1 106223.3 Q 173254.65 106223.3 172784.4 106175.8 Q 172314.15 106128.3 171881.9 106038.05 Q 171449.65 105947.8 171060.15 105805.3 Q 170670.65 105662.8 170358.1 105472.8 L 170358.1 103838.8 Q 170670.65 104058.25 171093.4 104229.25 Q 171516.15 104400.25 171981.65 104514.25 Q 172447.15 104628.25 172917.4 104690 Q 173387.65 104751.75 173786.65 104751.75 Q 174538.1 104751.75 175127.1 104576 Q 175716.1 104400.25 176124.6 104029.75 Q 176533.1 103659.25 176751.6 103098.75 Q 176970.1 102538.25 176970.1 101767.8 Q 176970.1 100410.25 176134.1 99693 Q 175298.1 98975.75 173702.1 98975.75 Q 173444.65 98975.75 173145.4 98999.5 Q 172846.15 99023.25 172546.9 99061.25 Q 172247.65 99099.25 171976.9 99142 Q 171706.15 99184.75 171505.7 99222.75 L 170650.7 98682.2 L 171174.15 92146.2 L 177729.15 92146.2 L 177729.15 93723.2 L 172675.15 93723.2 L 172303.7 97702.75 Q 172607.7 97645.75 173106.45 97579.25 Q 173605.2 97512.75 174289.2 97512.75 L 174292.05 97512.75 Z M 182944.85 97512.75 Q 183884.4 97512.75 184696.65 97774 Q 185508.9 98035.25 186112.15 98548.25 Q 186715.4 99061.25 187057.4 99821.25 Q 187399.4 100581.25 187399.4 101577.8 Q 187399.4 102660.8 187076.4 103525.3 Q 186753.4 104389.8 186116.9 104988.3 Q 185480.4 105586.8 184544.65 105905.05 Q 183608.9 106223.3 182392.9 106223.3 Q 181907.45 106223.3 181437.2 106175.8 Q 180966.95 106128.3 180534.7 106038.05 Q 180102.45 105947.8 179712.95 105805.3 Q 179323.45 105662.8 179010.9 105472.8 L 179010.9 103838.8 Q 179323.45 104058.25 179746.2 104229.25 Q 180168.95 104400.25 180634.45 104514.25 Q 181099.95 104628.25 181570.2 104690 Q 182040.45 104751.75 182439.45 104751.75 Q 183190.9 104751.75 183779.9 104576 Q 184368.9 104400.25 184777.4 104029.75 Q 185185.9 103659.25 185404.4 103098.75 Q 185622.9 102538.25 185622.9 101767.8 Q 185622.9 100410.25 184786.9 99693 Q 183950.9 98975.75 182354.9 98975.75 Q 182097.45 98975.75 181798.2 98999.5 Q 181498.95 99023.25 181199.7 99061.25 Q 180900.45 99099.25 180629.7 99142 Q 180358.95 99184.75 180158.5 99222.75 L 179303.5 98682.2 L 179826.95 92146.2 L 186381.95 92146.2 L 186381.95 93723.2 L 181327.95 93723.2 L 180956.5 97702.75 Q 181260.5 97645.75 181759.25 97579.25 Q 182258 97512.75 182942 97512.75 L 182944.85 97512.75 Z M 195549.65 95395.2 Q 195549.65 96087.75 195331.15 96657.75 Q 195112.65 97227.75 194718.4 97645.75 Q 194324.15 98063.75 193773.15 98334.5 Q 193222.15 98605.25 192548.6 98719.25 L 192548.6 98776.25 Q 194229.15 98985.25 195103.15 99845 Q 195977.15 100704.75 195977.15 102083.2 Q 195977.15 102995.2 195668.4 103755.2 Q 195359.65 104515.2 194732.65 105066.2 Q 194105.65 105617.2 193146.15 105921.2 Q 192186.65 106225.2 190875.65 106225.2 Q 189839.2 106225.2 188922.45 106063.7 Q 188005.7 105902.2 187197.25 105473.75 L 187197.25 103858.75 Q 188024.7 104295.75 188988.95 104533.25 Q 189953.2 104770.75 190837.65 104770.75 Q 191711.65 104770.75 192348.15 104580.75 Q 192984.65 104390.75 193397.9 104039.25 Q 193811.15 103687.75 194005.9 103174.75 Q 194200.65 102661.75 194200.65 102026.2 Q 194200.65 101380.2 193948.9 100919.45 Q 193697.15 100458.7 193231.65 100159.45 Q 192766.15 99860.2 192096.4 99717.7 Q 191426.65 99575.2 190580.2 99575.2 L 189317.65 99575.2 L 189317.65 98139.75 L 190580.2 98139.75 Q 191350.65 98139.75 191949.15 97949.75 Q 192547.65 97759.75 192951.4 97408.25 Q 193355.15 97056.75 193564.15 96572.25 Q 193773.15 96087.75 193773.15 95509.2 Q 193773.15 95015.2 193602.15 94625.7 Q 193431.15 94236.2 193117.65 93965.45 Q 192804.15 93694.7 192367.15 93552.2 Q 191930.15 93409.7 191398.15 93409.7 Q 190382.6 93409.7 189608.35 93727.95 Q 188834.1 94046.2 188131.1 94559.2 L 187257.1 93370.75 Q 187618.1 93077.2 188059.85 92820.7 Q 188501.6 92564.2 189024.1 92369.45 Q 189546.6 92174.7 190140.35 92060.7 Q 190734.1 91946.7 191399.1 91946.7 Q 192425.1 91946.7 193199.35 92203.2 Q 193973.6 92459.7 194496.1 92920.45 Q 195018.6 93381.2 195284.6 94012.95 Q 195550.6 94644.7 195550.6 95396.15 L 195549.65 95395.2 Z M 196146.45 100096.75 Q 196146.45 99100.2 196246.2 98112.2 Q 196345.95 97124.2 196597.7 96216.95 Q 196849.45 95309.7 197286.45 94530.7 Q 197723.45 93751.7 198397.95 93176.95 Q 199072.45 92602.2 200012.95 92274.45 Q 200953.45 91946.7 202216 91946.7 Q 202397.45 91946.7 202615.95 91956.2 Q 202834.45 91965.7 203057.7 91989.45 Q 203280.95 92013.2 203485.2 92046.45 Q 203689.45 92079.7 203850 92128.15 L 203850 93599.7 Q 203518.45 93485.7 203100.45 93428.7 Q 202682.45 93371.7 202273 93371.7 Q 201418 93371.7 200767.25 93575.95 Q 200116.5 93780.2 199641.5 94150.7 Q 199166.5 94521.2 198848.25 95034.2 Q 198530 95547.2 198330.5 96169.45 Q 198131 96791.7 198036 97494.7 Q 197941 98197.7 197913.45 98957.7 L 198027.45 98957.7 Q 198217.45 98615.7 198488.2 98316.45 Q 198758.95 98017.2 199119.95 97803.45 Q 199480.95 97589.7 199932.2 97466.2 Q 200383.45 97342.7 200943 97342.7 Q 201846.45 97342.7 202577.95 97622.95 Q 203309.45 97903.2 203822.45 98444.7 Q 204335.45 98986.2 204615.7 99769.95 Q 204895.95 100553.7 204895.95 101560.7 Q 204895.95 102643.7 204601.45 103508.2 Q 204306.95 104372.7 203755.95 104975.95 Q 203204.95 105579.2 202425.95 105902.2 Q 201646.95 106225.2 200677.95 106225.2 Q 199727.95 106225.2 198896.7 105854.7 Q 198065.45 105484.2 197457.45 104724.2 Q 196849.45 103964.2 196497.95 102814.7 Q 196146.45 101665.2 196146.45 100096.75  Z M 200658 104770.75 Q 201228 104770.75 201698.25 104576 Q 202168.5 104381.25 202510.5 103987 Q 202852.5 103592.75 203037.75 102989.5 Q 203223 102386.25 203223 101558.8 Q 203223 100893.8 203066.25 100366.55 Q 202909.5 99839.3 202596 99468.8 Q 202282.5 99098.3 201812.25 98898.8 Q 201342 98699.3 200715 98699.3 Q 200079.45 98699.3 199552.2 98922.55 Q 199024.95 99145.8 198654.45 99502.05 Q 198283.95 99858.3 198079.7 100314.3 Q 197875.45 100770.3 197875.45 101226.3 Q 197875.45 101861.85 198051.2 102493.6 Q 198226.95 103125.35 198573.7 103628.85 Q 198920.45 104132.35 199442.95 104450.6 Q 199965.45 104768.85 200658 104768.85 L 200658 104770.75 Z M 213490.8 98074.2 Q 213490.8 99070.75 213391.05 100063.5 Q 213291.3 101056.25 213039.55 101958.75 Q 212787.8 102861.25 212350.8 103645 Q 211913.8 104428.75 211239.3 104998.75 Q 210564.8 105568.75 209624.3 105896.5 Q 208683.8 106224.25 207421.25 106224.25 Q 207239.8 106224.25 207021.3 106214.75 Q 206802.8 106205.25 206584.3 106181.5 Q 206365.8 106157.75 206156.8 106129.25 Q 205947.8 106100.75 205787.25 106052.3 L 205787.25 104570.3 Q 206118.8 104692.85 206536.8 104749.85 Q 206954.8 104806.85 207364.25 104806.85 Q 208645.8 104806.85 209472.3 104360.35 Q 210298.8 103913.85 210783.3 103149.1 Q 211267.8 102384.35 211472.05 101367.85 Q 211676.3 100351.35 211722.85 99219.9 L 211600.3 99219.9 Q 211410.3 99561.9 211144.3 99856.4 Q 210878.3 100150.9 210517.3 100369.4 Q 210156.3 100587.9 209700.3 100711.4 Q 209244.3 100834.9 208682.85 100834.9 Q 207781.3 100834.9 207049.8 100554.65 Q 206318.3 100274.4 205805.3 99732.9 Q 205292.3 99191.4 205012.05 98407.65 Q 204731.8 97623.9 204731.8 96616.9 Q 204731.8 95533.9 205031.05 94664.65 Q 205330.3 93795.4 205876.55 93192.15 Q 206422.8 92588.9 207206.55 92265.9 Q 207990.3 91942.9 208959.3 91942.9 Q 209917.85 91942.9 210744.35 92313.4 Q 211570.85 92683.9 212178.85 93443.9 Q 212786.85 94203.9 213138.35 95358.15 Q 213489.85 96512.4 213489.85 98070.4 L 213490.8 98074.2 Z M 208979.25 93408.75 Q 208409.25 93408.75 207939 93598.75 Q 207468.75 93788.75 207126.75 94187.75 Q 206784.75 94586.75 206599.5 95190 Q 206414.25 95793.25 206414.25 96618.8 Q 206414.25 97283.8 206571 97811.05 Q 206727.75 98338.3 207041.25 98708.8 Q 207354.75 99079.3 207825 99278.8 Q 208295.25 99478.3 208922.25 99478.3 Q 209568.25 99478.3 210090.75 99255.05 Q 210613.25 99031.8 210983.75 98675.55 Q 211354.25 98319.3 211558.5 97863.3 Q 211762.75 97407.3 211762.75 96951.3 Q 211762.75 96313.85 211587 95682.1 Q 211411.25 95050.35 211064.5 94542.1 Q 210717.75 94033.85 210195.25 93720.35 Q 209672.75 93406.85 208980.2 93406.85 L 208979.25 93408.75 Z M 222143.6 98074.2 Q 222143.6 99070.75 222043.85 100063.5 Q 221944.1 101056.25 221692.35 101958.75 Q 221440.6 102861.25 221003.6 103645 Q 220566.6 104428.75 219892.1 104998.75 Q 219217.6 105568.75 218277.1 105896.5 Q 217336.6 106224.25 216074.05 106224.25 Q 215892.6 106224.25 215674.1 106214.75 Q 215455.6 106205.25 215237.1 106181.5 Q 215018.6 106157.75 214809.6 106129.25 Q 214600.6 106100.75 214440.05 106052.3 L 214440.05 104570.3 Q 214771.6 104692.85 215189.6 104749.85 Q 215607.6 104806.85 216017.05 104806.85 Q 217298.6 104806.85 218125.1 104360.35 Q 218951.6 103913.85 219436.1 103149.1 Q 219920.6 102384.35 220124.85 101367.85 Q 220329.1 100351.35 220375.65 99219.9 L 220253.1 99219.9 Q 220063.1 99561.9 219797.1 99856.4 Q 219531.1 100150.9 219170.1 100369.4 Q 218809.1 100587.9 218353.1 100711.4 Q 217897.1 100834.9 217335.65 100834.9 Q 216434.1 100834.9 215702.6 100554.65 Q 214971.1 100274.4 214458.1 99732.9 Q 213945.1 99191.4 213664.85 98407.65 Q 213384.6 97623.9 213384.6 96616.9 Q 213384.6 95533.9 213683.85 94664.65 Q 213983.1 93795.4 214529.35 93192.15 Q 215075.6 92588.9 215859.35 92265.9 Q 216643.1 91942.9 217612.1 91942.9 Q 218570.65 91942.9 219397.15 92313.4 Q 220223.65 92683.9 220831.65 93443.9 Q 221439.65 94203.9 221791.15 95358.15 Q 222142.65 96512.4 222142.65 98070.4 L 222143.6 98074.2 Z M 217632.05 93408.75 Q 217062.05 93408.75 216591.8 93598.75 Q 216121.55 93788.75 215779.55 94187.75 Q 215437.55 94586.75 215252.3 95190 Q 215067.05 95793.25 215067.05 96618.8 Q 215067.05 97283.8 215223.8 97811.05 Q 215380.55 98338.3 215694.05 98708.8 Q 216007.55 99079.3 216477.8 99278.8 Q 216948.05 99478.3 217575.05 99478.3 Q 218221.05 99478.3 218743.55 99255.05 Q 219266.05 99031.8 219636.55 98675.55 Q 220007.05 98319.3 220211.3 97863.3 Q 220415.55 97407.3 220415.55 96951.3 Q 220415.55 96313.85 220239.8 95682.1 Q 220064.05 95050.35 219717.3 94542.1 Q 219370.55 94033.85 218848.05 93720.35 Q 218325.55 93406.85 217633 93406.85 L 217632.05 93408.75 Z " fill-rule="nonzero" style="fill:#ffffff;;fill-opacity:1;"/>
  <path d="M 67358.75 146749.25 Q 66875.2 146749.25 66514.2 146687.5 Q 66153.2 146625.75 65887.2 146522.2 L 65887.2 145002.2 Q 66210.2 145086.75 66580.7 145139 Q 66951.2 145191.25 67377.75 145191.25 Q 67730.2 145191.25 68086.45 145101 Q 68442.7 145010.75 68732.45 144773.25 Q 69022.2 144535.75 69202.7 144117.75 Q 69383.2 143699.75 69383.2 143053.75 L 69383.2 129164.75 L 71160.65 129164.75 L 71160.65 142863.75 Q 71160.65 143862.2 70880.4 144593.7 Q 70600.15 145325.2 70101.4 145804.95 Q 69602.65 146284.7 68904.4 146517.45 Q 68206.15 146750.2 67359.7 146750.2 L 67358.75 146749.25 Z M 79218.05 143052.8 L 78960.6 141655.35 L 78865.6 141655.35 Q 78629.05 142064.8 78301.3 142364.05 Q 77973.55 142663.3 77584.05 142858.05 Q 77194.55 143052.8 76757.55 143147.8 Q 76320.55 143242.8 75864.55 143242.8 Q 75001 143242.8 74345.5 143024.3 Q 73690 142805.8 73253 142340.3 Q 72816 141874.8 72592.75 141152.8 Q 72369.5 140430.8 72369.5 139432.35 L 72369.5 132621.8 L 74098.5 132621.8 L 74098.5 139337.35 Q 74098.5 140572.35 74602 141189.85 Q 75105.5 141807.35 76160.95 141807.35 Q 76929.5 141807.35 77452 141560.35 Q 77974.5 141313.35 78292.75 140833.6 Q 78611 140353.85 78748.75 139650.85 Q 78886.5 138947.85 78886.5 138035.85 L 78886.5 132620.85 L 80615.5 132620.85 L 80615.5 143051.85 L 79219.95 143051.85 L 79218.05 143052.8 Z M 87713.65 143052.8 L 87361.2 141608.8 L 87285.2 141608.8 Q 86972.65 142035.35 86659.15 142344.1 Q 86345.65 142652.85 85975.15 142852.35 Q 85604.65 143051.85 85148.65 143146.85 Q 84692.65 143241.85 84093.2 143241.85 Q 83438.65 143241.85 82887.65 143056.6 Q 82336.65 142871.35 81932.9 142486.6 Q 81529.15 142101.85 81301.15 141517.6 Q 81073.15 140933.35 81073.15 140135.35 Q 81073.15 138577.35 82170.4 137741.35 Q 83267.65 136905.35 85509.65 136829.35 L 87257.65 136763.8 L 87257.65 136107.35 Q 87257.65 135471.8 87119.9 135044.3 Q 86982.15 134616.8 86720.9 134355.55 Q 86459.65 134094.3 86074.9 133980.3 Q 85690.15 133866.3 85196.15 133866.3 Q 84408.6 133866.3 83729.35 134094.3 Q 83050.1 134322.3 82423.1 134645.3 L 81815.1 133344.75 Q 82518.1 132964.75 83382.6 132698.75 Q 84247.1 132432.75 85197.1 132432.75 Q 86166.1 132432.75 86873.85 132627.5 Q 87581.6 132822.25 88042.35 133245 Q 88503.1 133667.75 88731.1 134323.25 Q 88959.1 134978.75 88959.1 135909.75 L 88959.1 143053.75 L 87715.55 143053.75 L 87713.65 143052.8 Z M 84540.65 141845.35 Q 85119.2 141845.35 85613.2 141664.85 Q 86107.2 141484.35 86468.2 141118.6 Q 86829.2 140752.85 87033.45 140197.1 Q 87237.7 139641.35 87237.7 138891.8 L 87237.7 137950.35 L 85878.25 138017.8 Q 85023.25 138055.8 84443.75 138207.8 Q 83864.25 138359.8 83517.5 138630.55 Q 83170.75 138901.3 83018.75 139286.05 Q 82866.75 139670.8 82866.75 140154.35 Q 82866.75 141028.35 83327.5 141436.85 Q 83788.25 141845.35 84539.7 141845.35 L 84540.65 141845.35 Z M 96592.4 143052.8 L 96592.4 136335.35 Q 96592.4 135100.35 96093.65 134482.85 Q 95594.9 133865.35 94530.9 133865.35 Q 93760.45 133865.35 93237.95 134112.35 Q 92715.45 134359.35 92397.2 134843.85 Q 92078.95 135328.35 91941.2 136031.35 Q 91803.45 136734.35 91803.45 137646.35 L 91803.45 143052.8 L 90074.45 143052.8 L 90074.45 132621.8 L 91480.45 132621.8 L 91727.45 134027.8 L 91822.45 134027.8 Q 92060.9 133618.35 92388.65 133319.1 Q 92716.4 133019.85 93105.9 132820.35 Q 93495.4 132620.85 93932.4 132525.85 Q 94369.4 132430.85 94825.4 132430.85 Q 96564.85 132430.85 97443.6 133338.1 Q 98322.35 134245.35 98322.35 136240.35 L 98322.35 143052.8 L 96593.35 143052.8 L 96592.4 143052.8 Z M 108296.05 130521.35 Q 107278.6 130521.35 106452.1 130906.1 Q 105625.6 131290.85 105041.35 132012.85 Q 104457.1 132734.85 104138.85 133770.35 Q 103820.6 134805.85 103820.6 136106.4 Q 103820.6 137446.85 104100.85 138487.1 Q 104381.1 139527.35 104941.6 140239.85 Q 105502.1 140952.35 106338.1 141322.85 Q 107174.1 141693.35 108295.1 141693.35 Q 109139.65 141693.35 109899.65 141527.1 Q 110659.65 141360.85 111400.65 141141.4 L 111400.65 142680.4 Q 111031.1 142823.85 110660.6 142933.1 Q 110290.1 143042.35 109886.35 143109.8 Q 109482.6 143177.25 109021.85 143210.5 Q 108561.1 143243.75 107999.65 143243.75 Q 106441.65 143243.75 105301.65 142730.75 Q 104161.65 142217.75 103415.9 141277.25 Q 102670.15 140336.75 102309.15 139016.25 Q 101948.15 137695.75 101948.15 136089.3 Q 101948.15 134512.3 102361.4 133201.3 Q 102774.65 131890.3 103577.4 130949.8 Q 104380.15 130009.3 105567.65 129486.8 Q 106755.15 128964.3 108294.15 128964.3 Q 109320.15 128964.3 110251.15 129173.3 Q 111182.15 129382.3 111931.7 129781.3 L 111190.7 131263.3 Q 110593.15 130959.3 109890.15 130740.8 Q 109187.15 130522.3 108294.15 130522.3 L 108296.05 130521.35 Z M 117972.85 143052.8 L 117620.4 141608.8 L 117544.4 141608.8 Q 117231.85 142035.35 116918.35 142344.1 Q 116604.85 142652.85 116234.35 142852.35 Q 115863.85 143051.85 115407.85 143146.85 Q 114951.85 143241.85 114352.4 143241.85 Q 113697.85 143241.85 113146.85 143056.6 Q 112595.85 142871.35 112192.1 142486.6 Q 111788.35 142101.85 111560.35 141517.6 Q 111332.35 140933.35 111332.35 140135.35 Q 111332.35 138577.35 112429.6 137741.35 Q 113526.85 136905.35 115768.85 136829.35 L 117516.85 136763.8 L 117516.85 136107.35 Q 117516.85 135471.8 117379.1 135044.3 Q 117241.35 134616.8 116980.1 134355.55 Q 116718.85 134094.3 116334.1 133980.3 Q 115949.35 133866.3 115455.35 133866.3 Q 114667.8 133866.3 113988.55 134094.3 Q 113309.3 134322.3 112682.3 134645.3 L 112074.3 133344.75 Q 112777.3 132964.75 113641.8 132698.75 Q 114506.3 132432.75 115456.3 132432.75 Q 116425.3 132432.75 117133.05 132627.5 Q 117840.8 132822.25 118301.55 133245 Q 118762.3 133667.75 118990.3 134323.25 Q 119218.3 134978.75 119218.3 135909.75 L 119218.3 143053.75 L 117974.75 143053.75 L 117972.85 143052.8 Z M 114799.85 141845.35 Q 115378.4 141845.35 115872.4 141664.85 Q 116366.4 141484.35 116727.4 141118.6 Q 117088.4 140752.85 117292.65 140197.1 Q 117496.9 139641.35 117496.9 138891.8 L 117496.9 137950.35 L 116137.45 138017.8 Q 115282.45 138055.8 114702.95 138207.8 Q 114123.45 138359.8 113776.7 138630.55 Q 113429.95 138901.3 113277.95 139286.05 Q 113125.95 139670.8 113125.95 140154.35 Q 113125.95 141028.35 113586.7 141436.85 Q 114047.45 141845.35 114798.9 141845.35 L 114799.85 141845.35 Z M 124848.05 132431.8 Q 125122.6 132431.8 125464.6 132455.55 Q 125806.6 132479.3 126053.6 132527.75 L 125825.6 134123.75 Q 125559.6 134075.3 125279.35 134042.05 Q 124999.1 134008.8 124752.1 134008.8 Q 124152.65 134008.8 123658.65 134251.05 Q 123164.65 134493.3 122808.4 134944.55 Q 122452.15 135395.8 122257.4 136027.55 Q 122062.65 136659.3 122062.65 137429.75 L 122062.65 143053.75 L 120333.65 143053.75 L 120333.65 132622.75 L 121739.65 132622.75 L 121948.65 134531.3 L 122024.65 134531.3 Q 122263.1 134123.75 122533.85 133743.75 Q 122804.6 133363.75 123141.85 133074 Q 123479.1 132784.25 123897.1 132608.5 Q 124315.1 132432.75 124847.1 132432.75 L 124848.05 132431.8 Z M 127798 143052.8 L 126069 143052.8 L 126069 128270.8 L 127798 128270.8 L 127798 143052.8 Z M 137542.05 137817.35 Q 137542.05 139119.8 137223.8 140131.55 Q 136905.55 141143.3 136311.8 141832.05 Q 135718.05 142520.8 134872.55 142881.8 Q 134027.05 143242.8 132971.6 143242.8 Q 131994.05 143242.8 131167.55 142881.8 Q 130341.05 142520.8 129737.8 141832.05 Q 129134.55 141143.3 128797.3 140131.55 Q 128460.05 139119.8 128460.05 137817.35 Q 128460.05 136525.35 128778.3 135523.1 Q 129096.55 134520.85 129685.55 133832.1 Q 130274.55 133143.35 131124.8 132787.1 Q 131975.05 132430.85 133028.6 132430.85 Q 134008.05 132430.85 134834.55 132787.1 Q 135661.05 133143.35 136264.3 133832.1 Q 136867.55 134520.85 137204.8 135523.1 Q 137542.05 136525.35 137542.05 137817.35  Z M 130246.05 137817.35 Q 130246.05 139803.8 130896.8 140806.05 Q 131547.55 141808.3 133010.55 141808.3 Q 134473.55 141808.3 135114.8 140806.05 Q 135756.05 139803.8 135756.05 137817.35 Q 135756.05 135832.8 135105.3 134849.55 Q 134454.55 133866.3 132991.55 133866.3 Q 131528.55 133866.3 130887.3 134849.55 Q 130246.05 135832.8 130246.05 137817.35  Z M 144497.05 140192.35 Q 144497.05 140952.35 144221.55 141522.35 Q 143946.05 142092.35 143428.3 142477.1 Q 142910.55 142861.85 142179.05 143051.85 Q 141447.55 143241.85 140535.55 143241.85 Q 139501 143241.85 138760 143075.6 Q 138019 142909.35 137457.55 142586.35 L 137457.55 141009.35 Q 137753 141161.35 138114 141308.6 Q 138475 141455.85 138874 141569.85 Q 139273 141683.85 139695.75 141755.1 Q 140118.5 141826.35 140536.5 141826.35 Q 141154.95 141826.35 141587.2 141721.85 Q 142019.45 141617.35 142290.2 141422.6 Q 142560.95 141227.85 142684.45 140947.6 Q 142807.95 140667.35 142807.95 140325.35 Q 142807.95 140031.8 142712.95 139794.3 Q 142617.95 139556.8 142366.2 139324.05 Q 142114.45 139091.3 141677.45 138853.8 Q 141240.45 138616.3 140556.45 138322.75 Q 139872.45 138027.3 139326.2 137742.3 Q 138779.95 137457.3 138399.95 137105.8 Q 138019.95 136754.3 137815.7 136293.55 Q 137611.45 135832.8 137611.45 135195.35 Q 137611.45 134530.35 137872.7 134012.6 Q 138133.95 133494.85 138608.95 133143.35 Q 139083.95 132791.85 139748.95 132611.35 Q 140413.95 132430.85 141230.95 132430.85 Q 142151.5 132430.85 142916.25 132630.35 Q 143681 132829.85 144365 133152.85 L 143765.55 134548.4 Q 143149 134273.85 142498.25 134069.6 Q 141847.5 133865.35 141173.95 133865.35 Q 140204.95 133865.35 139739.45 134183.6 Q 139273.95 134501.85 139273.95 135090.85 Q 139273.95 135422.4 139383.2 135669.4 Q 139492.45 135916.4 139758.45 136134.9 Q 140024.45 136353.4 140470.95 136576.65 Q 140917.45 136799.9 141582.45 137074.45 Q 142266.45 137359.45 142803.2 137644.45 Q 143339.95 137929.45 143719.95 138285.7 Q 144099.95 138641.95 144299.45 139097.95 Q 144498.95 139553.95 144498.95 140189.5 L 144497.05 140192.35 Z M 156301.85 143052.8 L 154781.85 138748.35 L 149603.4 138748.35 L 148064.4 143052.8 L 146278.4 143052.8 L 151380.85 129106.8 L 152995.85 129106.8 L 158106.85 143052.8 L 156301.85 143052.8 Z M 154220.4 137181.8 L 152814.4 133153.8 Q 152757.4 132982.8 152676.65 132735.8 Q 152595.9 132488.8 152510.4 132203.8 Q 152424.9 131918.8 152339.4 131610.05 Q 152253.9 131301.3 152177.9 131007.75 Q 152110.45 131301.3 152024.95 131614.8 Q 151939.45 131928.3 151853.95 132218.05 Q 151768.45 132507.8 151687.7 132750.05 Q 151606.95 132992.3 151549.95 133154.75 L 150171.5 137182.75 L 154218.5 137182.75 L 154220.4 137181.8 Z M 162224.05 132431.8 Q 162498.6 132431.8 162840.6 132455.55 Q 163182.6 132479.3 163429.6 132527.75 L 163201.6 134123.75 Q 162935.6 134075.3 162655.35 134042.05 Q 162375.1 134008.8 162128.1 134008.8 Q 161528.65 134008.8 161034.65 134251.05 Q 160540.65 134493.3 160184.4 134944.55 Q 159828.15 135395.8 159633.4 136027.55 Q 159438.65 136659.3 159438.65 137429.75 L 159438.65 143053.75 L 157709.65 143053.75 L 157709.65 132622.75 L 159115.65 132622.75 L 159324.65 134531.3 L 159400.65 134531.3 Q 159639.1 134123.75 159909.85 133743.75 Q 160180.6 133363.75 160517.85 133074 Q 160855.1 132784.25 161273.1 132608.5 Q 161691.1 132432.75 162223.1 132432.75 L 162224.05 132431.8 Z M 167435 143242.8 Q 166476.45 143242.8 165640.45 142943.55 Q 164804.45 142644.3 164186.95 141993.55 Q 163569.45 141342.8 163217.95 140331.05 Q 162866.45 139319.3 162866.45 137894.3 Q 162866.45 136403.75 163227.45 135363.5 Q 163588.45 134323.25 164220.2 133672.5 Q 164851.95 133021.75 165697.45 132727.25 Q 166542.95 132432.75 167511.95 132432.75 Q 168252.95 132432.75 168960.7 132594.25 Q 169668.45 132755.75 170143.45 132992.3 L 169630.45 134455.3 Q 169411 134360.3 169145 134270.05 Q 168879 134179.8 168594 134108.55 Q 168309 134037.3 168033.5 133994.55 Q 167758 133951.8 167511 133951.8 Q 166020.45 133951.8 165336.45 134906.55 Q 164652.45 135861.3 164652.45 137875.3 Q 164652.45 139880.75 165341.2 140807 Q 166029.95 141733.25 167435.95 141733.25 Q 168206.4 141733.25 168828.65 141557.5 Q 169450.9 141381.75 169963.9 141143.3 L 169963.9 142682.3 Q 169450.9 142958.75 168866.65 143101.25 Q 168282.4 143243.75 167435.95 143243.75 L 167435 143242.8 Z M 172086 143052.8 L 170357 143052.8 L 170357 132621.8 L 172086 132621.8 L 172086 143052.8 Z M 170224 129799.35 Q 170224 129229.35 170513.75 128972.85 Q 170803.5 128716.35 171230.05 128716.35 Q 171439.05 128716.35 171624.3 128778.1 Q 171809.55 128839.85 171947.3 128972.85 Q 172085.05 129105.85 172165.8 129310.1 Q 172246.55 129514.35 172246.55 129799.35 Q 172246.55 130350.35 171947.3 130621.1 Q 171648.05 130891.85 171230.05 130891.85 Q 170803.5 130891.85 170513.75 130625.85 Q 170224 130359.85 170224 129798.4 L 170224 129799.35 Z M 175055.6 143052.8 L 173326.6 143052.8 L 173326.6 128270.8 L 175055.6 128270.8 L 175055.6 143052.8 Z M 182177.65 143052.8 L 181825.2 141608.8 L 181749.2 141608.8 Q 181436.65 142035.35 181123.15 142344.1 Q 180809.65 142652.85 180439.15 142852.35 Q 180068.65 143051.85 179612.65 143146.85 Q 179156.65 143241.85 178557.2 143241.85 Q 177902.65 143241.85 177351.65 143056.6 Q 176800.65 142871.35 176396.9 142486.6 Q 175993.15 142101.85 175765.15 141517.6 Q 175537.15 140933.35 175537.15 140135.35 Q 175537.15 138577.35 176634.4 137741.35 Q 177731.65 136905.35 179973.65 136829.35 L 181721.65 136763.8 L 181721.65 136107.35 Q 181721.65 135471.8 181583.9 135044.3 Q 181446.15 134616.8 181184.9 134355.55 Q 180923.65 134094.3 180538.9 133980.3 Q 180154.15 133866.3 179660.15 133866.3 Q 178872.6 133866.3 178193.35 134094.3 Q 177514.1 134322.3 176887.1 134645.3 L 176279.1 133344.75 Q 176982.1 132964.75 177846.6 132698.75 Q 178711.1 132432.75 179661.1 132432.75 Q 180630.1 132432.75 181337.85 132627.5 Q 182045.6 132822.25 182506.35 133245 Q 182967.1 133667.75 183195.1 134323.25 Q 183423.1 134978.75 183423.1 135909.75 L 183423.1 143053.75 L 182179.55 143053.75 L 182177.65 143052.8 Z M 179004.65 141845.35 Q 179583.2 141845.35 180077.2 141664.85 Q 180571.2 141484.35 180932.2 141118.6 Q 181293.2 140752.85 181497.45 140197.1 Q 181701.7 139641.35 181701.7 138891.8 L 181701.7 137950.35 L 180342.25 138017.8 Q 179487.25 138055.8 178907.75 138207.8 Q 178328.25 138359.8 177981.5 138630.55 Q 177634.75 138901.3 177482.75 139286.05 Q 177330.75 139670.8 177330.75 140154.35 Q 177330.75 141028.35 177791.5 141436.85 Q 178252.25 141845.35 179003.7 141845.35 L 179004.65 141845.35 Z " fill-rule="nonzero" style="fill:#d8d8d8;;fill-opacity:1;"/>
</svg>