<svg version="1.1" x="0" y="0" width="100%" height="100%" viewBox="0 0 278528 33740.8" xmlns="http://www.w3.org/2000/svg">
  <path d="M 8120 23282.8 Q 8336 23282.8 8606 23258.8 Q 8876 23234.8 9128 23198.8 Q 9380 23162.8 9590 23114.8 Q 9800 23066.8 9909.2 23032 L 9909.2 24688 Q 9752 24760 9512 24832 Q 9272 24904 8984 24958 Q 8696 25012 8384 25042 Q 8072 25072 7773.2 25072 Q 7029.2 25072 6393.2 24880 Q 5757.2 24688 5295.2 24220 Q 4833.2 23752 4569.2 22954 Q 4305.2 22156 4305.2 20945.2 L 4305.2 13300 L 2446.4 13300 L 2446.4 12329.2 L 4305.2 11393.2 L 5241.2 8633.2 L 6502.4 8633.2 L 6502.4 11657.2 L 9814.4 11657.2 L 9814.4 13300 L 6502.4 13300 L 6502.4 20945.2 Q 6502.4 22108 6880.4 22696 Q 7258.4 23284 8122.4 23284 L 8120 23282.8 Z M 18915.6 24832 L 18590.4 23066.8 L 18470.4 23066.8 Q 18171.6 23584 17757.6 23962 Q 17343.6 24340 16851.6 24586 Q 16359.6 24832 15807.6 24952 Q 15255.6 25072 14679.6 25072 Q 13588.8 25072 12760.8 24796 Q 11932.8 24520 11380.8 23932 Q 10828.8 23344 10546.8 22432 Q 10264.8 21520 10264.8 20258.8 L 10264.8 11656 L 12448.8 11656 L 12448.8 20138.8 Q 12448.8 21698.8 13084.8 22478.8 Q 13720.8 23258.8 15054 23258.8 Q 16024.8 23258.8 16684.8 22946.8 Q 17344.8 22634.8 17746.8 22028.8 Q 18148.8 21422.8 18322.8 20534.8 Q 18496.8 19646.8 18496.8 18494.8 L 18496.8 11654.8 L 20680.8 11654.8 L 20680.8 24830.8 L 18918 24830.8 L 18915.6 24832 Z M 30658 21218.8 Q 30658 22178.8 30310 22898.8 Q 29962 23618.8 29308 24104.8 Q 28654 24590.8 27730 24830.8 Q 26806 25070.8 25654 25070.8 Q 24347.2 25070.8 23411.2 24860.8 Q 22475.2 24650.8 21766 24242.8 L 21766 22250.8 Q 22139.2 22442.8 22595.2 22628.8 Q 23051.2 22814.8 23555.2 22958.8 Q 24059.2 23102.8 24593.2 23192.8 Q 25127.2 23282.8 25655.2 23282.8 Q 26436.4 23282.8 26982.4 23150.8 Q 27528.4 23018.8 27870.4 22772.8 Q 28212.4 22526.8 28368.4 22172.8 Q 28524.4 21818.8 28524.4 21386.8 Q 28524.4 21016 28404.4 20716 Q 28284.4 20416 27966.4 20122 Q 27648.4 19828 27096.4 19528 Q 26544.4 19228 25680.4 18857.2 Q 24816.4 18484 24126.4 18124 Q 23436.4 17764 22956.4 17320 Q 22476.4 16876 22218.4 16294 Q 21960.4 15712 21960.4 14906.8 Q 21960.4 14066.8 22290.4 13412.8 Q 22620.4 12758.8 23220.4 12314.8 Q 23820.4 11870.8 24660.4 11642.8 Q 25500.4 11414.8 26532.4 11414.8 Q 27695.2 11414.8 28661.2 11666.8 Q 29627.2 11918.8 30491.2 12326.8 L 29734 14089.6 Q 28955.2 13742.8 28133.2 13484.8 Q 27311.2 13226.8 26460.4 13226.8 Q 25236.4 13226.8 24648.4 13628.8 Q 24060.4 14030.8 24060.4 14774.8 Q 24060.4 15193.6 24198.4 15505.6 Q 24336.4 15817.6 24672.4 16093.6 Q 25008.4 16369.6 25572.4 16651.6 Q 26136.4 16933.6 26976.4 17280.4 Q 27840.4 17640.4 28518.4 18000.4 Q 29196.4 18360.4 29676.4 18810.4 Q 30156.4 19260.4 30408.4 19836.4 Q 30660.4 20412.4 30660.4 21215.2 L 30658 21218.8 Z M 51814.8 24832 L 51814.8 16346.8 Q 51814.8 14786.8 51214.8 14006.8 Q 50614.8 13226.8 49353.6 13226.8 Q 48478.8 13226.8 47866.8 13508.8 Q 47254.8 13790.8 46864.8 14336.8 Q 46474.8 14882.8 46294.8 15692.8 Q 46114.8 16502.8 46114.8 17558.8 L 46114.8 24830.8 L 43920 24830.8 L 43920 16345.6 Q 43920 14785.6 43326 14005.6 Q 42732 13225.6 41473.2 13225.6 Q 40548 13225.6 39924 13537.6 Q 39300 13849.6 38922 14461.6 Q 38544 15073.6 38382 15961.6 Q 38220 16849.6 38220 18001.6 L 38220 24830.8 L 36036 24830.8 L 36036 11654.8 L 37812 11654.8 L 38124 13430.8 L 38244 13430.8 Q 38532 12913.6 38928 12535.6 Q 39324 12157.6 39798 11905.6 Q 40272 11653.6 40806 11533.6 Q 41340 11413.6 41892 11413.6 Q 43332 11413.6 44286 11941.6 Q 45240 12469.6 45696 13597.6 L 45792 13597.6 Q 46104 13032.4 46542 12624.4 Q 46980 12216.4 47502 11946.4 Q 48024 11676.4 48600 11544.4 Q 49176 11412.4 49776 11412.4 Q 51874.8 11412.4 52936.8 12558.4 Q 53998.8 13704.4 53998.8 16224.4 L 53998.8 24829.6 L 51814.8 24829.6 L 51814.8 24832 Z M 61158.4 25072 Q 59838.4 25072 58746.4 24628 Q 57654.4 24184 56868.4 23332 Q 56082.4 22480 55650.4 21220 Q 55218.4 19960 55218.4 18338.8 Q 55218.4 16706.8 55614.4 15422.8 Q 56010.4 14138.8 56730.4 13244.8 Q 57450.4 12350.8 58452.4 11882.8 Q 59454.4 11414.8 60667.6 11414.8 Q 61854.4 11414.8 62802.4 11840.8 Q 63750.4 12266.8 64410.4 13040.8 Q 65070.4 13814.8 65424.4 14900.8 Q 65778.4 15986.8 65778.4 17306.8 L 65778.4 18664 L 57474.4 18664 Q 57533.2 20978.8 58451.2 22070.8 Q 59369.2 23162.8 61180 23162.8 Q 61793.2 23162.8 62315.2 23102.8 Q 62837.2 23042.8 63323.2 22928.8 Q 63809.2 22814.8 64265.2 22640.8 Q 64721.2 22466.8 65188 22250.8 L 65188 24194.8 Q 64708 24424 64246 24592 Q 63784 24760 63298 24868 Q 62812 24976 62290 25024 Q 61768 25072 61154.8 25072 L 61158.4 25072 Z M 60619.6 13226.8 Q 59251.6 13226.8 58453.6 14162.8 Q 57655.6 15098.8 57524.8 16888 L 63428.8 16888 Q 63428.8 16072 63266.8 15394 Q 63104.8 14716 62762.8 14236 Q 62420.8 13756 61892.8 13492 Q 61364.8 13228 60620.8 13228 L 60619.6 13226.8 Z M 70942.4 23282.8 Q 71158.4 23282.8 71428.4 23258.8 Q 71698.4 23234.8 71950.4 23198.8 Q 72202.4 23162.8 72412.4 23114.8 Q 72622.4 23066.8 72731.6 23032 L 72731.6 24688 Q 72574.4 24760 72334.4 24832 Q 72094.4 24904 71806.4 24958 Q 71518.4 25012 71206.4 25042 Q 70894.4 25072 70595.6 25072 Q 69851.6 25072 69215.6 24880 Q 68579.6 24688 68117.6 24220 Q 67655.6 23752 67391.6 22954 Q 67127.6 22156 67127.6 20945.2 L 67127.6 13300 L 65268.8 13300 L 65268.8 12329.2 L 67127.6 11393.2 L 68063.6 8633.2 L 69324.8 8633.2 L 69324.8 11657.2 L 72636.8 11657.2 L 72636.8 13300 L 69324.8 13300 L 69324.8 20945.2 Q 69324.8 22108 69702.8 22696 Q 70080.8 23284 70944.8 23284 L 70942.4 23282.8 Z M 80634 24832 L 80188.8 23008 L 80092.8 23008 Q 79698 23546.8 79302 23936.8 Q 78906 24326.8 78438 24578.8 Q 77970 24830.8 77394 24950.8 Q 76818 25070.8 76060.8 25070.8 Q 75234 25070.8 74538 24836.8 Q 73842 24602.8 73332 24116.8 Q 72822 23630.8 72534 22892.8 Q 72246 22154.8 72246 21146.8 Q 72246 19178.8 73632 18122.8 Q 75018 17066.8 77850 16970.8 L 80058 16888 L 80058 16058.8 Q 80058 15256 79884 14716 Q 79710 14176 79380 13846 Q 79050 13516 78564 13372 Q 78078 13228 77454 13228 Q 76459.2 13228 75601.2 13516 Q 74743.2 13804 73951.2 14212 L 73183.2 12569.2 Q 74071.2 12089.2 75163.2 11753.2 Q 76255.2 11417.2 77455.2 11417.2 Q 78679.2 11417.2 79573.2 11663.2 Q 80467.2 11909.2 81049.2 12443.2 Q 81631.2 12977.2 81919.2 13805.2 Q 82207.2 14633.2 82207.2 15809.2 L 82207.2 24833.2 L 80636.4 24833.2 L 80634 24832 Z M 76626 23306.8 Q 77356.8 23306.8 77980.8 23078.8 Q 78604.8 22850.8 79060.8 22388.8 Q 79516.8 21926.8 79774.8 21224.8 Q 80032.8 20522.8 80032.8 19576 L 80032.8 18386.8 L 78315.6 18472 Q 77235.6 18520 76503.6 18712 Q 75771.6 18904 75333.6 19246 Q 74895.6 19588 74703.6 20074 Q 74511.6 20560 74511.6 21170.8 Q 74511.6 22274.8 75093.6 22790.8 Q 75675.6 23306.8 76624.8 23306.8 L 76626 23306.8 Z M 91995.6 21218.8 Q 91995.6 22178.8 91647.6 22898.8 Q 91299.6 23618.8 90645.6 24104.8 Q 89991.6 24590.8 89067.6 24830.8 Q 88143.6 25070.8 86991.6 25070.8 Q 85684.8 25070.8 84748.8 24860.8 Q 83812.8 24650.8 83103.6 24242.8 L 83103.6 22250.8 Q 83476.8 22442.8 83932.8 22628.8 Q 84388.8 22814.8 84892.8 22958.8 Q 85396.8 23102.8 85930.8 23192.8 Q 86464.8 23282.8 86992.8 23282.8 Q 87774 23282.8 88320 23150.8 Q 88866 23018.8 89208 22772.8 Q 89550 22526.8 89706 22172.8 Q 89862 21818.8 89862 21386.8 Q 89862 21016 89742 20716 Q 89622 20416 89304 20122 Q 88986 19828 88434 19528 Q 87882 19228 87018 18857.2 Q 86154 18484 85464 18124 Q 84774 17764 84294 17320 Q 83814 16876 83556 16294 Q 83298 15712 83298 14906.8 Q 83298 14066.8 83628 13412.8 Q 83958 12758.8 84558 12314.8 Q 85158 11870.8 85998 11642.8 Q 86838 11414.8 87870 11414.8 Q 89032.8 11414.8 89998.8 11666.8 Q 90964.8 11918.8 91828.8 12326.8 L 91071.6 14089.6 Q 90292.8 13742.8 89470.8 13484.8 Q 88648.8 13226.8 87798 13226.8 Q 86574 13226.8 85986 13628.8 Q 85398 14030.8 85398 14774.8 Q 85398 15193.6 85536 15505.6 Q 85674 15817.6 86010 16093.6 Q 86346 16369.6 86910 16651.6 Q 87474 16933.6 88314 17280.4 Q 89178 17640.4 89856 18000.4 Q 90534 18360.4 91014 18810.4 Q 91494 19260.4 91746 19836.4 Q 91998 20412.4 91998 21215.2 L 91995.6 21218.8 Z M 105507.2 23066.8 L 105411.2 23066.8 Q 105147.2 23474.8 104793.2 23840.8 Q 104439.2 24206.8 103977.2 24482.8 Q 103515.2 24758.8 102939.2 24914.8 Q 102363.2 25070.8 101643.2 25070.8 Q 100528.4 25070.8 99604.4 24638.8 Q 98680.4 24206.8 98020.4 23348.8 Q 97360.4 22490.8 97000.4 21218.8 Q 96640.4 19946.8 96640.4 18266.8 Q 96640.4 16576 97000.4 15298 Q 97360.4 14020 98020.4 13156 Q 98680.4 12292 99604.4 11854 Q 100528.4 11416 101643.2 11416 Q 102352.4 11416 102928.4 11572 Q 103504.4 11728 103966.4 11992 Q 104428.4 12256 104788.4 12604 Q 105148.4 12952 105412.4 13336 L 105556.4 13336 Q 105521.6 12928 105484.4 12554.8 Q 105460.4 12242.8 105436.4 11912.8 Q 105412.4 11582.8 105412.4 11390.8 L 105412.4 6158.8 L 107596.4 6158.8 L 107596.4 24830.8 L 105833.6 24830.8 L 105508.4 23065.6 L 105507.2 23066.8 Z M 102064.4 23258.8 Q 102976.4 23258.8 103606.4 22982.8 Q 104236.4 22706.8 104626.4 22142.8 Q 105016.4 21578.8 105202.4 20732.8 Q 105388.4 19886.8 105412.4 18758.8 L 105412.4 18265.6 Q 105412.4 17054.8 105250.4 16112.8 Q 105088.4 15170.8 104698.4 14528.8 Q 104308.4 13886.8 103660.4 13556.8 Q 103012.4 13226.8 102041.6 13226.8 Q 100420.4 13226.8 99658.4 14534.8 Q 98896.4 15842.8 98896.4 18290.8 Q 98896.4 20800 99658.4 22030 Q 100420.4 23260 102065.6 23260 L 102064.4 23258.8 Z M 114969.6 25072 Q 113649.6 25072 112557.6 24628 Q 111465.6 24184 110679.6 23332 Q 109893.6 22480 109461.6 21220 Q 109029.6 19960 109029.6 18338.8 Q 109029.6 16706.8 109425.6 15422.8 Q 109821.6 14138.8 110541.6 13244.8 Q 111261.6 12350.8 112263.6 11882.8 Q 113265.6 11414.8 114478.8 11414.8 Q 115665.6 11414.8 116613.6 11840.8 Q 117561.6 12266.8 118221.6 13040.8 Q 118881.6 13814.8 119235.6 14900.8 Q 119589.6 15986.8 119589.6 17306.8 L 119589.6 18664 L 111285.6 18664 Q 111344.4 20978.8 112262.4 22070.8 Q 113180.4 23162.8 114991.2 23162.8 Q 115604.4 23162.8 116126.4 23102.8 Q 116648.4 23042.8 117134.4 22928.8 Q 117620.4 22814.8 118076.4 22640.8 Q 118532.4 22466.8 118999.2 22250.8 L 118999.2 24194.8 Q 118519.2 24424 118057.2 24592 Q 117595.2 24760 117109.2 24868 Q 116623.2 24976 116101.2 25024 Q 115579.2 25072 114966 25072 L 114969.6 25072 Z M 114430.8 13226.8 Q 113062.8 13226.8 112264.8 14162.8 Q 111466.8 15098.8 111336 16888 L 117240 16888 Q 117240 16072 117078 15394 Q 116916 14716 116574 14236 Q 116232 13756 115704 13492 Q 115176 13228 114432 13228 L 114430.8 13226.8 Z M 132448.4 24832 L 132003.2 23008 L 131907.2 23008 Q 131512.4 23546.8 131116.4 23936.8 Q 130720.4 24326.8 130252.4 24578.8 Q 129784.4 24830.8 129208.4 24950.8 Q 128632.4 25070.8 127875.2 25070.8 Q 127048.4 25070.8 126352.4 24836.8 Q 125656.4 24602.8 125146.4 24116.8 Q 124636.4 23630.8 124348.4 22892.8 Q 124060.4 22154.8 124060.4 21146.8 Q 124060.4 19178.8 125446.4 18122.8 Q 126832.4 17066.8 129664.4 16970.8 L 131872.4 16888 L 131872.4 16058.8 Q 131872.4 15256 131698.4 14716 Q 131524.4 14176 131194.4 13846 Q 130864.4 13516 130378.4 13372 Q 129892.4 13228 129268.4 13228 Q 128273.6 13228 127415.6 13516 Q 126557.6 13804 125765.6 14212 L 124997.6 12569.2 Q 125885.6 12089.2 126977.6 11753.2 Q 128069.6 11417.2 129269.6 11417.2 Q 130493.6 11417.2 131387.6 11663.2 Q 132281.6 11909.2 132863.6 12443.2 Q 133445.6 12977.2 133733.6 13805.2 Q 134021.6 14633.2 134021.6 15809.2 L 134021.6 24833.2 L 132450.8 24833.2 L 132448.4 24832 Z M 128440.4 23306.8 Q 129171.2 23306.8 129795.2 23078.8 Q 130419.2 22850.8 130875.2 22388.8 Q 131331.2 21926.8 131589.2 21224.8 Q 131847.2 20522.8 131847.2 19576 L 131847.2 18386.8 L 130130 18472 Q 129050 18520 128318 18712 Q 127586 18904 127148 19246 Q 126710 19588 126518 20074 Q 126326 20560 126326 21170.8 Q 126326 22274.8 126908 22790.8 Q 127490 23306.8 128439.2 23306.8 L 128440.4 23306.8 Z M 141876.8 25072 Q 141170 25072 140594 24916 Q 140018 24760 139556 24502 Q 139094 24244 138740 23896 Q 138386 23548 138108.8 23164 L 137964.8 23164 Q 138002 23572 138036.8 23945.2 Q 138060.8 24257.2 138084.8 24587.2 Q 138108.8 24917.2 138108.8 25109.2 L 138108.8 30736 L 135924.8 30736 L 135924.8 11656 L 137700.8 11656 L 138012.8 13432 L 138108.8 13432 Q 138386 13010.8 138734 12644.8 Q 139082 12278.8 139544 12008.8 Q 140006 11738.8 140582 11576.8 Q 141158 11414.8 141878 11414.8 Q 143006 11414.8 143930 11846.8 Q 144854 12278.8 145508 13136.8 Q 146162 13994.8 146522 15266.8 Q 146882 16538.8 146882 18218.8 Q 146882 19912 146522 21190 Q 146162 22468 145508 23332 Q 144854 24196 143930 24634 Q 143006 25072 141878 25072 L 141876.8 25072 Z M 141458 13226.8 Q 140546 13226.8 139916 13502.8 Q 139286 13778.8 138896 14342.8 Q 138506 14906.8 138320 15746.8 Q 138134 16586.8 138110 17728 L 138110 18218.8 Q 138110 19432 138272 20374 Q 138434 21316 138824 21958 Q 139214 22600 139862 22930 Q 140510 23260 141483.2 23260 Q 143102 23260 143864 21952 Q 144626 20644 144626 18196 Q 144626 15700 143864 14464 Q 143102 13228 141459.2 13228 L 141458 13226.8 Z M 154016.4 11416 Q 154363.2 11416 154795.2 11446 Q 155227.2 11476 155539.2 11537.2 L 155251.2 13553.2 Q 154915.2 13492 154561.2 13450 Q 154207.2 13408 153895.2 13408 Q 153138 13408 152514 13714 Q 151890 14020 151440 14590 Q 150990 15160 150744 15958 Q 150498 16756 150498 17729.2 L 150498 24833.2 L 148314 24833.2 L 148314 11657.2 L 150090 11657.2 L 150354 14068 L 150450 14068 Q 150751.2 13553.2 151093.2 13073.2 Q 151435.2 12593.2 151861.2 12227.2 Q 152287.2 11861.2 152815.2 11639.2 Q 153343.2 11417.2 154015.2 11417.2 L 154016.4 11416 Z M 161305.6 25072 Q 159985.6 25072 158893.6 24628 Q 157801.6 24184 157015.6 23332 Q 156229.6 22480 155797.6 21220 Q 155365.6 19960 155365.6 18338.8 Q 155365.6 16706.8 155761.6 15422.8 Q 156157.6 14138.8 156877.6 13244.8 Q 157597.6 12350.8 158599.6 11882.8 Q 159601.6 11414.8 160814.8 11414.8 Q 162001.6 11414.8 162949.6 11840.8 Q 163897.6 12266.8 164557.6 13040.8 Q 165217.6 13814.8 165571.6 14900.8 Q 165925.6 15986.8 165925.6 17306.8 L 165925.6 18664 L 157621.6 18664 Q 157680.4 20978.8 158598.4 22070.8 Q 159516.4 23162.8 161327.2 23162.8 Q 161940.4 23162.8 162462.4 23102.8 Q 162984.4 23042.8 163470.4 22928.8 Q 163956.4 22814.8 164412.4 22640.8 Q 164868.4 22466.8 165335.2 22250.8 L 165335.2 24194.8 Q 164855.2 24424 164393.2 24592 Q 163931.2 24760 163445.2 24868 Q 162959.2 24976 162437.2 25024 Q 161915.2 25072 161302 25072 L 161305.6 25072 Z M 160766.8 13226.8 Q 159398.8 13226.8 158600.8 14162.8 Q 157802.8 15098.8 157672 16888 L 163576 16888 Q 163576 16072 163414 15394 Q 163252 14716 162910 14236 Q 162568 13756 162040 13492 Q 161512 13228 160768 13228 L 160766.8 13226.8 Z M 175337.6 24832 L 175337.6 16346.8 Q 175337.6 14786.8 174707.6 14006.8 Q 174077.6 13226.8 172733.6 13226.8 Q 171760.4 13226.8 171100.4 13538.8 Q 170440.4 13850.8 170038.4 14462.8 Q 169636.4 15074.8 169462.4 15962.8 Q 169288.4 16850.8 169288.4 18002.8 L 169288.4 24832 L 167104.4 24832 L 167104.4 11656 L 168880.4 11656 L 169192.4 13432 L 169312.4 13432 Q 169613.6 12914.8 170027.6 12536.8 Q 170441.6 12158.8 170933.6 11906.8 Q 171425.6 11654.8 171977.6 11534.8 Q 172529.6 11414.8 173105.6 11414.8 Q 175302.8 11414.8 176412.8 12560.8 Q 177522.8 13706.8 177522.8 16226.8 L 177522.8 24832 L 175338.8 24832 L 175337.6 24832 Z M 187632 23066.8 L 187536 23066.8 Q 187272 23474.8 186918 23840.8 Q 186564 24206.8 186102 24482.8 Q 185640 24758.8 185064 24914.8 Q 184488 25070.8 183768 25070.8 Q 182653.2 25070.8 181729.2 24638.8 Q 180805.2 24206.8 180145.2 23348.8 Q 179485.2 22490.8 179125.2 21218.8 Q 178765.2 19946.8 178765.2 18266.8 Q 178765.2 16576 179125.2 15298 Q 179485.2 14020 180145.2 13156 Q 180805.2 12292 181729.2 11854 Q 182653.2 11416 183768 11416 Q 184477.2 11416 185053.2 11572 Q 185629.2 11728 186091.2 11992 Q 186553.2 12256 186913.2 12604 Q 187273.2 12952 187537.2 13336 L 187681.2 13336 Q 187646.4 12928 187609.2 12554.8 Q 187585.2 12242.8 187561.2 11912.8 Q 187537.2 11582.8 187537.2 11390.8 L 187537.2 6158.8 L 189721.2 6158.8 L 189721.2 24830.8 L 187958.4 24830.8 L 187633.2 23065.6 L 187632 23066.8 Z M 184189.2 23258.8 Q 185101.2 23258.8 185731.2 22982.8 Q 186361.2 22706.8 186751.2 22142.8 Q 187141.2 21578.8 187327.2 20732.8 Q 187513.2 19886.8 187537.2 18758.8 L 187537.2 18265.6 Q 187537.2 17054.8 187375.2 16112.8 Q 187213.2 15170.8 186823.2 14528.8 Q 186433.2 13886.8 185785.2 13556.8 Q 185137.2 13226.8 184166.4 13226.8 Q 182545.2 13226.8 181783.2 14534.8 Q 181021.2 15842.8 181021.2 18290.8 Q 181021.2 20800 181783.2 22030 Q 182545.2 23260 184190.4 23260 L 184189.2 23258.8 Z M 194070.4 24832 L 191886.4 24832 L 191886.4 11656 L 194070.4 11656 L 194070.4 24832 Z M 191718.4 8090.8 Q 191718.4 7370.8 192084.4 7046.8 Q 192450.4 6722.8 192989.2 6722.8 Q 193253.2 6722.8 193487.2 6800.8 Q 193721.2 6878.8 193895.2 7046.8 Q 194069.2 7214.8 194171.2 7472.8 Q 194273.2 7730.8 194273.2 8090.8 Q 194273.2 8786.8 193895.2 9128.8 Q 193517.2 9470.8 192989.2 9470.8 Q 192450.4 9470.8 192084.4 9134.8 Q 191718.4 8798.8 191718.4 8089.6 L 191718.4 8090.8 Z M 203901.2 24832 L 195032 24832 L 195032 23330.8 L 201464 13298.8 L 195429.2 13298.8 L 195429.2 11656 L 203685.2 11656 L 203685.2 13408 L 197397.2 23186.8 L 203901.2 23186.8 L 203901.2 24832 Z M 212320.4 24832 L 211875.2 23008 L 211779.2 23008 Q 211384.4 23546.8 210988.4 23936.8 Q 210592.4 24326.8 210124.4 24578.8 Q 209656.4 24830.8 209080.4 24950.8 Q 208504.4 25070.8 207747.2 25070.8 Q 206920.4 25070.8 206224.4 24836.8 Q 205528.4 24602.8 205018.4 24116.8 Q 204508.4 23630.8 204220.4 22892.8 Q 203932.4 22154.8 203932.4 21146.8 Q 203932.4 19178.8 205318.4 18122.8 Q 206704.4 17066.8 209536.4 16970.8 L 211744.4 16888 L 211744.4 16058.8 Q 211744.4 15256 211570.4 14716 Q 211396.4 14176 211066.4 13846 Q 210736.4 13516 210250.4 13372 Q 209764.4 13228 209140.4 13228 Q 208145.6 13228 207287.6 13516 Q 206429.6 13804 205637.6 14212 L 204869.6 12569.2 Q 205757.6 12089.2 206849.6 11753.2 Q 207941.6 11417.2 209141.6 11417.2 Q 210365.6 11417.2 211259.6 11663.2 Q 212153.6 11909.2 212735.6 12443.2 Q 213317.6 12977.2 213605.6 13805.2 Q 213893.6 14633.2 213893.6 15809.2 L 213893.6 24833.2 L 212322.8 24833.2 L 212320.4 24832 Z M 208312.4 23306.8 Q 209043.2 23306.8 209667.2 23078.8 Q 210291.2 22850.8 210747.2 22388.8 Q 211203.2 21926.8 211461.2 21224.8 Q 211719.2 20522.8 211719.2 19576 L 211719.2 18386.8 L 210002 18472 Q 208922 18520 208190 18712 Q 207458 18904 207020 19246 Q 206582 19588 206390 20074 Q 206198 20560 206198 21170.8 Q 206198 22274.8 206780 22790.8 Q 207362 23306.8 208311.2 23306.8 L 208312.4 23306.8 Z M 214500.8 30736 Q 213924.8 30736 213546.8 30652 Q 213168.8 30568 212894 30437.2 L 212894 28661.2 Q 213206 28781.2 213530 28847.2 Q 213854 28913.2 214275.2 28913.2 Q 214598 28913.2 214874 28823.2 Q 215150 28733.2 215360 28499.2 Q 215570 28265.2 215684 27875.2 Q 215798 27485.2 215798 26872 L 215798 11656 L 217982 11656 L 217982 26728 Q 217982 27653.2 217778 28391.2 Q 217574 29129.2 217142 29651.2 Q 216710 30173.2 216056 30455.2 Q 215402 30737.2 214500.8 30737.2 L 214500.8 30736 Z M 215628.8 8090.8 Q 215628.8 7370.8 215994.8 7046.8 Q 216360.8 6722.8 216899.6 6722.8 Q 217163.6 6722.8 217397.6 6800.8 Q 217631.6 6878.8 217805.6 7046.8 Q 217979.6 7214.8 218081.6 7472.8 Q 218183.6 7730.8 218183.6 8090.8 Q 218183.6 8786.8 217805.6 9128.8 Q 217427.6 9470.8 216899.6 9470.8 Q 216360.8 9470.8 215994.8 9134.8 Q 215628.8 8798.8 215628.8 8089.6 L 215628.8 8090.8 Z M 225254.4 25072 Q 223934.4 25072 222842.4 24628 Q 221750.4 24184 220964.4 23332 Q 220178.4 22480 219746.4 21220 Q 219314.4 19960 219314.4 18338.8 Q 219314.4 16706.8 219710.4 15422.8 Q 220106.4 14138.8 220826.4 13244.8 Q 221546.4 12350.8 222548.4 11882.8 Q 223550.4 11414.8 224763.6 11414.8 Q 225950.4 11414.8 226898.4 11840.8 Q 227846.4 12266.8 228506.4 13040.8 Q 229166.4 13814.8 229520.4 14900.8 Q 229874.4 15986.8 229874.4 17306.8 L 229874.4 18664 L 221570.4 18664 Q 221629.2 20978.8 222547.2 22070.8 Q 223465.2 23162.8 225276 23162.8 Q 225889.2 23162.8 226411.2 23102.8 Q 226933.2 23042.8 227419.2 22928.8 Q 227905.2 22814.8 228361.2 22640.8 Q 228817.2 22466.8 229284 22250.8 L 229284 24194.8 Q 228804 24424 228342 24592 Q 227880 24760 227394 24868 Q 226908 24976 226386 25024 Q 225864 25072 225250.8 25072 L 225254.4 25072 Z M 224715.6 13226.8 Q 223347.6 13226.8 222549.6 14162.8 Q 221751.6 15098.8 221620.8 16888 L 227524.8 16888 Q 227524.8 16072 227362.8 15394 Q 227200.8 14716 226858.8 14236 Q 226516.8 13756 225988.8 13492 Q 225460.8 13228 224716.8 13228 L 224715.6 13226.8 Z M 230731.6 23498.8 Q 230731.6 23042.8 230851.6 22724.8 Q 230971.6 22406.8 231175.6 22208.8 Q 231379.6 22010.8 231655.6 21920.8 Q 231931.6 21830.8 232254.4 21830.8 Q 232566.4 21830.8 232848.4 21920.8 Q 233130.4 22010.8 233334.4 22208.8 Q 233538.4 22406.8 233658.4 22724.8 Q 233778.4 23042.8 233778.4 23498.8 Q 233778.4 23944 233658.4 24262 Q 233538.4 24580 233334.4 24785.2 Q 233130.4 24990.4 232848.4 25086.4 Q 232566.4 25182.4 232254.4 25182.4 Q 231931.6 25182.4 231655.6 25086.4 Q 231379.6 24990.4 231175.6 24785.2 Q 230971.6 24580 230851.6 24262 Q 230731.6 23944 230731.6 23498.8  Z " fill-rule="nonzero" style="fill:#535353;;fill-opacity:1;"/>
</svg>