<svg version="1.1" x="0" y="0" width="100%" height="100%" viewBox="0 0 256512 62361.6" xmlns="http://www.w3.org/2000/svg">
  <path d="M 27970 24832 L 26050 19394.8 L 19508.8 19394.8 L 17564.8 24832 L 15308.8 24832 L 21754 7216 L 23794 7216 L 30250 24832 L 27970 24832 Z M 25340.8 17416 L 23564.8 12328 Q 23492.8 12112 23390.8 11800 Q 23288.8 11488 23180.8 11128 Q 23072.8 10768 22964.8 10378 Q 22856.8 9988 22760.8 9617.2 Q 22675.6 9988 22567.6 10384 Q 22459.6 10780 22351.6 11146 Q 22243.6 11512 22141.6 11818 Q 22039.6 12124 21967.6 12329.2 L 20226.4 17417.2 L 25338.4 17417.2 L 25340.8 17416 Z M 36200 25072 Q 35493.2 25072 34917.2 24916 Q 34341.2 24760 33879.2 24502 Q 33417.2 24244 33063.2 23896 Q 32709.2 23548 32432 23164 L 32288 23164 Q 32325.2 23572 32360 23945.2 Q 32384 24257.2 32408 24587.2 Q 32432 24917.2 32432 25109.2 L 32432 30736 L 30248 30736 L 30248 11656 L 32024 11656 L 32336 13432 L 32432 13432 Q 32709.2 13010.8 33057.2 12644.8 Q 33405.2 12278.8 33867.2 12008.8 Q 34329.2 11738.8 34905.2 11576.8 Q 35481.2 11414.8 36201.2 11414.8 Q 37329.2 11414.8 38253.2 11846.8 Q 39177.2 12278.8 39831.2 13136.8 Q 40485.2 13994.8 40845.2 15266.8 Q 41205.2 16538.8 41205.2 18218.8 Q 41205.2 19912 40845.2 21190 Q 40485.2 22468 39831.2 23332 Q 39177.2 24196 38253.2 24634 Q 37329.2 25072 36201.2 25072 L 36200 25072 Z M 35781.2 13226.8 Q 34869.2 13226.8 34239.2 13502.8 Q 33609.2 13778.8 33219.2 14342.8 Q 32829.2 14906.8 32643.2 15746.8 Q 32457.2 16586.8 32433.2 17728 L 32433.2 18218.8 Q 32433.2 19432 32595.2 20374 Q 32757.2 21316 33147.2 21958 Q 33537.2 22600 34185.2 22930 Q 34833.2 23260 35806.4 23260 Q 37425.2 23260 38187.2 21952 Q 38949.2 20644 38949.2 18196 Q 38949.2 15700 38187.2 14464 Q 37425.2 13228 35782.4 13228 L 35781.2 13226.8 Z M 48339.6 11416 Q 48686.4 11416 49118.4 11446 Q 49550.4 11476 49862.4 11537.2 L 49574.4 13553.2 Q 49238.4 13492 48884.4 13450 Q 48530.4 13408 48218.4 13408 Q 47461.2 13408 46837.2 13714 Q 46213.2 14020 45763.2 14590 Q 45313.2 15160 45067.2 15958 Q 44821.2 16756 44821.2 17729.2 L 44821.2 24833.2 L 42637.2 24833.2 L 42637.2 11657.2 L 44413.2 11657.2 L 44677.2 14068 L 44773.2 14068 Q 45074.4 13553.2 45416.4 13073.2 Q 45758.4 12593.2 46184.4 12227.2 Q 46610.4 11861.2 47138.4 11639.2 Q 47666.4 11417.2 48338.4 11417.2 L 48339.6 11416 Z M 55628.8 25072 Q 54308.8 25072 53216.8 24628 Q 52124.8 24184 51338.8 23332 Q 50552.8 22480 50120.8 21220 Q 49688.8 19960 49688.8 18338.8 Q 49688.8 16706.8 50084.8 15422.8 Q 50480.8 14138.8 51200.8 13244.8 Q 51920.8 12350.8 52922.8 11882.8 Q 53924.8 11414.8 55138 11414.8 Q 56324.8 11414.8 57272.8 11840.8 Q 58220.8 12266.8 58880.8 13040.8 Q 59540.8 13814.8 59894.8 14900.8 Q 60248.8 15986.8 60248.8 17306.8 L 60248.8 18664 L 51944.8 18664 Q 52003.6 20978.8 52921.6 22070.8 Q 53839.6 23162.8 55650.4 23162.8 Q 56263.6 23162.8 56785.6 23102.8 Q 57307.6 23042.8 57793.6 22928.8 Q 58279.6 22814.8 58735.6 22640.8 Q 59191.6 22466.8 59658.4 22250.8 L 59658.4 24194.8 Q 59178.4 24424 58716.4 24592 Q 58254.4 24760 57768.4 24868 Q 57282.4 24976 56760.4 25024 Q 56238.4 25072 55625.2 25072 L 55628.8 25072 Z M 55090 13226.8 Q 53722 13226.8 52924 14162.8 Q 52126 15098.8 51995.2 16888 L 57899.2 16888 Q 57899.2 16072 57737.2 15394 Q 57575.2 14716 57233.2 14236 Q 56891.2 13756 56363.2 13492 Q 55835.2 13228 55091.2 13228 L 55090 13226.8 Z M 69660.8 24832 L 69660.8 16346.8 Q 69660.8 14786.8 69030.8 14006.8 Q 68400.8 13226.8 67056.8 13226.8 Q 66083.6 13226.8 65423.6 13538.8 Q 64763.6 13850.8 64361.6 14462.8 Q 63959.6 15074.8 63785.6 15962.8 Q 63611.6 16850.8 63611.6 18002.8 L 63611.6 24832 L 61427.6 24832 L 61427.6 11656 L 63203.6 11656 L 63515.6 13432 L 63635.6 13432 Q 63936.8 12914.8 64350.8 12536.8 Q 64764.8 12158.8 65256.8 11906.8 Q 65748.8 11654.8 66300.8 11534.8 Q 66852.8 11414.8 67428.8 11414.8 Q 69626 11414.8 70736 12560.8 Q 71846 13706.8 71846 16226.8 L 71846 24832 L 69662 24832 L 69660.8 24832 Z M 81955.2 23066.8 L 81859.2 23066.8 Q 81595.2 23474.8 81241.2 23840.8 Q 80887.2 24206.8 80425.2 24482.8 Q 79963.2 24758.8 79387.2 24914.8 Q 78811.2 25070.8 78091.2 25070.8 Q 76976.4 25070.8 76052.4 24638.8 Q 75128.4 24206.8 74468.4 23348.8 Q 73808.4 22490.8 73448.4 21218.8 Q 73088.4 19946.8 73088.4 18266.8 Q 73088.4 16576 73448.4 15298 Q 73808.4 14020 74468.4 13156 Q 75128.4 12292 76052.4 11854 Q 76976.4 11416 78091.2 11416 Q 78800.4 11416 79376.4 11572 Q 79952.4 11728 80414.4 11992 Q 80876.4 12256 81236.4 12604 Q 81596.4 12952 81860.4 13336 L 82004.4 13336 Q 81969.6 12928 81932.4 12554.8 Q 81908.4 12242.8 81884.4 11912.8 Q 81860.4 11582.8 81860.4 11390.8 L 81860.4 6158.8 L 84044.4 6158.8 L 84044.4 24830.8 L 82281.6 24830.8 L 81956.4 23065.6 L 81955.2 23066.8 Z M 78512.4 23258.8 Q 79424.4 23258.8 80054.4 22982.8 Q 80684.4 22706.8 81074.4 22142.8 Q 81464.4 21578.8 81650.4 20732.8 Q 81836.4 19886.8 81860.4 18758.8 L 81860.4 18265.6 Q 81860.4 17054.8 81698.4 16112.8 Q 81536.4 15170.8 81146.4 14528.8 Q 80756.4 13886.8 80108.4 13556.8 Q 79460.4 13226.8 78489.6 13226.8 Q 76868.4 13226.8 76106.4 14534.8 Q 75344.4 15842.8 75344.4 18290.8 Q 75344.4 20800 76106.4 22030 Q 76868.4 23260 78513.6 23260 L 78512.4 23258.8 Z M 91417.6 25072 Q 90097.6 25072 89005.6 24628 Q 87913.6 24184 87127.6 23332 Q 86341.6 22480 85909.6 21220 Q 85477.6 19960 85477.6 18338.8 Q 85477.6 16706.8 85873.6 15422.8 Q 86269.6 14138.8 86989.6 13244.8 Q 87709.6 12350.8 88711.6 11882.8 Q 89713.6 11414.8 90926.8 11414.8 Q 92113.6 11414.8 93061.6 11840.8 Q 94009.6 12266.8 94669.6 13040.8 Q 95329.6 13814.8 95683.6 14900.8 Q 96037.6 15986.8 96037.6 17306.8 L 96037.6 18664 L 87733.6 18664 Q 87792.4 20978.8 88710.4 22070.8 Q 89628.4 23162.8 91439.2 23162.8 Q 92052.4 23162.8 92574.4 23102.8 Q 93096.4 23042.8 93582.4 22928.8 Q 94068.4 22814.8 94524.4 22640.8 Q 94980.4 22466.8 95447.2 22250.8 L 95447.2 24194.8 Q 94967.2 24424 94505.2 24592 Q 94043.2 24760 93557.2 24868 Q 93071.2 24976 92549.2 25024 Q 92027.2 25072 91414 25072 L 91417.6 25072 Z M 90878.8 13226.8 Q 89510.8 13226.8 88712.8 14162.8 Q 87914.8 15098.8 87784 16888 L 93688 16888 Q 93688 16072 93526 15394 Q 93364 14716 93022 14236 Q 92680 13756 92152 13492 Q 91624 13228 90880 13228 L 90878.8 13226.8 Z M 102918.8 11416 Q 103265.6 11416 103697.6 11446 Q 104129.6 11476 104441.6 11537.2 L 104153.6 13553.2 Q 103817.6 13492 103463.6 13450 Q 103109.6 13408 102797.6 13408 Q 102040.4 13408 101416.4 13714 Q 100792.4 14020 100342.4 14590 Q 99892.4 15160 99646.4 15958 Q 99400.4 16756 99400.4 17729.2 L 99400.4 24833.2 L 97216.4 24833.2 L 97216.4 11657.2 L 98992.4 11657.2 L 99256.4 14068 L 99352.4 14068 Q 99653.6 13553.2 99995.6 13073.2 Q 100337.6 12593.2 100763.6 12227.2 Q 101189.6 11861.2 101717.6 11639.2 Q 102245.6 11417.2 102917.6 11417.2 L 102918.8 11416 Z M 112429.2 24832 L 111984 23008 L 111888 23008 Q 111493.2 23546.8 111097.2 23936.8 Q 110701.2 24326.8 110233.2 24578.8 Q 109765.2 24830.8 109189.2 24950.8 Q 108613.2 25070.8 107856 25070.8 Q 107029.2 25070.8 106333.2 24836.8 Q 105637.2 24602.8 105127.2 24116.8 Q 104617.2 23630.8 104329.2 22892.8 Q 104041.2 22154.8 104041.2 21146.8 Q 104041.2 19178.8 105427.2 18122.8 Q 106813.2 17066.8 109645.2 16970.8 L 111853.2 16888 L 111853.2 16058.8 Q 111853.2 15256 111679.2 14716 Q 111505.2 14176 111175.2 13846 Q 110845.2 13516 110359.2 13372 Q 109873.2 13228 109249.2 13228 Q 108254.4 13228 107396.4 13516 Q 106538.4 13804 105746.4 14212 L 104978.4 12569.2 Q 105866.4 12089.2 106958.4 11753.2 Q 108050.4 11417.2 109250.4 11417.2 Q 110474.4 11417.2 111368.4 11663.2 Q 112262.4 11909.2 112844.4 12443.2 Q 113426.4 12977.2 113714.4 13805.2 Q 114002.4 14633.2 114002.4 15809.2 L 114002.4 24833.2 L 112431.6 24833.2 L 112429.2 24832 Z M 108421.2 23306.8 Q 109152 23306.8 109776 23078.8 Q 110400 22850.8 110856 22388.8 Q 111312 21926.8 111570 21224.8 Q 111828 20522.8 111828 19576 L 111828 18386.8 L 110110.8 18472 Q 109030.8 18520 108298.8 18712 Q 107566.8 18904 107128.8 19246 Q 106690.8 19588 106498.8 20074 Q 106306.8 20560 106306.8 21170.8 Q 106306.8 22274.8 106888.8 22790.8 Q 107470.8 23306.8 108420 23306.8 L 108421.2 23306.8 Z M 123790.8 21218.8 Q 123790.8 22178.8 123442.8 22898.8 Q 123094.8 23618.8 122440.8 24104.8 Q 121786.8 24590.8 120862.8 24830.8 Q 119938.8 25070.8 118786.8 25070.8 Q 117480 25070.8 116544 24860.8 Q 115608 24650.8 114898.8 24242.8 L 114898.8 22250.8 Q 115272 22442.8 115728 22628.8 Q 116184 22814.8 116688 22958.8 Q 117192 23102.8 117726 23192.8 Q 118260 23282.8 118788 23282.8 Q 119569.2 23282.8 120115.2 23150.8 Q 120661.2 23018.8 121003.2 22772.8 Q 121345.2 22526.8 121501.2 22172.8 Q 121657.2 21818.8 121657.2 21386.8 Q 121657.2 21016 121537.2 20716 Q 121417.2 20416 121099.2 20122 Q 120781.2 19828 120229.2 19528 Q 119677.2 19228 118813.2 18857.2 Q 117949.2 18484 117259.2 18124 Q 116569.2 17764 116089.2 17320 Q 115609.2 16876 115351.2 16294 Q 115093.2 15712 115093.2 14906.8 Q 115093.2 14066.8 115423.2 13412.8 Q 115753.2 12758.8 116353.2 12314.8 Q 116953.2 11870.8 117793.2 11642.8 Q 118633.2 11414.8 119665.2 11414.8 Q 120828 11414.8 121794 11666.8 Q 122760 11918.8 123624 12326.8 L 122866.8 14089.6 Q 122088 13742.8 121266 13484.8 Q 120444 13226.8 119593.2 13226.8 Q 118369.2 13226.8 117781.2 13628.8 Q 117193.2 14030.8 117193.2 14774.8 Q 117193.2 15193.6 117331.2 15505.6 Q 117469.2 15817.6 117805.2 16093.6 Q 118141.2 16369.6 118705.2 16651.6 Q 119269.2 16933.6 120109.2 17280.4 Q 120973.2 17640.4 121651.2 18000.4 Q 122329.2 18360.4 122809.2 18810.4 Q 123289.2 19260.4 123541.2 19836.4 Q 123793.2 20412.4 123793.2 21215.2 L 123790.8 21218.8 Z M 136595.6 24832 L 136150.4 23008 L 136054.4 23008 Q 135659.6 23546.8 135263.6 23936.8 Q 134867.6 24326.8 134399.6 24578.8 Q 133931.6 24830.8 133355.6 24950.8 Q 132779.6 25070.8 132022.4 25070.8 Q 131195.6 25070.8 130499.6 24836.8 Q 129803.6 24602.8 129293.6 24116.8 Q 128783.6 23630.8 128495.6 22892.8 Q 128207.6 22154.8 128207.6 21146.8 Q 128207.6 19178.8 129593.6 18122.8 Q 130979.6 17066.8 133811.6 16970.8 L 136019.6 16888 L 136019.6 16058.8 Q 136019.6 15256 135845.6 14716 Q 135671.6 14176 135341.6 13846 Q 135011.6 13516 134525.6 13372 Q 134039.6 13228 133415.6 13228 Q 132420.8 13228 131562.8 13516 Q 130704.8 13804 129912.8 14212 L 129144.8 12569.2 Q 130032.8 12089.2 131124.8 11753.2 Q 132216.8 11417.2 133416.8 11417.2 Q 134640.8 11417.2 135534.8 11663.2 Q 136428.8 11909.2 137010.8 12443.2 Q 137592.8 12977.2 137880.8 13805.2 Q 138168.8 14633.2 138168.8 15809.2 L 138168.8 24833.2 L 136598 24833.2 L 136595.6 24832 Z M 132587.6 23306.8 Q 133318.4 23306.8 133942.4 23078.8 Q 134566.4 22850.8 135022.4 22388.8 Q 135478.4 21926.8 135736.4 21224.8 Q 135994.4 20522.8 135994.4 19576 L 135994.4 18386.8 L 134277.2 18472 Q 133197.2 18520 132465.2 18712 Q 131733.2 18904 131295.2 19246 Q 130857.2 19588 130665.2 20074 Q 130473.2 20560 130473.2 21170.8 Q 130473.2 22274.8 131055.2 22790.8 Q 131637.2 23306.8 132586.4 23306.8 L 132587.6 23306.8 Z M 151750.8 24832 L 151305.6 23008 L 151209.6 23008 Q 150814.8 23546.8 150418.8 23936.8 Q 150022.8 24326.8 149554.8 24578.8 Q 149086.8 24830.8 148510.8 24950.8 Q 147934.8 25070.8 147177.6 25070.8 Q 146350.8 25070.8 145654.8 24836.8 Q 144958.8 24602.8 144448.8 24116.8 Q 143938.8 23630.8 143650.8 22892.8 Q 143362.8 22154.8 143362.8 21146.8 Q 143362.8 19178.8 144748.8 18122.8 Q 146134.8 17066.8 148966.8 16970.8 L 151174.8 16888 L 151174.8 16058.8 Q 151174.8 15256 151000.8 14716 Q 150826.8 14176 150496.8 13846 Q 150166.8 13516 149680.8 13372 Q 149194.8 13228 148570.8 13228 Q 147576 13228 146718 13516 Q 145860 13804 145068 14212 L 144300 12569.2 Q 145188 12089.2 146280 11753.2 Q 147372 11417.2 148572 11417.2 Q 149796 11417.2 150690 11663.2 Q 151584 11909.2 152166 12443.2 Q 152748 12977.2 153036 13805.2 Q 153324 14633.2 153324 15809.2 L 153324 24833.2 L 151753.2 24833.2 L 151750.8 24832 Z M 147742.8 23306.8 Q 148473.6 23306.8 149097.6 23078.8 Q 149721.6 22850.8 150177.6 22388.8 Q 150633.6 21926.8 150891.6 21224.8 Q 151149.6 20522.8 151149.6 19576 L 151149.6 18386.8 L 149432.4 18472 Q 148352.4 18520 147620.4 18712 Q 146888.4 18904 146450.4 19246 Q 146012.4 19588 145820.4 20074 Q 145628.4 20560 145628.4 21170.8 Q 145628.4 22274.8 146210.4 22790.8 Q 146792.4 23306.8 147741.6 23306.8 L 147742.8 23306.8 Z M 157640.4 24832 L 153139.2 11656 L 155395.2 11656 L 157784.4 18986.8 Q 157915.2 19384 158095.2 20008 Q 158275.2 20632 158455.2 21280 Q 158635.2 21928 158785.2 22504 Q 158935.2 23080 158983.2 23378.8 L 159066 23378.8 Q 159127.2 23080 159271.2 22504 Q 159415.2 21928 159595.2 21280 Q 159775.2 20632 159955.2 20008 Q 160135.2 19384 160266 18986.8 L 162655.2 11656 L 164911.2 11656 L 160410 24832 L 157639.2 24832 L 157640.4 24832 Z M 172333.2 24832 L 171888 23008 L 171792 23008 Q 171397.2 23546.8 171001.2 23936.8 Q 170605.2 24326.8 170137.2 24578.8 Q 169669.2 24830.8 169093.2 24950.8 Q 168517.2 25070.8 167760 25070.8 Q 166933.2 25070.8 166237.2 24836.8 Q 165541.2 24602.8 165031.2 24116.8 Q 164521.2 23630.8 164233.2 22892.8 Q 163945.2 22154.8 163945.2 21146.8 Q 163945.2 19178.8 165331.2 18122.8 Q 166717.2 17066.8 169549.2 16970.8 L 171757.2 16888 L 171757.2 16058.8 Q 171757.2 15256 171583.2 14716 Q 171409.2 14176 171079.2 13846 Q 170749.2 13516 170263.2 13372 Q 169777.2 13228 169153.2 13228 Q 168158.4 13228 167300.4 13516 Q 166442.4 13804 165650.4 14212 L 164882.4 12569.2 Q 165770.4 12089.2 166862.4 11753.2 Q 167954.4 11417.2 169154.4 11417.2 Q 170378.4 11417.2 171272.4 11663.2 Q 172166.4 11909.2 172748.4 12443.2 Q 173330.4 12977.2 173618.4 13805.2 Q 173906.4 14633.2 173906.4 15809.2 L 173906.4 24833.2 L 172335.6 24833.2 L 172333.2 24832 Z M 168325.2 23306.8 Q 169056 23306.8 169680 23078.8 Q 170304 22850.8 170760 22388.8 Q 171216 21926.8 171474 21224.8 Q 171732 20522.8 171732 19576 L 171732 18386.8 L 170014.8 18472 Q 168934.8 18520 168202.8 18712 Q 167470.8 18904 167032.8 19246 Q 166594.8 19588 166402.8 20074 Q 166210.8 20560 166210.8 21170.8 Q 166210.8 22274.8 166792.8 22790.8 Q 167374.8 23306.8 168324 23306.8 L 168325.2 23306.8 Z M 184041.6 24832 L 184041.6 16346.8 Q 184041.6 14786.8 183411.6 14006.8 Q 182781.6 13226.8 181437.6 13226.8 Q 180464.4 13226.8 179804.4 13538.8 Q 179144.4 13850.8 178742.4 14462.8 Q 178340.4 15074.8 178166.4 15962.8 Q 177992.4 16850.8 177992.4 18002.8 L 177992.4 24832 L 175808.4 24832 L 175808.4 11656 L 177584.4 11656 L 177896.4 13432 L 178016.4 13432 Q 178317.6 12914.8 178731.6 12536.8 Q 179145.6 12158.8 179637.6 11906.8 Q 180129.6 11654.8 180681.6 11534.8 Q 181233.6 11414.8 181809.6 11414.8 Q 184006.8 11414.8 185116.8 12560.8 Q 186226.8 13706.8 186226.8 16226.8 L 186226.8 24832 L 184042.8 24832 L 184041.6 24832 Z M 195965.2 24832 L 187096 24832 L 187096 23330.8 L 193528 13298.8 L 187493.2 13298.8 L 187493.2 11656 L 195749.2 11656 L 195749.2 13408 L 189461.2 23186.8 L 195965.2 23186.8 L 195965.2 24832 Z M 204384.4 24832 L 203939.2 23008 L 203843.2 23008 Q 203448.4 23546.8 203052.4 23936.8 Q 202656.4 24326.8 202188.4 24578.8 Q 201720.4 24830.8 201144.4 24950.8 Q 200568.4 25070.8 199811.2 25070.8 Q 198984.4 25070.8 198288.4 24836.8 Q 197592.4 24602.8 197082.4 24116.8 Q 196572.4 23630.8 196284.4 22892.8 Q 195996.4 22154.8 195996.4 21146.8 Q 195996.4 19178.8 197382.4 18122.8 Q 198768.4 17066.8 201600.4 16970.8 L 203808.4 16888 L 203808.4 16058.8 Q 203808.4 15256 203634.4 14716 Q 203460.4 14176 203130.4 13846 Q 202800.4 13516 202314.4 13372 Q 201828.4 13228 201204.4 13228 Q 200209.6 13228 199351.6 13516 Q 198493.6 13804 197701.6 14212 L 196933.6 12569.2 Q 197821.6 12089.2 198913.6 11753.2 Q 200005.6 11417.2 201205.6 11417.2 Q 202429.6 11417.2 203323.6 11663.2 Q 204217.6 11909.2 204799.6 12443.2 Q 205381.6 12977.2 205669.6 13805.2 Q 205957.6 14633.2 205957.6 15809.2 L 205957.6 24833.2 L 204386.8 24833.2 L 204384.4 24832 Z M 200376.4 23306.8 Q 201107.2 23306.8 201731.2 23078.8 Q 202355.2 22850.8 202811.2 22388.8 Q 203267.2 21926.8 203525.2 21224.8 Q 203783.2 20522.8 203783.2 19576 L 203783.2 18386.8 L 202066 18472 Q 200986 18520 200254 18712 Q 199522 18904 199084 19246 Q 198646 19588 198454 20074 Q 198262 20560 198262 21170.8 Q 198262 22274.8 198844 22790.8 Q 199426 23306.8 200375.2 23306.8 L 200376.4 23306.8 Z M 213562 11416 Q 213908.8 11416 214340.8 11446 Q 214772.8 11476 215084.8 11537.2 L 214796.8 13553.2 Q 214460.8 13492 214106.8 13450 Q 213752.8 13408 213440.8 13408 Q 212683.6 13408 212059.6 13714 Q 211435.6 14020 210985.6 14590 Q 210535.6 15160 210289.6 15958 Q 210043.6 16756 210043.6 17729.2 L 210043.6 24833.2 L 207859.6 24833.2 L 207859.6 11657.2 L 209635.6 11657.2 L 209899.6 14068 L 209995.6 14068 Q 210296.8 13553.2 210638.8 13073.2 Q 210980.8 12593.2 211406.8 12227.2 Q 211832.8 11861.2 212360.8 11639.2 Q 212888.8 11417.2 213560.8 11417.2 L 213562 11416 Z M 228028.8 23066.8 L 227932.8 23066.8 Q 227668.8 23474.8 227314.8 23840.8 Q 226960.8 24206.8 226498.8 24482.8 Q 226036.8 24758.8 225460.8 24914.8 Q 224884.8 25070.8 224164.8 25070.8 Q 223050 25070.8 222126 24638.8 Q 221202 24206.8 220542 23348.8 Q 219882 22490.8 219522 21218.8 Q 219162 19946.8 219162 18266.8 Q 219162 16576 219522 15298 Q 219882 14020 220542 13156 Q 221202 12292 222126 11854 Q 223050 11416 224164.8 11416 Q 224874 11416 225450 11572 Q 226026 11728 226488 11992 Q 226950 12256 227310 12604 Q 227670 12952 227934 13336 L 228078 13336 Q 228043.2 12928 228006 12554.8 Q 227982 12242.8 227958 11912.8 Q 227934 11582.8 227934 11390.8 L 227934 6158.8 L 230118 6158.8 L 230118 24830.8 L 228355.2 24830.8 L 228030 23065.6 L 228028.8 23066.8 Z M 224586 23258.8 Q 225498 23258.8 226128 22982.8 Q 226758 22706.8 227148 22142.8 Q 227538 21578.8 227724 20732.8 Q 227910 19886.8 227934 18758.8 L 227934 18265.6 Q 227934 17054.8 227772 16112.8 Q 227610 15170.8 227220 14528.8 Q 226830 13886.8 226182 13556.8 Q 225534 13226.8 224563.2 13226.8 Q 222942 13226.8 222180 14534.8 Q 221418 15842.8 221418 18290.8 Q 221418 20800 222180 22030 Q 222942 23260 224587.2 23260 L 224586 23258.8 Z M 237491.2 25072 Q 236171.2 25072 235079.2 24628 Q 233987.2 24184 233201.2 23332 Q 232415.2 22480 231983.2 21220 Q 231551.2 19960 231551.2 18338.8 Q 231551.2 16706.8 231947.2 15422.8 Q 232343.2 14138.8 233063.2 13244.8 Q 233783.2 12350.8 234785.2 11882.8 Q 235787.2 11414.8 237000.4 11414.8 Q 238187.2 11414.8 239135.2 11840.8 Q 240083.2 12266.8 240743.2 13040.8 Q 241403.2 13814.8 241757.2 14900.8 Q 242111.2 15986.8 242111.2 17306.8 L 242111.2 18664 L 233807.2 18664 Q 233866 20978.8 234784 22070.8 Q 235702 23162.8 237512.8 23162.8 Q 238126 23162.8 238648 23102.8 Q 239170 23042.8 239656 22928.8 Q 240142 22814.8 240598 22640.8 Q 241054 22466.8 241520.8 22250.8 L 241520.8 24194.8 Q 241040.8 24424 240578.8 24592 Q 240116.8 24760 239630.8 24868 Q 239144.8 24976 238622.8 25024 Q 238100.8 25072 237487.6 25072 L 237491.2 25072 Z M 236952.4 13226.8 Q 235584.4 13226.8 234786.4 14162.8 Q 233988.4 15098.8 233857.6 16888 L 239761.6 16888 Q 239761.6 16072 239599.6 15394 Q 239437.6 14716 239095.6 14236 Q 238753.6 13756 238225.6 13492 Q 237697.6 13228 236953.6 13228 L 236952.4 13226.8 Z M 59034 54476.8 L 59034 45991.6 Q 59034 44431.6 58434 43651.6 Q 57834 42871.6 56572.8 42871.6 Q 55698 42871.6 55086 43153.6 Q 54474 43435.6 54084 43981.6 Q 53694 44527.6 53514 45337.6 Q 53334 46147.6 53334 47203.6 L 53334 54475.6 L 51139.2 54475.6 L 51139.2 45990.4 Q 51139.2 44430.4 50545.2 43650.4 Q 49951.2 42870.4 48692.4 42870.4 Q 47767.2 42870.4 47143.2 43182.4 Q 46519.2 43494.4 46141.2 44106.4 Q 45763.2 44718.4 45601.2 45606.4 Q 45439.2 46494.4 45439.2 47646.4 L 45439.2 54475.6 L 43255.2 54475.6 L 43255.2 41299.6 L 45031.2 41299.6 L 45343.2 43075.6 L 45463.2 43075.6 Q 45751.2 42558.4 46147.2 42180.4 Q 46543.2 41802.4 47017.2 41550.4 Q 47491.2 41298.4 48025.2 41178.4 Q 48559.2 41058.4 49111.2 41058.4 Q 50551.2 41058.4 51505.2 41586.4 Q 52459.2 42114.4 52915.2 43242.4 L 53011.2 43242.4 Q 53323.2 42677.2 53761.2 42269.2 Q 54199.2 41861.2 54721.2 41591.2 Q 55243.2 41321.2 55819.2 41189.2 Q 56395.2 41057.2 56995.2 41057.2 Q 59094 41057.2 60156 42203.2 Q 61218 43349.2 61218 45869.2 L 61218 54474.4 L 59034 54474.4 L 59034 54476.8 Z M 70598.8 54476.8 L 70153.6 52652.8 L 70057.6 52652.8 Q 69662.8 53191.6 69266.8 53581.6 Q 68870.8 53971.6 68402.8 54223.6 Q 67934.8 54475.6 67358.8 54595.6 Q 66782.8 54715.6 66025.6 54715.6 Q 65198.8 54715.6 64502.8 54481.6 Q 63806.8 54247.6 63296.8 53761.6 Q 62786.8 53275.6 62498.8 52537.6 Q 62210.8 51799.6 62210.8 50791.6 Q 62210.8 48823.6 63596.8 47767.6 Q 64982.8 46711.6 67814.8 46615.6 L 70022.8 46532.8 L 70022.8 45703.6 Q 70022.8 44900.8 69848.8 44360.8 Q 69674.8 43820.8 69344.8 43490.8 Q 69014.8 43160.8 68528.8 43016.8 Q 68042.8 42872.8 67418.8 42872.8 Q 66424 42872.8 65566 43160.8 Q 64708 43448.8 63916 43856.8 L 63148 42214 Q 64036 41734 65128 41398 Q 66220 41062 67420 41062 Q 68644 41062 69538 41308 Q 70432 41554 71014 42088 Q 71596 42622 71884 43450 Q 72172 44278 72172 45454 L 72172 54478 L 70601.2 54478 L 70598.8 54476.8 Z M 66590.8 52951.6 Q 67321.6 52951.6 67945.6 52723.6 Q 68569.6 52495.6 69025.6 52033.6 Q 69481.6 51571.6 69739.6 50869.6 Q 69997.6 50167.6 69997.6 49220.8 L 69997.6 48031.6 L 68280.4 48116.8 Q 67200.4 48164.8 66468.4 48356.8 Q 65736.4 48548.8 65298.4 48890.8 Q 64860.4 49232.8 64668.4 49718.8 Q 64476.4 50204.8 64476.4 50815.6 Q 64476.4 51919.6 65058.4 52435.6 Q 65640.4 52951.6 66589.6 52951.6 L 66590.8 52951.6 Z M 82307.2 54476.8 L 82307.2 45991.6 Q 82307.2 44431.6 81677.2 43651.6 Q 81047.2 42871.6 79703.2 42871.6 Q 78730 42871.6 78070 43183.6 Q 77410 43495.6 77008 44107.6 Q 76606 44719.6 76432 45607.6 Q 76258 46495.6 76258 47647.6 L 76258 54476.8 L 74074 54476.8 L 74074 41300.8 L 75850 41300.8 L 76162 43076.8 L 76282 43076.8 Q 76583.2 42559.6 76997.2 42181.6 Q 77411.2 41803.6 77903.2 41551.6 Q 78395.2 41299.6 78947.2 41179.6 Q 79499.2 41059.6 80075.2 41059.6 Q 82272.4 41059.6 83382.4 42205.6 Q 84492.4 43351.6 84492.4 45871.6 L 84492.4 54476.8 L 82308.4 54476.8 L 82307.2 54476.8 Z M 91673.6 54716.8 Q 90353.6 54716.8 89261.6 54272.8 Q 88169.6 53828.8 87383.6 52976.8 Q 86597.6 52124.8 86165.6 50864.8 Q 85733.6 49604.8 85733.6 47983.6 Q 85733.6 46351.6 86129.6 45067.6 Q 86525.6 43783.6 87245.6 42889.6 Q 87965.6 41995.6 88967.6 41527.6 Q 89969.6 41059.6 91182.8 41059.6 Q 92369.6 41059.6 93317.6 41485.6 Q 94265.6 41911.6 94925.6 42685.6 Q 95585.6 43459.6 95939.6 44545.6 Q 96293.6 45631.6 96293.6 46951.6 L 96293.6 48308.8 L 87989.6 48308.8 Q 88048.4 50623.6 88966.4 51715.6 Q 89884.4 52807.6 91695.2 52807.6 Q 92308.4 52807.6 92830.4 52747.6 Q 93352.4 52687.6 93838.4 52573.6 Q 94324.4 52459.6 94780.4 52285.6 Q 95236.4 52111.6 95703.2 51895.6 L 95703.2 53839.6 Q 95223.2 54068.8 94761.2 54236.8 Q 94299.2 54404.8 93813.2 54512.8 Q 93327.2 54620.8 92805.2 54668.8 Q 92283.2 54716.8 91670 54716.8 L 91673.6 54716.8 Z M 91134.8 42871.6 Q 89766.8 42871.6 88968.8 43807.6 Q 88170.8 44743.6 88040 46532.8 L 93944 46532.8 Q 93944 45716.8 93782 45038.8 Q 93620 44360.8 93278 43880.8 Q 92936 43400.8 92408 43136.8 Q 91880 42872.8 91136 42872.8 L 91134.8 42871.6 Z M 103174.8 41060.8 Q 103521.6 41060.8 103953.6 41090.8 Q 104385.6 41120.8 104697.6 41182 L 104409.6 43198 Q 104073.6 43136.8 103719.6 43094.8 Q 103365.6 43052.8 103053.6 43052.8 Q 102296.4 43052.8 101672.4 43358.8 Q 101048.4 43664.8 100598.4 44234.8 Q 100148.4 44804.8 99902.4 45602.8 Q 99656.4 46400.8 99656.4 47374 L 99656.4 54478 L 97472.4 54478 L 97472.4 41302 L 99248.4 41302 L 99512.4 43712.8 L 99608.4 43712.8 Q 99909.6 43198 100251.6 42718 Q 100593.6 42238 101019.6 41872 Q 101445.6 41506 101973.6 41284 Q 102501.6 41062 103173.6 41062 L 103174.8 41060.8 Z M 112685.2 54476.8 L 112240 52652.8 L 112144 52652.8 Q 111749.2 53191.6 111353.2 53581.6 Q 110957.2 53971.6 110489.2 54223.6 Q 110021.2 54475.6 109445.2 54595.6 Q 108869.2 54715.6 108112 54715.6 Q 107285.2 54715.6 106589.2 54481.6 Q 105893.2 54247.6 105383.2 53761.6 Q 104873.2 53275.6 104585.2 52537.6 Q 104297.2 51799.6 104297.2 50791.6 Q 104297.2 48823.6 105683.2 47767.6 Q 107069.2 46711.6 109901.2 46615.6 L 112109.2 46532.8 L 112109.2 45703.6 Q 112109.2 44900.8 111935.2 44360.8 Q 111761.2 43820.8 111431.2 43490.8 Q 111101.2 43160.8 110615.2 43016.8 Q 110129.2 42872.8 109505.2 42872.8 Q 108510.4 42872.8 107652.4 43160.8 Q 106794.4 43448.8 106002.4 43856.8 L 105234.4 42214 Q 106122.4 41734 107214.4 41398 Q 108306.4 41062 109506.4 41062 Q 110730.4 41062 111624.4 41308 Q 112518.4 41554 113100.4 42088 Q 113682.4 42622 113970.4 43450 Q 114258.4 44278 114258.4 45454 L 114258.4 54478 L 112687.6 54478 L 112685.2 54476.8 Z M 108677.2 52951.6 Q 109408 52951.6 110032 52723.6 Q 110656 52495.6 111112 52033.6 Q 111568 51571.6 111826 50869.6 Q 112084 50167.6 112084 49220.8 L 112084 48031.6 L 110366.8 48116.8 Q 109286.8 48164.8 108554.8 48356.8 Q 107822.8 48548.8 107384.8 48890.8 Q 106946.8 49232.8 106754.8 49718.8 Q 106562.8 50204.8 106562.8 50815.6 Q 106562.8 51919.6 107144.8 52435.6 Q 107726.8 52951.6 108676 52951.6 L 108677.2 52951.6 Z M 127840.4 54476.8 L 127395.2 52652.8 L 127299.2 52652.8 Q 126904.4 53191.6 126508.4 53581.6 Q 126112.4 53971.6 125644.4 54223.6 Q 125176.4 54475.6 124600.4 54595.6 Q 124024.4 54715.6 123267.2 54715.6 Q 122440.4 54715.6 121744.4 54481.6 Q 121048.4 54247.6 120538.4 53761.6 Q 120028.4 53275.6 119740.4 52537.6 Q 119452.4 51799.6 119452.4 50791.6 Q 119452.4 48823.6 120838.4 47767.6 Q 122224.4 46711.6 125056.4 46615.6 L 127264.4 46532.8 L 127264.4 45703.6 Q 127264.4 44900.8 127090.4 44360.8 Q 126916.4 43820.8 126586.4 43490.8 Q 126256.4 43160.8 125770.4 43016.8 Q 125284.4 42872.8 124660.4 42872.8 Q 123665.6 42872.8 122807.6 43160.8 Q 121949.6 43448.8 121157.6 43856.8 L 120389.6 42214 Q 121277.6 41734 122369.6 41398 Q 123461.6 41062 124661.6 41062 Q 125885.6 41062 126779.6 41308 Q 127673.6 41554 128255.6 42088 Q 128837.6 42622 129125.6 43450 Q 129413.6 44278 129413.6 45454 L 129413.6 54478 L 127842.8 54478 L 127840.4 54476.8 Z M 123832.4 52951.6 Q 124563.2 52951.6 125187.2 52723.6 Q 125811.2 52495.6 126267.2 52033.6 Q 126723.2 51571.6 126981.2 50869.6 Q 127239.2 50167.6 127239.2 49220.8 L 127239.2 48031.6 L 125522 48116.8 Q 124442 48164.8 123710 48356.8 Q 122978 48548.8 122540 48890.8 Q 122102 49232.8 121910 49718.8 Q 121718 50204.8 121718 50815.6 Q 121718 51919.6 122300 52435.6 Q 122882 52951.6 123831.2 52951.6 L 123832.4 52951.6 Z M 139850 54476.8 L 139524.8 52711.6 L 139404.8 52711.6 Q 139106 53228.8 138692 53606.8 Q 138278 53984.8 137786 54230.8 Q 137294 54476.8 136742 54596.8 Q 136190 54716.8 135614 54716.8 Q 134523.2 54716.8 133695.2 54440.8 Q 132867.2 54164.8 132315.2 53576.8 Q 131763.2 52988.8 131481.2 52076.8 Q 131199.2 51164.8 131199.2 49903.6 L 131199.2 41300.8 L 133383.2 41300.8 L 133383.2 49783.6 Q 133383.2 51343.6 134019.2 52123.6 Q 134655.2 52903.6 135988.4 52903.6 Q 136959.2 52903.6 137619.2 52591.6 Q 138279.2 52279.6 138681.2 51673.6 Q 139083.2 51067.6 139257.2 50179.6 Q 139431.2 49291.6 139431.2 48139.6 L 139431.2 41299.6 L 141615.2 41299.6 L 141615.2 54475.6 L 139852.4 54475.6 L 139850 54476.8 Z M 147691.2 52927.6 Q 147907.2 52927.6 148177.2 52903.6 Q 148447.2 52879.6 148699.2 52843.6 Q 148951.2 52807.6 149161.2 52759.6 Q 149371.2 52711.6 149480.4 52676.8 L 149480.4 54332.8 Q 149323.2 54404.8 149083.2 54476.8 Q 148843.2 54548.8 148555.2 54602.8 Q 148267.2 54656.8 147955.2 54686.8 Q 147643.2 54716.8 147344.4 54716.8 Q 146600.4 54716.8 145964.4 54524.8 Q 145328.4 54332.8 144866.4 53864.8 Q 144404.4 53396.8 144140.4 52598.8 Q 143876.4 51800.8 143876.4 50590 L 143876.4 42944.8 L 142017.6 42944.8 L 142017.6 41974 L 143876.4 41038 L 144812.4 38278 L 146073.6 38278 L 146073.6 41302 L 149385.6 41302 L 149385.6 42944.8 L 146073.6 42944.8 L 146073.6 50590 Q 146073.6 51752.8 146451.6 52340.8 Q 146829.6 52928.8 147693.6 52928.8 L 147691.2 52927.6 Z M 160694.8 47863.6 Q 160694.8 49508.8 160292.8 50786.8 Q 159890.8 52064.8 159140.8 52934.8 Q 158390.8 53804.8 157322.8 54260.8 Q 156254.8 54716.8 154921.6 54716.8 Q 153686.8 54716.8 152642.8 54260.8 Q 151598.8 53804.8 150836.8 52934.8 Q 150074.8 52064.8 149648.8 50786.8 Q 149222.8 49508.8 149222.8 47863.6 Q 149222.8 46231.6 149624.8 44965.6 Q 150026.8 43699.6 150770.8 42829.6 Q 151514.8 41959.6 152588.8 41509.6 Q 153662.8 41059.6 154993.6 41059.6 Q 156230.8 41059.6 157274.8 41509.6 Q 158318.8 41959.6 159080.8 42829.6 Q 159842.8 43699.6 160268.8 44965.6 Q 160694.8 46231.6 160694.8 47863.6  Z M 151478.8 47863.6 Q 151478.8 50372.8 152300.8 51638.8 Q 153122.8 52904.8 154970.8 52904.8 Q 156818.8 52904.8 157628.8 51638.8 Q 158438.8 50372.8 158438.8 47863.6 Q 158438.8 45356.8 157616.8 44114.8 Q 156794.8 42872.8 154946.8 42872.8 Q 153098.8 42872.8 152288.8 44114.8 Q 151478.8 45356.8 151478.8 47863.6  Z M 153606.4 39260.8 Q 153870.4 38911.6 154152.4 38455.6 Q 154434.4 37999.6 154716.4 37513.6 Q 154998.4 37027.6 155250.4 36541.6 Q 155502.4 36055.6 155694.4 35647.6 L 158321.2 35647.6 L 158321.2 35900.8 Q 158129.2 36223.6 157751.2 36709.6 Q 157373.2 37195.6 156911.2 37723.6 Q 156449.2 38251.6 155963.2 38749.6 Q 155477.2 39247.6 155056 39583.6 L 153605.2 39583.6 L 153605.2 39260.8 L 153606.4 39260.8 Z M 170320 54476.8 L 170320 45991.6 Q 170320 44431.6 169690 43651.6 Q 169060 42871.6 167716 42871.6 Q 166742.8 42871.6 166082.8 43183.6 Q 165422.8 43495.6 165020.8 44107.6 Q 164618.8 44719.6 164444.8 45607.6 Q 164270.8 46495.6 164270.8 47647.6 L 164270.8 54476.8 L 162086.8 54476.8 L 162086.8 41300.8 L 163862.8 41300.8 L 164174.8 43076.8 L 164294.8 43076.8 Q 164596 42559.6 165010 42181.6 Q 165424 41803.6 165916 41551.6 Q 166408 41299.6 166960 41179.6 Q 167512 41059.6 168088 41059.6 Q 170285.2 41059.6 171395.2 42205.6 Q 172505.2 43351.6 172505.2 45871.6 L 172505.2 54476.8 L 170321.2 54476.8 L 170320 54476.8 Z M 185219.6 47863.6 Q 185219.6 49508.8 184817.6 50786.8 Q 184415.6 52064.8 183665.6 52934.8 Q 182915.6 53804.8 181847.6 54260.8 Q 180779.6 54716.8 179446.4 54716.8 Q 178211.6 54716.8 177167.6 54260.8 Q 176123.6 53804.8 175361.6 52934.8 Q 174599.6 52064.8 174173.6 50786.8 Q 173747.6 49508.8 173747.6 47863.6 Q 173747.6 46231.6 174149.6 44965.6 Q 174551.6 43699.6 175295.6 42829.6 Q 176039.6 41959.6 177113.6 41509.6 Q 178187.6 41059.6 179518.4 41059.6 Q 180755.6 41059.6 181799.6 41509.6 Q 182843.6 41959.6 183605.6 42829.6 Q 184367.6 43699.6 184793.6 44965.6 Q 185219.6 46231.6 185219.6 47863.6  Z M 176003.6 47863.6 Q 176003.6 50372.8 176825.6 51638.8 Q 177647.6 52904.8 179495.6 52904.8 Q 181343.6 52904.8 182153.6 51638.8 Q 182963.6 50372.8 182963.6 47863.6 Q 182963.6 45356.8 182141.6 44114.8 Q 181319.6 42872.8 179471.6 42872.8 Q 177623.6 42872.8 176813.6 44114.8 Q 176003.6 45356.8 176003.6 47863.6  Z M 202394 54476.8 L 202394 45991.6 Q 202394 44431.6 201794 43651.6 Q 201194 42871.6 199932.8 42871.6 Q 199058 42871.6 198446 43153.6 Q 197834 43435.6 197444 43981.6 Q 197054 44527.6 196874 45337.6 Q 196694 46147.6 196694 47203.6 L 196694 54475.6 L 194499.2 54475.6 L 194499.2 45990.4 Q 194499.2 44430.4 193905.2 43650.4 Q 193311.2 42870.4 192052.4 42870.4 Q 191127.2 42870.4 190503.2 43182.4 Q 189879.2 43494.4 189501.2 44106.4 Q 189123.2 44718.4 188961.2 45606.4 Q 188799.2 46494.4 188799.2 47646.4 L 188799.2 54475.6 L 186615.2 54475.6 L 186615.2 41299.6 L 188391.2 41299.6 L 188703.2 43075.6 L 188823.2 43075.6 Q 189111.2 42558.4 189507.2 42180.4 Q 189903.2 41802.4 190377.2 41550.4 Q 190851.2 41298.4 191385.2 41178.4 Q 191919.2 41058.4 192471.2 41058.4 Q 193911.2 41058.4 194865.2 41586.4 Q 195819.2 42114.4 196275.2 43242.4 L 196371.2 43242.4 Q 196683.2 42677.2 197121.2 42269.2 Q 197559.2 41861.2 198081.2 41591.2 Q 198603.2 41321.2 199179.2 41189.2 Q 199755.2 41057.2 200355.2 41057.2 Q 202454 41057.2 203516 42203.2 Q 204578 43349.2 204578 45869.2 L 204578 54474.4 L 202394 54474.4 L 202394 54476.8 Z M 213958.8 54476.8 L 213513.6 52652.8 L 213417.6 52652.8 Q 213022.8 53191.6 212626.8 53581.6 Q 212230.8 53971.6 211762.8 54223.6 Q 211294.8 54475.6 210718.8 54595.6 Q 210142.8 54715.6 209385.6 54715.6 Q 208558.8 54715.6 207862.8 54481.6 Q 207166.8 54247.6 206656.8 53761.6 Q 206146.8 53275.6 205858.8 52537.6 Q 205570.8 51799.6 205570.8 50791.6 Q 205570.8 48823.6 206956.8 47767.6 Q 208342.8 46711.6 211174.8 46615.6 L 213382.8 46532.8 L 213382.8 45703.6 Q 213382.8 44900.8 213208.8 44360.8 Q 213034.8 43820.8 212704.8 43490.8 Q 212374.8 43160.8 211888.8 43016.8 Q 211402.8 42872.8 210778.8 42872.8 Q 209784 42872.8 208926 43160.8 Q 208068 43448.8 207276 43856.8 L 206508 42214 Q 207396 41734 208488 41398 Q 209580 41062 210780 41062 Q 212004 41062 212898 41308 Q 213792 41554 214374 42088 Q 214956 42622 215244 43450 Q 215532 44278 215532 45454 L 215532 54478 L 213961.2 54478 L 213958.8 54476.8 Z M 209950.8 52951.6 Q 210681.6 52951.6 211305.6 52723.6 Q 211929.6 52495.6 212385.6 52033.6 Q 212841.6 51571.6 213099.6 50869.6 Q 213357.6 50167.6 213357.6 49220.8 L 213357.6 48031.6 L 211640.4 48116.8 Q 210560.4 48164.8 209828.4 48356.8 Q 209096.4 48548.8 208658.4 48890.8 Q 208220.4 49232.8 208028.4 49718.8 Q 207836.4 50204.8 207836.4 50815.6 Q 207836.4 51919.6 208418.4 52435.6 Q 209000.4 52951.6 209949.6 52951.6 L 209950.8 52951.6 Z " fill-rule="nonzero" style="fill:#535353;;fill-opacity:1;"/>
</svg>