<svg version="1.1" x="0" y="0" width="100%" height="100%" viewBox="0 0 515020.8 37836.8" xmlns="http://www.w3.org/2000/svg">
  <path d="M 18765.2 16034.8 Q 18765.2 18064 18279.2 19732 Q 17793.2 21400 16833.2 22588 Q 15873.2 23776 14451.2 24424 Q 13029.2 25072 11168 25072 Q 9213.2 25072 7779.2 24424 Q 6345.2 23776 5403.2 22588 Q 4461.2 21400 4005.2 19726 Q 3549.2 18052 3549.2 16012 Q 3549.2 13972 4005.2 12310 Q 4461.2 10648 5409.2 9472 Q 6357.2 8296 7797.2 7654 Q 9237.2 7012 11192 7012 Q 13053.2 7012 14463.2 7654 Q 15873.2 8296 16833.2 9478 Q 17793.2 10660 18279.2 12322 Q 18765.2 13984 18765.2 16034.8  Z M 5912 16034.8 Q 5912 17680 6224 18994 Q 6536 20308 7178 21226 Q 7820 22144 8810 22630 Q 9800 23116 11168 23116 Q 12536 23116 13526 22630 Q 14516 22144 15158 21226 Q 15800 20308 16100 18994 Q 16400 17680 16400 16034.8 Q 16400 14378.8 16100 13070.8 Q 15800 11762.8 15164 10856.8 Q 14528 9950.8 13544 9464.8 Q 12560 8978.8 11192 8978.8 Q 9824 8978.8 8828 9464.8 Q 7832 9950.8 7184 10856.8 Q 6536 11762.8 6224 13070.8 Q 5912 14378.8 5912 16034.8  Z M 25965.2 11416 Q 26312 11416 26744 11446 Q 27176 11476 27488 11537.2 L 27200 13553.2 Q 26864 13492 26510 13450 Q 26156 13408 25844 13408 Q 25086.8 13408 24462.8 13714 Q 23838.8 14020 23388.8 14590 Q 22938.8 15160 22692.8 15958 Q 22446.8 16756 22446.8 17729.2 L 22446.8 24833.2 L 20262.8 24833.2 L 20262.8 11657.2 L 22038.8 11657.2 L 22302.8 14068 L 22398.8 14068 Q 22700 13553.2 23042 13073.2 Q 23384 12593.2 23810 12227.2 Q 24236 11861.2 24764 11639.2 Q 25292 11417.2 25964 11417.2 L 25965.2 11416 Z M 30230.4 24832 L 28046.4 24832 L 28046.4 11656 L 30230.4 11656 L 30230.4 24832 Z M 27878.4 8090.8 Q 27878.4 7370.8 28244.4 7046.8 Q 28610.4 6722.8 29149.2 6722.8 Q 29413.2 6722.8 29647.2 6800.8 Q 29881.2 6878.8 30055.2 7046.8 Q 30229.2 7214.8 30331.2 7472.8 Q 30433.2 7730.8 30433.2 8090.8 Q 30433.2 8786.8 30055.2 9128.8 Q 29677.2 9470.8 29149.2 9470.8 Q 28610.4 9470.8 28244.4 9134.8 Q 27878.4 8798.8 27878.4 8089.6 L 27878.4 8090.8 Z M 37504 25072 Q 36184 25072 35092 24628 Q 34000 24184 33214 23332 Q 32428 22480 31996 21220 Q 31564 19960 31564 18338.8 Q 31564 16706.8 31960 15422.8 Q 32356 14138.8 33076 13244.8 Q 33796 12350.8 34798 11882.8 Q 35800 11414.8 37013.2 11414.8 Q 38200 11414.8 39148 11840.8 Q 40096 12266.8 40756 13040.8 Q 41416 13814.8 41770 14900.8 Q 42124 15986.8 42124 17306.8 L 42124 18664 L 33820 18664 Q 33878.8 20978.8 34796.8 22070.8 Q 35714.8 23162.8 37525.6 23162.8 Q 38138.8 23162.8 38660.8 23102.8 Q 39182.8 23042.8 39668.8 22928.8 Q 40154.8 22814.8 40610.8 22640.8 Q 41066.8 22466.8 41533.6 22250.8 L 41533.6 24194.8 Q 41053.6 24424 40591.6 24592 Q 40129.6 24760 39643.6 24868 Q 39157.6 24976 38635.6 25024 Q 38113.6 25072 37500.4 25072 L 37504 25072 Z M 36965.2 13226.8 Q 35597.2 13226.8 34799.2 14162.8 Q 34001.2 15098.8 33870.4 16888 L 39774.4 16888 Q 39774.4 16072 39612.4 15394 Q 39450.4 14716 39108.4 14236 Q 38766.4 13756 38238.4 13492 Q 37710.4 13228 36966.4 13228 L 36965.2 13226.8 Z M 51536 24832 L 51536 16346.8 Q 51536 14786.8 50906 14006.8 Q 50276 13226.8 48932 13226.8 Q 47958.8 13226.8 47298.8 13538.8 Q 46638.8 13850.8 46236.8 14462.8 Q 45834.8 15074.8 45660.8 15962.8 Q 45486.8 16850.8 45486.8 18002.8 L 45486.8 24832 L 43302.8 24832 L 43302.8 11656 L 45078.8 11656 L 45390.8 13432 L 45510.8 13432 Q 45812 12914.8 46226 12536.8 Q 46640 12158.8 47132 11906.8 Q 47624 11654.8 48176 11534.8 Q 48728 11414.8 49304 11414.8 Q 51501.2 11414.8 52611.2 12560.8 Q 53721.2 13706.8 53721.2 16226.8 L 53721.2 24832 L 51537.2 24832 L 51536 24832 Z M 59678.4 23282.8 Q 59894.4 23282.8 60164.4 23258.8 Q 60434.4 23234.8 60686.4 23198.8 Q 60938.4 23162.8 61148.4 23114.8 Q 61358.4 23066.8 61467.6 23032 L 61467.6 24688 Q 61310.4 24760 61070.4 24832 Q 60830.4 24904 60542.4 24958 Q 60254.4 25012 59942.4 25042 Q 59630.4 25072 59331.6 25072 Q 58587.6 25072 57951.6 24880 Q 57315.6 24688 56853.6 24220 Q 56391.6 23752 56127.6 22954 Q 55863.6 22156 55863.6 20945.2 L 55863.6 13300 L 54004.8 13300 L 54004.8 12329.2 L 55863.6 11393.2 L 56799.6 8633.2 L 58060.8 8633.2 L 58060.8 11657.2 L 61372.8 11657.2 L 61372.8 13300 L 58060.8 13300 L 58060.8 20945.2 Q 58060.8 22108 58438.8 22696 Q 58816.8 23284 59680.8 23284 L 59678.4 23282.8 Z M 69370 24832 L 68924.8 23008 L 68828.8 23008 Q 68434 23546.8 68038 23936.8 Q 67642 24326.8 67174 24578.8 Q 66706 24830.8 66130 24950.8 Q 65554 25070.8 64796.8 25070.8 Q 63970 25070.8 63274 24836.8 Q 62578 24602.8 62068 24116.8 Q 61558 23630.8 61270 22892.8 Q 60982 22154.8 60982 21146.8 Q 60982 19178.8 62368 18122.8 Q 63754 17066.8 66586 16970.8 L 68794 16888 L 68794 16058.8 Q 68794 15256 68620 14716 Q 68446 14176 68116 13846 Q 67786 13516 67300 13372 Q 66814 13228 66190 13228 Q 65195.2 13228 64337.2 13516 Q 63479.2 13804 62687.2 14212 L 61919.2 12569.2 Q 62807.2 12089.2 63899.2 11753.2 Q 64991.2 11417.2 66191.2 11417.2 Q 67415.2 11417.2 68309.2 11663.2 Q 69203.2 11909.2 69785.2 12443.2 Q 70367.2 12977.2 70655.2 13805.2 Q 70943.2 14633.2 70943.2 15809.2 L 70943.2 24833.2 L 69372.4 24833.2 L 69370 24832 Z M 65362 23306.8 Q 66092.8 23306.8 66716.8 23078.8 Q 67340.8 22850.8 67796.8 22388.8 Q 68252.8 21926.8 68510.8 21224.8 Q 68768.8 20522.8 68768.8 19576 L 68768.8 18386.8 L 67051.6 18472 Q 65971.6 18520 65239.6 18712 Q 64507.6 18904 64069.6 19246 Q 63631.6 19588 63439.6 20074 Q 63247.6 20560 63247.6 21170.8 Q 63247.6 22274.8 63829.6 22790.8 Q 64411.6 23306.8 65360.8 23306.8 L 65362 23306.8 Z M 77886.4 25072 Q 76675.6 25072 75619.6 24694 Q 74563.6 24316 73783.6 23494 Q 73003.6 22672 72559.6 21394 Q 72115.6 20116 72115.6 18316 Q 72115.6 16433.2 72571.6 15119.2 Q 73027.6 13805.2 73825.6 12983.2 Q 74623.6 12161.2 75691.6 11789.2 Q 76759.6 11417.2 77983.6 11417.2 Q 78919.6 11417.2 79813.6 11621.2 Q 80707.6 11825.2 81307.6 12124 L 80659.6 13972 Q 80382.4 13852 80046.4 13738 Q 79710.4 13624 79350.4 13534 Q 78990.4 13444 78642.4 13390 Q 78294.4 13336 77982.4 13336 Q 76099.6 13336 75235.6 14542 Q 74371.6 15748 74371.6 18292 Q 74371.6 20825.2 75241.6 21995.2 Q 76111.6 23165.2 77887.6 23165.2 Q 78860.8 23165.2 79646.8 22943.2 Q 80432.8 22721.2 81080.8 22420 L 81080.8 24364 Q 80432.8 24713.2 79694.8 24893.2 Q 78956.8 25073.2 77887.6 25073.2 L 77886.4 25072 Z M 84348.8 24832 L 82164.8 24832 L 82164.8 11656 L 84348.8 11656 L 84348.8 24832 Z M 81996.8 8090.8 Q 81996.8 7370.8 82362.8 7046.8 Q 82728.8 6722.8 83267.6 6722.8 Q 83531.6 6722.8 83765.6 6800.8 Q 83999.6 6878.8 84173.6 7046.8 Q 84347.6 7214.8 84449.6 7472.8 Q 84551.6 7730.8 84551.6 8090.8 Q 84551.6 8786.8 84173.6 9128.8 Q 83795.6 9470.8 83267.6 9470.8 Q 82728.8 9470.8 82362.8 9134.8 Q 81996.8 8798.8 81996.8 8089.6 L 81996.8 8090.8 Z M 97155.6 18218.8 Q 97155.6 19864 96753.6 21142 Q 96351.6 22420 95601.6 23290 Q 94851.6 24160 93783.6 24616 Q 92715.6 25072 91382.4 25072 Q 90147.6 25072 89103.6 24616 Q 88059.6 24160 87297.6 23290 Q 86535.6 22420 86109.6 21142 Q 85683.6 19864 85683.6 18218.8 Q 85683.6 16586.8 86085.6 15320.8 Q 86487.6 14054.8 87231.6 13184.8 Q 87975.6 12314.8 89049.6 11864.8 Q 90123.6 11414.8 91454.4 11414.8 Q 92691.6 11414.8 93735.6 11864.8 Q 94779.6 12314.8 95541.6 13184.8 Q 96303.6 14054.8 96729.6 15320.8 Q 97155.6 16586.8 97155.6 18218.8  Z M 87939.6 18218.8 Q 87939.6 20728 88761.6 21994 Q 89583.6 23260 91431.6 23260 Q 93279.6 23260 94089.6 21994 Q 94899.6 20728 94899.6 18218.8 Q 94899.6 15712 94077.6 14470 Q 93255.6 13228 91407.6 13228 Q 89559.6 13228 88749.6 14470 Q 87939.6 15712 87939.6 18218.8  Z M 90067.2 9616 Q 90331.2 9266.8 90613.2 8810.8 Q 90895.2 8354.8 91177.2 7868.8 Q 91459.2 7382.8 91711.2 6896.8 Q 91963.2 6410.8 92155.2 6002.8 L 94782 6002.8 L 94782 6256 Q 94590 6578.8 94212 7064.8 Q 93834 7550.8 93372 8078.8 Q 92910 8606.8 92424 9104.8 Q 91938 9602.8 91516.8 9938.8 L 90066 9938.8 L 90066 9616 L 90067.2 9616 Z M 106780.8 24832 L 106780.8 16346.8 Q 106780.8 14786.8 106150.8 14006.8 Q 105520.8 13226.8 104176.8 13226.8 Q 103203.6 13226.8 102543.6 13538.8 Q 101883.6 13850.8 101481.6 14462.8 Q 101079.6 15074.8 100905.6 15962.8 Q 100731.6 16850.8 100731.6 18002.8 L 100731.6 24832 L 98547.6 24832 L 98547.6 11656 L 100323.6 11656 L 100635.6 13432 L 100755.6 13432 Q 101056.8 12914.8 101470.8 12536.8 Q 101884.8 12158.8 102376.8 11906.8 Q 102868.8 11654.8 103420.8 11534.8 Q 103972.8 11414.8 104548.8 11414.8 Q 106746 11414.8 107856 12560.8 Q 108966 13706.8 108966 16226.8 L 108966 24832 L 106782 24832 L 106780.8 24832 Z M 121140.8 25072 Q 120434 25072 119858 24916 Q 119282 24760 118820 24502 Q 118358 24244 118004 23896 Q 117650 23548 117372.8 23164 L 117228.8 23164 Q 117266 23572 117300.8 23945.2 Q 117324.8 24257.2 117348.8 24587.2 Q 117372.8 24917.2 117372.8 25109.2 L 117372.8 30736 L 115188.8 30736 L 115188.8 11656 L 116964.8 11656 L 117276.8 13432 L 117372.8 13432 Q 117650 13010.8 117998 12644.8 Q 118346 12278.8 118808 12008.8 Q 119270 11738.8 119846 11576.8 Q 120422 11414.8 121142 11414.8 Q 122270 11414.8 123194 11846.8 Q 124118 12278.8 124772 13136.8 Q 125426 13994.8 125786 15266.8 Q 126146 16538.8 126146 18218.8 Q 126146 19912 125786 21190 Q 125426 22468 124772 23332 Q 124118 24196 123194 24634 Q 122270 25072 121142 25072 L 121140.8 25072 Z M 120722 13226.8 Q 119810 13226.8 119180 13502.8 Q 118550 13778.8 118160 14342.8 Q 117770 14906.8 117584 15746.8 Q 117398 16586.8 117374 17728 L 117374 18218.8 Q 117374 19432 117536 20374 Q 117698 21316 118088 21958 Q 118478 22600 119126 22930 Q 119774 23260 120747.2 23260 Q 122366 23260 123128 21952 Q 123890 20644 123890 18196 Q 123890 15700 123128 14464 Q 122366 13228 120723.2 13228 L 120722 13226.8 Z M 135008.4 24832 L 134563.2 23008 L 134467.2 23008 Q 134072.4 23546.8 133676.4 23936.8 Q 133280.4 24326.8 132812.4 24578.8 Q 132344.4 24830.8 131768.4 24950.8 Q 131192.4 25070.8 130435.2 25070.8 Q 129608.4 25070.8 128912.4 24836.8 Q 128216.4 24602.8 127706.4 24116.8 Q 127196.4 23630.8 126908.4 22892.8 Q 126620.4 22154.8 126620.4 21146.8 Q 126620.4 19178.8 128006.4 18122.8 Q 129392.4 17066.8 132224.4 16970.8 L 134432.4 16888 L 134432.4 16058.8 Q 134432.4 15256 134258.4 14716 Q 134084.4 14176 133754.4 13846 Q 133424.4 13516 132938.4 13372 Q 132452.4 13228 131828.4 13228 Q 130833.6 13228 129975.6 13516 Q 129117.6 13804 128325.6 14212 L 127557.6 12569.2 Q 128445.6 12089.2 129537.6 11753.2 Q 130629.6 11417.2 131829.6 11417.2 Q 133053.6 11417.2 133947.6 11663.2 Q 134841.6 11909.2 135423.6 12443.2 Q 136005.6 12977.2 136293.6 13805.2 Q 136581.6 14633.2 136581.6 15809.2 L 136581.6 24833.2 L 135010.8 24833.2 L 135008.4 24832 Z M 131000.4 23306.8 Q 131731.2 23306.8 132355.2 23078.8 Q 132979.2 22850.8 133435.2 22388.8 Q 133891.2 21926.8 134149.2 21224.8 Q 134407.2 20522.8 134407.2 19576 L 134407.2 18386.8 L 132690 18472 Q 131610 18520 130878 18712 Q 130146 18904 129708 19246 Q 129270 19588 129078 20074 Q 128886 20560 128886 21170.8 Q 128886 22274.8 129468 22790.8 Q 130050 23306.8 130999.2 23306.8 L 131000.4 23306.8 Z M 144186 11416 Q 144532.8 11416 144964.8 11446 Q 145396.8 11476 145708.8 11537.2 L 145420.8 13553.2 Q 145084.8 13492 144730.8 13450 Q 144376.8 13408 144064.8 13408 Q 143307.6 13408 142683.6 13714 Q 142059.6 14020 141609.6 14590 Q 141159.6 15160 140913.6 15958 Q 140667.6 16756 140667.6 17729.2 L 140667.6 24833.2 L 138483.6 24833.2 L 138483.6 11657.2 L 140259.6 11657.2 L 140523.6 14068 L 140619.6 14068 Q 140920.8 13553.2 141262.8 13073.2 Q 141604.8 12593.2 142030.8 12227.2 Q 142456.8 11861.2 142984.8 11639.2 Q 143512.8 11417.2 144184.8 11417.2 L 144186 11416 Z M 153696.4 24832 L 153251.2 23008 L 153155.2 23008 Q 152760.4 23546.8 152364.4 23936.8 Q 151968.4 24326.8 151500.4 24578.8 Q 151032.4 24830.8 150456.4 24950.8 Q 149880.4 25070.8 149123.2 25070.8 Q 148296.4 25070.8 147600.4 24836.8 Q 146904.4 24602.8 146394.4 24116.8 Q 145884.4 23630.8 145596.4 22892.8 Q 145308.4 22154.8 145308.4 21146.8 Q 145308.4 19178.8 146694.4 18122.8 Q 148080.4 17066.8 150912.4 16970.8 L 153120.4 16888 L 153120.4 16058.8 Q 153120.4 15256 152946.4 14716 Q 152772.4 14176 152442.4 13846 Q 152112.4 13516 151626.4 13372 Q 151140.4 13228 150516.4 13228 Q 149521.6 13228 148663.6 13516 Q 147805.6 13804 147013.6 14212 L 146245.6 12569.2 Q 147133.6 12089.2 148225.6 11753.2 Q 149317.6 11417.2 150517.6 11417.2 Q 151741.6 11417.2 152635.6 11663.2 Q 153529.6 11909.2 154111.6 12443.2 Q 154693.6 12977.2 154981.6 13805.2 Q 155269.6 14633.2 155269.6 15809.2 L 155269.6 24833.2 L 153698.8 24833.2 L 153696.4 24832 Z M 149688.4 23306.8 Q 150419.2 23306.8 151043.2 23078.8 Q 151667.2 22850.8 152123.2 22388.8 Q 152579.2 21926.8 152837.2 21224.8 Q 153095.2 20522.8 153095.2 19576 L 153095.2 18386.8 L 151378 18472 Q 150298 18520 149566 18712 Q 148834 18904 148396 19246 Q 147958 19588 147766 20074 Q 147574 20560 147574 21170.8 Q 147574 22274.8 148156 22790.8 Q 148738 23306.8 149687.2 23306.8 L 149688.4 23306.8 Z M 167123.6 11416 Q 167470.4 11416 167902.4 11446 Q 168334.4 11476 168646.4 11537.2 L 168358.4 13553.2 Q 168022.4 13492 167668.4 13450 Q 167314.4 13408 167002.4 13408 Q 166245.2 13408 165621.2 13714 Q 164997.2 14020 164547.2 14590 Q 164097.2 15160 163851.2 15958 Q 163605.2 16756 163605.2 17729.2 L 163605.2 24833.2 L 161421.2 24833.2 L 161421.2 11657.2 L 163197.2 11657.2 L 163461.2 14068 L 163557.2 14068 Q 163858.4 13553.2 164200.4 13073.2 Q 164542.4 12593.2 164968.4 12227.2 Q 165394.4 11861.2 165922.4 11639.2 Q 166450.4 11417.2 167122.4 11417.2 L 167123.6 11416 Z M 174412.8 25072 Q 173092.8 25072 172000.8 24628 Q 170908.8 24184 170122.8 23332 Q 169336.8 22480 168904.8 21220 Q 168472.8 19960 168472.8 18338.8 Q 168472.8 16706.8 168868.8 15422.8 Q 169264.8 14138.8 169984.8 13244.8 Q 170704.8 12350.8 171706.8 11882.8 Q 172708.8 11414.8 173922 11414.8 Q 175108.8 11414.8 176056.8 11840.8 Q 177004.8 12266.8 177664.8 13040.8 Q 178324.8 13814.8 178678.8 14900.8 Q 179032.8 15986.8 179032.8 17306.8 L 179032.8 18664 L 170728.8 18664 Q 170787.6 20978.8 171705.6 22070.8 Q 172623.6 23162.8 174434.4 23162.8 Q 175047.6 23162.8 175569.6 23102.8 Q 176091.6 23042.8 176577.6 22928.8 Q 177063.6 22814.8 177519.6 22640.8 Q 177975.6 22466.8 178442.4 22250.8 L 178442.4 24194.8 Q 177962.4 24424 177500.4 24592 Q 177038.4 24760 176552.4 24868 Q 176066.4 24976 175544.4 25024 Q 175022.4 25072 174409.2 25072 L 174412.8 25072 Z M 173874 13226.8 Q 172506 13226.8 171708 14162.8 Q 170910 15098.8 170779.2 16888 L 176683.2 16888 Q 176683.2 16072 176521.2 15394 Q 176359.2 14716 176017.2 14236 Q 175675.2 13756 175147.2 13492 Q 174619.2 13228 173875.2 13228 L 173874 13226.8 Z M 188098 21218.8 Q 188098 22178.8 187750 22898.8 Q 187402 23618.8 186748 24104.8 Q 186094 24590.8 185170 24830.8 Q 184246 25070.8 183094 25070.8 Q 181787.2 25070.8 180851.2 24860.8 Q 179915.2 24650.8 179206 24242.8 L 179206 22250.8 Q 179579.2 22442.8 180035.2 22628.8 Q 180491.2 22814.8 180995.2 22958.8 Q 181499.2 23102.8 182033.2 23192.8 Q 182567.2 23282.8 183095.2 23282.8 Q 183876.4 23282.8 184422.4 23150.8 Q 184968.4 23018.8 185310.4 22772.8 Q 185652.4 22526.8 185808.4 22172.8 Q 185964.4 21818.8 185964.4 21386.8 Q 185964.4 21016 185844.4 20716 Q 185724.4 20416 185406.4 20122 Q 185088.4 19828 184536.4 19528 Q 183984.4 19228 183120.4 18857.2 Q 182256.4 18484 181566.4 18124 Q 180876.4 17764 180396.4 17320 Q 179916.4 16876 179658.4 16294 Q 179400.4 15712 179400.4 14906.8 Q 179400.4 14066.8 179730.4 13412.8 Q 180060.4 12758.8 180660.4 12314.8 Q 181260.4 11870.8 182100.4 11642.8 Q 182940.4 11414.8 183972.4 11414.8 Q 185135.2 11414.8 186101.2 11666.8 Q 187067.2 11918.8 187931.2 12326.8 L 187174 14089.6 Q 186395.2 13742.8 185573.2 13484.8 Q 184751.2 13226.8 183900.4 13226.8 Q 182676.4 13226.8 182088.4 13628.8 Q 181500.4 14030.8 181500.4 14774.8 Q 181500.4 15193.6 181638.4 15505.6 Q 181776.4 15817.6 182112.4 16093.6 Q 182448.4 16369.6 183012.4 16651.6 Q 183576.4 16933.6 184416.4 17280.4 Q 185280.4 17640.4 185958.4 18000.4 Q 186636.4 18360.4 187116.4 18810.4 Q 187596.4 19260.4 187848.4 19836.4 Q 188100.4 20412.4 188100.4 21215.2 L 188098 21218.8 Z M 199965.2 18218.8 Q 199965.2 19864 199563.2 21142 Q 199161.2 22420 198411.2 23290 Q 197661.2 24160 196593.2 24616 Q 195525.2 25072 194192 25072 Q 192957.2 25072 191913.2 24616 Q 190869.2 24160 190107.2 23290 Q 189345.2 22420 188919.2 21142 Q 188493.2 19864 188493.2 18218.8 Q 188493.2 16586.8 188895.2 15320.8 Q 189297.2 14054.8 190041.2 13184.8 Q 190785.2 12314.8 191859.2 11864.8 Q 192933.2 11414.8 194264 11414.8 Q 195501.2 11414.8 196545.2 11864.8 Q 197589.2 12314.8 198351.2 13184.8 Q 199113.2 14054.8 199539.2 15320.8 Q 199965.2 16586.8 199965.2 18218.8  Z M 190749.2 18218.8 Q 190749.2 20728 191571.2 21994 Q 192393.2 23260 194241.2 23260 Q 196089.2 23260 196899.2 21994 Q 197709.2 20728 197709.2 18218.8 Q 197709.2 15712 196887.2 14470 Q 196065.2 13228 194217.2 13228 Q 192369.2 13228 191559.2 14470 Q 190749.2 15712 190749.2 18218.8  Z M 203542.4 24832 L 201358.4 24832 L 201358.4 6160 L 203542.4 6160 L 203542.4 24832 Z M 208021.2 24832 L 203520 11656 L 205776 11656 L 208165.2 18986.8 Q 208296 19384 208476 20008 Q 208656 20632 208836 21280 Q 209016 21928 209166 22504 Q 209316 23080 209364 23378.8 L 209446.8 23378.8 Q 209508 23080 209652 22504 Q 209796 21928 209976 21280 Q 210156 20632 210336 20008 Q 210516 19384 210646.8 18986.8 L 213036 11656 L 215292 11656 L 210790.8 24832 L 208020 24832 L 208021.2 24832 Z M 220492.8 25072 Q 219172.8 25072 218080.8 24628 Q 216988.8 24184 216202.8 23332 Q 215416.8 22480 214984.8 21220 Q 214552.8 19960 214552.8 18338.8 Q 214552.8 16706.8 214948.8 15422.8 Q 215344.8 14138.8 216064.8 13244.8 Q 216784.8 12350.8 217786.8 11882.8 Q 218788.8 11414.8 220002 11414.8 Q 221188.8 11414.8 222136.8 11840.8 Q 223084.8 12266.8 223744.8 13040.8 Q 224404.8 13814.8 224758.8 14900.8 Q 225112.8 15986.8 225112.8 17306.8 L 225112.8 18664 L 216808.8 18664 Q 216867.6 20978.8 217785.6 22070.8 Q 218703.6 23162.8 220514.4 23162.8 Q 221127.6 23162.8 221649.6 23102.8 Q 222171.6 23042.8 222657.6 22928.8 Q 223143.6 22814.8 223599.6 22640.8 Q 224055.6 22466.8 224522.4 22250.8 L 224522.4 24194.8 Q 224042.4 24424 223580.4 24592 Q 223118.4 24760 222632.4 24868 Q 222146.4 24976 221624.4 25024 Q 221102.4 25072 220489.2 25072 L 220492.8 25072 Z M 219954 13226.8 Q 218586 13226.8 217788 14162.8 Q 216990 15098.8 216859.2 16888 L 222763.2 16888 Q 222763.2 16072 222601.2 15394 Q 222439.2 14716 222097.2 14236 Q 221755.2 13756 221227.2 13492 Q 220699.2 13228 219955.2 13228 L 219954 13226.8 Z M 231994 11416 Q 232340.8 11416 232772.8 11446 Q 233204.8 11476 233516.8 11537.2 L 233228.8 13553.2 Q 232892.8 13492 232538.8 13450 Q 232184.8 13408 231872.8 13408 Q 231115.6 13408 230491.6 13714 Q 229867.6 14020 229417.6 14590 Q 228967.6 15160 228721.6 15958 Q 228475.6 16756 228475.6 17729.2 L 228475.6 24833.2 L 226291.6 24833.2 L 226291.6 11657.2 L 228067.6 11657.2 L 228331.6 14068 L 228427.6 14068 Q 228728.8 13553.2 229070.8 13073.2 Q 229412.8 12593.2 229838.8 12227.2 Q 230264.8 11861.2 230792.8 11639.2 Q 231320.8 11417.2 231992.8 11417.2 L 231994 11416 Z M 242308.8 23282.8 Q 242524.8 23282.8 242794.8 23258.8 Q 243064.8 23234.8 243316.8 23198.8 Q 243568.8 23162.8 243778.8 23114.8 Q 243988.8 23066.8 244098 23032 L 244098 24688 Q 243940.8 24760 243700.8 24832 Q 243460.8 24904 243172.8 24958 Q 242884.8 25012 242572.8 25042 Q 242260.8 25072 241962 25072 Q 241218 25072 240582 24880 Q 239946 24688 239484 24220 Q 239022 23752 238758 22954 Q 238494 22156 238494 20945.2 L 238494 13300 L 236635.2 13300 L 236635.2 12329.2 L 238494 11393.2 L 239430 8633.2 L 240691.2 8633.2 L 240691.2 11657.2 L 244003.2 11657.2 L 244003.2 13300 L 240691.2 13300 L 240691.2 20945.2 Q 240691.2 22108 241069.2 22696 Q 241447.2 23284 242311.2 23284 L 242308.8 23282.8 Z M 253104.4 24832 L 252779.2 23066.8 L 252659.2 23066.8 Q 252360.4 23584 251946.4 23962 Q 251532.4 24340 251040.4 24586 Q 250548.4 24832 249996.4 24952 Q 249444.4 25072 248868.4 25072 Q 247777.6 25072 246949.6 24796 Q 246121.6 24520 245569.6 23932 Q 245017.6 23344 244735.6 22432 Q 244453.6 21520 244453.6 20258.8 L 244453.6 11656 L 246637.6 11656 L 246637.6 20138.8 Q 246637.6 21698.8 247273.6 22478.8 Q 247909.6 23258.8 249242.8 23258.8 Q 250213.6 23258.8 250873.6 22946.8 Q 251533.6 22634.8 251935.6 22028.8 Q 252337.6 21422.8 252511.6 20534.8 Q 252685.6 19646.8 252685.6 18494.8 L 252685.6 11654.8 L 254869.6 11654.8 L 254869.6 24830.8 L 253106.8 24830.8 L 253104.4 24832 Z M 264846.8 21218.8 Q 264846.8 22178.8 264498.8 22898.8 Q 264150.8 23618.8 263496.8 24104.8 Q 262842.8 24590.8 261918.8 24830.8 Q 260994.8 25070.8 259842.8 25070.8 Q 258536 25070.8 257600 24860.8 Q 256664 24650.8 255954.8 24242.8 L 255954.8 22250.8 Q 256328 22442.8 256784 22628.8 Q 257240 22814.8 257744 22958.8 Q 258248 23102.8 258782 23192.8 Q 259316 23282.8 259844 23282.8 Q 260625.2 23282.8 261171.2 23150.8 Q 261717.2 23018.8 262059.2 22772.8 Q 262401.2 22526.8 262557.2 22172.8 Q 262713.2 21818.8 262713.2 21386.8 Q 262713.2 21016 262593.2 20716 Q 262473.2 20416 262155.2 20122 Q 261837.2 19828 261285.2 19528 Q 260733.2 19228 259869.2 18857.2 Q 259005.2 18484 258315.2 18124 Q 257625.2 17764 257145.2 17320 Q 256665.2 16876 256407.2 16294 Q 256149.2 15712 256149.2 14906.8 Q 256149.2 14066.8 256479.2 13412.8 Q 256809.2 12758.8 257409.2 12314.8 Q 258009.2 11870.8 258849.2 11642.8 Q 259689.2 11414.8 260721.2 11414.8 Q 261884 11414.8 262850 11666.8 Q 263816 11918.8 264680 12326.8 L 263922.8 14089.6 Q 263144 13742.8 262322 13484.8 Q 261500 13226.8 260649.2 13226.8 Q 259425.2 13226.8 258837.2 13628.8 Q 258249.2 14030.8 258249.2 14774.8 Q 258249.2 15193.6 258387.2 15505.6 Q 258525.2 15817.6 258861.2 16093.6 Q 259197.2 16369.6 259761.2 16651.6 Q 260325.2 16933.6 261165.2 17280.4 Q 262029.2 17640.4 262707.2 18000.4 Q 263385.2 18360.4 263865.2 18810.4 Q 264345.2 19260.4 264597.2 19836.4 Q 264849.2 20412.4 264849.2 21215.2 L 264846.8 21218.8 Z M 278358.4 23066.8 L 278262.4 23066.8 Q 277998.4 23474.8 277644.4 23840.8 Q 277290.4 24206.8 276828.4 24482.8 Q 276366.4 24758.8 275790.4 24914.8 Q 275214.4 25070.8 274494.4 25070.8 Q 273379.6 25070.8 272455.6 24638.8 Q 271531.6 24206.8 270871.6 23348.8 Q 270211.6 22490.8 269851.6 21218.8 Q 269491.6 19946.8 269491.6 18266.8 Q 269491.6 16576 269851.6 15298 Q 270211.6 14020 270871.6 13156 Q 271531.6 12292 272455.6 11854 Q 273379.6 11416 274494.4 11416 Q 275203.6 11416 275779.6 11572 Q 276355.6 11728 276817.6 11992 Q 277279.6 12256 277639.6 12604 Q 277999.6 12952 278263.6 13336 L 278407.6 13336 Q 278372.8 12928 278335.6 12554.8 Q 278311.6 12242.8 278287.6 11912.8 Q 278263.6 11582.8 278263.6 11390.8 L 278263.6 6158.8 L 280447.6 6158.8 L 280447.6 24830.8 L 278684.8 24830.8 L 278359.6 23065.6 L 278358.4 23066.8 Z M 274915.6 23258.8 Q 275827.6 23258.8 276457.6 22982.8 Q 277087.6 22706.8 277477.6 22142.8 Q 277867.6 21578.8 278053.6 20732.8 Q 278239.6 19886.8 278263.6 18758.8 L 278263.6 18265.6 Q 278263.6 17054.8 278101.6 16112.8 Q 277939.6 15170.8 277549.6 14528.8 Q 277159.6 13886.8 276511.6 13556.8 Q 275863.6 13226.8 274892.8 13226.8 Q 273271.6 13226.8 272509.6 14534.8 Q 271747.6 15842.8 271747.6 18290.8 Q 271747.6 20800 272509.6 22030 Q 273271.6 23260 274916.8 23260 L 274915.6 23258.8 Z M 291146 24832 L 290820.8 23066.8 L 290700.8 23066.8 Q 290402 23584 289988 23962 Q 289574 24340 289082 24586 Q 288590 24832 288038 24952 Q 287486 25072 286910 25072 Q 285819.2 25072 284991.2 24796 Q 284163.2 24520 283611.2 23932 Q 283059.2 23344 282777.2 22432 Q 282495.2 21520 282495.2 20258.8 L 282495.2 11656 L 284679.2 11656 L 284679.2 20138.8 Q 284679.2 21698.8 285315.2 22478.8 Q 285951.2 23258.8 287284.4 23258.8 Q 288255.2 23258.8 288915.2 22946.8 Q 289575.2 22634.8 289977.2 22028.8 Q 290379.2 21422.8 290553.2 20534.8 Q 290727.2 19646.8 290727.2 18494.8 L 290727.2 11654.8 L 292911.2 11654.8 L 292911.2 24830.8 L 291148.4 24830.8 L 291146 24832 Z M 303139.2 23066.8 L 303043.2 23066.8 Q 302779.2 23474.8 302425.2 23840.8 Q 302071.2 24206.8 301609.2 24482.8 Q 301147.2 24758.8 300571.2 24914.8 Q 299995.2 25070.8 299275.2 25070.8 Q 298160.4 25070.8 297236.4 24638.8 Q 296312.4 24206.8 295652.4 23348.8 Q 294992.4 22490.8 294632.4 21218.8 Q 294272.4 19946.8 294272.4 18266.8 Q 294272.4 16576 294632.4 15298 Q 294992.4 14020 295652.4 13156 Q 296312.4 12292 297236.4 11854 Q 298160.4 11416 299275.2 11416 Q 299984.4 11416 300560.4 11572 Q 301136.4 11728 301598.4 11992 Q 302060.4 12256 302420.4 12604 Q 302780.4 12952 303044.4 13336 L 303188.4 13336 Q 303153.6 12928 303116.4 12554.8 Q 303092.4 12242.8 303068.4 11912.8 Q 303044.4 11582.8 303044.4 11390.8 L 303044.4 6158.8 L 305228.4 6158.8 L 305228.4 24830.8 L 303465.6 24830.8 L 303140.4 23065.6 L 303139.2 23066.8 Z M 299696.4 23258.8 Q 300608.4 23258.8 301238.4 22982.8 Q 301868.4 22706.8 302258.4 22142.8 Q 302648.4 21578.8 302834.4 20732.8 Q 303020.4 19886.8 303044.4 18758.8 L 303044.4 18265.6 Q 303044.4 17054.8 302882.4 16112.8 Q 302720.4 15170.8 302330.4 14528.8 Q 301940.4 13886.8 301292.4 13556.8 Q 300644.4 13226.8 299673.6 13226.8 Q 298052.4 13226.8 297290.4 14534.8 Q 296528.4 15842.8 296528.4 18290.8 Q 296528.4 20800 297290.4 22030 Q 298052.4 23260 299697.6 23260 L 299696.4 23258.8 Z M 314822.8 24832 L 314377.6 23008 L 314281.6 23008 Q 313886.8 23546.8 313490.8 23936.8 Q 313094.8 24326.8 312626.8 24578.8 Q 312158.8 24830.8 311582.8 24950.8 Q 311006.8 25070.8 310249.6 25070.8 Q 309422.8 25070.8 308726.8 24836.8 Q 308030.8 24602.8 307520.8 24116.8 Q 307010.8 23630.8 306722.8 22892.8 Q 306434.8 22154.8 306434.8 21146.8 Q 306434.8 19178.8 307820.8 18122.8 Q 309206.8 17066.8 312038.8 16970.8 L 314246.8 16888 L 314246.8 16058.8 Q 314246.8 15256 314072.8 14716 Q 313898.8 14176 313568.8 13846 Q 313238.8 13516 312752.8 13372 Q 312266.8 13228 311642.8 13228 Q 310648 13228 309790 13516 Q 308932 13804 308140 14212 L 307372 12569.2 Q 308260 12089.2 309352 11753.2 Q 310444 11417.2 311644 11417.2 Q 312868 11417.2 313762 11663.2 Q 314656 11909.2 315238 12443.2 Q 315820 12977.2 316108 13805.2 Q 316396 14633.2 316396 15809.2 L 316396 24833.2 L 314825.2 24833.2 L 314822.8 24832 Z M 310814.8 23306.8 Q 311545.6 23306.8 312169.6 23078.8 Q 312793.6 22850.8 313249.6 22388.8 Q 313705.6 21926.8 313963.6 21224.8 Q 314221.6 20522.8 314221.6 19576 L 314221.6 18386.8 L 312504.4 18472 Q 311424.4 18520 310692.4 18712 Q 309960.4 18904 309522.4 19246 Q 309084.4 19588 308892.4 20074 Q 308700.4 20560 308700.4 21170.8 Q 308700.4 22274.8 309282.4 22790.8 Q 309864.4 23306.8 310813.6 23306.8 L 310814.8 23306.8 Z M 326184.4 21218.8 Q 326184.4 22178.8 325836.4 22898.8 Q 325488.4 23618.8 324834.4 24104.8 Q 324180.4 24590.8 323256.4 24830.8 Q 322332.4 25070.8 321180.4 25070.8 Q 319873.6 25070.8 318937.6 24860.8 Q 318001.6 24650.8 317292.4 24242.8 L 317292.4 22250.8 Q 317665.6 22442.8 318121.6 22628.8 Q 318577.6 22814.8 319081.6 22958.8 Q 319585.6 23102.8 320119.6 23192.8 Q 320653.6 23282.8 321181.6 23282.8 Q 321962.8 23282.8 322508.8 23150.8 Q 323054.8 23018.8 323396.8 22772.8 Q 323738.8 22526.8 323894.8 22172.8 Q 324050.8 21818.8 324050.8 21386.8 Q 324050.8 21016 323930.8 20716 Q 323810.8 20416 323492.8 20122 Q 323174.8 19828 322622.8 19528 Q 322070.8 19228 321206.8 18857.2 Q 320342.8 18484 319652.8 18124 Q 318962.8 17764 318482.8 17320 Q 318002.8 16876 317744.8 16294 Q 317486.8 15712 317486.8 14906.8 Q 317486.8 14066.8 317816.8 13412.8 Q 318146.8 12758.8 318746.8 12314.8 Q 319346.8 11870.8 320186.8 11642.8 Q 321026.8 11414.8 322058.8 11414.8 Q 323221.6 11414.8 324187.6 11666.8 Q 325153.6 11918.8 326017.6 12326.8 L 325260.4 14089.6 Q 324481.6 13742.8 323659.6 13484.8 Q 322837.6 13226.8 321986.8 13226.8 Q 320762.8 13226.8 320174.8 13628.8 Q 319586.8 14030.8 319586.8 14774.8 Q 319586.8 15193.6 319724.8 15505.6 Q 319862.8 15817.6 320198.8 16093.6 Q 320534.8 16369.6 321098.8 16651.6 Q 321662.8 16933.6 322502.8 17280.4 Q 323366.8 17640.4 324044.8 18000.4 Q 324722.8 18360.4 325202.8 18810.4 Q 325682.8 19260.4 325934.8 19836.4 Q 326186.8 20412.4 326186.8 21215.2 L 326184.4 21218.8 Z M 329592 11656 L 331861.2 11656 L 334440 19010.8 Q 334608 19490.8 334782 20018.8 Q 334956 20546.8 335106 21074.8 Q 335256 21602.8 335364 22094.8 Q 335472 22586.8 335520 23008 L 335592 23008 Q 335653.2 22706.8 335785.2 22190.8 Q 335917.2 21674.8 336079.2 21092.8 Q 336241.2 20510.8 336415.2 19946.8 Q 336589.2 19382.8 336720 18985.6 L 339109.2 11654.8 L 341365.2 11654.8 L 336157.2 26548 Q 335821.2 27518.8 335431.2 28292.8 Q 335041.2 29066.8 334525.2 29606.8 Q 334009.2 30146.8 333313.2 30440.8 Q 332617.2 30734.8 331657.2 30734.8 Q 331033.2 30734.8 330577.2 30668.8 Q 330121.2 30602.8 329798.4 30530.8 L 329798.4 28789.6 Q 330049.2 28850.8 330433.2 28892.8 Q 330817.2 28934.8 331238.4 28934.8 Q 331814.4 28934.8 332234.4 28796.8 Q 332654.4 28658.8 332966.4 28394.8 Q 333278.4 28130.8 333500.4 27746.8 Q 333722.4 27362.8 333903.6 26869.6 L 334586.4 24949.6 L 329594.4 11653.6 L 329592 11656 Z M 353878.4 23066.8 L 353782.4 23066.8 Q 353518.4 23474.8 353164.4 23840.8 Q 352810.4 24206.8 352348.4 24482.8 Q 351886.4 24758.8 351310.4 24914.8 Q 350734.4 25070.8 350014.4 25070.8 Q 348899.6 25070.8 347975.6 24638.8 Q 347051.6 24206.8 346391.6 23348.8 Q 345731.6 22490.8 345371.6 21218.8 Q 345011.6 19946.8 345011.6 18266.8 Q 345011.6 16576 345371.6 15298 Q 345731.6 14020 346391.6 13156 Q 347051.6 12292 347975.6 11854 Q 348899.6 11416 350014.4 11416 Q 350723.6 11416 351299.6 11572 Q 351875.6 11728 352337.6 11992 Q 352799.6 12256 353159.6 12604 Q 353519.6 12952 353783.6 13336 L 353927.6 13336 Q 353892.8 12928 353855.6 12554.8 Q 353831.6 12242.8 353807.6 11912.8 Q 353783.6 11582.8 353783.6 11390.8 L 353783.6 6158.8 L 355967.6 6158.8 L 355967.6 24830.8 L 354204.8 24830.8 L 353879.6 23065.6 L 353878.4 23066.8 Z M 350435.6 23258.8 Q 351347.6 23258.8 351977.6 22982.8 Q 352607.6 22706.8 352997.6 22142.8 Q 353387.6 21578.8 353573.6 20732.8 Q 353759.6 19886.8 353783.6 18758.8 L 353783.6 18265.6 Q 353783.6 17054.8 353621.6 16112.8 Q 353459.6 15170.8 353069.6 14528.8 Q 352679.6 13886.8 352031.6 13556.8 Q 351383.6 13226.8 350412.8 13226.8 Q 348791.6 13226.8 348029.6 14534.8 Q 347267.6 15842.8 347267.6 18290.8 Q 347267.6 20800 348029.6 22030 Q 348791.6 23260 350436.8 23260 L 350435.6 23258.8 Z M 360316.8 24832 L 358132.8 24832 L 358132.8 11656 L 360316.8 11656 L 360316.8 24832 Z M 357964.8 8090.8 Q 357964.8 7370.8 358330.8 7046.8 Q 358696.8 6722.8 359235.6 6722.8 Q 359499.6 6722.8 359733.6 6800.8 Q 359967.6 6878.8 360141.6 7046.8 Q 360315.6 7214.8 360417.6 7472.8 Q 360519.6 7730.8 360519.6 8090.8 Q 360519.6 8786.8 360141.6 9128.8 Q 359763.6 9470.8 359235.6 9470.8 Q 358696.8 9470.8 358330.8 9134.8 Q 357964.8 8798.8 357964.8 8089.6 L 357964.8 8090.8 Z M 368107.6 13298.8 L 365166.4 13298.8 L 365166.4 24832 L 362971.6 24832 L 362971.6 13298.8 L 360643.6 13298.8 L 360643.6 12400 L 362971.6 11584 L 362971.6 10432 Q 362971.6 9146.8 363241.6 8300.8 Q 363511.6 7454.8 364021.6 6950.8 Q 364531.6 6446.8 365275.6 6236.8 Q 366019.6 6026.8 366955.6 6026.8 Q 367662.4 6026.8 368256.4 6164.8 Q 368850.4 6302.8 369317.2 6470.8 L 368754.4 8161.6 Q 368381.2 8030.8 367943.2 7928.8 Q 367505.2 7826.8 367025.2 7826.8 Q 366545.2 7826.8 366197.2 7940.8 Q 365849.2 8054.8 365621.2 8342.8 Q 365393.2 8630.8 365279.2 9128.8 Q 365165.2 9626.8 365165.2 10408 L 365165.2 11656 L 368106.4 11656 L 368106.4 13298.8 L 368107.6 13298.8 Z M 370556.8 24832 L 368372.8 24832 L 368372.8 11656 L 370556.8 11656 L 370556.8 24832 Z M 368204.8 8090.8 Q 368204.8 7370.8 368570.8 7046.8 Q 368936.8 6722.8 369475.6 6722.8 Q 369739.6 6722.8 369973.6 6800.8 Q 370207.6 6878.8 370381.6 7046.8 Q 370555.6 7214.8 370657.6 7472.8 Q 370759.6 7730.8 370759.6 8090.8 Q 370759.6 8786.8 370381.6 9128.8 Q 370003.6 9470.8 369475.6 9470.8 Q 368936.8 9470.8 368570.8 9134.8 Q 368204.8 8798.8 368204.8 8089.6 L 368204.8 8090.8 Z M 377662.4 25072 Q 376451.6 25072 375395.6 24694 Q 374339.6 24316 373559.6 23494 Q 372779.6 22672 372335.6 21394 Q 371891.6 20116 371891.6 18316 Q 371891.6 16433.2 372347.6 15119.2 Q 372803.6 13805.2 373601.6 12983.2 Q 374399.6 12161.2 375467.6 11789.2 Q 376535.6 11417.2 377759.6 11417.2 Q 378695.6 11417.2 379589.6 11621.2 Q 380483.6 11825.2 381083.6 12124 L 380435.6 13972 Q 380158.4 13852 379822.4 13738 Q 379486.4 13624 379126.4 13534 Q 378766.4 13444 378418.4 13390 Q 378070.4 13336 377758.4 13336 Q 375875.6 13336 375011.6 14542 Q 374147.6 15748 374147.6 18292 Q 374147.6 20825.2 375017.6 21995.2 Q 375887.6 23165.2 377663.6 23165.2 Q 378636.8 23165.2 379422.8 22943.2 Q 380208.8 22721.2 380856.8 22420 L 380856.8 24364 Q 380208.8 24713.2 379470.8 24893.2 Q 378732.8 25073.2 377663.6 25073.2 L 377662.4 25072 Z M 390474 24832 L 390148.8 23066.8 L 390028.8 23066.8 Q 389730 23584 389316 23962 Q 388902 24340 388410 24586 Q 387918 24832 387366 24952 Q 386814 25072 386238 25072 Q 385147.2 25072 384319.2 24796 Q 383491.2 24520 382939.2 23932 Q 382387.2 23344 382105.2 22432 Q 381823.2 21520 381823.2 20258.8 L 381823.2 11656 L 384007.2 11656 L 384007.2 20138.8 Q 384007.2 21698.8 384643.2 22478.8 Q 385279.2 23258.8 386612.4 23258.8 Q 387583.2 23258.8 388243.2 22946.8 Q 388903.2 22634.8 389305.2 22028.8 Q 389707.2 21422.8 389881.2 20534.8 Q 390055.2 19646.8 390055.2 18494.8 L 390055.2 11654.8 L 392239.2 11654.8 L 392239.2 24830.8 L 390476.4 24830.8 L 390474 24832 Z M 396515.2 24832 L 394331.2 24832 L 394331.2 6160 L 396515.2 6160 L 396515.2 24832 Z M 402564.8 23282.8 Q 402780.8 23282.8 403050.8 23258.8 Q 403320.8 23234.8 403572.8 23198.8 Q 403824.8 23162.8 404034.8 23114.8 Q 404244.8 23066.8 404354 23032 L 404354 24688 Q 404196.8 24760 403956.8 24832 Q 403716.8 24904 403428.8 24958 Q 403140.8 25012 402828.8 25042 Q 402516.8 25072 402218 25072 Q 401474 25072 400838 24880 Q 400202 24688 399740 24220 Q 399278 23752 399014 22954 Q 398750 22156 398750 20945.2 L 398750 13300 L 396891.2 13300 L 396891.2 12329.2 L 398750 11393.2 L 399686 8633.2 L 400947.2 8633.2 L 400947.2 11657.2 L 404259.2 11657.2 L 404259.2 13300 L 400947.2 13300 L 400947.2 20945.2 Q 400947.2 22108 401325.2 22696 Q 401703.2 23284 402567.2 23284 L 402564.8 23282.8 Z M 412256.4 24832 L 411811.2 23008 L 411715.2 23008 Q 411320.4 23546.8 410924.4 23936.8 Q 410528.4 24326.8 410060.4 24578.8 Q 409592.4 24830.8 409016.4 24950.8 Q 408440.4 25070.8 407683.2 25070.8 Q 406856.4 25070.8 406160.4 24836.8 Q 405464.4 24602.8 404954.4 24116.8 Q 404444.4 23630.8 404156.4 22892.8 Q 403868.4 22154.8 403868.4 21146.8 Q 403868.4 19178.8 405254.4 18122.8 Q 406640.4 17066.8 409472.4 16970.8 L 411680.4 16888 L 411680.4 16058.8 Q 411680.4 15256 411506.4 14716 Q 411332.4 14176 411002.4 13846 Q 410672.4 13516 410186.4 13372 Q 409700.4 13228 409076.4 13228 Q 408081.6 13228 407223.6 13516 Q 406365.6 13804 405573.6 14212 L 404805.6 12569.2 Q 405693.6 12089.2 406785.6 11753.2 Q 407877.6 11417.2 409077.6 11417.2 Q 410301.6 11417.2 411195.6 11663.2 Q 412089.6 11909.2 412671.6 12443.2 Q 413253.6 12977.2 413541.6 13805.2 Q 413829.6 14633.2 413829.6 15809.2 L 413829.6 24833.2 L 412258.8 24833.2 L 412256.4 24832 Z M 408248.4 23306.8 Q 408979.2 23306.8 409603.2 23078.8 Q 410227.2 22850.8 410683.2 22388.8 Q 411139.2 21926.8 411397.2 21224.8 Q 411655.2 20522.8 411655.2 19576 L 411655.2 18386.8 L 409938 18472 Q 408858 18520 408126 18712 Q 407394 18904 406956 19246 Q 406518 19588 406326 20074 Q 406134 20560 406134 21170.8 Q 406134 22274.8 406716 22790.8 Q 407298 23306.8 408247.2 23306.8 L 408248.4 23306.8 Z M 423868.8 23066.8 L 423772.8 23066.8 Q 423508.8 23474.8 423154.8 23840.8 Q 422800.8 24206.8 422338.8 24482.8 Q 421876.8 24758.8 421300.8 24914.8 Q 420724.8 25070.8 420004.8 25070.8 Q 418890 25070.8 417966 24638.8 Q 417042 24206.8 416382 23348.8 Q 415722 22490.8 415362 21218.8 Q 415002 19946.8 415002 18266.8 Q 415002 16576 415362 15298 Q 415722 14020 416382 13156 Q 417042 12292 417966 11854 Q 418890 11416 420004.8 11416 Q 420714 11416 421290 11572 Q 421866 11728 422328 11992 Q 422790 12256 423150 12604 Q 423510 12952 423774 13336 L 423918 13336 Q 423883.2 12928 423846 12554.8 Q 423822 12242.8 423798 11912.8 Q 423774 11582.8 423774 11390.8 L 423774 6158.8 L 425958 6158.8 L 425958 24830.8 L 424195.2 24830.8 L 423870 23065.6 L 423868.8 23066.8 Z M 420426 23258.8 Q 421338 23258.8 421968 22982.8 Q 422598 22706.8 422988 22142.8 Q 423378 21578.8 423564 20732.8 Q 423750 19886.8 423774 18758.8 L 423774 18265.6 Q 423774 17054.8 423612 16112.8 Q 423450 15170.8 423060 14528.8 Q 422670 13886.8 422022 13556.8 Q 421374 13226.8 420403.2 13226.8 Q 418782 13226.8 418020 14534.8 Q 417258 15842.8 417258 18290.8 Q 417258 20800 418020 22030 Q 418782 23260 420427.2 23260 L 420426 23258.8 Z M 433331.2 25072 Q 432011.2 25072 430919.2 24628 Q 429827.2 24184 429041.2 23332 Q 428255.2 22480 427823.2 21220 Q 427391.2 19960 427391.2 18338.8 Q 427391.2 16706.8 427787.2 15422.8 Q 428183.2 14138.8 428903.2 13244.8 Q 429623.2 12350.8 430625.2 11882.8 Q 431627.2 11414.8 432840.4 11414.8 Q 434027.2 11414.8 434975.2 11840.8 Q 435923.2 12266.8 436583.2 13040.8 Q 437243.2 13814.8 437597.2 14900.8 Q 437951.2 15986.8 437951.2 17306.8 L 437951.2 18664 L 429647.2 18664 Q 429706 20978.8 430624 22070.8 Q 431542 23162.8 433352.8 23162.8 Q 433966 23162.8 434488 23102.8 Q 435010 23042.8 435496 22928.8 Q 435982 22814.8 436438 22640.8 Q 436894 22466.8 437360.8 22250.8 L 437360.8 24194.8 Q 436880.8 24424 436418.8 24592 Q 435956.8 24760 435470.8 24868 Q 434984.8 24976 434462.8 25024 Q 433940.8 25072 433327.6 25072 L 433331.2 25072 Z M 432792.4 13226.8 Q 431424.4 13226.8 430626.4 14162.8 Q 429828.4 15098.8 429697.6 16888 L 435601.6 16888 Q 435601.6 16072 435439.6 15394 Q 435277.6 14716 434935.6 14236 Q 434593.6 13756 434065.6 13492 Q 433537.6 13228 432793.6 13228 L 432792.4 13226.8 Z M 447016.4 21218.8 Q 447016.4 22178.8 446668.4 22898.8 Q 446320.4 23618.8 445666.4 24104.8 Q 445012.4 24590.8 444088.4 24830.8 Q 443164.4 25070.8 442012.4 25070.8 Q 440705.6 25070.8 439769.6 24860.8 Q 438833.6 24650.8 438124.4 24242.8 L 438124.4 22250.8 Q 438497.6 22442.8 438953.6 22628.8 Q 439409.6 22814.8 439913.6 22958.8 Q 440417.6 23102.8 440951.6 23192.8 Q 441485.6 23282.8 442013.6 23282.8 Q 442794.8 23282.8 443340.8 23150.8 Q 443886.8 23018.8 444228.8 22772.8 Q 444570.8 22526.8 444726.8 22172.8 Q 444882.8 21818.8 444882.8 21386.8 Q 444882.8 21016 444762.8 20716 Q 444642.8 20416 444324.8 20122 Q 444006.8 19828 443454.8 19528 Q 442902.8 19228 442038.8 18857.2 Q 441174.8 18484 440484.8 18124 Q 439794.8 17764 439314.8 17320 Q 438834.8 16876 438576.8 16294 Q 438318.8 15712 438318.8 14906.8 Q 438318.8 14066.8 438648.8 13412.8 Q 438978.8 12758.8 439578.8 12314.8 Q 440178.8 11870.8 441018.8 11642.8 Q 441858.8 11414.8 442890.8 11414.8 Q 444053.6 11414.8 445019.6 11666.8 Q 445985.6 11918.8 446849.6 12326.8 L 446092.4 14089.6 Q 445313.6 13742.8 444491.6 13484.8 Q 443669.6 13226.8 442818.8 13226.8 Q 441594.8 13226.8 441006.8 13628.8 Q 440418.8 14030.8 440418.8 14774.8 Q 440418.8 15193.6 440556.8 15505.6 Q 440694.8 15817.6 441030.8 16093.6 Q 441366.8 16369.6 441930.8 16651.6 Q 442494.8 16933.6 443334.8 17280.4 Q 444198.8 17640.4 444876.8 18000.4 Q 445554.8 18360.4 446034.8 18810.4 Q 446514.8 19260.4 446766.8 19836.4 Q 447018.8 20412.4 447018.8 21215.2 L 447016.4 21218.8 Z M 447819.6 23498.8 Q 447819.6 23042.8 447939.6 22724.8 Q 448059.6 22406.8 448263.6 22208.8 Q 448467.6 22010.8 448743.6 21920.8 Q 449019.6 21830.8 449342.4 21830.8 Q 449654.4 21830.8 449936.4 21920.8 Q 450218.4 22010.8 450422.4 22208.8 Q 450626.4 22406.8 450746.4 22724.8 Q 450866.4 23042.8 450866.4 23498.8 Q 450866.4 23944 450746.4 24262 Q 450626.4 24580 450422.4 24785.2 Q 450218.4 24990.4 449936.4 25086.4 Q 449654.4 25182.4 449342.4 25182.4 Q 449019.6 25182.4 448743.6 25086.4 Q 448467.6 24990.4 448263.6 24785.2 Q 448059.6 24580 447939.6 24262 Q 447819.6 23944 447819.6 23498.8  Z " fill-rule="nonzero" style="fill:#535353;;fill-opacity:1;"/>
</svg>